<?xml version="1.0" encoding="utf-8"?>
<!-- Generator: Adobe Illustrator 17.0.0, SVG Export Plug-In . SVG Version: 6.00 Build 0)  -->
<!DOCTYPE svg PUBLIC "-//W3C//DTD SVG 1.1//EN" "http://www.w3.org/Graphics/SVG/1.1/DTD/svg11.dtd">
<svg version="1.1" id="Lager_1" xmlns="http://www.w3.org/2000/svg" xmlns:xlink="http://www.w3.org/1999/xlink" x="0px" y="0px"
	 width="239.591px" height="320px" viewBox="0 0 239.591 320" enable-background="new 0 0 239.591 320" xml:space="preserve">
<path fill="#FFFFFF" d="M236.368,180.143c-2.285,3.24-3.569,21.477-3.569,21.477l-20.939-11.118
	c-0.121-29.591-7.789-58.333-7.789-58.333s-6.296,24.1-7.573,50.177l-48.777-25.898c0-36.365-4.362-59.376-15.177-77.559
	c0-22.16-0.949-37.88-2.467-49.245C128.722,19.507,119.796,0,119.796,0s-8.926,19.507-10.281,29.644
	c-1.519,11.365-2.468,27.085-2.468,49.245C96.233,97.072,91.87,120.083,91.87,156.448l-48.777,25.898
	c-1.276-26.077-7.572-50.177-7.572-50.177s-7.669,28.742-7.79,58.333L6.793,201.62c0,0-1.284-18.237-3.569-21.477
	c-3.666,4.046-3.205,21.46-3.205,21.46l0.074,35.731l2.804,3.492l3.896-3.977l20.933,1.425c0,0.524,0,1.045,0,1.572
	c0,12.899,4.116,22.703,4.116,22.703h7.361c0,0,4.088-10.056,4.117-23.213l51.112,3.479l0.574,16.476l-36.524,40.271V320
	l42.496-10.422l2.277-7.955l3.415,0.9l2.698,8.759l4.588-0.042l5.84,0.091l5.839-0.091l4.588,0.042l2.698-8.759l3.415-0.9
	l2.277,7.955L181.11,320v-20.438l-36.524-40.271l0.574-16.476l51.112-3.479c0.029,13.157,4.117,23.213,4.117,23.213h7.361
	c0,0,4.116-9.804,4.116-22.703c0-0.526,0-1.047,0-1.572l20.934-1.425l3.896,3.977l2.804-3.492l0.074-35.731
	C239.573,201.603,240.034,184.189,236.368,180.143z M119.796,125.839c-4.031,0-9.635-6.579-9.635-42.336
	c0-21.158,5.604-27.737,9.635-27.737s9.635,7.747,9.635,27.737C129.431,118.676,123.827,125.839,119.796,125.839z"/>
</svg>
