<?xml version="1.0" encoding="utf-8"?>
<!-- Generator: Adobe Illustrator 17.0.0, SVG Export Plug-In . SVG Version: 6.00 Build 0)  -->
<!DOCTYPE svg PUBLIC "-//W3C//DTD SVG 1.1//EN" "http://www.w3.org/Graphics/SVG/1.1/DTD/svg11.dtd">
<svg version="1.1" id="Lager_1" xmlns="http://www.w3.org/2000/svg" xmlns:xlink="http://www.w3.org/1999/xlink" x="0px" y="0px"
	 width="320px" height="191.896px" viewBox="0 0 320 191.896" enable-background="new 0 0 320 191.896" xml:space="preserve">
<g>
	<g>
		<path fill="#FFFFFF" d="M320,108.228V94.907L171.117,79.922l5.314-38.296c0-6.342,0-17.079,0-24.976l-3.795-4.995
			C164.106,3.151,164.067,0,160.001,0c-3.751,0-4.107,3.151-12.637,11.655l-3.795,4.995c0,7.896,0,18.634,0,24.976l5.314,38.296
			L0,94.907v13.321l143.735-3.33l10.461,61.606l-17.459,6.66l-8.35,18.732L160,186.655l31.613,5.241l-8.35-18.732l-17.459-6.66
			l10.461-61.606L320,108.228z"/>
	</g>
</g>
</svg>
