<?xml version="1.0" encoding="utf-8"?>
<!-- Generator: Adobe Illustrator 17.0.0, SVG Export Plug-In . SVG Version: 6.00 Build 0)  -->
<!DOCTYPE svg PUBLIC "-//W3C//DTD SVG 1.1//EN" "http://www.w3.org/Graphics/SVG/1.1/DTD/svg11.dtd">
<svg version="1.1" id="Lager_1" xmlns="http://www.w3.org/2000/svg" xmlns:xlink="http://www.w3.org/1999/xlink" x="0px" y="0px"
	 width="320px" height="292.414px" viewBox="0 0 320 292.414" enable-background="new 0 0 320 292.414" xml:space="preserve">
<g>
	<path fill="#FFFFFF" d="M320,155.954v-29.241l-126.061-9.747v-14.621c0-9.282-3.714-17.675-9.697-23.826c0,0,0-29.783,0-49.277
		S164.848,0,160,0s-24.242,9.747-24.242,29.241s0,49.277,0,49.277c-5.983,6.151-9.697,14.544-9.697,23.826v14.621L0,126.713v29.241
		l130.606,9.747l14.848,77.977l-48.484,9.747v15.23l58.182,4.265v19.494h9.697V272.92l58.182-4.265v-15.23l-48.484-9.747
		l14.242-77.977L320,155.954z M148.44,31.975l-2.817,1.101c-1.279,0.183-2.547-0.209-4.407-1.426
		c-1.341-0.878-1.419-2.397-0.159-3.079l5.722-2.296c1.431-0.551,2.482,0.514,2.984,2.204
		C150.224,30.032,149.659,31.386,148.44,31.975z M165.85,30.692h-11.604c-1.602,0-2.901-1.298-2.901-2.901
		c0-1.602,1.299-2.901,2.901-2.901h11.604c1.602,0,2.901,1.299,2.901,2.901C168.751,29.393,167.452,30.692,165.85,30.692z
		 M178.879,31.65c-1.859,1.218-3.128,1.609-4.407,1.426l-2.817-1.101c-1.219-0.589-1.784-1.942-1.323-3.496
		c0.502-1.69,1.553-2.755,2.984-2.204l5.722,2.296C180.298,29.253,180.22,30.772,178.879,31.65z"/>
	<polygon fill="#FFFFFF" points="281.212,96.184 261.818,96.184 261.818,116.697 281.212,118.196 	"/>
	<polygon fill="#FFFFFF" points="242.424,86.437 223.03,86.437 223.03,113.698 242.424,115.197 	"/>
	<polygon fill="#FFFFFF" points="96.97,86.437 77.576,86.437 77.576,115.197 96.97,113.698 	"/>
	<polygon fill="#FFFFFF" points="58.182,96.184 38.788,96.184 38.788,118.196 58.182,116.697 	"/>
</g>
</svg>
