<?xml version="1.0" encoding="utf-8"?>
<!-- Generator: Adobe Illustrator 17.0.0, SVG Export Plug-In . SVG Version: 6.00 Build 0)  -->
<!DOCTYPE svg PUBLIC "-//W3C//DTD SVG 1.1//EN" "http://www.w3.org/Graphics/SVG/1.1/DTD/svg11.dtd">
<svg version="1.1" id="Lager_1" xmlns="http://www.w3.org/2000/svg" xmlns:xlink="http://www.w3.org/1999/xlink" x="0px" y="0px"
	 width="320px" height="290.858px" viewBox="0 0 320 290.858" enable-background="new 0 0 320 290.858" xml:space="preserve">
<g>
	<path fill="#FFFFFF" d="M319.59,166.692c0,0-0.02-1.047-0.059-2.802h0.059c0,0,0.03-50.894-4.071-57.983
		c-0.894,2.755-1.557,13.604-2.024,25.185c-1.944-0.925-4.444-1.526-7.558-1.823c-5.815-0.554-92.625-7.707-92.625-7.707
		c-0.541-5.544-1.623-12.846-1.623-12.846s-2.434-6.085-4.327-5.95c-1.893,0.135-3.516,4.192-3.922,6.085
		c-0.406,1.893-1.111,9.094-1.517,13.015c-3.327,0-28.016,0-28.016,0s0-15.625,0-81.246c0-23.048-7.748-40.498-13.814-40.61
		c0-0.003,0-0.008,0-0.011c-0.01,0-0.02,0.005-0.029,0.005c-0.01,0-0.02-0.005-0.029-0.005c0,0.002,0,0.008,0,0.011
		c-6.065,0.112-14.143,17.563-14.143,40.61c0,65.621,0,81.246,0,81.246s-23.009,0-28.016,0c-0.406-3.921-0.782-11.122-1.188-13.015
		c-0.405-1.893-2.028-5.95-3.922-6.085c-1.893-0.135-4.327,5.95-4.327,5.95s-1.082,7.302-1.623,12.846
		c0,0-17.221,1.534-92.625,7.707c-3.22,0.264-5.626,0.908-7.456,1.911c-0.322-11.615-0.86-22.512-1.756-25.274
		c-3.802,4.948-4.601,32.96-4.752,48.164c-0.215,7.139-0.02,12.621-0.02,12.621s-0.752,1.278,0.596,1.386
		c47.262,3.774,87.024,6.233,105.804,7.326c0.009-0.099,0.028-0.2,0.061-0.307c0.671-2.181,2.364-6.654,2.802-8.405
		c0.438-1.751,2.888-4.929,7.969-4.929c2.789,0,14.16,0,14.16,0s6.085,0,9.736,0c8.554,0,12.769,12.033,12.769,12.033
		s0,42.05,0,47.188c0,4.927-2.711,11.025-4.722,15.215c0.649,1.122,0.991,2.326,2.112,3.335v8.405h-42.023l-3.736-2.785
		c0,0-1.868,1.162-1.868,2.785c0,5.229,0,20.091,0,22.413c0,2.163,0.245,3.199,0.245,3.199l5.358,10.809h44.085
		c1.33,5.722,4.19,6.483,6.479,6.496v0.003c0.009,0,0.02-0.001,0.029-0.001c0.01,0,0.02,0.001,0.029,0.001v-0.003
		c2.289-0.012,5.149-0.774,6.479-6.496h43.755l5.688-10.809c0,0-0.085-3.837-0.085-6c0-1.81,0-13.964,0-19.611
		c0-1.623-1.538-2.785-1.538-2.785l-4.065,2.785h-42.023v-8.405c1.084-0.975,1.492-2.134,2.165-3.225
		c-2.016-4.192-4.775-10.354-4.775-15.325c0-5.138,0-47.188,0-47.188s4.127-12.033,12.769-12.033c3.651,0,9.736,0,9.736,0
		s11.371,0,14.16,0c5.114,0,7.094,2.74,7.97,4.929c0.875,2.189,2.152,6.296,2.802,8.405c0.075,0.245,0.08,0.468,0.034,0.674
		c14.769-0.586,46.181-2.358,106.16-7.693C320.67,167.959,319.59,166.692,319.59,166.692z M159.9,81.944
		c-3.576,0-8.548-5.064-8.548-32.583c0-16.284,4.971-21.347,8.548-21.347s8.547,5.962,8.547,21.347
		C168.447,76.431,163.476,81.944,159.9,81.944z"/>
	<path fill="#FFFFFF" d="M144.176,215.675c0-2.975,0-37.591-0.27-39.078c-0.271-1.487-1.217-4.462-2.84-4.733h-9.465
		c0,0-9.871,0-11.088,0c-1.669,0-2.281,2.407-2.505,4.181c0.132,0.007,0.207,0.011,0.207,0.011l-0.27,1.082c0,0,0,29.478,0,39.484
		c0,10.006,4.192,15.55,4.192,15.55l0.541,0.676l3.604,1.082h8.405c0.642-0.001,2.696-0.225,4.418-0.505
		c0.015-0.245,0.076-0.484,0.205-0.712C141.066,229.603,144.176,218.651,144.176,215.675z"/>
	<path fill="#FFFFFF" d="M201.931,176.12l-0.016-0.064c0,0,0.007,0,0.013,0c-0.114-1.775-0.636-4.192-2.641-4.192
		c-1.217,0-11.088,0-11.088,0h-9.465c-1.622,0.27-2.569,3.245-2.839,4.733c-0.271,1.487-0.271,36.104-0.271,39.078
		c0,2.975,3.11,13.928,4.868,17.038c0.122,0.216,0.185,0.443,0.204,0.675c1.681,0.297,3.784,0.541,4.419,0.542h8.405l3.934-1.082
		l0.541-0.676c0,0,4.192-5.544,4.192-15.55c0-9.047,0-34.008,0-38.711c-0.165-0.007-0.262-0.013-0.262-0.013
		S201.99,177.117,201.931,176.12z"/>
</g>
</svg>
