<?xml version="1.0" encoding="utf-8"?>
<!-- Generator: Adobe Illustrator 17.0.0, SVG Export Plug-In . SVG Version: 6.00 Build 0)  -->
<!DOCTYPE svg PUBLIC "-//W3C//DTD SVG 1.1//EN" "http://www.w3.org/Graphics/SVG/1.1/DTD/svg11.dtd">
<svg version="1.1" id="Lager_1" xmlns="http://www.w3.org/2000/svg" xmlns:xlink="http://www.w3.org/1999/xlink" x="0px" y="0px"
	 width="263.299px" height="320px" viewBox="0 0 263.299 320" enable-background="new 0 0 263.299 320" xml:space="preserve">
<path fill="#FFFFFF" d="M263.299,201.81l-91.725-62.615l-6.132-45.579l-17.375-15.193c-3.504-52.768-9.373-68.097-16.896-77.864
	c-7.523,9.767-14.35,25.095-17.854,77.864L95.942,93.617l-6.132,45.579L0,201.81v31.95l79.016,30.777L42.128,300.62v12.344
	l39.197,7.596l13.353-5.541l14.471-20.097v-26.746l3.83-1.741l1.915,5.697l12.447,1.899l0.957,31.335l2.872,2.849l2.872-2.849
	L135,274.032l12.447-1.899l1.915-5.697l3.83,1.582v26.904l14.64,19.17l14.142,6.468l38.24-7.596V300.62L184.3,264.536l78.998-30.777
	V201.81H263.299z M142.944,92.434c-1.478,10.519-5.068,24.491-11.824,29.669c-6.756-5.179-10.346-19.151-11.824-29.669
	c-1.478-10.519-1.148-21.448,0-25.471c2.419-8.477,8.868-13.691,11.824-14.177c2.956,0.485,9.065,5.383,11.824,14.177
	C144.198,70.959,144.422,81.915,142.944,92.434z"/>
</svg>
