<?xml version="1.0" encoding="utf-8"?>
<!-- Generator: Adobe Illustrator 17.0.0, SVG Export Plug-In . SVG Version: 6.00 Build 0)  -->
<!DOCTYPE svg PUBLIC "-//W3C//DTD SVG 1.1//EN" "http://www.w3.org/Graphics/SVG/1.1/DTD/svg11.dtd">
<svg version="1.1" id="Layer_1" xmlns="http://www.w3.org/2000/svg" xmlns:xlink="http://www.w3.org/1999/xlink" x="0px" y="0px"
	 width="268.804px" height="320px" viewBox="0 0 268.804 320" enable-background="new 0 0 268.804 320" xml:space="preserve">
<path fill="#FFFFFF" d="M227.658,320h-52.12l-10.057-23.772c-6.102,7.614-13.938,13.492-23.543,17.609
	c-9.598,4.104-20.188,6.163-31.77,6.163H71.31c-21.335,0-38.554-6.548-51.655-19.655C6.547,287.25,0,269.864,0,248.237v-26.984
	c0-13.715,2.815-25.818,8.458-36.334C14.093,174.403,21.943,166.102,32,160c-10.057-6.089-17.907-14.397-23.542-24.913
	C2.815,124.571,0,112.307,0,98.288V71.775c0-21.639,6.547-39.006,19.655-52.114C32.756,6.56,50.124,0,71.769,0h84.114
	c21.627,0,39.013,6.56,52.107,19.661c13.108,13.108,19.668,30.475,19.668,52.114v28.8h-70.857V75.434
	c0-9.146-4.576-13.715-13.715-13.715h-58.52c-9.139,0-13.709,4.57-13.709,13.715v39.769c0,9.139,4.57,13.715,13.709,13.715h184.237
	v61.706h-41.146L227.658,320L227.658,320z M143.085,258.281c8.234,0,12.797-3.794,13.715-11.421v-56.237H84.566
	c-9.139,0-13.709,4.576-13.709,13.716v40.228c0,9.152,4.57,13.715,13.709,13.715h58.519V258.281z"/>
</svg>
