<?xml version="1.0" encoding="utf-8"?>
<!-- Generator: Adobe Illustrator 16.0.3, SVG Export Plug-In . SVG Version: 6.00 Build 0)  -->
<!DOCTYPE svg PUBLIC "-//W3C//DTD SVG 1.1//EN" "http://www.w3.org/Graphics/SVG/1.1/DTD/svg11.dtd">
<svg version="1.1" id="Layer_1" xmlns="http://www.w3.org/2000/svg" xmlns:xlink="http://www.w3.org/1999/xlink" x="0px" y="0px"
	 width="257.661px" height="340.381px" viewBox="0 0 257.661 340.381" enable-background="new 0 0 257.661 340.381"
	 xml:space="preserve">
<path d="M243.948,85.067c-3.5-8.5-15-15-24.5-18.5c-2.5-6.5-2.5-13.5-4.5-23.5c3.5-29.5-9-31-17-36c-31.5-14.5-36.5-3-48,2
	s-20.5,2.5-40-2.5s-27.5,16-31,22s-9.5,6-19.5,7.5s-13,7.5-21,17s-11.5,10.5-16,13.5s-6.5,2-8.5,4s-6.5,7.5-9.5,11.5s-5.5,24-4,35.5
	c0,0,1.5,1,0.5,4c-0.5,3,4,47.5,6,59.5s12.5,25,19.5,33.5c1,10.5,4,79.5,4,107.5c25,27,134.5,19.5,146,7c3-87,9.5-96.5,12.5-107.5
	c12-7,19-18.5,26-27.5s13-15.5,20-28.5s12.5-17.5,20.5-30.5S247.448,93.567,243.948,85.067z M172.448,324.567c-13.5,6-18,8-36.5,9
	c-2.5-27.5-4.5-69.5-6-81.5c-0.5,19,0,73,0,81.5c-1.5,0.5-4.5,1-8.5,0c1.5-21.5,1-69-2-82.5c0.5,14.5,0,63-4.5,82.5
	c-15-0.5-49.5,1.5-79.5-14.5c-0.5-41.5-2.5-71.5-5.5-98.5c9.5,14,17.5,20,25,23.5s25,9.5,35,6s21.5-9.5,27.5-12s7.5-0.5,14.5,0.5
	s19.5,1.5,29-2s23-12,23-12C178.948,235.567,173.948,277.067,172.448,324.567z M253.948,126.567c-1.5,9-21.5,38-43,69.5
	c-8.5,10-15.5,18-34,27.5s-27,11-48,7.5c-9-3.5-13,1-24.5,7s-22,14.5-51,0c-15.5-14.5-11.5-14-21-24.5s-18.5-17.5-20.5-30
	s-8-52.5-6.5-60.5c2,0,0-3-1.5-6.5c1-10-2-24,4.5-32s5.5-10,10-11.5s17-5.5,23.5-15.5s10-15.5,28.5-18.5c8-2,10-5,14.5-12
	s10-20,23.5-17s27,11,42.5,3.5s17-10.5,29.5-7.5s25,7.5,28.5,16s3,18-5,42.5c-10.5,2-28,2.5-36,8.5c2-13,0.5-15-2-22.5
	s-15-22.5-18.5-26.5c3,4,9.5,16.5,13,24s3.5,13,2.5,27c-6,4-14,9.5-15,22s0.5,20.5,3.5,25c-4,4.5-7.5,10-18.5,11c0-15-4-18.5-7-34
	s-5-30-15.5-38s-18.5-11.5-23-19.5c6,10.5,11,16.5,21,25s8.5,15,13.5,36.5s10,35.5-4.5,42.5s-18,4.5-25.5-9s-19-30.5-23.5-38.5
	s-15-22-27-23.5c8,4,9,6,13.5,11.5s15.5,22,19.5,32c4.5,5,12.5,19,15,24s2.5,12.5-7.5,19s-30,8-46.5-21
	c-5.265-0.479-16.011-2.8-21.308-8.697c6.353,7.467,7.183,11.299,17.808,14.197c-4,2.5-7.5,6-21,3c11,6,14,6.5,25.5,2
	c5,6,23,28,47.5,14.5c8.5-4.5,8.5-10.5,11-14.5c5.5,4.5,16.5,7.5,24.5,1s8-6,11.5-12.5c4-0.5,13-3.5,22.5-13.5
	c-10,10.5-19,22.5-24,37.5s-4.5,23.5-5,32c5.5-23.5,15.5-54,33-65.5c6.5,5,13.5,6.5,21.5,6.5s17.5-0.5,26.5-1c2.5,8,10.5,15,24,22.5
	c-7-6-6.5-6.5-13-14.5c10.5,5,15,3.5,23,3c-10-1-25-5.5-29-11c10-1.5,13-5,17-11c-5.5,5.5-49.5,9.5-58,6.5c8.5-1.5,15.5-4,25-7.5
	c2-8,5.5-22.5-5-37c-7.5,0.5-23,1-31,1.5c5.5-7,16-19.5,47-18c16,1,25.5,5.5,32,12S255.448,117.567,253.948,126.567z
	 M154.948,91.067c0,0,23-1,32-1.5c4,10.5,6.5,14,5.5,31.5c-15.5,4-28,7-28,7C153.448,120.567,146.948,104.067,154.948,91.067z" fill="#FFFFFF"/>
</svg>
