<?xml version="1.0" encoding="utf-8"?>
<!-- Generator: Adobe Illustrator 16.0.0, SVG Export Plug-In . SVG Version: 6.00 Build 0)  -->
<!DOCTYPE svg PUBLIC "-//W3C//DTD SVG 1.1//EN" "http://www.w3.org/Graphics/SVG/1.1/DTD/svg11.dtd">
<svg version="1.1" id="Layer_1" xmlns="http://www.w3.org/2000/svg" xmlns:xlink="http://www.w3.org/1999/xlink" x="0px" y="0px"
	 width="388.261px" height="241.293px" viewBox="0 0 388.261 241.293" enable-background="new 0 0 388.261 241.293"
	 xml:space="preserve">
<path fill="#FFFFFF" d="M386.421,7.149l-0.197-0.083l-6.371,2.617l-0.088,0.198l-1.236,0.514c0,0-0.557-0.881-0.738-0.806
	c-0.18,0.075-0.4,0.167-0.564,0.235c-0.137,0.056,0.182,1.034,0.182,1.034l-0.996,0.409c0,0-0.477-0.91-0.672-0.83
	c-0.197,0.081-0.438,0.179-0.596,0.244c-0.104,0.043,0.143,1.044,0.143,1.044s-1.543,0.614-1.553,0.591
	c-0.029-0.067-0.189-0.042-0.305-0.254c-0.113-0.212-0.496-0.994-0.496-0.994l-0.127,0.053c0,0,0.195,0.498,0.092,0.701
	c-0.105,0.203-0.127,0.152-0.127,0.152l-5.023,1.972l-0.158,0.263l-11.758,4.708l-0.229-0.366c0,0-6.107,2.354-6.205,2.394
	c-0.1,0.041-1.068,0.838-1.068,0.838l-10.021,4.148l-0.1,0.149l0.277,0.71l-0.162,0.289c0,0-1.018,0.411-1.539,0.625
	c-0.201,0.082-0.785,0.334-1.047,0.35c-0.363,0.021-0.604-0.198-0.768-0.167c-0.166,0.031-0.473-0.336-0.473-0.336l-5.855,2.393
	l0.059,0.409l-0.262,0.318l0.604,1.943c0,0,0.199,0.949-0.861,1.305c-1.055,0.354-1.371-0.399-1.371-0.399s-0.182,0.967-0.771,1.215
	c-0.648,0.274-0.789,0.331-0.789,0.331s-0.184-0.355-0.332-0.438c-0.146-0.083-0.15,0.043-0.15,0.043s0.408,0.895,0.717,1.813
	c0.295,0.884,0.486,1.791,0.486,1.791s-0.092,0.209-0.309,0.239c-0.258,0.035-0.598,0.127-0.85,0.104
	c-0.174-0.015-0.314-0.144-0.314-0.144l-1.281,0.485c0,0-0.063,0.377-0.461,0.528c-0.172,0.065-0.379,0.144-0.617,0.233
	c-0.125,0.048-0.57-0.184-0.57-0.184l-2.234,0.846c0,0-0.006,0.395-0.309,0.514s-0.514-0.225-0.514-0.225l-2.178,0.845
	c0,0-0.02,0.352-0.342,0.525c-0.318,0.173-0.635-0.177-0.635-0.177l-2.143,0.833c0,0-0.008,0.389-0.355,0.527
	c-0.348,0.137-0.582-0.172-0.582-0.172l-2.072,0.807c0,0-0.076,0.368-0.393,0.516c-0.318,0.148-0.52-0.192-0.52-0.192l-2.053,0.821
	c0,0-0.047,0.333-0.342,0.472s-0.539-0.159-0.539-0.159l-2.135,0.83c0,0,0.042,0.294-0.268,0.439
	c-0.308,0.145-0.479-0.179-0.479-0.179l-2.084,0.812c0,0-0.081,0.338-0.418,0.495c-0.338,0.156-0.5-0.146-0.5-0.146l-1.943,0.78
	c0,0,0.043,0.244-0.256,0.385s-0.563-0.075-0.563-0.075L295.75,49.4c0,0-0.051,0.302-0.317,0.408
	c-0.267,0.105-0.487-0.101-0.487-0.101l-1.949,0.794c0,0-0.043,0.326-0.316,0.457c-0.273,0.13-0.502-0.109-0.502-0.109l-1.94,0.788
	c0,0,0.024,0.383-0.218,0.455c-0.189,0.057-0.355-0.104-0.355-0.104l-0.699-2.002c0,0-0.057-0.255-0.278-0.263
	c-0.222-0.008-0.612,0.052-0.612,0.052l0.119,0.571c0,0-2.41,1.456-2.634,1.594c-0.226,0.138-0.456,0.167-0.483,0.081
	s-0.65-2.096-0.65-2.096l-0.459,0.035l-0.176-0.454l-0.201,0.089l0.688,2.15c0,0-0.096,0.651-0.246,0.969
	c-0.15,0.318-0.664,0.62-0.664,0.62l-0.404,0.756c0,0-0.451,0.773-0.006,2.123c0.447,1.353,1.922,5.988,1.957,6.056
	s0.104,0.285,0.332,0.33c0.229,0.045,0.365-0.023,0.487,0.272c0.122,0.296,0.265,0.487,0.228,0.663
	c-0.037,0.176-0.131,0.259-0.271,0.36s-0.82,0.546-0.82,0.546s1.73,5.014,4.108,9.92c1.72,3.547,8.31,13.949,8.31,13.949
	l-0.535,0.495l0.125,0.385l-1.065,0.773l-0.313-0.329l-5.229,3.929l0.103,0.427c0,0-1.406,1.143-1.894,1.487
	c-0.487,0.343-0.771,0.175-0.771,0.175l-0.338-0.028l-0.146,0.371l-0.811,0.556l-0.346-0.272c0,0-0.305-0.038-0.579-0.083
	c-0.274-0.045-0.463-0.442-0.463-0.442s-5.468-9.391-6.362-11.071c-0.893-1.672-2.314-4.469-3.637-7.667
	c-1.311-3.17-1.914-5.116-1.914-5.116s-0.197-0.113-0.357-0.051c-0.213,0.152-0.328,0.348-0.603,0.409
	c-0.426,0.095-0.495-0.083-0.495-0.083l-5.794,2.066c-0.147,0.083-0.305,0.173-0.478,0.274c-0.522,0.307-0.866,0.4-1.104,0.423
	c-0.049,0.079-0.107,0.161-0.158,0.179c-0.029,0.01-0.199,0.073-0.422,0.156c-0.054,0.373-0.126,1.135-0.396,2.698
	c-0.832,4.801-0.209,5.185-1.666,8.45c2.162-4.845,0.766,0.979-2.141,4.116c-0.043,0.806,0.127,1.573,0.424,2.053
	c0.314,0.51,0.549,1.325-0.039,1.506c-0.586,0.181-0.809,0.25-0.809,0.25s-3.265,0.032-5.166,0.002
	c-1.881-0.029-3.252-0.089-3.693-0.342c-0.258-0.147-0.422-0.285-0.521-0.466c-1.787,0.157-3.404,0.156-4.846,0.002
	c-4.639,5.938-10.592,11.671-15.702,14.736c-10.839,6.5-13.549,7-21.136,14c-7.588,7-8.129,8-4.336,14.5s3.793,20.5,3.793,20.5
	s8.129,15.5,15.175,34s7.024,38.468-2.167,44.5c-13.713,9-35.1,5.5-39.561,0c-4.072-5.021-2.349-8.944-16.8-14
	c-8.249-2.886-19.312,2.802-34.863,4.89c-11.148,1.496-32.54-1.777-43.54-1.777c-16,0-11.37,11.189-36.361,11.389
	c-33.53,1.67-31.845-6.5-27.425-36.5c7.909-28.641,28.085-39.223,28.085-39.223s-0.241-8.277,3.01-17.777
	c3.252-9.5,1.626-12,1.626-12s-16.258-6-20.051-27c-0.953-5.276-1.446-10.22-1.514-14.731c-0.281-0.106-0.45-0.17-0.465-0.174
	c-0.433-0.136-2.176-0.762-1.665-3.264c0.339-1.002,0.414-0.969,0.642-1.643c0.229-0.672,0.293-1.261,0.293-1.261l0.012-0.13
	l0.091-0.069l0.044-0.207l-0.062-0.076l0.038-0.813l0.087-0.012l0.017-0.192l-0.05-0.084l0.026-0.672l0.096-0.039l-0.003-0.171
	c0,0-0.003-0.174-0.028-0.114c-0.024,0.061-0.053-0.56-0.053-0.56l0.05-0.085l0.036-0.138l-0.091-0.086c0,0-0.004-0.101-0.026-0.25
	c-2.646-3.323-6.335-8.979-6.065-14.448c0.083-1.673,0.101-2.94,0.086-3.914l-8.861-4.777c0,0-0.115-0.045-0.182-0.258
	c-0.067-0.212-0.075-0.313-0.075-0.313s0.013-0.329,0.015-0.393c0.001-0.063-0.052-0.125,0.006-0.253
	c0.059-0.128,0.412-0.512,0.453-0.571c0.04-0.058,0.217-0.057,0.217-0.057l0.17-0.195l-0.001-0.176l0.28-0.405l0.114,0.046
	l0.187-0.2l-0.029-0.175l0.274-0.453l0.108,0.06l0.176-0.268l-0.096-0.085l0.265-0.551l0.119,0.035l0.126-0.247l-0.116-0.128
	l0.197-0.46l0.167,0.016l0.132-0.29l-0.065-0.211l0.156-0.402l0.146,0.004l0.108-0.239l-0.075-0.248l0.177-0.388l0.14,0.048
	l0.148-0.356l-0.098-0.167l0.165-0.362l0.092-0.025c0,0,0.13-0.05,0.124-0.212c-0.006-0.162,0.225-1.521-0.142-2.305
	c-0.369-0.786-0.769-1.45-1.535-1.891c-0.772-0.443-1.789-1.064-1.789-1.064s-0.731-0.354-1.643-0.88
	c-0.92-0.53-3.228-1.984-3.57-2.188c-0.344-0.205-0.771-0.639-0.771-0.639S8.256,37.213,8.066,37.1
	c-0.19-0.113,0.124-0.809,0.124-0.809l-0.946-0.624c0,0-0.357,0.609-0.885,0.354c-0.531-0.257-4.931-3.119-5.727-3.593
	c-0.8-0.478-0.613-1.516-0.613-1.516l0.197-0.607l-0.028-0.622l0.483-1.156c0,0-0.192-0.42-0.042-0.932
	c0.149-0.511,0.197-0.602,0.321-1.067c0.125-0.465,0.802-0.644,0.802-0.644l0.567-1.204l-0.351-0.222c0,0-0.416-0.323-0.25-0.639
	s0.594-1.361,1.088-2.42c0.492-1.054,0.794-1.632,1.069-2.047c0.274-0.414,0.769-0.146,0.769-0.146l0.299,0.198
	c0,0,0.69-0.666,1.202-0.442c0.225,0.098,0.301,0.135,0.33,0.15l-0.011,0.004c0,0,0.048,0.016,0.011-0.004l2.006-0.634l0.601,0.349
	L9.2,20.77l21.393,13.624l0.204,0.137l1.616,0.981c0,0-0.092,0.305,0.574,0.752c0.662,0.444,4.404,2.801,4.721,3.015
	c0.316,0.212,0.547-0.04,0.547-0.04l14.51,9.256l0.71-1.121l0.645,0.441c0,0-0.087,0.926-0.149,1.26
	c-0.061,0.334,0.342,0.513,0.342,0.513s0.719,0.486,0.957,0.647c0.238,0.161,0.457,0.542,0.312,1.096
	c-0.145,0.555-1.65,4.765-1.65,4.765l0.188,0.12l-0.088,0.319l-0.167,0.176l-0.26,0.682c0,0,0.113,1.106,0.211,1.638
	c0.098,0.531-0.433,1.143-0.785,0.926c-0.353-0.217-1.919-0.992-3.141,0.127c-0.338,0.31-0.621,0.622-0.871,0.94
	c1.045,1.169,1.876,2.239,2.342,3.058c8.157,2.534,16.531,10.91,18.995,14.698c3.251,5,13.006,8,15.716,8c2.71,0,6.503-2,6.503-2
	s-11.129-5-10.587-16.5s4.877-22,4.877-22s-6.129-11.5-5.587-18s11.38-16,19.509-15.5s13.716,6.5,13.716,6.5
	s18.934-4.719,32.507-3.487c11.345,1.029,26.743,7.5,26.743,7.5s8.628-7.036,15.825-1.013c11.498,9.623,1.356,18.987,1.356,18.987
	s5.331,13.524,5.878,16.55c0.542,3,2.014,11.082-0.542,16.937c-3.252,7.45-10.486,8.025-10.486,8.025s12.637-1.032,23.137-4.51
	c-0.779-2.678-1.432-4.929-1.432-4.929s-0.251-0.716-0.238-1.261c0.014-0.545,0.098-0.759,0.098-0.759s4.4-1.921,4.994-2.184
	c0.599-0.264,0.974,0.504,1.051,0.886c0.076,0.382,0.432,0.228,0.432,0.228s16.1-6.806,16.305-6.896
	c0.207-0.09,0.418,0.422,0.418,0.422l11.713-4.823c0,0-0.012,0.105,0.107,0.053c0.12-0.052,0.092-0.154,0.092-0.154l0.121-0.052
	c0,0,0.014,0.122,0.078,0.094s0.086-0.18,0.086-0.18l0.102-0.044c0,0-0.001,0.143,0.082,0.107c0.084-0.036,0.074-0.146,0.074-0.146
	l0.11-0.048c0,0-0.015,0.135,0.078,0.095c0.095-0.041,0.024-0.139,0.024-0.139l0.13-0.057c0,0,0.001,0.114,0.085,0.078
	s0.059-0.167,0.059-0.167l0.055-0.024c0,0-0.108-0.466-0.131-0.543c-0.021-0.076,0.103-0.087,0.103-0.087l1.433-0.623l0.023-0.14
	l0.509-0.221l0.099,0.201l0.1-0.028c0,0,0.033-0.144,0.156-0.197c0.123-0.054,0.597-0.26,0.597-0.26s-0.347-1.863-0.392-2.059
	c-0.045-0.196,0.105-0.305,0.105-0.305l0.359-0.649l0.479-0.198l-0.055-0.379l0.242-0.108l-0.164-5.205l0.998-0.496
	c0,0-0.735-2.41-0.813-2.77c-0.076-0.359,0.563-2.216,0.955-2.367c0.393-0.15,24.376-8.264,26.643-9.049
	c2.295-0.796,3.305,0.268,3.494,0.851c0.188,0.583,0.781,1.953,0.996,3.12c0.08,0.439,0.118,0.896,0.118,0.896
	s0.771,0.591,1.095,1.916c0.156,0.644,0.237,0.817,0.237,0.817s0.647-0.204,0.63-0.26c-0.02-0.056-0.152-0.633-0.186-0.857
	c-0.033-0.224,0.113-0.384,0.113-0.384s2.623-0.469,2.801-0.499c0.18-0.03,0.302,0.012,0.363,0.161
	c0.063,0.149,0.074,0.145,0.074,0.145l0.707-0.358l-0.512-1.719l0.195-0.473l0.832-0.402l0.121,0.365c0,0,0.043-0.116,0.424-0.285
	c0.382-0.169,0.613-0.127,0.613-0.127l-0.129-0.346L287.813,35l0.243,0.704l1.082-0.444l-0.23-0.732l1.004-0.435l0.248,0.707
	l1.112-0.458l-0.233-0.736l1.056-0.457l0.274,0.725l1.082-0.469l-0.238-0.739l1.029-0.445l0.264,0.812l1.113-0.483l-0.266-0.811
	l1.061-0.458l0.318,0.834l1.126-0.488l-0.3-0.842l1.053-0.455l0.28,0.847l1.114-0.498l-0.276-0.833l1.085-0.469l0.325,0.836
	l1.103-0.506l-0.297-0.819l1.162-0.501l0.318,0.872l1.182-0.51l-0.289-0.885l1.055-0.455l0.313,0.882l1.262-0.545l-0.305-0.884
	l1.057-0.456l0.34,0.876l1.252-0.542l-0.318-0.883l1.08-0.466l0.346,0.88l1.152-0.499l-0.311-0.893l1.193-0.516l0.352,0.885
	l1.236-0.535l-0.314-0.897l1.174-0.507l0.344,0.894l1.205-0.521c0,0-0.373-0.879-0.332-0.897c0.449-0.193,1.262-0.543,1.262-0.543
	l0.357,0.895l1.15-0.499l-0.313-0.912l1.35-0.582l0.525,1.528l0.73,1.307l0.271-0.104l-0.119-0.505c0,0,0.313-0.282,0.646-0.278
	c0.188,0.002,0.701,0.199,0.701,0.199l0.182-0.079l-0.537-1.675l4.053-13.916c0,0,0.295-1.422,2.064-1.65
	c1.785-0.229,2.781,1.413,2.781,1.413s4.521,11.834,5.109,13.274c-0.037-0.094,0.098,0.152,0.242,0.117
	c0.17-0.042,9.75-4.091,9.75-4.091l1.639-0.115l5.846-2.447l-0.131-0.46l11.666-4.933l0.318,0.119c0,0,4.711-1.985,4.891-2.062
	c0.18-0.076,0.35-0.029,0.412,0.063c0.061,0.093,0.199,0.51,0.199,0.51l0.205-0.067c0,0-0.244-0.611-0.34-0.829
	c-0.094-0.217-0.078-0.522,0.029-0.568c0.037-0.015,1.492-0.636,1.492-0.636s0.6,0.74,0.783,0.662
	c0.166-0.07,0.354-0.15,0.512-0.217c0.158-0.067-0.188-0.918-0.188-0.918l0.973-0.415c0,0,0.5,0.788,0.668,0.717
	c0.178-0.076,0.398-0.17,0.549-0.234c0.098-0.042-0.209-0.914-0.209-0.914l1.064-0.455l0.281,0.041l6.529-2.746l0.109-0.209
	L384.941,0l0.561,0.027c0,0,1.055,1.665,1.867,3.605c0.816,1.948,0.893,2.721,0.893,2.721L386.421,7.149z M22.158,49.374
	l-1.124,3.189c-0.378,1.543,0.468,2.963,1.508,3.533l5.035,3.02c-0.566-1.217-2.008-3.591-2.134-4.854
	c-0.157-1.575-1.102-2.362,0-3.623c0.438-0.5,1.252-1.022,2.249-1.335l-1.828-1.359C24.49,47.005,23.081,47.797,22.158,49.374z
	 M194.833,66.091c0.742-7.461-6.587-32.555-16.638-37.811c-6.842-3.579-18.358-9.454-33.057-10
	c-14.145-0.525-30.478,1.576-44.186,11.5c-10.085,7.301-12.464,22-14.09,32.5s5.167,19,10.587,22.5c5.419,3.5,25.47-2,44.979-2.5
	c17.667-0.453,30.852,2.367,33.19,2.904c-0.797,0.572,0.409,0.096,0.409,0.096s-0.165-0.04-0.409-0.096
	c0.616-0.441,1.996-2.111,6.912-3.417C190.392,79.679,193.576,78.724,194.833,66.091z M185.242,118.78
	c-8.67-7.5-29.164-22-61.153-22c-49.974,0-56.318,21-56.318,21s-2.835,7.5-7.712,19s-7.587,35-1.626,53s21.135,26,28.722,29
	c7.587,3,19.509,4,36.309,4c16.8,0,23.845-5.5,23.845-5.5s6.503-13.777,11.922-24.777s23.122-25.223,29.083-28.223
	s14.813-2,14.813-4.5s-1.986-14.723-3.611-20.223C197.887,134.057,193.913,126.28,185.242,118.78z M212.896,70.2
	c-0.13-0.529-0.42-0.34-0.42-0.34l-4.057,1.783c0,0-0.266,0.074-0.168,0.48c0.11,0.463,0.375,0.386,0.375,0.386l4.063-1.773
	C212.69,70.736,213.016,70.693,212.896,70.2z M244.292,65.158l-0.023,0.01c0.009-0.001,0.02-0.003,0.027-0.004L244.292,65.158z
	 M244.56,65.078l-0.102,0.042v0.02c0.049-0.007,0.096-0.015,0.145-0.021L244.56,65.078z M245.218,64.859l-0.102,0.042l-0.057-0.069
	l-0.081,0.033l-0.013,0.118l-0.104,0.053l-0.047-0.063l-0.067,0.028l-0.022,0.099c0.198-0.029,0.396-0.057,0.599-0.085
	L245.218,64.859z M246.957,64.771l-0.131,0.049c0.047-0.005,0.092-0.012,0.137-0.018C246.958,64.783,246.957,64.771,246.957,64.771z
	 M269.542,70.867c-0.64,0.917-1.06,1.472-1.428,1.865c1.481-0.551,2.887-1.075,2.973-1.11c0.195-0.081-0.237-0.52,0.013-1.245
	c0.267-0.77,0.291-1.702,0.012-2.616c-0.528-1.739-1.964-2.779-3.28-2.448c-0.023,0.006-0.826,0.297-1.597,0.577
	C270.583,68.942,271.414,68.183,269.542,70.867z M276.425,35.296c-0.235-0.734-0.9-1.151-1.643-0.808l-18.154,8.2
	c-0.666,0.308-1.01,0.927-0.754,1.789l0.396,1.335c0,0,0.463-0.107,0.883,0.077c0.452,0.199,0.864,0.692,0.864,0.692l17.035-7.43
	c0,0-0.071-0.932,0.329-1.582c0.402-0.652,1.398-1.065,1.398-1.065L276.425,35.296z M327.732,33.406
	c0.158,0.041,0.324-0.097,0.369-0.308c0.047-0.21-0.047-0.414-0.207-0.454c-0.158-0.04-0.324,0.098-0.369,0.308
	C327.478,33.163,327.572,33.366,327.732,33.406z M324.839,19.261c-0.096,0.237-0.199,0.57-0.262,1.332
	c-0.031,0.401,0.35,0.82,0.676,0.984s0.77,0.016,0.77,0.016l-0.959-2.592C325.064,19.001,324.935,19.024,324.839,19.261z
	 M330.74,14.361c-0.121-0.104-0.996,0.117-1.129-0.123c-0.367-0.675-0.717-1.759-0.717-1.759s-0.418-0.616-0.844-0.509
	c-0.332,0.084-1.252,0.209-1.488,0.801c0.057-0.141-1.092,4.111-1.092,4.111l5.354-2.385
	C330.824,14.497,330.867,14.469,330.74,14.361z M331.457,21.894c-0.439,0.188-3.648,1.566-4.316,1.852c-0.664,0.286-0.324,1-0.324,1
	l5.41-2.311C332.226,22.435,331.898,21.704,331.457,21.894z M176.496,73.676c-4.387-2.193-6.311-7.311-11.916-8.285
	c-5.604-0.975-8.529-1.462-14.865-0.244c-6.001,1.154-8.529,2.437-8.529,2.437l1.218-2.437c0,0,12.531-4.404,21.933-3.899
	c8.033,0.432,13.891-1.949,18.521,3.168C186.227,68.141,180.882,75.869,176.496,73.676z M167.359,47.28c0,0-1.626,0-1.626-3
	s1.626-8,8.129-10s9.998,1,12.708,6c2.709,5,4.634,13.5,1.924,13.5s-2.71-1.5-9.755-4C171.694,47.28,167.359,47.28,167.359,47.28z
	 M166.817,50.78c0,0-2.493,7.6-6.178,7.6c-3.427,0-5.744-3.6-5.744-3.6s-2.168-3-1.084-5s3.251-1,7.045-1
	S166.817,50.78,166.817,50.78z M147.308,46.08c-5.374-0.646-12.729-3.234-27.929-0.3c-6.421,1.24-10.162-3.643-9.078-9.143
	c1.083-5.5,4.877-10.538,13.006-11.538s13.926,1.006,19.346,7.506c5.419,6.5,6.822,9.575,6.822,9.575S152.293,46.68,147.308,46.08z"
	/>
</svg>
