<?xml version="1.0" encoding="utf-8"?>
<!-- Generator: Adobe Illustrator 17.0.0, SVG Export Plug-In . SVG Version: 6.00 Build 0)  -->
<!DOCTYPE svg PUBLIC "-//W3C//DTD SVG 1.1//EN" "http://www.w3.org/Graphics/SVG/1.1/DTD/svg11.dtd">
<svg version="1.1" id="Lager_1" xmlns="http://www.w3.org/2000/svg" xmlns:xlink="http://www.w3.org/1999/xlink" x="0px" y="0px"
	 width="320px" height="122.782px" viewBox="0 0 320 122.782" enable-background="new 0 0 320 122.782" xml:space="preserve">
<g>
	<path fill="#FFFFFF" d="M98.129,42.657C55.024-9.831,17.243-0.705,0,3.099c17.243,2.283,42.091,19.018,54.517,32.457
		c-19.778-5.832-33.978-2.03-41.331,3.297c17.495-1.774,30.174,7.606,36.006,15.467s6.085,12.933,17.242,22.568
		C66.434,76.887,95.087,46.713,98.129,42.657z"/>
	<path fill="#FFFFFF" d="M265.483,35.557C277.909,22.117,302.757,5.382,320,3.099c-17.243-3.804-55.024-12.931-98.129,39.558
		c3.042,4.056,31.695,34.23,31.695,34.232c11.156-9.636,11.41-14.707,17.242-22.568s18.511-17.242,36.006-15.467
		C299.461,33.527,285.261,29.725,265.483,35.557z"/>
	<path fill="#FFFFFF" d="M160,70.042c-16.483,0-36.768-0.762-61.871-21.301c0,0-22.06,23.668-31.949,34.992
		c16.229,18.257,44.628,39.049,93.82,39.049s77.59-20.792,93.82-39.049c-9.889-11.324-31.949-34.992-31.949-34.992
		C196.768,69.28,176.483,70.042,160,70.042z"/>
</g>
</svg>
