<?xml version="1.0" encoding="utf-8"?>
<!-- Generator: Adobe Illustrator 17.0.0, SVG Export Plug-In . SVG Version: 6.00 Build 0)  -->
<!DOCTYPE svg PUBLIC "-//W3C//DTD SVG 1.1//EN" "http://www.w3.org/Graphics/SVG/1.1/DTD/svg11.dtd">
<svg version="1.1" id="Layer_1" xmlns="http://www.w3.org/2000/svg" xmlns:xlink="http://www.w3.org/1999/xlink" x="0px" y="0px"
	 width="320px" height="297.484px" viewBox="0 0 320 297.484" enable-background="new 0 0 320 297.484" xml:space="preserve">
<g>
	<path fill="#FFFFFF" d="M25.928,84.995c-0.036,0.118-0.027,0.178-0.026,0.246C26.149,84.323,26.207,84.088,25.928,84.995z"/>
	<path fill="#FFFFFF" d="M314.199,230.352c-3.378-17.115-9.004-37.497-9.004-37.497s-4.243-1.547-4.849-5.502
		s-1.123-74.219-1.123-74.219s-0.779-7.568-1.56-12.986c-0.575-4.012-2.858-12.291-3.564-14.908
		c-0.031,1.531-0.383-6.513-14.289-8.745c-5.884-0.944-13.567-2.834-17.116-2.834c-11.449,0-14.262-2.834-14.262-2.834
		s-2.766-4.634-2.855-5.666c-0.086-1.031,0-5.666,0-5.666V53.83c5.294,0,5.706-5.968,5.706-11.333V11.332
		c0-5.365-0.412-8.499-5.706-8.499c0,0-4.634-2.832-27.098-2.832c-22.465,0-27.101,2.832-27.101,2.832
		c-5.294,0-5.704,3.134-5.704,8.499v33.999c0,5.365,0.411,8.499,5.704,8.499v5.666c0,0-2.16,2.318-2.855,2.834
		c-1.098,0-11.41,0-11.41,0l-1.259-6.988v-5.169c0,0-3.008-4.52-15.856-4.676c-12.847,0.157-15.854,4.676-15.854,4.676v5.169
		l-1.261,6.988c0,0-10.313,0-11.41,0c-0.693-0.516-2.853-2.834-2.853-2.834V53.83c5.292,0,5.704-3.134,5.704-8.499V11.332
		c0-5.365-0.412-8.499-5.704-8.499c0,0-4.636-2.832-27.1-2.832s-27.096,2.83-27.096,2.83c-5.294,0-5.704,3.134-5.704,8.499v31.165
		c0,5.365,0.411,11.333,5.704,11.333v5.666c0,0,0.087,4.634,0,5.666c-0.087,1.031-2.853,5.666-2.853,5.666
		s-2.814,2.834-14.263,2.834c-3.55,0-11.233,1.888-17.115,2.834c-13.906,2.232-14.26,10.274-14.289,8.745
		c-0.708,2.617-2.987,10.896-3.564,14.908c-0.779,5.418-1.558,12.986-1.558,12.986s-0.519,70.262-1.125,74.219
		c-0.606,3.955-4.849,5.502-4.849,5.502s-5.627,20.382-9.004,37.497C2.425,247.467,0,263.807,0,267.934
		c0,4.127,1.558,15.135,2.164,20.899c0.606,5.761,20.005,8.564,46.583,8.65c26.577,0.087,51.159-1.941,52.284-12.004
		s1.904-14.276,1.99-18.662c0.087-4.387-4.502-33.627-5.973-42.485c-1.473-8.856-7.706-29.152-7.706-29.152s4.935-0.259,9.784-1.549
		c4.848-1.29,12.379-3.808,12.379-3.808s9.246-9.314,11.41-5.667c1.141,1.924,8.297,1.119,8.297,1.119s9.595,0,12.794,0
		c3.399,3.773,15.993,3.178,15.993,3.178s12.594,0.595,15.993-3.178c3.199,0,12.794,0,12.794,0s7.156,0.805,8.297-1.119
		c2.164-3.647,11.41,5.667,11.41,5.667s7.529,2.52,12.379,3.808c4.848,1.29,9.784,1.549,9.784,1.549s-6.235,20.296-7.707,29.152
		c-1.471,8.858-6.058,38.098-5.973,42.485c0.087,4.385,0.865,8.599,1.991,18.662c1.123,10.062,25.705,12.089,52.282,12.004
		c26.579-0.086,45.978-2.887,46.584-8.65c0.605-5.763,2.164-16.771,2.164-20.899S317.574,247.467,314.199,230.352z M137.609,153.505
		c0,3.912-2.459,6.356-6.398,6.356c-3.939,0-9.595-2.444-9.595-6.356V93.147c0-3.912,5.658-6.354,9.595-6.354
		c3.938,0,6.398,2.442,6.398,6.354V153.505z M198.382,153.505c0,3.912-5.658,6.356-9.597,6.356s-6.396-2.444-6.396-6.356V93.147
		c0-3.912,2.459-6.354,6.396-6.354c3.938,0,9.597,2.442,9.597,6.354V153.505z"/>
	<path fill="#FFFFFF" d="M294.098,85.239c0.002-0.068,0.01-0.128-0.027-0.246C293.791,84.088,293.851,84.323,294.098,85.239z"/>
</g>
</svg>
