<?xml version="1.0" encoding="utf-8"?>
<!-- Generator: Adobe Illustrator 17.0.0, SVG Export Plug-In . SVG Version: 6.00 Build 0)  -->
<!DOCTYPE svg PUBLIC "-//W3C//DTD SVG 1.1//EN" "http://www.w3.org/Graphics/SVG/1.1/DTD/svg11.dtd">
<svg version="1.1" id="Layer_1" xmlns="http://www.w3.org/2000/svg" xmlns:xlink="http://www.w3.org/1999/xlink" x="0px" y="0px"
	 width="318.822px" height="318.822px" viewBox="0 0 318.822 318.822" enable-background="new 0 0 318.822 318.822"
	 xml:space="preserve">
<path fill="#FFFFFF" d="M159.411,0C71.512,0,0,71.512,0,159.411s71.512,159.411,159.411,159.411s159.411-71.512,159.411-159.411
	S247.311,0,159.411,0z M236.211,198.109c5.89-11.642,9.231-24.783,9.231-38.698c0-13.876-3.322-26.984-9.183-38.603l52.14-46.176
	c16.06,24.352,25.423,53.49,25.423,84.779c0,31.326-9.386,60.497-25.48,84.866L236.211,198.109z M78.38,159.411
	c0-44.681,36.35-81.031,81.031-81.031s81.031,36.35,81.031,81.031s-36.351,81.031-81.031,81.031S78.38,204.092,78.38,159.411z
	 M244.344,30.524l-46.163,52.125c-11.66-5.913-24.826-9.268-38.77-9.268c-13.926,0-27.078,3.347-38.728,9.247l-46.165-52.13
	C98.892,14.393,128.073,5,159.411,5C190.766,5,219.961,14.403,244.344,30.524z M30.435,74.614l52.139,46.174
	c-5.867,11.624-9.193,24.738-9.193,38.623c0,13.955,3.361,27.133,9.284,38.8l-52.122,46.16C14.41,219.983,5,190.777,5,159.411
	C5,128.114,14.368,98.969,30.435,74.614z M74.679,288.43l46.181-52.144c11.605,5.844,24.695,9.156,38.551,9.156
	c13.904,0,27.037-3.337,38.674-9.219l46.17,52.133c-24.364,16.086-53.527,25.466-84.844,25.466
	C128.142,313.822,99.021,304.471,74.679,288.43z"/>
</svg>
