<?xml version="1.0" encoding="utf-8"?>
<!-- Generator: Adobe Illustrator 16.0.0, SVG Export Plug-In . SVG Version: 6.00 Build 0)  -->
<!DOCTYPE svg PUBLIC "-//W3C//DTD SVG 1.1//EN" "http://www.w3.org/Graphics/SVG/1.1/DTD/svg11.dtd">
<svg version="1.1" id="Layer_1" xmlns="http://www.w3.org/2000/svg" xmlns:xlink="http://www.w3.org/1999/xlink" x="0px" y="0px"
	 width="328.253px" height="363.545px" viewBox="0 0 328.253 363.545" enable-background="new 0 0 328.253 363.545"
	 xml:space="preserve">
<path fill="#FFFFFF" d="M315.748,288.369c-3.906,12.577-15.137,30.729-22.135,33.756c-4.395,7.961-14.16,16.878-22.785,20.381
	c-8.627,3.503-16.438,5.095-19.531,5.095c-6.51,5.414-19.692,9.555-33.201,7.006c-11.229,3.98-30.109,7.803-38.41,0.638
	s-13.833-15.922-14.973-15.922c-1.141,0-2.604,4.14-3.906,7.006c-1.302,2.866-6.51,10.03-16.926,13.375
	c-10.417,3.344-13.671,3.979-20.833,3.821c-7.162-0.159-14.648-2.866-23.437-4.459c-8.789-1.592-22.134-3.024-29.295-5.096
	c-7.161-2.07-13.997-4.299-26.041-16.56c-12.043-12.261-22.46-21.177-26.691-31.845c-1.628-3.662-1.791-5.096-2.604-7.645
	c-0.813-2.547-6.673-9.713-7.812-14.648c-0.99-4.291-1.623-13.799-1.623-13.799s-0.203-1.05-0.33-1.486
	c-0.977-3.344-3.255-6.209-3.255-11.465c0-5.254,1.953-15.922,1.953-15.922s-3.744-9.076-3.906-16.56
	c-0.163-7.483,4.557-21.019,4.557-21.019s-2.116-11.782-0.651-18.471c1.465-6.688,3.092-13.693,3.255-16.56
	c0.163-2.867-0.814-10.987,5.208-18.47s7.161-7.006,7.161-7.006s1.302-15.604,6.51-24.839c2.668-4.73,8.883-15.57,8.883-15.57
	s2.169-11.01,4.789-16.912c5.371-12.101,14.485-20.699,16.275-24.839c1.791-4.14,6.022-16.4,13.671-24.839
	s16.275-17.356,28.645-22.929c12.369-5.573,17.74-8.28,21.483-8.917c3.743-0.637,12.207-0.478,13.671-0.637
	c1.465-0.16,4.395-4.458,9.765-2.548c5.371,1.911,12.532,5.095,14.974,16.56c2.441,11.464,2.93,17.196,4.557,17.196
	c1.627,0,2.116-7.484,4.557-16.56c2.441-9.076,7.648-16.878,16.928-17.196c9.277-0.318,16.438,6.688,18.229,8.28
	c1.791,1.592,17.576,4.299,31.898,13.375c14.323,9.076,23.274,19.903,24.739,25.476c1.466,5.573,3.255,7.006,3.255,7.006
	s7.813,7.643,12.369,16.56c4.559,8.917,11.557,19.744,11.066,23.565c4.07,3.98,7.324,12.738,7.813,17.196
	c4.558,5.732,13.183,23.565,13.021,42.672c6.674,8.917,11.395,12.897,10.416,17.196c1.953,4.14,3.418,16.242,1.303,19.744
	c3.58,4.299,5.859,7.483,6.512,15.285c0.648,7.803,0,14.649,0,14.649c2.277,3.661,3.092,17.354,3.254,26.75
	C328.279,257.638,329.908,278.656,315.748,288.369z M108.824,340.821c3.587,0.449,9.417-1.194,13.752-1.793
	c4.335-0.598,1.794,0.748-1.793,1.793c-3.587,1.048-4.484,3.14-1.196,4.187c3.289,1.046,8.669,0.448,14.948-1.196
	c6.278-1.644-2.242-4.334-5.381-7.174c-3.139-2.841-3.139-4.783-8.969-4.783s-8.02,2.404-11.36,3.588
	C99.108,338.878,105.237,340.374,108.824,340.821z M103.443,330.06c5.68,1.645,5.83-2.541,5.381-4.783
	c-0.448-2.242-4.634-10.016-7.175-13.752s-3.737-7.922-6.577-10.164c-2.84-2.242-2.84-1.943-4.783-1.795
	c-1.943,0.149-1.644,3.588-2.392,5.979c-0.748,2.394-2.392,2.394-4.186,1.196s2.093-2.989,2.392-6.577
	c0.299-3.587-0.598-9.269-1.793-11.958c-1.196-2.689-5.083-2.84-10.763-4.783c-5.68-1.943,1.644-3.289,6.577-2.99
	s7.922,6.728,8.969,8.371c1.047,1.645,3.438,6.278,7.773,8.371c4.334,2.094,8.819,10.764,13.154,19.731s15.396,10.612,18.536,11.358
	c3.139,0.748,12.407,0.897,16.144,1.196c3.737,0.3-0.897,1.347-3.587,1.794c-2.691,0.448-3.887,0.148-6.577,1.195
	s0.748,3.14,3.587,5.979c2.84,2.84,6.876,0.448,9.567-0.598c2.69-1.047,2.84-2.84,5.381-5.979c2.542-3.14,2.242-6.278,1.196-7.772
	c-1.047-1.495-2.99-0.149-6.577,0.599c-3.588,0.746-5.232-1.795-8.969-2.393c-3.737-0.598-6.577-5.23-10.165-7.176
	c-3.588-1.943-5.232-4.035-8.371-4.186c-3.139-0.148-3.289,0.747-4.185,0.598c-0.897-0.148,0.149-2.988,2.392-4.186
	c2.242-1.195,6.278,0.299,13.154,5.979c6.876,5.681,15.247,7.475,19.133,7.176c3.887-0.299,5.531-3.887,6.577-7.771
	c1.046-3.888-1.345-9.419-2.989-14.352c-1.645-4.934-10.763-4.035-14.948-4.186c-4.185-0.149-10.165-4.186-12.556-7.772
	c-2.391-3.587-3.886-3.589-8.371-3.589s-6.428-4.932-7.773-6.575c-1.345-1.646-9.716-3.289-13.752-2.99
	c-4.036,0.3-4.484,2.99-2.99,5.979c1.494,2.988,6.577,8.67,11.36,11.359c4.783,2.69,21.375,7.623,26.308,8.969
	s11.062,6.278,13.752,8.371c2.691,2.092-3.587,0-7.175-1.793c-3.588-1.795-18.834-6.728-23.318-7.773
	c-4.484-1.047-17.19-7.922-20.927-11.958s-5.979-12.406-8.371-13.752c-2.392-1.347-12.855-0.3-18.536,0.598
	c-5.68,0.897-6.727,0.748-5.979,4.783c0.748,4.036,2.392,8.222,4.783,11.36c2.392,3.14,2.691,2.69,1.196,3.588
	c-1.495,0.896-2.392-1.646-4.783-1.795c-2.391-0.148-3.438,3.737-2.99,7.176c0.449,3.438,1.794,2.541,4.186,4.783
	c2.392,2.242,4.335-0.448,7.175-4.783c2.84-4.336,1.345,1.047,0.598,4.783c-0.748,3.736-0.149,8.222,5.979,12.557
	c6.129,4.335,14.35,0.299,17.938-2.393c3.588-2.69-0.149,4.187-2.989,6.578s-3.588,4.782-1.196,5.979
	C93.278,327.069,97.763,328.416,103.443,330.06z M63.383,328.864c3.587,3.736,13.453,6.576,20.329,8.371
	c6.876,1.793,5.531,0.746,9.566,0.598c4.036-0.148,4.484-3.289,2.392-4.783c-2.093-1.494-5.83-4.484-10.165-5.382
	c-4.335-0.896-12.108-4.782-16.144-7.772c-4.036-2.988-5.487-0.502-7.773,0C55.46,321.24,59.795,325.126,63.383,328.864z
	 M36.477,301.36c2.541,5.381,8.221,3.586,12.556,5.381c4.335,1.794,2.84,0.896,4.186,2.988c1.346,2.094-4.335-0.896-7.773-0.598
	c-3.438,0.299,0.299,3.887,4.783,8.371s3.289-0.299,7.175-1.794c3.886-1.495,4.036-5.082,2.392-8.969
	c-1.645-3.888-8.371-7.923-13.154-11.36c-4.783-3.438-6.128-4.634-10.762-6.576c-4.634-1.943-3.887-1.496-4.783-0.599
	C30.199,289.103,33.936,295.978,36.477,301.36z M24.519,278.041c1.196,4.783,4.783,4.187,8.371,4.783
	c3.587,0.599,0.598-4.634,0-7.772c-0.598-3.139,2.242,2.094,2.99,4.783c0.747,2.689,5.082,4.634,8.969,8.371
	c3.886,3.736,4.634,4.484,8.969,5.381c4.334,0.896,3.288-4.934,4.783-7.175c1.495-2.242-2.392-4.484-2.392-8.371
	c0-3.886-2.84-4.783-5.979-3.587c-3.139,1.195-2.989,2.392-2.392,4.783c0.598,2.392,0.897,1.943,1.196,4.186
	c0.299,2.243-3.139-0.896-5.381-2.393c-2.242-1.494-0.748-5.082-2.99-7.176c-2.242-2.092-6.876-2.84-11.36-5.381
	c-4.484-2.541-5.531-1.794-6.577,1.196C21.678,272.66,23.323,273.257,24.519,278.041z M15.55,221.239
	c-0.299,4.933,2.242,8.521,2.989,8.371c0.748-0.149,3.887-5.83,4.784-8.969c0.896-3.14,1.046,1.045,0.598,2.988
	c-0.448,1.943-1.943,5.979-2.99,9.566c-1.046,3.588-2.69,8.072-2.989,14.947c1.046,14.799,9.866,15.396,13.154,15.547
	c3.288,0.148-3.139-9.418-5.381-14.351c-2.242-4.934,0.299-4.036,2.989,0.599c2.691,4.634,6.428,13.304,7.773,16.144
	c1.345,2.84,7.474,4.335,12.556,4.187c5.083-0.149,3.139-1.646,4.186-4.187c1.047-2.541-6.876-11.81-8.969-16.144
	c-2.093-4.336-6.876-15.695-8.371-16.742s-2.392,2.841-1.794,6.576c0.598,3.737,5.083,14.352,7.175,17.938
	c2.093,3.588-1.196,0.897-2.392,0c-1.196-0.896-8.969-17.788-8.969-21.524s1.645-10.463,1.196-12.557
	c-0.449-2.093-3.438-8.67-6.577-11.359c-3.139-2.69-4.484-2.393-5.979-1.795C17.044,211.075,15.849,216.306,15.55,221.239z
	 M19.735,196.724c0.748,5.383,4.634,11.063,8.371,10.166c3.737-0.897,1.943-3.738,1.196-6.578c-0.747-2.84-0.448-8.67-1.196-13.752
	c-0.748-5.082,1.943-0.598,2.99,2.989c1.046,3.588,2.392,5.082,2.989,8.371c0.598,3.288-1.196,10.464-1.793,14.947
	c-0.598,4.483,4.783,14.351,7.772,19.134c2.99,4.783,6.428,14.35,11.361,25.112c4.933,10.763,13.154,9.417,27.504,10.165
	c14.35,0.746,19.88-5.531,22.123-6.577c2.242-1.047,4.933-13.304,6.577-17.341c1.645-4.035,1.943-0.746,1.196,2.99
	c-0.748,3.736-3.438,9.416-2.392,19.73s6.428,0.598,8.371-2.393c1.943-2.988,1.495,0.149,1.196,1.795
	c-0.299,1.645-1.346,5.529-0.598,9.565s7.624,2.392,11.36,2.392c3.736,0-0.598,2.99,4.783,8.371s16.293,4.336,20.329,0.599
	s0.15-9.566-1.196-11.36c-1.345-1.794-9.716,2.541-14.35,1.795c-4.634-0.748-0.598-3.589,1.196-2.99
	c1.793,0.599,6.128-1.645,10.165-2.393c4.036-0.747,7.324-7.922,6.577-14.947c-0.748-7.024-5.83-1.645-7.773,0
	c-1.943,1.646-1.943,1.195-7.175,2.989c-5.231,1.794-8.072,1.048-8.969,5.382s-3.139,5.381-4.783,5.381s0.149-11.809,0.598-16.144
	c0.448-4.335-5.531-12.108-5.381-14.351c0.15-2.243-8.371-5.231-14.948-3.588c-6.577,1.646-20.778,3.888-26.906,3.588
	c-6.129-0.299-10.463-10.911-11.958-14.351c-1.495-3.438-3.737-8.819-6.577-11.36s-5.83-13.752-8.371-16.74
	c-2.541-2.99-5.381-2.842-7.773-4.783c-2.392-1.943-2.093-8.818-5.381-13.155c-3.289-4.335-10.912-3.139-16.144-1.196
	S18.988,191.343,19.735,196.724z M51.425,99.862c-1.196-3.587-2.392-0.748-2.99,3.587s-3.887,8.072-4.783,10.165
	c-0.897,2.093-1.495,2.242,0,2.392c1.495,0.15,2.093-1.046,7.773-2.989c5.68-1.943,2.541-4.186,1.793-5.979
	C52.471,105.244,52.621,103.45,51.425,99.862z M53.816,93.285c-1.196,8.221,5.231,17.788,7.175,20.329
	c1.943,2.542,0.299,2.84-1.196,2.392c-1.495-0.448-4.634-0.149-11.958,2.392c-7.324,2.542-10.762,8.521-12.556,16.742
	c-1.793,8.222-1.345,10.763,1.196,10.763s1.794-1.346,1.196-6.577c-0.598-5.232,2.84,2.392,5.381,7.175s8.819,10.015,10.763,13.154
	c1.943,3.139,2.242,3.289,4.783,1.196c2.541-2.093,2.541-3.289,6.577-3.587c4.036-0.299,3.438-0.299,4.185-4.186
	c0.748-3.886,2.392,0.448,2.392,2.99c0,2.541,1.346,5.231,3.588,9.566c2.242,4.335,13.004,15.546,26.906,8.969
	s10.613-9.566,7.175-20.927c-3.438-11.361-7.325-11.958-9.567-11.958s-4.334,2.093-3.587,4.186c0.748,2.093,0.598,3.139-3.587,4.185
	s-3.438,5.083-2.99,7.175c0.449,2.093,3.438,1.495,7.773,1.196s-0.149,2.84-5.381,3.587c-5.232,0.748-5.531-2.69-5.979-6.577
	c-0.448-3.886-1.943-5.381-4.186-5.979c-2.242-0.598-14.5-5.083-17.339-5.381c-2.839-0.298-2.69,1.943-3.587,5.381
	c-0.897,3.438-1.943,1.196-1.794-2.392c0.149-3.588,1.943-5.232,4.186-5.979c2.242-0.748,0.448-1.645,0-2.392
	c-0.448-0.747-4.484-1.943-7.175-1.196c-2.691,0.748-4.186-1.345,0-2.989c4.185-1.645,9.417,1.495,10.762,3.587
	c1.346,2.093,1.346,3.289,2.99,3.587c1.644,0.298,7.922,1.794,14.948,4.186c7.026,2.392,4.186-0.598,2.392-6.577
	c-1.793-5.979-13.752-12.855-20.927-13.752c-7.175-0.897-12.556,2.541-16.742,4.783c-4.186,2.242-7.025,3.139-1.794-2.392
	c5.232-5.531,13.005-6.129,17.938-7.773c4.933-1.644,6.727-7.624,7.175-11.958c0.448-4.334-0.897-5.83-2.392-8.371
	s-4.185-2.69-6.577-3.587s-1.345-1.046,0.598-1.196s2.242,0,2.99-0.598c0.748-0.598-0.299-3.438-0.598-5.979
	c-0.299-2.541,1.046-0.448,4.186,3.587c3.139,4.036,7.025,5.68,11.958,5.979c4.933,0.299-2.84,2.242-5.381,1.794
	c-2.542-0.449-2.84,0.149-0.598,4.186c2.242,4.036,5.531,1.495,10.165-0.598c4.634-2.093,3.289-5.68,2.392-7.773
	c-0.897-2.093-1.943-4.933-2.392-7.772c-0.448-2.84-4.036-1.793-5.979-1.793c-1.943,0-9.118-3.737-16.144-5.979
	C58.151,77.889,55.012,85.064,53.816,93.285z M74.146,71.163c3.139,1.644,6.278,1.046,8.968,1.196c2.691,0.149,1.495,1.046,0,1.793
	c-1.495,0.748-3.438,1.346-5.979,1.794c-2.541,0.448-7.175-2.69-8.969-4.186c-1.793-1.495-2.392,0-4.186,1.794
	c-1.793,1.793,0.15,2.69,2.392,2.989c2.242,0.299,4.335,0.897,7.773,2.99c3.438,2.093,7.324,1.495,9.566,0.598
	c2.242-0.897,5.232-2.392,8.371-3.588c3.139-1.196,2.989-3.438,3.587-5.381c0.598-1.943,1.046-1.943,2.392-1.196
	c1.345,0.748,5.082,1.046,7.175,0.598c2.093-0.448,7.624-3.737,11.958-5.979s1.495-3.289,1.196-4.186
	c-0.299-0.897-1.943-3.886-3.587-6.577c-1.301-2.128-3.162-2.386-5.067-2.697c-0.533,0.259-0.761,0.817-0.912,2.099
	c-0.299,2.541,0.149,6.427-4.783,7.772c-4.933,1.346-7.474,2.84-8.371,3.588c-0.897,0.747-3.438,1.345-6.577-0.598
	c-3.139-1.943-4.484-1.943-7.773-1.196c-3.289,0.748-7.325,1.495-5.381,0c1.612-1.239,5.531-4.186,10.763-2.989
	c5.231,1.195,7.175,1.345,10.762,0c3.587-1.346,7.025-1.645,7.773-2.392c0.748-0.747,2.093-2.541,1.794-4.783
	c-0.134-1.007-0.175-1.862,0.102-2.486c0.01-0.046,0.033-0.092,0.069-0.138c0.376-0.676,1.197-1.041,2.818-0.963
	c0.124,0.006,0.242,0.018,0.362,0.027c0.079-0.009,0.155-0.02,0.236-0.027c2.99-0.299,4.783-1.196,6.577-5.381
	c1.793-4.185,1.345-4.634,0-6.577c-1.346-1.943-5.83-0.149-10.165,2.392c-4.335,2.541-8.371,10.015-9.567,12.556
	c-1.196,2.541-2.69,2.392-5.381,1.793c-2.691-0.598-7.026-1.046-9.567-0.598c-2.541,0.448-7.025,2.093-12.556,7.772
	C64.429,66.678,71.006,69.518,74.146,71.163z M108.227,24.525c-1.046,0.598-2.99,1.345-7.773,3.587
	c-4.783,2.242-9.567,6.129-12.556,8.969c-2.99,2.84-2.392,2.392-1.794,3.588c0.598,1.196,5.979-1.196,7.773-2.392
	c1.794-1.196,1.495,0.897-0.598,2.392c-2.092,1.495-4.185,3.438-8.371,3.587c-4.186,0.149-5.68,2.84-7.773,5.979
	c-2.093,3.139,1.794,1.794,4.186,0.598c2.392-1.196,6.876-1.196,10.165-1.196s4.036-0.149,5.979-4.783
	c1.943-4.634,6.428-7.324,9.567-8.969c3.139-1.644,3.438-5.381,4.185-8.969C111.963,23.329,109.273,23.927,108.227,24.525z
	 M145.297,20.339c-1.345-3.139-5.082-4.036-6.577-2.989c-1.495,1.046-1.943,2.69-0.598,5.979c1.345,3.289,1.046,5.68,1.196,7.175
	c0.149,1.495,2.392,1.046,4.783,1.196c2.392,0.149,2.093,0.149,4.186-1.794C150.38,27.963,146.643,23.479,145.297,20.339z
	 M144.699,75.348c3.737,1.196,8.221-2.69,9.567-5.381c1.345-2.69,1.345-10.164,1.196-15.545c-0.15-5.381-3.438-0.299-5.381,1.196
	c-1.943,1.495-1.794-0.748-0.598-2.392c1.196-1.645,1.943-6.727,2.99-11.36c1.047-4.633-4.783-6.278-7.175-6.577
	c-2.392-0.299-2.69,0.747-1.793,2.989c0.897,2.243-1.196,1.346-1.794,0c-0.598-1.345-4.334-3.886-5.979-4.783
	c-1.644-0.896-3.289-0.896-4.783-1.196c-1.495-0.299-3.289-3.139-4.783-4.783c-1.495-1.645,0.448-2.093,1.793-1.196
	s3.438,2.093,5.381,2.989c1.943,0.897,2.242-2.84,0.598-6.577c-1.645-3.737-5.232-2.84-8.371-2.99
	c-3.139-0.15-5.68,0.449-7.175,1.196c-1.495,0.748-2.487,3.076-3.587,5.381c-3.139,6.577,0.896,6.727,2.989,7.175
	c2.093,0.449,3.587,3.438,4.783,5.381c1.196,1.943,4.933,1.196,7.773,1.196c1.171,0,2.081,0.306,2.544,0.664
	c0.587-0.359,1.476-0.552,2.24-0.066c1.644,1.046,3.438,1.345,2.392,3.587c-1.046,2.242-1.345,3.737,0.598,4.185
	c1.943,0.449,5.68,1.495,6.577,5.381c0.897,3.887,0.897,9.716,1.794,10.165c0.896,0.449,4.933,2.541,1.196,2.99
	c-3.737,0.448-5.381,0.299-9.567,2.989c-4.185,2.691-8.221,4.335-4.185,10.165s7.324,8.221,8.371,8.968
	c1.046,0.748,0.598,2.392-1.794,1.196c-2.392-1.196-7.624-5.83-9.566-8.371c-1.943-2.541-2.242-3.289-7.773-2.392
	c-5.531,0.897-13.005,4.484-16.144,6.577c-3.139,2.093-4.634,2.392-2.392,0c2.242-2.392,5.232-6.428,10.763-7.773
	c5.531-1.345,9.268-2.093,10.763-2.99s3.438-5.082,7.773-7.175c4.334-2.093,8.371-3.139,8.371-7.773c0-4.634,0-7.025-2.99-8.371
	c-2.989-1.346-5.531-2.84-5.381-5.381c0.149-2.541,0.299-4.634-1.196-4.783c-0.122-0.012-0.21-0.041-0.284-0.076
	c-0.242,0.048-0.543,0.076-0.912,0.076c-2.989,0-7.175,1.644-10.165,3.587c-2.989,1.943-3.587,6.128-1.793,10.762
	c1.793,4.634,5.231,3.887,7.773,4.186c2.541,0.299,2.392,0.748,0.598,1.794c-1.793,1.046-8.371,5.082-11.958,7.772
	c-3.588,2.691-7.474,4.036-13.154,4.784c-5.68,0.748-7.025,2.541-10.165,8.371s-1.345,9.118,2.99,11.958
	c4.334,2.84,9.118,0,13.752-1.794c4.634-1.793,9.268,0.897,11.36,2.392c2.093,1.495,5.83,4.484,9.566,7.175
	c3.737,2.69,8.67,1.793,10.763,1.196c2.093-0.598,1.046,0.747,0,2.392c-1.046,1.644-7.922,1.495-10.165,0.598
	c-2.242-0.896-9.268-6.427-12.556-8.969c-3.289-2.541-7.624-1.943-11.36,0c-3.737,1.943-8.819,1.943-10.763,1.196
	c-1.943-0.747-2.69,0-2.99,2.392c-0.299,2.392-4.783,5.083-7.175,5.979c-1.918,0.719-3.929,1.544-4.883,6.387
	c0.037-0.501,0.071-1.026,0.1-1.604c0.299-6.128-1.794-1.495-2.392,1.196c-0.598,2.691-1.756,3.919-3.587,5.979
	c-2.392,2.691-0.449,3.289,2.392,4.186c2.116,0.668,3.069,0.34,3.171-0.613c0.802,4.905,3.887,6.923,10.581,11.973
	c8.52,6.428,13.603-0.598,17.339-5.979c3.736-5.381,2.84-10.463,0.598-13.154c-2.242-2.69-3.587-1.495-4.186,0.598
	c-0.599,2.093-5.83,10.015-8.969,12.556s-0.747-1.345-1.196-0.598c-0.448,0.748,1.046-1.793,2.392-4.185
	c1.345-2.392-2.69-1.794-6.577-2.99c-3.886-1.196-1.345-2.392,1.196-2.392s6.278-1.495,8.968-4.186
	c2.691-2.69,2.99-6.128,3.587-8.371c0.598-2.242,1.346-1.495,4.186,1.793c2.84,3.289,11.958,11.809,28.7,8.371
	c16.742-3.438,17.489-11.66,18.535-14.948c1.046-3.288-2.84-10.613-4.783-13.752c-1.943-3.139-5.979-8.072-8.969-10.762
	C139.318,74.451,140.962,74.152,144.699,75.348z M157.853,174.004c-1.495-8.819-4.484-14.5-9.566-19.133
	c-5.082-4.634-1.196-5.68,0.598-3.588c1.793,2.093,3.438,3.737,6.577,2.392c3.139-1.346-0.299-6.129-0.598-8.969
	c-0.299-2.84-4.783-4.186-8.969-2.99c-4.186,1.196-6.278,2.99-8.969,5.381c-2.69,2.392-0.448-4.634,2.99-7.175
	s0.299-3.289-2.392-5.381c-2.691-2.093-3.289-3.438-4.186-4.784c-0.897-1.345,1.943-0.149,5.381,2.392s9.268,3.139,13.752,2.989
	c4.484-0.15,3.587-2.392,2.99-9.566c-0.598-7.175-4.784-6.728-8.371-5.979c-3.587,0.748-7.624,2.691-14.35,2.392
	c-17.34-1.345-15.546,2.392-18.536,7.773c-2.99,5.381-2.84,12.706-1.196,17.34c1.644,4.634,5.531,9.118,6.577,14.948
	s-0.149,5.979,1.196,9.566c1.345,3.588,3.587,5.531,5.979,5.979c2.392,0.448,5.381,1.793,8.969,4.186
	c3.587,2.392,0,2.69-2.392,1.794c-2.392-0.897-5.68-2.542-7.773-1.196c-2.093,1.347-3.139,2.242-4.783,0.599
	c-1.645-1.645,0.747-4.484-1.196-6.578s-2.541-1.495-7.175-1.196c-4.634,0.299-1.793,3.737-0.598,7.771
	c1.196,4.036-0.149,10.314,0,13.752c0.149,3.438,0.448,3.438-0.598,4.187s-3.737-2.093-2.392-5.381
	c1.345-3.289-0.448-10.017-1.793-13.752c-1.346-3.737-13.902-1.346-19.731-1.794c-5.829-0.448-6.876,0.149-6.577,4.784
	c0.299,4.633-2.092,8.818-5.979,12.557c-3.886,3.736-4.634-0.748-2.392-2.393c2.242-1.645,2.69-3.14,4.186-8.371
	c1.495-5.231-2.242-13.751-5.381-19.133c-3.139-5.381-4.783-5.979-7.773-5.381c-2.99,0.598-4.783,4.036-7.175,10.763
	s-3.737-0.449-4.186-4.784c-0.448-4.334-3.737-6.876-7.773-13.752s-8.819-4.335-11.958-2.99c-3.139,1.346-1.943,7.175,1.196,11.36
	c3.139,4.186,1.644,5.083-1.196,3.588s-3.289-4.783-4.186-10.165c-0.897-5.382-2.691-1.196-4.186,2.392s-1.345,6.128-1.793,10.762
	c-0.449,4.634,1.943,4.335,3.587,3.588c1.644-0.748,3.139-1.495,7.773,0c4.634,1.495,6.577,4.185,8.371,2.989
	c1.794-1.196-0.598-8.371-1.794-11.36s-0.299-4.933,1.196-2.392c1.495,2.541,3.588,9.417,4.784,18.535s7.623,8.67,10.762,8.969
	c3.139,0.3,5.979-8.371,9.567-12.556c3.587-4.185-0.748,3.289-3.587,8.371c-2.84,5.083-4.186,12.854-2.392,17.938
	s7.025,8.223,7.773,10.165c0.748,1.943-0.299,5.082,3.587,13.752c6.428,13.753,13.453,8.819,17.34,8.371
	c3.886-0.448,4.933-2.841,4.185-5.979c-0.747-3.139,1.346-2.392,2.392-0.598c1.046,1.793,3.289,4.336,4.185,4.186
	c0.897-0.149,7.922-2.241,13.154-2.989c5.232-0.747,9.268-2.093,9.566-1.194c0.299,0.896,2.542,3.139,5.979,2.988
	s8.52,4.783,12.556,8.969c4.036,4.187-5.381-0.447-8.371-3.588c-2.99-3.139-4.186,1.196-4.186,7.773
	c0,6.576,5.531,11.062,10.762,9.566c5.232-1.496,8.072-6.429,12.556-10.166c4.484-3.735,0.299-9.268-5.979-11.359
	c-6.278-2.092-10.762-10.463-13.752-17.938c-2.99-7.475-13.603-1.346-20.329,1.195s-6.577,2.242-5.979,5.381
	c0.598,3.141-0.748,2.542-3.588,2.99c-2.84,0.447-0.598-4.934-1.196-7.773c-0.598-2.84-5.979,0-11.36,2.99
	c-5.381,2.989-5.231,8.969-3.587,10.164c1.645,1.196-0.897,2.242-2.392,1.794s-2.541-3.737-2.392-6.577s5.979-10.464,12.556-13.154
	c6.577-2.689,2.392-6.277,1.196-9.565c-1.196-3.288-3.289-7.024-4.186-6.577c-0.897,0.448-1.793,1.346-4.185,0
	c-2.392-1.346,2.242-4.933,3.587-7.175c1.345-2.242,5.531-1.047,9.566-1.196c4.036-0.148,0.149,1.495-1.793,2.393
	c-1.943,0.896-1.495,7.025,0,9.566s1.793,7.475,5.381,11.36s10.912-2.99,14.35-7.177c3.438-4.185,5.979-4.933,7.773-6.575
	c1.794-1.646-2.392-2.242-5.979-3.589c-3.587-1.346-0.149-3.438,2.989-2.391c3.139,1.045,5.381,2.391,8.969,4.782
	s6.278,3.888,7.773,8.371s6.129,10.612,9.567,12.556c3.438,1.944,0.747,2.99-2.99,2.393c-3.737-0.598-7.922-10.612-10.165-16.145
	c-2.242-5.529-7.025-2.541-9.566,0.598c-2.542,3.141,3.139,4.037,5.979,5.383c2.84,1.345,5.83,9.117,7.773,14.35
	c1.943,5.232,10.762,7.624,15.546,2.99c4.783-4.635,1.495-11.063,0-14.352c-1.495-3.287-9.866-8.371-11.361-10.164
	c-1.495-1.793,2.242-0.896,4.784,1.195c2.541,2.094,3.587-1.195,6.577-5.381C158.451,193.735,159.348,182.823,157.853,174.004z
	 M254.714,328.864c7.584-4.122,12.123-5.85,14.949-7.773c4.889-3.33,0.797-4.185-3.588-4.783c-4.386-0.598-2.791-1.195-7.773,1.196
	c-4.981,2.392-4.584,4.386-6.576,8.37C249.733,329.86,252.208,330.226,254.714,328.864z M223.026,41.865
	c-1.396-2.192-4.187-5.182-3.588-8.371s-6.576-4.385-10.763-5.979c-4.186-1.594-7.508,0.059-8.37,0.598
	c-3.188,1.993,1.396,4.385,3.588,7.773c2.192,3.388,6.377,6.976,10.164,12.556c3.787,5.581,6.577,1.993,10.165,0.598
	C227.809,47.645,224.421,44.057,223.026,41.865z M273.25,104.646c-1.594-0.598-4.385,0-8.369-1.196
	c-3.986-1.196-8.371-4.186-14.948-5.381c-6.577-1.195-5.779-0.199-8.97-3.587c-3.188-3.388-8.834-4.206-7.771-0.598
	c1.992,6.776-0.398,9.367,1.195,17.339c1.594,7.972,11.958,3.587,11.958,3.587s4.784,7.375,7.772,8.969
	c2.989,1.595,2.791-0.398,1.795-4.186c-0.998-3.787-1.396-7.374-5.383-10.165c-3.984-2.79-0.398-3.188,1.795-2.392
	c2.191,0.797,6.576,5.78,7.174,11.36c0.6,5.581,4.983,7.375,8.371,7.773c3.389,0.399,3.588-2.989,9.566-7.773
	C283.416,113.614,274.845,105.244,273.25,104.646z M287.001,128.562c-2.988-7.374-4.981-6.976-7.771-5.381
	c-2.79,1.594-0.199,5.381,2.393,8.371c2.59,2.99,1.594,3.189,2.392,5.979c0.798,2.791-2.591-1.993-7.175-5.979
	c-4.584-3.986-5.586-1.589-5.979,1.794c-0.995,8.57,6.179,11.56,9.567,13.752c3.388,2.192,5.381,9.367,8.369,8.969
	c2.99-0.399,2.99-3.986,2.99-8.969S289.994,135.937,287.001,128.562z M298.96,168.024c-0.198-3.388-2.989-3.986-5.381-5.979
	c-2.393-1.993-2.393-0.199-5.381,1.196c-2.99,1.395-3.986,2.192-5.98,3.587c-1.992,1.395,0.398-4.982,0.6-8.371
	c0.199-3.388-0.798-4.783-6.576-8.969c-5.781-4.187-4.783,1.993-4.783,6.577s1.194,8.969,2.392,11.958
	c1.194,2.99-3.39-0.598-4.783-3.587c-1.396-2.989-4.187,0.399-7.772,3.587c-3.588,3.189-5.381,6.378-10.164,11.36
	c-4.784,4.983-6.577,3.986-9.567,1.794c-2.989-2.192-5.778-2.192-11.36,0c-5.58,2.192-0.397-3.587,2.393-4.783
	c2.791-1.196,3.389-1.595,2.392-5.381c-0.995-3.787,2.192,1.196,5.382,3.587c3.188,2.392,6.18-0.199,9.566-1.793
	c3.389-1.595,12.156-10.962,15.546-20.927c3.388-9.965-3.588-15.346-4.782-19.133c-1.197-3.787-9.768-2.591-11.96-4.186
	c-2.19-1.594-3.388-8.371-5.381-8.969c-1.993-0.598-3.188,0.2-5.381,2.392c-2.192,2.193,1.993,5.381,2.989,8.371
	c0.996,2.99,1.195,5.182,0,8.371s-4.584,4.784-5.381,2.99c-0.799-1.794,1.793-9.168,0.598-12.556
	c-1.196-3.388-3.986-4.783-6.577-4.783s-2.192,2.392-4.187,1.793c-1.992-0.598,1.396-5.381,2.393-7.773
	c0.997-2.392,0.798-10.165,1.794-15.545c0.996-5.381-1.396-8.371-3.588-11.36c-2.19-2.99-11.161-2.392-16.144-0.598
	c-4.983,1.794-16.94,0.997-19.133-1.196c-2.193-2.193-6.777-3.189-10.166-1.794c-3.388,1.396-1.195,1.794-2.988,1.196
	c-1.795-0.598-0.797-2.591,1.793-4.783c2.592-2.192,8.97-2.392,12.557,1.196c3.588,3.587,11.561,3.986,16.742,1.794
	c5.181-2.192,14.947-1.993,17.339-2.99c2.394-0.997,1.794-4.185,0.599-5.979s3.588-1.196,4.187-2.392
	c0.598-1.196,0-5.979-1.794-10.165c-1.795-4.186,2.191-0.399,3.587,2.989s2.591,8.969,2.989,11.361
	c0.398,2.392,0.599,4.384,4.187,7.175c3.587,2.79,3.985,4.186,6.576,3.587c2.592-0.598,6.978,0,11.959,2.392
	c4.981,2.392,6.179,6.378,10.763,5.979c4.584-0.398,1.395-4.982,0.598-7.175c-0.797-2.192-8.172-14.35-11.359-19.731
	c-3.189-5.381-2.591,1.395-2.99,4.185c-0.398,2.791,2.393,5.381,5.979,9.567c3.589,4.186,0,2.392-2.391,0.598
	c-2.393-1.793-6.18-3.388-9.566-3.587c-3.389-0.199-3.787-2.392-0.6-4.783c3.189-2.392,2.192-12.357,0.6-19.133
	c-1.596-6.776-7.176-10.962-14.352-17.339c-7.175-6.378-5.381,0.797-4.783,2.392c0.6,1.594,2.192,4.982,5.383,7.175
	c3.188,2.192,7.373,7.773,8.369,10.165c0.998,2.392,0.998,8.969-0.598,10.165c-1.595,1.196-0.398-5.182-1.195-8.969
	s-9.566-7.972-13.752-8.969s-10.961,4.186-12.557,5.979c-1.595,1.793-0.598,4.384,2.989,6.577c3.588,2.192,0.798,2.591,0,4.186
	c-0.798,1.594-5.58-3.388-8.97-5.381c-3.388-1.993-4.584,1.196-5.381,4.186c-0.797,2.99,1.596,5.979,7.176,7.175
	c5.58,1.196,3.188,1.595,0.598,4.186c-2.59,2.591-8.171-0.797-11.958-2.99c-3.787-2.192-2.192-6.178-1.794-13.752
	c0.398-7.574-1.594-10.364-3.587-12.556s-1.794-4.783,0-3.587c1.793,1.196,5.579,7.375,8.37,11.36c2.791,3.986,3.188,0,7.176-2.392
	c3.984-2.392-4.385-12.755-7.773-17.339c-3.388-4.584-9.766-8.172-14.35-7.773c-4.584,0.398-0.997-3.986,3.587-5.381
	c4.584-1.395,0-7.574-2.989-8.371c-2.988-0.797-12.156,3.986-13.154,6.577c-0.996,2.591-0.598,5.78,0,6.577
	c0.6,0.797,5.383,3.787,7.773,4.783c2.393,0.997-3.189,1.196-7.175,0c-3.985-1.196-2.99,9.567-2.99,14.35
	c0,4.783,2.192,5.381,5.979,6.577c3.787,1.196,1.793-1.395,2.988-5.381c1.196-3.986,1.396,5.182,1.795,10.763
	c0.397,5.581,0.797,3.787,4.186,4.185c3.389,0.399,1.993,1.993,0,4.784c-1.993,2.79-4.584-1.196-8.371-5.381
	c-3.787-4.186-5.979-6.577-8.969-10.763c-2.989-4.185-4.385-1.993-4.186,0.598c0.198,2.591-0.199,8.969,3.588,11.958
	c3.787,2.99,0.996,2.392-1.197,4.784c-2.191,2.392-5.38,12.556-4.782,19.73c0.599,7.175,9.966,11.958,15.546,15.546
	c5.581,3.587,8.371,4.783,14.352,6.577c5.979,1.793,4.783-2.591,5.979-5.381c1.195-2.791-2.591-2.392-5.979-4.186
	c-3.39-1.793-8.57-3.787-13.754-5.381c-5.182-1.594,1.596-2.392,6.577-0.598c4.982,1.794,10.165,2.392,15.546,5.381
	c5.383,2.989,9.168-0.997,13.154-4.186c3.986-3.189-0.598,5.78-4.783,8.969c-4.185,3.189-2.392,9.367,0.598,10.762
	c2.99,1.396,4.982-2.989,5.979-6.577c0.996-3.588,2.79-0.797,1.793,2.392c-0.996,3.189-4.584,7.574-5.979,10.762
	c-1.396,3.189-0.397,11.161-1.195,15.546c-0.797,4.385-4.783,11.56-4.186,13.752c0.599,2.192,5.381,2.392,5.381,4.783
	c0,2.391-2.988,0.797-7.174-1.793c-4.187-2.591-4.584,1.196-5.383,5.381c-0.797,4.185,2.791,8.371,7.176,10.762
	s7.573-0.598,8.371-4.186c0.797-3.587,5.381-12.157,5.979-14.948c0.598-2.79-2.191-11.56-1.196-15.546
	c0.997-3.986,1.595,2.99,2.99,9.567c1.396,6.577,8.771,6.976,13.752,7.773c4.981,0.797,11.56-4.584,11.958-7.773
	c0.398-3.189-1.195-8.57,0.598-9.567c1.795-0.996,2.791,13.154,0.6,17.34c-2.192,4.186-15.945,6.577-20.928,5.979
	c-4.983-0.598-5.58,0.997-5.979,2.392c-0.399,1.396-2.192,3.787-4.187,8.969c-1.992,5.182,3.188,11.162,7.176,12.556
	c3.986,1.396,4.385,3.389,2.392,7.175c-1.993,3.787-0.198,6.577,2.989,9.565c3.189,2.99,6.179,7.974,9.566,12.558
	c3.389,4.584-4.783-0.397-8.371-4.783c-3.588-4.385-9.766-4.584-11.957-3.588c-2.192,0.997-4.187,4.584-5.979,5.382
	c-1.794,0.797,3.587-7.772,7.175-13.154c3.588-5.381,3.588-9.168,0.598-11.957c-2.988-2.791-4.981-4.385-6.575-5.383
	c-1.595-0.996-1.993,4.584-2.99,11.36c-0.996,6.776-6.776,9.966-11.958,11.959c-5.182,1.992,0.996,3.786,3.587,2.989
	c2.593-0.797,2.593,1.595,1.196,4.783c-1.396,3.188-3.188,0.996-1.795,7.771c1.396,6.776,12.357-1.793,17.939-2.392
	c5.58-0.599-6.977,5.382-10.764,7.772c-3.786,2.393-4.982,3.786-4.186,5.979c0.797,2.192,5.183,4.584,8.969,5.382
	c3.787,0.797,2.592,1.595,0.599,2.393c-1.993,0.797-5.581-0.599-10.165-2.393s-4.584,0.598-6.576,1.794
	c-1.994,1.194-9.168,2.591-14.351,2.392s0-3.787,3.588-3.588c3.587,0.199,4.386,0.598,9.565-4.783
	c5.182-5.381-0.198-15.943-2.392-20.328c-2.192-4.385-2.392-5.979-4.782-8.969c-2.392-2.99-7.974,0.397-11.361,2.988
	c-3.389,2.592-1.594-0.996-1.793-2.988c-0.199-1.994,4.584-2.393,9.566-4.783c4.981-2.392,0.598-3.588,0-7.176
	c-0.599-3.588,2.59-1.396,3.588,1.795c0.996,3.188,2.392,6.976,5.381,7.771c2.988,0.796,9.766-3.787,12.557-8.969
	c2.79-5.182,0.398-13.553-4.186-16.145c-4.584-2.591-8.97-7.772-9.567-10.165c-0.599-2.392-2.392-11.958-2.989-13.752
	c-0.598-1.794-3.986-3.388-5.979-6.577c-1.994-3.189,4.185,1.395,9.565,2.989c5.382,1.595,7.573-4.384,10.164-10.762
	s1.396-9.766-2.392-16.742c-3.786-6.976-12.955-2.99-16.741-4.186c-3.787-1.196-9.966-8.371-14.948-10.165
	c-4.982-1.793-6.775,5.381-6.576,10.165c0.198,4.784,1.992,8.77,0.598,12.557c-1.396,3.787-1.195,8.171,0,10.762
	c1.195,2.591,4.584,1.794,7.772-0.598s4.187-9.567,3.587-13.752c-0.598-4.185-1.793-3.787-3.587-7.773
	c-1.794-3.986,9.367,6.976,9.566,8.371c0.198,1.395,0.198,4.186,1.794,3.587c1.595-0.598,5.979-0.199,9.566,0.598
	c3.588,0.797-0.199,1.993-2.393,1.793c-2.193-0.2-4.982,1.395-9.566,4.186c-4.584,2.79-12.557,10.364-14.947,12.556
	s1.195,10.364,2.99,6.577c1.793-3.787,3.188-0.398,2.988,2.392c-0.199,2.79-3.588,6.776-3.588,15.546
	c0,8.77,3.986,16.145,7.176,20.927c3.188,4.783,0,4.187-2.392,0.599c-2.394-3.588-4.187-4.386-7.177-3.588
	c-2.988,0.797,0.398,10.363,0.6,22.721c0.199,12.356,7.176,7.176,12.557,5.382s3.389-4.187,3.588-7.175
	c0.199-2.989,1.992,0.598,2.988,4.783c0.996,4.185,1.596,6.178,4.783,8.969c3.189,2.789-1.195,1.396-4.186,0
	c-2.989-1.396-4.982-1.993-11.36,2.392c-6.377,4.385-9.367,8.771-9.565,15.546c-0.199,6.776,7.373,5.182,13.153,6.577
	c5.779,1.396,8.569,4.783,13.752,1.794c5.183-2.99,11.36-5.979,22.722-4.783c11.359,1.195,13.95-8.371,14.35-11.359
	c0.398-2.99-3.588-5.582-7.176-4.187c-3.586,1.396-3.387,0-2.392-2.989c0.997-2.99,8.97-3.389,11.36,0
	c2.393,3.389,11.16-0.599,15.546-5.979c4.385-5.382,2.192-15.546,0-19.134s-7.772-8.37-10.763-10.762
	c-2.989-2.393,4.982,0.198,8.969,1.194s11.561-1.794,16.742-4.187c5.182-2.392,4.982-8.17,2.988-10.761
	c-1.992-2.591-2.191-1.196-3.588-3.587c-1.395-2.392,5.184,0.997,11.36,1.196c6.179,0.199,4.187-2.192,8.371-5.381
	c4.185-3.189,4.782-0.797,8.969,0C297.169,174.204,299.162,171.413,298.96,168.024z M304.94,199.714
	c-2.79-8.172-9.767-5.979-16.741-5.382c-6.976,0.599-6.378,3.588-7.771,7.175c-1.396,3.588,2.591,5.184,5.979,2.99
	c3.389-2.191,3.389-0.798,5.383,2.393c1.991,3.188-6.379,3.786-10.764,4.782s-2.79-4.981-5.382-9.565
	c-2.591-4.584-2.989-3.189-1.793-4.783c1.194-1.596,3.388,1.395,5.979-1.196c2.59-2.591,9.168-5.381,14.351-5.381
	c5.182,0,6.377-4.187,5.381-10.165c-0.996-5.979-2.392-2.392-9.565-2.989c-7.176-0.598-3.787,2.591-9.566,3.587
	c-5.78,0.997-4.784,2.392-4.784,5.979c0,3.588-8.97,7.772-13.153,11.36c-4.186,3.588-5.382,7.973-5.382,11.957
	c0,3.986-3.786,16.941-6.577,21.525c-2.789,4.584,0.997,5.58,4.187,8.969c3.188,3.389,5.182,0.598,8.969-2.988
	c3.787-3.588,5.382-9.567,5.979-14.948c0.597-5.382,4.186-4.386,7.771-3.588c3.588,0.798,8.77-2.192,14.352-3.587
	c5.58-1.396,1.992,1.195-1.196,5.979c-3.188,4.784-2.192,6.776-4.187,11.36s-3.188,0-1.195-2.989
	c1.994-2.988,2.791-5.779,0.599-7.771c-2.192-1.994-6.179,0.996-10.165,2.392c-3.984,1.396-4.783,7.175-5.979,14.946
	c-1.196,7.773,9.367,5.582,14.946,4.783c5.581-0.797,10.364-6.576,14.351-10.762c3.988-4.186,2.99-8.172,6.578-13.154
	C309.125,215.659,307.732,207.885,304.94,199.714z M309.125,230.208c-1.395-1.993-4.385,2.393-7.771,5.979
	c-3.389,3.588-10.962,11.76-15.546,13.154s-7.772,0.199-10.165,1.793c-2.393,1.596-2.393,6.977-2.393,10.165
	s2.192,2.989,4.187,4.783s-1.794,1.396-5.381,0c-3.589-1.396-2.392-6.776-1.196-11.36c1.196-4.584-1.395-5.779-5.381-5.979
	s-3.787,3.389-6.577,8.371c-2.79,4.981-3.985,6.179-2.989,8.969s4.187,4.783,9.566,7.175s6.378,4.783,8.969,4.783
	c2.592,0,8.969-5.183,11.958-7.772s0.599,2.791-1.794,5.381c-2.393,2.592-3.388,3.588-1.195,4.187
	c2.193,0.599,2.791,1.196,1.195,2.392c-1.594,1.196-2.988,0.199-7.175,0s-1.794,1.596-1.194,4.187
	c0.598,2.591,2.789,2.79,5.381,7.175c2.59,4.385,0.996,3.787-1.795,5.382c-2.789,1.595-1.793-5.183-4.783-7.176
	c-2.988-1.993-2.191,2.592-6.576,7.772c-4.385,5.182-2.393,1.994-4.783,0.599s1.794-2.591,4.783-6.577
	c2.99-3.986,1.794-10.763,0.599-13.154c-1.196-2.392-8.371-3.785-11.36-4.185c-2.99-0.399-3.985,6.776-7.772,9.565
	c-3.787,2.791-0.996-3.188,1.794-7.174c2.79-3.986,1.993-7.574,1.794-8.371c-0.198-0.797-3.787-0.797-4.784,0.598
	c-0.996,1.396-10.762,3.787-15.545,4.783s-4.982,3.787-7.773,7.175c-2.789,3.389-11.957,11.36-17.338,15.546
	c-5.383,4.186-3.787,8.77-4.187,14.947c-0.399,6.179-2.99,1.396-3.588-1.793c-0.599-3.188-2.192,0-5.382,2.392
	c-3.188,2.392-4.186,0.798-0.598-1.794s6.775-9.766,7.772-13.153c0.996-3.389-3.588-8.37-6.577-12.557
	c-2.988-4.187-3.986,1.396-7.771,2.989c-3.787,1.595,1.395-3.389,2.988-7.176s0-6.976-1.794-11.359
	c-1.794-4.385,2.192-2.393,4.187,0c1.994,2.392,2.392,5.182,3.587,8.969c1.196,3.787,10.364,12.357,13.153,11.359
	c2.791-0.995,10.563-7.572,13.752-11.359c3.189-3.787-0.598-4.783-4.186-5.381c-3.587-0.6-6.775-1.993-8.968-3.588
	c-2.193-1.596-2.392-4.783-2.392-7.772s5.381,5.382,7.174,5.979c1.795,0.599,7.973-3.588,11.959-6.577s3.787-0.797,2.392,1.196
	c-1.396,1.992-3.985,3.388-2.392,7.175c1.594,3.786,10.961,0,17.938-2.392c6.977-2.393,8.77-15.547,7.771-19.731
	c-0.995-4.187-5.381-9.168-8.969-10.763c-3.586-1.594-3.984,1.793-4.783,4.187c-0.797,2.392,1.197,5.381,2.99,8.968
	c1.793,3.588,1.195,5.184-1.793,7.176c-2.99,1.992-2.393-4.584-3.589-8.371c-1.194-3.787-4.981-1.594-7.175,0.599
	s-7.374,2.192-11.359,2.989c-3.986,0.798-8.172,0.199-13.752,0.599c-5.582,0.397-4.783,3.388-5.382,5.979
	c-0.599,2.591,0.798,3.588,0,5.979c-0.798,2.393-3.786-2.393-5.979-5.979c-2.191-3.588-7.373-3.389-15.545-3.588
	s-11.561,7.176-11.959,11.36c-0.398,4.187,1.396,7.772,3.588,8.371c2.191,0.599,4.783-5.183,4.186-8.371s2.192-2.79,2.99-1.196
	c0.797,1.596,1.195,5.184,4.186,7.773c2.989,2.591,1.594,3.984-2.393,1.794c-3.984-2.192-7.771,2.989-10.164,9.565
	c-2.393,6.578-1.195,12.955,0,17.938c1.195,4.981,8.57,10.763,10.762,8.97c2.193-1.795,0.6-4.386,0.6-9.567
	c0-5.183-3.389-9.767-2.393-13.153c0.996-3.389,2.192,4.982,4.186,8.37c1.994,3.39,5.382,1.396,8.371-0.599
	c2.99-1.992-1.793,3.588-4.783,7.176c-2.989,3.588-1.795,10.563-2.393,13.154c-0.598,2.59-3.787,1.595-7.771-1.195
	c-3.986-2.791-4.186-1.596-4.186,1.793s2.988,8.969,7.771,11.359c4.783,2.392,8.57-3.586,11.959-9.565s1.793,1.396,1.195,4.187
	c-0.598,2.789,3.787,2.789,7.175,1.194c3.389-1.594,1.794,1.396,0,2.99c-1.794,1.594-3.388,2.79-13.752,5.381
	c-10.363,2.591,6.179,5.183,11.958,5.979s13.154-3.986,16.145-5.383c2.989-1.395,2.989-6.576,4.783-8.969
	c1.793-2.393,5.182-3.188,7.771-5.979s-0.797,4.981-4.186,7.771c-3.388,2.79-4.186,7.175-2.393,8.371
	c1.795,1.195,7.974,0,8.371-1.794c0.398-1.794,6.777-9.767,8.371-13.752c1.595-3.986-0.398-7.972-2.392-11.36
	c-1.993-3.388-6.577-0.598-11.36,1.196c-4.783,1.793-8.371,9.767-10.763,13.153c-2.392,3.389-2.79-0.398-0.598-4.186
	s6.976-10.763,8.968-12.557c1.993-1.795,7.574-3.986,10.165-5.381c2.591-1.396-0.996-5.184-2.392-9.567
	c-1.396-4.384,8.57-6.377,12.557-10.164c3.984-3.787,0,3.787-1.794,5.381c-1.794,1.595-4.584,4.187-3.588,8.97
	c0.997,4.782,6.776,3.188,10.165,2.392c3.388-0.797,7.572-5.58,10.762-8.97c3.189-3.387,3.189-0.198,0.6,2.393
	c-2.592,2.592-3.189,6.18-7.177,8.371c-3.985,2.191-5.778,2.591-8.37,4.783c-2.591,2.191-1.195,7.973,0,12.557
	s-1.793,6.775-7.175,13.752s1.595,3.587,6.577,1.195c4.982-2.393,5.779-4.982,8.37-8.969c2.591-3.985,3.588-6.576,1.196-9.566
	c-2.393-2.989,0.797-2.191,5.979-1.794c5.184,0.399,11.959-0.797,20.329-2.392c8.371-1.594,15.147-10.963,19.134-19.133
	c3.986-8.173,3.588-18.734,1.794-22.722s-2.591-7.574-6.577-8.969c-3.986-1.396-4.385,1.194-5.382-1.794
	c-0.995-2.989,6.378-2.192,10.763-0.598c4.386,1.594,3.986-0.199,4.783-2.393c0.799-2.191,1.596-4.584,2.99-5.382
	s0.996,7.973-0.6,11.959c-1.594,3.985-1.395,8.171,0.6,10.164s2.79-3.787,5.381-9.566c2.592-5.78,1.795-14.549,1.795-20.329
	C310.322,235.192,310.521,232.201,309.125,230.208z M183.564,156.066c1.195,3.388-0.199,7.574,2.393,10.165
	c2.59,2.591,2.191,6.577,4.782,9.566c2.591,2.99,4.585,3.986,6.577,7.175c1.993,3.189,4.385,8.771,0.598,4.783
	c-3.787-3.984-6.576-8.57-8.969-7.175c-2.392,1.396-8.172,5.581-5.979,1.794c2.191-3.787,3.986-3.587,1.793-8.371
	c-2.191-4.784-1.594-7.175-3.586-7.773c-1.993-0.598-0.399-2.791,0-7.175C181.571,154.671,182.369,152.678,183.564,156.066z
	 M144.699,189.549c-0.748-5.231,0.299-11.659-2.99-15.545c-3.289-3.887-6.876-9.716-8.371-10.763
	c-1.495-1.047-2.541,2.541-2.99,5.381c-0.448,2.84-2.989,3.587-2.989-3.587c0-7.175-3.139-14.649-4.784-17.34
	c-1.644-2.69-1.943-10.463-1.196-11.958c0.748-1.495,7.026-1.943,7.773,0.598c0.748,2.542-0.448,1.794-2.989,2.99
	c-2.542,1.196-5.083,1.794-2.392,4.186c2.691,2.392,7.773,9.269,10.165,11.36s11.958,14.2,12.556,17.339
	c0.598,3.139,2.392,6.727,1.196,12.557C146.493,190.597,145.447,194.781,144.699,189.549z M80.722,121.985
	c-0.314-0.944-0.214-1.853-0.006-3.39c-0.062,1.35-0.042,2.521,0.059,3.567C80.757,122.104,80.743,122.046,80.722,121.985z
	 M41.858,199.714c0.299,2.84,1.345,9.417,2.99,11.36c1.644,1.942,3.587,5.68,4.783,5.381c1.196-0.299,1.794-1.347,1.794-3.588
	c0-2.242,1.495-4.783,2.392,0c0.896,4.784,1.644,13.304,5.381,20.928c3.737,7.623,5.381,13.004,13.752,15.546
	c8.371,2.541,16.293,2.69,22.123-2.99c5.83-5.68,2.541,2.393-0.598,4.783c-3.139,2.393-5.681,4.934-13.154,4.186
	c-7.474-0.746-15.695-4.782-17.938-4.782c-2.243,0-8.072-0.747-5.381-1.794c2.691-1.046,7.025-1.046-0.598-13.153
	c-7.624-12.108-4.933-12.258-11.958-18.536c-7.025-6.277-4.783-13.9-4.783-16.144S41.559,196.874,41.858,199.714z"/>
</svg>
