<?xml version="1.0" encoding="utf-8"?>
<!-- Generator: Adobe Illustrator 17.0.0, SVG Export Plug-In . SVG Version: 6.00 Build 0)  -->
<!DOCTYPE svg PUBLIC "-//W3C//DTD SVG 1.1//EN" "http://www.w3.org/Graphics/SVG/1.1/DTD/svg11.dtd">
<svg version="1.1" id="Layer_1" xmlns="http://www.w3.org/2000/svg" xmlns:xlink="http://www.w3.org/1999/xlink" x="0px" y="0px"
	 width="224.362px" height="320px" viewBox="0 0 224.362 320" enable-background="new 0 0 224.362 320" xml:space="preserve">
<g>
	<path fill="#FFFFFF" d="M64.717,314.644L66.629,320c0,0,9.571-1.912,19.52-4.975l0.385-3.445l-0.385-3.83
		C86.152,307.754,71.988,313.495,64.717,314.644z"/>
	<path fill="#FFFFFF" d="M89.978,310.432l0.385,7.274c0,0,9.186,1.148,21.82,1.53c12.631-0.382,21.82-1.53,21.82-1.53l0.382-7.274
		c-10.334,1.912-22.201,1.912-22.201,1.912S100.316,312.347,89.978,310.432z"/>
	<path fill="#FFFFFF" d="M82.707,225.457l-19.523-60.863c0,0-5.359-6.889-12.631-14.16c-9.952-27.946-26.412-77.323-48.229-90.72
		C-4.95,81.149,6.15,125.17,17.636,160.001v22.968l45.548,125.933c0,0,9.571-0.767,21.82-6.123L82.707,225.457z"/>
	<path fill="#FFFFFF" d="M222.041,59.714c-21.82,13.397-38.28,62.774-48.232,90.72c-7.274,7.274-12.631,14.16-12.631,14.16
		l-19.52,60.863l-2.3,77.323c12.249,5.356,21.82,6.123,21.82,6.123l45.548-125.933v-22.968
		C218.211,125.17,229.309,81.149,222.041,59.714z"/>
	<path fill="#FFFFFF" d="M137.826,311.581l0.382,3.445c9.952,3.063,19.52,4.975,19.52,4.975l1.915-5.356
		c-7.274-1.148-21.438-6.893-21.438-6.893L137.826,311.581z"/>
	<path fill="#FFFFFF" d="M130.173,116.366c0-47.462-5.741-98.376-17.99-116.366c-12.249,17.99-17.99,68.9-17.99,116.366
		l-8.038,24.116l3.826,161.15c0,0,9.952,2.681,22.201,2.681s22.201-2.681,22.201-2.681l3.826-161.15L130.173,116.366z"/>
</g>
</svg>
