<?xml version="1.0" encoding="utf-8"?>
<!-- Generator: Adobe Illustrator 17.0.0, SVG Export Plug-In . SVG Version: 6.00 Build 0)  -->
<!DOCTYPE svg PUBLIC "-//W3C//DTD SVG 1.1//EN" "http://www.w3.org/Graphics/SVG/1.1/DTD/svg11.dtd">
<svg version="1.1" id="Layer_1" xmlns="http://www.w3.org/2000/svg" xmlns:xlink="http://www.w3.org/1999/xlink" x="0px" y="0px"
	 width="320px" height="307.801px" viewBox="0 0 320 307.801" enable-background="new 0 0 320 307.801" xml:space="preserve">
<path fill="#FFFFFF" d="M251.467,123.402c-11.766,0-22.836,2.968-32.51,8.19l0.002-0.004l-0.016,0.011
	c-2.06,1.113-18.67,12.336-34.976,23.425c13.044-19.104,34.798-51.057,36.37-53.968l0.01-0.015l-0.004,0.002
	c5.223-9.674,8.191-20.745,8.191-32.51C228.535,30.684,197.852,0,160,0c-37.851,0-68.534,30.684-68.534,68.534
	c0,11.765,2.968,22.835,8.191,32.51l-0.004-0.002l0.01,0.015c1.572,2.911,23.326,34.864,36.37,53.968
	c-16.306-11.089-32.916-22.312-34.976-23.425l-0.016-0.011l0.003,0.004c-9.675-5.223-20.745-8.19-32.51-8.19
	C30.684,123.402,0,154.086,0,191.937s30.684,68.534,68.534,68.534c11.765,0,22.835-2.968,32.51-8.19l-0.003,0.004l0.016-0.011
	c2.557-1.381,27.522-18.334,46.504-31.277c-3.739,18.652-15.314,67.332-37.333,86.805H160h49.771
	c-22.018-19.473-33.593-68.152-37.332-86.805c18.982,12.943,43.947,29.896,46.504,31.277l0.016,0.011l-0.002-0.004
	c9.674,5.223,20.744,8.19,32.51,8.19c37.85,0,68.533-30.684,68.533-68.534S289.316,123.402,251.467,123.402z"/>
</svg>
