<?xml version="1.0" encoding="utf-8"?>
<!-- Generator: Adobe Illustrator 17.0.0, SVG Export Plug-In . SVG Version: 6.00 Build 0)  -->
<!DOCTYPE svg PUBLIC "-//W3C//DTD SVG 1.1//EN" "http://www.w3.org/Graphics/SVG/1.1/DTD/svg11.dtd">
<svg version="1.1" id="Layer_1" xmlns="http://www.w3.org/2000/svg" xmlns:xlink="http://www.w3.org/1999/xlink" x="0px" y="0px"
	 width="320px" height="138.569px" viewBox="0 0 320 138.569" enable-background="new 0 0 320 138.569" xml:space="preserve">
<path fill="#FFFFFF" d="M309.486,26.222l-55.204,65.931l-4.931-80.477c-6.927-1.39-14.093-2.733-21.518-3.961l-32.846,79.417
	L171.906,0.801C168.585,0.556,164.301,0,159.997,0c-4.303,0-8.594,0.556-11.929,0.801l-23.063,86.331L92.147,7.715
	c-7.431,1.228-14.585,2.572-21.525,3.961l-4.904,80.477L10.514,26.222C6.617,27.34,3.115,28.368,0,29.311
	c14.417,35.909,37.531,93.246,44.626,109.258c36.032-9.79,97.904-10.979,114.137-10.979c16.206,0,80.573,1.189,116.599,10.979
	C282.45,122.557,305.583,65.22,320,29.311C316.886,28.368,313.383,27.34,309.486,26.222z"/>
</svg>
