<?xml version="1.0" encoding="utf-8"?>
<!-- Generator: Adobe Illustrator 17.0.0, SVG Export Plug-In . SVG Version: 6.00 Build 0)  -->
<!DOCTYPE svg PUBLIC "-//W3C//DTD SVG 1.1//EN" "http://www.w3.org/Graphics/SVG/1.1/DTD/svg11.dtd">
<svg version="1.1" id="Layer_1" xmlns="http://www.w3.org/2000/svg" xmlns:xlink="http://www.w3.org/1999/xlink" x="0px" y="0px"
	 width="320px" height="236.829px" viewBox="0 0 320 236.829" enable-background="new 0 0 320 236.829" xml:space="preserve">
<path fill="#FFFFFF" d="M160.672,236.829h61.99c0,0,4.343-22.316,38.455-23.549c0-13.024,8.044-28.529,8.044-28.529
	s-9.911-8.672-13.021-11.778C253.671,137.639,320,22.316,320,22.316s-39.046,15.497-45.876,28.515
	c-6.822,13.025-4.336,34.729-4.336,34.729s-9.302-14.265-24.187-21.083c6.819,24.187,2.49,48.355-13.015,56.417
	c6.83,6.199,17.365,12.405,17.365,12.405s-23.567,24.796-42.175,21.077c-18.597-3.72-35.939-29.143-35.939-29.143l21.058-8.051
	c0,0-13.007-5.586-6.185-22.943c6.83-17.35,27.269-33.475,27.269-33.475s-30.378-1.863-34.71,8.675C189.8,22.94,160.672,0,160.672,0
	h-1.345c0,0-29.128,22.94-18.607,69.439c-4.318-10.539-34.7-8.675-34.7-8.675s20.442,16.125,27.268,33.475
	c6.826,17.357-6.185,22.943-6.185,22.943l21.062,8.051c0,0-17.346,25.423-35.954,29.143c-18.597,3.719-42.164-21.077-42.164-21.077
	s10.535-6.206,17.368-12.405c-15.504-8.062-19.836-32.231-13.025-56.417C59.516,71.296,50.21,85.56,50.21,85.56
	s2.491-21.704-4.335-34.729C39.046,37.813,0,22.316,0,22.316s66.333,115.322,63.853,150.656c-3.1,3.106-13.011,11.778-13.011,11.778
	s8.044,15.505,8.044,28.529c34.108,1.232,38.455,23.549,38.455,23.549h61.986h1.345V236.829z"/>
</svg>
