<?xml version="1.0" encoding="utf-8"?>
<!-- Generator: Adobe Illustrator 17.0.0, SVG Export Plug-In . SVG Version: 6.00 Build 0)  -->
<!DOCTYPE svg PUBLIC "-//W3C//DTD SVG 1.1//EN" "http://www.w3.org/Graphics/SVG/1.1/DTD/svg11.dtd">
<svg version="1.1" id="Layer_1" xmlns="http://www.w3.org/2000/svg" xmlns:xlink="http://www.w3.org/1999/xlink" x="0px" y="0px"
	 width="320px" height="127.433px" viewBox="0 0 320 127.433" enable-background="new 0 0 320 127.433" xml:space="preserve">
<path fill="#FFFFFF" d="M312.893,111.439c-0.788-0.562-1.579-0.562-2.816-0.562c-0.564-0.451-1.579-1.24-3.833-1.129
	c-0.902-0.901-2.367-1.128-4.171-1.24c-0.788-0.675-1.916-1.239-3.382-0.901c-0.902-0.788-1.917-1.015-4.396-1.24
	c-0.788-1.015-2.479-1.24-4.057-1.128c-0.677-0.675-2.03-1.466-3.833-1.353c-0.675-0.901-2.93-1.803-4.846-2.367
	c-0.564-0.901-2.479-2.254-4.396-2.705c-0.45-1.015-3.043-2.929-4.395-3.831c-0.226-1.24-2.592-2.705-3.833-3.27
	c-0.337-1.24-2.028-3.494-3.607-4.508c-0.675-1.804-1.916-3.72-3.72-5.186c-0.788-2.254-2.929-3.607-4.733-4.395
	c-0.564-1.804-2.141-4.284-3.494-5.635c-0.226-1.804-2.254-4.171-3.72-5.186c-0.226-1.917-1.69-4.058-2.929-5.186
	c0-1.579-1.466-3.833-2.705-4.733c-0.113-1.691-1.129-4.058-2.368-5.073c-0.45-2.141-1.577-3.607-2.591-4.733
	c-0.113-2.818-1.579-5.411-2.93-7.214c-0.788-2.592-3.156-4.96-4.621-5.974c-0.226-2.03-2.479-4.508-3.72-5.974
	c-1.128-2.592-4.509-5.073-5.861-6.425c-1.466-3.607-4.846-5.523-6.199-5.861c-2.028-3.494-4.96-4.396-7.214-5.186
	c-3.945-4.169-5.748-2.141-6.989-3.269c-2.818-2.592-5.637-1.466-7.44-2.93c-1.804-1.466-5.411-1.353-6.425-1.579
	c-1.015-1.015-3.607-1.465-5.298-1.128c-1.803-1.015-4.62-1.015-6.086-0.788c-2.929-1.128-4.508-0.338-4.508-0.338
	s-3.72,0.113-4.395-0.337c-0.677-0.451-1.691,1.24-3.496,0.675c-1.803-0.562-3.494-0.451-4.96,0.338
	c-2.028-0.677-3.156-0.451-5.297,0.788c-3.157-0.562-4.96,0.113-6.989,1.466c-3.045-0.564-4.396,0.113-7.552,2.367
	c-4.284-0.451-5.524,1.24-6.874,2.254c-3.833-0.226-5.411,1.691-6.088,2.141c-3.496-0.333-4.171,2.147-5.411,2.147
	s-3.494,2.254-3.494,2.254s-1.691,0.113-2.367,0.337c-0.677,0.226-2.254,2.143-2.254,2.143h-2.706c0,0-1.466,1.803-2.254,2.254
	c-0.789,0.451-3.157,1.015-3.607,1.353c-0.451,0.337-0.338,1.69-0.338,1.69s-2.028-0.113-2.592,0.338s-1.466,2.254-1.466,2.254
	s-1.465-0.113-2.367,0.564c-0.901,0.675-4.621,4.846-5.974,6.989c-0.901-0.675-0.677-5.298-1.577-6.762
	c-0.902-1.466-3.045-1.353-3.72-2.143c-0.677-0.788-3.27-5.41-3.27-5.41s-4.058-0.677-6.536-0.677
	c-1.242-0.562-2.818-1.803-2.818-1.803s-0.562,0-2.028,0.901c-1.466,0.901-2.479,0.901-2.479,0.901s-0.902-0.901-1.917-0.901
	s-2.93,0.338-4.733,0.113c0,0,0.338,0.788,0.226,2.028C62.332,19.915,60.302,18,60.302,18l-0.111,0.675c0,0-0.677,0.113-0.226,0.564
	c1.577,8.453-1.803,14.427-9.693,17.583c-2.254,0.902-9.919-3.607-15.556-5.635c-5.635-2.028-16.681-3.607-26.825-9.468
	S24.798,32.312,31.11,36.821c-8.567-0.901-24.12-2.479-30.434-4.057c2.479,2.929,20.515,9.017,23.896,9.693
	c3.382,0.675,4.058,2.028,4.058,3.156s0,4.058,0,5.411s-8.791,4.508-13.076,5.861C10.37,55.984,6.312,58.238,0,57.337
	c2.705,5.072,8.679,5.41,8.566,6.198c-3.38,12.398,3.833,17.697,8.906,17.697c-0.226-0.675-1.579-2.818,0.562-5.411
	c2.143-2.592,8.116-3.043,8.453-1.577c0.564,5.523-5.072,5.184-7.327,4.96c0.677,1.353,5.186,4.621,9.581,4.621
	c4.396,0,12.737-4.96,12.737-4.96s1.015-0.226,3.156,0.226c2.143,0.45,7.552,5.635,10.145,5.861s5.073-1.015,7.44-2.141
	c3.494,1.803,9.581,1.015,11.722,1.465c1.804,3.045,7.103,6.312,9.357,7.327c0.675,1.24,0,6.99,0.113,9.806
	c-1.804,3.72-2.818,11.047-2.818,11.047s-1.691,1.353-2.592,2.03c-0.901,0.675-1.128,3.494-0.901,3.944
	c0.226,0.451,1.803,0.338,1.803,0.338s0,0.338,0.562,0.901c0.564,0.564,2.03-0.45,2.03-0.45s-0.113,0.45,0.564,0.788
	c0.675,0.338,3.269-0.451,3.269-0.451s1.015,0.113,2.367,0.113s2.03-1.353,3.156-1.353c1.129,0,2.254-0.337,3.496-2.254
	c1.239-1.916,1.577-5.297,2.592-6.874c1.015-1.579,1.015-6.537,1.577-7.891c0.564-1.352,2.705-5.184,2.93-6.989
	c0.226-1.803-1.015-3.607-1.015-3.607s2.141,0,4.057,0.338c0.902,0.451,5.411,3.156,5.862,3.72c0.45,0.562-0.564,3.269-0.902,8.115
	c-3.043,6.425-3.156,10.483-3.382,13.188c-0.226,2.705-2.028,2.93-2.929,3.833c-0.902,0.901-2.705,1.466-4.622,2.818
	c-1.916,1.353,0,2.818,1.353,2.592c0.451,0.113,0.675,1.466,3.156,0.901c0.338,0.788,2.03,0.788,3.72,1.015
	c0.789,0.564,2.479-0.113,4.733-0.562c1.466,0.337,6.876-2.03,7.328-3.383c0.45-1.352,0.45-5.297,2.141-7.551
	c1.69-2.255,1.353-5.186,3.043-8.453c1.691-3.27,3.045-6.99,3.27-8.116c0.224-1.128,1.24-1.803,1.24-3.945
	c0-2.141-0.677-4.733-3.045-9.017c9.244,3.156,20.739,3.156,37.872-3.382c2.93,7.101,7.776,22.881,7.327,26.6
	c-0.451,3.72-7.552,10.82-8.904,11.271c-1.353,0.451-2.479,4.171-2.479,4.171l2.255,0.226c0,0,0.45,0.901,1.69,1.128
	s2.818-0.226,2.818-0.226s1.015,0,3.269,0.338s3.043-0.901,6.086-1.691c5.524,0.113,8.228-2.141,8.791-4.057
	c0.562-1.917,2.592-5.637,3.607-8.791c1.015-3.157-0.675-6.763-1.579-9.131c-0.901-2.367-0.675-11.271-0.226-12.848
	c3.72,4.621,13.864,12.624,13.977,15.667s-1.015,6.086-1.804,6.989c-0.788,0.902-2.141,0.564-3.382,3.157
	c-1.24,2.594-0.788,2.592,0.338,2.704c1.128,0.113,10.37,0,13.75,0.226c3.383,0.226,5.074-1.69,5.524-3.043
	c0.451-1.353,0.564-8.34,1.353-12.511s-3.157-7.327-4.846-9.018c-1.804-4.508-4.96-9.581-8.904-14.652
	c9.13-1.352,19.274,3.833,32.011,13.639c38.661,26.375,57.821,21.754,66.952,21.304c9.131-0.451,13.976,0.337,19.049,0.45
	C318.53,112.905,315.147,111.439,312.893,111.439z"/>
</svg>
