<?xml version="1.0" encoding="utf-8"?>
<!-- Generator: Adobe Illustrator 17.0.0, SVG Export Plug-In . SVG Version: 6.00 Build 0)  -->
<!DOCTYPE svg PUBLIC "-//W3C//DTD SVG 1.1//EN" "http://www.w3.org/Graphics/SVG/1.1/DTD/svg11.dtd">
<svg version="1.1" id="Layer_1" xmlns="http://www.w3.org/2000/svg" xmlns:xlink="http://www.w3.org/1999/xlink" x="0px" y="0px"
	 width="320px" height="144.661px" viewBox="0 0 320 144.661" enable-background="new 0 0 320 144.661" xml:space="preserve">
<g>
	<path fill="#FFFFFF" d="M79.122,76.593c-0.156-0.217-0.384-0.4-0.753-0.515C78.647,76.235,78.896,76.408,79.122,76.593z"/>
	<path fill="#FFFFFF" d="M319.988,21.816c-0.131-0.788-1.182,0.132-6.57,0.788c-5.386,0.657-43.094,6.307-52.554,7.227
		c-9.46,0.919-39.942,3.809-53.606,4.993c-13.665,1.182-32.321,2.628-44.803,4.072c-12.482,1.446-21.81,0.394-24.57,0.132
		c-2.758-0.263-7.883-0.921-10.511-1.971c-2.628-1.05-11.167-2.102-15.503-2.628c-4.336-0.527-21.679-1.052-27.46-0.919
		c-5.781,0.131-9.064,1.052-9.064,1.052s-1.971-0.394-3.811-1.052c-1.84-0.657-2.496,0.394-2.496,0.394s-1.313-0.525-3.678-1.313
		c-2.366-0.788-4.468-2.89-4.73-3.942c-0.263-1.052-2.628-3.021-3.153-5.255c-0.525-2.233-2.891-6.962-3.153-7.883
		c-0.263-0.921-1.971-3.547-3.811-6.439s-6.174-3.942-7.62-4.861c-1.446-0.921-4.993-1.709-5.781-1.709s-4.73-0.919-4.73-0.919
		s-0.525-1.446-5.387-1.577c-4.862-0.132-6.57,1.708-7.095,1.969c-0.525,0.262-5.255,2.234-7.883,3.547S5.321,9.2,3.349,10.645
		c-1.969,1.446-2.365,3.678-3.021,4.599c-0.657,0.921-0.265,2.497,0.656,2.497l0.788,1.052l1.052,1.84l0.132-1.709l1.182,1.709
		l0.394-1.709l1.052,1.446l-0.132-1.709l1.313,1.709l0.525-1.446l0.921,1.709l0.131-1.709l1.182,1.709l0.394-1.84l1.052,1.313
		l0.656-1.577l0.79,1.708l0.656-1.708l0.921,1.313l0.525-1.971l0.919,1.577l0.394-1.84l0.79,1.577l0.656-1.577l0.79,1.446
		l0.394-1.577l0.525,1.182l0.656-1.577l1.052,1.446l0.394-1.709l0.656,1.446l0.394-1.446c0,0,0.527,0.394,0.527,1.313
		c0,0.921-0.657,2.234-1.313,2.759c-0.657,0.525-2.759,2.365-3.811,3.284c-1.052,0.921-1.969,1.84-1.969,1.84l-1.053-0.262
		l0.131,1.182l-1.313-0.921v1.84l-1.313-1.052v1.446l-1.052-0.921l0.263,1.577l-1.313-0.788v1.577L8.87,29.037v1.182l-1.052-0.525
		l0.263,2.102c0,0-0.394,1.182-1.052,1.182c0.394,1.444,4.336,1.969,5.912,1.182c1.577-0.787,5.124-2.628,7.358-2.89
		c7.095,0.132,15.503-1.84,16.687-2.628c0.656,0.132,3.021,1.577,6.174,2.89c0.788,3.811,3.942,5.255,6.307,6.307
		c0.788,2.497,0.657,6.832,1.709,14.059c1.052,7.226,3.809,8.935,6.437,10.511c2.628,1.577,4.73,1.313,7.489,1.313
		c0,0-2.103,0.921-3.811,1.446s-5.518,4.73-6.437,6.042c-0.921,1.315-0.132,6.964,1.444,9.066c0.132,2.628,0.788,4.467,1.84,4.467
		c3.547,2.628,5.911,1.052,5.255-1.577c-0.525,1.709-2.102,1.577-2.758,0.525c0.394-1.313-0.79-2.758-0.79-2.758s0.79,0,1.841,0.525
		c1.052,0.525,4.072,2.102,4.467,0.525c3.021-2.102,2.496-3.811,1.313-5.52c0.656,1.841-0.525,2.497-1.971,2.759
		c-1.052-1.708-2.497-0.525-4.205-0.656c-1.708-0.132-1.313-0.525-2.233-2.234c4.072,0.525,4.598-3.547,3.021-5.255
		c0.525,1.971-1.052,2.628-1.84,2.628c-0.788,0-1.182-1.052-1.182-2.497c1.838-1.312,2.363-3.415,2.363-3.415
		s1.577-0.132,2.891-0.132c0,0,0.788,1.971,1.444,3.546c0.657,1.577,1.971,4.074,3.417,6.176c0.921,4.862,4.467,4.993,6.57,5.124
		c1.577,0.525,4.599,1.84,5.124,0.788c2.233-0.132,3.546-2.759,1.84-6.043c0.656,1.577-0.394,2.89-2.497,3.417
		c0.799-1.14,0.406-2.874-1.086-4.086c0.564,0.784-0.049,2.106-0.359,3.034c0,0-1.312,0.394-2.889,0
		c-2.628,0.131-2.89-1.313-3.153-2.628c2.227-1.238,2.91-2.503,1.562-5.931c0.368,1.262-0.188,2.25-1.431,3.041
		c0,0-2.233,0.263-2.758,0.131c-0.525-0.131-0.525-2.102-1.052-2.758c-0.525-0.657-1.709-2.366-1.313-3.547
		c2.758,1.182,6.832,0.394,9.591,0.132c1.182,1.313,7.489,3.021,9.985,3.942c-0.263,0.525-0.131,3.678,2.628,6.437
		c2.759,2.759,8.277,7.358,10.642,9.985s6.437,4.862,8.804,8.804c-1.182,0.525-5.52,0.263-6.964-0.921
		c-1.444-1.182-0.657-2.496-1.84-3.021c-0.525-5.781-5.651-7.095-9.985-4.467c3.417-1.84,4.861,1.052,5.255,3.809
		c0,0-3.284,0.525-3.678,3.153c-0.394,2.628,4.205,2.497,6.043,2.628c-1.182,0.263-3.546,1.577-4.072,2.102
		c-2.891-0.394-4.599,2.365-4.73,6.176c0.262-2.89,4.072-2.759,5.781-3.417c0,0,3.021,1.052,4.992,0.919
		c1.971-0.131,2.103-1.84,4.074-1.708c-0.921,0.525-1.708,2.102-1.446,2.89c-1.444,0-1.444,1.182-2.496,3.153
		c0.525-0.788,2.102-1.182,3.153-1.446l0.919,0.132c0,0,2.366-2.497,4.205-4.074c1.841-0.656,2.366-2.233,3.943-2.628
		c1.444,0.263,3.284,0.657,3.942-0.525c0.263-1.313,1.313-1.444,1.313-1.444v-2.628c0,0-0.394-0.788-1.709-1.971
		c-2.628-2.233-7.095-7.095-7.358-12.217c5.387,2.233,10.511,7.095,15.372,6.57c0.263,1.052,2.102,2.758,3.546,3.417
		c0.527,1.577,5.651,6.307,11.169,10.904c4.599,4.73,12.217,10.38,14.846,12.219c2.628,1.838,2.759,3.022,5.52,5.649
		c0.525,1.841,1.577,3.547,2.496,4.995c0,0-0.919,1.313-1.313,1.182c-4.993-6.439-10.248-2.89-11.036,2.234
		c4.73-4.467,6.701-0.263,6.962,2.89c-1.708,3.678,2.759,5.123,5.52,4.205c-0.921,1.444-3.678,2.89-5.387,2.365
		s-3.153-0.657-3.153,0c-2.102-0.132-3.811,0.394-5.518,3.809c0.788-1.052,2.365-1.052,5.781-0.919
		c-0.657,0.525-0.788,0.919-0.525,3.417c0.394-1.84,3.547-2.365,5.124-2.102c1.444,0.263,4.598-0.132,5.911-1.446
		c4.336-1.444,3.678-5.386,3.678-7.095c1.052-1.84,0.657-5.781-0.394-7.358c-1.052-1.577-0.921-2.758-0.921-2.758
		s0.657-1.577,0.657-3.153c0-1.577-3.153-4.731-4.468-6.176c-1.312-1.446-2.758-4.467-3.809-6.043
		c-1.052-1.577-4.993-7.227-8.408-9.592c-3.415-2.365-7.488-5.123-9.46-6.699c-1.972-1.577-2.102-3.286-3.811-6.832
		c-1.708-3.547-1.05-6.439-0.394-8.541s2.758-4.73,2.233-2.628c-0.525,2.102-1.708,3.417-2.233,6.043
		c-0.525,2.627,1.84,4.73,3.417,8.146c0,0,1.709-0.788,4.467-2.233c2.628-5.781,7.358-7.489,8.539-8.671
		c1.182-1.182,5.912-8.146,8.541-10.248c2.628-2.102,26.935-9.725,48.087-15.768c21.154-6.043,89.606-22.992,99.593-25.094
		C319.331,24.314,320.12,22.605,319.988,21.816z"/>
</g>
</svg>
