<?xml version="1.0" encoding="utf-8"?>
<!-- Generator: Adobe Illustrator 17.0.0, SVG Export Plug-In . SVG Version: 6.00 Build 0)  -->
<!DOCTYPE svg PUBLIC "-//W3C//DTD SVG 1.1//EN" "http://www.w3.org/Graphics/SVG/1.1/DTD/svg11.dtd">
<svg version="1.1" id="Layer_1" xmlns="http://www.w3.org/2000/svg" xmlns:xlink="http://www.w3.org/1999/xlink" x="0px" y="0px"
	 width="319.669px" height="144.835px" viewBox="0 0 319.669 144.835" enable-background="new 0 0 319.669 144.835"
	 xml:space="preserve">
<path fill="#FFFFFF" d="M318.5,30.205c0,0-3.064-0.323-4.839-0.807s-22.745-5.321-39.038,0.645
	c-16.292,5.967-21.777,11.127-50.007,16.771c0,0-12.099,1.29-20.972,8.547c-8.871,7.256-16.291,4.837-16.291,4.837
	s-4.355,6.128-6.614,7.741c0,0,7.743,5.805,9.356,10.643c1.612,4.838,5.646,12.74,12.26,15.643c0,0,3.871,1.451,3.871,6.45
	s1.613,15.481,2.582,17.739c0.967,2.258,2.741,6.289-2.259,9.676s-9.356,8.225-9.356,8.225l-1.773,1.129
	c0,0-6.291,1.289-9.678,1.129l-1.291-1.29h-8.066c0,0,0.807-5.646,7.743-6.128h5.483c0,0,11.777-7.418,5.002-24.028
	c0,0-2.743-6.935-9.034-9.999s-8.388-4.031-8.388-4.031s-4.678,7.74-2.742,16.932c1.936,9.192-1.936,12.096-1.936,12.096
	s-3.388,3.225-5.808,6.773c-2.419,3.547-4.354,5.482-4.679,8.062c-0.322,2.58-0.967,5.161-3.871,5.967
	c-2.904,0.807-12.26,1.451-12.26,1.451l-0.162-1.773l-9.194,0.645l-0.646-0.645l-3.549,1.129l-0.323-2.258h-2.419
	c0,0,0.968-6.451,6.13-7.418c5.162-0.968,11.614-3.063,11.614-3.063s8.227-4.515,10.969-9.03c2.743-4.516,4.678-10.645,2.42-17.417
	c-2.258-6.772-10.001-19.19-9.679-30.155c0,0-3.71-7.74-15.002-9.191c-11.292-1.452-18.39-2.42-23.068-5.483
	c0,0-0.645,8.224-6.291,7.901s-12.099-1.774-15.002,0.162c-2.904,1.935-6.292,3.386-6.292,3.386l-0.807,2.742
	c0,0-1.613,3.87-4.194,4.354c0,0-0.645-1.774,1.452-6.128c1.745-3.623,2.037-4.007,2.086-4.033l-1.441-0.32
	c0,0,1.291-4.032,5.162-4.678c3.872-0.645,6.453-0.483,7.582-4.192c0,0,1.291-1.774-2.097-3.709s-5.646-3.547-7.42-8.224
	c-1.774-4.677-5.807-4.193-5.807-4.193s-6.937-1.935-8.55-3.548c-1.613-1.612-7.743-2.096-10.001-0.806s-2.581,8.386-10.647,12.901
	c-8.065,4.515-11.937,6.289-17.421,12.578c-5.485,6.29-11.937,8.062-19.519,2.902l0.968-2.418l-0.646-2.581l1.774,0.161l3.227-2.902
	c0,0,5.162-4.354,7.098-10.966s1.291-5.483,3.549-7.58l-2.097-5.805c0,0-2.119-0.182-5.24,0.354l-0.591,1.565l-1.542-1.101
	c-0.051,0.013-0.103,0.027-0.153,0.041l-0.311,1.777l-1.146-1.29l-0.239,1.719L16.903,36.4l-0.525,1.671l-1.125-1.396
	c-0.033,0.005-0.065,0.01-0.098,0.015l-0.543,1.857l-0.953-1.668c-0.001,0-0.002,0-0.003,0l-0.476,1.429l-0.86-1.29l-0.334,1.385
	l-0.86-1.337l-0.812,1.48l-0.86-1.385L8.93,38.31l-0.86-1.242L7.592,38.31l-0.811-1.384c0,0,0,0-0.001,0l-0.43,1.432l-0.478-1.385
	l-0.668,1.48l-0.871-1.878c-0.022-0.004-0.044-0.01-0.067-0.014L3.58,38.024l-0.377-1.698c-0.004-0.001-0.008-0.002-0.013-0.003
	l-0.756,1.654l-0.417-1.99C2.008,35.984,2,35.981,1.992,35.978l-0.418,1.904l-0.303-2.159c-0.068-0.026-0.141-0.047-0.208-0.074
	L0.524,37.69l-0.428-2.469c-0.043-0.021-0.09-0.038-0.133-0.059c0,0-0.217-11.729,7.365-15.276s16.292-7.257,16.292-7.257
	l1.291-6.289c0,0,3.872-2.58,9.84-0.484c0,0,7.743-2.58,13.228-2.096l6.775-2.903c0,0,4.839-3.064,12.744,0.161
	s13.873,8.547,22.906,8.225C99.437,8.92,104.76,5.05,104.76,5.05s7.42-3.387,21.616-3.064c14.195,0.322,14.356,2.096,27.261,2.419
	c12.905,0.322,18.229-1.29,35.328,3.386l9.84,2.903c0,0,4.355,0.161,16.776,1.774c12.421,1.612,20.971,4.999,32.263,4.999
	s20.648,0,20.648,0s20.648,0.161,38.553,5.967C324.953,29.237,318.5,30.205,318.5,30.205z M42.892,13.753
	c-1.741,2.15-7.063,2.354-7.063,2.354c0.921,4.095,4.197,2.969,4.197,2.969C43.711,18.769,42.892,13.753,42.892,13.753z"/>
</svg>
