<?xml version="1.0" encoding="utf-8"?>
<!-- Generator: Adobe Illustrator 16.0.0, SVG Export Plug-In . SVG Version: 6.00 Build 0)  -->
<!DOCTYPE svg PUBLIC "-//W3C//DTD SVG 1.1//EN" "http://www.w3.org/Graphics/SVG/1.1/DTD/svg11.dtd">
<svg version="1.1" id="Layer_1" xmlns="http://www.w3.org/2000/svg" xmlns:xlink="http://www.w3.org/1999/xlink" x="0px" y="0px"
	 width="400.074px" height="215.761px" viewBox="0 0 400.074 215.761" enable-background="new 0 0 400.074 215.761"
	 xml:space="preserve">
<path fill="#FFFFFF" d="M400.056,130.218c-2.662-11.463-13.22-8.063-17.33-10.283c-2.84-1.549-6.877-4.283-10.211-7.904
	c2.483,5.881,1.798,10.391-0.085,12.868c1.604-5.276-4.296-9.503-6.763-14.015c-2.469-4.506-1.106-7.591-2.647-11.963
	c1.564,1.543,2.932,3.044,4.122,4.498c-1.356-3.288-2.644-7.118-4.166-10.368c-1.106-0.721-2.147-1.474-3.079-2.297
	c-6.911-6.12-9.441-8.972-10.057-13.174c10.254,12.016,18.922,9.03,24.656,13.556c5.734,4.52,10.409,12.331,10.728,20.124
	c-2.808-5.843-7.26-9.406-11.884-12.237c0.408,0.76,0.784,1.54,1.087,2.354c1.409,9.784,8.001,13.198,14.15,16.061
	c3.074,1.434,6.038,2.734,8.187,4.624c1.074,0.944,1.943,2.036,2.521,3.366c0.289,0.664,0.506,1.388,0.638,2.184
	c0.066,0.396,0.111,0.813,0.134,1.247C400.08,129.292,400.08,129.744,400.056,130.218z M386.835,82.553
	c0.257,1.384-1.309,1.613-3.519,2.404c-0.002-0.017-0.012-0.032-0.015-0.049l-3.359,1.384c-0.448,0.275-0.961,0.455-1.521,0.509
	c1.31-1.632,2.299-2.2-1.853-3.435c-0.003,4.032-1.418,3.542-5.331,4.227c2.988-4.907-2.131-9.162-2.193-11.531
	c-2.645,0.037-7.224-2.122-10.084-4.478c-2.86-2.354-7.033-2.928-9.43-5.194c-2.397-2.267-8.143-6.271-9.773-4.229
	c-1.633,2.046-1.71,4.042,0.936,7.887c6.025,4.661,4.572,26.382,7.248,29.525c-0.04-0.022-0.075-0.073-0.113-0.1
	c0.542,0.992,1.396,2.917,2.478,4.342c1.748,1.422,3.612,2.24,6.427,1.428c-2.314,3.643-5.119,3.93-7.903,3.682
	c-1.617,1.691-2.893,2.564-4.924,2.975c0.689-1.848-1.31-6.385-3.112-7.901c0.087-2.299,2.278-10.995-1.638-14.074
	c-3.916-3.083-8.873-3.228-10.747-11.022c3.604,3.035,5.908-0.394,8.794,5.296c0.634-4.409-4.116-10.025-9.867-13.742
	c-5.75-3.722-5.294-7.523-5.294-7.52c4.627,4.671,7.466,3.476,10.31,6.169c-2.914-4.909-9.23-5.99-11.433-9.212
	c-0.584-0.857-1.018-1.857-1.344-2.863c-4.474,4.647-6.816,12.294-6.085,18.874c4.378,31.862,17.635,37.865,15.076,64.539
	c-0.396,6.125-3.017,11.368-5.396,14.966c-0.708,0.66-1.758,1.957-3.316,4.324c-0.446,0.498-0.728,0.775-0.728,0.777
	c0-0.002-0.193,0.322-0.459,0.836c-5.142,6.727-10.395,10.268-15.24,12.053c-3.577,1.113-10.001,2.503-19.086,2.121
	c-14.668-0.588-26.376-8.391-26.374-8.418c1.596-1.229,4.077-1.607,9.479,2.188c3.01,1.91,8.664,1.791,9.386-2.91
	c1.837-11.988,2.771-21.395-8.36-22.715c-6.344-0.432-9.371-0.809-14.146,3.071c-5.489-1.438-8.862-1.723-10.951,0.466
	c-2.088,2.191-2.029,8.269-2.03,8.264c-22.334-17.869-28.343-43.984-35.335-55.042c-6.966-11.18-17.995-31.446-28.466-25.911
	c-14.116,7.458-1.452,24.481,0.62,35.864c2.103,11.346,2.634,41.017-9.569,51.391c-12.182,10.449-18.412,10.479-24.058,9.07
	c0.854-1.902,2.967-7.896,1.872-12.121c-1.086-4.203-3.217-14.326-7.873-14.909c-4.651-0.573-8.908,2.685-10.931,2.215
	c-2.023-0.479-9.546-5.679-14.103-3.782c-9.355,3.854-7.976,15.332-8.124,17.887c-4.164-3.375-8.528,0-18.762,0
	c-21.496,5.529-37.397-0.312-51.876-7.129c-11.7-5.457-19.732-12.99-28.415-29.146c-1.545-2.885-1.072,0.287-1.177-3.154
	C5.115,119.839-0.01,100.208,0,99.334c0.01-0.873,0.039-1.753,0.085-2.639c0.094-1.772,0.997-8.099,1.242-9.917
	c0.979-7.267,5.509-32.625,18.762-46.056c19.56-19.411,44.753-24.853,69.931-8.529c-29.212-7.676-49.463,0.597-61.403,17.058
	C15.799,67.033,16.086,95.055,23.5,110.66c5.525,2.957,6.019,1.029,6.019,1.021c-0.001-0.005,2.438,12.647,4.01,10.991
	c1.572-1.655,9.011-3.108,9.01-3.11c-0.002-0.021,7.332,19.39,8.235,15.847c0.674-2.664,3.137-7.979,2.793-9.521
	c2.997,2.293,9.288,12.554,11.247,11.328c6.314-3.957-0.881-11.523-2.083-6.086c-1.43-13.139,19.969,6.617,17.056-1.705
	c-1.472-2.562-7.706-9.44-8.528-5.116c0.089-5.578,5.687-2.964,10.183-3.962c4.496-1.063,12.948,8.141,13.696,5.667
	c0.75-2.524-3.306-13.206-6.655-11.354c2.75-3.72,5.631-3.277,8.575-0.681c2.962,2.505,9.464,11.048,12.081,7.171
	c2.626-3.941-0.68-11.275-3.896-10.656c5.636-3.372,9.225-2.021,11.534,2.336c2.328,4.322,5.399,13.92,9.709,11.844
	c4.326-2.094,3.576-8.537-0.033-9.404c9.009-6.047,9.926,25.238,19.671,16.15c6.474-7.625-1.724-14.793-1.827-19.785
	c-0.106-5.002,5.341-6.225,1.679-10.112c-3.664-3.869-4.88,1.841-5.426,4.814c-6.523-13.652,5.276-18.184,1.498-23.476
	c-2.675-3.494-5.376-0.872-5.976,4.526c-6.879-14.49,9.668-16.442,5.203-24.569c-3.547-4.748-9.015-2.589-9.832,1.223
	c-0.436-6.401,4.403-13.885,7.364-15.048c2.957-1.188,10.731-0.775,10.263-6.149c-0.473-5.32-5.619-5.663-8.455-3.409
	c2.883-4.741,8.843-8.359,12.822-8.26c3.983,0.029,14.294,6.607,16.116,4.336c1.83-2.384,0.093-10.058-5.248-9.022
	c4.336-2.501,8.354-3.488,13.292,0.02c4.957,3.231,13.042,20.271,18.898,16.571c3.905-2.17-0.616-14.482-5.651-14.39
	c9.459,0.238,14.825,4.133,17.15,10.306c2.34,5.918,5.146,24.528,8.999,23.988c3.864-0.764,3.505-12.38-0.42-14.552
	c5.991,2.274,8.786,10.521,10.265,16.858c1.489,6.18,2.441,23.1,8.485,21.535c6.055-1.67,1.794-16.27-0.288-18.432
	c6.124,0.857,8.943,12.771,9.855,17.452c0.922,4.537,0.978,29.353,9.494,27.814c3.102-0.629,5.813-7.415,0.811-13.894
	c6.679,2.711,8.244,6.321,10.672,11.577c2.429,5.254,6.959,20.186,10.285,17.857c3.326-2.314,2.47-8.313-1.021-9.875
	c6.639-0.158,7.792,0.375,9.999,3.29c2.206,2.94,7.321,7.257,11.692-2.187c1.753-5.58-5.092-8.531-6.704-2.514
	c-2.341-7.647-0.987-10.851,0.792-13.034c1.779-2.188,3.867-4.301,2.691-5.942c-1.177-1.644-5.268,0.371-5.529,3.323
	c-5.461-19.556,4.336-21.343,3.08-24.953c-1.26-3.566-5.225-9.327-8.293-1.427c-4.973-16.223,5.553-16.563,4.297-20.183
	c-1.262-3.539-5.801-2.092-5.795,1.976c-0.48-2.037-0.286-5.36,0.439-8.9c-0.869-0.085-1.729-0.222-2.568-0.434
	c-2.586-0.65-4.754-1.762-6.432-3.199c-5.015,4.797-10.93,9.341-14.92,9.833c-22.046,2.312-13.805-13.125-27.29-30.052
	c-7.118-9.38-11.758-2.966-20.724-15.939c9.229,7.989,18.443,8.147,24.047,13.538c11.211,10.717,9.357,26.898,22.413,24.21
	c4.901-1.581,9.782-8.454,14.92-14.449c-2.507-2.223-4.46-5.02-4.435-7.709c0.355,2.432,2.448,4.774,5.373,6.63
	c3.896-4.421,7.949-8.132,12.278-8.485c0.968-0.13,1.921-0.206,2.868-0.257c-2.984-4.905-4.307-11.343-8.578-13.73
	c-3.193-1.463-10.662-4.782-21.061-0.695c7.06-5.88,15.379-4.243,22.707-1.526c7.334,2.551,12.304,13.624,14.988,16.305
	c0.036,0.034,0.08,0.06,0.117,0.093c5.497,0.895,10.29,2.84,13.856,4.819c-1.993-2.061-3.22-4.217-3.474-7.507
	c5.719,4.311,11.663,3.214,16.073,5.447c0.292,0.149,0.547,0.293,0.818,0.44c1.604,0.229,3.169,0.681,4.603,1.423
	c-0.675-0.62-1.676-1.363-3.229-2.266c-5.765-3.303-10.768-2.455-13.423-5.767c-2.656-3.334,3.547-10.314,1.61-12.117
	c-1.938-1.838-6.277-2.017-8.612-1.9c3.785-1.285,12.949-1.291,12.809,1.851c-0.142,3.111-4.771,9.64-1.414,11.103
	c3.354,1.437,7.696,1.597,10.984,4.654c3.287,3.076,4.604,5.083,4.604,5.078c-0.28-4.482,2.923-6.736,2.408-9.231
	c-0.517-2.475-4.807-3.886-5.599-7.08c-0.793-3.163,3.059-5.896,1.197-9.339c-0.711-1.437-3.961-1.698-4.917-1.177
	c0.744-0.967,2.202-1.419,3.596-1.323c0.088,0.006,0.175,0.015,0.262,0.025c0.086,0.01,0.172,0.023,0.257,0.038
	c0.171,0.03,0.339,0.068,0.503,0.116c0.328,0.095,0.641,0.226,0.924,0.395c0.566,0.337,1.021,0.823,1.262,1.47
	c0.969,2.573-1.424,7.414,0.496,9.687c1.921,2.258,6.966,4.157,6.369,7.216c-0.599,3.08-5.209,5.554-3.578,11.19
	c0.463-0.064,0.823,0.058,1.148,0.259c0.827-1.296-1.017-2.488,1.333-3.903c2.551-1.535,4.936,0.884,4.929-2.657
	c-0.006-3.522-1.033-4.931,0.245-5.763c1.279-0.824,5.063,1.533,4.462-2.547c-0.444-2.979,2.744-2.345,2.984-4.286
	c0.239-1.93,0.492-4.11-0.994-5.608c2.688,2.414,3.599,6.465,2.604,7.915c-0.996,1.443-2.375,0.977-2.157,3.152
	c0.217,2.181,0.605,3.998-1.261,4.027c-1.867,0.033-1.957,2.138-1.62,5.221c0.49,4.519-5.194,1.599-5.128,3.708
	c0.035,1.089-0.421,2.144-0.873,2.917c3.718-0.32,12.641-0.083,13.317,15.854c0.211,3.603,7.19,6.771,8.097,7.427
	c0.907,0.65,1.892,3.283,1.188,5.304c2.11,1.692,7.578,5.324,14.399,5.14c5.535-0.144,12.904,3.156,11.939,0
	c1.964,1.509,1.616,6.849,1.706,8.529C392.783,76.788,390.423,82.339,386.835,82.553z M274.77,43.198
	c1.336,0.516,2.86,0.893,4.612,1.104c1.195,0.137,2.454-0.088,3.782-0.518c1.089-3.174,2.57-6.104,4.355-8.046
	c-2.729,0.377-5.188,0.792-6.942,0.855C279.219,38.405,277.167,40.76,274.77,43.198z M282.221,34.474
	c1.858-0.228,3.432-1.178,5.844-2.021C286.521,31.924,284.415,32.051,282.221,34.474z M341.438,43.275
	c-3.202-1.488-4.048-1.058-5.805,0.859l-1.706,1.706c1.529,2.307,3.151,3.683,4.9,4.454c-1.329-3.944,0.148-6.127,3.041-6.153
	c2.249,2.387-0.118,5.668-1.822,6.591c1.793,0.503,3.721,0.479,5.82,0.226C345.495,48.6,344.639,44.754,341.438,43.275z
	 M52.915,125.498c-0.218,0.041-0.477,0.139-0.824,0.354C52.25,125.449,52.535,125.357,52.915,125.498z M53.566,125.886
	c-0.239-0.184-0.458-0.316-0.651-0.389C53.279,125.429,53.494,125.562,53.566,125.886z M97.512,180.689
	c0.173-3.384,3.893-3.105,5.826-1.037c1.93,2.061,7.117-0.542,7.103-4.852c0.001-4.27-2.913-18.234-0.804-22.777
	c2.017-4.283,4.16-7.895,7.069-7.072c6.788,1.975,9.188,4.307,10.829,4.36c1.643,0.058,9.523-3.854,11.411-2.128
	c1.891,1.73,6.093,11.799,5.415,15.896c-0.67,4.129-1.396,10.514-8.446,10.189c-7.044-0.301-9.758-7.702-11.745-9.408
	c-1.985-1.695-4.432-2.959-5.036-0.339c-0.606,2.614,0.725,4.127,0.42,7.022c-0.305,2.893-1.271,5.584-1.134,6.734
	c0.137,1.161,5.343,6.938,7.356,8.148c0.622,0.597,2.971-2.696,4.825-2.332c1.855,0.373,2.622,5.08,2.45,7.296
	c4.502,0.624,5.191,6.396,3.455,12.339c0.174-7.402-2.376-7.738-4.556-8.23c-1.299,2.279-4.665-1.445-5.504-3.437
	c-0.84-1.987-4.902,0.194-6.978-1.569c1.362,3.682,0.637,4.324,1.949,5.897c1.31,1.565,4.368,3.624,2.311,6.618
	c0.446,3.643,1.131,7.086-3.787,10.08c3.332-3.975,0.835-6.094-0.742-7.088c-1.58-0.998-0.734-2.83-0.735-2.832
	c-3.054,0.397-4.176-3.002-2.846-5.402c-2.598-2.021-2.909-6.036-2.991-7.719c-0.081-1.68-1.578-2.303-2.774,0.017
	c-1.195,2.325,0.014,7.313-3.535,7.144c-1.531,3.193-3.786,2.271-3.975,4.152c-0.188,1.883-0.949,5.822,0.538,6.538
	c-4.033-1.993-5.243-9.412-1.347-11.86c-0.245-4.387,0.761-7.002,2.513-8.039c-2.648,1.14-4.989-1.189-5.539-2.476
	c-1.788,0.205-2.915,1.699-2.127,3.952C94.739,185.921,94.754,180.728,97.512,180.689z M160.992,182.666
	c1.251-4.094,4.475-4.385,6.729-3.113c2.252,1.264,6.688,3.205,7.034,1.07c0.348-2.139-2.043-5.14-12.106-11.072
	c4.315-1.983,12.308-8.955,14.385-15.598c2.082-6.636,3.665-12.601,3.619-16.691c5.858-0.416,10.808,0.064,11.418,6.439
	c1.504,13.633-10.518,14.967-11.968,17.59c-1.455,2.598-1.79,4.795-1.055,5.57c0.183,0.747,0.313,2.521-0.229,4.396
	c2.446,1.881,7.168,2.726,7.742,6.517c3.918-0.66,4.875,0.115,5.849,0.599c0.973,0.484,3.674,1.924,4.9-0.313
	c1.226-2.234,0.051-5.355,3.98-6.303c3.928-0.942,6.776-0.188,7.211,2.303c2.778-0.145,7.574,1.925,6.528,9.539
	c-1.813-3.792-3.902-4.207-6.256-1.62c-1.16,0.937-2.256-1.545-2.397-3.136c-1.994-0.109-1.534,1.783-3.183,3.548
	c-1.646,1.765-2.84,3.258-7.671,2.155c-2.732-0.854-3.206-0.309-3.911,0.365c1.759,2.358,2.742,2.686,3.518,2.727
	c0.776,0.039,2.494-0.858,4.208,0.355c1.106-1.947,5.181-5.304,7.474,5.817c-3.018-3.894-5.582-3.761-6.343-2.122
	c-0.695,2.469-1.974,3.361-3.418,3.293c-1.445-0.07-4.03-1.579-4.759-2.449c-1.817,0.596-5.935,0.559-8.22-4.047
	c-3.043,0.691-5.918,0.409-8.236,0.154c-2.319-0.251-4.234-3.458-6.346-3.424c-2.111,0.041-2.721,2.701-3.949,2.779
	c-1.228,0.08-3.167-0.856-3.297-2.281c-3.476,0.537-5.199,1.457-5.286,4.397C156.826,185.485,157.397,181.628,160.992,182.666z
	 M235.305,184.863c1.854-0.033,3.114,2.694,4.271,2.756c1.155,0.063,3.198-1.496,4.354-1.432c1.154,0.066,1.982,2.199,3.184,1.293
	c1.201-0.911,5.063-4.283,3.349-10.046c-1.715-5.79-5.032-4.011-6.544-9.138c-1.514-5.156-0.227-5.518-0.348-8.141
	c-0.12-2.621-1.475-9.031,1.496-11.152c2.973-2.109,7.822,0.783,9.752,1.666c2.769-2.695,6.504-6.73,17.684-2.693
	c4.288,1.563,3.479,14.628,1.115,18.545c-2.362,3.943-8.694-2.621-11.456-2.984c-2.763-0.35-6.058,0.996-6.021,2.865
	c0.039,1.869,2.135,4.301,4.135,6.277c2.002,2.009,2.735,11.855,5.141,12.521c2.404,0.694,4.924-1.229,7.006-1.104
	c2.082,0.13,3.811,3.121,5.662,3.227c1.854,0.108,4.643-2.736,7.258-1.482c2.617,1.25,2.908,2.629,3.055,4.668
	c2.102-0.291,6.045,2.668,3.67,9.302c-1.291-5.104-3.534-7.007-5.933-5.25c-0.897,1.963-4.063-0.079-5.942-2.215
	c-1.211,1.149-2.705,0.798-4.674,0.688c-1.971-0.104-5.093-3-5.871-1.138c-0.777,1.862-1.326,3.729,0.352,5.162
	c1.677,1.438,5.592,4.836,3.872,6.854c2.036,3.803,0.515,9.01-1.89,10.547c0.263-5.49-0.074-5.81-1.211-6.371
	c-1.002,1.507-5.229-0.096-5.141-4.448c-0.005-2.386-2.684-2.255-4.107-4.065c-1.426-1.804-1.33-6.416-3.227-5.57
	c-1.896,0.855-2.054,4.24-0.525,6.318c0.883,0.986,0.5,4.153-0.352,4.899c1.465,3.378,1.579,8.155-1.688,10.536
	c2.047-3.575-0.047-8.375-2.088-9.4c-1.188,0.447-4.506-2.771-3.27-11.684c-4.116,3.601-5.831-1.799-8.35-2.494
	c-2.518-0.686-3.883,1.171-5.809,0.242c-2.143,1.125-3.83,2.424-2.13,5.498c-2.856-3.127-3.397-6.2-0.918-7.178
	C232.379,187.934,233.451,184.899,235.305,184.863z M317.021,167.606c0.089,0.722,0.337,1.384,0.823,1.911
	c2.524,2.738,8.086,3.15,11.028,3.197c2.942,0.05,4.658,3.748,5.833,5.426c2.473,0.176,8.572-1.159,11.813-4.78
	c1.783-1.976,3.745-0.584,4.458,1.046c4.352-0.191,7.901,0.266,9.819,2.834c4.75,1.566,10.451,2.666,8.173,9.344
	c-0.151-8.051-3.271-3.653-5.277-3.955c-1.938,1.93-5.505,1.871-6.654-0.461c-1.15-2.334-2.213-2.937-3.801-2.004
	s-3.492,2.022-5.462,0.838c-1.581,0.766-1.783,1.978-1.783,1.977c2.798-0.159,3.193,1.611,4.708,2.58
	c1.514,0.967,2.945,0.02,4.775,0.832c1.831,0.811,1.307,2.326,1.307,2.328c2.477,0.158,7.008,3.365,5.044,9.888
	c0.159-7.998-4.7-6.778-6.281-6.005c-0.404,2.38-6.557,0.997-6.596-1.95c-2.624-0.335-7.597-0.112-8.913-2.114
	c-3.369-1.082-8.275-2.455-10.088,0.252c-1.813,2.703-5.378,2.672-7.635,0.946c-0.357,1.216-2.284,2.866-3.346,2.274
	c-0.048,1.172,0.049,3.1,1.038,3.875c-4.499-1.385-5.49-6.383-2.906-7.529c-0.335-3.227,4.591-6.309,7.203-5.771
	c-0.099-1.431-2.052-2.998-4.418-1.906c-2.368,1.092-9.201,1.55-10.02-1.219c-0.427-1.437-1.25-3.352-1.943-4.863
	C312.046,172.757,314.884,170.158,317.021,167.606z M320.006,195.884c0.445,0.138,0.913,0.252,1.428,0.311
	C320.819,196.298,320.359,196.162,320.006,195.884z"/>
</svg>
