<?xml version="1.0" encoding="utf-8"?>
<!-- Generator: Adobe Illustrator 17.0.0, SVG Export Plug-In . SVG Version: 6.00 Build 0)  -->
<!DOCTYPE svg PUBLIC "-//W3C//DTD SVG 1.1//EN" "http://www.w3.org/Graphics/SVG/1.1/DTD/svg11.dtd">
<svg version="1.1" id="Layer_1" xmlns="http://www.w3.org/2000/svg" xmlns:xlink="http://www.w3.org/1999/xlink" x="0px" y="0px"
	 width="320px" height="118.6px" viewBox="0 0 320 118.6" enable-background="new 0 0 320 118.6" xml:space="preserve">
<g>
	<path fill="#FFFFFF" d="M121.567,68.814c3.421,5.607,7.797,7.66,9.574,8.753c1.642-1.504,3.01-2.872,4.104-3.693
		c-1.504-3.146-2.735-6.018-3.283-8.481h-9.574C120.471,65.394,120.199,66.764,121.567,68.814z"/>
	<path fill="#FFFFFF" d="M93.392,24.91c-2.051,0-2.874,0.957-1.369,3.01c7.797,10.394,19.286,14.635,23.8,14.635s10.258,0,11.353,0
		c1.093,0,2.461-0.683,1.778-2.051c-0.958-1.642-7.111-11.489-7.796-12.719c-0.685-1.232-2.189-2.736-4.514-2.736
		S95.443,24.91,93.392,24.91z"/>
	<path fill="#FFFFFF" d="M120.199,63.754c2.246,0,2.565,0,2.599,0c-10.258-3.01-16.822-9.849-19.147-14.499H54.957
		c-5.06,0-3.421,1.368-1.504,3.967c8.343,11.353,19.422,13.54,28.175,13.54c8.754,0,36.383,0,36.383,0
		C117.326,64.437,117.326,63.754,120.199,63.754z"/>
	<path fill="#FFFFFF" d="M101.871,47.066c-0.683-2.325,0.274-3.829,3.146-3.829s3.829,0,3.829,0
		c-10.258-3.01-16.824-9.849-19.147-14.499H28.834c-5.06,0-3.421,1.369-1.504,3.967c8.343,11.353,19.147,14.361,27.903,14.361
		C63.985,47.066,101.871,47.066,101.871,47.066z"/>
	<path fill="#FFFFFF" d="M52.632,13.83c9.574,0.411,24.771,1.534,27.492,2.053c8.618,1.64,19.019,7.51,25.03,7.796
		c1.799,0.087,7.54,0.051,11.445,0.051c1.308,0.138,1.855-0.411,1.412-1.419c-5.335-10.394-11.49-17.78-24.757-17.78
		S43.605,4.668,41.28,4.668s-5.197,0.41-3.01,2.461C43.742,12.874,43.059,13.421,52.632,13.83z"/>
	<path fill="#FFFFFF" d="M107.068,45.151c-1.914,0-3.556,0.274-0.819,3.694c7.658,11.489,16.001,12.855,19.83,12.855
		s5.744,0,5.744,0c-0.683-5.607-0.136-9.847,0.821-16.55L107.068,45.151L107.068,45.151z"/>
	<path fill="#FFFFFF" d="M88.603,26.278c-0.547-1.094-0.41-2.6,1.914-2.6c2.326,0,7.112,0,7.112,0
		c-6.018-2.325-17.918-6.839-25.44-7.111c-7.522-0.274-21.61-1.504-23.936-1.504s-4.376-0.274-6.565-2.325
		c-2.19-2.053-6.156-5.471-6.156-5.471s-30.911,0-32.826,0s-3.829,0.958-1.915,3.967C9.543,24.09,21.034,26.279,28.284,26.279
		C35.535,26.278,88.603,26.278,88.603,26.278z"/>
	<path fill="#FFFFFF" d="M157.537,46.793c-7.249-1.093-12.719-2.461-20.243-7.796c-4.134,8.601-7.111,19.422,0.138,33.921
		c0.821,0.957,4.787,1.231,6.156-0.411c1.368-1.642,6.29-8.617,9.711-13.129c3.419-4.514,5.335-6.567,5.335-6.567
		s0.683-0.821,0.547-2.872C159.044,47.887,160,46.793,157.537,46.793z"/>
	<path fill="#FFFFFF" d="M188.175,61.701c0,0,1.915,0,5.744,0c3.831,0,12.174-1.368,19.833-12.855
		c2.736-3.421,1.094-3.694-0.821-3.694h-25.578C188.312,51.855,188.861,56.094,188.175,61.701z"/>
	<path fill="#FFFFFF" d="M203.402,23.73c3.905,0,9.647,0.035,11.445-0.051c6.011-0.286,16.412-6.156,25.029-7.796
		c2.721-0.519,17.918-1.642,27.493-2.053c9.574-0.41,8.89-0.957,14.361-6.701c2.189-2.051-0.685-2.461-3.01-2.461
		c-2.326,0-38.708-0.138-51.975-0.138c-13.268,0-19.422,7.386-24.757,17.78C201.545,23.318,202.094,23.866,203.402,23.73z"/>
	<path fill="#FFFFFF" d="M192.826,42.554c1.093,0,6.839,0,11.353,0s16.003-4.239,23.799-14.635c1.504-2.053,0.683-3.01-1.368-3.01
		s-20.926,0.136-23.251,0.136s-3.829,1.504-4.514,2.736c-0.683,1.231-6.839,11.079-7.797,12.719
		C190.364,41.869,191.733,42.554,192.826,42.554z"/>
	<path fill="#FFFFFF" d="M184.757,73.875c1.093,0.821,2.463,2.189,4.104,3.693c1.778-1.093,6.154-3.146,9.574-8.753
		c1.368-2.051,1.093-3.421-0.821-3.421h-9.575C187.492,67.857,186.261,70.729,184.757,73.875z"/>
	<path fill="#FFFFFF" d="M137.843,18.755c2.461-0.274,8.206-0.274,10.942-0.274c2.735,0,0.821,2.189,0.821,2.189s-10.394,0-12.857,0
		s-2.736,0.821-5.471,2.189c0,0,11.215,1.368,18.054,1.094c0,0-1.914,5.197-3.829,7.111c-1.914,1.915-5.744,2.189-7.386,5.471
		c5.471,4.65,13.131,7.933,21.61,7.933c8.481,0,12.585-2.19,22.43-8.754c-10.668-10.394-5.469-15.867-4.924-22.43
		c0.546-6.564-5.471-11.489-15.319-12.857c-9.847-1.368-14.771,0.821-17.233,2.735c-17.78,0.274-17.233,13.676-15.044,19.422
		C132.372,20.396,135.381,19.028,137.843,18.755z M156.171,6.719c3.129-1.01,4.787-1.232,4.787-1.232
		c-1.504,3.557-2.736,5.335-4.24,6.018c-1.051,0.478-3.833,1.021-4.963-1.605c-0.561-1.312-2.176-2.601-3.516-4.003
		C150.289,7.129,151.931,8.086,156.171,6.719z"/>
	<path fill="#FFFFFF" d="M160.821,49.939c-0.138,2.051,0.547,2.872,0.547,2.872s1.915,2.053,5.335,6.567s8.343,11.489,9.711,13.129
		s5.335,1.368,6.156,0.411c7.249-14.499,4.271-25.32,0.138-33.921c-7.522,5.335-12.994,6.701-20.243,7.796
		C160,46.793,160.958,47.887,160.821,49.939z"/>
	<path fill="#FFFFFF" d="M179.833,75.243c-0.958,0.274-3.694-0.547-4.515-1.504s-4.207-5.497-7.796-10.258
		c-3.745-4.967-5.881-7.797-7.522-9.437c-1.642,1.64-3.777,4.47-7.522,9.437c-3.589,4.761-6.976,9.301-7.797,10.258
		c-0.819,0.958-3.556,1.779-4.514,1.504c-1.883-0.537-3.146-1.093-4.924,0.549c-7.112,7.658-12.447,13.814-14.087,16.96
		c4.514-0.274,11.489-1.642,18.601-2.6c7.111-0.957,10.804-0.819,11.215-1.368c0.41-0.547-0.274-2.324-1.094-4.103
		c-0.821-1.779-2.735-6.565-3.965-7.112c3.144,0.821,5.06,5.608,6.156,8.481c1.093,2.872,0,4.103,1.914,5.607
		c1.914,1.504,6.018,3.146,6.018,3.146s4.103-1.642,6.018-3.146c1.914-1.504,0.821-2.735,1.914-5.607
		c1.094-2.872,3.01-7.66,6.156-8.481c-1.231,0.549-3.146,5.335-3.967,7.112c-0.819,1.779-1.504,3.556-1.093,4.103
		c0.41,0.549,4.103,0.411,11.215,1.368c7.111,0.958,14.087,2.325,18.601,2.6c-1.642-3.146-6.976-9.301-14.087-16.96
		C182.978,74.148,181.716,74.705,179.833,75.243z"/>
	<path fill="#FFFFFF" d="M196.655,101.64c0.138-4.65-2.317-5.471-3.419-5.471c-1.369,0-3.283,1.642-3.557,4.925
		c-0.205,2.468-0.272,6.156-0.272,9.437c0,2.478,1.914,7.522,3.556,7.522s2.189-2.461,3.146-6.839
		C197.065,106.837,196.567,104.651,196.655,101.64z"/>
	<path fill="#FFFFFF" d="M172.583,91.519c-1.778-0.138-3.01,0.957,0.683,1.778c1.779,0.411,3.967,1.779,4.376,2.053
		c0.411,0.272,1.642-1.504,4.787-1.094s5.471,1.642,5.881,2.325c0.958-0.547,1.915-1.504,2.6-2.189
		C185.714,92.612,177.097,91.108,172.583,91.519z"/>
	<path fill="#FFFFFF" d="M216.761,69.361h-15.867c-1.504,3.557-5.881,7.66-10.394,9.849c0.821,0.683,2.736,2.462,3.829,3.967
		c1.094,1.504,1.915,2.189,4.925,1.504s9.437-1.504,17.369-11.626C217.857,70.729,218.678,69.361,216.761,69.361z"/>
	<path fill="#FFFFFF" d="M265.044,49.255h-48.691c-2.325,4.65-8.89,11.489-19.149,14.499c0.034,0,0.352,0,2.6,0
		c2.872,0,2.872,0.683,2.189,3.01c0,0,27.628,0,36.382,0s19.833-2.189,28.176-13.54C268.462,50.623,270.104,49.255,265.044,49.255z"
		/>
	<path fill="#FFFFFF" d="M317.291,7.265c-1.914,0-32.826,0-32.826,0s-3.967,3.419-6.156,5.471s-4.239,2.325-6.565,2.325
		s-16.412,1.231-23.936,1.504c-7.522,0.272-19.422,4.786-25.44,7.111c0,0,4.786,0,7.111,0s2.463,1.504,1.915,2.6
		c0,0,53.068,0,60.316,0c7.25,0,18.737-2.189,27.493-15.046C321.12,8.224,319.206,7.265,317.291,7.265z"/>
	<path fill="#FFFFFF" d="M291.168,28.739h-60.865c-2.325,4.65-8.89,11.489-19.147,14.499c0,0,0.957,0,3.829,0
		s3.829,1.504,3.144,3.829c0,0,37.887,0,46.64,0s19.558-3.01,27.903-14.361C294.586,30.108,296.227,28.739,291.168,28.739z"/>
	<path fill="#FFFFFF" d="M186.808,101.093c0.138-2.735-0.41-4.111-3.419-5.06c-2.234-0.704-3.556,0.547-3.829,3.01
		c-0.274,2.461,0,8.207,0,11.489c0,2.478,1.914,7.522,3.556,7.522s2.189-2.461,3.146-6.839
		C187.219,106.837,186.657,104.102,186.808,101.093z"/>
	<path fill="#FFFFFF" d="M136.611,96.033c-3.011,0.95-3.556,2.325-3.419,5.06c0.149,3.01-0.411,5.744,0.547,10.121
		c0.958,4.378,1.504,6.839,3.146,6.839c1.64,0,3.556-5.046,3.556-7.522c0-3.282,0.274-9.028,0-11.489
		C140.168,96.58,138.844,95.329,136.611,96.033z"/>
	<path fill="#FFFFFF" d="M147.418,91.519c-4.514-0.411-13.131,1.093-18.329,2.872c0.683,0.683,1.642,1.642,2.6,2.189
		c0.41-0.683,2.735-1.915,5.881-2.325s4.376,1.368,4.786,1.094c0.411-0.274,2.6-1.642,4.378-2.053
		C150.426,92.476,149.194,91.382,147.418,91.519z"/>
	<path fill="#FFFFFF" d="M126.764,96.169c-1.103,0-3.556,0.821-3.419,5.471c0.088,3.011-0.411,5.197,0.547,9.574
		c0.958,4.378,1.504,6.839,3.146,6.839s3.556-5.046,3.556-7.522c0-3.282-0.067-6.969-0.274-9.437
		C130.047,97.809,128.131,96.169,126.764,96.169z"/>
	<path fill="#FFFFFF" d="M173.542,94.529c-2.234-0.704-3.693,1.64-3.967,4.103c-0.272,2.462,0,7.933,0,11.215
		c0,2.478,1.779,8.754,3.419,8.754c1.642,0,2.462-2.325,3.421-6.703c0.958-4.376,0.671-8.617,0.821-11.625
		C177.371,97.537,176.55,95.477,173.542,94.529z"/>
	<path fill="#FFFFFF" d="M125.67,83.176c1.093-1.504,3.01-3.283,3.829-3.967c-4.512-2.189-8.89-6.29-10.394-9.849H103.24
		c-1.915,0-1.094,1.368,0.136,3.693c7.933,10.122,14.361,10.943,17.371,11.626S124.575,84.68,125.67,83.176z"/>
	<path fill="#FFFFFF" d="M146.46,94.529c-3.011,0.95-3.829,3.01-3.693,5.744c0.15,3.01-0.138,7.249,0.821,11.625
		c0.957,4.378,1.779,6.703,3.419,6.703c1.642,0,3.421-6.278,3.421-8.754c0-3.282,0.272-8.753,0-11.215
		C150.153,96.169,148.693,93.824,146.46,94.529z"/>
</g>
</svg>
