<?xml version="1.0" encoding="utf-8"?>
<!-- Generator: Adobe Illustrator 16.0.0, SVG Export Plug-In . SVG Version: 6.00 Build 0)  -->
<!DOCTYPE svg PUBLIC "-//W3C//DTD SVG 1.1//EN" "http://www.w3.org/Graphics/SVG/1.1/DTD/svg11.dtd">
<svg version="1.1" id="Layer_1" xmlns="http://www.w3.org/2000/svg" xmlns:xlink="http://www.w3.org/1999/xlink" x="0px" y="0px"
	 width="100.189px" height="185.789px" viewBox="0 0 100.189 185.789" enable-background="new 0 0 100.189 185.789"
	 xml:space="preserve">
<path fill="#FFFFFF" d="M97.121,13.143c-5.801,5.22-8.12,2.32-14.5,27.26S58.262,140.742,44.922,158.722
	c-5.22,12.76-2.9,24.939-5.8,24.939c-2.9,0-6.67,4.784-11.891,0c-5.22-4.785-2.899-5.654-2.899-5.654
	c4.64-2.756,6.524-7.541,5.364-13.631c3.336-4.494,13.775-32.625,18.851-46.254c5.075-13.631,15.08-56.984,16.675-67.424
	c3.045-7.25,8.845-22.91,9.715-25.084c0.87-2.175,3.335-5.945,5.365-8.41c2.029-2.465,3.625-6.96,2.899-12.18
	c0,0,8.119,0.58,12.18,0C99.441,4.443,102.92,7.923,97.121,13.143z M75.081,20.683c-2.899,3.48-3.479,9.86-13.339,27.84
	c-9.86,17.98-34.221,90.479-34.221,103.238c0,12.761,1.74,20.301-1.739,22.621c-3.48,2.318-6.961,4.64-9.28,4.64
	c-2.32,0-6.38,11.021-10.44,4.64c-4.06-6.379-9.279-11.02-3.479-19.72c5.8-8.698,19.14-40.601,23.778-52.778
	c4.641-12.181,30.74-83.52,32.48-89.32c1.74-5.8,0.58-16.24,0.58-16.24s-4.062-4.06,1.16-5.22c5.22-1.16,8.698,0.58,12.76,1.74
	c4.06,1.16,6.38-3.48,6.96,3.48C80.881,12.563,77.981,17.203,75.081,20.683z"/>
</svg>
