<?xml version="1.0" encoding="utf-8"?>
<!-- Generator: Adobe Illustrator 16.0.0, SVG Export Plug-In . SVG Version: 6.00 Build 0)  -->
<!DOCTYPE svg PUBLIC "-//W3C//DTD SVG 1.1//EN" "http://www.w3.org/Graphics/SVG/1.1/DTD/svg11.dtd">
<svg version="1.1" id="Layer_1" xmlns="http://www.w3.org/2000/svg" xmlns:xlink="http://www.w3.org/1999/xlink" x="0px" y="0px"
	 width="147px" height="198.089px" viewBox="0 0 147 198.089" enable-background="new 0 0 147 198.089" xml:space="preserve">
<path fill="#FFFFFF" d="M73.5,198.089c-48.329,0-73.5-11.075-73.5-11.075C0.941,149.363,12.447,95.88,39.444,80.847
	C48.441,89.019,60.389,94,73.5,94c13.111,0,25.061-4.98,34.057-13.152C134.555,95.88,146.059,149.363,147,187.014
	C147,187.014,121.83,198.089,73.5,198.089z M73.5,86.667c-23.932,0-43.333-19.401-43.333-43.333C30.167,19.401,49.568,0,73.5,0
	c23.934,0,43.333,19.401,43.333,43.333C116.833,67.266,97.434,86.667,73.5,86.667z"/>
</svg>
