<?xml version="1.0" encoding="utf-8"?>
<!-- Generator: Adobe Illustrator 16.0.0, SVG Export Plug-In . SVG Version: 6.00 Build 0)  -->
<!DOCTYPE svg PUBLIC "-//W3C//DTD SVG 1.1//EN" "http://www.w3.org/Graphics/SVG/1.1/DTD/svg11.dtd">
<svg version="1.1" id="Layer_1" xmlns="http://www.w3.org/2000/svg" xmlns:xlink="http://www.w3.org/1999/xlink" x="0px" y="0px"
	 width="131.977px" height="252.996px" viewBox="0 0 131.977 252.996" enable-background="new 0 0 131.977 252.996"
	 xml:space="preserve">
<path fill="#FFFFFF" d="M83.909,164.684c0-16.027,5.654-29.229,18.222-44.941c15.079-18.857,29.846-37.085,29.846-62.228
	C131.976,30.485,110.613,0,68.829,0C26.543,0,0,20.664,0,68.451c12.75,0,26.734-0.412,38.668-0.412
	c0-34.035,17.167-32.386,28.589-33.468C87.275,32.674,94.59,45.885,94.59,62.856c0,15.4-8.481,28.6-22.619,46.514
	c-14.452,18.542-20.735,36.771-20.735,54.371c0,2.515,0.628,11.942,0.941,15.086h32.359L83.909,164.684z M67.572,252.996
	c14.138,0,23.248-10.371,23.248-24.199c0-14.457-9.425-24.828-23.248-24.828c-13.509,0-23.248,10.371-23.248,24.828
	C44.324,241.996,52.807,252.996,67.572,252.996z"/>
</svg>
