<?xml version="1.0" encoding="utf-8"?>
<!-- Generator: Adobe Illustrator 16.0.0, SVG Export Plug-In . SVG Version: 6.00 Build 0)  -->
<!DOCTYPE svg PUBLIC "-//W3C//DTD SVG 1.1//EN" "http://www.w3.org/Graphics/SVG/1.1/DTD/svg11.dtd">
<svg version="1.1" id="Layer_1" xmlns="http://www.w3.org/2000/svg" xmlns:xlink="http://www.w3.org/1999/xlink" x="0px" y="0px"
	 width="320.016px" height="212.964px" viewBox="0 0 320.016 212.964" enable-background="new 0 0 320.016 212.964"
	 xml:space="preserve">
<path fill="#FFFFFF" d="M83.32,71.102c20.065-23.474,30.267-34.7,41.83-34.7c13.263,0,22.785,13.608,48.292,45.247
	c20.404,26.194,75.158,89.813,120.389,131.315l26.188-30.276C270.704,137.1,214.59,74.844,190.105,44.906
	C163.239,12.247,148.275,0,125.83,0c-17.685,0-31.627,7.144-55.093,31.979C53.733,50.35,17.344,88.792,0,105.122l28.567,34.36
	c2.721-2.382,4.421-5.443,4.421-10.887L83.32,71.102z"/>
</svg>
