<?xml version="1.0" encoding="utf-8"?>
<!-- Generator: Adobe Illustrator 16.0.3, SVG Export Plug-In . SVG Version: 6.00 Build 0)  -->
<!DOCTYPE svg PUBLIC "-//W3C//DTD SVG 1.1//EN" "http://www.w3.org/Graphics/SVG/1.1/DTD/svg11.dtd">
<svg version="1.1" id="Layer_1" xmlns="http://www.w3.org/2000/svg" xmlns:xlink="http://www.w3.org/1999/xlink" x="0px" y="0px"
	 width="229.443px" height="265.245px" viewBox="0 0 229.443 265.245" enable-background="new 0 0 229.443 265.245"
	 xml:space="preserve">
<path d="M37.375,78.368c0,12.057,2.411,24.113,7.234,36.17H1.206v18.085h51.843c8.835,16.083,16.879,31.649,24.113,46.719
	c-9.646-7.018-20.496-10.55-32.553-10.55c-15.278,0-26.939,5.04-34.964,15.071C3.202,191.916,0,201.948,0,214.005
	c0,13.068,3.617,24.112,10.851,33.155c9.646,12.057,24.905,18.085,45.815,18.085c16.879,0,30.537-6.523,40.992-19.592
	c4.013-5.016,7.234-10.032,9.645-15.071c23.303,22.111,44.195,33.155,62.695,33.155c22.492,0,38.581-6.027,48.226-18.084
	c8.836-11.044,12.452-27.622,10.852-49.733l-3.617-33.156l-29.848-0.028l3.323,30.17c0.791,13.069-1.206,22.606-6.028,28.635
	c-4.823,6.028-12.867,9.042-24.113,9.042c-9.646,0-18.085-2.496-25.318-7.535c-15.278-9.042-25.733-17.566-31.348-25.62
	c-1.62-9.043-4.427-18.579-8.439-28.635c-4.031-10.031-9.646-22.088-16.879-36.169h67.517v-18.085H77.162
	c-6.443-9.042-9.646-20.086-9.646-33.156c0-14.058,4.013-26.114,12.057-36.169c7.234-9.042,20.892-16.064,40.992-16.064
	c16.88,0,30.142,8.528,39.787,20.585c7.233,9.042,12.057,20.11,14.468,33.156h33.759c-4.823-23.101-12.867-41.68-24.113-55.762
	C169.998,9.042,147.882,0,118.154,0C89.219,0,68.308,8.054,55.46,24.113C43.404,39.184,37.375,57.269,37.375,78.368L37.375,78.368z
	 M68.722,203.455c4.823,3.014,8.835,6.028,12.057,9.042c-1.62,5.04-3.221,8.548-4.823,10.55
	c-6.442,8.054-14.468,12.057-24.113,12.057c-9.646,0-16.088-2.002-19.291-6.028c-3.222-4.003-4.823-7.535-4.823-10.55
	c0-4.003,1.206-7.535,3.617-10.549c4.822-6.028,10.437-9.043,16.879-9.043C57.062,198.934,63.9,200.44,68.722,203.455
	L68.722,203.455z" fill="#FFFFFF"/>
</svg>
