<?xml version="1.0" encoding="utf-8"?>
<!-- Generator: Adobe Illustrator 16.0.0, SVG Export Plug-In . SVG Version: 6.00 Build 0)  -->
<!DOCTYPE svg PUBLIC "-//W3C//DTD SVG 1.1//EN" "http://www.w3.org/Graphics/SVG/1.1/DTD/svg11.dtd">
<svg version="1.1" id="Layer_1" xmlns="http://www.w3.org/2000/svg" xmlns:xlink="http://www.w3.org/1999/xlink" x="0px" y="0px"
	 width="321px" height="311.996px" viewBox="0 0 321 311.996" enable-background="new 0 0 321 311.996" xml:space="preserve">
<path fill="#FFFFFF" d="M321,202.897h-55.256l-22.682,109.099h-40.041l-19.912-109.099h-48.6l-21.83,109.099H72.307L51.594,202.897
	H0v-36.706h44.625l-8.13-42.824H0V86.662h29.525L13.072,0h40.704l14.682,86.662h57.768L143.125,0h38.387l15.454,86.662h55.937
	L268.875,0h39.049l-18.016,86.662H321v36.706h-38.723l-8.902,42.824H321V202.897z M223.87,256.938h0.991
	c2.138-18.231,4.685-36.063,7.517-54.04h-15.474C219.641,220.979,222.046,238.958,223.87,256.938z M95.141,257.345h0.662
	c2.053-17.29,4.999-35.471,8.364-54.447H87.433C90.297,222.123,92.901,240.572,95.141,257.345z M74.676,123.368l4.25,25.085
	c0.971,5.923,1.92,11.837,2.858,17.739h29.11c1.14-6.121,2.288-12.289,3.441-18.555l4.732-24.269H74.676z M160.995,60.36h-0.993
	c-1.058,8.911-2.237,17.619-3.537,26.302h7.321C162.723,77.952,161.784,69.228,160.995,60.36z M168.988,123.368h-18.705
	c-2.249,12.157-4.737,24.716-7.489,38.135l-0.938,4.688h34.556l-0.855-4.688C173.139,148.249,170.948,135.655,168.988,123.368z
	 M241.738,147.229l4.398-23.861h-42.626l4.474,25.085c1.018,5.935,2.02,11.841,3.01,17.739h27.465
	C239.533,159.931,240.622,153.631,241.738,147.229z"/>
</svg>
