<?xml version="1.0" encoding="utf-8"?>
<!-- Generator: Adobe Illustrator 16.0.0, SVG Export Plug-In . SVG Version: 6.00 Build 0)  -->
<!DOCTYPE svg PUBLIC "-//W3C//DTD SVG 1.1//EN" "http://www.w3.org/Graphics/SVG/1.1/DTD/svg11.dtd">
<svg version="1.1" id="Layer_1" xmlns="http://www.w3.org/2000/svg" xmlns:xlink="http://www.w3.org/1999/xlink" x="0px" y="0px"
	 width="209.041px" height="316.828px" viewBox="0 0 209.041 316.828" enable-background="new 0 0 209.041 316.828"
	 xml:space="preserve">
<path fill="#FFFFFF" d="M27.437,316.828c44.421-33.734,82.739-77.83,114.972-132.285c15.678,13.065,32.214,28.86,49.646,47.361
	l16.984-37.563c-13.064-13.064-30.05-28.299-50.954-45.729c12.188-29.396,23.946-71.296,35.276-125.75
	c6.961-4.338,7.39-7.604,1.306-9.799L163.313,0c-8.717,53.357-19.17,95.818-31.356,127.384
	c-24.396-17.403-46.176-31.565-65.325-42.461l-15.678,35.929c18.291,9.799,39.624,23.961,64.02,42.461
	C91.455,209.041,53.118,249.869,0,285.796L27.437,316.828z"/>
</svg>
