<?xml version="1.0" encoding="utf-8"?>
<!-- Generator: Adobe Illustrator 16.0.3, SVG Export Plug-In . SVG Version: 6.00 Build 0)  -->
<!DOCTYPE svg PUBLIC "-//W3C//DTD SVG 1.1//EN" "http://www.w3.org/Graphics/SVG/1.1/DTD/svg11.dtd">
<svg version="1.1" id="Layer_1" xmlns="http://www.w3.org/2000/svg" xmlns:xlink="http://www.w3.org/1999/xlink" x="0px" y="0px"
	 width="168.48px" height="217.816px" viewBox="0 0 168.48 217.816" enable-background="new 0 0 168.48 217.816"
	 xml:space="preserve">
<path fill-rule="evenodd" clip-rule="evenodd" d="M84.24,217.816c-46.651,0-74.507-6.041-84.24-11.746c0-5.024,0-43.118,0-43.28
	c6.938,0.158,36.272,5.69,84.24,5.69c47.969,0,77.303-5.532,84.24-5.69c0,0.162,0,38.256,0,43.28
	C158.747,211.775,130.891,217.816,84.24,217.816z M11.281,153.88l23.623-18.626V74.091c8.729-2.699,20.44-4.953,49.336-4.953
	s40.606,2.254,49.336,4.953v61.163l23.623,18.626c-10.467,2.089-32.761,5.203-72.959,5.203
	C44.042,159.083,21.748,155.969,11.281,153.88z M133.809,63.73c-11.056-3.516-24.983-4.997-49.568-4.997
	c-24.584,0-38.513,1.48-49.568,4.997c-1.126-1.789-7.721-11.374-19.905-11.374c0-8.055,0-39.938,0-39.938S21.969,8.361,39.8,5.313
	c0.198,8.372,0.475,21.086,0.475,26.906c6.041-1.007,11.411-3.021,24.5-2.35V2.583C70.673,2.233,77.106,0,84.24,0
	s13.566,2.233,19.466,2.583V29.87c13.089-0.671,18.459,1.343,24.5,2.35c0-5.82,0.276-18.535,0.475-26.906
	c17.831,3.047,25.032,7.104,25.032,7.104s0,31.884,0,39.938C141.529,52.356,134.935,61.941,133.809,63.73z" fill="#FFFFFF"/>
</svg>
