<?xml version="1.0" encoding="utf-8"?>
<!-- Generator: Adobe Illustrator 16.0.0, SVG Export Plug-In . SVG Version: 6.00 Build 0)  -->
<!DOCTYPE svg PUBLIC "-//W3C//DTD SVG 1.1//EN" "http://www.w3.org/Graphics/SVG/1.1/DTD/svg11.dtd">
<svg version="1.1" id="Layer_1" xmlns="http://www.w3.org/2000/svg" xmlns:xlink="http://www.w3.org/1999/xlink" x="0px" y="0px"
	 width="110.498px" height="135.305px" viewBox="0 0 110.498 135.305" enable-background="new 0 0 110.498 135.305"
	 xml:space="preserve">
<path fill="#FFFFFF" d="M109.511,12.369c-1.74,4.872-1.392,10.44-3.479,11.136c-2.088,0.696-4.872-2.088-4.872-2.088
	s1.392-2.088,1.739-6.264c0.349-4.176-1.045-9.048-1.045-9.048s4.524-5.221,6.612-2.088C110.556,7.149,111.251,7.497,109.511,12.369
	z M95.244,20.719c-2.088-0.348-0.696-2.436-0.349-5.915c0.349-3.48-2.783-11.832-0.695-11.832s4.523-0.349,5.22,3.479
	c0.697,3.828,2.088,9.396,0.349,11.832C98.028,20.719,97.332,21.068,95.244,20.719z M96.288,53.432
	c0.695-2.784-0.348-13.572-1.044-16.356S94.2,29.072,94.2,27.332s6.264-1.392,7.654-0.696c1.394,0.696,0,3.133-0.694,5.221
	c-0.696,2.088,1.044,9.396,2.088,14.616c1.044,5.22,1.392,6.611,3.132,9.396s-0.348,4.872-2.436,7.656
	c-2.09,2.784-6.266,1.044-9.744-2.088C90.72,58.304,95.591,56.216,96.288,53.432z M95.94,83.708c1.043-3.479,0.348-5.22,0-8.353
	c-0.35-3.132-0.696-4.523,1.043-6.265c1.74-1.739,1.045-1.392,3.133-1.739c2.088-0.349,3.479,0,4.523,1.739
	c1.043,1.74-0.695,4.872-0.695,8.004c0,3.133,0,4.524,0,8.7c0,4.177,0,2.088-2.784,6.265c-2.784,4.176-1.394,0-6.96-1.393
	C88.631,89.275,94.896,87.188,95.94,83.708z M89.328,17.937c-3.828,0-6.265,0.695-7.308-1.393c-1.045-2.088-2.09-4.872-1.045-6.96
	s6.961-8.352,8.699-6.611c1.74,1.739,2.088,1.739,1.74,5.567S93.155,17.937,89.328,17.937z M83.063,26.984
	c0,3.828-2.088,4.176-3.133,8.004c-1.043,3.828-1.392,8.352-3.479,15.66c-2.088,7.308,0,3.132-0.348,8.352
	c-0.35,5.22-1.045,4.524-3.828,6.265c-2.784,1.739-2.088-0.349-7.309-3.48S65.315,59,67.056,55.52
	c1.739-3.48,4.523-14.269,5.221-19.836c0.697-5.568,2.783-9.049,4.176-13.572c1.393-4.524,2.783-1.393,4.872-1.393
	C83.412,20.719,83.063,23.156,83.063,26.984z M77.147,15.152c0,0-1.393-1.044-3.479-3.828c-2.088-2.784-0.515-4.022,1.044-4.872
	c3.828-2.088,3.132,2.088,3.132,2.088L77.147,15.152z M68.795,10.628c0,0-5.817-7.325-1.392-10.092
	c2.783-1.74,4.871,1.044,5.568,4.176C70.536,5.061,68.795,10.628,68.795,10.628z M71.58,24.548
	c-2.784,4.524-2.784,6.96-6.265,13.572c-3.479,6.612-6.611,10.092-6.611,14.616c0,4.523-0.695,4.872-4.176,8.7
	c-3.48,3.828-2.784-3.132-6.612-6.96s-1.74-2.784-0.348-5.916c1.392-3.133,4.524-5.221,6.96-9.396
	c2.437-4.176,6.959-14.964,7.657-19.487c0.694-4.523,3.479-4.871,3.479-4.871s6.264,1.044,8.354,2.436
	C76.104,18.632,74.364,20.024,71.58,24.548z M53.832,16.544c-5.22-0.348-2.436,0.696-7.308,4.176
	c-4.872,3.48-3.132,3.133-4.524,7.309s-4.176,3.479-8.004,2.088S29.82,21.764,29.82,18.98s2.436-2.437,6.612-3.828
	c4.176-1.393,8.004-5.916,15.312-10.092c7.31-4.177,3.828-2.437,6.96-3.48c3.132-1.044,3.132,4.524,4.523,6.96
	c1.393,2.437,0,3.48-2.088,6.265C59.052,17.588,59.052,16.893,53.832,16.544z M32.256,33.249c3.48,2.088,1.392,0.696,2.436,3.132
	c1.044,2.437-3.48,0.696-8.004,2.088c-4.524,1.393-2.088,4.177-5.568,5.916c-3.48,1.74-3.828-5.567-5.568-9.396
	c-1.74-3.828,0.696-1.044,2.436-1.74c1.74-0.696,3.828-2.436,8.352-5.916C30.864,23.853,28.776,31.16,32.256,33.249z M17.292,45.427
	c1.392,1.393,0.696,3.133-1.74,4.872c-2.436,1.74-4.524,3.133-8.352,5.568c-3.828,2.437-3.48,1.044-6.264-1.392
	c-2.784-2.437,1.392-2.088,2.784-3.48c1.392-1.392,1.392-2.436,2.436-5.568C7.2,42.296,7.548,41.6,9.288,39.86
	c1.74-1.74,4.524,0,4.872,1.74C14.508,43.34,15.9,44.036,17.292,45.427z M25.296,110.504c0.696-2.088,1.044-2.784,3.132-7.655
	c2.088-4.872,1.044-4.524,2.784-8.353c1.74-3.828,4.524,2.437,5.916,2.437s3.828,0.348,3.828,0.348s0,2.089-2.436,5.916
	c-2.436,3.828-2.088,6.96-4.872,12.528c-2.784,5.566-2.436,4.522-8.004,8.004c-5.568,3.479-1.74-2.438-1.74-6.265
	C23.904,113.635,24.6,112.592,25.296,110.504z M34.344,87.188c1.392-1.393,3.828-8.353,6.264-13.92s3.132-11.137,4.524-13.225
	c1.392-2.088,2.784,1.74,4.524,2.784c1.74,1.044,2.436,5.568,0.696,8.7c-1.74,3.132-2.088,5.567-4.524,10.092
	c-2.436,4.523,0,3.479-0.696,8.004c-0.696,4.523-4.524,3.479-8.352,1.739C32.952,89.624,32.952,88.58,34.344,87.188z
	 M44.088,125.468c-0.696-4.177,1.044-5.221,2.784-9.396c1.74-4.176,2.436-12.18,2.784-14.268c0.348-2.089,4.872,1.739,6.264,2.783
	c1.394,1.044,4.524,0.349,4.524,0.349s-2.088,8.352-3.828,11.832c-1.74,3.479-2.088,7.308-5.568,12.527
	c-3.48,5.221-2.436,4.523-5.916,4.177C41.652,133.123,44.784,129.644,44.088,125.468z M54.528,94.147
	c-0.696-3.132,3.132-4.176,4.872-7.655c1.74-3.479,2.437-8.7,2.785-12.528c0.348-3.828,1.738-6.611,1.738-6.611
	s7.309,3.479,8.354,4.872c1.043,1.393-1.74,4.176-3.828,6.96c-2.088,2.783-2.784,9.396-3.479,11.832
	c-0.696,2.437-1.393,5.916-5.221,7.655C55.919,100.411,55.224,97.279,54.528,94.147z M74.017,125.119
	c-0.35-3.132,0.348-5.22,0-9.743c-0.35-4.523,0-6.96,0.694-8.353c0.696-1.393,1.044,0.695,2.437,0.695s3.133-0.348,6.265-1.044
	c3.132-0.695,0.348,2.784,0,6.96c-0.349,4.177-0.696,9.396-2.088,14.615c-1.394,5.222-0.696,5.916-5.568,6.96
	S74.364,128.251,74.017,125.119z M79.931,101.456c-4.176,0.349-6.959-3.479-5.914-6.96c1.043-3.479,2.436-12.876,2.782-16.355
	c0.349-3.479,0.349-7.655,1.394-9.049c1.043-1.392,8.004,1.74,9.744,3.828c1.738,2.088-2.438,5.221-3.133,7.309
	s0,7.655,1.043,12.527C86.892,97.628,84.108,101.107,79.931,101.456z M79.931,64.568c-3.826-1.393,0-4.872,1.045-6.264
	c1.045-1.393,1.045-18.097,1.739-20.185c0.696-2.088,2.784-10.092,3.479-12.18s1.045-1.74,3.828-1.74s1.045,2.784,0.695,7.656
	c-0.348,4.872-2.088,8.7-2.436,13.224c-0.348,4.524,0,7.309,1.392,11.136c1.394,3.828,1.394,4.177,0,9.049
	C88.284,70.135,83.759,65.96,79.931,64.568z M99.767,97.976c2.438-0.696,3.133,0.695,3.133,0.695s0,3.828-0.349,8.004
	c-0.348,4.177-0.696,5.567-1.044,12.527s-1.044,1.74-3.132,2.784s-1.392-6.264-2.437-10.788c-1.045-4.523-1.045-8.699-1.393-13.224
	C94.2,93.452,97.332,98.672,99.767,97.976z"/>
</svg>
