<?xml version="1.0" encoding="utf-8"?>
<!-- Generator: Adobe Illustrator 16.0.3, SVG Export Plug-In . SVG Version: 6.00 Build 0)  -->
<!DOCTYPE svg PUBLIC "-//W3C//DTD SVG 1.1//EN" "http://www.w3.org/Graphics/SVG/1.1/DTD/svg11.dtd">
<svg version="1.1" id="Layer_1" xmlns="http://www.w3.org/2000/svg" xmlns:xlink="http://www.w3.org/1999/xlink" x="0px" y="0px"
	 width="247.398px" height="227.19px" viewBox="0 0 247.398 227.19" enable-background="new 0 0 247.398 227.19"
	 xml:space="preserve">
<path fill-rule="evenodd" clip-rule="evenodd" d="M227.262,77.024c-1.006,0-1.97-0.154-2.937-0.296
	c-1.336,23.546-10.927,56.727-15.475,60.707c-4.603,4.027-12.658,16.686-11.507,21.288c-2.302,4.027-31.645,8.055-73.645,8.055
	c-42,0-71.343-4.027-73.645-8.055c1.151-4.603-6.904-17.261-11.507-21.288c-4.548-3.979-14.139-37.16-15.475-60.707
	c-0.966,0.142-1.93,0.296-2.936,0.296C9.016,77.024,0,68.008,0,56.887C0,45.766,9.016,36.75,20.137,36.75
	c11.122,0,20.137,9.016,20.137,20.137c0,4.533-1.552,8.67-4.08,12.035c6.818,14.642,15.292,30.12,26.518,36.294
	c0.508-15.731,0.218-42.997,0.143-49.22C54.483,53.554,48.329,45.91,48.329,36.75c0-11.122,9.016-20.137,20.137-20.137
	c11.122,0,20.137,9.016,20.137,20.137c0,5.695-2.385,10.813-6.186,14.477c4.123,20.469,14.523,39.962,18.508,46.223
	c2.267-14.739,9.872-45.922,10.096-61.697c-4.579-3.691-7.567-9.276-7.567-15.616C103.454,9.016,112.47,0,123.591,0
	c0.037,0,0.071,0.01,0.108,0.011c0.037,0,0.071-0.011,0.108-0.011c11.122,0,20.137,9.016,20.137,20.137
	c0,6.339-2.988,11.925-7.566,15.616c0.224,15.774,7.828,46.958,10.096,61.697c3.983-6.261,14.385-25.754,18.508-46.223
	c-3.801-3.663-6.187-8.782-6.187-14.477c0-11.122,9.016-20.137,20.138-20.137c11.121,0,20.137,9.016,20.137,20.137
	c0,9.16-6.154,16.804-14.526,19.246c-0.075,6.223-0.364,33.489,0.143,49.22c11.226-6.174,19.7-21.652,26.519-36.294
	c-2.527-3.365-4.08-7.502-4.08-12.035c0-11.122,9.016-20.137,20.138-20.137c11.121,0,20.137,9.016,20.137,20.137
	C247.398,68.008,238.383,77.024,227.262,77.024z M20.128,46.891c-5.526,0-10.006,4.479-10.006,10.005s4.48,10.006,10.006,10.006
	s10.005-4.48,10.005-10.006S25.654,46.891,20.128,46.891z M52.716,138.837c3.524,3.021,4.279,8.182,5.286,14.726
	c1.471,0.669,5.01,1.269,10.684,1.771c-0.332-4.561-1.018-11.611-2.278-16.004C62.036,139.494,57.575,139.408,52.716,138.837z
	 M68.457,26.753c-5.526,0-10.006,4.479-10.006,10.005c0,5.526,4.48,10.006,10.006,10.006s10.005-4.479,10.005-10.006
	C78.462,31.233,73.983,26.753,68.457,26.753z M96.417,136.009c-6.671,0.759-12.507,1.64-18.103,2.322
	c0.322,0.001,0.67,0.003,0.958,0.003c2.541,4.149,2.743,12.672,2.605,17.813c4.832,0.203,10.402,0.367,16.825,0.482
	C98.417,152.661,97.627,142.75,96.417,136.009z M123.816,9.951c-0.04,0-0.077,0.012-0.117,0.012s-0.077-0.012-0.117-0.012
	c-5.63,0-10.194,4.564-10.194,10.194c0,5.63,4.564,10.195,10.194,10.195c0.04,0,0.077-0.012,0.117-0.012s0.077,0.012,0.117,0.012
	c5.63,0,10.195-4.564,10.195-10.195C134.011,14.516,129.446,9.951,123.816,9.951z M123.699,134.433
	c-4.523,0-8.678,0.128-12.567,0.336c1.645,6.497,2.343,16.681,2.606,22.034c3.188,0.02,6.469,0.032,9.961,0.032
	c3.492,0,6.774-0.013,9.961-0.032c0.264-5.354,0.962-15.537,2.606-22.034C132.377,134.561,128.222,134.433,123.699,134.433z
	 M150.981,136.009c-1.21,6.74-1.999,16.651-2.284,20.621c6.423-0.115,11.993-0.279,16.824-0.482
	c-0.138-5.142,0.064-13.664,2.605-17.813c0.288,0,0.636-0.002,0.958-0.003C163.489,137.649,157.653,136.768,150.981,136.009z
	 M188.947,36.759c0-5.526-4.479-10.005-10.006-10.005s-10.006,4.479-10.006,10.005c0,5.526,4.479,10.006,10.006,10.006
	S188.947,42.285,188.947,36.759z M180.991,139.331c-1.261,4.393-1.946,11.443-2.278,16.004c5.673-0.503,9.212-1.103,10.684-1.771
	c1.007-6.544,1.762-11.704,5.286-14.726C189.823,139.408,185.362,139.494,180.991,139.331z M227.271,46.891
	c-5.526,0-10.006,4.479-10.006,10.005s4.479,10.006,10.006,10.006s10.006-4.48,10.006-10.006S232.797,46.891,227.271,46.891z
	 M123.699,174.833c70.192,0,73.645-6.903,73.645-6.903s-2.302,29.918-1.727,40.85c0,0-36.246,18.411-71.918,18.411
	c-35.671,0-71.918-18.411-71.918-18.411c0.575-10.932-1.727-40.85-1.727-40.85S53.507,174.833,123.699,174.833z M165.124,209.354
	c6.673,0,12.082-5.41,12.082-12.082c0-6.674-5.409-12.083-12.082-12.083s-12.082,5.409-12.082,12.083
	C153.042,203.944,158.451,209.354,165.124,209.354z M123.699,214.532c6.99,0,12.657-5.667,12.657-12.657
	c0-6.991-5.667-12.658-12.657-12.658c-6.991,0-12.658,5.667-12.658,12.658C111.042,208.865,116.708,214.532,123.699,214.532z
	 M82.274,209.354c6.673,0,12.082-5.41,12.082-12.082c0-6.674-5.409-12.083-12.082-12.083s-12.083,5.409-12.083,12.083
	C70.192,203.944,75.602,209.354,82.274,209.354z" fill="#FFFFFF"/>
</svg>
