<?xml version="1.0" encoding="utf-8"?>
<!-- Generator: Adobe Illustrator 16.0.0, SVG Export Plug-In . SVG Version: 6.00 Build 0)  -->
<!DOCTYPE svg PUBLIC "-//W3C//DTD SVG 1.1//EN" "http://www.w3.org/Graphics/SVG/1.1/DTD/svg11.dtd">
<svg version="1.1" id="Layer_1" xmlns="http://www.w3.org/2000/svg" xmlns:xlink="http://www.w3.org/1999/xlink" x="0px" y="0px"
	 width="318.965px" height="275.98px" viewBox="0 0 318.965 275.98" enable-background="new 0 0 318.965 275.98"
	 xml:space="preserve">
<path fill="#FFFFFF" d="M106.322,0C53.627,0,31.71,5.946,18.653,16.351l1.865,32.206c13.99-3.965,35.44-5.45,60.156-5.45
	C65.286,121.392,35.907,225.938,0,275.98h50.83c24.715-31.215,49.431-106.527,66.685-179.362
	c4.197-18.828,7.927-36.666,12.124-53.512h86.736l-26.58,154.093c-4.197,24.774-6.528,45.089-6.528,58.467
	c0,10.405,1.397,16.846,3.265,20.314h48.03c-1.397-4.459-1.865-9.414-1.865-16.848c0-14.863,1.865-35.179,6.995-63.421
	l26.581-152.605h42.901L318.965,0H106.322z"/>
</svg>
