<?xml version="1.0" encoding="utf-8"?>
<!-- Generator: Adobe Illustrator 16.0.0, SVG Export Plug-In . SVG Version: 6.00 Build 0)  -->
<!DOCTYPE svg PUBLIC "-//W3C//DTD SVG 1.1//EN" "http://www.w3.org/Graphics/SVG/1.1/DTD/svg11.dtd">
<svg version="1.1" id="Layer_1" xmlns="http://www.w3.org/2000/svg" xmlns:xlink="http://www.w3.org/1999/xlink" x="0px" y="0px"
	 width="214.029px" height="236.467px" viewBox="0 0 214.029 236.467" enable-background="new 0 0 214.029 236.467"
	 xml:space="preserve">
<path fill="#FFFFFF" d="M154.768,134.63l1.149,19.563c0,0,7.479,2.877,7.479,14.384c0,11.508-20.138,14.384-20.138,14.384
	s3.452,8.631,20.138,8.055c16.686-0.574,35.672,1.151,50.631,14.385c0,0-2.302,13.809-18.986,31.068
	c-2.877-7.479-41.426-11.507-88.027-11.507c-46.604,0-85.151,4.027-88.028,11.507C2.301,219.207,0,205.397,0,205.397
	c14.959-13.231,33.945-14.959,50.63-14.383c16.686,0.575,20.138-8.056,20.138-8.056s-20.138-2.876-20.138-14.384
	s7.479-14.383,7.479-14.383l1.149-19.563c-12.656-12.657-18.985-16.685-19.562-35.096C39.121,81.122,57.534,58.11,87.452,40.849
	c2.354-0.069,4.409-0.208,6.229-0.393c-5.516-4.088-9.106-10.625-9.106-18.018C84.576,10.046,94.622,0,107.014,0
	c12.392,0,22.438,10.046,22.438,22.438c0,7.392-3.591,13.93-9.104,18.018c1.819,0.186,3.876,0.324,6.229,0.393
	c29.918,17.261,48.329,40.274,47.754,58.686S167.425,121.974,154.768,134.63z M107.014,12.086c-5.716,0-10.349,4.633-10.349,10.348
	c0,5.714,4.633,10.347,10.349,10.347c5.715,0,10.348-4.633,10.348-10.347C117.362,16.719,112.729,12.086,107.014,12.086z
	 M127.151,81.699h-11.507V70.192h-8.63h-8.631v11.507H86.877V98.96h11.507v11.507h8.631h8.63V98.959h11.507V81.699z
	 M141.535,132.905c-14.959-4.604-23.589-3.452-34.521-3.452c-10.933,0-19.563-1.15-34.521,3.452l-1.726,12.082
	c0,0,18.985-2.303,36.247-2.303c17.261,0,36.247,2.303,36.247,2.303L141.535,132.905z M143.261,154.769
	c-14.96-1.728-25.315-1.151-36.247-1.151c-10.933,0-21.288-0.575-36.247,1.151v12.082c0,0,18.985,0,36.247,0
	c17.261,0,36.247,0,36.247,0V154.769z"/>
</svg>
