<?xml version="1.0" encoding="utf-8"?>
<!-- Generator: Adobe Illustrator 16.0.0, SVG Export Plug-In . SVG Version: 6.00 Build 0)  -->
<!DOCTYPE svg PUBLIC "-//W3C//DTD SVG 1.1//EN" "http://www.w3.org/Graphics/SVG/1.1/DTD/svg11.dtd">
<svg version="1.1" id="Layer_1" xmlns="http://www.w3.org/2000/svg" xmlns:xlink="http://www.w3.org/1999/xlink" x="0px" y="0px"
	 width="206.459px" height="350.41px" viewBox="0 0 206.459 350.41" enable-background="new 0 0 206.459 350.41"
	 xml:space="preserve">
<path fill="#FFFFFF" d="M202.271,86.861c-7.043,21.57-21.568,42.7-21.568,54.145c0,11.445,11.005,93.763,9.684,110.49
	c-1.32,16.729-27.732,71.313-32.574,76.596c-4.843,5.281-12.766-3.521-14.967-18.488s-9.685-90.682-21.57-104.768
	c-11.885-14.086-15.846-22.01-22.89,3.521c-7.043,25.532-15.407,52.824-11.885,81.878c3.521,29.053,10.125,55.023,1.761,59.867
	c-3.81,2.205-15.407-7.482-27.732-28.174c-12.326-20.688-33.456-75.715-34.336-87.159c-0.88-11.444,8.804-95.963,5.283-107.409
	C27.952,115.914,1.541,67.933,1.1,57.368C0.66,46.803-2.421,24.353,4.182,18.63c6.603-5.723,15.391-16.506,41.379-18.488
	c21.109-1.61,36.977,11.005,44.02,11.885c7.043,0.88,23.339-9.965,43.139-10.564c14.543-0.44,22.01,6.603,25.973,6.163
	c3.961-0.44,20.988-5.438,31.254,2.201C208.875,23.913,209.313,65.291,202.271,86.861z M156.931,24.353
	c-14.967,3.082-33.015,7.924-33.015,7.924c4.842-9.244,8.804-16.288,13.206-18.489s7.924-3.521,7.924-3.521
	s-12.768,2.201-17.168,7.924c-4.402,5.723-11.005,15.407-11.005,15.407s-9.244,2.641-14.087,3.522c-4.842,0.88-8.804,0-8.804,0
	s-1.761,0,6.603-7.924c8.364-7.924,12.326-17.168,12.326-17.168s-14.527,17.168-19.369,20.25c-4.842,3.081-7.483,4.842-13.646-1.321
	S59.207,13.789,53.044,12.028c9.684,4.402,14.526,14.527,18.488,18.489c-14.527-5.283-31.694-9.245-60.308-1.761
	c38.297-3.521,48.862,2.642,66.03,9.245c17.167,6.603,14.086,10.564,31.694,3.081c17.607-7.483,55.465-14.967,62.068-15.407
	C177.62,25.233,171.897,21.271,156.931,24.353z"/>
</svg>
