<?xml version="1.0" encoding="utf-8"?>
<!-- Generator: Adobe Illustrator 16.0.0, SVG Export Plug-In . SVG Version: 6.00 Build 0)  -->
<!DOCTYPE svg PUBLIC "-//W3C//DTD SVG 1.1//EN" "http://www.w3.org/Graphics/SVG/1.1/DTD/svg11.dtd">
<svg version="1.1" id="Layer_1" xmlns="http://www.w3.org/2000/svg" xmlns:xlink="http://www.w3.org/1999/xlink" x="0px" y="0px"
	 width="86.566px" height="462.441px" viewBox="0 0 86.566 462.441" enable-background="new 0 0 86.566 462.441"
	 xml:space="preserve">
<path fill="#FFFFFF" d="M86.442,388.576c-0.519,3.895-4.803,12.85-9.733,16.225c0.519,5.973-0.779,6.881-2.207,8.826
	c-1.428,1.947-12.331,15.189-14.797,17.135c-2.468,1.947-8.049,9.346-9.217,11.293s0.52,3.244,0.52,4.412s-2.466,3.506-4.153,5.193
	c-1.688,1.686-0.13,1.168,0.13,2.725c0.261,1.559-0.26,2.207-0.907,4.414c-0.649,2.205-1.493,3.764-2.791,3.635
	c-1.299,0.129-2.143-1.43-2.791-3.635c-0.649-2.207-1.168-2.855-0.909-4.414c0.259-1.557,1.816-1.039,0.13-2.725
	c-1.688-1.689-4.154-4.025-4.154-5.193s1.688-2.465,0.52-4.412c-1.168-1.947-6.75-9.346-9.217-11.293
	c-2.466-1.945-13.368-15.188-14.797-17.135c-1.428-1.945-2.726-2.855-2.207-8.826c-4.933-3.375-9.216-12.33-9.734-16.225
	c-0.52-3.895,0.39-21.547,6.359-22.715c5.972-1.169,8.178,0.131,9.347,1.038c1.168,0.908,5.321,3.375,7.527,2.597
	c2.207-0.779,2.336-0.779,2.336-0.779s0.52,4.934,4.154,5.711c6.75,2.078,13.435,1.818,13.435,1.818s6.685,0.26,13.435-1.818
	c3.634-0.777,4.153-5.711,4.153-5.711s0.13,0,2.336,0.779c2.207,0.778,6.359-1.688,7.528-2.597c1.168-0.907,3.374-2.207,9.346-1.038
	C86.053,367.029,86.961,384.682,86.442,388.576z M77.616,355.348c-0.648,2.726-3.506,0.907-6.36,0.778
	c-2.855-0.131-7.009,0.26-8.307,0.777c-1.299,0.52-4.804,1.947-4.804,1.947s-0.13,2.077,0,2.598c0.13,0.518,1.429,2.984,1.688,5.32
	c0.259,2.337-8.763,4.934-16.55,4.413c-7.788,0.521-16.81-2.076-16.55-4.413c0.26-2.336,1.559-4.803,1.688-5.32
	c0.13-0.521,0-2.598,0-2.598s-3.504-1.428-4.802-1.947c-1.299-0.52-5.452-0.908-8.308-0.777c-2.855,0.129-5.711,1.947-6.359-0.778
	c-0.649-2.728-1.559-5.972-0.261-6.62c1.299-0.648,3.245-0.779,5.452,0.13c2.207,0.908,2.597,1.038,5.452,0.39
	s4.024-0.39,4.413-1.558c0.39-1.169,0-4.024,0.26-5.452s1.947-2.466,1.947-2.466s0.649,1.688,0.39,2.985
	c-0.26,1.298-0.648,2.596-0.52,4.412c0.13,1.817-1.558,3.506,1.558,4.283c6.62,1.947,15.642,1.817,15.642,1.817
	s9.021,0.13,15.641-1.817c3.115-0.777,1.428-2.466,1.558-4.283c0.131-1.816-0.26-3.114-0.519-4.412
	c-0.26-1.299,0.389-2.985,0.389-2.985s1.688,1.038,1.947,2.466s-0.13,4.283,0.26,5.452c0.391,1.168,1.559,0.908,4.413,1.558
	c2.855,0.648,3.245,0.52,5.451-0.39c2.207-0.909,4.154-0.778,5.452-0.13C79.173,349.376,78.265,352.621,77.616,355.348z
	 M75.539,334.58c-1.688,0.52-5.063-0.131-9.734,0.26c-4.672,0.39-6.75,2.205-6.75,2.205s-0.778,0.521-0.647,1.947
	c0.13,1.428,0.777,2.077,1.298,3.375c0.519,1.299-0.649,2.077-1.688,2.596c-1.038,0.521-6.036,1.559-14.731,1.299
	c-8.697,0.26-13.694-0.778-14.732-1.299c-1.038-0.519-2.207-1.297-1.688-2.596c0.52-1.298,1.168-1.947,1.298-3.375
	s-0.649-1.947-0.649-1.947s-2.077-1.815-6.75-2.205c-4.672-0.391-8.047,0.26-9.735-0.26c-1.688-0.521-2.596-1.168-2.596-2.985
	s-0.909-2.985,0.389-3.765c1.299-0.779,3.505-0.648,4.283-0.52c0.779,0.129,1.688,0.26,4.024,0.26s1.816,0.131,4.023-0.39
	s3.245-1.688,3.245-1.688s-0.39-1.298,0.39-2.854c0.778-1.558,1.816-2.985,1.816-2.985s-0.39,1.947-0.39,2.596
	c0,0.649,0.26,3.375,0.26,3.375c3.634,0.778,16.81,1.428,16.81,1.428s13.175-0.648,16.809-1.428c0,0,0.26-2.726,0.26-3.375
	c0-0.647-0.389-2.596-0.389-2.596s1.038,1.428,1.815,2.985c0.779,1.558,0.391,2.854,0.391,2.854s1.038,1.168,3.245,1.688
	s1.688,0.39,4.022,0.39c2.337,0,3.245-0.13,4.024-0.26c0.777-0.13,2.984-0.26,4.283,0.52c1.298,0.778,0.39,1.946,0.39,3.765
	C78.134,333.412,77.226,334.06,75.539,334.58z M75.02,313.033c-0.778,1.168-2.984,0.52-3.765,0c-0.778-0.521-2.336,0.129-6.23,0.129
	c-3.894,0-6.359,2.207-5.841,2.467c0.521,0.26,0.13,2.336-0.26,3.504c-0.389,1.168-8.242,1.429-15.641,1.299
	c-7.398,0.13-15.251-0.131-15.642-1.299c-0.389-1.168-0.779-3.244-0.259-3.504c0.519-0.26-1.947-2.467-5.841-2.467
	c-3.895,0-5.451-0.648-6.23-0.129c-0.778,0.518-2.985,1.168-3.765,0s-2.466-1.947-1.428-3.895c1.039-1.947,1.816-3.635,3.635-3.245
	c1.816,0.39,3.504,0.647,5.062,0.519c1.559-0.129,4.933-1.168,5.842-1.297c0.908-0.131,1.038-0.261,1.038-0.261
	s-0.39-3.374,0.261-3.504c0.648-0.13,1.558-0.521,1.558-0.521s0.259-0.52,5.451-0.908s10.319-0.389,10.319-0.389
	s5.127,0,10.318,0.389c5.191,0.39,5.451,0.908,5.451,0.908s0.909,0.391,1.558,0.521c0.649,0.13,0.261,3.504,0.261,3.504
	s0.13,0.13,1.038,0.261c0.908,0.129,4.283,1.168,5.841,1.297c1.559,0.131,3.245-0.129,5.063-0.519
	c1.818-0.39,2.597,1.298,3.636,3.245C77.486,311.085,75.798,311.865,75.02,313.033z M14.792,292.524
	c-1.559,0-4.804-1.429-4.804-3.635c0-2.207,0.779-4.283,2.856-3.505c2.077,0.779-0.39,0.779,4.413-0.131
	c4.803-0.907,7.397-2.205,7.397-2.205s0.909-1.299,0.909-2.727c0-1.429,0.52-3.115,0.52-3.115l1.168,1.428
	c1.816-1.557,3.115-2.727,6.62-2.854c3.505-0.13,9.411-0.26,9.411-0.26s5.905,0.13,9.409,0.26c3.506,0.13,4.804,1.298,6.62,2.854
	l1.168-1.428c0,0,0.521,1.688,0.521,3.115s0.908,2.727,0.908,2.727s2.597,1.298,7.398,2.205c4.802,0.91,2.336,0.91,4.413,0.131
	c2.076-0.778,2.855,1.298,2.855,3.505c0,2.206-3.245,3.635-4.804,3.635c-1.558,0-3.895-0.649-7.788-0.649
	c-3.895,0-5.063,2.336-5.063,2.336s0.39,0.649,0.39,2.468c-1.816-1.558-8.632-2.726-16.029-2.597
	c-7.398-0.129-14.214,1.039-16.03,2.597c0-1.817,0.389-2.468,0.389-2.468s-1.168-2.336-5.062-2.336
	C18.685,291.875,16.35,292.524,14.792,292.524z M75.409,271.236c-1.299,1.299-5.321-0.259-10.772-0.908
	c-5.452-0.648-5.322,1.688-5.322,1.688s0,0.907-0.26,1.688c-1.428-1.299-8.632-2.078-15.771-2.207
	c-7.14,0.129-14.344,0.908-15.771,2.207c-0.26-0.779-0.26-1.688-0.26-1.688s0.13-2.337-5.322-1.688
	c-5.452,0.649-9.476,2.207-10.772,0.908c-1.299-1.298-2.077-6.488,0.26-6.749c2.337-0.26,4.413,0.521,5.841,0.521
	s3.764-0.779,5.322-1.43c1.558-0.647,3.245-1.297,3.245-1.297s-0.391-5.582-0.261-6.102s1.168,0.779,1.168,0.779
	s-0.13-1.039,2.467-1.817c2.596-0.779,14.083-1.558,14.083-1.558s11.486,0.777,14.083,1.558c2.597,0.778,2.467,1.817,2.467,1.817
	s1.038-1.299,1.168-0.779s-0.26,6.102-0.26,6.102s1.688,0.648,3.244,1.297c1.559,0.649,3.895,1.43,5.322,1.43
	s3.504-0.779,5.841-0.521C77.486,264.748,76.708,269.938,75.409,271.236z M72.294,248.781c-1.817,0.131-4.673-0.26-8.567-0.39
	c-3.894-0.13-4.803,2.077-4.803,2.077s-0.52,0.779-0.52,1.168c-0.908-0.52-6.813-2.206-15.121-2.076
	c-8.308-0.13-14.214,1.559-15.122,2.076c0-0.389-0.521-1.168-0.521-1.168s-0.908-2.207-4.802-2.077
	c-3.895,0.13-6.75,0.521-8.567,0.39c-1.816-0.13-3.894-0.648-3.505-2.596c0.391-1.947,2.207-4.152,3.375-3.505
	c1.168,0.649,3.115,0.909,5.971,0.13c2.856-0.777,4.804-1.168,5.192-1.816c0.39-0.648,0.521-5.322,0.521-5.322l1.428,0.779
	c0,0-1.039-0.908,0.909-1.168c1.946-0.261,7.657-1.168,10.644-1.039c2.986,0.131,4.479,0.131,4.479,0.131s1.492,0,4.479-0.131
	c2.986-0.129,8.696,0.778,10.645,1.039c1.945,0.26,0.907,1.168,0.907,1.168l1.429-0.779c0,0,0.13,4.674,0.52,5.322
	s2.336,1.039,5.191,1.816c2.855,0.779,4.803,0.52,5.971-0.13c1.169-0.647,2.985,1.558,3.375,3.505S74.111,248.651,72.294,248.781z
	 M26.734,208.414c-3.635-0.519-4.803,1.168-5.971,0.389c-1.168-0.778-0.779-5.062,0-5.451c0.779-0.39,1.428-0.26,3.115-0.26
	s0.909,0.519,2.336-0.26s2.466-1.947,2.466-1.947s-0.649-0.779,3.505-1.298c4.153-0.52,11.099,0,11.099,0s6.943-0.52,11.098,0
	c4.154,0.519,3.505,1.298,3.505,1.298s1.038,1.168,2.466,1.947c1.428,0.779,0.649,0.26,2.337,0.26c1.688,0,2.336-0.13,3.115,0.26
	c0.778,0.389,1.168,4.673,0,5.451c-1.168,0.779-2.337-0.908-5.971-0.389c-3.636,0.519-2.467,1.428-2.467,1.428
	s0.648,2.596,0.13,4.673c-1.947-0.779-5.776-1.558-14.213-2.077c-8.438,0.519-12.267,1.298-14.214,2.077
	c-0.52-2.077,0.13-4.673,0.13-4.673S30.369,208.933,26.734,208.414z M60.872,192.708c-2.597,0.519-4.153,1.947-4.153,1.947
	s0.648,2.336,0.519,3.504c-1.428-0.779-4.736-1.687-13.952-1.687c-9.217,0-12.526,0.908-13.954,1.687
	c-0.13-1.168,0.52-3.504,0.52-3.504s-1.558-1.428-4.154-1.947c-2.596-0.52-7.009-0.26-6.619-2.466
	c0.389-2.207,2.596-5.841,4.413-4.933c1.816,0.909,1.428,2.207,2.984,1.947c1.559-0.26,2.855-0.779,2.855-0.779l-0.52-1.947
	c3.375-2.726,14.474-1.688,14.474-1.688s11.098-1.038,14.473,1.688l-0.521,1.947c0,0,1.3,0.519,2.855,0.779
	c1.559,0.259,1.169-1.039,2.986-1.947c1.815-0.909,4.022,2.726,4.413,4.933C67.88,192.448,63.467,192.188,60.872,192.708z
	 M62.949,173.498c-1.429,0.259-4.413,0.779-7.141,3.375c1.298,0.909,1.298,3.375,0.779,4.284c-2.855-1.558-5.776-1.428-13.305-1.298
	c-7.528-0.13-10.449-0.259-13.306,1.298c-0.519-0.909-0.519-3.375,0.779-4.284c-2.727-2.596-5.711-3.115-7.139-3.375
	c-1.429-0.26-4.414-0.13-3.636-2.077c0.779-1.947,1.298-4.543,2.727-4.023c1.428,0.519,3.115,1.817,4.023,1.817
	s2.336-1.428,2.336-1.428l14.214-0.13l14.213,0.13c0,0,1.428,1.428,2.337,1.428c0.908,0,2.596-1.298,4.022-1.817
	c1.429-0.52,1.947,2.077,2.727,4.023C67.362,173.368,64.376,173.238,62.949,173.498z M23.749,139.36
	c-0.129-1.558-0.778-4.153,0.909-4.024c1.688,0.13,1.816,1.947,2.984,1.947s2.336-0.13,2.336-0.13s-0.519,2.855,2.856,3.245
	c3.375,0.389,10.449,1.038,10.449,1.038s7.073-0.649,10.448-1.038c3.374-0.39,2.855-3.245,2.855-3.245s1.168,0.13,2.336,0.13
	s1.298-1.817,2.985-1.947c1.688-0.129,1.039,2.466,0.908,4.024c-0.13,1.558-0.648,0.52-1.816,1.298
	c-1.168,0.778-4.803,3.634-6.75,4.543c1.558,0.389,1.169,2.985,1.558,4.023c-0.647,0.649-4.153,1.298-12.524,1.298
	c-8.372,0-11.877-0.649-12.526-1.298c0.39-1.038,0-3.634,1.558-4.023c-1.946-0.909-5.581-3.765-6.75-4.543
	C24.398,139.879,23.878,140.917,23.749,139.36z M62.819,124.822c-0.52,0.649-1.298,1.039-2.854,2.336
	c-1.559,1.298-2.856,1.947-5.452,3.115c1.428,1.558,1.428,2.466,1.817,5.322c-0.908,2.336-5.518,4.284-13.045,3.764
	c-7.528,0.52-12.137-1.428-13.046-3.764c0.391-2.854,0.391-3.764,1.817-5.322c-2.596-1.168-3.894-1.817-5.452-3.115
	c-1.558-1.298-2.336-1.688-2.855-2.336c-0.52-0.649-1.298-2.466,0-3.245c1.298-0.778,1.298-1.817,2.336-0.908
	c1.039,0.908,1.816,2.207,2.336,2.207s1.558-0.649,1.558-0.649s-1.946,2.855,3.245,4.543c5.192,1.688,10.061,1.817,10.061,1.817
	s4.866-0.129,10.06-1.817s3.245-4.543,3.245-4.543s1.038,0.649,1.558,0.649s1.298-1.298,2.336-2.207
	c1.039-0.909,1.039,0.13,2.337,0.908C64.117,122.356,63.337,124.173,62.819,124.822z M56.718,107.299c0,0,1.298-0.389,2.466-0.649
	c1.168-0.26,0.26-0.13,1.298-2.077c1.039-1.947,0.779,0,2.077,0.779s1.038,2.077,0.391,3.115c-0.649,1.038-1.429,0.129-1.559,1.298
	c-0.13,1.168-5.191,4.024-6.36,4.413c-1.168,0.39-0.778,0.39-1.037,1.168c-0.261,0.779,0.259,1.687,1.428,2.596
	c1.168,0.909,0.389,1.817,0.389,3.764c0,1.947-6.295,4.414-12.524,4.414c-6.23,0-12.526-2.466-12.526-4.414
	c0-1.947-0.779-2.855,0.39-3.764c1.168-0.909,1.688-1.817,1.429-2.596c-0.261-0.779,0.13-0.779-1.039-1.168
	c-1.168-0.389-6.23-3.245-6.36-4.413s-0.909-0.26-1.558-1.298c-0.649-1.039-0.909-2.336,0.389-3.115s1.039-2.726,2.077-0.779
	c1.039,1.947,0.13,1.817,1.298,2.077c1.168,0.26,2.466,0.649,2.466,0.649s-0.52,1.558-0.13,2.596
	c0.389,1.038,0.779,1.558,3.375,2.855c6.36,2.466,10.189,2.855,10.189,2.855s3.828-0.389,10.188-2.855
	c2.596-1.298,2.985-1.817,3.375-2.855C57.237,108.857,56.718,107.299,56.718,107.299z M24.787,156.364
	c-0.779-0.26-3.635-2.077-2.467-4.024c1.168-1.947,1.039-3.504,2.337-1.817s1.688,3.504,3.375,2.726
	c1.687-0.778,2.336-0.649,2.336-0.649l0.648,0.389c4.154,0.26,12.267,0.13,12.267,0.13s8.111,0.13,12.266-0.13l0.649-0.389
	c0,0,0.648-0.13,2.337,0.649c1.687,0.779,2.075-1.039,3.374-2.726c1.298-1.688,1.169-0.13,2.337,1.817
	c1.168,1.947-1.688,3.764-2.468,4.024c-0.777,0.26-2.854,3.115-4.673,3.764c-1.183,0.422-1.484,0.515-1.553,0.528
	c-0.003-0.005-0.005-0.009-0.005-0.009s-0.031,0.016,0.005,0.009c0.096,0.18,1.78,3.403,0.645,4.664l-12.914-0.129l-12.915,0.129
	c-1.136-1.261,0.549-4.484,0.644-4.664c0.036,0.007,0.005-0.009,0.005-0.009s-0.002,0.004-0.005,0.009
	c-0.067-0.013-0.37-0.105-1.553-0.528C27.643,159.479,25.566,156.624,24.787,156.364z M62.04,93.93
	c-0.778,2.336-5.711,4.153-5.711,4.153l-2.336,2.985c0,0,2.336,2.985,2.206,6.23c-0.131,3.245-4.09,5.322-12.915,5.452
	c-8.826-0.13-12.785-2.207-12.915-5.452c-0.131-3.245,2.207-6.23,2.207-6.23l-2.336-2.985c0,0-4.934-1.817-5.712-4.153
	c-1.946-1.558-3.894-2.596-1.688-3.635c2.207-1.038,4.153,0,4.283,1.039s-0.13,1.039,1.168,0.909
	c1.298-0.13,3.115-1.688,3.115-1.688s0.52,2.855-0.39,3.894c-0.909,1.039-1.558,1.298-1.039,1.947
	c0.521,0.649,2.856,3.764,6.75,4.673c3.895,0.909,6.556,0.909,6.556,0.909s2.66,0,6.555-0.909c3.895-0.909,6.229-4.023,6.75-4.673
	c0.519-0.649-0.13-0.908-1.039-1.947c-0.908-1.039-0.389-3.894-0.389-3.894s1.816,1.558,3.114,1.688
	c1.299,0.13,1.038,0.13,1.168-0.909c0.131-1.039,2.077-2.077,4.283-1.039C65.934,91.334,63.987,92.373,62.04,93.93z M61.651,80.431
	c0,0-1.429,1.817-2.727,2.855c-1.298,1.039-3.115,1.817-3.115,1.817l-0.647,3.375c0,0-1.688,3.764-1.299,4.802
	c0.39,1.039,0.52,1.558,0.52,1.558s-1.298,1.947-2.855,2.856c-1.558,0.908-1.752,1.558-8.241,1.558c-6.49,0-6.686-0.649-8.242-1.558
	c-1.559-0.909-2.855-2.856-2.855-2.856s0.129-0.519,0.52-1.558c0.389-1.038-1.298-4.802-1.298-4.802l-0.649-3.375
	c0,0-1.817-0.779-3.115-1.817s-2.726-2.855-2.726-2.855s-4.024-0.519-2.077-2.207s2.854-2.336,3.504-1.298
	c0.649,1.038,2.207,2.207,2.207,2.207l1.168,0.649c0,0-0.649,5.322,3.375,6.62C37.12,87.7,43.285,87.83,43.285,87.83
	s6.165-0.13,10.188-1.428c4.023-1.298,3.375-6.62,3.375-6.62l1.168-0.649c0,0,1.559-1.168,2.206-2.207
	c0.649-1.039,1.558-0.39,3.505,1.298S61.651,80.431,61.651,80.431z M63.079,64.984c2.075,1.039-1.3,2.985-1.3,2.985
	s-1.168,1.817-3.243,3.115c-2.077,1.298-3.896,1.688-3.896,2.726s0.39,2.077,1.298,4.803c1.817,3.894-6.295,5.841-12.654,6.23
	c-6.36-0.389-14.474-2.336-12.655-6.23c0.908-2.726,1.298-3.764,1.298-4.803s-1.817-1.428-3.894-2.726
	c-2.077-1.298-3.245-3.115-3.245-3.115s-3.375-1.947-1.298-2.985c2.076-1.038,2.076-1.558,2.854-0.519s1.428,1.558,1.428,1.558
	s0-0.26,0.649,1.428c0.648,1.688,0.779,3.115,1.688,3.245c0.909,0.13,1.299,0.519,1.299,0.519s1.558,2.856,5.191,3.375
	s6.686,0.389,6.686,0.389s3.051,0.13,6.685-0.389c3.635-0.519,5.192-3.375,5.192-3.375s0.389-0.389,1.298-0.519
	c0.908-0.13,1.038-1.558,1.688-3.245c0.648-1.688,0.648-1.428,0.648-1.428s0.648-0.519,1.428-1.558
	C61.001,63.427,61.001,63.946,63.079,64.984z M25.826,13.454c0-2.726,0-4.154,2.466-4.543c2.466-0.39,4.672,0.259,6.49-1.168
	c1.817-1.427,2.206-1.947,3.764-1.688c1.558,0.26,4.738-0.908,4.738-0.908s3.18,1.168,4.736,0.908
	c1.559-0.259,1.947,0.26,3.766,1.688c1.817,1.428,4.022,0.779,6.489,1.168c2.467,0.389,2.467,1.817,2.467,4.543
	s-1.299,0.649-2.727,2.207c-1.428,1.558-4.673,0.909-4.673,0.909s-0.39-0.779-0.779,0.908c-0.389,1.688-3.438,2.336-9.279,2.336
	c-5.842,0-8.892-0.649-9.281-2.336s-0.779-0.908-0.779-0.908s-3.245,0.649-4.673-0.909C27.123,14.103,25.826,16.18,25.826,13.454z
	 M55.031,60.571c-1.168,1.298-7.854,2.596-11.746,2.855c-3.895-0.259-10.579-1.558-11.747-2.855
	c-1.168-1.298-2.207-0.909-2.207-2.466s0.26-2.207,0.908-3.115c0.649-0.909,1.429-1.039,1.169-2.336
	c-0.26-1.298,0.39,0.908,3.375,1.428c2.984,0.519,8.502,1.038,8.502,1.038s5.517-0.519,8.502-1.038
	c2.984-0.52,3.635-2.726,3.375-1.428c-0.261,1.298,0.519,1.428,1.168,2.336c0.648,0.908,0.907,1.557,0.907,3.115
	S56.199,59.273,55.031,60.571z M55.549,50.577c-1.816,1.688-6.425,2.336-12.266,2.856c-5.842-0.52-10.449-1.168-12.267-2.856
	c-1.816-1.688-2.207-2.077-0.648-3.504c1.558-1.427,1.946-2.077,1.428-2.985c-0.52-0.908-0.26-3.635,1.298-2.726
	c1.558,0.909,3.764,2.856,10.189,2.207c6.425,0.649,8.632-1.298,10.188-2.207c1.557-0.909,1.817,1.817,1.298,2.726
	c-0.519,0.909-0.13,1.558,1.429,2.985C57.756,48.5,57.367,48.889,55.549,50.577z M53.993,33.184c0.907,0.13,1.945,1.039,2.336,3.245
	c0.39,2.206-1.947,2.466-4.023,3.764c-2.077,1.298-3.439,1.947-9.021,2.207c-5.582-0.26-6.944-0.909-9.021-2.207
	c-2.077-1.298-4.413-1.558-4.023-3.764c0.39-2.207,1.428-3.115,2.336-3.245c0.907-0.13-1.688-1.558-0.649-2.336
	c1.038-0.779,2.596,1.688,5.062,1.688c2.467,0,6.296,0.259,6.296,0.259s3.828-0.259,6.295-0.259s4.023-2.466,5.063-1.688
	C55.681,31.626,53.083,33.054,53.993,33.184z M56.588,24.357c1.038,1.298-0.521,2.077-1.298,3.504
	c-0.779,1.428-7.464,2.985-12.007,3.115c-4.543-0.13-11.229-1.688-12.007-3.115c-0.777-1.427-2.336-2.207-1.298-3.504
	c1.039-1.298,0.521-0.649,0.649-1.947c0.129-1.298,2.984-3.504,2.984-3.504c1.559,3.634,9.671,3.115,9.671,3.115
	s8.111,0.519,9.67-3.115c0,0,2.854,2.207,2.984,3.504C56.068,23.707,55.549,23.059,56.588,24.357z M58.016,64.855
	c0,0-0.52,1.558-1.298,3.634c-0.779,2.077-7.074,4.283-13.435,4.283c-6.361,0-12.655-2.207-13.435-4.283
	c-0.779-2.076-1.298-3.634-1.298-3.634s1.039-1.558,1.168-2.207c0.13-0.649-0.909-1.688-0.909-1.688l-0.129-1.419
	c0.014,0.143,0.271,2.115,4.023,3.366c3.894,1.298,10.579,1.947,10.579,1.947s6.685-0.649,10.578-1.947
	c3.751-1.25,4.01-3.223,4.022-3.366l-0.129,1.419c0,0-1.038,1.038-0.908,1.688C56.978,63.297,58.016,64.855,58.016,64.855z
	 M27.643,226.975c-1.947-0.779-1.687-1.428-4.152-0.909c-2.467,0.519-3.115,1.817-4.024,0.26c-0.909-1.557-1.947-2.726-1.688-4.284
	c0.261-1.558,0.131-3.764,1.817-3.245c1.688,0.52,1.039,1.039,3.245,0.649c2.207-0.39,2.336,0.649,3.504-0.521
	c1.168-1.168,0.779-2.077,1.947-1.947s-0.909-0.13,2.854-0.649c3.765-0.52,6.36-1.168,8.178-1.168c1.816,0,3.959,0,3.959,0
	s2.142,0,3.959,0c1.816,0,4.412,0.649,8.178,1.168c3.764,0.519,1.687,0.779,2.854,0.649s0.778,0.779,1.946,1.947
	c1.169,1.168,1.299,0.13,3.505,0.521c2.207,0.389,1.559-0.13,3.245-0.649c1.688-0.519,1.558,1.688,1.817,3.245
	c0.259,1.557-0.779,2.726-1.688,4.284c-0.909,1.558-1.558,0.259-4.022-0.26c-2.468-0.519-2.207,0.13-4.154,0.909
	c-1.946,0.779-1.428,1.817-1.428,1.817s0.26,1.947,0.39,2.985c-1.168-0.519-8.502-1.298-14.604-1.298
	c-6.101,0-13.434,0.779-14.603,1.298c0.13-1.038,0.39-2.985,0.39-2.985S29.59,227.754,27.643,226.975z M65.934,5.796
	c-3.245,0.389-3.375-0.26-4.543,0.13c-1.169,0.389-1.558,2.336-1.558,2.336s0-0.13-2.728-0.909
	c-2.726-0.779-4.282-0.649-4.282-0.649s-2.076-1.428-4.283-2.336c-2.206-0.909-5.257,0.129-5.257,0.129s-3.051-1.038-5.258-0.129
	c-2.207,0.908-4.283,2.336-4.283,2.336s-1.558-0.13-4.283,0.649c-2.727,0.779-2.727,0.909-2.727,0.909s-0.39-1.947-1.558-2.336
	c-1.168-0.39-1.298,0.259-4.543-0.13c-3.245-0.39-6.879-2.207-3.895-2.207c2.985,0,3.895,0.908,6.88-0.649
	c2.984-1.558,3.894-2.856,6.879-2.856c2.984,0,2.207-0.259,3.504,0.13c1.298,0.39,1.428,1.428,1.428,1.428s0.521-1.038,3.375-0.259
	c2.855,0.778,4.478,1.298,4.478,1.298s1.622-0.52,4.479-1.298c2.855-0.779,3.374,0.259,3.374,0.259s0.13-1.038,1.428-1.428
	c1.299-0.389,0.521-0.13,3.505-0.13c2.985,0,3.896,1.298,6.88,2.856c2.985,1.557,3.895,0.649,6.88,0.649
	C72.811,3.589,69.179,5.406,65.934,5.796z"/>
</svg>
