<?xml version="1.0" encoding="utf-8"?>
<!-- Generator: Adobe Illustrator 16.0.0, SVG Export Plug-In . SVG Version: 6.00 Build 0)  -->
<!DOCTYPE svg PUBLIC "-//W3C//DTD SVG 1.1//EN" "http://www.w3.org/Graphics/SVG/1.1/DTD/svg11.dtd">
<svg version="1.1" id="Layer_1" xmlns="http://www.w3.org/2000/svg" xmlns:xlink="http://www.w3.org/1999/xlink" x="0px" y="0px"
	 width="65.01px" height="283.34px" viewBox="0 0 65.01 283.34" enable-background="new 0 0 65.01 283.34" xml:space="preserve">
<path fill="#FFFFFF" d="M64.812,6.333c-1.393,4.872-11.137,24.708-12.527,30.624c-1.393,5.916-6.96,94.307-7.309,109.967
	s-0.349,93.264,2.088,99.875s8.699,16.703,8.699,21.924c0,5.22-5.22,8.352-5.22,8.352s-3.479-4.523-9.048-5.914
	c-5.568-1.394-15.312-1.045-18.096-1.045c-2.784,0-8.004,2.436-6.264-5.916c1.74-8.353,11.484-50.459,11.484-83.867
	S23.051,66.19,22.007,54.358s-7.308-32.364-14.964-40.02C4.05,11.344,3.912,2.854,8.087,1.461c4.175-1.393,9.396-2.436,11.484,0
	c2.088,2.436,9.396,12.528,16.008,12.528c6.611,0,13.572-5.916,14.615-8.352c1.045-2.436,3.479-4.176,6.611-4.524
	C59.938,0.766,66.203,1.461,64.812,6.333z M16.091,47.049c0.348,6.264,0,15.312,0,25.056s-1.392,60.203-1.392,86.304
	c0,26.1,2.088,58.463,5.22,76.559c-2.436,10.787-6.264,27.145-6.264,29.58c0,2.435,2.088,8.352,4.176,9.396s2.088,9.396,2.088,9.396
	s-10.788,0.349-12.528-7.309c-1.74-7.654-1.392-24.012-1.044-37.932c0.348-13.92-2.088-47.676-2.436-89.436
	C3.563,106.904,6,65.841,4.607,60.621c-1.392-5.22-5.22-23.664-4.524-31.32c0.696-7.656,4.524-10.44,4.524-10.44
	C8.087,23.385,15.743,40.785,16.091,47.049z"/>
</svg>
