<?xml version="1.0" encoding="utf-8"?>
<!-- Generator: Adobe Illustrator 16.0.0, SVG Export Plug-In . SVG Version: 6.00 Build 0)  -->
<!DOCTYPE svg PUBLIC "-//W3C//DTD SVG 1.1//EN" "http://www.w3.org/Graphics/SVG/1.1/DTD/svg11.dtd">
<svg version="1.1" id="Layer_1" xmlns="http://www.w3.org/2000/svg" xmlns:xlink="http://www.w3.org/1999/xlink" x="0px" y="0px"
	 width="380.378px" height="345.393px" viewBox="0 0 380.378 345.393" enable-background="new 0 0 380.378 345.393"
	 xml:space="preserve">
<path fill="#FFFFFF" d="M380.24,239.5c-0.9,8.101-3.9,9.301-5.1,13.5c-1.199,4.2-6.6,20.399-19.195,27.899s-28.793,11.4-37.189,14.4
	c-8.398,3-19.496,7.5-25.795,12c-4.481,3.202-13.978,8.381-21.782,13.371c4.04-5.854,7.901-11.848,9.114-14.271
	c2.397-4.8,5.996-14.399,8.795-22c2.799-7.6,7.195-23.199,7.996-26.8c0.799-3.601,4.396-17.2,8.795-22.399
	c4.398-5.2,13.193-9.601,17.99-12.399c2.766-1.614,4.998-3.493,6.395-4.796c2.225,1.18,4.74,2.096,7.986,2.596
	c7.799,1.2,16.195,1.8,20.695,0.3c4.498-1.5,11.695-5.399,11.695-5.399s0.301,2.101,3.6,9.301
	C377.541,232,381.138,231.4,380.24,239.5z M345.835,218.4c-10-1.199-22.6-8.399-24.799-12c-2.201-3.6-1-6.6-2.201-9.6
	c-1.199-3-7.199-20-9-21.4c-1.359-0.68-1.799,1-3.4,1.801c-0.039-1.479-0.479-2.079,0.041-3.36c-0.84-1.16-1.96-2-3.96-1.8
	c1.36-1.521,2.319-2.92,2.08-4c-0.761,0.16-2.32,0.52-2.96,1.16c-0.04-1.24,0-1.721,0.32-3.48c0.318-1.76,0.278-2.12,0.278-2.12
	l-0.358-0.439c0,0-0.201,1.64-0.36,2.52c-1.28-1.16-4.601-1.28-5.438-1.76c-0.842-0.48-1.762,0.04-0.041-1.76
	c1.721-1.801,3.68-4.12,4.279-4.561c0.602-0.439,0.92-0.359,1.4-0.56c0.479-0.2,0.8-0.12,0.8-0.12s-0.479-0.561-1.479-0.561
	s-1.879,0.681-2.32,0.921c-0.439,0.239-1.039,0.92-0.719-0.761c0.318-1.68,1.879-5.319,2.199-6.68c0.319-1.36,1.119-3.96,2-4.08
	s0.881-0.24,0.881-0.24s-0.521-0.52-1.08-0.08c-0.562,0.44-2.16,3.08-2.32,4.04s-1.4,4.36-1.721,5.24
	c-1.76-1.68-3.521-1.52-4.319-1.84c-0.8-0.32-4-1.64-4-1.64s1.479-2.28,4.04-3.04c0.84-0.36,2.521-2.48,3.16-2.92
	c0.639-0.44,0.76,0.04,2.08-0.601c1.318-0.64,1.879-1.2,1.879-1.2s0.041-0.04-0.84-0.12c-0.879-0.079-0.641-0.239-2.199,0.48
	c-1.561,0.72-3,1.32-3,1.32s-0.76-1.16-0.24-2.32c0.521-1.16,0.199-2.84,1.48-5.2c1.278-2.359,2.92-5.12,3.84-5.84
	s1.52-1.479,1.52-1.479s-1,0.439-1.76,1.199c-0.76,0.761-3.76,4.801-4.12,5.801c-0.358,1-1.12,3.88-1.358,5.119
	c-1-0.64-2.08-1.52-3.361-2c-1.279-0.479-6.559-0.119-8.039-0.439s-2.12-0.44,0.32-2.24c2.438-1.8,7.16-5.92,8.719-6.36
	c1.561-0.439,3.961-0.56,5.521-0.76c1.562-0.2,2.642-0.439,3.08-0.76c0.44-0.32,1.16-1.4,0.399-1.12
	c-0.76,0.28-1.76,1.08-3.199,1.28s-3.721,0.12-5.08,0.64c-1.359,0.521-3.24,0.48-3.24,0.48s1.439-4.24,2.762-7.32
	c1.318-3.08,1.08-4.88,2.879-6.64c1.801-1.761,2.439-2.641,4.041-3.04c1.6-0.4,1.879-1.12,1.879-1.12s-0.6-0.36-2.6,0.68
	s-4.039,2.08-4.601,3.32c-0.56,1.24-2.601,6.04-3.04,7.399c-0.439,1.36-0.92,3.28-0.92,3.28c-5.04-2.6-4.2-2.04-6.6-2.56
	c-2.4-0.521-6.722-0.681-8.121-0.84c-1.399-0.16-0.799-1.48,0.961-2.601s3.398-4.12,6.84-5.56c3.439-1.44,4.959-2.36,4.959-2.36
	s-0.039,1,0.281,1.44c0.318,0.439,2.199,1.199,2.199,1.199l1.131-0.067c0.117-0.002,0.188-0.013,0.188-0.013l-0.188,0.013
	c-0.289,0.004-0.859-0.042-1.371-0.412c-0.72-0.521-2,0.56-1.641-2.08s0-3.72,1.96-8c1.961-4.28,3.44-8.28,4.681-9.68
	c1.24-1.4,1.28-1.761,1.28-1.761s-2.921,2.521-3.521,4.16c-0.6,1.641-3.041,5.2-3.721,6.96c-0.681,1.761-1.521,4.761-1.521,4.761
	s-0.399,0.96-1.96-0.36s-3.24-3.24-5.439-4.08s-8.279-2.32-9.32-2.76c-1.039-0.44,0.32-0.721,2.44-2.28
	c2.119-1.56,7.359-3.88,8.438-4.28c1.08-0.399,2.32-0.76,2.32-0.76s0.041-0.96,0,0.28c-0.039,1.24,0.041,2.96,0.641,3.72
	c0.602,0.76,0.76,0.92,0.76,0.92c0.521-0.32,1.92-0.72,2.4-0.76c0.479-0.04,1.52-0.16,1.6-0.48c0.08-0.319-0.199-0.76,1.24-1.92
	s1.72-1.2,2.279-1.479c0.561-0.28,1.681-0.521,1.681-0.521s0.399-0.439,0.2-0.439c-0.2,0-1.92,0-2.881,0.76
	c-0.959,0.76-1.439,0.96-1.92,1.76c-0.479,0.8-0.641,1.36-1.24,1.561c-0.6,0.199-1.639,0.439-2.279,0.56s-1.12,0.32-1.279-0.12
	c-0.16-0.439-0.881-3.479-0.561-5.68s0.8-5,1.04-7.12c0.239-2.12-0.72-0.16,0.36-3.76c1.08-3.601,0.959-2.96,2.16-4.721
	c1.198-1.76,2.118-2.68,2.318-2.84c0.199-0.16,1.08-2.279,0.561-1.92c-0.521,0.36-0.601,0.521-1.521,1.681
	c-0.522,0.659-1.499,2.096-2.28,3.329c-0.205,0.323-0.396,0.632-0.563,0.909c-0.314,0.527-0.541,0.94-0.598,1.122
	c-0.199,0.641-1.08,2.92-1.199,3.76c-0.121,0.841,0.119,1.04-0.16,2.841c-0.28,1.8-0.961,6.199-0.961,6.84
	c0,0.64-0.039,0.96-0.039,0.96c-2.721-0.32-6.12-1.521-7.641-2.72c-1.521-1.2-3.681-1.761-6.721-1.961
	c-3.04-0.199-6.119-0.159-6.119-0.159s1.199-3.92,3-5.08s4.881-3.8,5.398-4.08c0.521-0.28,1.441-0.601,1.441-0.601l0.119,1.16
	c0.319,3.12,0.92,4.84,1.479,5.32c0.389,0.333,0.828,0.737,1.065,0.957c-0.472,0.453,0.175,0.163,0.175,0.163
	s-0.068-0.065-0.175-0.163c0.16-0.153,0.448-0.393,0.935-0.757c1.92-1.44,3.281-3.32,4.32-4.04c1.041-0.721,2.12-1.8,3.439-2.4
	c1.32-0.6,1.801-0.92,1.801-0.92s0.801-1.4-0.279-0.72c-1.08,0.68-5.642,3.08-7.24,4.92c-1.6,1.84-3.121,2.72-3.121,2.72
	s-2.079-5.72-1.879-8.04c0.199-2.319,0.72-7.479,1.359-9.24c0.641-1.76,0.561-3.64,1-5.119c0.439-1.48,0.84-2.721,1.801-4.16
	c0.959-1.44,1.359-2.28,1.719-2.92c0.361-0.641,0.881-2.32,0.16-1.32c-0.719,1-1.08,0.64-2.08,2.92s-2.399,4.56-2.68,6.56
	c-0.279,2-1.039,4.681-1.199,5.881c-0.16,1.199-0.92,5.52-0.961,6.96c-2.879-1.12-4.959-1.36-6.561-1.16
	c-1.6,0.2-9.359,0.92-10.479,0.96c-1.121,0.04-1.08-0.44,0.56-2.641c1.642-2.199,1.881-4.279,2.96-5.319
	c1.08-1.04,1.16-1.12,1.12-0.84c-0.04,0.279,0.44,3.56,1.399,4.56c0.961,1,1.68,1.88,1.68,1.88s-1.159,1.641,0.881-0.64
	s1.801-2.12,3.119-4.12c1.32-2,2.361-3.24,3.32-4.32c0.961-1.08,2-2.52,3.201-3.84c1.199-1.32,1.719-1.32,2.438-2.439
	c0.721-1.12,0.601-1.24,0.319-0.801c-0.281,0.44-3.84,3.12-4.959,4.601c-1.121,1.479-2.041,1.24-3.281,3.479
	c-1.239,2.24-2.799,4.4-3.398,5.24c-0.602,0.84-1.32,1.6-1.32,1.6s-0.76-0.159-1.76-3.439s-1.48-5.64-1.681-8.08
	c-0.199-2.44-0.199-6.48-0.199-6.48s0.159-5.8,0.56-7.279c0.401-1.48-0.92-5.561,0.36-7.561c1.279-2,0.8-2.52,0.521-2.08
	c-0.28,0.44-2.041,4.96-1.84,7.12c0.199,2.16-0.041,4.76-0.281,7.601c-0.239,2.84,0.16,8.8,0.16,8.8s-2.959-0.4-5.08-0.04
	c-2.119,0.359-5.039,0.76-5.639,0.64c-0.602-0.12-1.201,0.84-1.682,1.521c-0.479,0.68-1.439,0.92-1.721-0.08
	c-0.28-1-2.84-3.24-3.639-7.8c-0.801-4.561-2.642-9.2-3.841-10.721c-1.2-1.52-0.84-3.52-0.84-5.239c0-1.721,0.119-4.761,0.119-4.761
	s-0.479,0.16-0.64,2.521c-0.16,2.359-0.521,4.8-1.801,7.359c-1.279,2.561-1.479,2.561-2.16,4.28c-0.68,1.72-0.199,3.48-1.879,6
	c-1.681,2.521-2.44,3.64-3.48,4.72s-1.479,5.601-3.439,0.16c-1.959-5.439-2.561-5.24-3.959-8.2c-1.4-2.96-2.521-3.92-3.722-5.88
	c-1.199-1.96-1.761-1.319-2.239-3.12c-0.48-1.8-1.4-1.399-0.561-2.88c0.839-1.479,0.761-1.479,0.92-2c0.16-0.52,0.24-1.68,0.32-2.72
	s0.479-3.2,0.24-5.12c-0.24-1.92-1.521-4-1.121-1.96s0.24,4.2-0.119,6.48c-0.36,2.279-1.16,4.12-1.84,5.92
	c-0.681,1.8-1.281,3.92-2.44,5.52c-1.16,1.601-1.399,2.601-2.56,5.72c-1.162,3.12-2.641,5.24-3.641,6.32s-1.32,4.12-3.4,0.4
	c-2.08-3.721-3.959-5.84-4.64-9.08s-1.801-4.96-2.881-7c-1.079-2.04-1.399-2.76-1.319-3.521c0.08-0.76,0.961-0.88,0.12-1.56
	s-1.12-0.24-1.601-0.84c-0.479-0.601-0.56-1.16-0.56-0.601c0,0.561,0.76-0.08-1,0.801c-1.76,0.88-1.96,1.199-2.04,1.399
	c-0.08,0.2,0.293,1.026-0.24,2.626c-0.533,1.601-2.066,2.8-2.733,3.934c-0.667,1.133-3.533,8.333-4.4,10
	c-0.867,1.667-3.667,5.399-4.133,5.133c-0.467-0.268-2.867-2.268-4.133-4.866c-1.267-2.6-1.8-5.8-2.867-8
	c-1.066-2.2-2.066-4-2.467-5.2c-0.4-1.2-1.133-2.2-0.867-3.467c0.267-1.267-0.267-0.733-0.267-2s0.133-1.667,0.467-2.4
	c0.334-0.732-0.2-2-0.333-1.532c-0.133,0.466-0.733,2.8-0.6,4.199c0.133,1.4,0.533,3.4,0.6,3.733s0.333,2.533,0.333,2.533
	s-0.533,1.066-1,2.2c-0.467,1.133-0.667,2.066-2.133,2.934c-1.467,0.866-2.867,1.933-2.867,1.933s1-2.133,1.8-4
	c0.8-1.866,1-2.933,1.267-4.732S161.43,41,161.697,39c0.267-2,0.2-1.533,0.267-3.4c0.066-1.867-0.4-3.2-0.467-3.934
	c-0.066-0.733-1.333-1.867-1-1.4s0.8,4.268,0.934,5.2c0.133,0.933-0.467,2.2-0.8,4.267s-1,5.733-1.133,6.333
	c-0.133,0.601-1.4,2.534-2,4.2s-1.933,5.667-2.4,6.667c-0.467,1-2.4,4.2-2.4,4.2s-1.4-1.467-3.067-3.667s-3.333-5.2-4.533-8
	c-1.2-2.8-1.867-3.467-2.333-6.2c-0.466-2.732-1.066-1.934-0.933-3.8c0.133-1.867,0.4-1.534-0.2-3.4
	c-0.6-1.865-0.667-2.065-0.4-2.866s0.067-1.667-0.467-1c-0.533,0.667-0.466,2-0.267,2.934c0.2,0.933,0.667,2.267,0.667,3.8
	c0,1.534,0.333,2,0.534,3.467c0.2,1.468,0.466,1.934,0.933,3.333c0.467,1.4,1.8,4.601,1.8,4.601l-0.934,2.2c0,0-0.867-1.066-2-1.801
	c-1.133-0.733-2.333-2.066-2.333-2.066s0.2-2,0.934-3.733c0.734-1.732,0.867-2.065,0.867-2.8s-0.6-3.4-0.934-4.4
	c-0.333-1-1.333-3.133-1.333-3.133s0.8,2.733,1.133,4.867c0.333,2.133,0.467,2.8-0.6,5.6c-1.067,2.801-1.133,3.935-2.667,8.333
	c-1.534,4.4-3,7.533-3.4,8.468c-0.4,0.933-1.133,3.065-2.133,0.8c-1-2.267,0.667,0.2-2.267-5c-2.933-5.2-6-8.467-7.333-10.8
	s-2-1.935-1.8-4.134c0.2-2.199,0.333-2.267,0.067-3.533c-0.267-1.268-0.8-1.801-0.867-0.733c-0.067,1.066,0.267,7.533,0.533,7.933
	c0.266,0.4,2.8,3.468,3.267,4.134c0.467,0.666,4.133,6.199,4.8,6.934c0.667,0.733,2,3.933,2,3.933s-1.667-0.399-3.667-1.467
	c-2-1.065-3.867-1.867-5.667-2.267c-1.8-0.4-2.133,1.732-1.867-0.4s0.933-7.267,0.867-8.333c-0.067-1.065-0.4-2.399-0.867-4
	c-0.467-1.6-1-3.8-1.133-4.065c-0.133-0.267-0.6,0.532-0.333,1.199s1.534,5.601,1.534,7.134s-1,5.199-1.2,8.934
	c-0.2,3.734,0.467,3-0.867,6.8c-1.333,3.8-2.6,4.268-2.6,4.268s-1.333-0.2-2.667-3.801c-1.334-3.6-1.133-4.467-4.133-7.133
	s-3.333-2.133-4.6-4.267s-2.667-3.8-2.4-2.8s3.066,5.467,3.533,5.8c0.467,0.333,1.934,1.2,3.267,2.533s3.667,4.6,3.934,5.866
	c0.267,1.268,3.2,4.733,3.466,4.801c0.267,0.066,0.133,0.732,1.467-0.801c1.196-1.375,1.904-4.132,2.237-5.865
	c2.2,2.866,0.029-0.135,0.029-0.135s4.8,4.733,4.267,8.667c-3.867,0.534-6.733,0.067-9.533-0.199c-2.8-0.268-5.467,0-7,0.133
	s-1.333,0.333-1.4-2.467c-0.067-2.801,0.133-6-0.267-8.533s-1.267-3.935-1.8-4.935c-0.533-1-0.667-0.399-0.667-0.399
	s1.733,5.667,1.934,6.867c0.2,1.199-0.2,8.667-0.2,9.467s0.066,1.933-0.133,3.333c-0.2,1.399-0.8,3.134-1.133,3.333
	c-0.333,0.2-0.333,1.267-3.067-2c-2.734-3.268-2.533-3.2-4.533-4.4s-2.8,0.268-4.533-2.066c-1.733-2.333-2.467-4.066-2.467-4.066
	s0.4,3.066,1.2,4.066c0.8,1,2.267,2.133,3.733,2.934c1.467,0.8,4,2.467,6.134,5.133c2.133,2.667,3.8,4.133,4.733,2.333
	c0.934-1.8,0.8-6.2,0.8-6.2c4.267,3.801,3.467,2.533,6.533,5.333c3.067,2.801,2.467,4,3.4,6.2c0.934,2.2-1.333,2-6.933,2
	s-5.867,0-8.867,0.534c-3,0.533-3.6,1-4.667,0.4c-1.067-0.601-2.467-1.134-2.467-1.134s-0.467,0.601,1.133,1.4
	c1.6,0.8,4.333,0.533,4.933,0.533s1.6,0.732,2.733,1.399c1.133,0.667,6.2,3.867,7.467,4.867s2.2,2.935,2.533,3.333
	c0.333,0.4-0.467,0.268-3.667,1.066c-3.2,0.8-5.133,0.8-8,1.399c-2.867,0.601-3.867,1.601-5.8,1.134
	c-1.933-0.468-3.133-0.733-3.6-0.867c-0.467-0.133-0.667,0.667-0.667,0.667s0.667,0.066,2.133,0.533
	c1.467,0.467,2.067-0.467,3.267,1c1.2,1.467,1.466,2.533,1.466,2.533s-1.4-0.6-2.066-0.866c-0.667-0.268-1.333-1.067-3.267-1.134
	s-2.267,0.601-3.267,0c-1-0.6-0.866-1.066-1.866-1.667c-1-0.6-2.134-0.133-2.134-0.133s2.8,2.133,3.467,2.333s3.2,0.333,4.067,0.601
	c0.867,0.267,4.267,1.466,4.933,1.8c0.667,0.333,3.2,2.2,5.133,3.867c1.934,1.667,3.934,3.532,4.267,3.8
	c0.333,0.267-0.2,0.867-4.066,1.2c-3.866,0.333-8.6,1.267-10.133,1.399s-4.2-0.466-4.667-0.667c-0.466-0.2-0.667-2.133-0.667-2.533
	c0-0.399-0.4-1.667-1.2-4.732c-0.8-3.067-2.2-5.268-2-4.733c0.2,0.533,1.133,4.268,1.4,5.733c0.267,1.466,0.6,6.267,0.867,7.533
	c0.267,1.266-0.4,2.467-1.2,1.8c-0.8-0.667-0.467-0.533-2.133-1.066s-3.133-0.533-3.6-1.333c-0.467-0.8-1.333-1.933-1.333-1.933
	s1.066,2.333,2.533,3.467c1.467,1.133,2.066,2,3.133,2.2c1.066,0.2,3.467,0.6,3.467,0.6s0.066-2.2,0.133-2.867
	c0.066-0.667-0.133-1.933-0.133-1.933s1.267,2.6,2.4,3.133s2.933,2.601,3.066,2.867c0.133,0.267,1.133,1.466,2.867,3
	c1.733,1.533,3.934,4.733,3.934,4.733s-2.4,0.6-5.534,1c-3.133,0.399-2.866,0.199-4.667,1.066c-1.8,0.867-3.333,1.867-4.133,1.533
	c-0.8-0.333-0.867,1.133-0.467-1s0.467-3.133,0.4-3.533c-0.067-0.399-0.333-0.533-0.733-3s-0.467-2.667-0.934-3.8
	c-0.467-1.134-2-2.467-2-2.467s1.267,3.867,1.8,5.8c0.533,1.934,1.267,4.267,1.066,5.533c-0.2,1.267-0.867,1.934-1.2,2.934
	s-0.267,1.8-1.4,0.533s-0.333-0.867-1.8-1.6c-1.467-0.733-3.6-2.601-3.6-2.601s-0.733,0.8,0.733,1.733
	c1.467,0.934,1.867,1.399,3,2.2c1.133,0.8,2.467,0.6,4,1.8s5.6,5.333,6.133,5.732c0.533,0.4,2.133,2.2,1.467,2.067
	c-0.667-0.133-5.067-0.133-6.733,0.6c-1.666,0.733-2.6,1.268-2.6,1.268s-0.133-1.667-0.933-4s-0.934-2.8-1.667-4.4
	c-0.733-1.6-2.466-3.399-2.466-3.399s1.4,3.533,1.8,4.133s2.333,5.732,2.4,6.399c0.067,0.667,0.2,3,0.2,3s-0.533-0.667-1.2-0.8
	s-0.133-0.133-1.8,0.133c-1.667,0.268-1.934,0.468-2.6,0.268c-0.667-0.2-1.467-0.4-0.533,0c0.933,0.399,2.333,0.8,3,1.134
	c0.667,0.333,1.667,0.466,3.133,2.466s2.8,3.4,3.4,4.133c0.6,0.733,1.6,1.601,1.067,1.601c-0.534,0-1.8,0.2-3.667,0.133
	c-1.867-0.066-1.733,0.067-3.2,0.267c-1.467,0.2-0.867-0.199-1-0.6c-0.133-0.4-0.2-0.2-0.733-2.2c-0.534-2-0.4-2.133-1.067-3.667
	s-1.133-1.667-1.6-2.066c-0.466-0.4-0.733-0.4-0.733-0.4s1.6,2.333,2.066,3.533c0.467,1.2,0.6,2.533,1,3.8
	c0.346,1.096,0.592,1.992,0.652,2.213c-0.059-0.056-0.302-0.105-1.252,0.12c-1.4,0.333-0.4,0.2-2.333,0.733
	c-1.934,0.532-2.934,1.467-1.8,1.199c1.134-0.267,2.2-0.667,2.934-0.732c0.733-0.067,1-0.067,1-0.067s-0.2,0.8,0.933,2.333
	s1.533,3,1.733,3.268c0.2,0.267-1.4,0.399-3.133,0.866c-1.345,0.362-1.526,0.443-1.664,0.492c0.107-0.13,0.186-0.433-0.002-1.092
	c-0.4-1.4-0.8-2.333-1.067-3c-0.267-0.667-0.867-0.733-0.467,0.067c0.4,0.8,0.733,3.065,0.8,3.6c0.066,0.533-0.267,2.333-0.2,2.6
	c0.067,0.268-1.533-0.333-1.533-0.333l-1-0.6l-0.4,0.467c0,0-0.467,0.2,0.267,0.601c0.733,0.399,1.733,1,1.733,1
	s0.667-0.2,0.267,0.399c-0.4,0.601-0.333-0.399-2.2,3.533c-1.867,3.933-3.933,7.066-5.6,10.467
	c-1.667,3.399-1.533,4.467-3.533,9.533s-0.733,6.134-4.533,8.733c-3.8,2.6-4.8,5.199-13.2,6.133s-9.867,3.533-15.533,0.667
	s-8.533-2.667-12.333-4.733c-3.8-2.065-5.867-4.133-5.867-4.133c-2.4-2-2.6-4.801,0.6-9.4c3.2-4.6,6-10,9.6-16.8
	s13.8-26.399,22.4-36.399c7.902-9.188,16.653-22.262,31.672-37.819c-0.831,3.484-1.72,7.156-2.071,9.02
	c-0.667,3.533-1.601,12.468-2.4,17.601s-4.2,29.267-5.933,36.867c-1.733,7.6-1.4,9.8-3.4,15.8s-2.867,6.967-4.867,10.101
	c-2,3.133-6.134,5.833-6.601,6.232c-0.466,0.399,5.667-1.8,7.934-4c2.267-2.199,3.733-6.399,5.4-10.066
	c1.667-3.666,1.867-4.467,2.6-6.199c0.733-1.733,1.066-4.866,2.133-10.2c1.066-5.333,3.066-14.533,4-21.934
	c0.933-7.399,1.933-13.267,3.2-21c1.267-7.732,3.333-20.2,4.066-25.133c0.22-1.477,0.415-2.85,0.581-4.052
	c3.297-17.047,12.067-49.67,22.09-61.018c10.6-12,30.4-24.399,45.4-28.199c10-2.2,15.8-0.801,22.2-1.4c6.4-0.6,12.6-2.6,14.8-2.6
	c4.2,0,5.6,8.199,7.799,8.199c2.2,0,6.601-8.399,9.802-8.399c6.198,0,7.198,3.6,14,3.399c6.799-0.199,14.799-2.6,25.198,0.801
	C247.634,7.6,274.037,19.8,285.634,43c10.285,20.57,13.496,28.722,16.322,46.756c-0.035-0.015-0.056-0.023-0.056-0.023
	s0.468,3.801,1.2,8.733s2.8,17.4,4.066,25.133c1.266,7.733,2.266,13.601,3.199,21c0.934,7.4,2.934,16.601,4,21.934
	s1.4,8.466,2.135,10.2c0.732,1.732,0.932,2.533,2.6,6.199c1.666,3.667,3.133,7.867,5.4,10.066c2.266,2.2,8.398,4.399,7.932,4
	s-4.6-3.101-6.6-6.232c-2-3.134-2.867-4.101-4.867-10.101s-1.666-8.2-3.398-15.8c-1.734-7.601-5.135-31.733-5.936-36.867
	c-0.799-5.133-1.732-14.067-2.398-17.601c-0.406-2.153-1.531-6.722-2.453-10.625c6.646,4.473,13.998,9.195,22.055,18.426
	c9.6,11,33.799,45,37.799,61.399s8.4,29.2,4,33.2C366.236,216.798,355.835,219.6,345.835,218.4z M75.036,158.733
	c0,0-0.005-0.02-0.014-0.054C75.049,158.706,75.036,158.733,75.036,158.733z M71.303,166.933c0.06-0.015,0.096-0.025,0.136-0.041
	C71.319,167.039,71.162,166.968,71.303,166.933z M24.286,213.65c4.5,1.301,7.6,1.7,11.35,0.351c3.75-1.351,9.35-1.649,11.55-2.55
	c0.638-0.262,1.694-0.929,2.871-1.74c0.83,0.901,2.037,2.077,3.76,3.487c4.299,3.519,12.295,9.242,15.823,15.068
	c3.527,5.825,4.948,19.821,5.173,23.502c0.225,3.682,2.121,19.777,3.693,27.724c1.305,6.597,2.938,14.638,4.379,20.106
	c-9.576-5.83-19.57-9.022-29.564-15.998c-12.897-9-30.892-16.2-36.591-33S5.333,235,2.934,225.7
	c-2.399-9.301-6.049-18.75,2.049-22.649c9.7,7.949,7.803,6.449,11.103,7.35C19.386,211.3,19.786,212.35,24.286,213.65z
	 M90.871,305.3c-3.522-8.696-6.58-16.601-7.258-19.733c-1.635-7.55-4.177-22.129-5.147-28.764
	c-0.97-6.634-2.346-23.458-4.357-28.638c-2.011-5.181-8.159-9.801-13.58-13.902c-3.328-2.518-6.008-5.059-7.582-6.646
	c1.949-1.46,3.588-2.768,3.588-2.768c5,3.399,13.15,9.45,17,12.55c3.85,3.101,7.35,6.75,7.85,8.4c0.5,1.649,1.75,1.8,2.7,1.35
	c0.95-0.449,2.2-1.5,2.2-1.5s0.1,1.601-0.75,2.801c-0.85,1.199-1.6,2.8-1.95,3.351c-0.35,0.55-0.2,1-0.2,1s1.25-1.5,1.5-2
	s1-1.75,1-1.75c0.95,0.25,3.5,0.399,4.25,0.75c0.75,0.35,0.6,0.75,0.6,0.75s-0.7,0.149-2,0.899c-1.3,0.75-1.8,1-2,1.101
	c-0.2,0.1-1.15-0.101-1.85,0.199c-0.7,0.301-1.4,0.649-1.4,0.649l-0.3,0.25c0,0,0.4-0.199,1.7-0.399c1.3-0.199,1.9-0.399,2.4-0.5
	s1.6-0.3,1.6-0.3s-0.65,1.351-1.7,3c-1.05,1.649-0.95,2.699-2.1,3.699s-1.7,1.5-1.7,1.5s-0.25,0.65,0.95-0.1s1.1-0.301,1.9-1.801
	c0.8-1.5,1.15-2.3,1.3-2.5c0.15-0.199,1.1-1.75,1.1-1.75c1,0.301,4.35,0.351,5.45,0.351s1.45,0.05,1.3,0.3
	c-0.15,0.25-1.4,1.65-2.7,2.65c-1.3,1-2.1,1.449-2.1,1.449l1.1,0.399c0,0-0.05,1.2-0.7,1.95s-2.15,0.899-2.95,3.5
	c-0.8,2.601-0.35,4.3-1.75,4.7c-1.4,0.399-1.65,0.149-1.65,0.149s-0.25,1-0.05,1s0.35,0.949,2-0.301s1.8-0.6,2-2.6
	s0.8-4.352,1.4-4.801s1-0.351,1-0.351s-0.05,1.4,3.15,0.8c3.2-0.6,4.5-1.55,4.85-1.6s-1.95,3.45-3.5,5.5
	c-1.55,2.05-2.9,2.6-3.95,4.6c-1.05,2-2.55,5.25-2.9,6.2c-0.35,0.95-0.7,2-1.3,2.05c-0.6,0.051-1-0.05-1-0.05s-0.45,0.5-0.25,0.65
	c0.2,0.148,1.75,0.25,1.75,0.25s0.6-0.301,1.6-1.75c1-1.45,1.55-5.102,2.8-6.602c0.4-0.449,1.1-1.25,1.1-1.25s0.4,0.4,1.35,0.65
	c0.95,0.25,1.45,0.35,3.95-0.101c2.5-0.449,4.05-0.199,4.8-0.199s-0.35,1.699-2.45,3.6c-2.1,1.901-4.15,4.15-4.6,4.75
	c-0.45,0.601-1.55,4.25-1.75,5.3c-0.2,1.051-0.15,4.352-1.55,5.5c-1.4,1.15-2.45,2.602-2.45,2.602s4.1-2.551,4.2-4.051
	s0.4-3,0.65-4.149s0.85-3.351,0.85-3.351s-1.35-0.851,2-0.301c3.35,0.551,2.6,1.15,5.65,0.551c3.05-0.601,2.9-0.351,5-0.551
	c2.1-0.199,2,0.051,2,0.051s-0.65,1.399-2.45,3.051c-1.8,1.648-3.75,2.6-4.75,3.55s-2,1.2-2.05,2.25
	c-0.044,0.937,0.108,1.753-0.318,3.016c-0.817,0.106-0.459,0.068-0.006,0.019c-0.051,0.148-0.108,0.304-0.176,0.467
	c-0.65,1.55,0.3,3.649-1.6,4.2c-1.9,0.55-0.95,0.648-2.65,0.5c-1.7-0.15-3.55,0.398-0.6,0.398c2.95,0,2.7,0.7,3.9-0.398
	c1.2-1.102,1.15-0.95,1.3-2.5c0.15-1.551,0.55-2.75,0.55-2.75s-0.388,0.045-0.724,0.083c0.002-0.006,0.004-0.012,0.006-0.019
	c0.484-0.063,1.38-0.175,2.918-0.365c6.05-0.75,4.2-0.55,6.85-1.55s7.45-1.149,7.45-1.149s0.45,0.399-2,2.6
	c-2.45,2.2-2.65,2.15-4.3,4.051c-1.65,1.899-3.1,4.601-3.1,4.601s-2.35,0.199-2.7,0.3c-0.35,0.101-0.7,1.05-0.5-0.8
	c0.2-1.851,0.45-3.2,0.1-3.95c-0.35-0.75-1.1-2.05-1.1-2.05s-1.4,2.199-2.2,3.399c-0.8,1.199-2.15,3.5-2.65,4s-1.6,1.449-2.05,1.75
	c-0.45,0.3-0.8,0.851-0.3,0.5s2.7-2.2,3.05-2.601c0.35-0.399,0.85-1,1.45-1.851s1.3-1.649,1.7-2.25c0.4-0.601,1-1.55,1-1.55
	s0.95,0.75,0.75,2.101c-0.2,1.35-0.25,3.05-0.2,3.3s0.35,2.649,0.3,4.55c-0.05,1.9-0.25,4.75-0.3,4.95s0.7-1.601,0.75-2.399
	c0.05-0.801,0.3-2.649,0.2-3.851c-0.1-1.2-0.15-2.55-0.15-2.55s-0.45-0.301,1.8-0.301s0.4,0.801,2.75-0.5
	c2.35-1.3,3.25-1.55,5.3-2.649c2.05-1.101,2.55-1.3,4-2.3c1.45-1,2.7-1.75,2.7-1.351s-2,4.05-2.9,6.75c-0.9,2.699-1.6,4.351-2.9,5.8
	c-1.3,1.45-3.95,3.351-3.95,3.351s-0.9-0.851-1-1.649c-0.1-0.801-0.8-2-1.4-3.25c-0.6-1.25-1.15-1.45-1.15-1.45
	s-0.95,0.45-1.2,1.149c-0.25,0.7-1,3.15-1.2,4.4c-0.2,1.25-0.4,2.3-0.85,3.05c-0.45,0.75-2.15,3.149-2.15,3.149
	s1.85-0.75,2.45-1.601c0.6-0.85,1.35-2.8,1.55-3.95c0.2-1.148,0.8-4.148,1.1-4.648s0.9-0.301,1.4,1.25
	c0.5,1.55,1.15,3.398,1.25,4.648s0.25,3.9,0.85,6.551c0.6,2.649,0.95,4.101,0.4,5.399c-0.55,1.299-0.65,2.101,0.35,0.95
	s1.65-1.601,0.8-3.95c-0.85-2.349-0.9-5.75-0.95-6.75c-0.05-1-1.35-1.5-0.15-2.149c1.2-0.649,2.15-1.649,3.05-2.601
	s3.1-3.45,3.2-3.8c0.1-0.351-0.25-0.25,1.5-0.95s3.25-1.5,3.7-1.95c0.45-0.449,0.9-1.1,0.2,1.551c-0.7,2.649-2,4.399-1.9,6.601
	c0.1,2.2,0.1,3.8-0.3,4.7c-0.4,0.898-0.35,1.199-0.65,1.3c-0.3,0.1-0.5-0.25-1.3,0.1c-0.8,0.352-1-1.699-1.45,0.9
	s-1.75,6.8-2.05,8.399c-0.3,1.601-1.85,3.051-2.05,3.101c-0.2,0.05-0.05,1.95,1,0.649c1.05-1.301,1.7-2.649,2.25-4.601
	c0.55-1.951,1.5-5.3,1.7-6.05c0.2-0.75,0.95-1.65,1.2-1.55c0.25,0.1,1.75-0.25,2.85,2.699s1.15,5.551,1.2,6.199
	c0.05,0.65,2.8,6.602,2.45,8.4c-0.35,1.799,0.05,2.649-1.35,3.45c-1.4,0.8-1.45,1.699,0.1,0.8c1.55-0.9,2.15-0.9,2.45-2.2
	s0.65-2.1-0.35-4.8s-1.2-4.45-1.9-6.9c-0.7-2.449-1.55-4.75-2.05-6.1c-0.5-1.351-1.35-2.8-1.35-2.8s2.95-2.5,5.5-5.65
	c2.55-3.149,2.5-3.649,4.45-5.149c1.95-1.5,2.5-2.051,2.5-2.051s0.6,1.75,0.55,4.5c-0.05,2.75,0.1,2.45,0.05,5.95
	c-0.05,3.5-0.15,4.75-0.25,7.55c-0.1,2.801-0.1,4.4,0,4.7s0,1.101-0.75,2.55c-0.75,1.45-1.15,2.9-2.3,4.25
	c-1.15,1.352-1.9,1.301-2.35,2.75c-0.45,1.45-1,2.352-0.85,4.2c0.15,1.85,0.15,3.7,0.15,4.65c0,0.949-0.2,2.398-0.2,2.398
	s0.85-1.5,0.95-3.85c0.1-2.351-0.8-2.5,0.25-4.45c1.05-1.95,1.8-3,3.6-5.649c1.8-2.649,2.9-5.399,3.05-6.551
	c0.15-1.148,1.55-2.3,1.9-2.8s0.95-1.2,0.95-1.2s0.4,0.2,1.3,1.301s2.8,3.899,3.15,5.601s3.45,7.25,4.35,9.05s2.85,1.55,2.9,5.2
	c0.05,3.649-0.45,4.05-1.15,4.899c-0.7,0.851-2.05,3-0.65,1.899c1.4-1.1,2.65-2.8,2.8-4.899c0.15-2.101-0.05-3.25-0.75-4.449
	c-0.7-1.2-1.45-2-1.75-2.65c-0.3-0.649-3.85-7.55-4.35-8.7c-0.5-1.148-3.1-5.85-3.85-7.05s-1.35-1.35-1.15-1.6
	c0.2-0.25,3.8-5.95,4.6-7.801s3.05-3.801,3.85-4.551c0.8-0.75,0.55-2.5,1.2-1.449c0.65,1.051,2.35,8.101,2.15,10.649
	c-0.2,2.55-0.6,7.601-0.6,7.601s2.65,3.551,2.7,5c0.05,1.449,0,2.449-0.6,3.551c-0.6,1.1-2,4-2.05,4.449
	c-0.05,0.449-0.25,1.101,0.1,0.551c0.35-0.551,1.25-2.352,1.5-2.7c0.25-0.351,1.05-1.851,1.05-1.851l0.4-0.301
	c0,0,0.55,0.9,1.05,1.801c0.5,0.899,0.9,1.851,0.9,1.851s0.55-0.351,0.2-1.05c-0.35-0.7-0.65-1.2-0.8-1.602
	c-0.15-0.398-0.5-1.5-0.55-1.8s0.5-3.6,1.3-4.55c0.8-0.95,1.4-2.65,2.4-5c1-2.351,2.75-5.65,4-7c1.25-1.351,2.45-2.65,2.45-2.65
	s0.9,0.5,1.6,2.4c0.7,1.899,1.45,7.8,1.8,8.8c0.35,1,1.15,4.3,1.8,6.601s0.25,4.199,0.2,5.101c-0.05,0.899,0.6,2.8-0.6,0.95
	c-1.2-1.852-3.55-5-5.1-6.301c-1.55-1.301-2.35-2.149-2.35-1.851s-0.4,1.3-2.15,3.7c-1.75,2.399-1.95,2.2-2.55,3.85
	c-0.6,1.65-0.4,1.602-1.3,3.551s-0.4,1.25-1.7,2.101c-1.3,0.85-1.4,0.899-1.5,1.85c-0.1,0.951-0.35,2.102-0.25,1.852
	s0.55-1.5,1.6-2.25c1.05-0.75,1.7-0.95,2.3-2.2c0.6-1.25,0.1-0.649,1.15-3c1.05-2.351,1.3-2.351,2.35-3.851
	c1.05-1.5,1.65-1.75,2-2.449c0.35-0.7,0.4-1.15,0.4-1.15s1.35,0.75,2.45,1.9c1.1,1.148,1.35,0.648,2.4,2.699
	c1.05,2.051,1.35,2.5,1.7,3.199c0.35,0.7,1.7,1.65,1.7,1.65s0.05,0.8,0.15-0.65c0.1-1.449,0.1-1.699,0.1-3.398
	c0-1.7-0.05-2.352-0.05-2.352s0.3,0.9,2.2,1.25c1.9,0.352,2.25,0.9,4.05,0.301c1.8-0.601,2.65-1.5,2.65-1.5s0,0.25-0.2,0.949
	c-0.2,0.7-0.2,1.4-0.7,2.852c-0.5,1.449-0.6,1.85-1.1,2.85s0.2,3.051,0.2,3.051s-0.3-1,0.1-1.75s1-1.801,1.2-2.5
	c0.2-0.7,0.25-1.101,0.4-1.601c0.065-0.217,0.205-0.996,0.359-1.892c0.202-1.172,0.428-2.542,0.541-3.108
	c0.2-1,1.65-3.851,2.45-5.149c0.8-1.301,1.55-2.45,1.949-4.301c0.4-1.85,1.5-5.949,2.051-6.699c0.55-0.75,1.55-2.551,1.55-2.551
	s3.25,4.801,3.899,8.101c0.65,3.301,0.2,4.101,1.301,6.899c1.1,2.801,1.75,4.351,1.899,4.801c0.149,0.449,0.5,1.449,0.5,1.449
	s-1.351,5.5-1.3,6.45c0.05,0.95-0.851,0.95-0.851,0.95s-0.899,0.1-2.649-1.851c-1.75-1.951-1.5-0.5-3.3-3.399
	c-1.8-2.9-1.2-2.801-2.55-3.801c-1.351-1-0.5-1.449-2.101-0.8c-1.6,0.649-0.9-0.101-1.6,0.649c-0.7,0.75-0.6,1.101-0.6,1.101
	s1.4-1.051,2.45-0.5c1.05,0.55,2.15,1,2.95,2.399s1.65,3.351,2.75,4.3c1.101,0.95,3.101,2.351,3.9,2.9
	c0.801,0.55,1.6,1.3,1.898,0.55c0.3-0.75,1.352-2.351,1.5-4.649c0.15-2.301,0.301-4.149,0.451-4.5
	c0.149-0.351-0.601,0.351-0.25-2.801c0.35-3.15,1.299-5.05,2.25-7c0.949-1.949,1.699-6.75,3.1-9s3.352-6.1,3.801-6.399
	s-0.449-2,1,0.25s2.35,6.601,4.148,9.551c1.801,2.949,2.301,3.699,3.701,5.649c1.399,1.949,1.25,3.351,1.399,3.899
	c0.149,0.55,0.55,3.55,0.3,4.3s-1.199,2.101-1.199,2.101s-0.201,1.351-0.801-0.5c-0.601-1.851-1-3.75-2.351-5.851
	c-1.351-2.1-0.899-2.149-2.75-3.149s-2.5-1.649-2.5-1.649s-0.05,0-1.25,1.55c-1.199,1.551-1.851,1.7-2.5,3
	c-0.649,1.301-0.3,0.95-1.75,3.4c-1.449,2.449-1.3,2.35-1.55,3.35s-1.45,2.851-2.2,5.351s-2.8,6.7-2.55,8.2s0.9,3.149,0.9,3.149
	s-0.352-2.7,0.25-4.399c0.6-1.7,2.5-6.25,3.049-7.45c0.551-1.199,1.451-4,2.601-6.399s2.95-5.5,3.899-6.7
	c0.951-1.199,1.301-1.699,1.301-1.699s2.949,1,4.05,3.55c1.101,2.551,1,4.149,2.649,6.601c1.65,2.451,2.851,3.2,4.201,4.95
	c1.35,1.75,2.6,1.85,2.199,4.5c-0.4,2.649-1.602,4.3-1.352,4.25c0.25-0.051,1.051-0.301,1.65-1.7s1.1-2.5,0.6-4.05
	c-0.5-1.551,0.602-0.25-1.35-2.75s-3.15-4.2-3.15-4.2s0.15-1,0.5-2.399c0.352-1.399,0.5-1.649,0.352-3.051
	c-0.15-1.399-0.25-1.699-0.449-3.05c-0.201-1.351-0.301-1.649-0.301-1.649s0.801-0.45,0.949-4.149c0.15-3.7-0.5-4.25,0.051-7.75
	s0.25-4.75,0.949-6.15c0.699-1.399,1.051-2.1,1.051-2.1s2.148-0.051,3.898,2.649c1.75,2.699,2.701,5.101,3.451,6.449
	c0.75,1.35,2.35,3.95,2.75,4c0.399,0.051-0.75,1.15-1.4,2.2c-0.648,1.05-3.449,6.8-3.551,7.25c-0.1,0.45,0.15-0.149-0.898,2.45
	c-1.051,2.6-3.352,5.449-3.051,6.399c0.301,0.949,0.051,2.8,0.449,3.101c0.4,0.3,0.701-1.801,0.602-2.65
	c-0.102-0.85,0.801-2.399,1.551-3.8c0.75-1.399,1.5-3.649,2.648-6.351c1.15-2.699,2.352-5.05,3.5-6.8
	c1.15-1.75,1.25-1.75,1.852-2.801c0.6-1.05-0.551-3.05,0.648-0.149c1.199,2.899,1.051,2.75,2.449,5.45
	c1.4,2.699,0.801,0.3,1.75,3.601c0.951,3.3,0,1,1.25,3.649s1.201,3.5,1.25,2.8c0.051-0.699,0.201-0.699-0.5-2.949
	c-0.699-2.25-0.648-0.351-1.1-3.101s0-1.551-1.351-4.801s-0.449-1.85-1.699-3.899s-1.2-2.101-1.649-2.699
	c-0.451-0.601-0.551-0.65-0.551-0.65s-0.9-0.949-1.101-0.149c-0.199,0.801-0.399,1.75-0.399,1.399c0-0.35-0.4-3.199-0.449-4.05
	c-0.051-0.851-0.701,0.05-0.601-2.75s0.55-4.5,0.55-4.5s1.149-0.149,3.301,1.851c2.15,2,2.649,2.25,4.35,4.149
	c1.699,1.899,3.352,2.899,3.352,2.899s-0.951,2.101-1.25,4.649c-0.301,2.55-1.051,5.101-1.15,6.25c-0.1,1.15-0.1,0.801-0.2,1.9
	s-0.25,2.55-0.05,1.949c0.199-0.601,0.9-3,1.25-5.449c0.351-2.45-0.1-1.5,0.449-3.65c0.551-2.149-0.149-0.75,0.851-3.699
	c1-2.95,1-3.149,1.801-4.25c0.8-1.101,0.851-1.101,0.851-1.101s1.449,2.649,2.85,4.55s0.352,0.7,2.551,3.4
	c2.199,2.699,0.85,0.149,3.25,3.699c2.398,3.551,2.199,5.301,2.449,5.2s1,0.149,0.551-1.351s0.85-0.75-1.25-3.149
	c-2.102-2.399-1.102-1.25-3-3.25c-1.9-2-1.25-0.25-2.75-3.2c-1.5-2.949-1.199-2.55-2.102-4.3c-0.898-1.75-1.148-2.101-1.648-2.801
	c-0.5-0.699-0.801-1.05-0.801-1.05s-1.949,2.05-2.148,3.351c-0.201,1.3-0.65,0.649-1.051-0.2c-0.4-0.851-1.602-3.101-2.852-5
	s-1.699-1.851-2.199-4.199c-0.5-2.351-0.75-3-0.75-3s3.301,1.149,5.4,1.699c2.1,0.551,2.949,1.101,5.199,2s1.95,1.051,3.649,1.399
	c1.7,0.351,1.95,0.601,1.7,3c-0.25,2.4-0.35,4.45-0.35,5.25c0,0.801-0.102,3,0,3.551c0.1,0.55,0.799,2.601,0.799,2.601
	s0.301-0.301,0.15-1.601c-0.15-1.301,0.148-10.551,0.449-12.801s1.551-5.75,1.551-5.75s2.449,5.75,3.449,7s2.5,2.2,4.051,3.7
	s2.1,2.101,2.25,2.55c0.148,0.45,0.699,3.2,0.699,1.7s0.9-1.851-0.551-2.7c-1.449-0.849-1.1-1.55-2.549-2.55
	c-1.451-1-2.201-0.399-3.801-4.101c-1.601-3.699-2.949-6.75-2.949-6.75s-1.4,0.75-1.851,2.051c-0.45,1.3-1.051,4.3-1.051,4.3
	s-0.05-1.05-1.649-3.3c-1.601-2.25-2.3-2.301-2.9-3.65c-0.6-1.35-1.049-2.6-1.699-3.85c-0.648-1.25-2.801-1.851,2.5,0.149
	s6.9,1.851,7.4,1.949c0.5,0.1,4.199,0.551,4.199,0.551s0.301,6.351,0.5,8.699c0.2,2.35-0.199,2.65,0.35,2.95
	c0.551,0.3,1.852,1.05,2.451,1.05c0.599,0,1.699-0.6,1.299-0.6c-0.398,0-1.148,0.6-1.949-0.301c-0.801-0.899-0.85-0.199-1.148-2.649
	c-0.3-2.45-0.852-10.351-1-11.399c-0.15-1.051,0.049-4,0.049-4s-0.6-1.2,1.101,0.5c1.7,1.699,1.25,1.649,2.101,2.649
	s2.2,1.55,3.2,2.95c1,1.399,2.351,2.8,2.851,3.1c0.5,0.301,0.25-0.85,0.699,0.5c0.45,1.351,0.301,1.851,0.5,1.351
	c0.2-0.5,2.45-0.449,0.45-2.3s-2.601-1.5-4.149-3.75s-2.95-3.25-4.15-4.649c-1.199-1.399-3.648-2.301-3.648-2.301s0,3.25,0.049,3.75
	c0.051,0.5-0.649-0.5-0.799-0.899c-0.15-0.399-3.15-3.399-3.5-3.949c-0.352-0.551-1.301-3.051-1.301-3.051s0.199-0.351,2.35-0.05
	c2.15,0.3,3.451,0.851,5.201,0.899s2,0.05,3.648,0.351c1.65,0.3,2.352,0.399,2.352,0.399s0.85,2.149,0.949,2.899
	s0.399,3.101,0.449,4.101c0.051,1-0.1,3.2-0.05,3.55c0.05,0.351,0.45,0.551,0.45-0.149c0-0.699,0-5.8-0.4-7.351
	c-0.398-1.55-1.1-3.101-1.199-4.351c-0.101-1.25,0.1-5.1,0.1-5.1s3.15,1.85,4.701,3.649c1.549,1.799,2.35,2.449,2.85,3.8
	s0.4,0.95,0.65,2.5c0.25,1.551-0.352,2-0.451,2.45c-0.098,0.449,2.4-0.899,1.301-3.551c-1.1-2.649-4.7-7.3-6-7.949
	c-1.301-0.649-3.6-1.851-3.6-1.851s-0.102,4-0.4,3.5s-3.801-3.851-4-4.55c-0.2-0.7,1.4-0.75,2.5-0.7c1.102,0.05,4.699,0,6,0.3
	c1.3,0.301,1.602,1.101,1.352,0.45c-0.25-0.649-1.052-2.149-1.25-3.351c-0.201-1.199-0.201-2.05-0.201-2.05s1.149,0.351,2.101,1.25
	c0.95,0.899,1.55,1.5,2.101,2.199c0.551,0.7,1.949,1.65,1.601,1.101c-0.351-0.55-1.25-1.601-2.101-2.75s-0.949-1.449-1.699-2.399
	s-0.9-1.25-1.9-2s-1.45-1.5-1.45-1.5s4.351,0.601,5,0.601s1.45,0.199,1.45,0.199s0.9,2.601,1.4,3.5c0.5,0.9,1.75,3.551,1.75,3.551
	s-0.201-1.2-0.75-2.5c-0.551-1.301-1.25-2.851-1.551-3.551c-0.301-0.699-0.949-2.05-1.351-3.199c-0.399-1.149,0-1.051,0.851-0.7
	s3.351,1.149,3.899,1.301c0.55,0.149,3.851,1.25,3.851,1.25l0.801-0.601c0,0-3.852-1.25-5.102-1.649
	c-1.25-0.4-2.648-0.95-2.648-0.95s-1.451-2.8-1.5-3.649c-0.051-0.851-0.15-1.25-0.15-1.25s2.102,0.8,2.55,0.8
	c0.45,0,2.95,0.25,2.95,0.25s-0.1,0.801,0.4,1.5c0.5,0.7,0.898,1.801,1.1,2c0.2,0.2,0.55,0.899,0.2-0.351
	c-0.351-1.25-0.75-2.449-1.101-3.149c-0.351-0.699-0.75-1.199-1.101-2c-0.351-0.8-0.55-1.05-0.7-1.649
	c-0.148-0.601,1.999,0.207,3.7,1.2c0.601,0.35,0.55-0.051,1.2,0.75c0.65,0.8,1.25,1.35,1.25,1.35s-0.301-0.899-0.551-1.1
	s-1.5-1.5-1.75-1.601s-2.101-2.301-2.199-2.5c-0.1-0.2-0.4-0.899-0.4-0.899s1.45,0.199,1.95,0.199s1.2,0,1.55,0.101
	c0.352,0.101,0-0.95,0.5,0.2c0.5,1.149,0.551,1.3,0.75,2c0.2,0.699,1,2.8,1,2.8s0.301-0.95-0.449-2.601
	c-0.75-1.649-1.899-5.101-1.899-5.101s1.45,1.051,1.8,1.051c0.352,0,1.3,0.199,1.9,0.3c0.6,0.101,1.148,0.149,1.148,0.149
	s1.875-2,8.773-6.8c6.896-4.8,12.596-9.899,16.195-12.601c3.6-2.699,5.998-5.101,5.998-5.101c2.135,1.543,3.99,3.038,5.934,4.356
	c-1.729,1.266-5.793,4.131-10.313,6.544c-5.998,3.199-12.795,6.8-15.594,11.6c-2.798,4.801-6.796,21.2-8.795,27.601
	c-1.999,6.399-6.797,20.399-9.596,27.601c-2.252,5.793-16.147,27.896-23.368,39.857c-6.142,5.939-11.935,12.997-21.646,15.042
	c-11.398,2.399-37.791-0.601-41.99-2.399c-4.198-1.8-10.498-6.3-15.597-6.3c-5.099,0-9.297,4.5-17.096,6
	c-7.798,1.5-51.887-5.4-59.385-14.101c-7.498-8.701-12.896-22.2-12.896-22.2C91.032,305.432,90.951,305.368,90.871,305.3z"/>
</svg>
