<?xml version="1.0" encoding="utf-8"?>
<!-- Generator: Adobe Illustrator 16.0.0, SVG Export Plug-In . SVG Version: 6.00 Build 0)  -->
<!DOCTYPE svg PUBLIC "-//W3C//DTD SVG 1.1//EN" "http://www.w3.org/Graphics/SVG/1.1/DTD/svg11.dtd">
<svg version="1.1" id="Layer_1" xmlns="http://www.w3.org/2000/svg" xmlns:xlink="http://www.w3.org/1999/xlink" x="0px" y="0px"
	 width="338.253px" height="289.492px" viewBox="0 0 338.253 289.492" enable-background="new 0 0 338.253 289.492"
	 xml:space="preserve">
<path fill="#FFFFFF" d="M276.936,188.777c-39.142,0-98.788,0-98.788,0v100.715h-60.831V188.777H25.035L0,137.205h117.317V0h159.619
	c39.052,0,61.317,21.846,61.317,50.601s0,86.604,0,86.604C338.253,173.9,316.076,188.777,276.936,188.777z M276.936,65.98
	c0-11.66-4.847-15.379-16.163-15.379h-82.625v86.604c0,0,70.965,0,81.598,0c10.631,0,17.19-2.401,17.19-14.639
	C276.936,110.328,276.936,77.64,276.936,65.98z"/>
</svg>
