<?xml version="1.0" encoding="utf-8"?>
<!-- Generator: Adobe Illustrator 16.0.0, SVG Export Plug-In . SVG Version: 6.00 Build 0)  -->
<!DOCTYPE svg PUBLIC "-//W3C//DTD SVG 1.1//EN" "http://www.w3.org/Graphics/SVG/1.1/DTD/svg11.dtd">
<svg version="1.1" id="Layer_1" xmlns="http://www.w3.org/2000/svg" xmlns:xlink="http://www.w3.org/1999/xlink" x="0px" y="0px"
	 width="253.018px" height="258.975px" viewBox="0 0 253.018 258.975" enable-background="new 0 0 253.018 258.975"
	 xml:space="preserve">
<path fill="#FFFFFF" d="M197.493,228.722v-1.329c24.937-21.276,49.872-59.508,49.872-109.375C247.365,55.851,204.807,0,128.669,0
	C58.516,0,5.652,50.865,5.652,121.342c0,47.54,24.604,85.106,49.54,106.051v1.329H0v30.253h101.074v-23.604
	c-28.593-17.62-56.189-61.503-56.189-109.707c0-47.208,27.929-94.083,82.455-94.083c52.532,0,80.46,46.875,80.46,93.417
	c0,51.86-27.263,91.423-55.855,110.372v23.604h101.074v-30.253L197.493,228.722L197.493,228.722z"/>
</svg>
