<?xml version="1.0" encoding="utf-8"?>
<!-- Generator: Adobe Illustrator 16.0.3, SVG Export Plug-In . SVG Version: 6.00 Build 0)  -->
<!DOCTYPE svg PUBLIC "-//W3C//DTD SVG 1.1//EN" "http://www.w3.org/Graphics/SVG/1.1/DTD/svg11.dtd">
<svg version="1.1" id="Layer_1" xmlns="http://www.w3.org/2000/svg" xmlns:xlink="http://www.w3.org/1999/xlink" x="0px" y="0px"
	 width="301.574px" height="309.129px" viewBox="0 0 301.574 309.129" enable-background="new 0 0 301.574 309.129"
	 xml:space="preserve">
<path fill="#FFFFFF" d="M231.325,268.86c-18.435,7.126-40.457,10.69-66.07,10.69c-26.579,0-50.183-4.261-70.812-12.78
	c-20.632-8.52-36.652-22.051-48.065-40.59c-11.414-18.54-17.121-39.116-17.121-61.73c0-23.253,5.117-45.626,15.352-67.114
	c10.233-21.486,25.452-38.152,45.654-49.995c20.2-11.84,44.823-17.763,73.866-17.763c34.186,0,60.817,8.869,79.895,26.604
	c19.074,17.738,28.614,39.787,28.614,66.15c0,14.684-3.376,28.883-10.128,42.599c-6.751,13.72-15.593,24.651-26.524,32.794
	c-8.146,6.217-14.789,9.324-19.933,9.324c-1.716,0-3.19-0.668-4.421-2.01c-1.233-1.339-1.849-3.348-1.849-6.028
	c0-2.143,0.748-6.857,2.25-14.146l24.274-115.26h-42.439c0,0-3.058,6.585-12.146,5.427c-7.158-0.913-18.058-9.667-34.15-9.446
	c-26.793,0-48.764,12.647-65.909,37.938c-14.146,20.792-21.219,43.78-21.219,68.963c0,20.363,5.868,36.68,17.603,48.95
	c11.735,12.272,26.497,18.406,44.288,18.406c16.502,0,31.078-6.109,43.725-18.326c1.5,6.003,4.502,10.557,9.003,13.664
	c4.501,3.109,11.197,4.662,20.094,4.662c33.007,0,60.066-13.931,81.181-41.796c16.824-22.076,25.238-46.78,25.238-74.108
	c0-22.933-5.546-44.072-16.638-63.417c-11.093-19.343-27.143-34.266-48.146-44.77C215.784,5.252,191.779,0,164.773,0
	c-31.83,0-60.123,6.51-84.878,19.531C55.139,32.553,35.632,52.059,21.38,78.046C7.126,104.035,0,132.086,0,162.2
	c0,27.437,6.269,52.808,18.808,76.117c12.539,23.309,31.668,40.937,57.389,52.888c25.721,11.948,56.264,17.924,91.629,17.924
	c36.544,0,67.517-7.073,92.916-21.22c22.184-12.325,26.045-18.917,34.263-29.172l-19.152-21.947
	C264.6,251.042,249.755,261.731,231.325,268.86z M108.026,135.676c3.963-13.182,9.859-21.334,17.683-28.463
	c7.821-7.125,16.341-10.69,25.56-10.69c8.572,0,15.674,3.243,21.3,9.726c5.627,6.485,8.439,13.782,8.439,25.891
	c0,10.826-2.064,22.505-6.188,35.044c-4.127,12.539-12.03,22.079-17.709,28.614c-3.967,4.609-7.985,7.984-12.057,10.128
	c-5.36,3.001-11.092,4.501-17.201,4.501c-8.146,0-11.978-3.216-17.496-9.646c-5.521-6.431-8.279-16.45-8.279-30.062
	C102.079,160.54,104.06,148.858,108.026,135.676z"/>
</svg>
