<?xml version="1.0" encoding="utf-8"?>
<!-- Generator: Adobe Illustrator 16.0.0, SVG Export Plug-In . SVG Version: 6.00 Build 0)  -->
<!DOCTYPE svg PUBLIC "-//W3C//DTD SVG 1.1//EN" "http://www.w3.org/Graphics/SVG/1.1/DTD/svg11.dtd">
<svg version="1.1" id="Layer_1" xmlns="http://www.w3.org/2000/svg" xmlns:xlink="http://www.w3.org/1999/xlink" x="0px" y="0px"
	 width="215.378px" height="307.453px" viewBox="0 0 215.378 307.453" enable-background="new 0 0 215.378 307.453"
	 xml:space="preserve">
<path fill="#FFFFFF" d="M204.949,168.604c0,0-1.416-3.308-2.361-12.752c-0.943-9.445,3.307-23.142,3.307-23.142
	s-6.611,11.334-6.611,22.197c0,10.862,4.723,18.419,8.028,19.836s3.778,5.667,0.944,12.278s-12.279,11.808-21.252,11.808
	c-8.975,0-15.113,3.306-25.977,8.974c-10.861,5.667-5.105,11.809-5.195,14.168c-0.531,14.109-4.898,0.944-7.732,2.361
	c-2.833,1.417-4.723,2.834-4.723,2.834s-3.364-5.727-5.432-1.299c-1.439,3.086-3.07,1.003-4.191-3.896
	c-0.906-3.96-8.146,0-10.508,1.889c-2.361,1.891-3.397,2.484-4.781-1.063c-0.944-2.42-3.483-2.773-5.373-1.83
	c-1.799,0.9-5.063,1.844-5.372,1.932c0,0.002,0,0.018,0,0.018s-0.025-0.007-0.029-0.009c-0.004,0.002-0.03,0.009-0.03,0.009
	s0-0.016,0-0.018c-0.308-0.088-3.572-1.03-5.372-1.932c-1.889-0.943-4.428-0.59-5.372,1.83c-1.384,3.547-2.42,2.952-4.782,1.063
	c-2.361-1.889-9.602-5.849-10.508-1.889c-1.122,4.899-2.751,6.982-4.191,3.896c-2.066-4.428-5.431,1.299-5.431,1.299
	s-1.889-1.417-4.723-2.834c-2.834-1.417-7.203,11.748-7.734-2.361c-0.089-2.359,5.667-8.501-5.195-14.168
	c-10.862-5.668-17.002-8.974-25.976-8.974c-8.973,0-18.418-5.195-21.252-11.808c-2.834-6.611-2.362-10.861,0.944-12.278
	c3.306-1.417,8.029-8.974,8.029-19.836S9.485,132.71,9.485,132.71s4.251,13.696,3.306,23.142
	c-0.944,9.444-2.361,12.752-2.361,12.752C-2.794,153.018-3.637,83.096,9.013,54.312C25.3,17.252,57.161,0.958,107.66,0.001V0
	c0.01,0,0.02,0,0.03,0c0.01,0,0.02,0,0.029,0v0.001c50.499,0.957,82.36,17.251,98.647,54.31
	C219.016,83.096,218.171,153.018,204.949,168.604z M15.152,90.677c-0.292-0.146-0.499-0.302-0.664-0.458c0.392-2.172-1.15-1.084,0,0
	c-0.1,0.554-0.322,1.314-0.752,2.347c-2.361,5.667,1.417,6.612,1.417,10.39c0,3.778,0,14.168,0,14.168s3.778-12.751,4.25-17.474
	C19.875,94.927,17.986,92.094,15.152,90.677z M90.245,108.151c0,0-3.778-5.667-8.501-12.279c-4.723-6.612-6.612-1.889-17.002-0.944
	c-10.39,0.944-23.142,8.028-29.281,11.334c-6.139,3.306-11.807,14.168-10.39,20.78s0.944,6.612,2.833,17.474
	c1.889,10.863,7.084,10.863,14.641,12.751c7.557,1.89,28.809-10.862,38.727-15.585c9.917-4.723,6.139-15.113,8.973-22.669
	C93.078,111.458,90.245,108.151,90.245,108.151z M107.66,129.404c0-0.046,0-0.091,0-0.138c-0.479-1.099-4.05-8.613-8.442,0.61
	c-4.723,9.918-10.862,18.891-12.751,27.865c-1.889,8.973-10.39,24.086,2.361,27.392c12.099,3.137,18.234,1.172,18.832-0.65
	c0-0.096,0-0.197,0-0.293c0,1.889,6.14,4.25,18.892,0.943c12.751-3.306,4.25-18.419,2.361-27.392
	c-1.891-8.974-8.029-17.947-12.752-27.865C111.438,119.958,107.66,129.404,107.66,129.404z M179.917,106.262
	c-6.14-3.306-18.892-10.39-29.28-11.334c-10.392-0.945-12.279-5.667-17.003,0.944c-4.723,6.611-8.5,12.279-8.5,12.279
	s-2.834,3.306,0,10.862c2.832,7.557-0.944,17.947,8.973,22.669c9.918,4.723,31.171,17.475,38.729,15.585
	c7.556-1.89,12.75-1.89,14.64-12.751c1.89-10.862,1.417-10.862,2.834-17.474S186.058,109.568,179.917,106.262z M201.643,92.566
	c-0.431-1.033-0.653-1.793-0.753-2.347c1.148-1.084-0.393-2.172,0,0c-0.165,0.156-0.372,0.313-0.664,0.458
	c-2.834,1.417-4.723,4.25-4.251,8.973c0.474,4.723,4.251,17.474,4.251,17.474s0-10.39,0-14.168
	C200.226,99.178,204.003,98.233,201.643,92.566z M73.597,243.753c0.886-0.177,2.125-0.53,3.011-0.177
	c0.886,0.354,1.24-1.948,1.417,1.24c0.177,3.188,0.354,5.136,0.177,6.553c-0.177,1.417-0.177,1.417-1.24,2.125
	s-2.125,1.947-3.011,0.531c-0.886-1.418-1.417-3.896-1.24-5.49C72.888,246.941,72.711,243.932,73.597,243.753z M75.014,227.46
	c1.594-0.886,1.948,2.125,2.657,3.188c0.708,1.063,1.948,1.24,1.771,3.365c-0.177,2.125-0.354,4.604-0.354,6.375
	s-2.479,1.771-6.199,0.887c-3.719-0.887-1.948-6.199-1.948-7.616S73.42,228.346,75.014,227.46z M70.94,246.057
	c0,2.125-0.177,4.072,0,5.313c0.177,1.238,1.771,1.238,0.177,1.594c-1.594,0.354-2.125,0.354-3.011-1.24
	c-0.885-1.594-1.771-4.604-1.771-5.666c0-1.063,0.708-2.125,1.417-2.304c0.708-0.177,1.594-2.479,2.302-1.063
	C70.763,244.107,70.94,243.932,70.94,246.057z M68.284,240.211c0,0-0.708,0.709-1.594,0.532c-0.886-0.179-1.24-1.24-2.657-4.604
	c-1.417-3.365,0-4.959,0.708-7.438s2.656-0.354,3.719-0.177c1.063,0.177,1.063,2.303,0.885,3.365c-0.177,1.063,0,4.25,0.177,6.553
	C69.699,240.744,68.284,240.211,68.284,240.211z M103.527,243.4c1.948,0,3.542,1.416,2.833,8.322
	c-0.708,6.907-3.188,4.959-4.782,4.252c-1.594-0.709-1.063-1.949-1.771-4.252c-0.708-2.302-0.354-1.947-0.708-6.021
	C98.746,241.628,101.579,243.4,103.527,243.4z M99.1,223.209c1.948-2.125,7.379-0.616,7.379,4.428c0,4.428,0,3.188,0,7.084
	c0,5.668,1.24,6.73-4.9,6.907c-4.547,0.132-6.199-0.53-6.199-4.25c0-2.536-0.177-4.604,0.177-7.97
	C95.859,226.542,97.151,225.335,99.1,223.209z M94.849,243.753c2.657,0.354,1.771,4.074,1.771,6.022c0,1.947,0,4.957-1.417,7.438
	c-1.417,2.479-3.896,2.126-3.896,2.126s-1.594-6.198-1.948-8.679c-0.354-2.479,0.886-5.844,0.886-5.844S92.193,243.4,94.849,243.753
	z M89.477,225.275c2.361,2.834,2.657,7.558,2.657,10.392c0,2.833,0.708,5.785-4.015,6.258c-4.723,0.472-6.848,0.649-6.848-5.019
	c0-5.667,2.007-11.631,2.007-11.631S87.116,222.443,89.477,225.275z M85.64,255.443c-1.24,1.771-1.771,2.125-1.771,2.125
	s-1.24-0.531-2.125-1.594c-0.886-1.063-1.417-4.783-1.417-6.199s-1.24-5.489,0.354-6.021c1.594-0.531,2.48-0.885,3.719-0.708
	c1.24,0.177,1.594-0.177,1.594,1.595c0,1.771,0.531,2.656,0.354,5.313C86.171,252.609,86.879,253.671,85.64,255.443z
	 M135.052,249.775c0,1.416-0.532,5.137-1.418,6.199c-0.885,1.063-2.125,1.594-2.125,1.594s-0.531-0.354-1.771-2.125
	c-1.239-1.771-0.53-2.834-0.708-5.49s0.354-3.542,0.354-5.313c0-1.771,0.355-1.418,1.595-1.595c1.24-0.177,2.126,0.177,3.72,0.708
	C136.292,244.286,135.052,248.359,135.052,249.775z M125.902,225.275c2.361-2.832,6.198,0,6.198,0s2.007,5.964,2.007,11.631
	c0,5.668-2.125,5.49-6.848,5.019c-4.723-0.473-4.016-3.425-4.016-6.258C123.246,232.833,123.541,228.109,125.902,225.275z
	 M125.134,244.816c0,0,1.238,3.365,0.885,5.845s-1.947,8.679-1.947,8.679s-2.479,0.354-3.896-2.126
	c-1.416-2.479-1.416-5.489-1.416-7.438c0-1.947-0.887-5.668,1.771-6.021C123.186,243.4,125.134,244.816,125.134,244.816z
	 M111.851,243.4c1.947,0,4.781-1.771,4.428,2.302s0,3.72-0.708,6.021c-0.709,2.303-0.178,3.543-1.771,4.252
	c-1.594,0.707-4.073,2.655-4.781-4.252C108.309,244.816,109.903,243.4,111.851,243.4z M116.279,223.209
	c1.948,2.126,3.24,3.332,3.542,6.199c0.354,3.365,0.177,5.434,0.177,7.97c0,3.72-1.65,4.382-6.197,4.25
	c-6.14-0.177-4.899-1.239-4.899-6.907c0-3.896,0-2.656,0-7.084C108.9,222.593,114.332,221.084,116.279,223.209z M147.626,243.753
	c0.707,0.179,1.416,1.24,1.416,2.304c0,1.063-0.885,4.072-1.771,5.666c-0.886,1.596-1.417,1.596-3.011,1.24s0-0.354,0.177-1.594
	c0.179-1.24,0-3.188,0-5.313s0.179-1.949,0.886-3.365C146.033,241.275,146.917,243.577,147.626,243.753z M138.771,243.577
	c0.887-0.354,2.125,0,3.012,0.177c0.885,0.178,0.707,3.188,0.885,4.782c0.178,1.594-0.354,4.073-1.239,5.489
	c-0.886,1.418-1.948,0.178-3.011-0.53c-1.063-0.708-1.063-0.708-1.239-2.125c-0.177-1.417,0-3.365,0.177-6.554
	C137.533,241.628,137.884,243.932,138.771,243.577z M136.292,240.389c0-1.771-0.178-4.25-0.354-6.375s1.063-2.304,1.771-3.365
	c0.709-1.063,1.063-4.073,2.656-3.188c1.594,0.885,4.073,4.781,4.073,6.198s1.771,6.73-1.948,7.615
	C138.771,242.16,136.292,242.16,136.292,240.389z M146.917,228.523c1.063-0.178,3.011-2.304,3.72,0.177
	c0.708,2.479,2.125,4.073,0.708,7.438c-1.417,3.364-1.771,4.428-2.656,4.604c-0.886,0.177-1.594-0.532-1.594-0.532
	s-1.417,0.532-1.24-1.771c0.178-2.303,0.354-5.489,0.178-6.553C145.855,230.826,145.855,228.7,146.917,228.523z M44.906,221.498
	c0,2.361,6.14,18.893,7.557,22.197s6.612,8.027,10.39,8.027s2.361,1.418,6.14,2.834c3.779,1.418,8.973,1.418,8.973,1.418
	s0.472,2.834,4.25,3.306c3.778,0.473,5.667-0.472,5.667-0.472s4.723,3.306,6.612,2.36c1.889-0.944,3.306-2.834,5.195-2.834
	c1.839,0,7.689,1.339,8,1.41c0.311-0.071,6.161-1.41,8-1.41c1.89,0,3.306,1.89,5.194,2.834c1.89,0.944,6.611-2.36,6.611-2.36
	s1.889,0.943,5.668,0.472c3.777-0.472,4.25-3.306,4.25-3.306s5.194,0,8.974-1.418c3.778-1.416,2.36-2.834,6.14-2.834
	s8.975-4.723,10.391-8.027c1.416-3.307,7.557-19.836,7.557-22.197s5.668-13.225,8.501-15.112c2.834-1.89,8.501-1.89,8.501-1.89
	l-0.943,13.225c0,0-4.25,17.475-6.611,23.613s-1.891,25.03-5.195,30.227c-3.305,5.195-5.667,2.36-8.975,3.306
	c-3.306,0.944-10.861,13.225-17.474,19.364s-9.918,3.306-11.808,8.027c-1.887,4.717-14.135,4.723-28.75,5.193v0.002
	c-0.01-0.001-0.02-0.001-0.029-0.001c-0.01,0-0.02,0-0.03,0.001v-0.002c-14.614-0.471-26.863-0.479-28.75-5.193
	c-1.889-4.723-5.195-1.889-11.807-8.027c-6.612-6.14-14.168-18.42-17.474-19.364c-3.306-0.944-5.667,1.89-8.974-3.306
	c-3.306-5.195-2.833-24.086-5.195-30.227c-2.362-6.141-6.612-23.613-6.612-23.613l-0.945-13.225c0,0,5.667,0,8.501,1.891
	C39.239,208.273,44.906,219.136,44.906,221.498z"/>
</svg>
