<?xml version="1.0" encoding="utf-8"?>
<!-- Generator: Adobe Illustrator 16.0.0, SVG Export Plug-In . SVG Version: 6.00 Build 0)  -->
<!DOCTYPE svg PUBLIC "-//W3C//DTD SVG 1.1//EN" "http://www.w3.org/Graphics/SVG/1.1/DTD/svg11.dtd">
<svg version="1.1" id="Layer_1" xmlns="http://www.w3.org/2000/svg" xmlns:xlink="http://www.w3.org/1999/xlink" x="0px" y="0px"
	 width="57.168px" height="256.109px" viewBox="0 0 57.168 256.109" enable-background="new 0 0 57.168 256.109"
	 xml:space="preserve">
<path fill="#FFFFFF" d="M23.161,249.623c-4.64,1.16-16.82,5.8-20.3-2.32c-9.86-12.76,8.7-29.579,11.6-43.5
	c2.9-13.919,3.48-26.1,5.8-63.219c2.32-37.12,3.48-89.318,3.48-94.539c0-5.22-6.96-17.979-4.64-29.58
	c2.32-11.6,2.9-16.239,9.86-14.5c6.96,1.74,7.54-1.159,12.18-1.739c4.641-0.58,15.08-0.58,15.66,6.96s1.159,19.14-4.061,24.939
	c-5.221,5.8-5.221,8.12-5.221,8.12s-6.379,38.28-8.699,78.879c-2.319,40.601-2.319,89.899,0,95.699
	c2.32,5.8,9.859,19.72,8.699,28.42c-1.16,8.699,0,11.6-8.119,12.76C31.279,257.163,27.801,248.462,23.161,249.623z"/>
</svg>
