<?xml version="1.0" encoding="utf-8"?>
<!-- Generator: Adobe Illustrator 16.0.3, SVG Export Plug-In . SVG Version: 6.00 Build 0)  -->
<!DOCTYPE svg PUBLIC "-//W3C//DTD SVG 1.1//EN" "http://www.w3.org/Graphics/SVG/1.1/DTD/svg11.dtd">
<svg version="1.1" id="Layer_1" xmlns="http://www.w3.org/2000/svg" xmlns:xlink="http://www.w3.org/1999/xlink" x="0px" y="0px"
	 width="255.869px" height="378.919px" viewBox="0 0 255.869 378.919" enable-background="new 0 0 255.869 378.919"
	 xml:space="preserve">
<path fill-rule="evenodd" clip-rule="evenodd" d="M251.681,224.537c-9.167,33.942-47.132,64.397-58.249,93.902
	c-11.118,29.506-30.629,59.789-62.888,60.471c-29.889,0.632-57.358-29.314-69.203-57.461
	c-11.844-28.146-46.043-64.994-51.925-95.232s-17.187-113.49-1.279-141.13C24.045,57.445,37.734,7.711,123.264,0.552
	s104.902,57.231,117.778,79.895C253.917,103.11,260.848,190.595,251.681,224.537z M230.218,90.993
	c-11.584-20.391-28.168-78.018-105.122-71.576S34.058,68.837,19.745,93.707s-3.603,101.694,1.689,128.9
	c5.292,27.206,36.062,60.359,46.718,85.684c10.657,25.324,35.372,52.268,62.264,51.699c29.024-0.613,46.579-27.86,56.581-54.407
	c10.003-26.547,44.161-53.948,52.409-84.486C247.653,190.557,241.803,111.384,230.218,90.993z M200.438,209.521
	c-37.549,31.418-64.027,6.854-65.902-6.896c-4.598-33.718,53.642-69.734,92.723-89.658
	C226.492,131.358,237.987,178.103,200.438,209.521z M147.563,250.134c3.065,10.729,4.598,31.419-1.532,19.158
	c-6.131-12.261-16.859-17.625-9.962-35.25C139.141,226.193,144.498,239.407,147.563,250.134z M153.694,316.037
	c9.962,5.364,1.532,9.962,1.532,9.962s-18.392-3.065-36.016-2.299c-17.625,0.766-22.223-2.299-16.092-7.663
	s13.793-8.43,31.418-9.195C152.161,306.075,143.732,310.672,153.694,316.037z M109.249,250.134
	c3.065-10.728,8.423-23.941,11.495-16.092c6.896,17.625-3.832,22.989-9.962,35.25S106.183,260.863,109.249,250.134z M51.776,209.521
	c-37.548-31.418-26.054-78.163-26.82-96.554c39.081,19.924,97.32,55.94,92.722,89.658
	C115.803,216.375,89.325,240.939,51.776,209.521z" fill="#FFFFFF"/>
</svg>
