<?xml version="1.0" encoding="utf-8"?>
<!-- Generator: Adobe Illustrator 16.0.0, SVG Export Plug-In . SVG Version: 6.00 Build 0)  -->
<!DOCTYPE svg PUBLIC "-//W3C//DTD SVG 1.1//EN" "http://www.w3.org/Graphics/SVG/1.1/DTD/svg11.dtd">
<svg version="1.1" id="Layer_1" xmlns="http://www.w3.org/2000/svg" xmlns:xlink="http://www.w3.org/1999/xlink" x="0px" y="0px"
	 width="201.382px" height="226.547px" viewBox="0 0 201.382 226.547" enable-background="new 0 0 201.382 226.547"
	 xml:space="preserve">
<path fill="#FFFFFF" d="M201.371,213.859c0,0-29.918,13.233-83.425,12.657c-21.863,0.576-52.356-6.903-58.686-10.932
	c0-6.328-1.726-23.015,8.055-32.219c9.781-9.207,32.219-36.248,33.37-50.632c-4.027,5.179-6.329,8.056-21.863,13.233
	c-15.534,5.178-18.986,0.574-25.315,14.384c-6.329,13.808-13.808,13.808-18.986,13.808s-4.603-6.904-4.603-6.904l-9.781,2.303
	L2.301,159.202L0,143.092c0,0,14.383-28.192,18.411-41.425c4.027-13.233,5.753-22.438,5.753-22.438s7.479-11.507,13.233-19.562
	c5.753-8.055,9.781-8.055,10.356-14.383c0.576-6.329-6.329-27.617-6.904-31.069C40.273,10.763,34.52-2.47,41.424,0.407
	c6.904,2.876,15.534,7.479,23.014,16.109c7.479,8.63,10.356,10.932,13.233,12.083c2.877,1.15,2.302,0.575,2.302,0.575
	s-1.151-9.781,8.63-9.781c9.781,0,7.479,4.027,18.411,8.055c10.932,4.028-6.904,2.301,10.932,5.178
	c17.837,2.876,70.192,36.822,77.097,84C201.946,163.805,201.371,213.859,201.371,213.859z M18.986,147.694
	c-0.575-5.753-6.904-13.809-9.781-6.328l-2.302,6.328c0,0-1.726,4.604,2.877,6.329S19.562,153.448,18.986,147.694z M40.274,78.078
	c0,0,2.633,7.165,4.027,15.534c1.151,6.904,3.452,0.576,8.055-3.452c4.603-4.028,13.808-16.11,13.808-16.11L40.274,78.078z
	 M107.014,53.913c-10.932,0.575-4.027,4.603,1.149,9.781c18.412,6.329,66.166,40.274,65.59,123.125
	c-0.574,23.59,8.056,14.385,11.508,13.232C188.138,94.763,141.535,63.119,107.014,53.913z"/>
</svg>
