<?xml version="1.0" encoding="utf-8"?>
<!-- Generator: Adobe Illustrator 16.0.0, SVG Export Plug-In . SVG Version: 6.00 Build 0)  -->
<!DOCTYPE svg PUBLIC "-//W3C//DTD SVG 1.1//EN" "http://www.w3.org/Graphics/SVG/1.1/DTD/svg11.dtd">
<svg version="1.1" id="Layer_1" xmlns="http://www.w3.org/2000/svg" xmlns:xlink="http://www.w3.org/1999/xlink" x="0px" y="0px"
	 width="89.676px" height="365.309px" viewBox="0 0 89.676 365.309" enable-background="new 0 0 89.676 365.309"
	 xml:space="preserve">
<path fill="#FFFFFF" d="M86.914,351.308c-4.872,0-10.439,2.436-11.482-2.438c-1.045-4.873,1.392-12.527-10.44-11.832
	c-11.832,0.696-14.269-1.739-17.052,3.133c-2.785,4.872,1.74,11.137-5.221,11.137c-6.96,0-15.66-5.568-12.876-12.528
	c2.784-6.96,10.092-11.832,11.832-19.487c1.74-7.656-2.784-93.264-6.264-118.667S21.839,88.57,12.095,64.211
	C1.655,52.031-1.477,48.899,0.611,37.415c2.088-11.483,3.48-23.664,10.44-21.576c6.96,2.088,10.788,7.309,13.572,9.396
	s11.44,6.058,11.44,6.058s-4.132-2.382-8.318-5.014c-3.359-2.112-4.23-3.916-4.23-3.916c4.176-1.392,11.2-4.784,13.288-7.916
	c2.088-3.132-2.436-7.308,2.436-10.092c4.872-2.784,3.48-5.916,8.701-3.48c5.22,2.437,11.482,1.74,15.312,9.048
	c3.828,7.309,6.96,19.141,1.044,20.88c-5.915,1.74-11.136-0.695-11.136,1.045c0,1.739-10.439,4.523-10.788,10.092
	c-0.349,5.567,5.916,11.483,4.523,16.704c-1.392,5.22-7.308,8.699-6.264,21.575s13.92,79.691,18.096,114.839
	s10.092,90.132,14.269,104.398c4.176,14.268,16.354,24.359,16.008,36.539C88.654,348.176,91.786,351.308,86.914,351.308z
	 M57.684,342.26c10.092,0,16.354,2.089,15.312,8.353s-1.74,13.572-7.308,14.616c-5.568,1.044-15.66-8.354-16.008-13.226
	C49.33,347.132,47.591,342.26,57.684,342.26z"/>
</svg>
