<?xml version="1.0" encoding="utf-8"?>
<!-- Generator: Adobe Illustrator 16.0.3, SVG Export Plug-In . SVG Version: 6.00 Build 0)  -->
<!DOCTYPE svg PUBLIC "-//W3C//DTD SVG 1.1//EN" "http://www.w3.org/Graphics/SVG/1.1/DTD/svg11.dtd">
<svg version="1.1" id="Layer_1" xmlns="http://www.w3.org/2000/svg" xmlns:xlink="http://www.w3.org/1999/xlink" x="0px" y="0px"
	 width="235.004px" height="211.992px" viewBox="0 0 235.004 211.992" enable-background="new 0 0 235.004 211.992"
	 xml:space="preserve">
<path fill="#FFFFFF" d="M121,29c3.66-0.261-0.24-0.728,3.419-0.728C179.059,28.272,203,62.463,203,105c0,45.146-22.133,67.257-82,79
	c6.536,7.046,11.785,21.989,15.707,27.992c64.573-15.919,98.297-46.713,98.297-108.562C235.004,49.672,200.03,0,125,0
	C44.29,0,0,55.281,0,120c0,42.798,26.383,65.373,51.742,65.373c43.92,0,70.586-60.805,80.782-146.401
	C135.684,37,136.216,34.349,137,32L121,29z M51,155c-12.026,0-19.65-11.642-19.65-36.434c0-41.493,28.757-80.116,74.769-88.206
	C100.629,96.646,79.234,155,51,155z"/>
</svg>
