<?xml version="1.0" encoding="utf-8"?>
<!-- Generator: Adobe Illustrator 16.0.0, SVG Export Plug-In . SVG Version: 6.00 Build 0)  -->
<!DOCTYPE svg PUBLIC "-//W3C//DTD SVG 1.1//EN" "http://www.w3.org/Graphics/SVG/1.1/DTD/svg11.dtd">
<svg version="1.1" id="Layer_1" xmlns="http://www.w3.org/2000/svg" xmlns:xlink="http://www.w3.org/1999/xlink" x="0px" y="0px"
	 width="251.016px" height="184.979px" viewBox="0 0 251.016 184.979" enable-background="new 0 0 251.016 184.979"
	 xml:space="preserve">
<path fill="#FFFFFF" d="M149.438,47.789h-32.231l-11.069,63.394c-3.907,25.031-15.953,44.536-36.79,44.536
	c-20.186,0-34.511-13.652-34.511-42.262c0-51.688,31.906-94.602,53.719-112.156V0H52.743C31.581,14.955,0,61.768,0,115.407
	c0,46.813,28.649,69.57,59.904,69.57c27.675,0,43.628-13.329,54.371-30.56h1.303c6.186,18.205,21.813,30.56,48.185,30.56
	c51.115,0,87.253-55.916,87.253-117.033c0-31.209-12.046-57.541-23.439-67.944h-33.209v1.301
	c17.256,20.155,22.139,44.537,22.139,63.067c0,48.113-23.44,91.351-54.045,91.351c-22.464,0-27.022-13.979-27.022-27.958
	c0-5.852,1.304-12.679,2.604-20.806L149.438,47.789z"/>
</svg>
