<?xml version="1.0" encoding="utf-8"?>
<!-- Generator: Adobe Illustrator 16.0.3, SVG Export Plug-In . SVG Version: 6.00 Build 0)  -->
<!DOCTYPE svg PUBLIC "-//W3C//DTD SVG 1.1//EN" "http://www.w3.org/Graphics/SVG/1.1/DTD/svg11.dtd">
<svg version="1.1" id="Layer_1" xmlns="http://www.w3.org/2000/svg" xmlns:xlink="http://www.w3.org/1999/xlink" x="0px" y="0px"
	 width="219.826px" height="252.761px" viewBox="0 0 219.826 252.761" enable-background="new 0 0 219.826 252.761"
	 xml:space="preserve">
<path fill-rule="evenodd" clip-rule="evenodd" d="M219.813,182.729h-0.022c0.783,14.494-11.201,31.354-30.563,41.017
	c-23.509,11.732-48.973,8.408-56.875-7.426c-7.902-15.833,4.75-38.181,28.259-49.913c14.281-7.128,29.277-8.688,40.627-5.273V27.791
	L89.812,44.617l0.001,160.112H89.79c0.784,14.494-11.201,31.354-30.562,41.017c-23.509,11.732-48.973,8.408-56.875-7.426
	c-7.902-15.833,4.75-38.181,28.259-49.913c14.282-7.128,29.278-8.688,40.626-5.273L70.719,22.5l149-22.5v1.506l0.093-0.006
	L219.813,182.729z" fill="#FFFFFF"/>
</svg>
