<?xml version="1.0" encoding="utf-8"?>
<!-- Generator: Adobe Illustrator 16.0.0, SVG Export Plug-In . SVG Version: 6.00 Build 0)  -->
<!DOCTYPE svg PUBLIC "-//W3C//DTD SVG 1.1//EN" "http://www.w3.org/Graphics/SVG/1.1/DTD/svg11.dtd">
<svg version="1.1" id="Layer_1" xmlns="http://www.w3.org/2000/svg" xmlns:xlink="http://www.w3.org/1999/xlink" x="0px" y="0px"
	 width="419.992px" height="292.011px" viewBox="0 0 419.992 292.011" enable-background="new 0 0 419.992 292.011"
	 xml:space="preserve">
<path fill="#FFFFFF" d="M417.594,101.121c-1.533,6.963-3.011,8.683-4.612,9.041c-2.289,0.508-3.813,6.354-5.479,10.524
	c-0.706,2.029-15.884,41.953-19.077,46.847c-3.221,5.25-1.373,9.008-0.778,11.905c0.59,2.976,2.852,21.444,3.799,25.054
	c0.939,3.697,2.01,12.479,5.258,19.34c3.228,6.854,5.266,14.851,5.117,16.11c-0.146,1.276,1.476,7.505-3.92,2.019
	c-5.558-5.174-26.604-31.674-27.819-33.654c-1.351-1.643-7.662-13.786-10.279-16.258c-2.646-2.439,0.151-1.285-7.071,2.302
	c-7.253,3.616-36.938,21.96-66.646,27.183c-1.455-11.604-9.554-43.183-27.253-44.134c8.941,6.679,17.743,17.629,24.471,45.978
	c6.532,28.021,28.537,49.111,31.739,51.793c3.157,2.826,0.797,6.725-9.784,3.084c-11.221-2.135-65.048-59.76-70.977-76.08
	c-6.672-14.797-10.024-20.096-8.42-25.075c1.611-4.985,2.676-8.437,2.677-8.437c0.019-0.012-7.002,6.643-6.49,9.773
	c0.823,2.839-6.396,8.139,29.169,54.918c-9.874,1.551-41.496,13.449-96.252,4.232c-8.289,2.483,0.219-3.453-13.613,7.676
	c-15.336,12.451-17.766,17.183-30.708,21.601c-9.024,3.089-21.911,12.606-31.416,18.837c-4.791,3.139-8.83,5.5-11.528,6.139
	c-0.674,0.16-1.265,0.215-1.761,0.146s-0.897-0.262-1.192-0.592c-0.588-0.66-0.755-1.873-0.372-3.793
	c4.632-23.854,25.899-48.515,31.271-53.14c1.656-2.416,4.974-5.742,4.976-5.742c-32.403-5.453-38.126-7.053-45.526-12.084
	c-15.224-0.676-20.432-3.146-28.136-12.217c-7.87-9.156-11.39-6.816-15.487-15.096c-4.165-8.334-8.522-12.949-3.719-14.781
	c10.552-0.113,20.478,0.646,35.533,1.039c14.707,0.483,16.922,6.559,42.96,7.971c25.118,1.422,51.068-6.969,59.941-11.016
	c8.785-4.031,7.984-4.617,7.992-4.627c1.971,2.286,3.933,4.575,5.886,6.866c-0.001,0,3.211-0.267-0.845-4.108
	c-4.106-3.863-6.55-3.002-9.233-15.67c-2.563-12.826-7.446-43.067-30.026-55.458c-22.944-12.88-52.594-25.098-76.93-23.232
	C17.996,78.27,6.719,83.368,6.828,83.323c-2.222-0.154-4.732-1.814-6.002-4.099c-1.272-2.282-1.285-5.193,1.46-7.803
	c-0.683-1.664-1.775-2.824-1.948-4.742C0.295,66.2,0.309,65.673,0.401,65.08c0.092-0.593,0.262-1.251,0.53-1.995
	c0.536-1.486,1.467-3.313,2.938-5.61c2.089-3.218,3.791-6.398,3.791-6.398c0,0.001-1.559-2.123-2.533-5.137
	c-0.981-3.011-1.345-6.914,0.887-10.414c4.466-6.977,10.4-10.622,10.39-10.627C16.46,24.795,20,10.421,23.886,7.251
	c1.996-1.659,2.752-4.388,5.074-5.973c1.16-0.794,2.705-1.306,5.002-1.275c0.575,0.008,1.197,0.049,1.873,0.128
	c0.676,0.079,1.407,0.196,2.198,0.354c1.583,0.317,3.409,0.801,5.542,1.482c16.386,5.258,52.141,24.522,58.6,26.861
	c6.472,2.195,16.41,1.542,23.883,6.334c7.473,4.722,22.25,13.978,29.473,17.783c7.36,3.686,36.149,10.126,42.059,12.988
	c6.002,2.782,15.901,7.191,15.889,7.196c38.321-19.977,60.865-12.971,83.777-14.342c2.166,1.734,4.705,7.305-0.545,8.891
	c-5.134,1.578-15.743,17.432-18.225,23.434c-2.256,5.98-0.82,16.761-4.205,16.59c14.318,7.794,26.623,14.291,32.881,17.589
	c6.154,3.282,35.837,22.162,44.976,24.558c8.922,2.4,3.452,2.304,7.085,1.117c3.617-1.194,4.646,3.793,11.38-6.14
	c6.671-9.91,4.206-9.771,12.054-22.797c8.087-13.486,11.18-19.679,17.824-26.843c6.587-7.113,12.032-14.358,14.477-15.077
	c2.433-0.712,4.311-3.439,4.895,1.443c0.146,1.217,0.174,2.615,0.108,4.135c-0.032,0.76-0.088,1.551-0.163,2.365
	c-0.075,0.814-0.17,1.651-0.28,2.505C419.07,93.972,418.361,97.641,417.594,101.121z M18.602,40.968
	c-1.215-4.668-0.134-10.119-0.144-10.11c0.059-0.034-7.073,6.169-3.302,10.99c3.819,4.748,2.146,10.046,3.806,6.193
	C20.606,44.218,19.822,45.626,18.602,40.968L18.602,40.968z M75.604,35.223c-2.47-0.932,7.046,8.705,8.469,12.364
	c1.454,3.625,4.427,5.538,4.976,6.543c0.533,1.016,3.531,1.521,3.665-3.376C92.859,45.848,78.101,36.113,75.604,35.223
	L75.604,35.223z M120.024,40.277c-2.727-0.373-8.977-2.104-7.028,7.981c1.73,10.189,8.516,13.056,11.756,13.467
	c3.183,0.435,7.878-4.032,7.133-9.4C131.173,46.936,125.815,41.162,120.024,40.277z M195.2,96.021
	c0.043-0.017-0.932,9.565-0.504,14.277c0.541,4.662,3.626,16.268,4.456,22.109c0.908,5.796,0.827,17.118,0.278,22.729
	c-0.398,5.529-9.209,30.855-9.274,30.902c0.002-0.002,4-3.679,5.174-7.066c1.202-3.405,5.926-17.342,6.494-25.479
	c0.617-8.176,1.635-17.11-0.587-25.042C199.316,120.362,195.466,95.919,195.2,96.021L195.2,96.021z M204.979,98.304
	c0.066-0.025-0.42,13.375,1.408,22.838c1.929,9.376,1.847,19.351,0.75,29.229c-1.001,9.821-4.716,34.096-3.681,30.26
	c1.084-3.863,5.587-19.094,7.144-26.23c1.627-7.166,1.75-18.053-0.047-24.671C209.069,122.965,205.248,98.204,204.979,98.304
	L204.979,98.304z M212.837,104.546c-0.011,1.051,1.106,14.75,2.593,20.421c1.6,5.608,2.697,15.964,1.664,23.631
	c-5.83,19.413-6.927,30.915-6.862,30.887c0.002-0.001,1.966-9.056,4.877-14.541c2.975-5.5,6.279-22.124,5.219-29.415
	C219.576,128.104,213.046,104.471,212.837,104.546L212.837,104.546z M227.791,132.373c-1.833-5.477-5.621-17.19-5.661-17.176
	c0.195,4.436,4.433,22.238,4.597,28.734c0.359,5.968-8.485,24.607-9.807,27.145c-0.092,0.184-0.139,0.28-0.139,0.28
	s0.051-0.103,0.139-0.28c0.508-1.031,2.79-5.242,8.715-14.551C232.488,145.697,229.65,137.819,227.791,132.373L227.791,132.373z
	 M10.234,83.915c-0.096,0.025-0.192,0.051-0.284,0.076c-0.124-0.248-0.247-0.496-0.371-0.744
	C9.579,83.246,9.826,83.495,10.234,83.915L10.234,83.915z M72.563,81.442c6.469,1.659,14.616,4.711,22.217,7.962
	c-2.389,3.057-3.978,7.207-6.298,12.304c-2.405,5.267-4.334,6.842-4.26,4.54c0.073-2.296-3.018-8.062-2.667-13.305
	c0.357-5.245,0.636-8.17,0.641-8.173c-0.003,0.002-1.52,3.995-5.004,9.117c-3.498,5.14-8.463,7.422-10.039,8.28
	c-1.573,0.855,0.989-5.057,0.979-5.048c-0.022-6.201-1.916-16.028-1.938-16.016c0.032-0.025-4.573,9.803-6.193,15.102
	c-1.588,5.275-2.787,5.172-2.782,5.167c0.054-0.017-6.75-12.967-7.249-17.365c-0.435-4.424-2.149-5.886-2.146-5.888
	c0.096-0.084-2.844,19.875-2.448,23.172c0.49,3.211-1.499,1.98-2.414-0.478c-0.789-2.291-8.827-14.435-9.402-18.228
	c0.183-1.006,0.257-1.433,0.019-0.778c-0.07,0.191-0.062,0.466-0.019,0.778c-0.513,2.861-1.983,10.569,0.517,11.378
	c3.385,1.071,4.153,9.626,4.142,9.634c0.046-0.009-10.66-8.328-12.331-14.027c-1.62-5.717-3.506-6.659-3.503-6.662
	c1.515,6.997,2.959,14.059,4.311,21.166c0.016-0.004-5.52-7.655-9.032-11.918c-2.702-3.313-6.04-6.816-7.428-8.241
	c4.48-1.201,13.538-3.441,22.672-4.785C45.551,77.264,58.071,77.73,72.563,81.442L72.563,81.442z M94.998,89.497
	c-0.073-0.031-0.145-0.062-0.218-0.093c0.071-0.09,0.135-0.189,0.208-0.278C94.987,89.126,94.991,89.267,94.998,89.497
	L94.998,89.497z M134.691,118.783c1.81,2.408,3.305,4.925,4.5,7.231c-0.177,0.155-4.36,3.768-7.466,5
	c0.196-4.749-0.189-10.795,1.117-14.278c-3.055,2.2-4.551,6.453-5.246,8.854c-2.113-5.877-3.274-14.027-1.961-17.978
	c-2.085,2.563-10.454,10.249-11.07,10.689c-0.407-6.394,2.608-14.836,3.061-16.464c-3.154,2.884-10.745,11.52-10.776,11.542
	c-0.352-5.637-0.631-15.13-0.221-16.526c-2.877,2.231-11.285,8.553-11.31,8.572c-0.098-5.651-0.247-14.118-0.322-15.928
	c9.071,3.875,17.332,8.02,21.634,10.209C124.507,103.703,129.124,111.364,134.691,118.783L134.691,118.783z M139.195,126.021
	c-0.001-0.002-0.002-0.005-0.003-0.007c0.004-0.003,0.017-0.015,0.017-0.015S139.201,126.012,139.195,126.021L139.195,126.021z
	 M137.259,141.945c-0.004,0.002-0.688-2.384-0.37-7.598c0.302-5.02,2.163-8.1,2.306-8.327c2.451,4.73,3.623,8.551,3.625,8.55
	C140.462,136.916,137.264,141.942,137.259,141.945L137.259,141.945z M12.889,89.94c3.244,3.885,6.437,7.782,9.565,11.693
	c0.006-0.013-2.843,9.545-3.023,10.906c-5.16-10.645-10.434-21.242-10.093-24.188c0.339-2.947-1.979-3.644-1.979-3.644
	s0.964-0.279,2.592-0.717C10.936,85.97,11.916,87.954,12.889,89.94L12.889,89.94z M40.277,144.539
	c0.019-0.004-5.372-5.695-6.052-7.347c-0.635-1.666-0.579-14.359-0.599-14.351c1.293,1.066,2.577,2.135,3.852,3.206
	C38.482,132.194,39.412,138.362,40.277,144.539L40.277,144.539z M33.326,139.037c2.163,2.356,4.292,4.719,6.389,7.088
	c0.003,0,4.156-0.041,0.141,2.703c-4.027,2.762-2.844,2.823-4.365,3.021c-1.523,0.198-2.162,0.44-2.161,0.44
	c0,0-0.313-5.424-2.615-8.236C31.583,142.379,32.454,140.708,33.326,139.037L33.326,139.037z M27.254,150.679
	c-5.041,3.063-7.521,5.436-7.521,5.434c0.056-1.085,0.111-2.17,0.166-3.255c-0.003,0.002,2.907-9.416,5.122-11.77
	c0.484-0.516,0.724-0.943,0.838-1.275c0.112,0.327,0.324,0.769,0.698,1.341c2.018,3.069,4.951,7.537,4.945,7.537
	c0.086,1.146,0.172,2.29,0.255,3.436C31.454,150.555,30.447,148.742,27.254,150.679L27.254,150.679z M25.858,139.813
	C25.499,138.768,26.167,138.915,25.858,139.813L25.858,139.813z M31.881,153.847c-0.041-0.574-0.083-1.146-0.125-1.723
	C31.931,153.024,31.881,153.847,31.881,153.847z M31.441,116.232c0.788,1.128,0.718,3.817,0.29,6.763
	c-0.401,2.939,1.22,14.665,1.198,14.668c0.002-0.001-4.751-2.959-8.241-7.191c-3.502-4.252-3.938-8.349-3.932-8.35
	c2.549,1.662,5.068,3.331,7.556,5.007c0.039-1.714,0.075-3.428,0.107-5.139c0.03-2.435,0.052-4.867,0.067-7.293
	C28.487,114.697,30.655,115.103,31.441,116.232z M20.479,119.389c-4.167-2.669-5.531-10.358-5.532-10.356
	c0.024-0.003,5.948,7.383,6.316,4.423c0.354-2.698,2.692-8.225,2.69-8.221c0.004,0,2.406,3.926,1.297,7.372
	c-1.084,3.445,2.254,11.496,2.236,11.498C27.485,124.105,24.632,122.044,20.479,119.389L20.479,119.389z M46.56,108.271
	c4.853,7.002,13.33,18.854,15.503,30.244c2.177,11.33-0.539,11.947-0.52,11.943c-0.04,0.008,0.63-7.187-4.181-21.368
	c-4.852-14.298-18.833-20.854-17.774-24.053c1.585-4.661-2.67-10.832-2.682-10.831C36.907,94.206,41.742,101.208,46.56,108.271
	L46.56,108.271z M141.298,147.608c0.802-5.916,0.519-9.21,2.295-12.16c0.957,2.394,2.499,9.65,2.488,9.654
	C146.081,145.103,143.356,144.659,141.298,147.608L141.298,147.608z M17.25,156.312c-0.669,2.707,1.127,15.465,1.108,15.457
	c0.005,0.001-0.68-5.678,1.088-11.596c1.765-5.92,9.323-9.442,9.793-6.707c0.384,2.109,2.046,12.662,2.718,17.309
	c0.136,1.34,0.327,2.217,0.327,2.217s-0.125-0.861-0.327-2.217c-0.117-1.148-0.194-2.637-0.065-4.248
	c0.259-3.494,9.089-12.262,9.867-13.289c0.766-1.035,0.456,2.445,0.177,4.045c-0.258,1.602,1.284,14.016,1.267,14.014
	c0-0.002,1.548,0.875,1.516-3.676c-0.05-4.562,6.751-13.566,6.759-13.562c0.005-0.001,2.141,5.479,2.774,9.53
	c0.65,4.041,3.297,8.992,3.292,8.994c0-0.002,2.386-0.922,3.554-4.041c1.163-3.121,7.368-9.328,7.37-9.324
	c0,0,2.053-0.641,1.792,1.992c-0.234,2.629,4.514,12.246,4.493,12.25c0,0,0.742-1.004,3.999-6.293
	c3.251-5.271,2.485-7.969,2.89-6.09c0.433,1.877,3.393,15.022,4.25,12.209c0.874-2.824,7.907-11.097,7.906-11.088
	c0.006-0.002,1.385,6.674,1.037,8.213c-0.34,1.537-0.514,8.057,0.367,5.262c0.884-2.807,10.7-10.162,10.694-10.148
	c0.25,3.743,0.485,7.491,0.712,11.241c0.002-0.001,2.589,2.853,2.568,0.778c-0.017-2.08,3.833-11.242,3.829-11.237
	c2,3.912,3.969,7.832,5.918,11.756c0,0.001,1.364-1.651,2.594-5.879c1.229-4.228,4.043-7.979,4.171-6.425
	c0.137,1.55,3.024,9.84,3.017,9.842c0-0.001,1.986-5.381,3.255-8.785c1.273-3.406,6.63-4.953,6.46-3.199
	c-0.159,1.75,3.309,9.063,2.517,5.414c-0.784-3.662,2.771-10.982,2.765-10.978c0.01-0.003,4.602,7.472,6.479,10.266
	c2.018,2.647-32.546,10.468-35.496,11.091c-2.788,0.444-20.953,0.764-29.092,1.203c-8.159,0.393-17.649-2.623-21.903-4.468
	c-4.237-1.883-16.4-2.278-20.868-2.728c-4.333-0.599-34.479-0.334-34.594-0.223c0.001,0-1.205-2.445-1.41-5.699
	c-0.254-3.252,10.121-15.82,10.158-15.815C16.98,151.68,17.943,153.613,17.25,156.312L17.25,156.312z"/>
</svg>
