<?xml version="1.0" encoding="utf-8"?>
<!-- Generator: Adobe Illustrator 16.0.3, SVG Export Plug-In . SVG Version: 6.00 Build 0)  -->
<!DOCTYPE svg PUBLIC "-//W3C//DTD SVG 1.1//EN" "http://www.w3.org/Graphics/SVG/1.1/DTD/svg11.dtd">
<svg version="1.1" id="Layer_1" xmlns="http://www.w3.org/2000/svg" xmlns:xlink="http://www.w3.org/1999/xlink" x="0px" y="0px"
	 width="197.52px" height="383.696px" viewBox="0 0 197.52 383.696" enable-background="new 0 0 197.52 383.696"
	 xml:space="preserve">
<path fill-rule="evenodd" clip-rule="evenodd" d="M138.641,121.948c0,5.042-5.042,9.168-6.418,11.002
	c-3.667,7.792-5.042,15.585-5.042,20.169s0,10.543,0,22.462s-0.917,10.084,5.959,31.171v7.334l-3.208,10.543
	c0,0,8.251,0.459,12.835,2.751s6.417,6.876,6.417,6.876s-0.458,27.046,7.793,38.506s24.296,13.294,32.547,17.419
	c8.251,4.126,7.334,9.627,7.793,9.627c0.458,0,0,24.754,0,24.754s0.152,7.294,0.152,15.127c0,7.334,0,5.959-0.152,11.002
	c0,0,0,4.584-4.126,7.334c-4.125,2.75-20.17,25.671-94.431,25.671c-74.261,0-90.305-22.921-94.431-25.671
	c-4.126-2.75-4.126-7.334-4.126-7.334c-0.152-5.043-0.152-3.668-0.152-11.002c0-7.833,0.152-15.127,0.152-15.127
	s-0.458-24.754,0-24.754s-0.458-5.501,7.793-9.627c8.251-4.125,24.295-5.959,32.546-17.419c8.251-11.46,7.793-38.506,7.793-38.506
	s1.833-4.584,6.417-6.876c4.584-2.292,12.835-2.751,12.835-2.751l-3.209-10.543v-7.334c6.876-21.087,5.959-19.253,5.959-31.171
	s0-17.878,0-22.462s-1.375-12.377-5.042-20.169c-1.375-1.834-6.417-5.959-6.417-11.002s1.375-14.668,1.375-14.668
	c-4.584-5.042-4.584-3.667-4.125-11.46c0.458-7.792-0.458-10.084,1.833-12.835s9.168-9.168,9.626-16.044
	c0.458-6.876,1.375-11.46,1.375-11.46c-4.584-9.626-10.085-11.918-3.667-28.421S77.215-0.445,79.507,0.014
	c2.292,0.458,5.042,0,5.501,4.584c-0.458,9.626,5.042,23.378,5.042,29.337c3.208-7.334-3.209-8.709,2.75-15.585
	c5.959-6.876,5.959-10.085,5.959-14.21c0,4.125,0,7.334,5.959,14.21c5.96,6.876-0.458,8.251,2.751,15.585
	c0-5.959,5.501-19.711,5.042-29.337c0.459-4.584,3.209-4.126,5.501-4.584c2.292-0.458,7.793,10.543,14.21,27.045
	c6.418,16.502,0.917,18.794-3.667,28.421c0,0,0.917,4.584,1.376,11.46c0.458,6.876,7.334,13.294,9.626,16.044
	s1.375,5.042,1.833,12.835c0.459,7.793,0.459,6.418-4.125,11.46C137.266,107.28,138.641,116.906,138.641,121.948z M157.13,320.895
	c0,0,0.916,4.278,1.833,11.308s2.14,13.752,0,23.226c-2.139,9.474,0,5.501,1.528,5.501s14.975-4.89,14.975-4.89
	s3.056-3.667,4.278-5.501s2.139-28.727,2.139-33.311s-1.222-5.501-1.222-5.501c-3.973,3.668-21.393,6.724-28.421,8.252
	L157.13,320.895z M60.866,369.18c3.056,2.14,20.475,4.584,37.895,4.584c17.419,0,34.839-2.444,37.895-4.584
	c3.056-2.139,7.334-18.947,6.418-29.644c-0.917-10.695-2.445-14.363-6.112-16.808c0,0-12.835,3.973-38.2,3.973
	c-25.365,0-38.2-3.973-38.2-3.973c-3.667,2.444-5.195,6.112-6.112,16.808C53.531,350.232,57.81,367.041,60.866,369.18z
	 M15.637,317.228c0,4.584,0.917,31.477,2.139,33.311c1.222,1.834,4.278,5.501,4.278,5.501s13.447,4.89,14.975,4.89
	s3.667,3.973,1.528-5.501s-0.917-16.196,0-23.226c0.917-7.029,1.834-11.308,1.834-11.308l4.889-0.916
	c-7.029-1.528-24.448-4.584-28.421-8.252C16.859,311.727,15.637,312.644,15.637,317.228z M66.978,231.965
	c-4.278-2.14-9.168-3.667-13.141,6.724c-3.973,10.39-4.278,42.784-16.197,50.424s-20.781,10.696-19.253,15.586
	c1.528,4.89,2.445,4.89,14.058,7.945s14.975,2.445,19.253,3.056c8.251-6.417,14.058-11.307,17.114-15.891
	c3.056-4.584,6.112-14.669,6.112-14.669s5.501-5.807,3.973,0.917c-1.528,6.723-2.445,17.419-4.584,22.92s-4.584,7.334-0.917,7.64
	c3.667,0.306,11.001,0.917,25.365,0.917s21.697-0.611,25.365-0.917c3.667-0.306,1.222-2.139-0.917-7.64
	c-2.14-5.501-3.056-16.197-4.584-22.92c-1.528-6.724,3.973-0.917,3.973-0.917s3.056,10.085,6.112,14.669
	c3.056,4.584,8.862,9.474,17.113,15.891c4.278-0.61,7.64,0,19.253-3.056s12.529-3.056,14.058-7.945s-7.334-7.946-19.253-15.586
	c-11.918-7.64-12.224-40.034-16.197-50.424c-3.973-10.391-8.862-8.863-13.141-6.724s-16.196,3.056-31.782,3.973
	C83.174,235.021,71.256,234.104,66.978,231.965z M115.997,207.762c1.467-1.101,2.566-1.468,3.116-3.668
	c0.551-2.2-0.55-1.833-2.2-2.017c-1.649-0.184-3.667,0-8.984,0.184c-5.317,0.183-9.168-0.291-9.168-0.291s-3.851,0.474-9.168,0.291
	c-5.317-0.184-7.334-0.367-8.985-0.184s-2.75-0.184-2.2,2.017c0.55,2.2,1.65,2.567,3.117,3.668c1.467,1.1,0.367,2.566-2.017,2.017
	s-2.567,2.567-4.951-3.117s-2.934-7.518-2.934-9.352s-1.467,3.301-0.55,9.535s2.567,15.952,8.985,18.152
	c6.417,2.2,18.703,2.567,18.703,2.567s12.285-0.367,18.703-2.567c6.417-2.2,8.067-11.918,8.984-18.152s-0.55-11.369-0.55-9.535
	s-0.551,3.667-2.935,9.352c-2.383,5.685-2.566,2.567-4.95,3.117S114.529,208.861,115.997,207.762z M137.45,103.796
	c0.55-1.65,0.733-1.834-0.184-1.65c-0.917,0.183-2.2,2.2-4.218,2.384c-0.55,1.1-3.851,4.4-8.251,5.134
	c0.55-0.917,2.934-5.867,4.218-7.151c1.283-1.284,3.667-5.134,5.867-7.518c2.2-2.383,0.184,1.284-0.366,3.117
	c-0.551,1.834-0.551,3.484-0.551,3.484s1.834-1.467,3.484-2.017l1.1-0.55c0,0-0.733-4.217-1.467-5.684s-1.833-2.017-3.301-1.467
	c-1.467,0.55-7.334,9.168-9.168,11.735c-1.833,2.567-5.684,8.068-5.501,6.417c0.184-1.65,4.584-9.718,5.318-11.368
	c0.733-1.65,5.501-7.334,6.051-8.618c0.55-1.283,4.768-0.917,4.768-0.917s1.833-4.034,2.2-5.317c0.366-1.284,0.366-1.65-2.384-2.017
	c-2.751-0.367-1.65-3.667-4.401-8.801c-2.75-5.134-6.601-7.885-6.784-13.752c-0.184-5.868,0.551-15.036,0.367-16.686
	s-3.117-20.537-3.117-20.537s-2.354,1.838-2.567,3.117c-0.917,5.501-4.584,19.62-4.584,19.62l-4.4-8.984c0,0-2.2,0.917-3.484-1.467
	c-1.283-2.383-0.55-5.5-0.55-5.5l-2.567,3.117c0,0,0.734-3.117,1.284-7.701c0.55-4.584-0.733-5.134-2.2-6.418
	c0,1.1-0.733,2.201-0.733,2.201s-0.733-2.75-2.567-6.051C96.927,17.25,96.193,20,96.193,20s-0.733-1.101-0.733-2.201
	c-1.467,1.284-2.75,1.833-2.201,6.418c0.55,4.584,1.284,7.701,1.284,7.701l-2.567-3.117c0,0,0.733,3.117-0.55,5.5
	c-1.284,2.384-3.484,1.467-3.484,1.467l-4.401,8.984c0,0-3.667-14.119-4.584-19.62c-0.213-1.279-2.567-3.117-2.567-3.117
	s-2.934,18.886-3.117,20.537c-0.183,1.65,0.55,10.818,0.367,16.686c-0.183,5.867-4.034,8.618-6.784,13.752
	c-2.75,5.134-1.65,8.435-4.401,8.801c-2.75,0.367-2.75,0.733-2.383,2.017c0.367,1.283,2.2,5.317,2.2,5.317s4.217-0.367,4.768,0.917
	c0.55,1.284,5.317,6.968,6.051,8.618s5.134,9.718,5.317,11.368c0.183,1.65-3.667-3.851-5.501-6.417s-7.701-11.185-9.168-11.735
	c-1.467-0.55-2.567,0-3.3,1.467s-1.467,5.684-1.467,5.684l1.1,0.55c1.65,0.55,3.484,2.017,3.484,2.017s0-1.65-0.55-3.484
	c-0.55-1.833-2.567-5.5-0.367-3.117c2.2,2.384,4.584,6.234,5.868,7.518c1.283,1.284,3.667,6.234,4.217,7.151
	c-4.401-0.733-7.701-4.034-8.251-5.134c-2.017-0.184-3.3-2.201-4.217-2.384c-0.917-0.184-0.733,0-0.183,1.65
	c0.55,1.65,0.183,3.484,2.567,5.684s3.3,1.833,7.151,4.034c3.851,2.201,4.034,1.65,5.501,5.868s6.234,53.542,7.151,55.742
	c0.917,2.2,2.384,3.851-0.367,4.584c-2.75,0.733-1.283,1.284-3.484,0.367c-2.2-0.917-4.4,0.184-4.951,2.934
	c-0.55,2.75-0.733,5.317,1.834,5.867c2.567,0.55,5.684,0.55,5.684,0.55s-2.017-2.384-1.284-3.667c0.733-1.283,0-4.217,3.484-2.2
	s5.501,4.034,6.417,5.684c0.917,1.65,1.65,3.851,1.65,3.851l7.334,2.566l7.334-2.566c0,0,0.734-2.201,1.65-3.851
	c0.917-1.65,2.935-3.667,6.418-5.684s2.75,0.917,3.483,2.2c0.733,1.284-1.283,3.667-1.283,3.667s3.117,0,5.685-0.55
	c2.566-0.55,2.384-3.117,1.833-5.867c-0.55-2.75-2.75-3.851-4.95-2.934s-0.733,0.367-3.484-0.367
	c-2.75-0.733-1.283-2.384-0.366-4.584s5.684-51.524,7.15-55.742s1.65-3.667,5.501-5.868c3.851-2.2,4.768-1.833,7.151-4.034
	S136.899,105.446,137.45,103.796z" fill="#FFFFFF"/>
</svg>
