<?xml version="1.0" encoding="utf-8"?>
<!-- Generator: Adobe Illustrator 16.0.0, SVG Export Plug-In . SVG Version: 6.00 Build 0)  -->
<!DOCTYPE svg PUBLIC "-//W3C//DTD SVG 1.1//EN" "http://www.w3.org/Graphics/SVG/1.1/DTD/svg11.dtd">
<svg version="1.1" id="Layer_1" xmlns="http://www.w3.org/2000/svg" xmlns:xlink="http://www.w3.org/1999/xlink" x="0px" y="0px"
	 width="240.824px" height="178.58px" viewBox="0 0 240.824 178.58" enable-background="new 0 0 240.824 178.58"
	 xml:space="preserve">
<path fill="#FFFFFF" d="M234.623,66.743c-8.244,6.282-18.061,11.778-20.415,16.882s-4.712,16.882-4.712,22.378
	c0,5.497,0,5.497-7.066,7.46c-7.065,1.963-14.918,3.927-18.451,10.993c-3.535,7.066-6.676,14.134-7.067,16.882
	s1.963,6.674-8.244,1.963c-10.208-4.711-12.171-7.067-18.453-3.532c-6.28,3.532-11.776,7.065-17.667,3.532
	c-5.879-3.526-7.066-3.532-7.066-5.89c0-3.926-0.785-7.459,5.104-9.029c10.948-2.92,23.164-4.318,33.765-14.134
	s13.74-30.23,11.777-37.297c-1.963-7.067-1.963-26.697-5.104-31.801c-3.142-5.104-4.713-7.459-4.319-16.097
	c0.394-8.637-1.57-23.949,20.022-26.305c21.594-2.355,24.342-6.281,35.334,3.926c10.994,10.207,18.453,13.349,18.453,26.305
	C240.512,45.935,242.868,60.461,234.623,66.743z M120.448,152.073c0,0.003,0,0.009,0,0.012c-0.014,0-0.023-0.005-0.037-0.006
	c-0.014,0.001-0.023,0.006-0.037,0.006c0-0.003,0-0.009,0-0.012c-3.136-0.172-3.343-3.198-3.951-5.51
	c-0.613-2.33-1.104-4.293-0.246-5.029c0.858-0.736,0.614-6.012,0.736-8.834c0.119-2.733,3.296-1.497,3.497-1.416
	c0.201-0.081,3.378-1.317,3.496,1.416c0.123,2.822-0.122,8.098,0.736,8.834s0.367,2.699-0.246,5.029
	C123.791,148.875,123.584,151.901,120.448,152.073z M108.278,143.301c-5.889,3.533-11.386,0-17.667-3.532
	c-6.282-3.535-8.245-1.179-18.452,3.532c-10.208,4.711-7.852,0.785-8.245-1.963s-3.533-9.815-7.066-16.882
	c-3.534-7.066-11.386-9.03-18.453-10.993s-7.067-1.963-7.067-7.46c0-5.496-2.355-17.274-4.711-22.378
	c-2.355-5.104-12.17-10.601-20.415-16.882c-8.245-6.282-5.889-20.808-5.889-33.764S7.772,16.882,18.765,6.674
	c10.992-10.207,13.74-6.281,35.333-3.926c21.593,2.356,19.63,17.667,20.023,26.305c0.393,8.638-1.178,10.993-4.319,16.097
	c-3.141,5.104-3.141,24.734-5.104,31.801c-1.963,7.067,1.178,27.481,11.778,37.297c10.601,9.815,22.815,11.214,33.764,14.134
	c5.889,1.57,5.104,5.104,5.104,9.029C115.345,139.769,114.157,139.772,108.278,143.301z M64.699,149.976
	c2.197-4.395,5.759-2.301,9.414-2.315c0.264-0.001,0.529-0.015,0.793-0.04l4.319,8.638c1.963,3.142,10.208,6.675,16.097,7.459
	c5.889,0.785,5.889-3.532,7.852-9.028c1.963-5.498,3.926-7.067,3.926-7.067l7.066-3.142c0,0-1.57,5.89,2.749,9.424
	c3.039,2.484-1.178,3.533-4.319,10.207c-3.141,6.675-5.889,8.244-11.385,12.171c-5.497,3.926-11.386,2.354-20.416-1.179
	c-9.03-3.533-16.882-11.386-19.238-17.666C59.202,151.151,62.343,154.687,64.699,149.976z M126.657,144.479l7.065,3.141
	c0,0,1.963,1.57,3.928,7.066c1.963,5.496,1.963,9.814,7.852,9.029s14.135-4.318,16.098-7.459l4.317-8.638
	c0.265,0.026,0.53,0.039,0.794,0.04c3.655,0.016,7.219-2.078,9.414,2.314c2.355,4.713,5.497,1.178,3.141,7.461
	c-2.354,6.28-10.207,14.133-19.236,17.666c-9.03,3.533-14.92,5.104-20.415,1.178c-5.497-3.926-8.245-5.495-11.386-12.17
	c-3.142-6.674-7.357-7.723-4.319-10.207C128.227,150.367,126.657,144.479,126.657,144.479z"/>
</svg>
