<?xml version="1.0" encoding="utf-8"?>
<!-- Generator: Adobe Illustrator 16.0.3, SVG Export Plug-In . SVG Version: 6.00 Build 0)  -->
<!DOCTYPE svg PUBLIC "-//W3C//DTD SVG 1.1//EN" "http://www.w3.org/Graphics/SVG/1.1/DTD/svg11.dtd">
<svg version="1.1" id="Layer_1" xmlns="http://www.w3.org/2000/svg" xmlns:xlink="http://www.w3.org/1999/xlink" x="0px" y="0px"
	 width="171.014px" height="312px" viewBox="0 0 171.014 312" enable-background="new 0 0 171.014 312" xml:space="preserve">
<path fill="#FFFFFF" fill-rule="evenodd" clip-rule="evenodd" d="M105.997,60.888v65.818c23.965,7.218,40.584,16.271,49.805,27.176
	c10.142,11.994,15.213,27.377,15.213,46.151c0,20.977-6.383,38.65-19.147,53.019c-11.348,12.775-26.645,21.144-45.87,25.125V312h-37
	v-32.266c-18.22-2.93-33.178-10.197-44.866-21.815C11.541,245.402,3.497,227.732,0,204.9l45.639-4.867
	c1.863,9.273,5.361,17.27,10.492,23.988c3.942,5.168,8.234,9.229,12.866,12.204v-71.711c-20.678-6.473-36.012-15.869-46.002-28.189
	c-10.667-13.151-16-29.116-16-47.89c0-19.004,6.033-34.967,18.098-47.89c11.195-11.988,25.833-19.254,43.904-21.816V0h37v19.347
	c15.11,2.865,27.402,8.769,36.865,17.722c10.956,10.373,17.95,24.249,20.983,41.632l-44.24,5.736
	C117.565,74.04,113.024,66.194,105.997,60.888z M119.955,228.976c5.479-6.432,8.219-13.993,8.219-22.685
	c0-7.762-2.304-14.454-6.907-20.077c-3.444-4.202-8.534-7.675-15.27-10.42v63.141C111.446,236.79,116.11,233.488,119.955,228.976z
	 M56.83,67.924c-4.082,5.563-6.12,11.707-6.12,18.426c0,6.144,1.863,11.851,5.595,17.122c2.988,4.226,7.232,7.789,12.691,10.71
	V57.858C64.087,60.225,60.023,63.569,56.83,67.924z"/>
</svg>
