<?xml version="1.0" encoding="utf-8"?>
<!-- Generator: Adobe Illustrator 16.0.0, SVG Export Plug-In . SVG Version: 6.00 Build 0)  -->
<!DOCTYPE svg PUBLIC "-//W3C//DTD SVG 1.1//EN" "http://www.w3.org/Graphics/SVG/1.1/DTD/svg11.dtd">
<svg version="1.1" id="Layer_1" xmlns="http://www.w3.org/2000/svg" xmlns:xlink="http://www.w3.org/1999/xlink" x="0px" y="0px"
	 width="266.996px" height="311.951px" viewBox="0 0 266.996 311.951" enable-background="new 0 0 266.996 311.951"
	 xml:space="preserve">
<path fill="#FFFFFF" d="M177.113,160.594c-20.896,3.197-47.097,4.974-71.31,5.329c1.99-22.028,4.644-46.188,7.297-69.993
	c10.282,0.71,21.891,1.066,33.5,1.066c11.607,0,23.217-0.355,32.836-1.066l1.326-32.688c-10.283,1.066-22.223,1.421-33.83,1.421
	c-10.283,0-20.564-0.355-29.52-1.066c2.653-18.12,5.307-36.24,7.628-50.097c0.142-4.01,3.15-3.379,3.813-7.643L90.546,0
	c-1.658,18.12-4.312,39.793-6.633,60.756c-23.217-2.843-45.439-9.238-63.018-18.121l-7.297,32.688
	c17.91,9.238,44.444,15.633,66.998,17.765c-2.985,25.227-5.307,50.097-7.296,71.771c-20.232-0.711-42.123-1.422-42.123-17.409
	c0-8.883,0-19.897,13.267-28.779l-24.875-13.146C0.332,121.156,0.332,137.855,0,152.777c0,39.792,46.766,42.281,70.978,43.346
	c-0.664,9.237-1.327,18.12-1.327,26.292c0,76.034,42.454,89.535,91.542,89.535c19.236,0,105.803,0,105.803-71.415
	c0-23.095-9.95-50.452-29.85-79.586c-7.629,3.553-21.561,8.882-30.184,11.725c16.915,22.384,25.207,44.058,25.207,61.821
	c0,18.831-9.618,33.043-28.523,38.372c-12.936,3.907-27.859,6.04-41.791,6.04c-34.162,0-60.032-8.527-60.032-55.07
	c0-6.04,0-8.172,1.659-26.292c25.87,0,54.063-1.776,73.963-4.264L177.113,160.594z"/>
</svg>
