<?xml version="1.0" encoding="utf-8"?>
<!-- Generator: Adobe Illustrator 16.0.3, SVG Export Plug-In . SVG Version: 6.00 Build 0)  -->
<!DOCTYPE svg PUBLIC "-//W3C//DTD SVG 1.1//EN" "http://www.w3.org/Graphics/SVG/1.1/DTD/svg11.dtd">
<svg version="1.1" id="Layer_1" xmlns="http://www.w3.org/2000/svg" xmlns:xlink="http://www.w3.org/1999/xlink" x="0px" y="0px"
	 width="206.204px" height="223.81px" viewBox="0 0 206.204 223.81" enable-background="new 0 0 206.204 223.81"
	 xml:space="preserve">
<path fill-rule="evenodd" clip-rule="evenodd" d="M183.651,153.042c-16.686,9.205-35.672,10.355-80.549,10.355
	s-63.863-1.15-80.548-10.355C19.102,140.959-9.09,114.494,2.992,93.206C15.074,71.918,34.636,58.11,73.759,77.672
	c-1.726-27.042,13.233-33.37,21.288-33.946c0-5.178,0-9.781,0-9.781c-13.233-1.726-15.535-20.712-15.535-20.712l15.535,0.575
	c0,0-6.904-13.808,8.055-13.808s8.055,13.808,8.055,13.808l15.534-0.575c0,0-2.301,18.986-15.534,20.712c0,0,0,4.603,0,9.781
	c8.055,0.576,23.014,6.904,21.288,33.946c39.123-19.562,58.686-5.753,70.768,15.534S187.102,140.959,183.651,153.042z
	 M183.651,93.781c-13.809-10.932-30.494-12.657-46.604,5.753c-16.109,18.411-20.713,32.22-20.713,36.247s-3.451,2.301-13.232,2.301
	c-9.781,0-13.233,1.727-13.233-2.301s-4.603-17.836-20.712-36.247c-16.11-18.411-32.795-16.685-46.603-5.753
	c-17.965,14.222,7.479,32.794,11.507,50.055c0,0,17.835,9.781,69.042,9.781s69.041-9.781,69.041-9.781
	C176.171,126.576,201.616,108.003,183.651,93.781z M130.143,137.507c9.781-36.247,31.645-39.699,41.425-32.794
	c9.781,6.903-4.603,18.986-9.78,29.918C161.788,134.631,144.527,136.932,130.143,137.507z M34.636,104.713
	c9.781-6.905,31.644-3.453,41.425,32.794c-14.383-0.575-31.644-2.876-31.644-2.876C39.239,123.7,24.855,111.617,34.636,104.713z
	 M103.102,171.453c70.192,0,73.645-6.903,73.645-6.903s-2.302,29.918-1.727,40.85c0,0-36.246,18.411-71.918,18.411
	c-35.671,0-71.918-18.411-71.918-18.411c0.575-10.932-1.727-40.85-1.727-40.85S32.91,171.453,103.102,171.453z M144.527,205.974
	c6.673,0,12.082-5.41,12.082-12.082c0-6.674-5.409-12.083-12.082-12.083s-12.082,5.409-12.082,12.083
	C132.445,200.564,137.854,205.974,144.527,205.974z M103.102,211.152c6.99,0,12.657-5.667,12.657-12.657
	c0-6.991-5.667-12.658-12.657-12.658c-6.991,0-12.658,5.667-12.658,12.658C90.444,205.485,96.111,211.152,103.102,211.152z
	 M61.677,205.974c6.673,0,12.082-5.41,12.082-12.082c0-6.674-5.409-12.083-12.082-12.083s-12.083,5.409-12.083,12.083
	C49.595,200.564,55.004,205.974,61.677,205.974z" fill="#FFFFFF"/>
</svg>
