<?xml version="1.0" encoding="utf-8"?>
<!-- Generator: Adobe Illustrator 16.0.0, SVG Export Plug-In . SVG Version: 6.00 Build 0)  -->
<!DOCTYPE svg PUBLIC "-//W3C//DTD SVG 1.1//EN" "http://www.w3.org/Graphics/SVG/1.1/DTD/svg11.dtd">
<svg version="1.1" id="Layer_1" xmlns="http://www.w3.org/2000/svg" xmlns:xlink="http://www.w3.org/1999/xlink" x="0px" y="0px"
	 width="95.73px" height="89.654px" viewBox="0 0 95.73 89.654" enable-background="new 0 0 95.73 89.654" xml:space="preserve">
<path fill="#FFFFFF" d="M95.607,15.368c-1.394,4.524-7.656,2.784-10.092,1.044c-2.438-1.74-6.96-6.612-11.137-6.612
	S65.679,8.06,65.33,6.32c-0.348-1.74-2.783-5.568,4.872-5.568c7.656,0,11.137-2.088,13.572,0.696
	C86.211,4.231,96.999,10.843,95.607,15.368z M68.174,12.699c6.265,0.696,7.599-0.116,6.555,3.364
	c-1.044,3.479-1.918,4.535-5.829,9.077c-0.955,1.109-7.366-0.319-6.322-3.8c1.044-3.479,2.088-1.942,1.74-4.03
	S61.909,12.003,68.174,12.699z M63.969,30.969c-3.133,1.74-1.974,6.265-2.669,9.744c-0.695,3.48-3.45,7.25-3.45,7.25
	s-1.886,4.642-5.713,8.816c-3.828,4.175-3.161,5.771-5.249,8.902c-2.089,3.131-5.221-0.203-7.656-2.291
	c-2.437-2.089-4.176-2.089-2.088-4.523c2.088-2.437,2.784-1.044,4.872-3.132s4.523-4.872,9.048-11.136
	c4.523-6.265,5.133-6.119,5.829-10.644c0.695-4.523,0.782-5.713,3.915-6.757C63.94,26.155,63.969,30.969,63.969,30.969z
	 M55.936,23.372c-1.74-0.696-5.221-2.784-4.177-5.916c1.045-3.132,0.696-7.308,2.784-6.612c2.088,0.696,1.798-0.405,4.438,2.03
	c1.947,1.797,3.045,3.509,1.305,6.642C58.546,22.646,57.676,24.067,55.936,23.372z M44.452,39.031
	c-2.436,2.436-11.484,11.136-14.616,12.876s-1.739,5.916-1.739,5.916s-2.437-1.74-3.828-4.524
	c-1.393-2.783,9.129-7.801,15.66-15.312c6.96-8.004,7.573-10.972,8.352-12.528c1.043-2.088,3.828-1.044,3.828-1.044
	S46.888,36.594,44.452,39.031z M39.232,35.203c-3.132,3.48-8.353,8.353-12.528,10.788s-3.828,5.22-3.828,5.22
	s-1.392-3.479-2.784-3.479c-1.392,0-1.392-2.438,4.524-4.524c5.916-2.088,12.269-9.35,14.555-13.421
	c2.017-3.591,3.875-7.348,7.369-8.502c3.45-1.14,1.044,2.784-0.348,4.872C44.8,28.243,42.364,31.723,39.232,35.203z M17.134,57.794
	c-1.595,1.306-2.029,1.74-2.755,0.29c-0.725-1.45-1.739-0.29-2.755-2.029c-1.015-1.739,1.016-0.58,2.61-2.176
	c1.595-1.595,1.74-1.885,3.625-2.755s2.03,1.74,2.465,3.19S18.729,56.489,17.134,57.794z M10.609,62.724
	c-1.305,0.58-2.61,2.899-4.351,4.641c-1.739,1.739-4.35,4.205-4.35,4.205s-1.16-0.58-1.74-2.03s0.436-0.87,1.45-2.175
	c1.015-1.306,2.03-3.045,3.771-5.655C7.129,59.1,9.014,59.1,10.754,59.68C12.494,60.259,11.914,62.144,10.609,62.724z
	 M14.669,63.739c1.016-0.146,2.03,2.029,2.03,2.755c0,0.725-1.74,2.175-4.64,4.061c-2.9,1.885-5.365,5.22-5.365,5.22
	s-1.45-0.436-2.61-1.306c-1.16-0.869,5.511-6.38,6.67-8.699C11.914,63.449,13.654,63.884,14.669,63.739z M13.799,71.569
	c2.756-2.03,3.308-3.704,4.785-3.915c2.03-0.29,4.205,3.625,1.886,5.22c-2.32,1.595-3.915,4.785-6.961,6.234
	c-3.045,1.45-4.876,1.97-4.64-0.869C9.014,76.499,11.044,73.599,13.799,71.569z M17.569,79.979c1.885-1.739,2.755-2.175,4.495-5.074
	c1.597-2.661,3.189-2.9,5.655-1.74c2.465,1.16,3.189,2.175,4.06,5.075c0.87,2.899-1.45,2.175-6.525,4.93
	c-5.074,2.755-6.234,3.625-9.425,2.03C12.639,83.604,15.851,81.564,17.569,79.979z M39.58,66.871
	c1.393,2.088,1.393,4.523-0.348,5.567s-3.828,2.089-3.828,3.479c0,1.392-1.74-1.044-3.48-2.784
	c-1.739-1.739-4.871-3.479-4.871-3.479s1.392-1.74,3.479-2.438c2.088-0.694-0.696-2.436,2.436-2.783
	C36.1,64.087,38.188,64.783,39.58,66.871z M44.452,43.207c6.96-7.308,5.568-9.396,7.308-13.224c1.74-3.828,0.318-3.161,2.756-3.161
	c2.436,0,1.941,1.887,1.334,4.321c-0.783,3.132-1.306,5.104-2.697,7.888C51.76,41.815,44.8,49.123,44.8,49.123
	s-5.22,5.568-8.352,7.656s-2.784,5.567-2.784,5.567s-4.523-4.177-3.132-6.961C31.924,52.604,37.492,50.515,44.452,43.207z
	 M18.729,62.579c-0.29-0.726-1.74-0.726-2.465-2.32c-0.726-1.595,2.609-1.449,3.625-2.175c1.015-0.725,1.595-2.319,2.465-2.319
	s2.319,1.596,3.045,3.045c0.725,1.449-1.885,2.319-3.48,3.335C20.324,63.159,19.019,63.304,18.729,62.579z M26.994,60.114
	c3.045,0,3.771,2.609,3.045,3.188c-0.725,0.58-0.29,1.74-1.16,2.9s-2.899,2.319-3.915,2.899c-1.015,0.58-1.449-1.739-2.175-3.045
	c-0.725-1.306-2.03-0.58-2.319-1.159c-0.29-0.58,1.885-1.45,3.77-2.32C26.124,61.709,26.994,60.114,26.994,60.114z M34.824,83.023
	c1.885-1.739,2.465-2.175,4.35-4.061c1.886-1.885,2.32-2.899,2.9-3.335c0.58-0.435,5.51,1.886,7.685,3.771
	c2.176,1.886,2.843,4.189-1.015,6.67c-2.03,1.306-1.016,1.016-5.51,2.32c-4.443,1.289-6.09,2.319-9.86-0.726
	C29.604,84.619,33.103,84.612,34.824,83.023z M51.063,77.311c-2.437-1.739-5.221-2.437-5.221-2.437s-4.871-2.088-0.695-3.132
	s6.611-5.916,6.611-5.916s2.784-0.696,4.523,1.392c1.74,2.089,7.309,7.31,5.568,9.049s-3.479-1.044-4.524,2.437
	c-1.044,3.479-4.522,5.22-4.522,5.22S53.5,79.051,51.063,77.311z M54.457,62.927c0,0,5.828-5.771,7.568-11.687
	s2.727-8.787,2.727-12.615s0.929-4.813,3.363-4.813c2.437,0,8.7,6.959,10.092,9.048c1.394,2.088-0.405,2.175-4.582,4.959
	c-4.176,2.784-4.089,5.944-5.479,10.469c-1.393,4.523,0.521,6.264-1.566,12.18s-4.553-2.493-6.988-4.93
	C57.153,63.101,54.457,62.927,54.457,62.927z M76.468,36.247c-6.265-5.567-12.147-6.224-6.265-9.396
	c8.556-4.611,6.693-14.408,9.89-10.15c3.446,4.592,11.405,8.043,10.177,11.7c-1.402,4.172-2.665,9.237-6.146,12.717
	C80.644,44.599,82.731,41.815,76.468,36.247z"/>
</svg>
