<?xml version="1.0" encoding="utf-8"?>
<!-- Generator: Adobe Illustrator 16.0.0, SVG Export Plug-In . SVG Version: 6.00 Build 0)  -->
<!DOCTYPE svg PUBLIC "-//W3C//DTD SVG 1.1//EN" "http://www.w3.org/Graphics/SVG/1.1/DTD/svg11.dtd">
<svg version="1.1" id="Layer_1" xmlns="http://www.w3.org/2000/svg" xmlns:xlink="http://www.w3.org/1999/xlink" x="0px" y="0px"
	 width="396.684px" height="346.781px" viewBox="0 0 396.684 346.781" enable-background="new 0 0 396.684 346.781"
	 xml:space="preserve">
<path fill="#FFFFFF" d="M396.403,27.263c-1.776,4.382-3.117,5.696-5.768,4.381c-2.648-1.316-6.169-3.508-8.805-4.823
	c-2.643-1.316-12.728-5.261-12.724-5.261c-0.001,0-3.05-2.629,3.114-3.942c6.17-1.313,9.269-7.009,14.082-2.627
	c2.409,2.191,5.373,4.164,7.519,6.136c1.07,0.986,1.938,1.973,2.427,2.986c0.244,0.506,0.394,1.021,0.427,1.544
	c0.008,0.131,0.009,0.263,0.002,0.395c-0.007,0.132-0.021,0.265-0.043,0.399C396.591,26.718,396.515,26.989,396.403,27.263
	L396.403,27.263z M343.325,10.167c-9.636-1.315-22.353-0.877-31.985-1.753s-20.615,2.189-33.826,7.441
	c-13.211,5.251-25.07,7.875-41.272,11.372c-16.197,3.497-9.156-0.437-13.91-7c-4.763-6.563,2.255-10.065,6.653-13.129
	c4.398-3.065,10.058,3.065,18.82,2.189c8.764-0.876,33.332-4.378,44.748-7.883c2.853-0.876,6.497-1.287,10.627-1.383
	c1.031-0.024,2.096-0.028,3.184-0.015c1.088,0.013,2.201,0.043,3.336,0.089c2.269,0.091,4.62,0.241,7.016,0.433
	c9.583,0.767,19.874,2.19,28.416,3.067c8.542,0.877,13.639-0.054,17.443-0.246c3.807-0.191,6.325,0.356,9.718,4.189
	C375.782,11.484,352.957,11.482,343.325,10.167L343.325,10.167z M228.33,31.6c6.118-1.311,13.631-7.433,12.232-1.31
	c-1.397,6.122-2.793,10.929-6.793,16.171s-10.104,7.861-12.338,13.1c-2.236,5.239-3.176,11.349,0.654,13.097
	c3.831,1.748,4.686,1.749,3.771,4.803c-0.912,3.055,0.647,10.475,0.646,10.474c-0.001,0-4.718,1.742-6.47,5.231
	s-0.631,12.65,1.029,13.525c1.664,0.874,0.847-0.436,0.332,4.799c-0.512,5.234,1.489,9.599,1.487,9.599
	c-0.003,0-4.62,2.611-5.089,6.536c-0.466,3.925,3.57,8.73,3.564,8.73c-0.004,0-4.17,3.919-4.633,8.718
	c-0.467,4.798,1.106,8.729,1.89,10.476c0.782,1.748-3.259,2.175-4.487,5.228c-1.238,3.051-1.705,16.146-1.699,16.147
	c-0.005,0-3.959,3.047-5.523,3.916c-1.574,0.87-4.305,3.483-3.899,5.231c0.403,1.747,1.981,4.37,3.173,9.18
	c1.192,4.81,2.35,6.562,1.229,10.929c-1.112,4.312-1.624,16.281-8.371,16.984c0.001,0.01,0.001,0.034,0.001,0.043
	c-0.044-0.003-0.082-0.02-0.126-0.021c-0.044,0.004-0.081,0.02-0.125,0.021c0-0.01-0.001-0.033-0.001-0.044
	c-6.789-0.743-7.767-12.712-9.005-17.027c-1.261-4.37-0.157-6.116,0.902-10.918c1.06-4.802,2.58-7.419,2.943-9.164
	c0.365-1.745-2.419-4.368-4.011-5.243c-1.584-0.875-5.595-3.936-5.598-3.935c-0.005-0.001-0.684-13.09-1.947-16.143
	c-1.265-3.054-5.305-3.492-4.542-5.236c0.763-1.744,2.297-5.668,1.798-10.464c-0.495-4.797-4.672-8.721-4.676-8.721
	c-0.005,0,4.008-4.795,3.536-8.719c-0.474-3.924-5.086-6.54-5.089-6.54c-0.002,0,1.995-4.359,1.495-9.591
	c-0.503-5.231-1.322-3.924,0.343-4.796c1.658-0.872,2.813-10.028,1.082-13.517c-1.732-3.489-6.434-5.233-6.435-5.233
	c-0.004,0,1.599-7.415,0.71-10.469c-0.893-3.054-0.039-3.054,3.801-4.799c3.839-1.745,2.947-7.854,0.753-13.093
	c-2.192-5.238-8.27-7.858-12.228-13.099c-3.958-5.241-5.314-10.048-6.67-16.168c-1.354-6.121,6.114,0,12.22,1.311
	c6.108,1.312,7.398-3.497,9.14-8.745c1.742-5.248-0.007-9.625-0.008-9.625c0,0,1.313-1.75,4.377-0.875
	c3.034,0.867,6.644,3.015,16.482,1.784c0-0.005,0-0.033,0-0.033c0.051,0.006,0.096,0.01,0.146,0.017
	c0.05-0.007,0.095-0.01,0.146-0.017c0,0,0,0.028,0,0.033c9.832,1.23,13.455-0.917,16.492-1.784c3.07-0.875,4.373,0.875,4.373,0.875
	s-1.773,4.377-0.066,9.625C220.957,28.102,222.211,32.911,228.33,31.6L228.33,31.6z M160.291,27.225
	c-16.175-3.498-28.012-6.121-41.191-11.371c-13.181-5.251-24.154-8.317-33.788-7.441s-22.346,0.439-31.981,1.753
	C43.7,11.48,20.885,11.483,24.378,7.539c3.396-3.833,5.915-4.38,9.72-4.189c3.805,0.191,8.899,1.122,17.441,0.246
	c8.543-0.876,18.836-2.3,28.421-3.067c2.396-0.192,4.748-0.342,7.017-0.433c1.135-0.045,2.249-0.076,3.336-0.089
	c1.088-0.013,2.151-0.009,3.183,0.015c4.129,0.096,7.773,0.507,10.624,1.383c11.405,3.504,35.955,7.007,44.713,7.882
	s14.445-5.254,18.829-2.189c4.385,3.065,11.384,6.567,6.581,13.129C169.448,26.789,176.458,30.722,160.291,27.225L160.291,27.225z
	 M27.543,21.557c0.002,0-10.076,3.945-12.714,5.26c-2.632,1.315-6.146,3.507-8.791,4.823c-2.644,1.316-3.982,0.002-5.758-4.379
	c-0.111-0.273-0.188-0.544-0.232-0.812c-0.022-0.134-0.037-0.267-0.043-0.399c-0.006-0.132-0.006-0.264,0.002-0.395
	c0.033-0.524,0.182-1.038,0.425-1.544c0.487-1.014,1.353-2,2.423-2.986c2.142-1.973,5.103-3.945,7.511-6.136
	c4.813-4.382,7.907,1.313,14.069,2.626C30.592,18.929,27.543,21.557,27.543,21.557z M14.862,30.76
	c2.185-2.191,5.27-2.63,11.392-6.136c6.121-3.506,10.075-3.068,14.906-3.069c4.83-0.001,3.956,0.437,9.248,2.187
	c5.294,1.75,14.048,0.435,17.985-0.004c3.936-0.438-3.384,7.44-7.257,10.942c-3.877,3.502-5.108,7.44-6.728,12.691
	c-1.618,5.25,1.912,5.247-1.963,8.313c-3.876,3.066-3.396,4.378-6.317,9.631c-2.914,5.253-0.681,6.563,2.491,18.365
	c3.208,11.799,1.093,4.37-0.147,6.56c-1.235,2.189-2.124,2.191-5.685,2.638c-3.562,0.446-2.332-1.742-9.325-8.289
	c-6.983-6.548-4.51-0.428-8.104,0.02c-3.597,0.447-3.635-0.429-6-3.926c-2.356-3.498,1.964-10.076,1.754-18.832
	c-0.187-8.757-0.124-5.254-2.062-14.448c-1.911-9.195-2.279-3.939-7.213-9.192C6.924,32.955,12.68,32.951,14.862,30.76L14.862,30.76
	z M87.576,144.301c8.621,5.21,19.337,11.286,30.871,15.183c11.522,3.899,14.738,10.437,23.393,4.753
	c8.654-5.682,14.565-10.045,18.875-14.844c4.3-4.798,10.297-10.902,12.104-3.926c1.744,6.781-2.03,15.261-6.659,20.059
	c-4.693,4.795-21.208,17.458-29.705,17.042c-8.398-0.424-32.366-5.148-41.245-12.533c-8.626-7.39-31.186-24.329-36.021-34.802
	c-4.758-10.472-8.483-12.645-9.412-20.512c-0.929-7.867-1.501-19.235,0.69-20.115c2.184-0.88,2.497-3.503,4.406-0.885
	c1.897,2.62,7.878,14.404,7.887,14.403c0,0-0.656,3.935-0.409,7.867C62.583,119.927,78.975,139.093,87.576,144.301L87.576,144.301z
	 M161.509,136.749c-8.799,0.425-55.915-5.604-70.771-15.596c-14.51-9.999-34.804-31.8-36.789-37.484
	c-2.053-5.679-3.932-20.546,0.329-25.8c2.12-2.626,3.374-4.814,3.374-4.814c-0.001,0,1.054,5.685,3.84,9.617
	c2.784,3.932,0.699,6.994,0.476,12.24c-0.231,5.246,5.513,14.415,13.692,19.639c8.184,5.227,24.443,15.67,36.955,18.267
	c12.54,2.598,22.442,6.946,32.947,7.81c10.517,0.862,27.538-0.011,27.709,9.145C173.324,132.53,170.541,136.311,161.509,136.749
	L161.509,136.749z M173.177,101.87c-3.743,4.36-15.329,9.593-25.929,7.42c-10.546-2.175-35.6-8.688-43.242-13.477
	c-7.508-4.788-33.792-22.651-41.843-39.264c-3.389-9.179-3.64-20.556,5.914-25.81c3.028-2.189,5.635-3.502,5.635-3.502
	c-0.003,0,0.581,7.876,2.031,13.123c-3.375,5.25-5.886,9.625,0.485,16.614c6.388,6.991,29.667,21.816,37.987,25.734
	c8.375,3.92,22.691,8.707,33.331,9.138c10.651,0.431,15.285-0.877,19.116-0.442C170.501,91.84,176.91,97.509,173.177,101.87
	L173.177,101.87z M113.574,28.979c-3.544-3.061-9.265-5.248-9.738-7.873c-0.474-2.625-2.71-7.44,7.821-5.252
	c3.354,0.697,0.912,3.501,8.386,6.563c7.473,3.062,14.037,3.935,19.288,4.81c5.25,0.874,6.987,0,8.775,4.372
	c1.79,4.372,6.212,10.488,6.21,10.488c0,0-13.04,0.002-21.394-4.367C124.571,33.35,117.119,32.04,113.574,28.979L113.574,28.979z
	 M170.557,62.609c0.979,5.614,3.513,8.291-9.77,9.602c-13.283,1.311-29.588,2.192-39.252-2.167
	c-9.635-4.358-29.199-15.702-34.159-20.509c-4.957-4.804-12.21-14.422-11.871-20.111c0.33-5.688,1.58-10.941,6.395-11.379
	c4.813-0.438,11.763-5.691,11.389-0.001c-0.364,5.689-5.175,6.128-2.43,12.689c2.75,6.563,21.893,20.54,28.013,22.283
	c6.135,1.745,14.433,3.925,24.389,3.922C153.225,56.936,169.655,57.371,170.557,62.609L170.557,62.609z M50.49,210.113
	c-0.006,0,1.524,9.627,5.78,18.356c4.243,8.729,4.97,10.916,4.97,10.916s-1.206,4.835-1.143,8.783
	c0.045,3.947,3.872,15.32,9.208,21.854c5.333,6.535,10.957,13.072,12.714,16.57c1.762,3.498,4.132,8.313,7.286,10.043
	c3.186,1.73,11.343,7.821,14.69,6.041c3.383-1.781,6.485-2.24,5.904-7.07c-0.597-4.828,4.086-2.662-4.417-10.074
	c-8.371-7.419-28.624-29.188-33.723-37.032c-4.895-7.853-18.606-30.09-23.208-52.392c-4.528-22.303-2.588-28.003-2.623-28.003
	c0.728-0.442,1.455-0.884,2.18-1.327c-0.025,0,5.707,17.909,9.469,23.571c-0.439,4.818,1.927,14.435,3.023,16.178
	c1.113,1.742,16.769,26.146,20.531,29.188c3.814,3.038,8.72,12.203,12.643,13.492c3.911,1.288,4.863,2.157,10.948,5.188
	c6.045,3.032,7.177,6.094,14.691,1.676c7.488-4.412,6.654-0.467,10.709-7.487c4.053-7.019,6.938-10.088,2.797-12.701
	c-4.189-2.61,2.6-2.636-11.091-4.337c-13.776-1.695-26.133-4.249-38.086-15.111C71.804,205.57,58.541,186.846,54.27,174.62
	c-4.265-12.225-4.608-10.911-6.852-21.836c-2.215-10.925-4.735-14.851-1.799-18.364c2.939-3.513,6.216-8.335,6.216-8.335
	C55.7,137,63.301,148.33,63.296,148.33c-3.805,2.64-4.931,5.708-1.015,14.87c3.934,9.163,16.945,25.266,21.658,29.612
	c4.726,4.347,9.415,12.188,19.987,13.448c10.495,1.265,6.809,1.718,16.101,0.371c9.216-1.341,5.779,1.29,14.273-3.101
	c8.476-4.385,4.092,1.736,11.416-7.883c7.362-9.612,6.944-10.482,12.672-15.287c5.746-4.803,7.648-7.419,10.776-9.164
	c3.128-1.745,5.461-3.925,5.462-3.925c-0.004,0,2.305-3.489,4.038,1.746c1.735,5.236,4.476,4.802,0.274,10.035
	c-4.267,5.229-16.816,22.689-17.252,27.936c-0.504,5.24-3.824,7.865-1.459,8.738c2.365,0.873,2.426,2.184,5.684-1.75
	c3.273-3.932,2.465-4.369,6.404-11.791c3.97-7.422,2.753-9.168,6.92-13.095c4.184-3.926,4.567-4.798,6.525-4.796
	c1.964,0.002,4.398,4.371,4.396,4.371c0.007,0.001-2.326,1.742-5.196,10.036c-2.848,8.294-2.681,13.101-7.03,18.776
	c-4.334,5.679-9.485,8.735-10.335,13.983c-0.874,5.244-2.019,23.63-4.936,29.33c-2.961,5.694-11.343,17.101-14.719,25.011
	c-3.388,7.905-0.801,19.77-7.055,27.264c-6.253,7.494-9.292,7.065-12.347,13.242c-1.526,3.09-4.445,8.609-8.108,12.928
	c-1.833,2.158-3.855,4.016-6,5.115c-1.073,0.551-2.177,0.912-3.305,1.027c-0.282,0.028-0.566,0.042-0.851,0.039
	s-0.571-0.021-0.859-0.059c-0.576-0.072-1.156-0.213-1.741-0.43c-9.055-3.492-31.506-31.031-37.44-39.313
	c-5.69-8.302-11.184-25.827-13.659-36.781c-2.587-10.959-5.69-38.567-6.389-45.134C49.41,217.132,50.49,210.111,50.49,210.113
	L50.49,210.113z M206.534,188.699c-0.003,0,2.331-4.361,4.298-4.356c1.958,0.007,2.357,0.88,6.639,4.824
	c4.266,3.946,3.086,5.688,7.275,13.138c4.169,7.452,3.384,7.889,6.792,11.844c3.399,3.957,3.413,2.645,5.744,1.781
	c2.333-0.863-1.084-3.511-1.757-8.766c-0.625-5.262-13.627-22.798-17.978-28.044c-4.304-5.251-1.554-4.808,0.101-10.042
	c1.656-5.234,4.02-1.736,4.015-1.736c0.001,0,2.368,2.188,5.528,3.945s5.105,4.382,10.953,9.211
	c5.834,4.832,5.426,5.701,13.03,15.363c7.583,9.673,3.035,3.519,11.634,7.947c8.618,4.435,5.106,1.782,14.36,3.157
	c9.328,1.38,5.629,0.916,16.09-0.327c10.534-1.242,15.057-9.113,19.718-13.474c4.627-4.358,17.465-20.523,21.355-29.718
	c3.858-9.195,2.713-12.271-1.133-14.919c-0.008,0,7.572-11.367,11.437-22.312c0,0,3.313,4.834,6.285,8.355
	c2.972,3.521,0.444,7.458-1.719,18.42c-2.181,10.963-2.542,9.644-6.71,21.918c-4.182,12.274-17.194,31.091-28.814,41.991
	c-11.65,10.901-23.824,13.433-37.484,15.078c-13.564,1.648-6.805,1.703-10.863,4.307c-4.01,2.604-1,5.699,3.363,12.773
	c4.369,7.077,3.352,3.107,10.98,7.584c7.648,4.48,8.604,1.408,14.447-1.617c5.883-3.025,6.794-3.897,10.611-5.183
	c3.822-1.284,8.365-10.495,12.071-13.545c3.586-3.051,18.651-27.583,19.782-29.333c1.062-1.753,3.277-11.417,2.776-16.256
	c3.681-5.691,9.267-23.673,9.25-23.672c0.732,0.443,1.468,0.887,2.203,1.331c-0.022,0.002,1.932,5.715-2.328,28.125
	c-4.354,22.413-17.45,44.794-22.013,52.69c-4.881,7.896-23.875,29.771-31.521,37.191c-7.849,7.42-3.403,5.264-3.687,10.127
	c-0.25,4.865,2.791,5.35,6.168,7.168c3.334,1.819,10.831-4.281,13.831-6.016c2.953-1.731,5.015-6.579,6.57-10.104
	c1.545-3.523,6.742-10.099,11.744-16.677c4.99-6.58,8.457-18.037,8.406-22.013c-0.039-3.978-1.352-8.846-1.352-8.846
	c0.003,0,0.654-2.201,4.688-10.984c4.051-8.784,5.433-18.465,5.426-18.465c0.001,0,1.189,7.059,0.536,13.668
	c-0.603,6.601-3.084,34.402-5.287,45.459c-2.142,11.041-6.904,28.729-11.988,37.102c-5.532,8.359-25.032,36.087-32.979,39.514
	c-0.527,0.215-1.058,0.353-1.589,0.42c-0.265,0.032-0.529,0.049-0.795,0.049c-0.267,0-0.531-0.016-0.799-0.047
	c-1.063-0.129-2.125-0.506-3.18-1.072c-2.105-1.135-4.176-3.032-6.105-5.23c-3.854-4.398-7.156-9.998-8.898-13.128
	c-3.493-6.259-6.37-5.858-13.118-13.473c-6.776-7.61-5.26-19.515-9.17-27.491c-3.924-7.98-13.008-19.502-16.308-25.234
	c-3.293-5.742-5.43-24.183-6.506-29.442c-1.086-5.265-6.358-8.358-10.912-14.066c-4.563-5.707-4.569-10.518-7.659-18.832
	C208.893,190.45,206.531,188.7,206.534,188.699L206.534,188.699z M250.466,120.698c10.532-0.852,20.466-5.197,33.056-7.792
	c12.562-2.592,28.909-13.049,37.144-18.285c8.229-5.233,14.019-14.415,13.801-19.668c-0.209-5.252-2.29-8.318,0.518-12.253
	c2.808-3.936,3.885-9.626,3.883-9.626c0.001,0,1.25,2.19,3.369,4.818c4.258,5.257,2.338,20.141,0.267,25.829
	c-2.005,5.691-22.438,27.535-37.001,37.55c-14.935,10.016-62.179,15.992-70.979,15.544c-9.051-0.455-11.851-4.244-11.804-7.003
	C222.868,120.652,239.923,121.549,250.466,120.698L250.466,120.698z M341.558,93.791c1.921-2.623,2.233,0.005,4.43,0.885
	c2.202,0.88,1.622,12.268,0.7,20.153c-0.921,7.885-4.67,10.064-9.421,20.565c-4.839,10.504-27.395,27.492-35.942,34.894
	c-8.827,7.403-32.764,12.091-41.166,12.491c-8.512,0.391-25.286-12.349-30.042-17.16c-4.704-4.818-8.576-13.313-6.874-20.097
	c1.765-6.978,7.805-0.858,12.152,3.956c4.356,4.813,10.324,9.196,19.071,14.911c8.753,5.716,11.886-0.828,23.409-4.718
	c11.532-3.889,22.248-9.971,30.884-15.191c8.603-5.217,25.041-24.431,25.278-28.374c0.243-3.941-0.417-7.884-0.417-7.884
	C333.628,108.221,339.646,96.414,341.558,93.791L341.558,93.791z M282.971,28.984c-3.566,3.062-11.031,4.373-19.421,8.743
	c-8.392,4.37-21.44,4.366-21.44,4.366s4.47-6.118,6.291-10.491c1.818-4.373,3.55-3.498,8.809-4.372
	c5.259-0.875,11.833-1.748,19.326-4.81c7.494-3.063,5.064-5.867,8.424-6.564c10.544-2.188,8.286,2.627,7.799,5.253
	C292.271,23.735,286.535,25.923,282.971,28.984L282.971,28.984z M314.719,18.048c4.814,0.438,6.047,5.693,6.354,11.383
	c0.315,5.691-6.992,15.315-11.985,20.123c-4.993,4.811-24.666,16.163-34.351,20.521c-9.713,4.36-26.043,3.471-39.33,2.154
	s-10.729-3.995-9.707-9.61c0.943-5.24,17.389-5.671,27.363-5.666c9.97,0.005,18.295-2.175,24.451-3.92
	c6.145-1.743,25.399-15.729,28.182-22.294c2.779-6.564-2.033-7.002-2.371-12.693C302.975,12.355,309.903,17.609,314.719,18.048
	L314.719,18.048z M322.875,27.243c0,0,2.604,1.313,5.628,3.503c9.545,5.256,9.259,16.639,5.826,25.827
	c-8.131,16.628-34.586,34.516-42.134,39.307c-7.688,4.794-32.84,11.3-43.409,13.465c-10.63,2.165-22.222-3.086-25.951-7.451
	c-3.722-4.366,2.724-10.032,6.567-10.465c3.84-0.433,8.473,0.88,19.146,0.456c10.662-0.424,25.038-5.208,33.456-9.13
	c8.363-3.919,31.786-18.758,38.219-25.755c6.418-6.995,3.917-11.374,0.563-16.626C322.262,35.122,322.879,27.243,322.875,27.243
	L322.875,27.243z M353.71,92.941c-3.58-0.446-4.475-0.448-5.714-2.64c-1.244-2.192-3.379,5.248-0.141-6.569
	c3.205-11.817,5.449-13.129,2.535-18.387c-2.919-5.258-2.434-6.57-6.313-9.639c-3.877-3.067-0.337-3.064-1.942-8.319
	c-1.605-5.254-2.827-9.195-6.696-12.699c-3.867-3.503-11.163-11.385-7.228-10.946c3.939,0.438,12.698,1.754,18.003,0.003
	c5.302-1.751,4.428-2.189,9.264-2.188c4.835,0.001,8.794-0.437,14.916,3.069c6.126,3.506,9.216,3.946,11.402,6.137
	c2.186,2.191,7.953,2.194,3.026,7.451c-4.947,5.255-5.313-0.003-7.235,9.197c-1.951,9.2-1.886,5.694-2.078,14.458
	c-0.216,8.763,4.129,15.345,1.763,18.849c-2.377,3.502-2.415,4.379-6.032,3.934c-3.615-0.446-1.126-6.576-8.148-0.016
	C356.056,91.194,357.292,93.387,353.71,92.941L353.71,92.941z"/>
</svg>
