<?xml version="1.0" encoding="utf-8"?>
<!-- Generator: Adobe Illustrator 17.0.0, SVG Export Plug-In . SVG Version: 6.00 Build 0)  -->
<!DOCTYPE svg PUBLIC "-//W3C//DTD SVG 1.1//EN" "http://www.w3.org/Graphics/SVG/1.1/DTD/svg11.dtd">
<svg version="1.1" id="Lager_1" xmlns="http://www.w3.org/2000/svg" xmlns:xlink="http://www.w3.org/1999/xlink" x="0px" y="0px"
	 width="302.006px" height="320px" viewBox="0 0 302.006 320" enable-background="new 0 0 302.006 320" xml:space="preserve">
<g>
	<path fill="#FFFFFF" d="M274.75,81.188c-1.281-6.289-4.758-12.013-9.883-16.047c-0.89-0.755-1.827-1.473-2.821-2.137
		c-2.893-1.932-5.999-3.296-9.185-4.134L130.109,1.224c-11.105-3.923-23.285,1.9-27.208,13.004c-0.904,2.56-1.284,5.177-1.207,7.737
		c-1.958,1.08-3.755,2.526-5.264,4.357L46.36,44.094L0,100.346l21.095,17.384l46.359-56.252L95.66,84.724l-46.44,56.185
		l21.093,17.386l46.36-56.252l7.88-52.542c0.577-0.7,1.071-1.439,1.527-2.193l77.713,44.85l-81.769,106.374l75.136-0.27
		l73.315-92.935C275.408,97.942,276.689,89.188,274.75,81.188z"/>
	<path fill="#FFFFFF" d="M244.438,242.672c-13.092,0-23.705,10.612-23.705,23.703c0,13.09,10.612,23.703,23.705,23.703
		c13.089,0,23.701-10.612,23.701-23.703C268.139,253.285,257.527,242.672,244.438,242.672z"/>
	<path fill="#FFFFFF" d="M66.438,242.672c-13.092,0-23.705,10.612-23.705,23.703c0,13.09,10.612,23.703,23.705,23.703
		c13.089,0,23.701-10.612,23.701-23.703C90.139,253.285,79.527,242.672,66.438,242.672z"/>
	<path fill="#FFFFFF" d="M155.438,242.672c-13.092,0-23.705,10.612-23.705,23.703c0,13.09,10.612,23.703,23.705,23.703
		c13.089,0,23.701-10.612,23.701-23.703C179.139,253.285,168.527,242.672,155.438,242.672z"/>
	<path fill="#FFFFFF" d="M244.436,212.171H66.665c-32.728,0-55.322,21.469-55.322,54.195c0,32.728,22.594,53.634,55.322,53.634
		h177.771c32.726,0,57.57-20.906,57.57-53.634C302.006,233.64,277.162,212.171,244.436,212.171z M244.436,303.402H66.665
		c-20.454,0-37.036-16.582-37.036-37.036s16.582-37.036,37.036-37.036h177.771c20.453,0,37.034,16.582,37.034,37.036
		S264.889,303.402,244.436,303.402z"/>
</g>
</svg>
