<?xml version="1.0" encoding="utf-8"?>
<!-- Generator: Adobe Illustrator 16.0.3, SVG Export Plug-In . SVG Version: 6.00 Build 0)  -->
<!DOCTYPE svg PUBLIC "-//W3C//DTD SVG 1.1//EN" "http://www.w3.org/Graphics/SVG/1.1/DTD/svg11.dtd">
<svg version="1.1" id="Layer_1" xmlns="http://www.w3.org/2000/svg" xmlns:xlink="http://www.w3.org/1999/xlink" x="0px" y="0px"
	 width="254.551px" height="269.4px" viewBox="0 0 254.551 269.4" enable-background="new 0 0 254.551 269.4" xml:space="preserve">
<path fill-rule="evenodd" clip-rule="evenodd" d="M254.2,229.733c0,7-3.667,8.667-5.667,8c0,4,2,5.667-6.333,14.667
	c-1.132,1.223-1,4-13.667,4.667c-21.333,1.666-32.333-16.667-35-24c-9.333,0-22.666-13-25-16.667c-1.789-2.813-5.333-4.333-11.666-7
	c-8,2.667-23.333,17.333-28.333,29.667c1-7.667-1.667-14-1.667-14s-11.667,23-16.333,33c0.667-8-5-16-5-16S96.2,257.4,89.2,269.4
	c-34-37-57.667-69.667-37.869-132.055C38.55,136.139,25.858,129.81,13.8,125.4c-11.72-4.286-2.667-12.4,8.333-11.133
	C34.062,115.64,47.556,104.242,56.2,100.4c10.2-4.533,20.6-8.4,29.6-10.2c-0.4-11,5.8-11.2,9.2-11.8C62.2,42.8,16.2,21.2,0,15
	c68.9,1.7,103.6,25.3,132.5,45.3C124.1,45.1,86.2,10.2,71.4,0C99.2,8,157.9,31.8,175.8,60c0,0,5.4-1.4,7.801,1.4
	C186,64.2,193.8,72.2,196.4,78.8c6-1.6,15.6-8.2,17.6-10c-1.399-7.8,5-8.4,7.4-4c6.6,9,4.7,31.8-6.2,39.6
	c6.8,6.2,7.8,10.2,11.2,17.8c0,0,6.399,4.2,11,9c4.6,4.8,0.399,10.267-1.533,13.533C246.867,157.733,256.533,185.733,254.2,229.733z
	 M244.867,238.067c-0.667-0.334-3,0-3,0c-1.334,6.333-1.334,10-4,13.666C242.867,247.4,244.533,242.733,244.867,238.067z
	 M89.867,260.4c0,0,12.667-22,15.333-28.333c0,0,5,6.666,7.667,12.666c0,0,11-21.333,15.667-29.333c0,0,1.333,3.667,4,10
	c3.332-7.667,15.333-14.333,19.999-18.333c-5.933-2.58-13.212-5.708-20.431-8.768c-17.609,4.849-32.381,27.103-35.569,34.434
	c0.333-5.333-1.333-6.333-1-11.333c-6.913,10.684-9.679,14.861-12.207,29.545C85.551,253.922,87.749,257.043,89.867,260.4z
	 M77.362,243.281c2.997-12.364,13.883-28.011,19.504-34.881c0,0,2.333,5.667,2.333,11.667c8.376-11.168,17.333-18.292,28.744-23.525
	c-9.938-4.188-19.231-8.014-24.078-9.809c-11.333-7.333-19-17-20-23.333s4-21,5.333-26c-9.917,1.673-20.996,2.47-32.673,0.676
	C41.586,201.658,58.765,220.051,77.362,243.281z M125.367,61.733c-21-16.667-64.167-37-102.833-43c42,10,96.333,42.667,97,47.667
	c0.667,5,9,1.333,11.667,0.333C133.866,65.733,129.366,65.733,125.367,61.733z M167.2,58.4
	c-12.167-21.833-64.333-42.333-75.667-48.333C119.2,26.4,150.367,49.066,152.7,52.4s3.167,10.333,9.167,9S167.867,60.4,167.2,58.4z
	 M234.867,135.067c0.253-3.673-8.667-9-11.667-12c-7-15-17.667-24.333-26-32.667c5.333,1.333,12.667,7.833,15,9.833
	c14.833-16,6.333-31.833,5.333-30.167c-10.166,11.833-18.166,16.5-28.166,12.833c0,0,2.5-2.167,3.5-3.167
	c-5-8.333-10-14.667-12-16.667c-15-0.333-26,4.667-31,8c1.666,6.667,6,9.333,9,13.333c-6.667-0.667-14.333-11-18.001-16
	c-35.333,3-29.333,8-40.333,11.333c-11,3.333-12,7.667-11,11.667c5-0.333,9.667,1,15.667,1.333c6,0.333,3,2,2.667,3.333
	c-17.667-2.667-36.333,3-49,9.333c-8.969,4.484-23.333,12.667-35.667,14.333c-7.333,0-6.667,2.333,1,5.667
	c16.333,7,31.333,10,53.667,8.667c14.645-0.875,39-11.667,47.667-13.667c-3.333,3.667-14,7.667-17,9.667
	c-5,3-10.333,5.667-14.333,6.333c-2.333,6-5.333,20.333-4.667,28c0.667,7.667,14,16,18.667,19.333c4.667,3.334,42.333,17,50.333,20
	s25.334,25,33,25.667c-2.333-5.667-9-16-10.666-18c-1.667-2-3.334-2-5-1c-1.667,1-2.334,3-3-0.667
	c-0.667-3.666,2.333-4,10.333-2.666c8,1.333,11,5.666,11,5.666s-3-2-10-2.666c6.333,6.666,17.667,31.333,24,37
	c6.333,5.666,18.333,7,23.667,3.666C237.2,247.4,236.2,237.4,236.2,237.4s-3-1-4.667-0.667c-4.333,0.334-8.666-4.333-14.666-9.666
	c-6-5.334-0.667-13,0.333-10.334c5,11.667,18.333,16,20,16s8-1.333,11.667-1.333c3.333-26.667-2.334-63.333-14-83.667
	c0,0-1-4.666-5.334,3.667C226.867,145.067,234.2,144.733,234.867,135.067z M213.533,168.4c4,20,11.334,40.333,18.334,51.667
	C220.533,206.4,214.2,193.4,213.533,168.4z M184.2,155.4c7.333,9.667,4.333,14,4.667,23.667c-2-11.667-3.667-17.334-7.667-19.667
	c-4,4-13.333,8.333-24,1.333c-10.666-7-18-21-11.666-35.667c-2.334-6.667-4.334-9.667-3.668-16.667
	c16.334,20.333,37.001,45.667,59.001,47C194.867,157.067,188.867,156.733,184.2,155.4z M171.198,147.779
	c-0.46,1.985-2.228,4.288-3.998,4.288c-2.333,0-4.333-1.334-5.333-4.667c-0.027-0.09-0.036-0.176-0.058-0.265
	c0.318,0.164,0.675,0.265,1.058,0.265c1.288,0,2.333-1.045,2.333-2.333c0-1.289-1.045-2.334-2.333-2.334
	c-0.025,0-0.048,0.007-0.072,0.008c0.24-0.271,0.502-0.516,0.79-0.709c-0.922-0.748-1.826-1.507-2.72-2.268
	c-3.739,4.218-4.62,13.95,6.335,15.636c4.296,0.43,6.368-2.601,7.038-5.612C173.253,149.168,172.238,148.5,171.198,147.779z
	 M177.226,151.541c-1.26,4.567-6.155,7.033-10.358,6.192c-4.511-0.901-16.067-8.316-7.272-19.06
	c-4.239-3.688-7.944-7.325-10.062-9.94c-4.667,22,8.334,27,16,31c7.667,4,13.334-2.333,15-6.666
	C179.544,152.71,178.427,152.187,177.226,151.541z" fill="#FFFFFF"/>
</svg>
