<?xml version="1.0" encoding="utf-8"?>
<!-- Generator: Adobe Illustrator 16.0.0, SVG Export Plug-In . SVG Version: 6.00 Build 0)  -->
<!DOCTYPE svg PUBLIC "-//W3C//DTD SVG 1.1//EN" "http://www.w3.org/Graphics/SVG/1.1/DTD/svg11.dtd">
<svg version="1.1" id="Layer_1" xmlns="http://www.w3.org/2000/svg" xmlns:xlink="http://www.w3.org/1999/xlink" x="0px" y="0px"
	 width="245.157px" height="289.73px" viewBox="0 0 245.157 289.73" enable-background="new 0 0 245.157 289.73"
	 xml:space="preserve">
<path fill="#FFFFFF" d="M169.381,161.953H81.719v-29.717h99.549l23.771-28.229H84.69c5.943-29.716,17.83-50.518,35.659-62.404
	c10.888-6.918,22.774-10.4,35.659-10.4c25.746,0,46.061,16.344,60.918,49.031l28.23-31.201C225.331,16.344,195.616,0,156.008,0
	c-24.771,0-45.572,6.94-62.403,20.801c-25.77,20.801-41.603,48.544-47.546,83.205H23.772L0,132.236h43.088v29.717H23.772L0,190.183
	h47.545c3.947,36.657,18.317,63.89,43.088,81.719c16.831,11.888,38.12,17.829,63.889,17.829c39.605,0,69.833-17.829,90.635-53.487
	l-25.259-32.688c-17.83,36.657-39.63,54.976-65.376,54.976c-15.855,0-28.229-2.462-37.145-7.431
	c-17.83-9.89-28.741-30.203-32.688-60.917h60.917L169.381,161.953z"/>
</svg>
