<?xml version="1.0" encoding="utf-8"?>
<!-- Generator: Adobe Illustrator 17.0.0, SVG Export Plug-In . SVG Version: 6.00 Build 0)  -->
<!DOCTYPE svg PUBLIC "-//W3C//DTD SVG 1.1//EN" "http://www.w3.org/Graphics/SVG/1.1/DTD/svg11.dtd">
<svg version="1.1" id="Lager_1" xmlns="http://www.w3.org/2000/svg" xmlns:xlink="http://www.w3.org/1999/xlink" x="0px" y="0px"
	 width="320px" height="251.189px" viewBox="0 0 320 251.189" enable-background="new 0 0 320 251.189" xml:space="preserve">
<path fill="#FFFFFF" d="M68.682,251.189L0,212.545l55.805,9.661L0,135.256L55.805,173.9L21.463,48.305L98.73,154.578l8.586-67.628
	l17.171,57.967L171.705,0l8.586,170.298l95.154-93.309l-69.399,125.894L320,153.948l-96.783,97.241h-51.512l51.512-33.814
	l-51.512,12.527l21.464-36.68l-34.341,9.661V96.611l-25.756,96.611L120.194,173.9l-4.292,24.153L64.39,144.917l38.634,67.956
	l-34.341-8.515l47.219,46.832h-47.22V251.189z"/>
</svg>
