<?xml version="1.0" encoding="utf-8"?>
<!-- Generator: Adobe Illustrator 17.0.0, SVG Export Plug-In . SVG Version: 6.00 Build 0)  -->
<!DOCTYPE svg PUBLIC "-//W3C//DTD SVG 1.1//EN" "http://www.w3.org/Graphics/SVG/1.1/DTD/svg11.dtd">
<svg version="1.1" id="Lager_1" xmlns="http://www.w3.org/2000/svg" xmlns:xlink="http://www.w3.org/1999/xlink" x="0px" y="0px"
	 width="320px" height="157.98px" viewBox="0.641 0.5 320 157.98" enable-background="new 0.641 0.5 320 157.98"
	 xml:space="preserve">
<g>
	<path fill="#FFFFFF" d="M161.811,0.5C63.648,0.5,0.641,79.471,0.641,79.471s63.724,79.009,156.653,79.009
		c92.931,0,163.347-79.009,163.347-79.009S259.971,0.5,161.811,0.5z M157.906,140.814c-75.808,0-127.791-61.341-127.791-61.341
		S81.513,18.161,161.59,18.161s129.568,61.312,129.568,61.312S233.716,140.814,157.906,140.814z"/>
	<path fill="#FFFFFF" d="M158.045,20.473c-32.639,0-59.099,26.46-59.099,59.099s26.46,59.099,59.099,59.099
		s59.099-26.46,59.099-59.099C217.144,46.931,190.684,20.473,158.045,20.473z M158.026,109.696
		c-16.747,0-30.324-13.577-30.324-30.324s13.577-30.324,30.324-30.324s30.322,13.577,30.322,30.324S174.774,109.696,158.026,109.696
		z"/>
</g>
</svg>
