<?xml version="1.0" encoding="utf-8"?>
<!-- Generator: Adobe Illustrator 17.0.0, SVG Export Plug-In . SVG Version: 6.00 Build 0)  -->
<!DOCTYPE svg PUBLIC "-//W3C//DTD SVG 1.1//EN" "http://www.w3.org/Graphics/SVG/1.1/DTD/svg11.dtd">
<svg version="1.1" id="Layer_1" xmlns="http://www.w3.org/2000/svg" xmlns:xlink="http://www.w3.org/1999/xlink" x="0px" y="0px"
	 width="320px" height="279.812px" viewBox="0 0 320 279.812" enable-background="new 0 0 320 279.812" xml:space="preserve">
<path fill="#FFFFFF" d="M0,2.276l85.686,277.537l11.377-3.035L19.715,0L0,2.276z M276.777,138.768
	c-11.377-41.96,9.861-113.744,9.861-113.744s-19.723,3.538-33.873,0.504c-12.875-2.761-29.07-18.956-42.464-18.197
	c-13.397,0.759-23.004,13.901-40.448,13.652c-17.438-0.255-40.438-17.693-59.146-16.688C92.002,5.31,77.597,21.232,61.171,20.473
	c-16.433-0.759-31.596-7.585-31.596-7.585L93.27,235.072c0,0,12.13-13.396,31.086-13.396s27.306,14.15,48.533,14.66
	c21.236,0.504,28.815-18.701,49.543-19.211c20.726-0.504,37.409,16.177,57.381,16.433c19.971,0.255,40.188-3.792,40.188-3.792
	S288.154,180.729,276.777,138.768z"/>
</svg>
