<?xml version="1.0" encoding="utf-8"?>
<!-- Generator: Adobe Illustrator 17.0.0, SVG Export Plug-In . SVG Version: 6.00 Build 0)  -->
<!DOCTYPE svg PUBLIC "-//W3C//DTD SVG 1.1//EN" "http://www.w3.org/Graphics/SVG/1.1/DTD/svg11.dtd">
<svg version="1.1" id="Layer_1" xmlns="http://www.w3.org/2000/svg" xmlns:xlink="http://www.w3.org/1999/xlink" x="0px" y="0px"
	 width="222.995px" height="320px" viewBox="0 0 222.995 320" enable-background="new 0 0 222.995 320" xml:space="preserve">
<path fill="#FFFFFF" d="M94.645,320c0,0-62.003-4.204-67.783-56.749c0,0-3.152-17.339-1.051-34.153
	c2.102-16.815-1.051-32.054-26.272-58.852c0,0,25.811,0.176,35.269,22.246c0,0-1.938-2.044,4.396-22.262
	c2.667-8.517,19.186-26.256-11.815-61.461c0,0,24.458,5.048,34.425,29.044l8.662-24.84c0,0,8.933-26.273-19.967-53.596
	c0,0,29.441,3.392,38.549,31.496c0,0,15.573-17.308,6.114-38.852C85.712,30.476,82.034,17.34,106.205,0
	c0,0-9.983,22.594,6.306,42.562c16.289,19.967,32.051,43.087,33.627,90.378c0,0,14.188-21.018,2.629-75.665
	c0,0,38.883,65.681,26.797,124.006c0,0,24.17-4.204,24.17-52.545c0,0,29.427,48.341-1.051,96.159c0,0,17.34-5.256,23.121-25.223
	c0,0,15.238,109.82-93.531,119.277c0,0,42.037-19.967,57.8-74.614c0,0-12.611,21.544-34.154,24.171c0,0,22.069-24.171,22.595-63.054
	c0,0-11.561,36.256-36.257,46.239c0,0,17.866-61.478-12.085-95.631c0,0,6.831,50.443-5.254,73.563c0,0-17.34-13.137-17.34-39.409
	c0,0-28.9,41.511-5.78,85.123c0,0-32.053-17.339-25.222-62.528C72.576,212.809,28.964,268.506,94.645,320z"/>
</svg>
