<?xml version="1.0" encoding="utf-8"?>
<!-- Generator: Adobe Illustrator 17.0.0, SVG Export Plug-In . SVG Version: 6.00 Build 0)  -->
<!DOCTYPE svg PUBLIC "-//W3C//DTD SVG 1.1//EN" "http://www.w3.org/Graphics/SVG/1.1/DTD/svg11.dtd">
<svg version="1.1" id="Layer_1" xmlns="http://www.w3.org/2000/svg" xmlns:xlink="http://www.w3.org/1999/xlink" x="0px" y="0px"
	 width="272.594px" height="320px" viewBox="0 0 272.594 320" enable-background="new 0 0 272.594 320" xml:space="preserve">
<g>
	<path fill="#FFFFFF" d="M108.887,212.222c-2.838,7.9-3.209,13.458,1.605,19.136c10.247,3.704,18.148,4.568,26.05,4.568
		c7.9,0,15.801-0.864,26.048-4.568c4.814-5.678,4.443-11.235,1.605-19.136c-7.9,1.976-15.803,3.95-27.653,3.95
		C124.69,216.172,116.79,214.198,108.887,212.222z"/>
	<path fill="#FFFFFF" d="M110.669,210.139c4.283,1.4,9.107,2.529,15.03,3.152c-4.419-27.717-25.336-89.093-76.563-89.093
		C12.346,124.198,0,160,0,174.568c0,36.047,31.852,46.172,41.482,48.393c-13.085-21.974,0-45.432,23.21-45.432
		C84.491,177.53,103.385,188.998,110.669,210.139z"/>
	<path fill="#FFFFFF" d="M136.543,213.827c3.024,0,5.806-0.11,8.39-0.312c4.733-47.455,33.38-75.987,33.38-108.948
		c0-37.501-21.398-54.66-42.018-104.568c-20.622,49.906-42.018,67.068-42.018,104.568c0,32.948,28.629,61.473,33.376,108.903
		C130.38,213.698,133.318,213.827,136.543,213.827z"/>
	<path fill="#FFFFFF" d="M190.687,229.568c5.737,24.831-26.439,33.457-31.152,5.199c-4.34,1.424-8.795,2.286-12.775,2.802
		c2.866,25.638,13.632,36.63,29.393,36.63C201.796,274.383,208.185,245.77,190.687,229.568z"/>
	<path fill="#FFFFFF" d="M223.456,124.198c-51.26,0-72.168,61.45-76.568,89.141c5.887-0.586,10.708-1.664,14.97-3.017
		c7.237-21.26,26.188-32.793,46.042-32.793c23.21,0,36.297,23.457,23.21,45.432c9.63-2.221,41.484-12.346,41.484-48.393
		C272.592,160,260.246,124.198,223.456,124.198z"/>
	<path fill="#FFFFFF" d="M125.839,237.506c-4-0.541-8.449-1.448-12.758-2.909c-4.616,28.459-36.925,19.849-31.176-5.031
		c-17.498,16.203-11.109,44.815,14.535,44.63C112.214,274.196,122.985,263.189,125.839,237.506z"/>
	<path fill="#FFFFFF" d="M154.621,269.012c-2.962-5.185-7.404-10.74-8.145-13.703c-0.741-2.962-1.112-8.888-1.481-12.965
		c-0.135-1.483-0.267-2.923-0.386-4.524c-3.267,0.34-6.099,0.452-8.066,0.452c-2.067,0-5.078-0.117-8.557-0.5
		c-0.117,1.621-0.253,3.073-0.391,4.573c-0.371,4.074-0.74,10.001-1.479,12.965c-0.74,2.964-5.183,8.518-8.145,13.703
		c-2.962,5.186-7.404,17.408-14.439,22.594c9.626,0.369,14.294-1.391,17.163-3.797c2.871-2.407,3.335-1.667,3.335,0.464
		c0,2.128-0.555,3.424,1.019,10.278c3.424,10.092,8.192,14.97,11.247,21.448c3.054-6.48,7.823-11.358,11.247-21.448
		c1.574-6.854,1.019-8.15,1.019-10.278c0-2.129,0.464-2.871,3.333-0.464c2.871,2.407,7.538,4.166,17.163,3.797
		C162.025,286.418,157.583,274.196,154.621,269.012z"/>
</g>
</svg>
