<?xml version="1.0" encoding="utf-8"?>
<!-- Generator: Adobe Illustrator 17.0.0, SVG Export Plug-In . SVG Version: 6.00 Build 0)  -->
<!DOCTYPE svg PUBLIC "-//W3C//DTD SVG 1.1//EN" "http://www.w3.org/Graphics/SVG/1.1/DTD/svg11.dtd">
<svg version="1.1" id="Lager_1" xmlns="http://www.w3.org/2000/svg" xmlns:xlink="http://www.w3.org/1999/xlink" x="0px" y="0px"
	 width="320px" height="320px" viewBox="0 0 320 320" enable-background="new 0 0 320 320" xml:space="preserve">
<path fill="#FFFFFF" d="M160,0C71.635,0,0,71.635,0,160s71.635,160,160,160s160-71.635,160-160S248.365,0,160,0z M41.433,160
	c0-24.856,7.694-47.946,20.818-67.025l164.773,164.773c-19.079,13.123-42.167,20.816-67.022,20.816
	C94.622,278.565,41.433,225.376,41.433,160z M257.749,227.025L92.976,62.252c19.079-13.123,42.169-20.816,67.026-20.816
	c65.377,0,118.565,53.187,118.565,118.565C278.567,184.856,270.872,207.945,257.749,227.025z"/>
</svg>
