<?xml version="1.0" encoding="utf-8"?>
<!-- Generator: Adobe Illustrator 16.0.0, SVG Export Plug-In . SVG Version: 6.00 Build 0)  -->
<!DOCTYPE svg PUBLIC "-//W3C//DTD SVG 1.1//EN" "http://www.w3.org/Graphics/SVG/1.1/DTD/svg11.dtd">
<svg version="1.1" id="Layer_35" xmlns="http://www.w3.org/2000/svg" xmlns:xlink="http://www.w3.org/1999/xlink" x="0px" y="0px"
	 width="75.663px" height="46.018px" viewBox="0 0 75.663 46.018" enable-background="new 0 0 75.663 46.018" xml:space="preserve">
<g>
	<path fill="#939598" d="M73.137,38.621c-3.5-1.422-12.342-3.279-14.657-3.61c-0.766-0.108-0.692-0.036-0.656,0.876
		c0,0-0.036,2.406-13.601,2.953c-12.702,0.513-29.061,0.219-34.093-0.328c0,0,0.547,2.133,5.032,4.047
		c4.222,1.803,6.354,2.428,16.518,3.063c10.501,0.656,20.163,0.4,25.305-0.074c4.487-0.413,9.253-1.046,12.579-1.75
		c3.1-0.656,5.289-1.568,5.707-2.552C75.58,40.516,76.638,40.042,73.137,38.621z"/>
	<path fill="#939598" d="M43.785,8.137c2.634,3.621,3.208,7.585,3.501,13.346c0.25,4.934,0.437,15.971,0.437,15.971
		s2.479,0.072,5.396-0.656c1.957-0.489,3.646-1.532,3.646-1.532l0.292-0.729c0,0-0.292-11.741-1.313-18.231
		c-0.969-6.158-3.72-8.97-5.032-10.137c-1.059-0.94-4.74-3.281-8.095-4.303s-8.605-1.75-8.605-1.75
		C36.273,1.137,39.701,2.522,43.785,8.137z"/>
	<path fill="#939598" d="M17.97,8.064c-1.239,2.554-1.75,4.376-2.042,7.438c-0.369,3.875-1.166,21.513-1.166,21.513l0.072,0.875
		c0,0,7.365,0.146,16.408,0.146c8.021,0,14.949-0.583,14.949-0.583s0.292,1.239,0.219-5.47c-0.073-6.71-0.51-15.533-1.531-19.325
		c-0.8-2.972-2.951-5.723-5.542-8.313c-2.698-2.698-6.053-4.011-7.146-4.229c-1.095-0.219-3.866-0.073-4.229,0
		c0,0-3.72,1.458-4.887,2.479C21.908,3.617,19.209,5.512,17.97,8.064z"/>
	<path fill="#939598" d="M14.762,14.336c0.583-5.178,2.83-8.226,5.25-10.355c1.823-1.604,6.636-3.865,6.636-3.865
		s-3.864-0.072-4.667,0c-0.802,0.073-3.281,0.511-5.761,1.24s-6.053,2.479-9.48,5.031c-3.428,2.553-5.178,7.074-5.47,8.971
		c-0.15,0.978-0.893,6.218-1.158,11.157c-0.249,4.642-0.036,8.017,0.211,8.334c0.51,0.656,0.583,0.802,0.583,0.802
		s3.573,1.584,6.053,1.803s6.637,0.511,6.637,0.511S14.197,19.341,14.762,14.336z"/>
</g>
</svg>
