<?xml version="1.0" encoding="utf-8"?>
<!-- Generator: Adobe Illustrator 16.0.0, SVG Export Plug-In . SVG Version: 6.00 Build 0)  -->
<!DOCTYPE svg PUBLIC "-//W3C//DTD SVG 1.1//EN" "http://www.w3.org/Graphics/SVG/1.1/DTD/svg11.dtd">
<svg version="1.1" id="Layer_1" xmlns="http://www.w3.org/2000/svg" xmlns:xlink="http://www.w3.org/1999/xlink" x="0px" y="0px"
	 width="135.644px" height="129.326px" viewBox="0 0 135.644 129.326" enable-background="new 0 0 135.644 129.326"
	 xml:space="preserve">
<path fill-rule="evenodd" clip-rule="evenodd" fill="#939597" d="M54.91,52.296L66.531,0h2.711l11.491,52.167h-2.066L67.951,18.723
	L56.589,52.296H54.91z"/>
<path fill-rule="evenodd" clip-rule="evenodd" fill="#939597" d="M81.469,52.393l53.352-4.815l0.823,2.583L89.437,76.958
	l-0.627-1.969l28.605-20.371l-35.436-0.626L81.469,52.393z"/>
<path fill-rule="evenodd" clip-rule="evenodd" fill="#939597" d="M54.176,52.521L0.824,47.706L0,50.29l46.207,26.797l0.628-1.968
	L18.229,54.748l35.436-0.627L54.176,52.521z"/>
<path fill-rule="evenodd" clip-rule="evenodd" fill="#939597" d="M46.328,77.764L27.28,127.835l2.265,1.491l38.281-37.253
	L66.1,90.937l-27.34,22.041l8.969-34.29L46.328,77.764z"/>
<path fill-rule="evenodd" clip-rule="evenodd" fill="#939597" d="M89.781,77.632l19.149,50.032l-2.262,1.496L68.312,91.984
	l1.723-1.14l27.384,21.986l-9.038-34.272L89.781,77.632z"/>
</svg>
