<?xml version="1.0" encoding="utf-8"?>
<!-- Generator: Adobe Illustrator 16.0.3, SVG Export Plug-In . SVG Version: 6.00 Build 0)  -->
<!DOCTYPE svg PUBLIC "-//W3C//DTD SVG 1.1//EN" "http://www.w3.org/Graphics/SVG/1.1/DTD/svg11.dtd">
<svg version="1.1" id="Layer_1" xmlns="http://www.w3.org/2000/svg" xmlns:xlink="http://www.w3.org/1999/xlink" x="0px" y="0px"
	 width="105.042px" height="104.646px" viewBox="0 0 105.042 104.646" enable-background="new 0 0 105.042 104.646"
	 xml:space="preserve">
<g>
	<path fill="#939597" d="M102.119,20.397c-1.508-4.965-3.311-8.865-4.681-11.528c-2.829-5.498-5.482-8.336-5.482-8.336
		s-5.746,2.38-19.098,2.66S52.522,0,52.522,0s-6.985,3.474-20.337,3.193s-19.098-2.66-19.098-2.66s-2.653,2.838-5.482,8.336
		c-1.37,2.663-3.173,6.563-4.681,11.528h49.598H102.119z"/>
	<path fill="#939597" d="M102.827,22.88H52.522H2.216C0.958,27.676,0.04,33.33,0.001,39.731
		c-0.105,17.383,6.277,30.86,13.793,40.794c6.748,8.918,15.649,14.366,22.457,17.559c6.809,3.192,16.271,6.563,16.271,6.563
		s9.461-3.37,16.27-6.563c6.808-3.192,15.709-8.641,22.457-17.559c7.516-9.934,13.898-23.411,13.793-40.794
		C105.003,33.33,104.084,27.676,102.827,22.88z"/>
</g>
</svg>
