<?xml version="1.0" encoding="utf-8"?>
<!-- Generator: Adobe Illustrator 16.0.0, SVG Export Plug-In . SVG Version: 6.00 Build 0)  -->
<!DOCTYPE svg PUBLIC "-//W3C//DTD SVG 1.1//EN" "http://www.w3.org/Graphics/SVG/1.1/DTD/svg11.dtd">
<svg version="1.1" id="Layer_1" xmlns="http://www.w3.org/2000/svg" xmlns:xlink="http://www.w3.org/1999/xlink" x="0px" y="0px"
	 width="105.77px" height="140.64px" viewBox="0 0 105.77 140.64" enable-background="new 0 0 105.77 140.64" xml:space="preserve">
<path fill-rule="evenodd" clip-rule="evenodd" fill="#939597" d="M4.367,52.315l3.82-4.333h14.736l3.547,4.333v82.82H4.367V52.315z"
	/>
<path fill-rule="evenodd" clip-rule="evenodd" fill="#939597" d="M0,137.028h31.109v3.611H0V137.028z"/>
<path fill-rule="evenodd" clip-rule="evenodd" fill="#939597" d="M8.187,25.109h14.736v30.095H8.187V25.109z"/>
<path fill-rule="evenodd" clip-rule="evenodd" fill="#939597" d="M8.806,22.631h14.189c0,0-0.183-5.306-2.302-12.854
	C19.271,4.712,15.9,0,15.9,0s-3.47,4.823-4.968,10.159C8.846,17.591,8.806,22.631,8.806,22.631z"/>
<path fill-rule="evenodd" clip-rule="evenodd" fill="#939597" d="M41.351,52.315l3.82-4.333h14.736l3.547,4.333v82.82H41.351V52.315
	z"/>
<path fill-rule="evenodd" clip-rule="evenodd" fill="#939597" d="M36.985,137.028h31.108v3.611H36.985V137.028z"/>
<path fill-rule="evenodd" clip-rule="evenodd" fill="#939597" d="M45.171,25.109h14.736v30.095H45.171V25.109z"/>
<path fill-rule="evenodd" clip-rule="evenodd" fill="#939597" d="M45.79,22.631h14.189c0,0-0.183-5.306-2.302-12.854
	C56.256,4.712,52.885,0,52.885,0s-3.47,4.823-4.968,10.159C45.831,17.591,45.79,22.631,45.79,22.631z"/>
<path fill-rule="evenodd" clip-rule="evenodd" fill="#939597" d="M79.026,52.315l3.821-4.333h14.736l3.547,4.333v82.82H79.026
	V52.315z"/>
<path fill-rule="evenodd" clip-rule="evenodd" fill="#939597" d="M74.661,137.028h31.108v3.611H74.661V137.028z"/>
<path fill-rule="evenodd" clip-rule="evenodd" fill="#939597" d="M82.847,25.109h14.736v30.095H82.847V25.109z"/>
<path fill-rule="evenodd" clip-rule="evenodd" fill="#939597" d="M83.466,22.631h14.189c0,0-0.183-5.306-2.302-12.854
	C93.932,4.712,90.561,0,90.561,0s-3.47,4.823-4.968,10.159C83.506,17.591,83.466,22.631,83.466,22.631z"/>
</svg>
