<?xml version="1.0" encoding="utf-8"?>
<!-- Generator: Adobe Illustrator 16.0.0, SVG Export Plug-In . SVG Version: 6.00 Build 0)  -->
<!DOCTYPE svg PUBLIC "-//W3C//DTD SVG 1.1//EN" "http://www.w3.org/Graphics/SVG/1.1/DTD/svg11.dtd">
<svg version="1.1" xmlns="http://www.w3.org/2000/svg" xmlns:xlink="http://www.w3.org/1999/xlink" x="0px" y="0px"
	 width="165.333px" height="121.469px" viewBox="0 0 165.333 121.469" enable-background="new 0 0 165.333 121.469"
	 xml:space="preserve">
<g id="Layer_14">
	<path fill="#939598" d="M153.667,4.802C147.389,1.304,123,0,123,0S14.667,20.468,9.333,22.135S0,32.802,0,34.135l12,32
		l32.096,9.333l114.571-30l0.333-28C159,17.468,158.454,7.469,153.667,4.802z M18.333,62.802L8,35.468l23,4.266l11,29.734
		L18.333,62.802z"/>
</g>
<g id="Layer_15">
	<path fill="#939598" d="M157.718,118.802l-2.641-9.5c0,0-75.374-10.408-79.04-11.075c-3.666-0.667-7.204-0.759-8.344-5.592
		c-1.096-4.645,5-7.333,5-7.333S99.36,69.635,98.859,69.635l-5.026-1.708l-2-2.875l40.5-10.625l-1.5,4l-3.072,4.664
		c0,0-42.734,25.878-44.068,26.211s71.384,9,71.384,9l2.641-10.167l7.615-3.333v36.667L157.718,118.802z"/>
</g>
</svg>
