<?xml version="1.0" encoding="utf-8"?>
<!-- Generator: Adobe Illustrator 16.0.3, SVG Export Plug-In . SVG Version: 6.00 Build 0)  -->
<!DOCTYPE svg PUBLIC "-//W3C//DTD SVG 1.1//EN" "http://www.w3.org/Graphics/SVG/1.1/DTD/svg11.dtd">
<svg version="1.1" id="Layer_1" xmlns="http://www.w3.org/2000/svg" xmlns:xlink="http://www.w3.org/1999/xlink" x="0px" y="0px"
	 width="159.982px" height="147.128px" viewBox="0 0 159.982 147.128" enable-background="new 0 0 159.982 147.128"
	 xml:space="preserve">
<path fill="#939597" d="M156.816,17.515l-1.752-3.806L98.612,35.557l-3.168,5.526l4.635,102.545l1.425,2.295l56.455-33.85
	l2.023-4.813L156.816,17.515z M112.398,42.478c4.23-1.785,7.804,1.426,8.036,7.156c0.231,5.738-2.97,11.952-7.206,13.897
	c-4.302,1.974-8.02-1.194-8.245-7.094C104.757,50.546,108.103,44.289,112.398,42.478z M113.664,74.606
	c4.241-2.028,7.822,1.024,8.057,6.804c0.233,5.786-2.973,12.238-7.219,14.432c-4.31,2.226-8.037-0.776-8.266-6.729
	C106.008,83.169,109.36,76.667,113.664,74.606z M115.788,128.43c-4.319,2.481-8.055-0.353-8.286-6.356
	c-0.229-5.994,3.128-12.748,7.441-15.062c4.249-2.279,7.838,0.616,8.074,6.442C123.254,119.291,120.043,125.985,115.788,128.43z
	 M143.348,29.426c3.789-1.597,7.018,1.507,7.26,6.922c0.242,5.423-2.599,11.218-6.393,12.959c-3.847,1.766-7.198-1.303-7.437-6.871
	C136.542,36.877,139.505,31.046,143.348,29.426z M144.673,59.764c3.795-1.817,7.03,1.148,7.273,6.606
	c0.244,5.467-2.599,11.473-6.399,13.437c-3.853,1.989-7.212-0.933-7.45-6.545C137.857,67.657,140.824,61.607,144.673,59.764z
	 M146.889,110.555c-3.859,2.218-7.226-0.554-7.468-6.214c-0.24-5.651,2.729-11.926,6.585-13.993
	c3.803-2.039,7.043,0.784,7.288,6.286C153.54,102.144,150.694,108.369,146.889,110.555z"/>
<path fill="#939597" d="M90.187,41.667l-4.357-4.263L1.613,25.742L0,29.442l5.863,99.208l1.787,2.682l84.46,15.795l2.723-3.289
	L90.187,41.667z M18.919,63.417c-5.57-0.885-10.486-6.962-11.025-13.624c-0.543-6.711,3.549-11.549,9.186-10.755
	c5.687,0.8,10.719,7.006,11.194,13.81C28.746,59.601,24.537,64.31,18.919,63.417z M45.93,98.871
	c-5.69-1.035-10.625-7.135-11.067-13.676c-0.445-6.59,3.825-11.205,9.586-10.258c5.809,0.955,10.861,7.186,11.236,13.863
	C56.057,95.429,51.669,99.916,45.93,98.871z M73.612,136.716c-5.808-1.193-10.756-7.313-11.098-13.719
	c-0.344-6.453,4.106-10.826,9.986-9.715c5.932,1.118,10.998,7.368,11.269,13.905C84.038,133.677,79.469,137.919,73.612,136.716z"/>
<path fill="#939597" d="M151.526,7.221L79.892,0.083L77.275,0L4.466,18.331l-1.986,3.688L88.6,32.615l6.765-0.911l57.948-21.801
	L151.526,7.221z M50.951,17.059c-4.827,1.44-12.787,2.165-17.578,1.584c-4.723-0.572-4.363-2.176,0.604-3.55
	c4.818-1.332,12.295-1.977,16.881-1.469C55.506,14.139,55.631,15.663,50.951,17.059z M70.149,4.541
	c3.78-1.039,10.185-1.549,14.438-1.16c4.306,0.393,4.943,1.571,1.291,2.653c-3.753,1.112-10.51,1.677-14.945,1.239
	C66.552,6.841,66.266,5.608,70.149,4.541z M73.274,11.364c4.074-1.229,11.026-1.827,15.688-1.361
	c4.722,0.472,5.501,1.874,1.582,3.159c-4.037,1.324-11.406,1.993-16.288,1.463C69.441,14.103,69.079,12.63,73.274,11.364z
	 M97.941,21.779c-4.337,1.608-12.434,2.413-17.874,1.76c-5.359-0.644-5.86-2.435-1.325-3.964c4.392-1.48,11.988-2.192,17.155-1.624
	C101.138,18.527,102.139,20.224,97.941,21.779z M128.731,9.575c-3.33,1.223-10.167,1.842-15.124,1.356
	c-4.892-0.479-5.897-1.836-2.396-3.007c3.405-1.138,9.885-1.694,14.607-1.265C130.601,7.093,131.966,8.388,128.731,9.575z"/>
</svg>
