<?xml version="1.0" encoding="utf-8"?>
<!-- Generator: Adobe Illustrator 16.0.3, SVG Export Plug-In . SVG Version: 6.00 Build 0)  -->
<!DOCTYPE svg PUBLIC "-//W3C//DTD SVG 1.1//EN" "http://www.w3.org/Graphics/SVG/1.1/DTD/svg11.dtd">
<svg version="1.1" id="Layer_1" xmlns="http://www.w3.org/2000/svg" xmlns:xlink="http://www.w3.org/1999/xlink" x="0px" y="0px"
	 width="116.16px" height="143.04px" viewBox="0 0 116.16 143.04" enable-background="new 0 0 116.16 143.04" xml:space="preserve">
<path fill="#939597" d="M115.373,9.989l-4.548-0.172V2.863L109.593,0H59.518l-2.875,2.047l-0.205,7.362l3.489,4.908
	c0,0-0.743,6.995-3.44,17.195c-2.59,9.792-6.01,19.439-10.635,28.108C28.421,92.295,0,105.939,0,105.939l3.488,8.998l20.379,27.694
	l5.336-1.228l4.311,1.636c0,0,35.332-19.861,54.9-55.34c7.279-13.195,12.473-27.118,15.926-38.78
	c5.297-17.879,5.328-29.287,5.328-29.287s1.655-2.681,3.004-4.499c1.35-1.819,3.489-2.454,3.489-2.454L115.373,9.989z
	 M14.619,118.647c-1.186-1.378,0.115-2.664,0.115-2.664s29.847-20.793,43.81-47.537c16.86-32.293,16.724-52.669,16.724-52.669
	s0.395-1.556,2.125-1.434c1.442,0.102,1.506,1.947,1.506,1.947s1.035,21.136-16.78,54.009
	c-14.972,27.625-44.695,48.672-44.695,48.672S15.629,119.821,14.619,118.647z M72.506,74.478
	c-15.671,30.567-49.079,53.633-49.079,53.633s-1.739,0.132-2.795-1.002c-0.964-1.036,0.565-2.433,0.565-2.433
	s31.851-21.592,47.467-51.846c17.314-33.542,17.258-56.445,17.258-56.445s0.383-1.556,2.113-1.434
	c1.443,0.102,1.744,1.95,1.744,1.95S89.678,40.982,72.506,74.478z M108.782,9.962L108.782,9.962L63.079,9.725l-0.714-1.897
	l46.417,0.237V9.962z"/>
</svg>
