<?xml version="1.0" encoding="utf-8"?>
<!-- Generator: Adobe Illustrator 16.0.0, SVG Export Plug-In . SVG Version: 6.00 Build 0)  -->
<!DOCTYPE svg PUBLIC "-//W3C//DTD SVG 1.1//EN" "http://www.w3.org/Graphics/SVG/1.1/DTD/svg11.dtd">
<svg version="1.1" id="Layer_19" xmlns="http://www.w3.org/2000/svg" xmlns:xlink="http://www.w3.org/1999/xlink" x="0px" y="0px"
	 width="77.022px" height="79.749px" viewBox="0 0 77.022 79.749" enable-background="new 0 0 77.022 79.749" xml:space="preserve">
<path fill="#939598" d="M11.641,16.273H32.37v28.675l-1.21,1.209h-4.322v25.898L1.564,72.104l0.101-19.901
	C1.665,52.203,11.641,15.755,11.641,16.273z"/>
<polygon fill="#939598" points="30.753,11.757 13.61,11.757 13.61,1.911 15.521,0 28.899,0 30.782,1.883 "/>
<polygon fill="#939598" points="0.695,73.031 27.857,73.031 28.783,74.393 28.783,79.749 0,79.749 0,74.421 "/>
<rect x="14.653" y="12.686" fill="#939598" width="15.174" height="2.316"/>
<rect x="34.865" y="19.52" fill="#939598" width="7.298" height="21.545"/>
<path fill="#939598" d="M65.381,16.273H44.652v28.675l1.209,1.209h4.323v25.898l25.273,0.049l-0.102-19.901
	C75.356,52.203,65.381,15.755,65.381,16.273z"/>
<polygon fill="#939598" points="46.269,11.757 63.412,11.757 63.412,1.911 61.501,0 48.122,0 46.239,1.883 "/>
<polygon fill="#939598" points="76.327,73.031 49.164,73.031 48.238,74.393 48.238,79.749 77.022,79.749 77.022,74.421 "/>
<rect x="47.195" y="12.686" fill="#939598" width="15.174" height="2.316"/>
</svg>
