<?xml version="1.0" encoding="utf-8"?>
<!-- Generator: Adobe Illustrator 16.0.0, SVG Export Plug-In . SVG Version: 6.00 Build 0)  -->
<!DOCTYPE svg PUBLIC "-//W3C//DTD SVG 1.1//EN" "http://www.w3.org/Graphics/SVG/1.1/DTD/svg11.dtd">
<svg version="1.1" id="Layer_1" xmlns="http://www.w3.org/2000/svg" xmlns:xlink="http://www.w3.org/1999/xlink" x="0px" y="0px"
	 width="88.314px" height="166.56px" viewBox="0 0 88.314 166.56" enable-background="new 0 0 88.314 166.56" xml:space="preserve">
<path fill-rule="evenodd" clip-rule="evenodd" fill="#939597" d="M59.773,56.842h24.58c0,0-1.565-17.17-8.777-26.019
	c-9.064-11.123-23.471-10.578-23.471-10.578L51.551,5.982H35.47v13.724c0,0-9.743-0.22-18.854,5.92
	C11.006,29.407,3.39,39.183,3.093,53.719C2.741,70.881,13.283,83.44,34.652,91.103c9.759,3.5,23.716,3.417,26.385,13.749
	c3.865,14.96-9.98,17.565-17.117,16.82c-15.595-1.628-17.411-13.279-17.411-13.279l-26.506-0.399c0,0-0.385,12.09,7.935,22.546
	c9.744,12.246,25.911,13.787,25.911,13.787l0.301,16.14h20.166l-0.538-16.82c0,0,15.667,0.322,24.767-10.25
	c13.387-15.551,11.346-37.347,3.84-46.202c-8.693-10.256-18.657-12.897-31.111-16.628c-12.797-3.834-22.149-8.239-22.394-16.415
	c-0.217-7.246,3.407-13.51,15.463-13.993C60.341,39.516,58.664,51.46,59.773,56.842z"/>
<path fill-rule="evenodd" clip-rule="evenodd" fill="#939597" d="M35.464,0h16.071v3.729H35.464V0z"/>
<path fill-rule="evenodd" clip-rule="evenodd" fill="#939597" d="M34.048,162.949H54.4v3.611H34.048V162.949z"/>
</svg>
