<?xml version="1.0" encoding="utf-8"?>
<!-- Generator: Adobe Illustrator 16.0.3, SVG Export Plug-In . SVG Version: 6.00 Build 0)  -->
<!DOCTYPE svg PUBLIC "-//W3C//DTD SVG 1.1//EN" "http://www.w3.org/Graphics/SVG/1.1/DTD/svg11.dtd">
<svg version="1.1" id="Layer_1" xmlns="http://www.w3.org/2000/svg" xmlns:xlink="http://www.w3.org/1999/xlink" x="0px" y="0px"
	 width="194.232px" height="103.203px" viewBox="0 0 194.232 103.203" enable-background="new 0 0 194.232 103.203"
	 xml:space="preserve">
<path fill="#939597" d="M71.029,89.785c0,0,48.382,12.569,61.132,12.887c12.752,0.318,24.555,1.451,39.644-1.069
	c19.918-3.326,26.032-13.856,20.471-15.194s-53.499-8.676-53.499-8.676s-6.83,2.572-17.983,5.652
	C99.324,89.313,71.029,89.785,71.029,89.785z"/>
<path fill="#939597" d="M88.514,0c0,0-56.152,7.005-68.281,11.32C6.236,16.298,0,23.921,0,34.369
	c0,11.217,4.215,44.421,4.215,44.421l58.034,7.965c0,0-6.81-48.812-3.758-58.311C60.841,21.126,88.514,0,88.514,0z"/>
<path fill="#939597" d="M134.578,18.477c-2.896-6.396-42.471-17.634-42.471-17.634S63.245,21.249,61.995,31.279
	c-1.917,15.384,4.075,55.363,4.075,55.363s16.808,0.949,33.658-1.648c23.43-3.611,36.724-9.549,36.724-9.549
	S138.526,27.2,134.578,18.477z M110.665,56.871L92.638,36.877c0,0,13.229,4.128,15.828,3.796c3.268-0.416,13.831-7.776,13.831-7.776
	S110.969,57.104,110.665,56.871z"/>
</svg>
