<?xml version="1.0" encoding="utf-8"?>
<!-- Generator: Adobe Illustrator 17.0.0, SVG Export Plug-In . SVG Version: 6.00 Build 0)  -->
<!DOCTYPE svg PUBLIC "-//W3C//DTD SVG 1.1//EN" "http://www.w3.org/Graphics/SVG/1.1/DTD/svg11.dtd">
<svg version="1.1" id="Lager_1" xmlns="http://www.w3.org/2000/svg" xmlns:xlink="http://www.w3.org/1999/xlink" x="0px" y="0px"
	 width="320px" height="320px" viewBox="0 0 320 320" enable-background="new 0 0 320 320" xml:space="preserve">
<path fill="#FFFFFF" d="M299.215,176.616L320,169.307l-0.091-20.968l-20.846-7.126l-9.95-36.498l14.345-16.719l-10.563-18.113
	l-21.617,4.253l-26.866-26.633l4.063-21.653L230.27,15.445l-16.594,14.491l-36.583-9.633l-7.308-20.782l-20.968,0.091l-7.125,20.846
	l-36.498,9.95L88.475,16.063L70.362,26.627l4.251,21.617L47.982,75.11l-21.653-4.063L15.924,89.251l14.491,16.594l-9.633,36.583
	L0,149.736l0.091,20.968l20.846,7.126l9.95,36.496l-14.345,16.721l10.563,18.113l21.617-4.253l26.866,26.633l-4.063,21.653
	l18.205,10.405l16.594-14.491l36.583,9.63l7.308,20.785l20.968-0.091l7.125-20.846l36.496-9.95l16.721,14.345l18.113-10.563
	l-4.253-21.617l26.633-26.866l21.653,4.063l10.405-18.205l-14.491-16.596L299.215,176.616z M160,248.727
	c-49.268,0-89.206-39.94-89.206-89.206S110.732,70.315,160,70.315c49.266,0,89.206,39.939,89.206,89.206
	S209.266,248.727,160,248.727z"/>
</svg>
