<?xml version="1.0" encoding="utf-8"?>
<!-- Generator: Adobe Illustrator 17.0.0, SVG Export Plug-In . SVG Version: 6.00 Build 0)  -->
<!DOCTYPE svg PUBLIC "-//W3C//DTD SVG 1.1//EN" "http://www.w3.org/Graphics/SVG/1.1/DTD/svg11.dtd">
<svg version="1.1" id="Layer_1" xmlns="http://www.w3.org/2000/svg" xmlns:xlink="http://www.w3.org/1999/xlink" x="0px" y="0px"
	 width="213.863px" height="320px" viewBox="0 0 213.863 320" enable-background="new 0 0 213.863 320" xml:space="preserve">
<g>
	<path fill="#FFFFFF" d="M135.111,30.477c0,10.536-4.773,15.125-12.212,21.636l5.38-1.237h38.02L189.074,0h-65.378
		c0,0-2.617,0-6.468,0C127.888,6.195,135.111,17.46,135.111,30.477z"/>
	<ellipse fill="#FFFFFF" cx="98.789" cy="31.492" rx="21.794" ry="21.333"/>
	<path fill="#FFFFFF" d="M72.752,54.39C63.68,47.925,62.468,42.3,62.468,30.476c0-6.409,1.869-12.337,4.9-17.528
		c-93.264,70.949-63.797,218.269-59.9,243.051c4.15,26.413,20.156,13.208,17.043,0C12.266,145.12,20.194,99.197,72.752,54.39z"/>
	<path fill="#FFFFFF" d="M203.603,106.667c-4.512,0-8.797-0.556-12.834-1.571c-21.034-5.297-35.243-23.122-38.727-40.168h-28.514
		H95.016C91.509,82.1,77.352,100.06,56.134,105.21c-3.886,0.944-8.009,1.457-12.346,1.457C30.296,163.556,21.994,266.159,72.845,320
		c19.717,0,50.851,0,50.851,0s31.132,0,50.851,0C225.397,266.159,217.095,163.556,203.603,106.667z"/>
</g>
</svg>
