<?xml version="1.0" encoding="utf-8"?>
<!-- Generator: Adobe Illustrator 17.0.0, SVG Export Plug-In . SVG Version: 6.00 Build 0)  -->
<!DOCTYPE svg PUBLIC "-//W3C//DTD SVG 1.1//EN" "http://www.w3.org/Graphics/SVG/1.1/DTD/svg11.dtd">
<svg version="1.1" id="Lager_1" xmlns="http://www.w3.org/2000/svg" xmlns:xlink="http://www.w3.org/1999/xlink" x="0px" y="0px"
	 width="180.87px" height="320px" viewBox="0 0 180.87 320" enable-background="new 0 0 180.87 320" xml:space="preserve">
<g>
	<path fill="#FFFFFF" d="M32.391,6.956c2.174,0,58.043,0,58.043,0s55.87,0,58.043,0c7.826,0,8.261,4.809,8.261,4.809l6.848-0.081
		C163.588,1.25,156.739,0,148.261,0c-8.479,0-57.826,0-57.826,0S41.087,0,32.609,0C24.13,0,17.282,1.25,17.282,11.685l6.848,0.081
		C24.13,11.766,24.565,6.956,32.391,6.956z"/>
	<path fill="#FFFFFF" d="M173.704,206.516l7.165-4.777v-66.087l-7.165-4.777v-15.223l-8.487-12.174c0,0,0-3.296,0-8.406l1.739-1.159
		v-59.13l-2.729-1.819c-1.564-4.198-4.437-5.137-4.437-5.137h-16.534l9.849,57.391c0.494,2.881-2.044,5.217-5.671,5.217
		c-3.626,0-6.967-2.336-7.461-5.217l-11.34-66.088c-0.105-0.611-0.066-1.194,0.083-1.739H90.435H52.153
		c0.149,0.545,0.188,1.128,0.083,1.739L40.895,85.217c-0.495,2.881-3.835,5.217-7.461,5.217s-6.165-2.336-5.67-5.217l9.849-57.391
		H21.078c0,0-0.079,0.027-0.209,0.083v-0.083l-0.589,0.393c-0.153,0.092-0.319,0.201-0.5,0.333l-9.346,6.231v59.13l5.217,3.478
		c0,3.766,0,6.087,0,6.087l-8.487,12.174v15.223L0,135.652v66.087l7.165,4.777v12.615l0.469,1.867L0,226.087v66.087l8.696,5.797
		v11.594c0,0,0.678,10.435,6.783,10.435c6.104,0,74.957,0,74.957,0s68.852,0,74.957,0c6.104,0,6.783-10.435,6.783-10.435v-11.594
		l8.696-5.797v-66.087l-7.635-5.09l0.469-1.867v-12.614H173.704z M20.87,280c0,2.881-2.336,5.217-5.217,5.217
		s-5.217-2.336-5.217-5.217v-41.739c0-2.882,2.336-5.217,5.217-5.217s5.217,2.336,5.217,5.217V280z M20.87,189.565
		c0,2.881-2.336,5.217-5.217,5.217s-5.217-2.336-5.217-5.217v-41.739c0-2.881,2.336-5.217,5.217-5.217s5.217,2.336,5.217,5.217
		V189.565z M156.522,107.826c0,3.842-3.114,6.957-6.957,6.957h-41.74v13.724c18.279,7.259,31.264,25.612,31.264,47.119
		c0,27.863-21.784,50.451-48.655,50.451S41.78,203.489,41.78,175.625c0-21.507,12.984-39.86,31.263-47.119v-13.724H31.304
		c-3.842,0-6.957-3.115-6.957-6.957v-3.478c0-3.842,3.114-6.956,6.957-6.956h41.739v-6.957C73.044,86.593,79.636,80,83.478,80
		h13.913c3.842,0,10.434,6.593,10.434,10.435v6.957h41.74c3.842,0,6.957,3.114,6.957,6.956V107.826z M170.435,280
		c0,2.881-2.336,5.217-5.217,5.217s-5.217-2.336-5.217-5.217v-41.739c0-2.882,2.336-5.217,5.217-5.217s5.217,2.336,5.217,5.217V280z
		 M170.435,189.565c0,2.881-2.336,5.217-5.217,5.217s-5.217-2.336-5.217-5.217v-41.739c0-2.881,2.336-5.217,5.217-5.217
		s5.217,2.336,5.217,5.217V189.565z"/>
	<path fill="#FFFFFF" d="M59.446,175.754c0-9.562,3.902-18.163,10.119-24.134v-9.54c-10.488,7.142-17.428,19.503-17.428,33.564
		c0,22.112,17.146,40.038,38.298,40.038s38.298-17.926,38.298-40.038c0-14.062-6.94-26.422-17.428-33.564v9.54
		c6.217,5.971,10.119,14.572,10.119,24.134c0,18.032-13.874,32.65-30.989,32.65C73.32,208.404,59.446,193.786,59.446,175.754z"/>
	<path fill="#FFFFFF" d="M83.478,189.64v8.621h13.913v-8.621c5.23-2.765,8.839-8.53,8.839-15.215s-3.608-12.45-8.839-15.215v-23.557
		h-3.478v-41.74h-6.957v41.739h-3.478v23.557c-5.23,2.765-8.839,8.53-8.839,15.215S78.248,186.875,83.478,189.64z"/>
</g>
</svg>
