<?xml version="1.0" encoding="utf-8"?>
<!-- Generator: Adobe Illustrator 17.0.0, SVG Export Plug-In . SVG Version: 6.00 Build 0)  -->
<!DOCTYPE svg PUBLIC "-//W3C//DTD SVG 1.1//EN" "http://www.w3.org/Graphics/SVG/1.1/DTD/svg11.dtd">
<svg version="1.1" id="Lager_1" xmlns="http://www.w3.org/2000/svg" xmlns:xlink="http://www.w3.org/1999/xlink" x="0px" y="0px"
	 width="145.285px" height="320px" viewBox="0 0 145.285 320" enable-background="new 0 0 145.285 320" xml:space="preserve">
<path fill="#FFFFFF" d="M61.603,204.889c0-5.603-3.058-10.481-7.587-13.078v-20.76h-3.725v-59.333h-7.489v59.333h-3.687v20.76
	c-4.529,2.597-7.587,7.475-7.587,13.078s3.058,10.481,7.587,13.078v12.998h14.901v-12.998
	C58.545,215.371,61.603,210.492,61.603,204.889z"/>
<g>
	<path fill="#FFFFFF" d="M17.928,7.451c2.328,0,54.715,0,54.715,0s52.386,0,54.714,0c8.382,0,8.849,5.151,8.849,5.151l7.334-0.086
		C143.539,1.339,136.205,0,127.125,0S72.643,0,72.643,0S27.241,0,18.161,0S1.746,1.339,1.746,12.515l7.334,0.086
		C9.08,12.601,9.546,7.451,17.928,7.451z"/>
	<path fill="#FFFFFF" d="M145.285,103.376c0,0,0-58.673,0-68.917s-5.811-12.107-5.811-12.107h-14.677v57.742
		c0,3.086-3.336,5.588-7.451,5.588s-7.451-2.502-7.451-5.588V20.489c0-0.654,0.158-1.279,0.433-1.863H72.643H34.957
		c0.275,0.583,0.433,1.208,0.433,1.863v59.604c0,3.086-3.336,5.588-7.451,5.588s-7.451-2.502-7.451-5.588V22.351H5.811
		c0,0-5.811,1.863-5.811,12.107s0,68.917,0,68.917l5.811,5.588v99.65L0,215.133v71.712c0,0,0.726,11.176,7.264,11.176
		c2.129,0,9.804,0,19.185,0v-7.451h92.386v7.451c9.382,0,17.056,0,19.185,0c6.538,0,7.264-11.176,7.264-11.176v-71.712l-5.811-6.519
		v-99.65L145.285,103.376z M132.247,115.483c0,4.115-3.336,7.451-7.451,7.451H65.192v37.91c2.12,2.214,3.725,4.834,3.725,6.793
		v17.56c4.619,5.257,7.426,12.151,7.426,19.705s-2.807,14.448-7.426,19.705v10.084c0,4.115-7.061,11.176-11.175,11.176H35.39
		c-4.115,0-11.176-7.061-11.176-11.176v-10.085c-4.618-5.257-7.425-12.15-7.425-19.704s2.807-14.448,7.425-19.705v-17.561
		c0-1.958,1.606-4.579,3.725-6.793v-37.91h-7.451c-4.115,0-7.451-3.336-7.451-7.451v-14.901c0-4.115,3.336-7.451,7.451-7.451
		h104.307c4.115,0,7.451,3.336,7.451,7.451L132.247,115.483L132.247,115.483z"/>
	<path fill="#FFFFFF" d="M105.239,301.374H40.047c-2.057,0-3.725,1.668-3.725,3.725v11.176c0,2.057,1.668,3.725,3.725,3.725h65.192
		c2.057,0,3.725-1.668,3.725-3.725v-11.176C108.964,303.042,107.296,301.374,105.239,301.374z"/>
</g>
</svg>
