<?xml version="1.0" encoding="utf-8"?>
<!-- Generator: Adobe Illustrator 17.0.0, SVG Export Plug-In . SVG Version: 6.00 Build 0)  -->
<!DOCTYPE svg PUBLIC "-//W3C//DTD SVG 1.1//EN" "http://www.w3.org/Graphics/SVG/1.1/DTD/svg11.dtd">
<svg version="1.1" id="Lager_1" xmlns="http://www.w3.org/2000/svg" xmlns:xlink="http://www.w3.org/1999/xlink" x="0px" y="0px"
	 width="200.57px" height="321px" viewBox="0 0 200.57 321" enable-background="new 0 0 200.57 321" xml:space="preserve">
<g>
	<path fill="#FFFFFF" d="M120.93,155.338c0,3.801-6.522,10.323-10.323,10.323H89.962c-3.8,0-10.322-6.522-10.322-10.323H52.113
		v82.581h96.344v-82.581L120.93,155.338L120.93,155.338z"/>
</g>
<path fill="#FFFFFF" d="M190.008,11.724c0-4.93-3.517-11.224-7.142-11.224h-21.437c-0.089,0-1.045,0-2.649,0
	c-11.742,0-58.495,0-58.495,0s-46.752,0-58.494,0h-2.649H17.705c-3.626,0-7.143,6.294-7.143,11.224L0.5,65.876v244.301
	c0,4.93,2.799,10.323,6.882,10.323h37.849c4.083,0,6.881-5.393,6.881-10.323v-3.441h48.172h48.172v3.441
	c0,4.93,2.799,10.323,6.882,10.323h37.849c4.083,0,6.881-5.393,6.881-10.323V65.876L190.008,11.724z M162.22,251.683H38.349V141.575
	H79.64v-82.58h41.29v82.581h41.29V251.683z"/>
<path fill="#FFFFFF" d="M93.404,72.758h13.763v79.14H93.404V72.758z"/>
</svg>
