<?xml version="1.0" encoding="utf-8"?>
<!-- Generator: Adobe Illustrator 17.0.0, SVG Export Plug-In . SVG Version: 6.00 Build 0)  -->
<!DOCTYPE svg PUBLIC "-//W3C//DTD SVG 1.1//EN" "http://www.w3.org/Graphics/SVG/1.1/DTD/svg11.dtd">
<svg version="1.1" id="Lager_1" xmlns="http://www.w3.org/2000/svg" xmlns:xlink="http://www.w3.org/1999/xlink" x="0px" y="0px"
	 width="320px" height="141.477px" viewBox="0 0 320 141.477" enable-background="new 0 0 320 141.477" xml:space="preserve">
<g>
	<path fill="#FFFFFF" d="M245.888,38.766H2.215c0,0-2.542,1.703-2.18,4.421C1.16,51.622,3.587,69.822,4.564,77.15
		c0.263,1.968,3.189,3.151,3.189,3.151h257.518c0,0,8.804,2.055,11.076,5.538c3.949,6.054,8.327,14.498,8.327,14.498L320,79.767
		v-7.155L245.888,38.766z"/>
	<path fill="#FFFFFF" d="M60.364,30.459h119.068L143.434,0h-83.07c0,0-2.769,1.341-2.769,3.461c0,6.232,0,19.194,0,24.575
		C57.595,29.546,60.364,30.459,60.364,30.459z"/>
	<path fill="#FFFFFF" d="M51.843,89.605c-14.324,0-25.936,11.612-25.936,25.936s11.612,25.936,25.936,25.936
		s25.936-11.612,25.936-25.936S66.167,89.605,51.843,89.605z M51.699,128.956c-7.656,0-13.862-6.207-13.862-13.863
		s6.206-13.862,13.862-13.862s13.862,6.206,13.862,13.862C65.561,122.75,59.355,128.956,51.699,128.956z"/>
	<path fill="#FFFFFF" d="M51.697,105.703c-5.186,0-9.391,4.204-9.391,9.391s4.204,9.391,9.391,9.391
		c5.186,0,9.391-4.204,9.391-9.391C61.088,109.907,56.884,105.703,51.697,105.703z M51.696,120.013
		c-2.716,0-4.919-2.203-4.919-4.919s2.202-4.919,4.919-4.919s4.919,2.202,4.919,4.919S54.412,120.013,51.696,120.013z"/>
	<path fill="#FFFFFF" d="M115.342,89.605c-14.324,0-25.936,11.612-25.936,25.936s11.612,25.936,25.936,25.936
		s25.936-11.612,25.936-25.936C141.278,101.217,129.666,89.605,115.342,89.605z M115.198,128.956
		c-7.656,0-13.862-6.207-13.862-13.863s6.206-13.862,13.862-13.862s13.862,6.206,13.862,13.862
		C129.06,122.75,122.854,128.956,115.198,128.956z"/>
	<path fill="#FFFFFF" d="M115.196,105.703c-5.186,0-9.391,4.204-9.391,9.391s4.204,9.391,9.391,9.391s9.391-4.204,9.391-9.391
		C124.587,109.907,120.383,105.703,115.196,105.703z M115.195,120.013c-2.716,0-4.919-2.203-4.919-4.919s2.202-4.919,4.919-4.919
		c2.717,0,4.919,2.202,4.919,4.919S117.911,120.013,115.195,120.013z"/>
	<path fill="#FFFFFF" d="M178.841,89.605c-14.324,0-25.936,11.612-25.936,25.936s11.612,25.936,25.936,25.936
		s25.936-11.612,25.936-25.936C204.777,101.217,193.165,89.605,178.841,89.605z M178.697,128.956
		c-7.656,0-13.862-6.207-13.862-13.863s6.206-13.862,13.862-13.862s13.862,6.206,13.862,13.862
		C192.56,122.75,186.353,128.956,178.697,128.956z"/>
	<path fill="#FFFFFF" d="M178.695,105.703c-5.186,0-9.391,4.204-9.391,9.391s4.204,9.391,9.391,9.391s9.391-4.204,9.391-9.391
		C188.086,109.907,183.882,105.703,178.695,105.703z M178.694,120.013c-2.716,0-4.919-2.203-4.919-4.919s2.203-4.919,4.919-4.919
		c2.717,0,4.919,2.202,4.919,4.919S181.41,120.013,178.694,120.013z"/>
	<path fill="#FFFFFF" d="M243.235,89.605c-14.324,0-25.936,11.612-25.936,25.936s11.612,25.936,25.936,25.936
		c14.324,0,25.936-11.612,25.936-25.936S257.559,89.605,243.235,89.605z M243.09,128.956c-7.656,0-13.862-6.207-13.862-13.863
		s6.206-13.862,13.862-13.862s13.862,6.206,13.862,13.862C256.953,122.75,250.747,128.956,243.09,128.956z"/>
	<path fill="#FFFFFF" d="M243.089,105.703c-5.186,0-9.391,4.204-9.391,9.391s4.204,9.391,9.391,9.391s9.391-4.204,9.391-9.391
		C252.48,109.907,248.275,105.703,243.089,105.703z M243.087,120.013c-2.717,0-4.919-2.203-4.919-4.919s2.202-4.919,4.919-4.919
		s4.919,2.202,4.919,4.919S245.804,120.013,243.087,120.013z"/>
	<polygon fill="#FFFFFF" points="237.581,16.614 237.581,8.307 164.285,8.219 173.893,16.614 	"/>
</g>
</svg>
