<?xml version="1.0" encoding="utf-8"?>
<!-- Generator: Adobe Illustrator 17.0.0, SVG Export Plug-In . SVG Version: 6.00 Build 0)  -->
<!DOCTYPE svg PUBLIC "-//W3C//DTD SVG 1.1//EN" "http://www.w3.org/Graphics/SVG/1.1/DTD/svg11.dtd">
<svg version="1.1" id="Lager_1" xmlns="http://www.w3.org/2000/svg" xmlns:xlink="http://www.w3.org/1999/xlink" x="0px" y="0px"
	 width="192.226px" height="320px" viewBox="0 0 192.226 320" enable-background="new 0 0 192.226 320" xml:space="preserve">
<g>
	<path fill="#FFFFFF" d="M172.84,80.467V26.822L157.939,5.96h-20.862L134.524,0h-39.17H56.407l-2.776,5.96H32.769L17.867,26.822
		v53.644h77.486L172.84,80.467L172.84,80.467z M98.334,17.382c0-3.089,2.499-5.461,5.582-5.461h47.448
		c3.083,0,7.005,2.371,8.858,5.461l1.78,2.966c2.088,3.481,1.004,6.475-2.549,6.475h-54.685c-3.553,0-6.433-2.994-6.433-6.475
		v-2.966H98.334z M92.374,20.347c0,3.481-2.88,6.475-6.434,6.475H31.255c-3.553,0-4.637-2.994-2.549-6.475l1.78-2.966
		c1.853-3.089,5.775-5.461,8.858-5.461h47.447c3.083,0,5.582,2.371,5.582,5.461L92.374,20.347L92.374,20.347z"/>
	<path fill="#FFFFFF" d="M17.867,298.025c0,3.292,2.669,5.961,5.96,5.961h2.996l-0.015,11.921h31.213l-40.153-40.281L17.867,298.025
		L17.867,298.025z"/>
	<path fill="#FFFFFF" d="M163.9,315.906l0.003-11.921h2.977c3.292,0,5.96-2.669,5.96-5.961V247.36l-67.602,68.545L163.9,315.906
		L163.9,315.906z"/>
	<path fill="#FFFFFF" d="M113.235,116.23c4.47-3.229,11.424-3.229,14.901,0c2.172,2.017,26.643,26.501,44.704,44.594v-14.791
		c0-3.292-2.669-5.96-5.96-5.96h-2.956L163.9,92.388H95.354H26.808l0.123,47.684h-3.103c-3.292,0-5.96,2.669-5.96,5.96v50.664
		c0,1.062,0.281,2.057,0.767,2.92l55.857-56.564C74.492,143.052,108.765,119.458,113.235,116.23z"/>
</g>
<path fill="#FFFFFF" d="M121.341,127.163l-36.017,23.786L0,236.544L83.191,320l84.791-85.06l24.244-36.666L121.341,127.163z
	 M39.209,245.849l-0.584,0.586l-8.816,6.054l-6.755-6.776l6.035-8.844l0.584-0.586l-3.179-3.189l10.679-10.713l5.849,0.51
	l45.388-45.532c14.745-14.792,39.476-30.036,39.476-30.036s-15.195,24.81-29.94,39.602l-45.388,45.532l0.509,5.867l-10.68,10.713
	L39.209,245.849z M61.686,269.149l-0.584,0.586l-8.816,6.054l-6.755-6.776l6.035-8.844l0.584-0.586l-3.179-3.189L59.65,245.68
	l5.849,0.51l45.388-45.532c14.746-14.792,39.477-30.036,39.477-30.036s-15.195,24.81-29.941,39.602l-45.388,45.532l0.509,5.867
	l-10.68,10.713L61.686,269.149z M142.9,234.276l-45.388,45.532l0.509,5.867l-10.68,10.713l-3.179-3.189l-0.584,0.586l-8.816,6.054
	l-6.755-6.776l6.035-8.844l0.584-0.586l-3.179-3.189l10.68-10.713l5.849,0.51l45.388-45.532
	c14.745-14.792,39.477-30.036,39.477-30.036S157.645,219.484,142.9,234.276z"/>
</svg>
