<?xml version="1.0" encoding="utf-8"?>
<!-- Generator: Adobe Illustrator 17.0.0, SVG Export Plug-In . SVG Version: 6.00 Build 0)  -->
<!DOCTYPE svg PUBLIC "-//W3C//DTD SVG 1.1//EN" "http://www.w3.org/Graphics/SVG/1.1/DTD/svg11.dtd">
<svg version="1.1" id="Lager_1" xmlns="http://www.w3.org/2000/svg" xmlns:xlink="http://www.w3.org/1999/xlink" x="0px" y="0px"
	 width="320px" height="221.975px" viewBox="0 0 320 221.975" enable-background="new 0 0 320 221.975" xml:space="preserve">
<path fill="#FFFFFF" d="M48.086,221.975c-14.506,0-26.266-11.76-26.266-26.266c0-14.507,11.76-26.266,26.266-26.266
	c14.507,0,26.266,11.76,26.266,26.266C74.353,210.216,62.593,221.975,48.086,221.975z M47.941,181.218
	c-7.753,0-14.039,6.285-14.039,14.039c0,7.753,6.285,14.039,14.039,14.039c7.753,0,14.039-6.285,14.039-14.039
	C61.979,187.503,55.694,181.218,47.941,181.218z M47.939,204.767c-5.252,0-9.51-4.258-9.51-9.51s4.258-9.51,9.51-9.51
	s9.51,4.258,9.51,9.51C57.449,200.509,53.191,204.767,47.939,204.767z M47.937,190.275c-2.751,0-4.981,2.23-4.981,4.981
	s2.23,4.982,4.981,4.982s4.981-2.23,4.981-4.982C52.919,192.505,50.688,190.275,47.937,190.275z"/>
<path fill="#FFFFFF" d="M112.393,221.975c-14.507,0-26.266-11.76-26.266-26.266c0-14.507,11.76-26.266,26.266-26.266
	s26.266,11.76,26.266,26.266C138.659,210.216,126.9,221.975,112.393,221.975z M112.247,181.218c-7.753,0-14.039,6.285-14.039,14.039
	c0,7.753,6.285,14.039,14.039,14.039s14.039-6.285,14.039-14.039S120.001,181.218,112.247,181.218z M112.246,204.767
	c-5.253,0-9.51-4.258-9.51-9.51s4.258-9.51,9.51-9.51s9.51,4.258,9.51,9.51C121.756,200.509,117.498,204.767,112.246,204.767z
	 M112.244,190.275c-2.751,0-4.981,2.23-4.981,4.981s2.23,4.982,4.981,4.982s4.981-2.23,4.981-4.982
	C117.225,192.505,114.995,190.275,112.244,190.275z"/>
<path fill="#FFFFFF" d="M176.7,221.975c-14.506,0-26.266-11.76-26.266-26.266c0-14.507,11.76-26.266,26.266-26.266
	s26.266,11.76,26.266,26.266C202.966,210.216,191.206,221.975,176.7,221.975z M176.554,181.218c-7.753,0-14.039,6.285-14.039,14.039
	c0,7.753,6.285,14.039,14.039,14.039c7.753,0,14.039-6.285,14.039-14.039S184.307,181.218,176.554,181.218z M176.552,204.767
	c-5.252,0-9.51-4.258-9.51-9.51s4.258-9.51,9.51-9.51s9.51,4.258,9.51,9.51S181.804,204.767,176.552,204.767z M176.551,190.275
	c-2.751,0-4.981,2.23-4.981,4.981s2.23,4.982,4.981,4.982s4.982-2.23,4.982-4.982C181.532,192.505,179.302,190.275,176.551,190.275z
	"/>
<path fill="#FFFFFF" d="M241.912,221.975c-14.506,0-26.266-11.76-26.266-26.266c0-14.507,11.76-26.266,26.266-26.266
	c14.507,0,26.266,11.76,26.266,26.266C268.178,210.216,256.419,221.975,241.912,221.975z M241.766,181.218
	c-7.753,0-14.039,6.285-14.039,14.039c0,7.753,6.285,14.039,14.039,14.039c7.753,0,14.039-6.285,14.039-14.039
	C255.805,187.503,249.52,181.218,241.766,181.218z M241.765,204.767c-5.252,0-9.51-4.258-9.51-9.51s4.258-9.51,9.51-9.51
	s9.51,4.258,9.51,9.51S247.017,204.767,241.765,204.767z M241.763,190.275c-2.751,0-4.981,2.23-4.981,4.981s2.23,4.982,4.981,4.982
	s4.981-2.23,4.981-4.982C246.744,192.505,244.514,190.275,241.763,190.275z"/>
<path fill="#FFFFFF" d="M284.673,180.355c0,0-4.378-8.444-8.326-14.498c-2.272-3.483-11.076-5.538-11.076-5.538H7.753
	c0,0-2.927-1.184-3.189-3.151c-0.977-7.328-3.404-25.528-4.528-33.963c-0.362-2.717,2.18-4.421,2.18-4.421h243.672L320,152.63v7.155
	L284.673,180.355z"/>
<g>
	<polygon fill="#FFFFFF" points="193.276,110.477 160.048,80.018 115.744,80.018 109.593,64.382 54.777,94.236 54.826,110.477 	"/>
</g>
<path fill="#FFFFFF" d="M7.99,63.272L123.888,0.53c0.82-0.444,1.846-0.137,2.289,0.685l17.632,30.254
	c0.444,0.823,0.138,1.85-0.683,2.294L27.228,96.506c-0.821,0.444-1.846,0.137-2.289-0.685L7.307,65.566
	C6.863,64.744,7.169,63.716,7.99,63.272z"/>
</svg>
