<?xml version="1.0" encoding="utf-8"?>
<!-- Generator: Adobe Illustrator 17.0.0, SVG Export Plug-In . SVG Version: 6.00 Build 0)  -->
<!DOCTYPE svg PUBLIC "-//W3C//DTD SVG 1.1//EN" "http://www.w3.org/Graphics/SVG/1.1/DTD/svg11.dtd">
<svg version="1.1" id="Lager_1" xmlns="http://www.w3.org/2000/svg" xmlns:xlink="http://www.w3.org/1999/xlink" x="0px" y="0px"
	 width="209.489px" height="320px" viewBox="0 0 209.489 320" enable-background="new 0 0 209.489 320" xml:space="preserve">
<g>
	<path fill="#FFFFFF" d="M209.454,55.273c0-4.234-4.459-8.727-8.728-8.727h-34.909c-4.268,0-8.728,4.493-8.728,8.727V64h-26.181
		c0,13.321,0,31.474,0,34.909c0,4.818-5.818,7.973-5.818,7.973v6.575h6.256c0,0,47.611,22.639,49.552,23.544
		c4.437,1.704,5.263,5.962,5.263,10.222c0,4.259,0,49.996,0,49.996s-25.478,68.673-25.534,68.459
		c-1.553,3.94-4.437,7.788-7.986,7.788h-47.917H56.811c-3.549,0-6.766-4.167-7.986-7.788c0.277,0.213-25.534-68.459-25.534-68.459
		s0-45.737,0-49.996s2.282-8.518,6.718-10.222c-0.055,0.213,48.098-23.544,48.098-23.544h6.256v-6.575c0,0-5.817-2.792-5.817-7.973
		c0-3.327,0-21.547,0-34.909H52.363v-8.727c0-4.234-4.459-8.727-8.727-8.727H8.727C4.459,46.545,0,51.039,0,55.273v255.999
		c0,4.234,4.459,8.727,8.727,8.727h34.909c7.177,0,8.727-4.493,8.727-8.727v-2.909h52.363h52.364v2.909
		c0,4.234,1.966,8.727,8.728,8.727h34.909c4.253,0.072,8.643-4.115,8.728-8.727C209.532,310.922,209.454,55.273,209.454,55.273z"/>
	<path fill="#FFFFFF" d="M82.264,125.091l-47.336,22.132v45.997l26.004,68.617h43.795h43.794l26.004-68.617v-45.997l-47.336-22.132
		h-1.882c-0.292,5.799-3.457,11.628-7.699,11.628c-4.294,0-12.881,0-12.881,0s-8.587,0-12.881,0c-4.243,0-7.408-5.829-7.7-11.628
		C84.146,125.091,82.264,125.091,82.264,125.091z"/>
	<polygon fill="#FFFFFF" points="95.985,125.088 113.468,125.088 113.454,96 119.273,96 119.273,58.182 113.454,58.182 113.454,0 
		96,0 96,58.182 90.182,58.182 90.182,96 96,96 	"/>
</g>
</svg>
