<?xml version="1.0" encoding="utf-8"?>
<!-- Generator: Adobe Illustrator 17.0.0, SVG Export Plug-In . SVG Version: 6.00 Build 0)  -->
<!DOCTYPE svg PUBLIC "-//W3C//DTD SVG 1.1//EN" "http://www.w3.org/Graphics/SVG/1.1/DTD/svg11.dtd">
<svg version="1.1" id="Lager_1" xmlns="http://www.w3.org/2000/svg" xmlns:xlink="http://www.w3.org/1999/xlink" x="0px" y="0px"
	 width="182.857px" height="320px" viewBox="0 0 182.857 320" enable-background="new 0 0 182.857 320" xml:space="preserve">
<g>
	<path fill="#FFFFFF" d="M110.476,125.714H91.428H72.38c0,2.629,0,5.269,0,7.619c-3.046,15.958-7.619,33.078-7.619,53.333
		c0,3.683,0,43.386,0,49.524c0,6.611,10.17,10.9,26.667,11.429c16.496-0.528,26.667-4.818,26.667-11.429c0-6.138,0-45.841,0-49.524
		c0-20.255-4.573-37.375-7.619-53.333C110.476,130.983,110.476,128.343,110.476,125.714z"/>
	<path fill="#FFFFFF" d="M72.38,110.476h19.048h19.047l6.463-3.677l12.584-22.989l-0.164-0.849
		c-1.341,0.163-2.598,0.214-3.635,0.078c-3.038-0.4-12.254-1.545-16.584-2.082l-3.178,6.814H91.506H77.05l-3.186-6.833
		c-4.264,0.528-13.657,1.695-16.731,2.1c-1.036,0.137-2.294,0.086-3.635-0.078l-0.164,0.849l12.585,22.989L72.38,110.476z"/>
	<polygon fill="#FFFFFF" points="57.144,64.143 70.146,61.942 79.764,47.543 91.506,47.543 103.248,47.543 112.886,61.971 
		125.712,64.143 113.283,0 113.284,0 91.428,0 69.573,0 69.573,0 	"/>
	<path fill="#FFFFFF" d="M179.029,100.589c2.308-2.551,3.827-8.038,3.827-8.038v-70.56c0,0-1.877-4.944-4.51-6.534
		c-6.189-3.739-16.555-10.002-16.555-10.002l-32.83-4.565c3.243,16.113,8.237,40.952,11.747,58.535
		c6.08,3.189,23.101,12.957,23.101,12.957s7.422,4.398,3.809,11.429c-2.455,4.777-6.666,5.952-11.429,3.81
		c-2.858-1.286-7.772-3.772-11.247-5.555c0.108,4.887-1.684,11.467-3.311,13.745c-5.405,7.568-12.109,18.477-12.109,18.477
		l-3.81,7.619c0,4.173,0,1.042,0,11.429c3.915,15.344,7.619,33.819,7.619,57.143s0,44.74,0,53.333
		c0,11.824-24.69,18.613-41.905,19.048c-17.214-0.435-41.905-7.223-41.905-19.048c0-8.593,0-30.01,0-53.333
		c0-23.324,3.704-41.798,7.619-57.143c0-10.386,0-7.256,0-11.429l-3.809-7.619c0,0-6.704-10.909-12.109-18.477
		c-1.627-2.277-3.419-8.858-3.311-13.745c-3.474,1.783-8.389,4.269-11.247,5.555c-4.762,2.143-8.973,0.968-11.429-3.81
		c-3.613-7.03,3.81-11.429,3.81-11.429s17.019-9.767,23.1-12.956c3.509-17.583,8.504-42.422,11.747-58.536l-32.83,4.565
		c0,0-10.366,6.263-16.554,10.002C1.877,17.047,0,21.991,0,21.991v70.56c0,0,1.519,5.487,3.827,8.038
		c7.302,8.067,22.839,25.126,22.839,25.126v80c0,0-14.707,12.634-22.215,19.373C1.797,227.471,0,232.893,0,232.893v72.552
		l11.429,10.746L52.984,320l7.969-11.429h30.476h30.476L129.873,320l41.555-3.81l11.428-10.746v-72.552c0,0-1.797-5.422-4.451-7.805
		c-7.509-6.739-22.215-19.373-22.215-19.373v-80C156.19,125.714,171.727,108.656,179.029,100.589z"/>
</g>
</svg>
