<?xml version="1.0" encoding="utf-8"?>
<!-- Generator: Adobe Illustrator 17.0.0, SVG Export Plug-In . SVG Version: 6.00 Build 0)  -->
<!DOCTYPE svg PUBLIC "-//W3C//DTD SVG 1.1//EN" "http://www.w3.org/Graphics/SVG/1.1/DTD/svg11.dtd">
<svg version="1.1" id="Lager_1" xmlns="http://www.w3.org/2000/svg" xmlns:xlink="http://www.w3.org/1999/xlink" x="0px" y="0px"
	 width="206.33px" height="320px" viewBox="0 0 206.33 320" enable-background="new 0 0 206.33 320" xml:space="preserve">
<path fill="#FFFFFF" d="M79.093,172.13h48.143v58.46H79.093V172.13z"/>
<path fill="#FFFFFF" d="M192.835,11.407c0-4.927-2.937-10.984-6.561-10.984h-26.46C177.458,0.422,103.165,0,103.165,0
	s-74.293,0.422-56.65,0.422H20.056c-3.624,0-6.561,6.057-6.561,10.984L0,68.966v240.718C0,314.61,2.797,320,6.878,320h37.827
	c4.081,0,9.199-6.303,9.199-11.23l1.117-2.525h48.144h48.143l1.117,2.525c0,4.927,5.119,11.23,9.2,11.23h34.389
	c4.081,0,10.316-5.39,10.316-10.316V65.527L192.835,11.407z M192.575,258.101h-65.338v-13.503H79.093v13.503H13.755V103.354h65.338
	v55.021h48.143v-55.021h65.338v154.747H192.575z"/>
<path fill="#FFFFFF" d="M27.363,116.796h37.901l0.075,127.55H27.511L27.363,116.796z"/>
<path fill="#FFFFFF" d="M140.844,116.796h37.901l0.075,127.55h-37.827L140.844,116.796z"/>
</svg>
