<?xml version="1.0" encoding="utf-8"?>
<!-- Generator: Adobe Illustrator 17.0.0, SVG Export Plug-In . SVG Version: 6.00 Build 0)  -->
<!DOCTYPE svg PUBLIC "-//W3C//DTD SVG 1.1//EN" "http://www.w3.org/Graphics/SVG/1.1/DTD/svg11.dtd">
<svg version="1.1" id="Layer_1" xmlns="http://www.w3.org/2000/svg" xmlns:xlink="http://www.w3.org/1999/xlink" x="0px" y="0px"
	 width="320px" height="150.93px" viewBox="0 0 320 150.93" enable-background="new 0 0 320 150.93" xml:space="preserve">
<path fill="#FFFFFF" d="M286.837,107.421c0,17.142-9.142,20.57-9.142,20.57v22.939h42.283v-22.939
	c-15.427-11.428-8.571-30.284-4-33.712c4.571-3.428,4-9.714,4-9.714v-16.57C307.407,13.713,257.697,0,257.697,0v10.856
	c11.428,7.999,29.141,21.141,29.141,41.711s-24.57,19.999-24.57,19.999h-87.994c-1.714-4.571-5.142-4-5.142-4H15.999
	c0,0-15.999,0.131-15.999,18.284c0,17.773,13.713,16.57,13.713,16.57s111.421,0,131.991,0c19.485,0,26.855-13.142,26.855-13.142
	h90.279C262.838,90.279,286.837,90.279,286.837,107.421z"/>
</svg>
