<?xml version="1.0" encoding="utf-8"?>
<!-- Generator: Adobe Illustrator 17.0.0, SVG Export Plug-In . SVG Version: 6.00 Build 0)  -->
<!DOCTYPE svg PUBLIC "-//W3C//DTD SVG 1.1//EN" "http://www.w3.org/Graphics/SVG/1.1/DTD/svg11.dtd">
<svg version="1.1" id="Layer_1" xmlns="http://www.w3.org/2000/svg" xmlns:xlink="http://www.w3.org/1999/xlink" x="0px" y="0px"
	 width="320px" height="186.416px" viewBox="0 0 320 186.416" enable-background="new 0 0 320 186.416" xml:space="preserve">
<g>
	<path fill="#FFFFFF" d="M107.473,106.264c-7.246-3.019-14.231,4.226-16.041,7.848s-7.72,20.66-9.531,25.488
		c-1.811,4.83,1.209,13.284,7.247,15.7c6.037,2.414,13.625-1.338,15.436-5.565c1.811-4.228,7.72-22.944,10.135-28.982
		C117.133,114.718,114.718,109.283,107.473,106.264z"/>
	<path fill="#FFFFFF" d="M137.058,115.925c-6.039-2.414-15.912,0.605-17.119,5.433c-1.209,4.83-8.453,22.08-10.265,28.72
		c-1.811,6.642-0.817,13.888,7.457,16.646c5.433,1.811,13.284,0.262,15.095-5.174s6.642-19.059,9.66-27.513
		C144.906,125.586,143.096,118.34,137.058,115.925z"/>
	<polygon fill="#FFFFFF" points="0.605,1.209 0,147.924 22.862,156.377 69.565,26.093 	"/>
	<path fill="#FFFFFF" d="M79.698,100.227c-7.246-3.019-14.49,1.207-15.697,4.829c-1.209,3.623-5.435,12.076-8.453,22.943
		c0,0-2.207,9.943,6.428,13.887c7.114,3.249,15.307-1.29,16.515-6.121c1.207-4.83,5.019-13.469,7.246-19.843
		C87.891,109.757,86.944,103.245,79.698,100.227z"/>
	<path fill="#FFFFFF" d="M163.02,131.623c-6.037-3.019-13.07-0.734-15.484,4.096c-2.416,4.832-8.062,19.451-9.873,24.282
		c-1.811,4.832-0.808,12.217,6.037,15.095c6.743,2.835,13.887,2.414,15.699-3.019c1.812-5.433,6.512-13.412,8.926-21.867
		C170.74,141.757,169.058,134.642,163.02,131.623z"/>
	<polygon fill="#FFFFFF" points="252.378,24.755 300.503,154.484 320,148.528 320,0 	"/>
	<path fill="#FFFFFF" d="M229.031,27.04c-8.453-1.207-16.515-7.115-30.402-5.908c-13.887,1.207-31.382,1.811-34.401,2.416
		c-3.019,0.604-12.076,4.226-15.095,10.264c-3.018,6.037-15.094,36.226-18.113,42.265c-3.019,6.037,0.604,13.887,16.906,9.66
		c8.452-2.416,14.49-16.302,17.51-22.34c3.018-6.037,7.848-15.095,7.848-15.095l23.547,1.209l72.453,68.831l10.265-2.416
		l-33.812-87.547C245.737,28.377,237.483,28.248,229.031,27.04z"/>
	<path fill="#FFFFFF" d="M192.605,54.944h-16.303c0,0-6.642,9.66-10.867,19.924c-4.228,10.265-13.887,18.718-27.775,19.32
		c-13.887,0.604-16.302-11.472-16.302-11.472s13.283-30.792,18.113-42.869c4.83-12.076,8.714-14.148,8.714-14.148
		s-15.355-2.876-25.083-3.231c-20.076-0.734-27.288,8.145-48.839,8.928l-31.999,91.17l8.501,0.604c0,0,6.333-14.312,9.351-20.954
		c3.019-6.641,11.813-11.945,22.422-7.767c5.865,2.31,9.447,9.4,9.447,9.4s7.361-7.31,19.109-3.361
		c9.468,3.18,9.056,13.625,9.056,13.625s7.848-7.246,18.718-2.414c10.867,4.83,8.926,15.911,8.926,15.911s8.322-5.174,16.775-0.947
		c8.453,4.228,11.128,11.128,9.318,19.582c0,0,22.943,23.158,27.775,27.383c2.532,2.215,13.411,2.695,17.007-2.305
		c3.265-4.539,2.809-11.562-1.568-16.412c-4.005-4.438-29.928-28.119-34.156-31.741c-4.226-3.623,2.416-6.38,4.83-2.757
		c2.414,3.623,33.883,31.862,38.43,36.96c3.897,4.369,12.854,2.915,16.895-1.717c3.839-4.401,2.886-12.33,0.828-14.977
		c-4.228-5.433-33.16-29.453-37.386-33.076c-4.226-3.623-1.811-7.246,3.019-3.623c4.83,3.623,29.537,26.434,36.782,32.473
		c3.703,3.086,13.08,2.753,16.713-1.865c3.475-4.413,2.768-12.042-2.907-17.539C254.923,111.991,192.605,54.944,192.605,54.944z"/>
	<path fill="#FFFFFF" d="M173.154,152.412c0,0-6.428,13.543-9.447,21.996c0,0,7.21,8.63,10.23,10.443
		c3.019,1.812,11.815,3.102,15.438-2.333c3.623-5.435,3.623-9.318-0.605-14.751C184.543,162.333,179.191,157.847,173.154,152.412z"
		/>
</g>
</svg>
