<?xml version="1.0" encoding="utf-8"?>
<!-- Generator: Adobe Illustrator 17.0.0, SVG Export Plug-In . SVG Version: 6.00 Build 0)  -->
<!DOCTYPE svg PUBLIC "-//W3C//DTD SVG 1.1//EN" "http://www.w3.org/Graphics/SVG/1.1/DTD/svg11.dtd">
<svg version="1.1" id="Lager_1" xmlns="http://www.w3.org/2000/svg" xmlns:xlink="http://www.w3.org/1999/xlink" x="0px" y="0px"
	 width="224.561px" height="320px" viewBox="0 0 224.561 320" enable-background="new 0 0 224.561 320" xml:space="preserve">
<g>
	<g>
		<path fill="#FFFFFF" d="M126.544,224.559l0.001,5.615h-5.614l-17.274,0.001h-5.614l-0.001-5.613l-0.003-24.327
			c-17.142-2.772-33.231-10.584-46.067-22.382c0.085,15.841,0.093,32.02,0.093,44.329c0,13.683,0,45.416,0,45.416
			s3.962,11.062,16.98,10.48c0,5.532,0,41.922,0,41.922c19.701,0,40.066-0.018,42.892-0.021c2.738,0.003,22.483,0.021,42.185,0.021
			c0,0,0-36.39,0-41.922c13.017,0.582,16.98-10.48,16.98-10.48s0-31.733,0-45.416c0-11.985,0.008-27.639,0.086-43.077
			c-12.593,11.09-28.127,18.455-44.646,21.129L126.544,224.559z M130.35,148.819c-4.246-2.621-3.396-11.063-3.396-13.974
			c2.264-0.874,3.502-5.945,4.245-7.224c0.743-1.279,5.943-13.262,5.943-27.617c0-26.421-22.213-25.78-25.203-25.574
			c-3.074-0.206-25.913-0.847-25.913,25.574c0,14.355,5.2,26.338,5.943,27.617c0.743,1.279,1.981,6.35,4.245,7.224
			c0,2.911,0.849,11.353-3.396,13.974c-1.981,2.037-20.974,5.901-27.168,6.987c-0.874,0.154-1.774,0.442-2.674,0.839
			c0.78,0.867,1.575,1.721,2.401,2.548c8.961,8.959,20.38,15.181,32.66,17.888l-0.002-16.633l-0.001-6.703l6.599,1.175
			c2.562,0.456,5.133,0.687,7.653,0.687c2.515,0,5.089-0.232,7.651-0.689l6.599-1.177l0.001,6.703l0.001,16.634
			c12.28-2.708,23.698-8.931,32.657-17.892c0.675-0.675,1.329-1.369,1.973-2.071c-1.223-0.65-2.46-1.103-3.651-1.312
			C151.323,154.72,132.33,150.857,130.35,148.819z M224.559,103.637l-29.233,0.001c-4.034-39.211-35.207-70.365-74.418-74.395
			L120.905,0l-17.274,0.001l0.003,29.244c-39.21,4.034-70.375,35.192-74.401,74.403L0,103.65l0.002,17.273l29.233-0.002
			c2.219,21.568,12.661,40.685,28.122,54.205c0.003,0.003,0.006,0.005,0.009,0.008c0.891,0.779,1.799,1.54,2.723,2.281
			c0.018,0.015,0.036,0.029,0.054,0.044c0.906,0.726,1.828,1.432,2.764,2.12c0.039,0.029,0.077,0.058,0.116,0.086
			c0.912,0.668,1.839,1.317,2.779,1.948c0.067,0.045,0.133,0.092,0.201,0.137c0.913,0.609,1.839,1.199,2.777,1.773
			c0.098,0.06,0.194,0.122,0.292,0.181c0.905,0.549,1.823,1.078,2.751,1.593c0.136,0.076,0.27,0.154,0.407,0.229
			c0.894,0.49,1.8,0.96,2.713,1.417c0.174,0.088,0.346,0.179,0.521,0.265c0.878,0.432,1.767,0.844,2.662,1.245
			c0.217,0.098,0.432,0.201,0.65,0.297c0.857,0.376,1.725,0.731,2.598,1.079c0.262,0.105,0.521,0.216,0.784,0.318
			c0.836,0.324,1.683,0.626,2.532,0.923c0.305,0.107,0.606,0.222,0.913,0.325c0.818,0.276,1.647,0.529,2.476,0.779
			c0.344,0.104,0.683,0.218,1.029,0.318c0.803,0.232,1.616,0.439,2.428,0.647c0.379,0.097,0.753,0.205,1.134,0.297
			c0.799,0.192,1.608,0.359,2.416,0.529c0.4,0.084,0.796,0.18,1.199,0.258c0.848,0.165,1.705,0.302,2.562,0.441
			c0.367,0.059,0.73,0.132,1.099,0.187c1.227,0.182,2.463,0.338,3.707,0.466l0.003,29.244l17.274-0.001l-0.003-29.244
			c1.224-0.126,2.439-0.278,3.646-0.456c0.385-0.057,0.763-0.133,1.146-0.195c0.818-0.132,1.637-0.26,2.447-0.416
			c0.6-0.115,1.19-0.256,1.785-0.384c0.584-0.126,1.173-0.24,1.752-0.378c0.715-0.17,1.42-0.367,2.128-0.556
			c0.45-0.12,0.904-0.226,1.351-0.353c0.805-0.229,1.599-0.485,2.394-0.737c0.34-0.108,0.685-0.203,1.022-0.315
			c0.879-0.292,1.747-0.609,2.613-0.929c0.245-0.091,0.495-0.171,0.739-0.263c0.935-0.355,1.857-0.736,2.776-1.124
			c0.168-0.071,0.34-0.134,0.507-0.206c0.999-0.429,1.985-0.882,2.964-1.349c0.081-0.039,0.165-0.073,0.246-0.112
			c1.036-0.499,2.06-1.019,3.072-1.559c0.021-0.011,0.043-0.021,0.064-0.033c23.896-12.768,40.854-36.816,43.752-65.038
			l29.233-0.002L224.559,103.637z M165.676,160.502L165.676,160.502c-4.234,4.685-9.076,8.81-14.4,12.252
			c-0.116,0.075-0.234,0.146-0.35,0.22c-0.746,0.476-1.5,0.94-2.264,1.39c-0.202,0.119-0.407,0.232-0.61,0.349
			c-0.685,0.394-1.376,0.778-2.075,1.15c-0.262,0.139-0.526,0.273-0.789,0.409c-0.65,0.335-1.304,0.661-1.965,0.977
			c-0.305,0.146-0.612,0.288-0.92,0.43c-0.629,0.289-1.263,0.57-1.902,0.841c-0.339,0.144-0.679,0.287-1.021,0.426
			c-0.617,0.251-1.24,0.492-1.866,0.727c-0.366,0.137-0.732,0.275-1.101,0.406c-0.614,0.219-1.233,0.425-1.854,0.627
			c-0.385,0.125-0.768,0.253-1.155,0.371c-0.62,0.19-1.247,0.366-1.875,0.54c-0.393,0.109-0.784,0.223-1.18,0.325
			c-0.643,0.166-1.292,0.315-1.942,0.464c-0.386,0.088-0.769,0.184-1.158,0.266c-0.706,0.149-1.419,0.278-2.132,0.407
			c-0.337,0.061-0.671,0.131-1.01,0.187c-1.053,0.174-2.114,0.328-3.182,0.456l-0.002-23.275c-2.806,0.5-5.688,0.776-8.637,0.776
			c-0.004,0-0.008,0-0.011,0c-2.945,0-5.824-0.275-8.626-0.774l0.002,23.274c-1.08-0.129-2.152-0.286-3.217-0.462
			c-0.341-0.057-0.678-0.127-1.017-0.189c-0.723-0.131-1.445-0.263-2.16-0.415c-0.391-0.083-0.777-0.179-1.166-0.268
			c-0.66-0.152-1.319-0.306-1.972-0.476c-0.394-0.103-0.784-0.215-1.175-0.323c-0.646-0.18-1.289-0.364-1.927-0.561
			c-0.377-0.117-0.752-0.24-1.127-0.362c-0.65-0.213-1.297-0.433-1.938-0.664c-0.349-0.125-0.697-0.254-1.043-0.384
			c-0.672-0.253-1.338-0.517-2-0.79c-0.304-0.125-0.609-0.25-0.911-0.38c-0.715-0.306-1.423-0.626-2.126-0.955
			c-0.24-0.112-0.482-0.221-0.72-0.336c-0.803-0.387-1.598-0.789-2.384-1.204c-0.13-0.068-0.262-0.133-0.391-0.203
			c-5.717-3.064-10.974-6.876-15.637-11.308c-0.002-0.002-0.004-0.004-0.006-0.006c-0.775-0.737-1.533-1.491-2.274-2.261
			c-0.011-0.011-0.021-0.022-0.032-0.033c-0.74-0.769-1.463-1.555-2.168-2.356c-9.362-10.638-15.643-24.055-17.418-38.866
			l23.273-0.001c-0.5-2.806-0.776-5.688-0.776-8.637s0.275-5.832,0.774-8.637l-23.273,0.001
			c3.927-32.841,29.958-58.875,62.796-62.808l0.003,23.274c2.805-0.5,5.688-0.775,8.637-0.776c0.002,0,0.003,0,0.005,0
			c2.947,0,5.828,0.275,8.632,0.775l-0.003-23.274c32.839,3.929,58.876,29.96,62.811,62.802l-23.273,0.001
			c0.5,2.805,0.776,5.688,0.776,8.637s-0.275,5.832-0.774,8.637l23.273-0.001C181.911,136.06,175.39,149.752,165.676,160.502z"/>
	</g>
</g>
</svg>
