<?xml version="1.0" encoding="utf-8"?>
<!-- Generator: Adobe Illustrator 17.0.0, SVG Export Plug-In . SVG Version: 6.00 Build 0)  -->
<!DOCTYPE svg PUBLIC "-//W3C//DTD SVG 1.1//EN" "http://www.w3.org/Graphics/SVG/1.1/DTD/svg11.dtd">
<svg version="1.1" id="Lager_1" xmlns="http://www.w3.org/2000/svg" xmlns:xlink="http://www.w3.org/1999/xlink" x="0px" y="0px"
	 width="225.174px" height="320px" viewBox="0 0 225.174 320" enable-background="new 0 0 225.174 320" xml:space="preserve">
<g>
	<path fill="#FFFFFF" d="M135.256,101.769l89.918-89.918L213.323,0l-89.918,89.918c-6.83-3.258-14.806-3.258-21.636,0L11.851,0
		L0,11.851l89.918,89.918c-3.258,6.83-3.258,14.807,0,21.636L0,213.323l11.851,11.851l89.918-89.918
		c6.83,3.258,14.806,3.258,21.636,0l89.918,89.918l11.852-11.851l-89.918-89.918C138.515,116.575,138.515,108.599,135.256,101.769z"
		/>
	<path fill="#FFFFFF" d="M120.177,78.332l9.17-9.17v-1.618l-7.332-50.281l-9.428-5.237l-9.427,5.237l-7.333,50.281v1.617l9.17,9.17
		C109.994,77.23,115.181,77.23,120.177,78.332z"/>
	<path fill="#FFFFFF" d="M16.92,83.645v25.324v14.069v2.814l50.218,5.52l11.194-11.194c-1.102-4.996-1.102-10.184,0-15.18
		l-1.944-1.944l-17.261,1.717v-18.98l-2.146-2.146H45.057v22.524l-14.069,1.4V83.645H16.92z"/>
	<path fill="#FFFFFF" d="M123.948,187.754h19.59l1.17-16.38l-24.531-24.531c-4.996,1.102-10.183,1.102-15.18,0l-24.531,24.531
		l1.17,16.38h20.611l3.948,84.479l-16.117,1.068v-32.086h-8.441v32.646l-16.882,1.119v11.255l16.882,0.824V320h8.441v-32.529
		l16.868,0.823l0.404,8.656c0,0,0,5.237,5.237,5.237c5.238,0,5.238-5.237,5.238-5.237l0.486-8.66l42.111-2.055V274.98l-41.211-2.732
		L123.948,187.754z"/>
	<path fill="#FFFFFF" d="M158.037,131.371l50.218-5.52v-2.814v-14.069V83.645h-14.069v23.924l-14.068-1.4V83.645h-11.923
		l-2.146,2.146v18.979l-17.261-1.717l-1.944,1.944c1.102,4.996,1.102,10.183,0,15.18L158.037,131.371z"/>
</g>
</svg>
