<?xml version="1.0" encoding="utf-8"?>
<!-- Generator: Adobe Illustrator 17.0.0, SVG Export Plug-In . SVG Version: 6.00 Build 0)  -->
<!DOCTYPE svg PUBLIC "-//W3C//DTD SVG 1.1//EN" "http://www.w3.org/Graphics/SVG/1.1/DTD/svg11.dtd">
<svg version="1.1" id="Lager_1" xmlns="http://www.w3.org/2000/svg" xmlns:xlink="http://www.w3.org/1999/xlink" x="0px" y="0px"
	 width="217.817px" height="320px" viewBox="0 0 217.817 320" enable-background="new 0 0 217.817 320" xml:space="preserve">
<g>
	<path fill="#FFFFFF" d="M116.05,280.719l0.102-22.709l3.292-57.43l0.088-0.405c8.627-8.764,14.488-21.817,18.475-36.343
		l-22.966-22.966c-1.995,0.386-4.054,0.594-6.163,0.594c-2.11,0-4.17-0.208-6.167-0.594L79.747,163.83
		c4.151,15.125,10.337,28.65,19.557,37.403l2.056,43.031v36.245l-5.696,0.723l-6.17,0.523v-26.363H81.74v27.02l-17.934,1.52
		l-0.157,7.642L81.74,293.1V320h7.753v-26.249l14.288,1.205l0.294,6.158c0,0,0,4.774,4.803,4.774s4.803-4.774,4.803-4.774
		l0.353-6.163l40.068-3.38l-0.152-7.642L116.05,280.719z"/>
	<path fill="#FFFFFF" d="M108.878,77.625c2.008,0,3.97,0.192,5.876,0.543l28.196-28.196c-7.941-28.435-26.552-34.955-26.552-34.955
		H101.36c0,0-18.614,6.52-26.554,34.959l28.193,28.193C104.905,77.818,106.869,77.625,108.878,77.625z"/>
	<path fill="#FFFFFF" d="M145.093,120.264c0.661-8.195,1.006-16.009,1.185-22.966l-5.921,5.921c0.413,2.044,0.633,4.158,0.633,6.323
		c0,2.065-0.205,4.081-0.581,6.037L145.093,120.264z"/>
	<path fill="#FFFFFF" d="M71.478,97.303c0.18,6.954,0.525,14.765,1.186,22.955l4.683-4.683c-0.376-1.954-0.581-3.969-0.581-6.033
		c0-2.164,0.219-4.276,0.632-6.319L71.478,97.303z"/>
	<path fill="#FFFFFF" d="M129.637,119.519c1.469-3.015,2.294-6.399,2.294-9.974c0-3.58-0.827-6.967-2.3-9.985l87.614-88.119
		l-10.8-10.869l-87.739,88.245c-2.982-1.399-6.312-2.185-9.828-2.185c-3.5,0-6.816,0.779-9.787,2.166L10.799,0L0,10.869
		l88.145,88.65c-1.485,3.028-2.32,6.429-2.32,10.025c0,3.591,0.833,6.989,2.315,10.014L0.572,207.631l10.8,10.869l87.708-88.214
		c2.974,1.39,6.294,2.171,9.798,2.171c3.521,0,6.855-0.787,9.84-2.19l88.3,88.806l10.799-10.869L129.637,119.519z"/>
</g>
</svg>
