<?xml version="1.0" encoding="utf-8"?>
<!-- Generator: Adobe Illustrator 17.0.0, SVG Export Plug-In . SVG Version: 6.00 Build 0)  -->
<!DOCTYPE svg PUBLIC "-//W3C//DTD SVG 1.1//EN" "http://www.w3.org/Graphics/SVG/1.1/DTD/svg11.dtd">
<svg version="1.1" id="Lager_1" xmlns="http://www.w3.org/2000/svg" xmlns:xlink="http://www.w3.org/1999/xlink" x="0px" y="0px"
	 width="225.89px" height="320px" viewBox="0 0 225.89 320" enable-background="new 0 0 225.89 320" xml:space="preserve">
<g>
	<path fill="#FFFFFF" d="M144.732,120.267c0.158-3.445,0.24-7.221,0.24-9.945c0-1.092-0.013-2.835-0.039-4.9l-7.523,7.523
		L144.732,120.267z"/>
	<polygon fill="#FFFFFF" points="150.18,125.715 159.355,134.89 159.355,91 151.545,98.81 151.545,125.715 	"/>
	<polygon fill="#FFFFFF" points="151.545,190.114 159.355,190.114 159.355,183.82 151.545,176.01 	"/>
	<polygon fill="#FFFFFF" points="65.526,190.114 73.927,190.114 73.927,176.427 65.526,184.829 	"/>
	<polygon fill="#FFFFFF" points="159.355,38.984 151.545,38.984 151.545,49.879 159.355,42.069 	"/>
	<path fill="#FFFFFF" d="M136.4,65.024c-6.132-11.659-15.025-20.205-23.855-20.205c-8.715,0-17.393,8.324-23.51,19.75l23.909,23.909
		L136.4,65.024z"/>
	<polygon fill="#FFFFFF" points="73.927,38.984 65.526,38.984 65.526,41.061 73.927,49.462 	"/>
	<path fill="#FFFFFF" d="M122.371,173.725c3.814-3.04,8.035-8.411,11.723-15.167l-21.149-21.149l-21.467,21.467
		c3.796,6.614,8.12,11.795,12.027,14.724l4.842,106.936l-10.191,1.309v-21.004h-8.874v22.144l-11.832,1.52v11.832l11.832,1.725V320
		h8.874v-20.644l11.028,1.608l0.152,6.668l3.613,1.95l3.613-1.95l0.152-6.668l31.727-4.627v-11.832l-30.89-3.968L122.371,173.725z"
		/>
	<path fill="#FFFFFF" d="M80.148,104.614c-0.034,2.418-0.051,4.476-0.051,5.708c0,2.93,0.099,7.076,0.287,10.718l8.095-8.095
		L80.148,104.614z"/>
	<polygon fill="#FFFFFF" points="65.526,89.991 65.526,135.899 75.71,125.715 73.927,125.715 73.927,98.392 	"/>
	<path fill="#FFFFFF" d="M130.693,113.537c0-2.896-0.708-5.621-1.938-8.035L225.89,8.366L217.523,0l-97.342,97.342
		c-2.212-0.99-4.657-1.553-7.237-1.553s-5.025,0.563-7.237,1.553L8.366,0L0,8.366l97.135,97.135c-1.23,2.415-1.938,5.14-1.938,8.035
		c0,2.58,0.563,5.025,1.553,7.237L0,217.523l8.366,8.366l96.543-96.543c2.415,1.23,5.14,1.938,8.035,1.938
		c2.896,0,5.621-0.708,8.036-1.938l96.543,96.543l8.366-8.366l-96.75-96.75C130.13,118.561,130.693,116.117,130.693,113.537z"/>
</g>
</svg>
