<?xml version="1.0" encoding="utf-8"?>
<!-- Generator: Adobe Illustrator 16.0.0, SVG Export Plug-In . SVG Version: 6.00 Build 0)  -->
<!DOCTYPE svg PUBLIC "-//W3C//DTD SVG 1.1//EN" "http://www.w3.org/Graphics/SVG/1.1/DTD/svg11.dtd">
<svg version="1.1" id="Layer_1" xmlns="http://www.w3.org/2000/svg" xmlns:xlink="http://www.w3.org/1999/xlink" x="0px" y="0px"
	 width="386.412px" height="446.189px" viewBox="0 0 386.412 446.189" enable-background="new 0 0 386.412 446.189"
	 xml:space="preserve">
<path d="M386.412,321.794v12.848l-11.128,6.425l-11.127-6.425l-24.596-14.2v29.037l-8.323,4.806l-8.323-4.806V310.83l-23.496-13.565
	L279.44,308.8l-12.645-7.301l-43.243,24.967v14.601l-19.22,11.097v25.806l34.617,19.986v9.611l-8.323,4.805l-26.294-15.181v29.727
	v12.849l-11.127,6.424l-11.127-6.424v-12.849v-30.4l-27.462,15.854l-8.323-4.805v-9.611l35.785-20.66v-25.132l-19.219-11.097
	v-14.601l-43.244-24.967l-12.644,7.301l-19.978-11.535l-24.664,14.24v37.974l-8.323,4.806l-8.324-4.806v-28.362l-23.428,13.525
	l-11.127,6.425L0,334.642v-12.848l11.127-6.425l25.744-14.862L7.677,283.652v-9.611l8.324-4.806l37.516,21.66l23.107-13.341v-21.317
	l12.897-7.445V199.15l-12.897-7.446v-23.068l-27.153-15.677l-33.47,19.324l-8.324-4.805v-9.611l25.147-14.519L11.127,130.82
	L0,124.396v-12.848l11.127-6.424l11.127,6.424l23.428,13.526V92.039l8.324-4.806l8.323,4.806v42.646l26.181,15.116l18.461-10.659
	l13.15,7.592l42.738-24.675v-15.185l19.219-11.096V64.223l-35.785-20.661v-9.611l8.323-4.806l27.462,15.855V19.272V6.424L193.206,0
	l11.127,6.424v12.848v25.054l26.294-15.181l8.323,4.806v9.611l-34.617,19.986v32.23l19.22,11.096v15.185l42.737,24.675l13.15-7.592
	l18.461,10.659l25.014-14.441v-43.32l8.323-4.806l8.323,4.806v33.709l24.596-14.201l11.127-6.424l11.128,6.424v12.848l-11.128,6.424
	l-22.281,12.864l24.563,14.181v9.611l-8.323,4.805l-32.887-18.987l-26.569,15.34v23.068l-12.897,7.446v49.642l12.897,7.445v21.317
	l22.523,13.004l36.933-21.323l8.323,4.806v9.611l-28.609,16.517l26.327,15.2L386.412,321.794z M209.558,297.946l13.994,8.079v0.584
	l26.047-15.038l-0.506-0.293v-15.866l-31.778-18.348l-7.757,4.479V297.946z M106.971,209.224l-0.253-0.146v29.785l0.253-0.146
	l14.247,8.226l31.526-18.201v-8.957l-32.031-18.493L106.971,209.224z M176.853,149.996l-13.994-8.079l-25.542,14.746v16.451
	l31.779,18.348l7.757-4.479V149.996z M176.853,261.543l-7.757-4.479l-31.779,18.348v15.866l-0.505,0.293l26.047,15.038v-0.584
	l13.994-8.079V261.543z M209.554,214.824l-16.349-9.438l-16.349,9.438v18.877l16.349,9.439l16.349-9.439V214.824z M249.093,156.663
	l-25.541-14.746l-13.994,8.079v36.987l7.757,4.479l31.778-18.348V156.663z M279.693,209.078l-0.253,0.146l-13.741-7.933
	l-32.031,18.493v8.957l31.525,18.201l14.247-8.226l0.253,0.146V209.078z"/>
</svg>
