<?xml version="1.0" encoding="utf-8"?>
<!-- Generator: Adobe Illustrator 16.0.0, SVG Export Plug-In . SVG Version: 6.00 Build 0)  -->
<!DOCTYPE svg PUBLIC "-//W3C//DTD SVG 1.1//EN" "http://www.w3.org/Graphics/SVG/1.1/DTD/svg11.dtd">
<svg version="1.1" id="Layer_1" xmlns="http://www.w3.org/2000/svg" xmlns:xlink="http://www.w3.org/1999/xlink" x="0px" y="0px"
	 width="339.887px" height="443.887px" viewBox="0 0 339.887 443.887" enable-background="new 0 0 339.887 443.887"
	 xml:space="preserve">
<path fill-rule="evenodd" clip-rule="evenodd" d="M169.943,443.887C76.086,443.887,0,367.801,0,273.943
	c0-64.261,38.899-134.947,117.232-160.173c13.277-2.655,16.863-12.649,16.863-16.591c0-15.223,0-27.638,0-31.639
	c1.266-0.822,2.781-1.371,4.792-1.371c8.669,0,5.381,8.962,14.947,8.962s6.577-8.63,16.143-8.63c9.565,0,10.164,8.962,17.637,8.962
	c7.474,0,7.474-9.294,14.648-9.294c1.493,0,2.601,0.432,3.529,1.093c0,3.643,0,16.289,0,31.917c0,3.942,3.586,13.936,16.863,16.591
	c78.333,25.226,117.232,95.912,117.232,160.173C339.887,367.801,263.801,443.887,169.943,443.887z M202.561,52.884
	c-6.876,0-7.772,11.285-15.246,11.285s-9.565-10.954-17.338-10.954s-7.175,10.954-15.844,10.954s-7.772-10.622-16.143-10.622
	s-9.865,10.622-15.843,10.622c0,0,0-30.537,0-39.831c0-5.643,1.991-6.638,11.949-6.638h11.226C146.694,7.745,157.188,0,169.943,0
	s23.249,7.745,24.621,17.701h11.227c9.957,0,11.949,0.996,11.949,6.638c0,9.081,0,38.669,0,39.777
	C209.455,63.554,209.255,52.884,202.561,52.884z M169.943,4.823c-9.434,0-17.221,5.595-18.557,12.878h18.557H188.5
	C187.164,10.418,179.377,4.823,169.943,4.823z"/>
</svg>
