<?xml version="1.0" encoding="utf-8"?>
<!-- Generator: Adobe Illustrator 16.0.0, SVG Export Plug-In . SVG Version: 6.00 Build 0)  -->
<!DOCTYPE svg PUBLIC "-//W3C//DTD SVG 1.1//EN" "http://www.w3.org/Graphics/SVG/1.1/DTD/svg11.dtd">
<svg version="1.1" id="Layer_1" xmlns="http://www.w3.org/2000/svg" xmlns:xlink="http://www.w3.org/1999/xlink" x="0px" y="0px"
	 width="446.216px" height="429.885px" viewBox="0 0 446.216 429.885" enable-background="new 0 0 446.216 429.885"
	 xml:space="preserve">
<path fill-rule="evenodd" clip-rule="evenodd" d="M15.618,111.171C0.466,99.808-1.059,95.121,0.466,83.918
	c2.747-20.173,10.551-28.804,10.551-28.804S0.466,37.2,0.466,27.099c0-10.101,4.313-15.439,16.939-15.439
	c12.627,0,31.042-7.288,42.405-6.025s32.829-1.263,55.557-2.525c22.728-1.263,59.396-6.313,97.275,0s68.785,22.516,105.876,36.667
	c-5.051-10.101,1.398-12.677,1.398-12.677s17.677-11.364,32.829-12.626c15.151-1.263,42.93-3.788,50.506,15.152
	c7.576,18.94,3.788,61.87,6.313,92.174s37.88,167.933,36.617,204.55s-2.525,47.98-10.102,55.557s-11.364,10.102-11.364,10.102
	l-1.263,15.151c0,0-8.838-3.788-11.363-10.101c-1.263,16.414-2.525,25.253-2.525,25.253s-7.576-5.051-10.102-12.627
	c3.788,12.627,0,20.202,0,20.202c-6.313-18.939-20.202-49.243-20.202-49.243c-5.051,10.102-8.839,20.202-8.839,20.202
	c-2.525-13.889-8.838-13.889-8.838-13.889c0,12.626-7.576,27.778-7.576,27.778c-2.525-6.313-10.102-11.364-10.102-11.364
	c-2.525,8.839-11.364,16.415-11.364,16.415l1.264-13.89c-2.525,10.102-8.839,12.627-8.839,12.627
	c-8.839-12.627-35.354-49.244-36.617-106.063s15.152-132.578,30.304-179.296c-58.082-7.576-117.427-26.516-165.408-30.304
	C105.267,99.07,40.871,130.111,15.618,111.171z"/>
</svg>
