<?xml version="1.0" encoding="utf-8"?>
<!-- Generator: Adobe Illustrator 16.0.0, SVG Export Plug-In . SVG Version: 6.00 Build 0)  -->
<!DOCTYPE svg PUBLIC "-//W3C//DTD SVG 1.1//EN" "http://www.w3.org/Graphics/SVG/1.1/DTD/svg11.dtd">
<svg version="1.1" id="Layer_1" xmlns="http://www.w3.org/2000/svg" xmlns:xlink="http://www.w3.org/1999/xlink" x="0px" y="0px"
	 width="477.173px" height="413.738px" viewBox="0 0 477.173 413.738" enable-background="new 0 0 477.173 413.738"
	 xml:space="preserve">
<path fill-rule="evenodd" clip-rule="evenodd" d="M234.916,413.735c-98.981-1.393-265.574-18.82-230.025-98.283
	c28.058-49.342,71.571-35.311,126.786-23.213c19.696-71.455-6.383-130.535-23.623-167.773
	c-17.427-37.641-40.429-50.886,2.091-78.768c42.52-27.881,72.492-38.337,131.044-44.61s129.649,15.335,158.925,45.308
	c4.879,4.88-1.395,16.729-14.637,43.217c-12.973,25.945-39.982,134.803-29.297,185.109c57.768-10.871,107.893-12.35,119.215,30.275
	C497.757,389.198,303.224,413.735,234.916,413.735z"/>
</svg>
