<?xml version="1.0" encoding="utf-8"?>
<!-- Generator: Adobe Illustrator 16.0.0, SVG Export Plug-In . SVG Version: 6.00 Build 0)  -->
<!DOCTYPE svg PUBLIC "-//W3C//DTD SVG 1.1//EN" "http://www.w3.org/Graphics/SVG/1.1/DTD/svg11.dtd">
<svg version="1.1" id="Layer_1" xmlns="http://www.w3.org/2000/svg" xmlns:xlink="http://www.w3.org/1999/xlink" x="0px" y="0px"
	 width="391.181px" height="493.153px" viewBox="0 0 391.181 493.153" enable-background="new 0 0 391.181 493.153"
	 xml:space="preserve">
<path fill-rule="evenodd" clip-rule="evenodd" d="M358.546,174.053c-43.222,17.522-84.69,12.85-84.106,26.283
	s-3.505,96.372,0,114.478c3.504,18.106,48.478,86.442,62.495,109.806c14.019,23.362,8.178,47.894-4.088,57.238
	c-12.266,9.346-51.398,29.204-80.602-25.699c-29.204-54.902-42.638-65.415-56.655-81.25c-14.018,15.835-27.451,26.348-56.655,81.25
	c-29.204,54.903-68.336,35.045-80.602,25.699c-12.265-9.345-18.106-33.876-4.088-57.238c14.018-23.363,58.991-91.699,62.496-109.806
	s-0.584-101.044,0-114.478s-40.885-8.761-84.106-26.283c-43.221-17.522-32.708-40.885-28.035-57.239s26.867-17.522,38.549-13.434
	c11.681,4.088,81.186,25.115,96.372,28.035s16.938-11.682,16.938-20.442c0-8.761-11.097-10.513-15.77-19.274
	C109.148,41.469,144.776,0.584,195.59,0c50.814,0.584,86.442,41.469,54.902,91.699c-4.672,8.761-15.77,10.513-15.77,19.274
	c0,8.761,1.752,23.363,16.938,20.442c15.187-2.92,84.69-23.947,96.372-28.035c11.682-4.089,33.876-2.92,38.549,13.434
	S401.767,156.531,358.546,174.053z"/>
</svg>
