<?xml version="1.0" encoding="utf-8"?>
<!-- Generator: Adobe Illustrator 16.0.0, SVG Export Plug-In . SVG Version: 6.00 Build 0)  -->
<!DOCTYPE svg PUBLIC "-//W3C//DTD SVG 1.1//EN" "http://www.w3.org/Graphics/SVG/1.1/DTD/svg11.dtd">
<svg version="1.1" id="Layer_1" xmlns="http://www.w3.org/2000/svg" xmlns:xlink="http://www.w3.org/1999/xlink" x="0px" y="0px"
	 width="461.193px" height="385.17px" viewBox="0 0 461.193 385.17" enable-background="new 0 0 461.193 385.17"
	 xml:space="preserve">
<path fill-rule="evenodd" clip-rule="evenodd" d="M441.478,385.17c-67.91-71.484-154.883-129.864-191.816-154.884
	c-36.934-25.02-58.379-46.464-58.379-46.464s-88.164,3.574-120.332-5.957S3.04,158.803,3.04,158.803s-5.957-9.531-1.191-15.488
	c4.766-5.958,9.531-10.723,9.531-10.723c22.637,11.914,63.145,29.785,152.5,27.402c-64.336-30.977-84.59-75.059-97.695-91.739
	S31.633,20.599,31.633,20.599s0-16.68,9.531-20.254s27.038,21.193,44.082,47.656c45.273,70.293,103.205,87.618,135.82,115.574
	c66.719,57.187,103.653,64.329,142.969,101.262s73.961,62.597,96.598,73.319C464.208,360.793,449.817,362.534,441.478,385.17z"/>
</svg>
