<?xml version="1.0" encoding="utf-8"?>
<!-- Generator: Adobe Illustrator 16.0.0, SVG Export Plug-In . SVG Version: 6.00 Build 0)  -->
<!DOCTYPE svg PUBLIC "-//W3C//DTD SVG 1.1//EN" "http://www.w3.org/Graphics/SVG/1.1/DTD/svg11.dtd">
<svg version="1.1" id="Layer_1" xmlns="http://www.w3.org/2000/svg" xmlns:xlink="http://www.w3.org/1999/xlink" x="0px" y="0px"
	 width="370.495px" height="495.591px" viewBox="0 0 370.495 495.591" enable-background="new 0 0 370.495 495.591"
	 xml:space="preserve">
<path fill-rule="evenodd" clip-rule="evenodd" d="M56.727,485.858c-12.977,12.978-34.017,12.978-46.994,0
	c-12.977-12.977-12.977-34.017,0-46.993s256.561-256.561,278.128-278.128s21.567-56.535,0-78.102s-56.535-21.567-78.103,0
	s-14.971,14.971-27.947,27.948c-12.977,12.977-34.017,12.977-46.994,0c-12.977-12.977-12.977-34.017,0-46.994
	c12.977-12.977-19.574,19.573,27.948-27.948s124.568-47.521,172.089,0c47.521,47.521,47.521,124.568,0,172.089
	C287.334,255.251,69.703,472.881,56.727,485.858z"/>
</svg>
