<?xml version="1.0" encoding="utf-8"?>
<!-- Generator: Adobe Illustrator 16.0.0, SVG Export Plug-In . SVG Version: 6.00 Build 0)  -->
<!DOCTYPE svg PUBLIC "-//W3C//DTD SVG 1.1//EN" "http://www.w3.org/Graphics/SVG/1.1/DTD/svg11.dtd">
<svg version="1.1" id="Layer_1" xmlns="http://www.w3.org/2000/svg" xmlns:xlink="http://www.w3.org/1999/xlink" x="0px" y="0px"
	 width="454.672px" height="436.751px" viewBox="0 0 454.672 436.751" enable-background="new 0 0 454.672 436.751"
	 xml:space="preserve">
<path fill-rule="evenodd" clip-rule="evenodd" d="M445.908,338.896c1.052,0,2.104,0,3.156,0c0-0.211,0-0.421,0-0.632
	c-4.208-22.094-8.418-44.195-12.626-66.289c-11.209-44.607-21.406-87.567-29.673-135.104c-6.313-36.307,9.283-84.304-11.995-107.957
	c-12.118-13.47-55.218,2.812-63.133,8.839c0,0.842,0,1.684,0,2.525c34.216,25.773,9.229,109.61,13.258,171.721
	c1.684,15.782,3.367,31.568,5.051,47.349c10.034,45.589,24.566,89.707,40.405,130.054c3.577,11.994,7.155,23.991,10.732,35.985
	c0-13.256,0-26.517,0-39.773c6.317,2.167,12.33,46.101,4.419,51.138c-3.135-1.968-2.916-1.263-5.682-1.895
	c-0.285-14.53-9.289-25.165-13.258-37.248c-0.211,0-0.421,0-0.632,0c-0.514,4.774-1.744,10.462-5.05,12.627
	c-1.474,0.421-2.947,0.842-4.42,1.263c-2.524-2.525-5.051-5.051-7.576-7.576c-0.29,5.727-4.803,26.249-11.363,24.622
	c-2.314-1.684-4.63-3.367-6.944-5.051c-1.672,4.362-4.073,3.525-6.945,6.313c-0.631,2.104-1.263,4.209-1.894,6.313
	c-2.33,1.623-15.624-11.408-17.677-14.521c-13.433-20.356-23.65-44.473-30.936-70.708c-12.276-44.212-6.544-103.123,5.051-144.574
	c5.425-19.393,14.661-41.706,15.783-63.132c-20.875-1.093-42.343-7.871-61.239-12.626c-29.966-7.542-58.488-10.84-90.911-16.415
	C112.11,105.598,19.731,150.552,1.454,99.623C-4.398,83.318,9.325,65.805,9.03,51.642C8.864,43.72-1.339,39.397,1.454,27.652
	C2.888,21.618,8.497,12.303,15.974,12.5c3.735-1.659,6.472-1.316,9.207-0.475c8.279-1.023,18.342-4.022,28.042-5.839
	C67.11,5.976,81.002,5.766,94.89,5.555C145.1-2.357,205.591-2.432,248.302,9.343c13.407,3.696,61.992,27.839,68.184,27.147
	c9.958-29.617,80.135-30.806,95.961-6.944c11.155,16.817,3.709,78.708,8.208,105.431c9.902,58.824,20.859,106.802,30.935,166.67
	c5.021,29.83,4.156,73.563-4.419,97.856c-1.263,0.631-2.525,1.263-3.788,1.894c-4.099-1.036-4.326-2.685-5.682-6.313
	c-1.684,1.474-3.367,2.946-5.051,4.42c-0.632,5.681-1.263,11.364-1.895,17.046c-2.477,0.843-2.589,1.357-4.419,0
	c-2.68-0.184-3.94-1.742-6.313-3.788c0.195,7.073-0.639,13.964-3.156,18.309c-3.067,0.49-1.535,1.505-3.788-0.632
	c-2.011-1.105-2.374-2.223-3.788-3.788c0.428-14.551-0.43-37.041,1.263-50.506c1.052,0,2.104,0,3.156,0
	c1.053,0.842,2.105,1.684,3.157,2.525c2.104,7.785,4.209,15.573,6.313,23.359c0.421,0,0.842,0,1.263,0
	c0.631-12.415,1.263-24.834,1.894-37.249c0.421-0.21,0.842-0.421,1.263-0.631c5.018,4.106,5.318,14.804,5.682,23.359
	c0.632-0.421,1.263-0.843,1.895-1.263C441.038,371.539,445.122,360.351,445.908,338.896z M159.917,8.712
	c-6.313,0.421-12.627,0.842-18.939,1.263c-16.833,2.724-36.198,3.167-55.557,3.157c-7.996-0.21-15.994-0.421-23.99-0.631
	c-14.257,2.234-27.65,6.017-40.405,8.207c0.21-1.052,0.421-2.104,0.631-3.157c-25.128,6.793,1.838,40.922,2.525,54.294
	c-1.683,0.631-3.367,1.263-5.05,1.894c-1.52-1.982-3.768-3.408-5.051-3.788c-0.662,11.746-4.872,23.696-1.894,35.985
	c5.235,0.566,8.737,5.718,15.152,7.576c7.154-0.421,14.311-0.842,21.465-1.263c7.365-0.631,14.731-1.263,22.096-1.894
	c18.95-4.073,37.801-7.664,59.345-10.101c24.095-2.726,72.495,6.116,99.119,13.258c16.399,4.399,37.696,6.943,49.875,10.417
	c17.417,4.967,42.802,6.85,57.45,7.26c0.421-0.21,0.842-0.421,1.263-0.631c-0.02-17.862,3.631-65.892-4.419-76.391
	c-4.647-6.061-27.169-14.109-35.354-17.677C258.448,19.174,219.613,8.8,159.917,8.712z M337.951,145.079c-2.946,0-5.893,0-8.839,0
	c-6.943,27.144-13.89,54.296-20.833,81.441c-5.384,20.393-6.987,42.804-8.839,65.026c0,11.994,0,23.991,0,35.985
	c4.302,25.098,8.77,47.351,17.046,68.184c3.787,7.785,7.576,15.573,11.363,23.358c0.421,0,0.842,0,1.263,0
	c0.856-12.504,3.016-27.81,5.051-39.773c0.211,0,0.421,0,0.632,0c5.229,4.512,6.474,17.617,7.575,25.885c0.211,0,0.421,0,0.632,0
	c1.473-5.682,2.946-11.364,4.419-17.046c1.053,0,2.104,0,3.157,0c1.052,0.842,2.104,1.684,3.156,2.525
	c0.842,6.103,1.684,12.206,2.525,18.309c0.421-0.211,0.842-0.421,1.263-0.632c1.409-10.879,7.437-20.81,5.051-34.092
	c0.631,0.211,1.263,0.421,1.894,0.632c3.572-0.176,4.227,1.613,6.944,3.788c1.829,7.523,2.36,6.838,3.788,14.521
	c0.211,0,0.421,0,0.632,0c1.052-4.63,2.104-9.26,3.156-13.89c-3.577-8.417-7.155-16.836-10.732-25.253
	c-7.996-26.724-15.994-53.455-23.99-80.179C333.162,235.443,338.386,190.414,337.951,145.079z"/>
</svg>
