<?xml version="1.0" encoding="utf-8"?>
<!-- Generator: Adobe Illustrator 16.0.0, SVG Export Plug-In . SVG Version: 6.00 Build 0)  -->
<!DOCTYPE svg PUBLIC "-//W3C//DTD SVG 1.1//EN" "http://www.w3.org/Graphics/SVG/1.1/DTD/svg11.dtd">
<svg version="1.1" id="Layer_1" xmlns="http://www.w3.org/2000/svg" xmlns:xlink="http://www.w3.org/1999/xlink" x="0px" y="0px"
	 width="477.475px" height="81.392px" viewBox="0 0 477.475 81.392" enable-background="new 0 0 477.475 81.392"
	 xml:space="preserve">
<path fill-rule="evenodd" clip-rule="evenodd" d="M0,81.392c0.59-7.676,0.697-16.729,4.879-29.973
	C9.062,38.176,15.335,29.811,37.64,21.446C94.798,1.929,159.623,40.964,221.66,38.872c62.037-2.091,154.047-35.549,182.626-38.337
	c28.578-2.788,62.036,4.879,67.612,33.458c4.183,18.123,4.88,27.185,5.577,36.246c-10.456-32.063-9.759-41.126-34.155-46.702
	C380.585,5.414,280.211,61.178,223.054,56.995C132.438,55.602,89.222,25.629,42.52,35.387C15.335,45.146,5.576,61.178,0,81.392z"/>
</svg>
