<?xml version="1.0" encoding="utf-8"?>
<!-- Generator: Adobe Illustrator 16.0.0, SVG Export Plug-In . SVG Version: 6.00 Build 0)  -->
<!DOCTYPE svg PUBLIC "-//W3C//DTD SVG 1.1//EN" "http://www.w3.org/Graphics/SVG/1.1/DTD/svg11.dtd">
<svg version="1.1" id="Layer_1" xmlns="http://www.w3.org/2000/svg" xmlns:xlink="http://www.w3.org/1999/xlink" x="0px" y="0px"
	 width="432.592px" height="475.852px" viewBox="0 0 432.592 475.852" enable-background="new 0 0 432.592 475.852"
	 xml:space="preserve">
<path fill-rule="evenodd" clip-rule="evenodd" d="M391.671,328.536c0,0-31.567,14.03-68.98,0
	c9.354,11.692,63.135,56.12,109.901,74.827c-12.86,1.169-75.995,15.199-125.101-10.522c2.338,5.846,8.184,19.876,17.537,30.398
	c-24.552-5.846-58.458-19.876-58.458-19.876s-1.169,16.368,4.677,23.384c-10.522-2.339-36.244-23.384-36.244-23.384
	s0,23.384,0,33.906s0,24.552,7.015,38.582h-25.722h-25.722c7.015-14.03,7.015-28.06,7.015-38.582s0-33.906,0-33.906
	s-25.722,21.045-36.245,23.384c5.846-7.016,4.677-23.384,4.677-23.384s-33.906,14.03-58.458,19.876
	c9.354-10.522,15.199-24.553,17.538-30.398C75.996,418.563,12.861,404.532,0,403.363c46.767-18.707,100.548-63.135,109.902-74.827
	c-37.413,14.03-68.981,0-68.981,0s63.135-26.891,71.319-54.95c-17.538,3.507-37.414-3.508-45.598-5.847
	c35.075-16.368,52.613-39.751,68.981-61.966c-15.199,8.185-26.891,0-40.921-1.169c29.229-21.045,53.782-38.583,73.658-60.797
	c-17.538,8.184-30.398,10.522-44.428,7.015c40.921-33.906,52.612-52.613,61.966-72.489c-23.383,14.03-31.567,8.185-42.09,9.354
	C182.391,67.812,204.604,19.875,216.296,0c11.691,19.875,33.906,67.812,72.488,87.688c-10.522-1.169-18.706,4.677-42.09-9.354
	c9.354,19.876,21.045,38.583,61.966,72.489c-14.03,3.507-26.891,1.169-44.429-7.015c19.876,22.214,44.429,39.752,73.658,60.797
	c-14.03,1.169-25.722,9.354-40.921,1.169c16.368,22.214,33.905,45.598,68.98,61.966c-8.184,2.339-28.06,9.354-45.598,5.847
	C328.537,301.646,391.671,328.536,391.671,328.536z"/>
</svg>
