<?xml version="1.0" encoding="utf-8"?>
<!-- Generator: Adobe Illustrator 17.0.0, SVG Export Plug-In . SVG Version: 6.00 Build 0)  -->
<!DOCTYPE svg PUBLIC "-//W3C//DTD SVG 1.1//EN" "http://www.w3.org/Graphics/SVG/1.1/DTD/svg11.dtd">
<svg version="1.1" id="Layer_1" xmlns="http://www.w3.org/2000/svg" xmlns:xlink="http://www.w3.org/1999/xlink" x="0px" y="0px"
	 width="293.402px" height="319.999px" viewBox="0 0 293.402 319.999" enable-background="new 0 0 293.402 319.999"
	 xml:space="preserve">
<path fill="#FFFFFF" d="M288.395,307.994H217.77c0,0-6.742-1.066-11.711,1.066c-4.969,2.131-53.943,22.389-104.693,1.776
	s-61.397-20.968-61.397-20.968s-17.745-6.042-23.068-15.281c-5.324-9.24-13.131-16.348-13.131-16.348s-8.872-6.397-0.709-20.258
	c8.163-13.858,18.1-35.183,24.842-51.885c6.743-16.703,15.971-38.381,44.717-71.787c28.747-33.406,39.749-55.439,39.749-55.439
	s10.292-18.125,26.972-26.298c16.68-8.174,39.748-23.1,39.748-23.1s19.52-15.992,26.973-6.396
	c7.453,9.595,21.293,31.984,21.293,31.984s9.582,11.017-5.324,14.926c0,0,9.229,6.752,7.453,13.149
	c-1.774,6.397-4.613,8.885-12.42,9.24c-7.809,0.355-13.486,1.066-20.584,2.132c-7.099,1.066-23.068,2.843-36.199-1.421
	c0,0-3.549-3.198-9.938,3.909c-6.389,7.107-14.196,13.504-20.229,32.695s-10.646,30.208-14.196,60.416
	c-3.549,30.207-6.033,35.894-8.163,41.224l7.453-1.065c0,0,2.484-1.066,7.098-4.621c4.614-3.554,25.907-15.637,47.201-8.885
	c0,0,10.292,2.844,17.39,8.529c0,0,51.815-37.67,106.114-7.463v110.168L288.395,307.994L288.395,307.994z"/>
</svg>
