<?xml version="1.0" encoding="utf-8"?>
<!-- Generator: Adobe Illustrator 17.0.0, SVG Export Plug-In . SVG Version: 6.00 Build 0)  -->
<!DOCTYPE svg PUBLIC "-//W3C//DTD SVG 1.1//EN" "http://www.w3.org/Graphics/SVG/1.1/DTD/svg11.dtd">
<svg version="1.1" id="Lager_1" xmlns="http://www.w3.org/2000/svg" xmlns:xlink="http://www.w3.org/1999/xlink" x="0px" y="0px"
	 width="320px" height="320px" viewBox="0 0 320 320" enable-background="new 0 0 320 320" xml:space="preserve">
<g>
	<path fill="#FFFFFF" d="M160.002,0C71.635,0,0,71.634,0,160.001C0,248.366,71.635,320,160.002,320
		C248.367,320,320,248.366,320,160.001C320,71.634,248.367,0,160.002,0z M160.001,296.844c-75.503,0-136.71-61.207-136.71-136.709
		c0-75.503,61.207-136.709,136.71-136.709c75.502,0,136.708,61.206,136.708,136.709
		C296.709,235.637,235.504,296.844,160.001,296.844z"/>
	
		<rect x="33.089" y="152.124" transform="matrix(0.7071 0.7071 -0.7071 0.7071 161.705 -62.3531)" fill="#FFFFFF" width="246.061" height="23.79"/>
	
		<rect x="28.382" y="183.195" transform="matrix(0.7071 0.7071 -0.7071 0.7071 174.5752 -31.283)" fill="#FFFFFF" width="193.334" height="23.789"/>
	
		<rect x="90.524" y="121.054" transform="matrix(0.7071 0.7071 -0.7071 0.7071 148.8357 -93.4247)" fill="#FFFFFF" width="193.334" height="23.789"/>
	
		<rect x="38.677" y="220.478" transform="matrix(0.7071 0.7071 -0.7071 0.7071 193.6584 -2.7863)" fill="#FFFFFF" width="123.032" height="23.79"/>
	
		<rect x="162.959" y="96.192" transform="matrix(-0.7071 -0.7071 0.7071 -0.7071 306.7723 343.2447)" fill="#FFFFFF" width="123.031" height="23.791"/>
</g>
</svg>
