<?xml version="1.0" encoding="utf-8"?>
<!-- Generator: Adobe Illustrator 17.0.0, SVG Export Plug-In . SVG Version: 6.00 Build 0)  -->
<!DOCTYPE svg PUBLIC "-//W3C//DTD SVG 1.1//EN" "http://www.w3.org/Graphics/SVG/1.1/DTD/svg11.dtd">
<svg version="1.1" id="Layer_1" xmlns="http://www.w3.org/2000/svg" xmlns:xlink="http://www.w3.org/1999/xlink" x="0px" y="0px"
	 width="320px" height="320px" viewBox="0 0 320 320" enable-background="new 0 0 320 320" xml:space="preserve">
<path fill="#FFFFFF" d="M235.316,160.596l-59.982-16.059l-16.076-59.93l79.666-79.593c-39.264-11.99-83.696-2.48-114.757,28.55
	C98.658,59.052,87.69,93.562,91.238,126.813l-0.021-0.021c0,0,2.631,35.167-19.079,57.36L0,256.227l63.578,63.519l71.866-71.799
	c0.11-0.103,0.215-0.185,0.332-0.301c22.214-21.695,57.419-19.065,57.419-19.065l-0.02-0.018
	c33.253,3.51,67.745-7.447,93.233-32.912c31.058-31.029,40.574-75.419,28.574-114.647L235.316,160.596z"/>
</svg>
