<?xml version="1.0" encoding="utf-8"?>
<!-- Generator: Adobe Illustrator 17.0.0, SVG Export Plug-In . SVG Version: 6.00 Build 0)  -->
<!DOCTYPE svg PUBLIC "-//W3C//DTD SVG 1.1//EN" "http://www.w3.org/Graphics/SVG/1.1/DTD/svg11.dtd">
<svg version="1.1" id="Layer_1" xmlns="http://www.w3.org/2000/svg" xmlns:xlink="http://www.w3.org/1999/xlink" x="0px" y="0px"
	 width="320px" height="320px" viewBox="0 0 320 320" enable-background="new 0 0 320 320" xml:space="preserve">
<path fill="#FFFFFF" d="M320,178.823l-35.399-0.607c-7.955,54.966-51.418,98.43-106.385,106.385L178.823,320h-37.647l0.607-35.408
	c-54.937-7.979-98.372-51.431-106.323-106.377L0,178.823v-37.647l35.469,0.608c7.976-54.917,51.399-98.34,106.315-106.314L141.176,0
	h37.647l-0.608,35.461c54.946,7.951,98.398,51.385,106.377,106.322L320,141.176V178.823z M178.048,45.212l-0.889,51.873L160,141.286
	l-17.158-44.2l-0.889-51.862C91.619,52.912,51.84,92.19,43.969,141.932l53.117,0.911l44.2,17.159l-44.2,17.159l-53.128,0.911
	c7.847,49.771,47.639,89.078,97.994,96.77l0.891-51.925l17.158-44.2l17.159,44.2l0.89,51.936
	c50.385-7.668,90.206-46.988,98.056-96.779l-53.191-0.912L178.714,160l44.2-17.159l53.18-0.912
	C268.22,92.168,228.412,52.877,178.048,45.212z"/>
</svg>
