<?xml version="1.0" encoding="utf-8"?>
<!-- Generator: Adobe Illustrator 17.0.0, SVG Export Plug-In . SVG Version: 6.00 Build 0)  -->
<!DOCTYPE svg PUBLIC "-//W3C//DTD SVG 1.1//EN" "http://www.w3.org/Graphics/SVG/1.1/DTD/svg11.dtd">
<svg version="1.1" id="Layer_1" xmlns="http://www.w3.org/2000/svg" xmlns:xlink="http://www.w3.org/1999/xlink" x="0px" y="0px"
	 width="263.296px" height="320px" viewBox="0 0 263.296 320" enable-background="new 0 0 263.296 320" xml:space="preserve">
<path fill="#FFFFFF" d="M253.379,301.102h9.407L262.669,320h-37.623h-37.623l0.109-18.898h9.167v-9.406h-9.167l-0.109-153.062
	C187.424,76.521,212.792,0,225.046,0c12.257,0,37.623,76.521,37.623,138.633l0.117,153.062h-9.407L253.379,301.102L253.379,301.102z
	 M168.818,301.102L168.702,320H131.08H93.457l-0.13-18.898h9.407v-9.406h-9.407l0.13-153.062C93.457,76.521,118.825,0,131.08,0
	c12.256,0,37.622,76.521,37.622,138.633l0.116,153.062h-9.646v9.406L168.818,301.102L168.818,301.102z M74.613,301.102L74.735,320
	H37.113H-0.51l0.109-18.898h9.167v-9.406H-0.4l-0.11-153.062C-0.51,76.521,24.858,0,37.113,0c12.256,0,37.622,76.521,37.622,138.633
	l-0.123,153.062h-9.407v9.406L74.613,301.102L74.613,301.102z"/>
</svg>
