<?xml version="1.0" encoding="utf-8"?>
<!-- Generator: Adobe Illustrator 17.0.0, SVG Export Plug-In . SVG Version: 6.00 Build 0)  -->
<!DOCTYPE svg PUBLIC "-//W3C//DTD SVG 1.1//EN" "http://www.w3.org/Graphics/SVG/1.1/DTD/svg11.dtd">
<svg version="1.1" id="Layer_1" xmlns="http://www.w3.org/2000/svg" xmlns:xlink="http://www.w3.org/1999/xlink" x="0px" y="0px"
	 width="268.938px" height="320px" viewBox="0 0 268.938 320" enable-background="new 0 0 268.938 320" xml:space="preserve">
<path fill="#FFFFFF" d="M268.326,235.139c-2.535-0.33-7.27,2.309-10.034,2.811c-2.882,0.516-4.543,0.074-5.312-0.227
	c0.238-5.337,0.049-12.011-1.565-17.766c0.017-1.229,0.141-2.227,0.479-2.548c1.204-1.071,5.966-0.521,5.829,1.885
	c1.736,4.74-3.636,9.233,1.267,12.248c-0.831-5.019,1.634-8.438,1.634-8.438s3.545,0.189,4.419-2.369
	c0.887-2.559,0.887-7.371-2.382-9.147c-4.708-2.544-11.284,0.729-12.771-1.394c-1.485-2.115-0.083-3.592-0.083-3.592
	s1.941-2.942,6.068-0.357c0.548-1.48-2.389-4.284-5.896-3.043c-3.516,1.236-4.423,2.365-6.25,3.76
	c-0.817,0.635-1.732,1.15-2.497,1.537c-13.638-2.643-33.421,14.462-46.35,9.482c-7.338-9.205-0.668-30.815-0.668-30.815l-0.61-0.054
	c0.19-4.305-0.947-14.557-13.934-24.088c-16.98-12.462-16.993-30.812-16.993-30.812l-8.401-15.216l4.736,2.655
	c0,0,2.985-12.549,3.191-18.036c1.854,2.424,2.36,7.441,9.415,8.241c7.481,0.845,14.174-1.88,15.198-8.286
	c0.847-5.38-1.358-7.487-1.358-7.487s1.257,8.043-7.569,10.488c-8.5,2.358-8.047-7.33-6.893-11.704
	c1.148-4.378,6.262-11.77,6.262-11.77s-7.506,2.589-9.201-4.003c0.116-2.271,19.862-1.266,20.726-4.551
	c-7.037-0.664-13.864-6.254-9.745-10.108c4.104-3.854,0.103-13.04,6.007-25.448c-4.045,1.863-6.059-2.399-6.059-2.399
	s-7.799-6.625-2.886-21.486c3.084-7.75-36.867-11.123-41.74-9.845c-7.214,5.21-36.269,12.104-31.563,28.09
	c2.877,9.742,4.694,12.273,10.5,11.865c5.792-0.408,4.576-9.263,12.646-5.211c2.622,1.328,2.444,5.582,2.444,5.582l-1.752,3.413
	c0,0,4.979,4.213,2.614,7.899c-2.367,3.681-9.523-0.062-14.796-2.041c-3.583-1.344-0.476,5.355,1.399,8.258
	c1.872,2.902,12.747,1.772,12.747,1.772s0.729,4.634-3.426,6.452c-1.812,0.796-6.027-0.433-8.395,1.093
	c-26.531,17.182-42.41-6.043-42.41-6.043l-0.143,0.041c-6.015-7.004-15.117-14.891-19.454-17.616
	c-1.097-7.828-17.854-18.209-16.9-26.054c0.951-7.841,7.763-8.36,6.771-9.486c-2.915-1.847-6.858-8.649-6.858-8.649
	s-6.229,6.86-9.7,6.299C24.62,8.36,23.568,2.069,21.837,0C18.753,1.793,11.18,0.973,11.18,0.973s0.969,6.658-2.626,7.358
	c-0.07,2.23,5.146,1.868,4.267,4.951c-0.875,3.092-2.643,3.871-5.504,4.184c1.312,6.852-2.14,14.305-2.14,14.305
	s3.026-0.944,3.781-2.008c3.521,1.958,9.813-0.502,10.984,3.653c-3.834,2.803-2.21,3.38-1.958,7.857
	c0.266,4.477-7.822,5.203-5.856,6.217c1.979,1.014,17.252-1.348,21.713,4.164c2.811,3.459-1.695,7.994-3.006,9.766
	c-0.408,0.54-1.556,3.154,5.681,1.006c5.867,3.863,8.519,9.396,9.635,12.553l-0.279,0.107l6.464,21.734l9.833,4.922
	c-0.417,0.14-6.711,2.292-9.626,4.167c-3.009,1.95,0.837,2.82,0.942,5.512c0.06,1.674-4.926,6.085-10.527,8.822
	c-3.364,1.641-5.235,6.06-8.587,4.395c-8.946-4.444-4.726-9.989-1.2-13.753c-2.333-1.929-4.506-0.408-8.57-1.125
	c-4.073-0.722-7.099-4.119-7.099-4.119s1.422,10.36-3.533,14.635c-4.955,4.279-12.639,4.633-12.639,4.633s9.086,4.658,8.092,9.247
	c-3.805,4.292,1.719,7.557-3.199,14.887c5.438,2.679,19.858-3.356,19.347-1.542c-0.519,1.814,4.966,10.785,4.966,10.785
	s6.386-2.68,8.266-5.788c1.888-3.096-2.494-7.049,1.249-8.171c5.635-1.666,9.028-4.691,15.546,1.604
	c-0.783-3.191,13.707-16.077,22.694-16.213c0.732-0.013,1.46,0.239,2.188,0.594c-2.808,1.5-6.386,4.905-9.849,12.54
	c-7.19,15.905,22.558,31.059,16.519,25.234c-6.015-5.825-8.352-23.972-4.396-23.659c2.312,0.186,5.409-0.866,7.602-1.761
	c0.234,0.392,0.476,0.805,0.713,1.204l-0.754,0.936c0,0-2.717,8.872-1.917,13.01c0.796,4.147,2.676,7.532,4.275,8.196
	c1.604,0.664,1.422-3.752,1.728-6.562c0.194-1.723,1.941-3.673,3.252-4.93c3.249,4.745,6.835,8.863,10.967,10.867
	c13.515,6.59,14.955,4.932,26.445,7.911c10.559,2.741,17.438,11.196,18.498,12.562c-5.897,1.56-17.682,4.352-26.147,4.301
	c-10.249-0.053-32.646-4.612-38.541-3.646c-5.893,0.963-4.636,6.809-4.636,6.809s-5.771,0.863-12.714,2.431
	c-2.25-0.408-18.976-3.578-20.231-7c-1.356-3.674,2.144-6.493,8.743-9.049c0-2.433-8.314,0.114-11.433,1.565
	c-5.136,2.383-5.227,9.373-2.976,13.633c1.257,2.379,4.483,5.082,7.119,7.033c-1.113,0.599-2.051,1.236-2.832,1.883
	c-0.96,0.235-2.723,0.148-5.93-1.193c-8.625-3.646-17.984-11.613-27.287-11.543c-9.229,0.078-15.352,4.304-16.529,11.812
	c-1.191,7.524,4.656,16.564,3.912,11.851c-0.738-4.7,0.977-14.412,6.102-15.946c5.132-1.521,8.006,3.278,6.934,6.946
	c-1.084,3.674,5.582-4.876,8.826-3.021c3.245,1.863,8.932,6.158,8.932,6.158s3.545,4.197-0.251,6.249
	c-3.789,2.046-5.656-1.146-7.454,2.55c-1.798,3.686,2.841,20.372,3.673,15.656c0.833-4.709-0.882-10.45,3.455-10.684
	c4.333-0.237,12.409-4.68,12.409-4.68s8.22,2.883,6.208,6.959c-2,4.082-7.078,6.909-6.749,11.543
	c0.324,4.631,1.564,5.707,3.812,7.536c2.255,1.822-0.779-10.149,4.646-10.917c4.487-0.626,8.088-1.742,11.291,0.266
	c6.254,6.02,12.508,11.057,16.022,14.1c-8.253,7.312-10.294,26.975-22.311,33.439c-12.004,6.465-20.167-2.41-20.167-2.41
	s1.134-14.014-3.24-16.211c-4.374-2.199-19.656-1.564-20.13-0.502c-0.462,1.061,10.362,3.355,9.817,7.069
	c-12.705,4.429-24.028,10.83-23.483,13.688c0.16,0.632,5.998-1.153,7.833,2.627c2.938,6.048,5.079,7.946,10.43,6.794
	c7.239-1.557-1.179,19.627,2.7,21.457c1.513,0.718,2.354-8.171,6.394-7.064c6.013,1.619,12.409-3.349,14.989-1.748
	c-2.845,4.264,7.244,15.194,9.494,15.404c0.923,0.088-2.552-10.896,2.02-11.464c7.604-0.948,5.771-6.804,13.794-9.019
	c3.922-1.074,7.981-4.647,12.875-8.435c2.082-1.331,6.456-3.503,10.154-1.276c3.813,2.291,1.867,3.189,4.819,6.715
	c2.96,3.524,10.545,1.002,10.545,1.002s-1.991-6.502-6.501-5.299c-2.482-3.553-0.604-8.805,0.618-11.418
	c2.144-0.937,3.979-2.433,5.558-4.232c1.211,0.433,2.279,1.22,2.572,2.604c0.771,3.715-1.455,11.481,4.255,14.771
	c5.718,3.294,10.854-1.518,10.854-1.518s-4.025,0.141-5.891-2.324c-3.579-4.782-0.85-13.354-1.336-17.541
	c-0.552-4.905-2.449-5.601-3.665-9.246c0.565-1.84,0.949-3.396,1.183-4.461c1.579-0.532,3.552-0.793,5.139,0.296
	c5.613,3.858,2.593,12.038,7.315,16.878c4.722,4.84,11.839,1.806,11.839,1.806s-9.909-2.173-10.599-22.606
	c0.189-7.385-9.412-9.553-13.778-10.153c0.062-10.153,1.186-23.456,6.384-27.099c3.517-2.24,10.929-2.828,17.482-7.209
	c5.188-3.479,12.729-0.787,14.792-0.065c0.104,0.046,0.189,0,0.296,0.024c-0.556,3.672-2.164,16.707,0.487,29l-0.127-0.305
	c0,0-1.093,6.958-8.616,12.354c-4.613,3.303-0.784,11.135-0.199,9.977c1.538-3.014,2.251-7.045,7.574-9.68
	c3.203-1.574,5.376-0.399,6.624,0.8c0.656,0.994,1.365,1.946,2.141,2.841c-1.728,0.979-7.644,4.773-8.715,11.526
	c-1.261,7.938,9.64,13.439,10.991,13.102c-6.403-6.703-3.112-13.996-3.112-13.996s2.892-6.097,7.724-6.483
	c0.828,0.155,1.691,0.252,2.604,0.306c3.756,0.54-1.954,10.364,10.904,11.498c-5.224-6.062-4.424-8.134-1.518-10.847
	c1.107-1.039,3.216-2.104,5.459-3.015c2.382-0.732,4.697-1.58,6.896-2.443c0.833-0.247,1.405-0.417,1.405-0.417l-0.358,0.005
	c4.396-1.789,8.104-3.628,10.267-4.787c3.943-2.114,5.325-6.977,5.325-6.977s6.022-4.369,12.276,0.17
	c0.449,1.789,4.914,34.812-11.356,44.906c-7.228,4.25-10.254-6.772-17.221-6.181c-6.959,0.585-14.911,11.007-14.145,12.087
	c0.764,1.094,3.377-0.742,6.854,0.066c3.483,0.8,4.942,7.643,10.953,7.082c-1.272,6.158-5.062,12.453-2.032,13.662
	c1.772,0.69,0.193-2.16,4.662-3.76c4.481-1.594,5.45,0.488,8.304-0.537c2.855-1.021,5.438-6.479,8.675-5.91
	c3.234,0.567,1.876,9.877,4.119,10.174c2.231,0.298-0.979-2.557,3.269-4.477c4.25-1.928,5.645-1.771,6.917-6.796
	c1.266-5.021,4.106-6.521,4.106-6.521s8.312,5.275,10.562,5.005c2.238-0.271-1.051-3.808-1.703-4.964
	c-0.638-1.162,3.021-7.389,3.021-7.389s-5.99-1.725-6.896-9.512c-0.399-3.385,1.62-10.062,4.035-16.521l0.008,0.07
	c0,0,17.854-3.908,10.925-5.697c-5.864-1.519-6.4-4.534-6.435-5.435c0.054-0.1,0.095-0.207,0.14-0.306
	c1.433-0.355,21.559-5.266,15.865-5.344c-8.376-0.129-12.604-2.041-12.604-2.041S272.608,235.707,268.326,235.139z M84.02,57.785
	c7.893-0.424,27.753-9.213,27.753-9.213s-11.918,2.205-21.589,3.438c-7.215,0.919-13.262-1.575-15.913-6.53
	c-4.803-8.962,6.443-15.451,9.812-17.24c3.372-1.789-1.253-0.989-1.253-0.989s-15.342,3.483-16.01,14.536
	C66.211,51.688,77.272,58.139,84.02,57.785z"/>
</svg>
