<?xml version="1.0" encoding="utf-8"?>
<!-- Generator: Adobe Illustrator 17.0.0, SVG Export Plug-In . SVG Version: 6.00 Build 0)  -->
<!DOCTYPE svg PUBLIC "-//W3C//DTD SVG 1.1//EN" "http://www.w3.org/Graphics/SVG/1.1/DTD/svg11.dtd">
<svg version="1.1" id="Layer_1" xmlns="http://www.w3.org/2000/svg" xmlns:xlink="http://www.w3.org/1999/xlink" x="0px" y="0px"
	 width="244.754px" height="320px" viewBox="0 0 244.754 320" enable-background="new 0 0 244.754 320" xml:space="preserve">
<path fill="#FFFFFF" d="M117.57,45.131c-6.693,17.057,12.137,2.632,17.7,7.772c2.812,1.725,4.974,11.661-12.513,14.469
	c-9.68,1.553-30.02,1.941-35.843,22.887c7.984-4.968,17.049-1.948,27.205-4.317c-12.315,10.792-12.955,25.476-12.955,25.476
	l18.563-12.308c0,0,4.321-17.927,5.615-16.406c6.16,7.19-4.321,30.224,2.16,38.219c3.451-4.536,10.59-17.28,18.578-15.982
	c4.307,13.603,15.971,27.208,15.971,27.208s1.619-13.237,0.329-20.72c1.511,1.832,5.534,5.98,10.904,10.353
	c2.797-6.69-4.976-17.7,0-25.472c3.879,3.882,11.438,6.906,12.517,10.36c3.674-7.121-3.666-13.387-2.588-13.387
	c4.316-4.749-1.499-9.449-1.729-22.028c-0.219-12.304,14.246-8.207,14.246-8.207s-3.018-13.383-10.785-28.063
	c13.809-3.027,15.969-9.505,15.973-12.093c-7.561,2.588-23.97-6.258-22.889-22.891c-4.104,0.863-6.688,6.917-15.111,6.917
	s-14.677-3.239-21.593,1.722c-0.431,4.317-0.636,9.713-10.796,10.795c-10.158,1.082-12.088,3.239-13.386,4.756
	c-1.305,1.51,1.949,11.665,2.588,12.955c0.081,0.165,0.128,0.289,0.135,0.388c-4.661,0.402-9.095,2.844-13.306,2.844
	c-5.834,0-11.234-4.31-11.234-4.31l-2.16,3.012C93.166,39.078,98.78,47.076,117.57,45.131z M38.321,40.164
	c-3.451,2.592-1.722,6.689-1.722,6.689s4.749-3.886,7.344-1.941c2.588,1.941,14.034,10.798,1.506,29.581
	c3.889,4.102,6.478-2.588,9.504-0.212c0,7.553,11.873,24.829,11.873,24.829l21.378-22.672c0,0-15.551-7.336-23.323-22.671
	c-7.771-15.332-6.689-25.911-6.046-26.558c-6.693-9.932-14.446-15.123-22.887-10.576c-8.422,4.533-2.588,22.445-2.588,22.445
	S36.384,36.49,38.321,40.164z M244.754,133.004c-0.861-2.8-5.906-15.968-6.693-41.019c-0.865-27.64-18.139-33.686-19.433-33.035
	c-6.262,4.533-27.205,11.873-23.321,45.99c3.889,34.117,11.01,57.001,8.422,64.128c-2.416,6.66-12.562,10.869-13.885,11.392
	c-1.279-4.603-4.111-10.185-9.797-16.808c-8.816-11.574-35.334-33.259-37.859-51.262c-9.717,11.336-19.11,25.264-19.11,25.264
	l-1.945-14.25l-14.249,6.799l10.038-11.011v-10.367c0,0-12.626,7.772-24.288,8.101c-4.533-9.717,4.854-12.956,3.239-24.617
	c-10.689,7.772-16.194,2.588-16.194,2.588s-3.56,11.661-11.661,17.166s-18.46,5.831-18.46,5.831s-8.422,6.152-17.488,5.509
	c-9.073-0.651-17.817-2.917-24.616,0c-6.799,2.91-7.45,18.46-7.45,18.46s6.317-5.834,10.689-3.399
	c4.211,3.399-4.862,11.332,4.533,12.791c4.862-14.414,24.617-10.042,24.617-10.042s0.161,3.239,1.455,9.234
	c3.239-1.945,7.45-6.968,9.877-10.528c2.105,4.05,3.89,7.45,4.862,8.097c7.128-12.959,16.516-14.575,16.516-14.575
	s2.756,8.097,9.073,4.533c6.31-3.561,11.822-7.289,15.543-5.505c-1.784,1.784-4.862,1.294-9.395,10.367
	c-4.372,21.699,49.233,27.688,37.732,52.145c-0.007,0.103,0.056,0.127,0.056,0.215c0,0-6.032,2.381-11.388,0.105
	c-5.345-2.267-18.622-15.544-32.717-5.826c-16.194,21.859-6.851,42.215-6.851,42.215s-5.611,10.041-13.716,5.233
	c-8.097-4.812-12.469-6.427-15.222-7.128c-3.615-0.922-10.411,4.266-9.493,9.665c0.91,5.396-1.945,14.257-1.945,14.257
	s2.855-1.086,6.042-2.596c-0.592,3.775,1.301,9.501,1.301,9.501s6.587-8.478,9.066-7.345c-3.188,5.345-3.027,7.937-2.588,11.877
	c5.717-6.211,8.642-9.172,11.876-11.01c5.173,1.397,13.01,3.942,19.21,0.646c6.208-3.297,4.329-17.435,7.128-21.374
	c2.808-3.943,9.987-12.366,19.433-6.697c9.446,5.67,10.265,6.264,19.005,11.877c8.739,5.615,14.249,1.079,14.249,1.079
	s3.238,24.183,8.422,29.796c9.929,4.321,14.25,1.082,25.044,1.514c10.794,0.434,9.289,14.25,11.877,14.896
	c2.8,0.223,3.892,6.912-2.588,10.367c-6.479,3.454-8.211-7.344-13.604-9.068c-8.854,8.414-9.065,20.945-9.065,20.945
	s3.882-1.518,5.176,0.212c1.515,2.16-1.51,5.399,1.302,7.771c3.346-4.531,6.148-2.479,6.148-2.479s0.318,4.208,2.479,6.368
	c4.211-1.188,7.995-8.744,7.995-8.744s7.665,3.999,11.226,2.481c6.265-2.481,2.274-20.62,11.873-21.594
	c-2.051-2.801-9.715-4.964-9.715-4.964s10.26-1.192,9.287-6.909c-6.371-2.697-2.916-9.064-7.127-13.6
	c-1.078-0.761,0.437-1.943,3.021-2.596c-4.744-7.35-11.01-2.59-11.01-2.59s-23.967-7.348-17.272-22.459s12.089-17.058,15.328-25.693
	c3.237-8.641,0.548-13.934,1.409-17.704c0.17-0.742,0.514-1.751,0.839-3.009c1.506-1.01,5.101-3.494,12.655-9.092
	c10.799-7.983,11.66-21.59,6.262-40.808c-5.398-19.213-1.078-36.924-1.078-36.924s6.262,0,11.438,13.394
	c0.867-7.128-0.428-15.763-0.428-15.763S227.266,122.22,244.754,133.004z"/>
</svg>
