<?xml version="1.0" encoding="utf-8"?>
<!-- Generator: Adobe Illustrator 17.0.0, SVG Export Plug-In . SVG Version: 6.00 Build 0)  -->
<!DOCTYPE svg PUBLIC "-//W3C//DTD SVG 1.1//EN" "http://www.w3.org/Graphics/SVG/1.1/DTD/svg11.dtd">
<svg version="1.1" id="Lager_1" xmlns="http://www.w3.org/2000/svg" xmlns:xlink="http://www.w3.org/1999/xlink" x="0px" y="0px"
	 width="320px" height="320px" viewBox="0 0 320 320" enable-background="new 0 0 320 320" xml:space="preserve">
<path fill="#FFFFFF" d="M160.5,319.5c-88.225,0-160-71.775-160-160s71.775-160,160-160s160,71.775,160,160
	S248.725,319.5,160.5,319.5z M167.5,257.5v49.032c75.608-3.558,136.472-64.423,140.03-140.032H256.5v-5h-94v27h30v5h-30v27h46v5h-46
	v27h62v5H167.5z M157.5,63.5h-4V12.468C77.892,16.026,17.028,76.892,13.47,152.5H64.5v4h93V63.5z M157.5,188.5v-27h-93v5H13.47
	c3.558,75.608,64.422,136.474,140.03,140.032V257.5h-57v-5h61v-27h-45v-5h45v-27h-29v-5H157.5z M167.5,12.468V63.5h-5v93h94v-4
	h51.03C303.972,76.892,243.108,16.026,167.5,12.468z"/>
</svg>
