<?xml version="1.0" encoding="utf-8"?>
<!-- Generator: Adobe Illustrator 17.0.0, SVG Export Plug-In . SVG Version: 6.00 Build 0)  -->
<!DOCTYPE svg PUBLIC "-//W3C//DTD SVG 1.1//EN" "http://www.w3.org/Graphics/SVG/1.1/DTD/svg11.dtd">
<svg version="1.1" id="Lager_1" xmlns="http://www.w3.org/2000/svg" xmlns:xlink="http://www.w3.org/1999/xlink" x="0px" y="0px"
	 width="239.389px" height="320px" viewBox="0 0 239.389 320" enable-background="new 0 0 239.389 320" xml:space="preserve">
<g>
	<path fill="#FFFFFF" d="M102.964,290.28c50.669-78.639,72.725-139.147,99.839-240.132l-21.59-5.956
		c-23.514,94.625-45.682,160.964-95.845,235.669C94.633,285.435,101.729,289.662,102.964,290.28z"/>
	<path fill="#FFFFFF" d="M79.89,276.56c48.62-75.821,71.228-141.117,94.843-234.156l-23.589-6.507
		c-23.06,95.92-44.92,152.81-94.777,226.428C64.011,266.961,72.369,272.023,79.89,276.56z"/>
	<path fill="#FFFFFF" d="M162.443,15.064l-2.85-8.55l-19.949-5.7L106.26,0l-8.55,21.755c0,0,4.937,1.845,4.886,1.858
		C81.018,116.031,61.476,162.85,0,251.603c0,0,111.221,68.384,111.145,68.397c58.219-94.046,85.904-155.114,105.445-253.639
		l19.135,4.886l3.664-33.384L162.443,15.064z M220.254,54.961l-10.879-3.001c-27.361,105.799-49.731,166.913-104.732,247.912
		c-12.213-6.514-84.694-50.305-84.694-50.305c51.728-79.612,72.168-129.161,97.154-223.061l-3.108-0.857l3.664-9.771l9.364,2.443
		l3.257-5.7l14.249,4.071l-0.814,6.514l78.981,21.984L220.254,54.961z"/>
	<path fill="#FFFFFF" d="M31.349,247.125c0,0,8.308,5.058,19.262,11.707c47.448-73.989,69.326-131.318,93.259-224.942l-19.971-5.509
		C100.409,123.725,80.825,172.505,31.349,247.125z"/>
</g>
</svg>
