<?xml version="1.0" encoding="utf-8"?>
<!-- Generator: Adobe Illustrator 17.0.0, SVG Export Plug-In . SVG Version: 6.00 Build 0)  -->
<!DOCTYPE svg PUBLIC "-//W3C//DTD SVG 1.1//EN" "http://www.w3.org/Graphics/SVG/1.1/DTD/svg11.dtd">
<svg version="1.1" id="Lager_1" xmlns="http://www.w3.org/2000/svg" xmlns:xlink="http://www.w3.org/1999/xlink" x="0px" y="0px"
	 width="320px" height="320px" viewBox="0 0 320 320" enable-background="new 0 0 320 320" xml:space="preserve">
<path fill="#FFFFFF" d="M278.615,159.337c0,24.304-7.355,46.852-19.836,65.705l61.222,61.222L286.265,320l-61.225-61.222
	c-18.85,12.481-41.399,19.836-65.702,19.836c-23.956,0-46.158-7.216-64.844-19.371L33.737,320l-33.739-33.736L60.362,225.9
	c-12.81-19.013-20.301-41.911-20.301-66.563c0-24.301,7.355-46.852,19.836-65.705L-0.001,33.736L33.737,0l59.896,59.896
	c18.853-12.481,41.401-19.836,65.705-19.836c24.652,0,47.548,7.491,66.563,20.303L286.265,0l33.736,33.736l-60.757,60.757
	C271.398,113.179,278.615,135.384,278.615,159.337z M159.338,87.771c-39.523,0-71.566,32.042-71.566,71.566
	c0,39.526,32.042,71.566,71.566,71.566s71.566-32.04,71.566-71.566C230.904,119.813,198.861,87.771,159.338,87.771z"/>
</svg>
