<?xml version="1.0" encoding="utf-8"?>
<!-- Generator: Adobe Illustrator 17.0.0, SVG Export Plug-In . SVG Version: 6.00 Build 0)  -->
<!DOCTYPE svg PUBLIC "-//W3C//DTD SVG 1.1//EN" "http://www.w3.org/Graphics/SVG/1.1/DTD/svg11.dtd">
<svg version="1.1" id="Layer_1" xmlns="http://www.w3.org/2000/svg" xmlns:xlink="http://www.w3.org/1999/xlink" x="0px" y="0px"
	 width="320px" height="304.031px" viewBox="0 0 320 304.031" enable-background="new 0 0 320 304.031" xml:space="preserve">
<g>
	<path fill="#FFFFFF" d="M160.002,63.838c9.226,0,18.126,1.387,26.514,3.949L202.326,0l-42.325,35.511L117.677,0l15.811,67.786
		C141.874,65.225,150.775,63.838,160.002,63.838z"/>
	<path fill="#FFFFFF" d="M131.017,68.598l-12.918-40.697l-9.311,19.87l-20.315-5.496l22.798,35.79
		C117.391,74.154,124.01,70.962,131.017,68.598z"/>
	<path fill="#FFFFFF" d="M72.315,177.049c-1.8-6.941-2.776-14.209-2.863-21.693l-42.757-0.304l16.041,14.985l-11.51,17.601
		L72.315,177.049z"/>
	<path fill="#FFFFFF" d="M69.467,152.764c0.315-18.728,6.32-36.062,16.372-50.364l-59.68-35.983l20.734,51.181L0,146.833
		L69.467,152.764z"/>
	<path fill="#FFFFFF" d="M102.457,84.443L75.436,51.738l-1.045,20.998l-21.797,2.706l34.751,24.842
		C91.726,94.416,96.804,89.094,102.457,84.443z"/>
	<path fill="#FFFFFF" d="M234.162,102.401c10.052,14.302,16.057,31.636,16.372,50.364L320,146.833l-46.891-29.234l20.734-51.181
		L234.162,102.401z"/>
	<path fill="#FFFFFF" d="M188.984,68.598c7.007,2.363,13.627,5.556,19.747,9.466l22.797-35.788l-20.313,5.495l-9.313-19.87
		L188.984,68.598z"/>
	<path fill="#FFFFFF" d="M232.656,100.285l34.753-24.842l-21.797-2.706l-1.045-20.998l-27.021,32.705
		C223.198,89.094,228.275,94.416,232.656,100.285z"/>
	<path fill="#FFFFFF" d="M87.656,208.738l-52.724,45.595l55.138-3.88l13.343,53.578l27.12-64.174
		C113.302,233.935,98.415,222.985,87.656,208.738z"/>
	<path fill="#FFFFFF" d="M244.31,187.364c-2.699,6.861-6.207,13.308-10.417,19.233l34.447,25.376l-4.159-21.542l19.669-7.482
		L244.31,187.364z"/>
	<path fill="#FFFFFF" d="M245.244,154.31c0-47.027-38.166-85.148-85.243-85.148c-47.078,0-85.244,38.121-85.244,85.148
		s38.166,85.148,85.244,85.148C207.08,239.457,245.244,201.336,245.244,154.31z M160.002,233.671
		c-43.88,0-79.45-35.532-79.45-79.362s35.57-79.362,79.45-79.362s79.449,35.532,79.449,79.362S203.881,233.671,160.002,233.671z"/>
	<path fill="#FFFFFF" d="M250.549,155.358c-0.086,7.484-1.062,14.751-2.863,21.693l41.088,10.59l-11.51-17.601l16.041-14.985
		L250.549,155.358z"/>
	<path fill="#FFFFFF" d="M165.501,244.6l2.616,42.339l13.203-16.372l19.225,10.609l-13.495-40.5
		C180.184,242.819,172.963,244.153,165.501,244.6z"/>
	<path fill="#FFFFFF" d="M189.511,239.844l27.109,64.153l13.345-53.58l55.138,3.882l-52.725-45.598
		C221.624,222.955,206.742,233.912,189.511,239.844z"/>
	<ellipse fill="#FFFFFF" cx="160.002" cy="154.31" rx="73.781" ry="73.698"/>
	<path fill="#FFFFFF" d="M86.137,206.635c-4.213-5.92-7.725-12.367-10.428-19.229l-39.526,15.577l19.669,7.482l-4.159,21.542
		L86.137,206.635z"/>
	<path fill="#FFFFFF" d="M119.49,281.21l19.225-10.609l13.201,16.374l2.619-42.374c-7.46-0.443-14.679-1.773-21.544-3.912
		L119.49,281.21z"/>
</g>
</svg>
