<?xml version="1.0" encoding="utf-8"?>
<!-- Generator: Adobe Illustrator 17.0.0, SVG Export Plug-In . SVG Version: 6.00 Build 0)  -->
<!DOCTYPE svg PUBLIC "-//W3C//DTD SVG 1.1//EN" "http://www.w3.org/Graphics/SVG/1.1/DTD/svg11.dtd">
<svg version="1.1" id="Layer_1" xmlns="http://www.w3.org/2000/svg" xmlns:xlink="http://www.w3.org/1999/xlink" x="0px" y="0px"
	 width="234.008px" height="320px" viewBox="0 0 234.008 320" enable-background="new 0 0 234.008 320" xml:space="preserve">
<path fill="#FFFFFF" d="M181.27,81.601l-38.812,233.643l16.845,1.461l39.548-204.344L181.27,81.601z M217.895,113.095
	l-52.736,203.977l15.379,2.561l53.471-173.581L217.895,113.095z M120.475,5.916L117.186,0l-3.662,5.795L71.777,80.504l26.732,234.74
	l15.745-0.372l5.496-0.36l15.746,0.36l26.729-234.735L120.475,5.916z M35.155,112.728l39.55,204.344l16.845-1.467L52.734,81.968
	L35.155,112.728z M0,146.419L53.464,320l15.382-2.562L16.112,113.461L0,146.419z"/>
</svg>
