<?xml version="1.0" encoding="utf-8"?>
<!-- Generator: Adobe Illustrator 17.0.0, SVG Export Plug-In . SVG Version: 6.00 Build 0)  -->
<!DOCTYPE svg PUBLIC "-//W3C//DTD SVG 1.1//EN" "http://www.w3.org/Graphics/SVG/1.1/DTD/svg11.dtd">
<svg version="1.1" id="Lager_1" xmlns="http://www.w3.org/2000/svg" xmlns:xlink="http://www.w3.org/1999/xlink" x="0px" y="0px"
	 width="320px" height="319.989px" viewBox="0 0 320 319.989" enable-background="new 0 0 320 319.989" xml:space="preserve">
<g>
	<path fill="#FFFFFF" d="M0,141.539h10.369c1.73-14.165,5.467-27.696,10.845-40.362l-8.979-5.184
		C6.054,110.23,1.829,125.514,0,141.539z"/>
	<path fill="#FFFFFF" d="M0,178.451c1.829,16.024,6.019,31.328,12.195,45.568l8.998-5.195c-5.375-12.668-9.095-26.21-10.824-40.373
		H0z"/>
	<path fill="#FFFFFF" d="M69.217,39.666l-5.18-8.972C51.362,40.115,40.14,51.371,30.714,64.04l8.989,5.19
		C48.139,58.073,58.057,48.099,69.217,39.666z"/>
	<path fill="#FFFFFF" d="M223.999,12.234C209.762,6.054,194.479,1.83,178.456,0v10.357c14.165,1.73,27.698,5.468,40.363,10.848
		L223.999,12.234z"/>
	<path fill="#FFFFFF" d="M39.672,250.777l-8.975,5.182c9.422,12.675,20.679,23.895,33.35,33.321l5.188-8.985
		C58.079,271.857,48.105,261.938,39.672,250.777z"/>
	<path fill="#FFFFFF" d="M320,141.539c-1.829-16.024-6.019-31.328-12.195-45.568l-8.998,5.195
		c5.375,12.668,9.095,26.21,10.825,40.374H320V141.539z"/>
	<path fill="#FFFFFF" d="M255.953,30.71l-5.188,8.985c11.156,8.437,21.13,18.356,29.562,29.517l8.975-5.182
		C279.881,51.356,268.624,40.136,255.953,30.71z"/>
	<path fill="#FFFFFF" d="M250.783,280.324l5.18,8.972c12.676-9.421,23.897-20.677,33.324-33.346l-8.989-5.19
		C271.862,261.916,261.943,271.89,250.783,280.324z"/>
	<path fill="#FFFFFF" d="M298.786,218.812l8.979,5.184c6.181-14.237,10.406-29.521,12.235-45.546h-10.368
		C307.902,192.615,304.165,206.147,298.786,218.812z"/>
	<path fill="#FFFFFF" d="M101.169,21.184c12.669-5.376,26.211-9.097,40.375-10.827V0c-16.023,1.829-31.326,6.019-45.566,12.195
		L101.169,21.184z"/>
	<path fill="#FFFFFF" d="M178.456,309.632v10.357c16.023-1.829,31.326-6.019,45.566-12.195l-5.19-8.99
		C206.163,304.181,192.62,307.902,178.456,309.632z"/>
	<path fill="#FFFFFF" d="M96.001,307.756c14.236,6.18,29.519,10.404,45.543,12.234v-10.357
		c-14.165-1.731-27.698-5.468-40.364-10.848L96.001,307.756z"/>
</g>
</svg>
