<?xml version="1.0" encoding="utf-8"?>
<!-- Generator: Adobe Illustrator 17.0.0, SVG Export Plug-In . SVG Version: 6.00 Build 0)  -->
<!DOCTYPE svg PUBLIC "-//W3C//DTD SVG 1.1//EN" "http://www.w3.org/Graphics/SVG/1.1/DTD/svg11.dtd">
<svg version="1.1" id="Layer_1" xmlns="http://www.w3.org/2000/svg" xmlns:xlink="http://www.w3.org/1999/xlink" x="0px" y="0px"
	 width="320px" height="320.024px" viewBox="0 0 320 320.024" enable-background="new 0 0 320 320.024" xml:space="preserve">
<path fill="#FFFFFF" d="M313.325,191.442c11.507-20.31,5.625-51.948,0.925-65.972c-0.391-0.907-1.664-1.991-2.88-2.872
	c0.751-0.505,1.412-1.165,1.894-2.001c1.704-2.944,0.701-6.711-2.243-8.415c-0.763-0.443-1.58-0.693-2.403-0.785
	c-0.028-23.368-20.872-47.975-31.922-57.829c-1.64-1.236-6.977-1.244-6.977-1.244c-2.489,4.682-2.565,6.771-2.349,7.642l0.282,0.565
	c0,0-0.176-0.138-0.282-0.565l-0.539-1.077c0,0-0.134,0.018-0.348,0.052c0.417-0.841,0.669-1.778,0.659-2.782
	c-0.01-0.905-0.224-1.754-0.585-2.525c3.076-0.374,5.453-2.98,5.419-6.148c-0.038-3.402-2.824-6.13-6.224-6.092
	c-0.943,0.01-1.82,0.248-2.615,0.633C250.994,22.35,221.12,11.893,206.772,9.021c-1.079-0.124-2.876,0.573-4.327,1.254
	c0.018-1.091-0.232-2.201-0.825-3.212c-1.718-2.934-5.493-3.919-8.427-2.199c-0.723,0.423-1.326,0.973-1.8,1.604
	c-20.278-11.134-51.439-5.475-65.341-0.887c-1.175,0.501-2.659,2.481-3.611,3.903c-0.523-1.075-1.36-2.011-2.477-2.649
	c-2.954-1.688-6.717-0.665-8.403,2.289c-0.411,0.719-0.655,1.486-0.755,2.257C87.49,11.555,63.022,32.36,53.207,43.398
	c-0.641,0.855-0.947,2.707-1.093,4.289c-0.793-0.372-1.668-0.595-2.601-0.595c-3.4,0-6.158,2.757-6.158,6.16
	c0,0.887,0.196,1.724,0.533,2.487c-0.226,0.026-0.455,0.044-0.665,0.126C22.969,67.59,12.144,98.056,9.17,112.587
	c-0.11,0.917,0.374,2.359,0.937,3.667c-0.581,0.134-1.151,0.324-1.694,0.637c-2.948,1.696-3.963,5.463-2.265,8.409
	c0.376,0.655,0.869,1.198,1.418,1.654c-0.226,0.152-0.433,0.322-0.605,0.529c-11.767,20.228-6.054,52.052-1.426,66.142
	c0.567,1.34,3.038,3.07,4.436,3.969c-1.037,0.531-1.936,1.352-2.553,2.439c-1.678,2.96-0.639,6.717,2.319,8.395
	c0.543,0.306,1.113,0.493,1.692,0.625c0.202,23.293,20.955,47.734,31.976,57.543c1.031,0.775,3.52,1.063,5.229,1.172
	c-0.382,0.809-0.613,1.704-0.605,2.657c0.022,3.4,2.798,6.14,6.198,6.12c0.38-0.004,0.749-0.05,1.109-0.12
	c11.721,20.15,41.909,31.075,56.357,34.119c2.037,0.254,6.672-2.393,6.672-2.393c-0.168-5.299-1.141-7.149-1.762-7.798l-0.527-0.35
	c0,0,0.22,0.034,0.527,0.35l1.001,0.669c0,0,0.565-0.435,1.244-1.055c0.102,0.827,0.364,1.644,0.819,2.403
	c0.465,0.779,1.079,1.404,1.778,1.886c-2.467,1.874-3.208,5.321-1.58,8.042c1.746,2.92,5.527,3.871,8.447,2.127
	c0.142-0.086,0.258-0.198,0.39-0.292c20.18,10.171,50.103,4.992,63.673,0.667c1.45-0.599,3.374-3.408,4.207-4.71
	c0.519,1.087,1.354,2.037,2.475,2.683c2.946,1.702,6.712,0.693,8.411-2.255c0.384-0.667,0.615-1.378,0.729-2.095
	c0.226,0.104,0.455,0.206,0.697,0.244c23.404,0,48.037-20.939,57.891-32.025c0.859-1.141,1.117-4.071,1.198-5.749
	c1.003,0.689,2.215,1.091,3.526,1.079c3.4-0.03,6.134-2.812,6.104-6.214c-0.008-0.753-0.168-1.464-0.423-2.129
	c0.026-0.01,0.052-0.006,0.078-0.016c20.196-11.823,30.877-42.34,33.781-56.884c0.12-1.043-0.531-2.757-1.192-4.185
	c1.005-0.024,2.017-0.264,2.948-0.805c2.942-1.71,3.939-5.477,2.229-8.419C314.587,192.558,313.998,191.931,313.325,191.442z
	 M305.469,123.122c0.054,0.022,0.11,0.052,0.166,0.076c-0.068,0.056-0.126,0.108-0.192,0.164
	C305.455,123.282,305.461,123.202,305.469,123.122z M302.135,186.208c-4.37-7.239-6.05-38.967-0.775-57.242
	C302.413,139.509,301.188,173.83,302.135,186.208z M301.82,116.898c-0.965-0.425-1.987-0.607-2.986-0.521
	c-0.028-0.555-0.072-1.109-0.072-1.594c0.004-1.987,0.004-2.395,0.004-2.463c0,0,2.055,1.145,3.781,2.241
	C302.137,115.306,301.902,116.101,301.82,116.898z M302.467,109.451c-4.498-11.915-24.567-40.688-31.532-49.322
	C281.19,66.714,300.447,90.15,302.467,109.451z M296.303,112.314c-7.385-4.119-24.583-30.835-29.069-49.318
	C273.38,71.629,289.343,102.039,296.303,112.314z M259.761,48.527c0.09,0.571,0.282,1.105,0.517,1.612
	c-1.135,0.13-2.173,0.557-3.032,1.22c-0.166-0.248-0.324-0.491-0.459-0.719c-1.001-1.714-1.21-2.069-1.242-2.127
	C255.546,48.515,257.763,48.465,259.761,48.527z M257.284,44.168c-9.909-8-41.781-22.657-52.16-26.578
	C217.301,18.081,245.771,28.544,257.284,44.168z M253.417,49.757c-8.453,0.186-36.809-14.15-50.031-27.821
	C213.054,26.273,242.213,44.42,253.417,49.757z M200.41,14.769c0.042,0.29,0.088,0.553,0.134,0.809
	c-0.188-0.17-0.374-0.34-0.577-0.487C200.114,14.981,200.276,14.887,200.41,14.769z M191.429,13.89
	c0.386,0.509,0.853,0.925,1.354,1.282c-0.843,0.621-1.51,1.406-1.934,2.307c-0.264-0.132-0.523-0.264-0.751-0.399
	c-1.718-0.997-2.071-1.202-2.131-1.236C187.966,15.846,189.724,14.799,191.429,13.89z M187.333,11.206
	c-12.566-2.065-47.52,0.927-58.48,2.641C139.685,8.262,169.609,3.304,187.333,11.206z M186.733,17.977
	c-7.259,4.335-38.995,5.869-57.244,0.511C140.036,17.482,174.351,18.866,186.733,17.977z M126.931,16.857l0.631,0.038
	C127.562,16.895,127.354,16.977,126.931,16.857l-0.232-0.014c-0.034-0.042-0.076-0.078-0.11-0.118
	C126.713,16.781,126.829,16.827,126.931,16.857z M122.966,13.183c0.649,0.885,1.22,1.55,1.726,2.071
	c-0.697-0.348-1.424-0.565-2.161-0.635C122.73,14.148,122.886,13.669,122.966,13.183z M114.049,17.614
	c0.729,0.384,1.502,0.607,2.279,0.683c-0.405,0.927-0.589,1.904-0.521,2.866c-0.497,0.028-0.987,0.064-1.422,0.064
	c-1.987,0-2.395,0-2.463,0C111.92,21.227,112.991,19.304,114.049,17.614z M111.92,23.69c-4.105,7.389-30.793,24.635-49.268,29.151
	C71.275,46.683,101.657,30.669,111.92,23.69z M109.046,17.532c-11.907,4.516-40.647,24.633-49.27,31.614
	C66.346,38.881,89.75,19.585,109.046,17.532z M56.414,52.294c-0.276,0.082-0.551,0.166-0.809,0.284
	c-0.02-0.188-0.02-0.382-0.056-0.565C55.871,52.134,56.131,52.204,56.414,52.294z M48.92,59.351c0.198,0.02,0.39,0.06,0.593,0.06
	c0.905,0,1.758-0.206,2.531-0.557c0.106,0.965,0.417,1.868,0.917,2.647c-0.673,0.388-1.356,0.895-1.96,1.246
	c-1.718,0.995-2.073,1.2-2.131,1.234C48.87,63.981,48.826,61.442,48.92,59.351z M50.106,66.112
	c0.15,8.453-14.304,36.749-28.031,49.915C26.45,106.377,44.721,77.296,50.106,66.112z M44.533,62.223
	C36.49,72.097,21.7,103.91,17.737,114.269C18.277,102.095,28.861,73.669,44.533,62.223z M18.446,190.209
	c-0.987-10.549,0.449-44.863-0.423-57.244C22.347,140.23,23.832,171.968,18.446,190.209z M21.275,205.406
	c-0.002,1.985-0.002,2.393-0.002,2.461c0,0-1.566-0.873-3.114-1.822c0.425-0.769,0.661-1.59,0.735-2.413
	c0.755,0.324,1.538,0.489,2.325,0.499C21.245,204.577,21.275,205.014,21.275,205.406z M11.255,132.352
	c-2.085,12.562,0.855,47.52,2.553,58.484C8.237,179.996,3.324,150.064,11.255,132.352z M16.814,192.762l-0.072,1.123
	c-0.292,0.326-0.561,0.681-0.785,1.077c-0.443,0.781-0.685,1.616-0.765,2.455c-0.763-0.32-1.564-0.471-2.359-0.477
	C15.756,194.861,16.603,193.489,16.814,192.762l0.04-0.629C16.854,192.133,16.936,192.339,16.814,192.762z M15.892,131.725
	c0,0-1.19-2.001-2.131-3.803c0.268-0.108,0.539-0.208,0.797-0.358c0.785-0.453,1.42-1.055,1.916-1.746
	c0.497,0.677,1.103,1.226,1.792,1.636c-0.415,0.691-0.769,1.51-1.135,2.141C16.133,131.312,15.926,131.667,15.892,131.725z
	 M17.577,210.741c4.508,11.909,24.607,40.663,31.582,49.288C38.898,253.455,19.615,230.039,17.577,210.741z M23.736,207.869
	c7.387,4.111,24.615,30.811,29.119,49.288C46.701,248.533,30.709,218.138,23.736,207.869z M51.864,264.689
	c1.017-2.539,1.023-3.859,0.861-4.502l-0.282-0.567c0,0,0.176,0.14,0.282,0.567l0.272,0.545c-0.056,0.338-0.1,0.681-0.098,1.037
	c0.006,0.903,0.216,1.756,0.573,2.527C52.913,264.365,52.369,264.483,51.864,264.689z M59.774,267.815
	c0.589-0.068,1.161-0.194,1.688-0.417c0.23,0.352,0.459,0.697,0.641,1.017c0.985,1.724,1.188,2.081,1.222,2.139
	c0,0-1.412,0.018-2.996-0.018c0-0.066,0.018-0.126,0.018-0.194C60.341,269.437,60.128,268.588,59.774,267.815z M61.54,274.882
	c9.826,8.1,41.551,23.079,51.888,27.104C101.256,301.374,72.893,290.62,61.54,274.882z M65.463,269.333
	c8.455-0.1,36.664,14.522,49.749,28.328C105.588,293.225,76.615,274.784,65.463,269.333z M129.304,304.628
	c-0.21-0.194-0.437-0.362-0.667-0.523c0.328-0.246,0.625-0.519,0.889-0.815c0.791,0.469,0.997,0.593,1.041,0.619
	C130.568,303.907,130.049,304.209,129.304,304.628z M131.264,308.599c0-0.012,0-0.022-0.002-0.032
	c12.632,2.159,47.45-0.467,58.396-2.065C178.793,311.967,148.921,316.611,131.264,308.599z M131.825,301.788
	c7.301-4.261,39.053-5.473,57.246,0.07C178.514,302.753,144.215,301.023,131.825,301.788z M195.99,307.86
	c-2.191-3.232-3.629-4.123-4.38-4.348l-0.629-0.044c0,0,0.208-0.08,0.629,0.044l1.202,0.086c0,0,0.022-0.124,0.048-0.326
	c0.356,0.344,0.743,0.663,1.191,0.923c0.779,0.449,1.614,0.697,2.453,0.783C196.097,305.907,195.922,306.892,195.99,307.86z
	 M205.855,302.567c-0.208-0.16-0.409-0.328-0.641-0.461c-0.785-0.455-1.626-0.701-2.469-0.785c0.342-0.783,0.515-1.598,0.519-2.413
	c0.787,0.004,1.64-0.094,2.347-0.094c1.987,0,2.395,0,2.463,0C208.074,298.814,206.942,300.847,205.855,302.567z M208.074,296.351
	c4.105-7.389,30.793-24.635,49.268-29.151C248.719,273.358,218.337,289.37,208.074,296.351z M210.945,302.509
	c11.907-4.516,40.647-24.635,49.27-31.614C253.647,281.16,230.244,300.456,210.945,302.509z M260.37,267.328l-0.565,0.284
	C259.805,267.611,259.943,267.435,260.37,267.328l0.861-0.431c0.517,0.136,1.049,0.23,1.61,0.224
	c0.895-0.008,1.74-0.214,2.505-0.567c0.098,0.765,0.342,1.482,0.691,2.135C262.731,267.184,261.105,267.144,260.37,267.328z
	 M264.033,249.952c-0.142,2.119-0.142,3.723-0.044,4.972c-0.406-0.082-0.827-0.124-1.258-0.12c-3.4,0.032-6.134,2.812-6.104,6.214
	c0.004,0.298,0.052,0.583,0.096,0.871c-17.248,4.107-42.436,15.62-52.346,28.304c-1.292,1.898-2.157,3.386-2.699,4.556
	c-0.421-0.465-0.895-0.891-1.466-1.222c-2.948-1.702-6.714-0.693-8.413,2.255c-0.206,0.356-0.368,0.725-0.497,1.099
	c-16.749-5.541-44.094-8.294-59.513-2.275c-0.705,0.33-1.342,0.643-1.92,0.945c-1.864-2.507-5.341-3.266-8.078-1.628
	c-0.609,0.366-1.111,0.833-1.542,1.35c-11.931-13.061-35.02-29.84-51.271-32.201c-1.534-0.122-2.812-0.166-3.877-0.15
	c0.078-0.398,0.118-0.809,0.116-1.23c-0.022-3.402-2.798-6.14-6.198-6.12c-0.36,0.002-0.709,0.05-1.053,0.114
	c-4.271-17.22-15.602-41.755-28.068-51.505c-1.526-1.041-2.761-1.78-3.807-2.321c0.208-0.258,0.413-0.523,0.581-0.819
	c1.678-2.96,0.639-6.716-2.319-8.395c-0.312-0.176-0.637-0.306-0.965-0.425c5.096-16.986,7.782-44.448,1.816-59.353
	c-1.001-2.089-1.858-3.597-2.601-4.656c0.647-0.126,1.286-0.332,1.888-0.679c2.948-1.696,3.963-5.463,2.265-8.409
	c-0.028-0.05-0.068-0.088-0.096-0.136c12.604-12.46,27.591-34.025,29.732-49.397c0.176-2.439,0.166-4.221,0.024-5.527
	c0.549,0.162,1.119,0.274,1.722,0.274c3.4,0,6.158-2.757,6.158-6.16c0-0.088-0.022-0.172-0.026-0.26
	c17.208-4.307,41.631-15.63,51.349-28.068c1.198-1.76,2.009-3.15,2.555-4.277c0.23,0.18,0.459,0.364,0.719,0.513
	c2.954,1.688,6.715,0.665,8.403-2.289c0.05-0.09,0.078-0.186,0.124-0.276c16.815,5.347,44.098,7.8,59.421,1.64
	c1.778-0.855,3.098-1.596,4.113-2.261c0.054,0.108,0.088,0.218,0.148,0.324c1.7,2.898,5.397,3.883,8.315,2.251
	c12.322,12.76,34.734,28.45,50.55,30.585c2.067,0.14,3.639,0.142,4.876,0.054c0,0.062-0.018,0.12-0.016,0.182
	c0.036,3.402,2.822,6.13,6.224,6.092c0.196-0.002,0.38-0.044,0.573-0.064c3.797,17.264,15.534,43.501,28.514,53.678
	c1.842,1.258,3.288,2.103,4.442,2.649c-0.198,0.244-0.395,0.491-0.557,0.773c-1.686,2.91-0.713,6.62,2.153,8.349
	c-4.838,17.068-7.183,43.94-1.22,58.578c0.963,1.981,1.79,3.416,2.515,4.462c-0.266,0.108-0.533,0.208-0.787,0.358
	c-2.926,1.7-3.923,5.437-2.253,8.371C281.707,211.898,266.151,234.2,264.033,249.952z M271.57,259.671
	c-0.058,0-0.114-0.016-0.172-0.016c-0.905,0.008-1.756,0.222-2.527,0.579c-0.11-0.917-0.409-1.77-0.875-2.517
	c0.505-0.326,1.001-0.681,1.456-0.947c1.714-1.003,2.067-1.21,2.129-1.244C271.58,255.527,271.626,257.692,271.57,259.671z
	 M270.335,253.403c-0.19-8.453,14.13-36.817,27.793-50.047C293.796,213.024,275.667,242.193,270.335,253.403z M275.928,257.264
	c7.992-9.913,22.633-41.795,26.548-52.174C301.989,217.267,291.541,245.743,275.928,257.264z M304.392,200.53
	c0.132-0.154,0.272-0.304,0.388-0.469c0.088,0.116,0.162,0.244,0.256,0.354C304.806,200.45,304.6,200.492,304.392,200.53z
	 M304.708,192.85c-0.629-0.855-1.434-1.52-2.349-1.942c0.234-0.469,0.459-0.941,0.689-1.34c0.987-1.722,1.191-2.077,1.226-2.137
	c0,0,1.204,1.995,2.155,3.797C305.735,191.663,305.159,192.219,304.708,192.85z M308.907,186.778
	c2.007-12.576-1.145-47.516-2.912-58.468C311.633,139.116,316.729,169.018,308.907,186.778z"/>
</svg>
