<?xml version="1.0" encoding="utf-8"?>
<!-- Generator: Adobe Illustrator 17.0.0, SVG Export Plug-In . SVG Version: 6.00 Build 0)  -->
<!DOCTYPE svg PUBLIC "-//W3C//DTD SVG 1.1//EN" "http://www.w3.org/Graphics/SVG/1.1/DTD/svg11.dtd">
<svg version="1.1" id="Layer_1" xmlns="http://www.w3.org/2000/svg" xmlns:xlink="http://www.w3.org/1999/xlink" x="0px" y="0px"
	 width="320px" height="185.729px" viewBox="0 0 320 185.729" enable-background="new 0 0 320 185.729" xml:space="preserve">
<g>
	<path fill="#FFFFFF" d="M238.513,56.648L160.002,0L81.49,56.648c0,0-65.588-5.965-81.49-7.955
		c17.554,34.591,38.832,83.953,56.924,137.036c6.547-3.801,13.313-7.253,20.289-10.323c-12.21-40.985-25.992-78.635-37.999-104.824
		c12.007,1.659,61.518,6.642,61.518,6.642l59.27-47.332l59.266,47.336c0,0,49.515-4.983,61.518-6.642
		c-12.003,26.185-25.785,63.839-37.992,104.82c6.976,3.07,13.738,6.522,20.282,10.323C281.164,132.642,302.45,83.28,320,48.693
		C304.101,50.682,238.513,56.648,238.513,56.648z"/>
	<path fill="#FFFFFF" d="M126.178,160.831c11.01-1.822,22.297-2.812,33.823-2.812c11.527,0,22.81,0.989,33.823,2.812l-33.823-116.11
		L126.178,160.831z"/>
</g>
</svg>
