<?xml version="1.0" encoding="utf-8"?>
<!-- Generator: Adobe Illustrator 17.0.0, SVG Export Plug-In . SVG Version: 6.00 Build 0)  -->
<!DOCTYPE svg PUBLIC "-//W3C//DTD SVG 1.1//EN" "http://www.w3.org/Graphics/SVG/1.1/DTD/svg11.dtd">
<svg version="1.1" id="Layer_1" xmlns="http://www.w3.org/2000/svg" xmlns:xlink="http://www.w3.org/1999/xlink" x="0px" y="0px"
	 width="316.531px" height="320px" viewBox="0 0 316.531 320" enable-background="new 0 0 316.531 320" xml:space="preserve">
<g>
	<path fill="#FFFFFF" d="M98.844,40.52c9.582-10.973,24.571-13.909,28.436-14.682c0.153-2.473,1.854-4.172,4.636-6.954
		c0,0-11.127-0.155-17.617,1.546c-6.49,1.7-14.682,6.645-26.735,17.153c-0.928,4.018,0,6.954,1.545,12.518
		C90.654,49.019,91.89,48.402,98.844,40.52z"/>
	<path fill="#FFFFFF" d="M76.427,44.652c-0.398-4.311,0.296-7.534,0.296-7.534s-0.677,0.133-3.252-2.54
		c-2.902-3.014-5.973-5.608-5.973-5.608l-5.504,2.526c0,0,4.088,5.311,6.051,7.315C70.011,40.815,76.427,44.652,76.427,44.652z"/>
	<path fill="#FFFFFF" d="M14.954,129.115c0,0-0.44,0.533-4.125,0.096c-4.155-0.49-8.174-0.548-8.174-0.548L0,134.105
		c0,0,6.529,1.516,9.318,1.821s10.183-0.798,10.183-0.798C16.461,132.048,14.954,129.115,14.954,129.115z"/>
	<path fill="#FFFFFF" d="M72.597,43.173c-1.466,0.972-4.403,3.282-3.842,6.78c0.561,3.498,5.083,3.736,9.184,2.703
		c0,0-0.74-3.873-1.224-5.663c-2.082,0.256-2.438-0.493-2.438-0.493l2.278-0.808C76.554,45.693,73.765,44.087,72.597,43.173z"/>
	<path fill="#FFFFFF" d="M114.916,31.093c-2.627,2.782-8.808,6.645-13.445,8.963c-2.627,2.473-8.654,8.808-8.654,8.808
		c16.381-10.508,28.126-12.517,33.072-13.909c4.945-4.482,14.372-10.972,25.19-12.208c10.819-1.237,20.863,3.401,28.279,6.49
		c0,0,0.464-0.464,0.773-2.937c-3.246-1.39-4.325-5.1-4.791-7.573c-20.09-9.582-33.534-5.1-41.262-0.773
		c-2.937,2.163-4.791,6.336-6.026,9.118C128.052,27.075,119.707,29.857,114.916,31.093z"/>
	<path fill="#FFFFFF" d="M41.317,97.391c0,0-2.106,2.298-2.646,4.152c-1.432,4.905-3.806,15.319-3.806,21.345
		c2.473-8.345,5.255-12.981,7.573-16.69c0.12-0.382,0.198-0.736,0.271-1.085c3.979-7.528,9.31-19.314,9.31-19.314
		c-2.643,2.503-7.895,8.167-10.7,11.595C41.319,97.392,41.317,97.392,41.317,97.391z"/>
	<path fill="#FFFFFF" d="M181.398,25.592c0,0,2.596-2.967,3.71-4.45c-1.483-1.483-1.113-2.225-1.113-2.225l2.04,1.299
		c0,0-0.451-3.187-0.451-4.672c-1.669-0.557-5.296-1.449-7.707,1.147C175.464,19.286,178.06,22.996,181.398,25.592z"/>
	<path fill="#FFFFFF" d="M32.084,130.925c0,0,1.546-3.246,1.546-4.019c-1.082-15.763,1.294-24.166,2.377-25.865
		c0.006-0.063,0.01-0.127,0.016-0.19l0.951-2.146l10.721-11.358c0,0,15.481-13.417,21.215-20.211c0.044,0.006,0.086,0.02,0.13,0.024
		c2.298-2.917,6.162-6.702,10.489-9.639l-0.619-0.619c0,0-1.392,0.928-4.327,2.474c-2.38,1.253-5.308,2.277-8.386,4.013
		c-0.281,0.137-0.573,0.289-0.886,0.468c-3.929,2.244-25.43,15.697-32.599,24.633c-7.454,8.7-8.767,23.105-8.353,35.328
		C26.367,128.607,28.839,129.071,32.084,130.925z"/>
	<path fill="#FFFFFF" d="M62.492,64.063c0.115,0.034,0.231,0.069,0.345,0.102c0.079-0.149,0.173-0.294,0.275-0.435
		c0.206-0.11,0.344-0.183,0.344-0.183l0.092-0.344c1.973-2.085,6.193-3.464,7.944-4.138c0,0,4.018-2.009,6.336-3.246
		c0,0-0.464-1.39-1.237-1.7c-1.854,0.773-8.345-0.773-9.891-2.009c-4.482,1.237-8.808,3.246-13.909,8.654
		c0,0,0.136,0.052,0.361,0.136c-1.532,1.684-7.049,8.03-9.169,14.39C50.87,70.445,59.634,65.608,62.492,64.063z"/>
	<path fill="#FFFFFF" d="M137.942,28.311c3.554,4.018,23.643,2.473,30.443,3.091c6.8,0.619,4.636,0.155,8.346-1.545
		c0,0-9.119-4.636-18.081-5.564C149.687,23.367,141.343,26.611,137.942,28.311z"/>
	<path fill="#FFFFFF" d="M269.3,93.217c23.025,15.608,23.798,40.025,16.534,61.506c-0.462,3.863-0.617,11.592-0.617,18.854
		c0,0,1.545,1.701,4.172,2.318c0-1.082,2.935-4.172,4.325-7.726c-0.309-3.091-0.309-5.409,2.165-10.972
		c12.054-34.307,2.473-49.453-11.59-64.442C278.263,91.208,275.481,92.136,269.3,93.217z"/>
	<path fill="#FFFFFF" d="M283.632,81.534c0,0-0.049-0.689,2.917-2.918c3.346-2.513,6.294-5.245,6.294-5.245l-1.836-5.77
		c0,0-5.769,3.409-7.999,5.114c-2.228,1.704-6.818,7.606-6.818,7.606C280.518,80.451,283.632,81.534,283.632,81.534z"/>
	<path fill="#FFFFFF" d="M270.072,95.999c1.854,10.664,12.054,24.726,18.701,33.226C287.071,108.671,276.562,101.409,270.072,95.999
		z"/>
	<path fill="#FFFFFF" d="M300.927,182.023c0.517-1.682,1.324-5.331-1.329-7.679s-6.298,0.334-8.816,3.731
		c0,0,3.027,2.527,4.536,3.604c1.449-1.519,2.199-1.164,2.199-1.164l-1.25,2.069C296.268,182.584,299.444,182.058,300.927,182.023z"
		/>
	<path fill="#FFFFFF" d="M294.18,172.958c3.863-2.937,4.791-1.082,7.881,0.462c6.646-11.434,5.255-22.098,0.62-37.861
		c-0.464,7.109-1.856,13.754-4.174,19.626C299.126,160.132,296.808,166.624,294.18,172.958z"/>
	<path fill="#FFFFFF" d="M268.06,80.845c0,0,3.935-0.262,5.77-0.525c0-2.098,0.786-2.36,0.786-2.36l0.525,2.36
		c0,0,1.934-2.573,2.982-3.622c-0.788-1.574-2.72-4.771-6.261-4.639C268.322,72.19,267.536,76.65,268.06,80.845z"/>
	<path fill="#FFFFFF" d="M217.22,36.502c-2.781,0-9.272-1.236-12.208-3.09c-1.854,0-4.635-0.309-12.364,0
		c9.582,10.046,34.618,14.063,38.944,14.218C229.583,42.065,220.311,38.202,217.22,36.502z"/>
	<path fill="#FFFFFF" d="M190.794,32.175c16.314-0.938,26.885,2.534,35.433,8.156c8.273,5.441,15.564,18.426,20.511,25.688
		c4.944,7.264,10.044,10.817,14.216,16.381c0,0,2.009-1.236,4.174-2.009c-3.554-15.146-13.446-20.863-16.69-24.727
		c-7.262-2.781-10.046-13.754-9.58-15.917c0.462-2.163-17.464-17.308-39.871-16.38C194.967,24.603,193.422,28.93,190.794,32.175z"/>
	<path fill="#FFFFFF" d="M192.896,15.067c0,0-0.521-0.451,0-4.125c0.588-4.142,0.743-8.16,0.743-8.16L188.259,0
		c0,0-1.668,6.49-2.039,9.272c-0.372,2.782,0.556,10.2,0.556,10.2C189.928,16.506,192.896,15.067,192.896,15.067z"/>
	<path fill="#FFFFFF" d="M249.984,54.583c5.1,4.018,14.216,17,16.689,23.026c-0.311-3.863,1.854-6.49,3.09-8.035
		c-5.408-14.682-12.826-23.799-29.207-28.745C241.791,50.411,246.354,52.879,249.984,54.583z"/>
	<path fill="#FFFFFF" d="M15.601,136.416c-0.517,1.681-1.324,5.329,1.329,7.679c2.653,2.348,6.298-0.334,8.816-3.731
		c0,0-3.027-2.526-4.536-3.604c-1.449,1.518-2.199,1.164-2.199,1.164l1.25-2.07C20.26,135.853,17.084,136.38,15.601,136.416z"/>
	<path fill="#FFFFFF" d="M241.967,276.943c1.483-0.944,4.464-3.197,3.968-6.707c-0.495-3.508-5.01-3.831-9.131-2.876
		c0,0,0.667,3.886,1.117,5.684c2.086-0.215,2.428,0.54,2.428,0.54l-2.294,0.765C238.058,274.35,240.816,276.008,241.967,276.943z"/>
	<path fill="#FFFFFF" d="M240.093,255.328c-1.392-0.926-2.782,2.163-3.71,3.399c-0.928,1.236,0.155,2.781,1.546,3.246
		c0.623,0.209,1.43-0.003,2.189-0.462c-0.345,0.296-0.7,0.597-1.108,0.925c0,0,6.953-1.543,11.59-3.708
		c2.627-3.09,10.2-8.345,13.446-10.2c0.042-0.084,0.089-0.156,0.133-0.239c0.057-0.026,0.119-0.043,0.176-0.069
		c3.71-4.019,4.325-9.736,6.181-15.144c-1.99,2.752-13.656,10.95-18.691,15.913c-2.907,1.954-6.205,4.451-8.817,6.802
		c0.674,1.35,0.348,2.544-1.42,4.343c0.278-0.385,0.508-0.805,0.647-1.251C242.873,256.873,241.483,256.255,240.093,255.328z"/>
	<path fill="#FFFFFF" d="M226.801,277.425c-2.937,1.546-6.337,3.246-9.582,4.945c-2.473,4.327-10.199,6.646-13.752,8.191
		c-15.3,9.427-18.701,0.926-19.316-0.619c-3.219-0.129-7.09-1.332-13.916-2.712c-5.117-1.599-10.895-4.083-25.924-2.204
		c-0.027,0.053-0.05,0.113-0.076,0.168c-0.295,0.011-0.581,0.019-0.85,0.019c-1.669,2.039-2.411,3.524-4.265,6.304
		c0,0,1.624,0.511,3.708,0.724c0,0.004,0,0.019,0,0.019c0.216,0.02,0.412,0.021,0.624,0.034c0.047,0.004,0.096,0.007,0.145,0.01
		c5.482,0.371,9.113-0.856,14.437-0.044c6.301,0.958,9.467,2.019,12.858,3.254c0.042,0.082,0.082,0.153,0.123,0.236
		c0.626,0.175,1.233,0.325,1.847,0.483c0.593,0.216,1.207,0.437,1.863,0.661c0.043-0.054,0.086-0.11,0.129-0.166
		c31.216,7.315,47.653-6.473,52.259-14.05C227.111,282.68,226.647,280.053,226.801,277.425z"/>
	<path fill="#FFFFFF" d="M238.165,275.394c0.316,4.317-0.44,7.526-0.44,7.526s0.679-0.119,3.201,2.602
		c2.844,3.068,5.866,5.72,5.866,5.72l5.55-2.42c0,0-3.985-5.388-5.91-7.43C244.508,279.351,238.165,275.394,238.165,275.394z"/>
	<path fill="#FFFFFF" d="M172.94,298.587c-0.898-0.44-1.909-0.839-3.04-1.133c-6.118,0.186-16.134-2.04-20.584-3.524
		c-4.636,0.372-6.306,0.372-9.643,0c-0.556,0.557-0.185,2.596,2.782,4.45c8.672,4.716,19.959,6.433,28.447,5.772
		c6.941,0.218,8.549-0.899,14.02-4.32C180.642,299.166,176.25,298.386,172.94,298.587z"/>
	<path fill="#FFFFFF" d="M286.303,176.884c-1.907-1.131-3.113-1.008-4.016-0.385c0.909-6.097,1.385-12.335,1.385-18.685
		c0-24.823-7.215-47.954-19.641-67.439c0.409,0.122,0.835,0.228,1.277,0.305c2.229,0.394,10.359-1.18,13.244-1.442
		c2.885-0.262,2.491,0.656,3.671,1.836c0,0,2.623-1.312,3.015-4.852s-3.935-3.935-8.523-4.327c-4.589-0.392-9.311,0.394-12.72,1.18
		c-2.178,0.503-2.961,1.433-3.177,2.517c-17.721-25.171-44.436-43.554-75.492-50.435c0.362-0.198,0.724-0.417,1.078-0.664
		c1.854-1.299,6.49-8.16,8.345-10.385c1.854-2.225,2.226-1.297,3.896-1.297c0,0,0.926-2.782-1.297-5.564
		c-2.226-2.782-5.564,0-9.089,2.968c-3.524,2.967-6.304,6.861-8.158,9.828c-1.165,1.864-1.085,3.07-0.497,3.983
		c-7.01-1.213-14.216-1.851-21.571-1.851c-25.933,0-50.013,7.881-70.024,21.345c-0.263-2.854-2.457-9.698-3.018-12.298
		c-0.613-2.832,0.346-2.553,1.375-3.869c0,0-1.621-2.444-5.185-2.403c-3.561,0.042-3.425,4.384-3.256,8.987
		s1.525,9.192,2.722,12.481c0.271,0.743,0.574,1.299,0.901,1.721c-24.163,18.575-41.386,45.735-47.092,76.922
		c-1.48-1.871-8.27-6.237-10.505-8.012c-2.268-1.801-1.35-2.194-1.389-3.862c0,0-2.803-0.862-5.531,1.429s0.13,5.563,3.18,9.015
		c3.05,3.454,7.009,6.142,10.018,7.926c1.346,0.798,2.331,0.954,3.118,0.767c-0.624,5.077-0.952,10.246-0.952,15.491
		c0,56.626,37.466,104.498,88.959,120.194c-12.793-1.284-25.973-2.925-44.452-10.318c-7.637-3.055-14.527-8.807-22.253-23.025
		c0,0-1.854-0.464-2.318,0c-0.155,1.7-1.417,6.258-2.627,7.262c2.473,6.954,6.725,14.836,20.863,22.717
		c15.07,8.399,37.834,11.091,53.405,12.82c1.816-1.816,2.924-4.388,3.691-7.717c9.728,2.417,19.898,3.705,30.373,3.705
		c19.235,0,37.447-4.337,53.737-12.07c-8.097,4.683-14.278,11.898-25.765,19.796c1.545,3.399,7.262,2.781,10.663,1.854
		c5.408-4.172,21.791-14.372,29.979-17.926c0,0-0.619-5.564-0.153-8.655c-4.006,0.554-7.377,1.502-10.393,2.771
		c3.937-2.059,7.753-4.315,11.43-6.764c-0.464,0.869-0.706,1.99-0.792,3.174c-0.162,2.259,2.241,10.183,2.801,13.027
		c0.558,2.842-0.395,2.544-1.449,3.842c0,0,1.575,2.474,5.137,2.5s3.508-4.32,3.426-8.924c-0.082-4.605-1.35-9.218-2.484-12.53
		c-0.985-2.879-2.496-3.11-4.056-2.825c26.032-18.273,44.82-46.164,51.184-78.518c0.21,0.367,0.442,0.732,0.704,1.088
		c1.342,1.823,8.31,6.296,10.578,8.098c2.269,1.801,1.35,2.194,1.39,3.862c0,0,2.803,0.863,5.531-1.429
		c2.728-2.291-0.132-5.561-3.18-9.015C293.271,181.357,289.314,178.669,286.303,176.884z M158.032,270.009
		c-61.963,0-112.194-50.23-112.194-112.194c0-61.963,50.232-112.194,112.194-112.194s112.194,50.232,112.194,112.194
		C270.226,219.778,219.995,270.009,158.032,270.009z"/>
	<path fill="#FFFFFF" d="M307.211,182.513c-2.789-0.306-10.183,0.796-10.183,0.796c3.04,3.081,4.547,6.015,4.547,6.015
		s0.441-0.533,4.125-0.097c4.154,0.491,8.176,0.551,8.176,0.551l2.655-5.444C316.528,184.334,310,182.818,307.211,182.513z"/>
	<path fill="#FFFFFF" d="M135.6,294.899c0,0-2.781,2.795-3.986,4.205c1.386,1.576,0.968,2.292,0.968,2.292l-1.953-1.425
		c0,0,0.246,3.209,0.152,4.689c1.631,0.661,5.193,1.785,7.766-0.651C141.118,301.573,138.764,297.704,135.6,294.899z"/>
	<path fill="#FFFFFF" d="M285.134,214.874c0.85-2.322,1.687-4.925,2.556-7.607c-0.464-4.791,0.153-7.882,2.163-13.909
		c0,0-3.863-2.163-5.563-4.019c-1.581,1.896-3.733,8.672-4.944,15.144c-0.001,0-0.001,0-0.003,0
		c-2.507,8.117-5.866,31.166-13.699,44.532c-4.556,6.622-16.544,13.203-28.179,15.585c0,0,0.773,0.062,0.926,1.453
		c2.411-0.619,7.295-0.557,9.828,3.151c12.349-1.846,18.698-7.47,23.053-14.382c0.261-0.265,0.527-0.553,0.808-0.885
		c6.8-8.035,10.508-29.517,12.364-36.162C284.792,216.525,285.01,215.582,285.134,214.874z"/>
	<path fill="#FFFFFF" d="M290.934,194.285c0,0-0.773,3.863-2.009,6.953c0.619,5.564,0.464,9.428-2.781,16.073
		c-0.619,4.482-2.009,11.281-3.71,16.536c11.745-12.517,14.527-21.017,12.364-36.625
		C294.799,197.222,292.789,195.521,290.934,194.285z"/>
	<path fill="#FFFFFF" d="M123.453,304.668c0,0,0.491,0.484-0.265,4.116c-0.852,4.096-1.263,8.095-1.263,8.095l5.189,3.12
		c0,0,2.082-6.369,2.629-9.122c0.548-2.752,0.097-10.214,0.097-10.214C126.505,303.423,123.453,304.668,123.453,304.668z"/>
	<path fill="#FFFFFF" d="M55.574,243.583c1.237,1.7,9.272,11.9,13.135,17.926c5.564,4.019,10.046,6.181,20.244,9.119
		c-3.863-2.629-7.573-8.037-11.281-13.137c-9.736-6.026-13.601-12.826-16.845-16.998C58.047,240.647,56.655,241.729,55.574,243.583z
		"/>
	<path fill="#FFFFFF" d="M43.829,232.61c-2.627-2.165-3.554-4.483-6.026-7.418c-2.009,0-3.401,0.309-5.719,2.007
		c-2.318,1.701-1.236,3.864,0.619,4.792C34.556,232.919,39.811,233.691,43.829,232.61z"/>
	<path fill="#FFFFFF" d="M53.509,233.419c-2.234-0.374-10.349,1.274-13.23,1.562c-2.882,0.289-2.498-0.631-3.688-1.801
		c0,0-2.61,1.334-2.972,4.878c-0.361,3.545,3.969,3.899,8.562,4.25c4.593,0.352,9.307-0.477,12.709-1.294
		c3.402-0.818,3.385-2.653,3.107-4.487C57.717,234.693,55.741,233.793,53.509,233.419z"/>
	<path fill="#FFFFFF" d="M38.574,224.266c1.082,1.545,3.246,4.018,6.336,8.034c2.318,0.928,4.945,0.155,7.881,0
		c0,0-11.436-13.289-14.063-16.689c-4.945-3.399-7.418-7.726-9.427-12.364c-4.482-4.482-7.264-9.272-9.426-13.445
		c-0.928,14.527,3.399,24.416,12.981,34.462C32.857,224.266,36.101,224.42,38.574,224.266z"/>
	<path fill="#FFFFFF" d="M29.766,183.93c0,0,1.082-4.945,1.237-7.726c-2.627-10.046,0.155-26.272,0.464-30.907l-0.155-0.773
		c0,0-0.619-0.926-1.7-1.545l-0.773-0.464c0,0-0.926,0.309-2.009,0.619c0.619,2.009,0.619,4.945,0.155,10.663
		c0.464,5.409-1.546,8.346-2.627,15.3C24.82,175.431,26.83,178.677,29.766,183.93z"/>
	<path fill="#FFFFFF" d="M50.845,243.278c0,0-3.932,0.298-5.764,0.577c0.019,2.098-0.766,2.367-0.766,2.367l-0.546-2.357
		c0,0-1.91,2.592-2.951,3.65c0.802,1.566,2.765,4.745,6.303,4.583C50.661,251.935,51.407,247.469,50.845,243.278z"/>
	<path fill="#FFFFFF" d="M35.267,242.732c0,0,0.056,0.687-2.891,2.944c-3.322,2.544-6.246,5.302-6.246,5.302l1.887,5.753
		c0,0,5.739-3.461,7.952-5.185c2.214-1.725,6.75-7.667,6.75-7.667C38.391,243.784,35.267,242.732,35.267,242.732z"/>
	<path fill="#FFFFFF" d="M123.415,288.708c-4.636,0.153-12.518-0.62-17.617-2.009c-4.327-0.464-11.9-2.163-21.634-4.327
		c8.499,8.035,19.162,12.208,31.989,12.828C119.552,293.499,121.407,291.643,123.415,288.708z"/>
	<path fill="#FFFFFF" d="M137.179,290.541c2.04-2.842,0.828-4.22-0.581-5.425c-1.409-1.207-3.492-0.596-5.427,0.58
		c-1.934,1.177-6.999,7.726-8.992,9.829c-1.993,2.103-2.304,1.154-3.969,1.047c0,0-1.104,2.716,0.939,5.636
		c2.043,2.919,5.551,0.355,9.258-2.38C132.114,297.093,135.139,293.384,137.179,290.541z"/>
	<path fill="#FFFFFF" d="M47.693,221.948c-2.318-3.555-9.118-16.536-13.135-29.207c-6.336-5.873-9.736-14.218-10.817-20.863
		c-1.082-6.645-0.309-15.144,2.009-19.162c0-2.009,0.464-6.954-0.309-9.427c-0.926,0.464-3.091,2.627-6.645,3.401
		c0,0-5.614,6.956-5.255,20.708c0.551,21.046,23.953,44.353,32.916,55.325C49.393,225.965,49.701,225.503,47.693,221.948z"/>
</g>
</svg>
