<?xml version="1.0" encoding="utf-8"?>
<!-- Generator: Adobe Illustrator 17.0.0, SVG Export Plug-In . SVG Version: 6.00 Build 0)  -->
<!DOCTYPE svg PUBLIC "-//W3C//DTD SVG 1.1//EN" "http://www.w3.org/Graphics/SVG/1.1/DTD/svg11.dtd">
<svg version="1.1" id="Layer_1" xmlns="http://www.w3.org/2000/svg" xmlns:xlink="http://www.w3.org/1999/xlink" x="0px" y="0px"
	 width="320px" height="319.024px" viewBox="0 0 320 319.024" enable-background="new 0 0 320 319.024" xml:space="preserve">
<g>
	<path fill="#FFFFFF" d="M135.372,13.355c22.68,7.655,36.854,6.521,49.044,6.521c-2.834-1.986-6.803-3.969-11.338-6.237
		c-9.074,0-18.427-1.134-26.648-3.969C146.43,9.67,142.176,10.521,135.372,13.355z"/>
	<path fill="#FFFFFF" d="M60.53,52.76c-5.103,4.253-6.237,6.521-18.711,12.758c-1.702,2.55-2.836,4.535-3.685,8.505
		c16.441-6.237,27.299-17.24,33.452-22.396c10.49-8.789,16.443-24.38,29.483-32.317c8.221-5.387,13.042-6.805,17.293-7.089
		l7.939-6.237c0,0-10.488-2.268-27.783,6.803C84.06,20.442,74.422,44.54,60.53,52.76z"/>
	<path fill="#FFFFFF" d="M21.22,124.105c1.702-2.268,6.803-7.559,10.018-19.279C34.451,93.109,31.615,77.99,42.01,60.79
		c6.993-10.961,19.465-14.553,27.404-17.198c1.89-2.268,3.024-5.103,6.803-10.206C62.609,37.356,45.032,44.538,35.962,58.9
		c-9.071,14.364-10.772,49.139-15.307,53.108C20.652,114.846,20.843,117.868,21.22,124.105z"/>
	<path fill="#FFFFFF" d="M86.612,37.169c2.552,0.282,10.631-1.959,19.277-6.521c10.206-5.387,27.217-24.664,48.194-24.664
		c15.633,0,38.27,17.577,53.295,22.678c15.027,5.103,25.232,5.387,31.753,5.387c0,0-3.331-4.11-6.521-6.45
		c-11.287-0.412-21.712-3.171-28.717-7.102c-16.641,0.795-16.357-5.442-16.357-7.994c0,0-18.692-13.215-37.706-12.474
		c-21.828,0.852-40.537,25.8-58.398,30.335C91.431,30.364,88.03,35.183,86.612,37.169z"/>
	<path fill="#FFFFFF" d="M10.257,176.457c1.702,6.993,3.969,10.018,5.86,12.664c2.268-6.237,3.213-21.735,3.969-37.61
		c1.89-19.845-6.235-50.084,5.48-64.635c0-2.268,1.511-7.748,2.645-13.419c-3.022,2.647-13.985,10.395-16.82,29.294
		C8.556,121.651,18.007,156.423,10.257,176.457z"/>
	<path fill="#FFFFFF" d="M200.009,19.024c7.937-0.284,22.169-1.404,31.183,4.535c12.474,8.221,25.232,35.152,30.335,41.389
		s8.93,10.347,16.582,16.018c-1.416-2.836-2.411-6.662-3.826-10.915c0,0-2.742-0.699-7.939-9.354
		c-5.953-9.922-17.575-30.901-29.199-40.823c-11.624-9.922-28.347-8.505-46.776-7.089C189.519,19.024,196.607,19.024,200.009,19.024
		z"/>
	<path fill="#FFFFFF" d="M305.09,109.741c6.993,18.522-4.158,38.176-5.671,49.139c-1.511,10.963-0.377,18.899,0.568,26.459
		c1.134-2.456,3.59-7.18,4.914-9.071c0,0-1.134-4.914,0-14.364c0.568-8.127,15.071-33.734,5.456-57.123
		c-5.456-12.047-12.117-19.063-21.828-25.584c0.566,2.836,2.008,7.678,2.954,10.136C291.482,89.33,298.098,91.22,305.09,109.741z"/>
	<path fill="#FFFFFF" d="M267.906,50.918c7.287,9.332,14.599,42.382,18.568,50.604c3.969,8.221,10.915,18.072,19.416,25.727
		c0.072-2.127,0.143-5.317-0.139-9.286c0,0-3.403-1.984-10.772-14.174c-7.371-12.19-11.624-47.06-24.664-60.1
		c-4.819-5.103-13.89-12.474-21.544-14.458c2.342,2.601,4.825,6.572,7.016,10.277C255.785,39.507,261.524,42.75,267.906,50.918z"/>
	<path fill="#FFFFFF" d="M315.105,129.585c-0.377,3.213-1.511,8.505-2.079,11.34c0,0,1.511,9.638,0.568,15.875
		c-1.513,17.577-18.124,34.914-21.167,45.547c-2.984,10.416-5.48,22.869-5.86,34.965c1.513-1.322,5.292-4.724,6.993-7.561
		c0.755-7.371,0.755-12.851,4.914-24.757c4.158-11.906,20.601-30.24,21.356-48.76C320.776,143.95,317.562,135.068,315.105,129.585z"
		/>
	<path fill="#FFFFFF" d="M266.344,268.309c-11.338,7.369-32.318,10.016-45.547,16.064c-11.338,5.86-20.599,13.987-28.917,20.98
		c3.403,3.967,7.561,1.134,10.019,0.189c2.077-3.024,9.638-7.559,19.654-13.228c13.985-8.127,38.176-10.206,51.971-21.546
		c6.993-5.671,12.664-13.042,15.687-20.978c-3.213,2.645-6.803,5.292-10.395,6.614C277.495,259.046,273.337,263.583,266.344,268.309
		z"/>
	<path fill="#FFFFFF" d="M204.167,305.918c-6.803,4.347-11.338,2.079-14.93-0.377c-8.695-0.379-23.057-4.914-35.154-5.858
		c-12.095-0.945-41.389,3.213-51.784,1.702c-4.735-0.69-10.204-3.592-13.04-5.858c-1.702,0-3.022-0.568-11.717-1.892
		c2.268,2.268,10.584,11.529,22.301,13.61c11.717,2.079,43.849-1.633,53.297-1.323c17.198,0.568,38.935,11.717,58.964,3.779
		c15.569-6.166,24.948-17.198,28.917-23.057c-3.779,0.945-6.803,2.266-11.529,4.158
		C224.198,296.845,214.182,303.084,204.167,305.918z"/>
	<path fill="#FFFFFF" d="M37.852,233.344c-1.702-17.388-28.161-41.58-31.373-63.124c-0.945-7.748,1.511-18.333,4.724-24.57
		c0-2.834-0.945-6.993-0.945-14.174C6.856,136.2-0.703,154.345,0.053,171.165c0.755,16.82,27.593,52.161,30.24,56.131
		C32.37,229.186,34.828,231.076,37.852,233.344z"/>
	<path fill="#FFFFFF" d="M301.875,202.538c0,0-0.566,19.088-6.233,28.915c-5.671,9.829-28.349,21.735-36.288,27.215
		c-7.939,5.48-12.283,9.64-17.956,17.577c5.292-1.511,7.748-2.456,10.963-3.213c2.586-3.158,4.63-5.496,11.02-9.705
		c9.77-5.604,33.582-18.835,39.63-32.063c3.215-6.803,5.48-23.057,4.347-38.744C305.276,194.977,303.767,198.946,301.875,202.538z"
		/>
	<path fill="#FFFFFF" d="M55.427,262.259c4.347,5.105,5.48,8.695,9.259,14.932c3.781,2.268,6.616,3.779,11.34,5.103
		c-5.671-4.724-13.608-22.491-21.356-29.862c-7.748-7.369-29.296-24.569-33.83-33.073c-4.724-6.046-6.992-11.906-8.316-16.441
		c-1.89-2.079-3.59-5.671-6.616-10.018c0.568,3.969,0.379,16.066,8.505,29.483C22.543,235.8,42.387,247.14,55.427,262.259z"/>
	<path fill="#FFFFFF" d="M146.9,307.619c-3.781-0.191-8.505,0.568-12.285,0.568c3.59,1.89,18.522,11.717,31.373,10.772
		s18.522-3.215,22.492-5.292c0,0-7.939-0.945-12.664-2.079C165.424,314.045,157.675,312.155,146.9,307.619z"/>
	<path fill="#FFFFFF" d="M127.624,299.492c0,0-8.127-6.426-17.388-8.505c-15.309-3.592-35.343-5.103-46.683-11.34
		c-6.614-3.779-16.064-18.332-19.088-26.648c-1.702-1.888-3.969-3.779-7.371-6.237c2.835,8.695,6.803,25.893,24.38,37.61
		c15.121,10.772,47.439,9.64,55.565,15.498C119.496,299.869,122.143,299.492,127.624,299.492z"/>
</g>
</svg>
