<?xml version="1.0" encoding="utf-8"?>
<!-- Generator: Adobe Illustrator 17.0.0, SVG Export Plug-In . SVG Version: 6.00 Build 0)  -->
<!DOCTYPE svg PUBLIC "-//W3C//DTD SVG 1.1//EN" "http://www.w3.org/Graphics/SVG/1.1/DTD/svg11.dtd">
<svg version="1.1" id="Layer_1" xmlns="http://www.w3.org/2000/svg" xmlns:xlink="http://www.w3.org/1999/xlink" x="0px" y="0px"
	 width="320px" height="319.995px" viewBox="0 0 320 319.995" enable-background="new 0 0 320 319.995" xml:space="preserve">
<g>
	<path fill="#FFFFFF" d="M120.681,120.644l-7.255-29.736c-8.762,5.923-16.333,13.473-22.29,22.211L120.681,120.644z"/>
	<path fill="#FFFFFF" d="M111.683,236.22c-11.101-7.057-20.551-16.467-27.654-27.533l-32.171,8.191
		c11.628,22.067,29.803,40.13,51.949,51.63L111.683,236.22z"/>
	<path fill="#FFFFFF" d="M113.426,229.088l7.255-29.736l-29.545,7.524C97.093,215.615,104.662,223.163,113.426,229.088z"/>
	<path fill="#FFFFFF" d="M111.683,83.776l-7.878-32.287c-22.146,11.499-40.32,29.562-51.949,51.63l32.171,8.193
		C91.134,100.243,100.582,90.834,111.683,83.776z"/>
	<path fill="#FFFFFF" d="M285.59,159.998c-0.556-23.889,8.332-47.222,8.332-47.222l-83.89,20.555v2.092
		c9.226-2.229,73.487-17.759,79.029-19.176c-1.806,3.61-2.918,9.722-2.918,9.722l-76.111,14.124v10.882
		c8.782-1.046,67.064-7.986,73.611-8.757c-1.665,6.667-1.387,17.778-1.387,17.778h-72.224v10.624
		c7.913,0.655,69.824,5.781,73.333,6.041c0.834,8.195,2.499,15.416,2.499,15.416l-75.833-13.688v8.271l83.89,20.555
		C293.922,207.22,285.034,183.888,285.59,159.998z"/>
	<path fill="#FFFFFF" d="M206.644,90.91l-7.255,29.736l29.544-7.524C222.975,104.383,215.407,96.831,206.644,90.91z"/>
	<path fill="#FFFFFF" d="M208.385,83.776c11.101,7.057,20.549,16.467,27.654,27.534l32.169-8.193
		c-11.625-22.067-29.801-40.13-51.947-51.63L208.385,83.776z"/>
	<path fill="#FFFFFF" d="M310.832,211.143c-0.569,0-1.12,0.07-1.66,0.168c-4.895-11.683-10.806-30.157-10.806-51.312
		c0-21.432,6.067-40.125,11-51.779c0.482,0.078,0.965,0.147,1.466,0.147c5.063,0,9.166-4.105,9.166-9.166
		c0-5.062-4.103-9.166-9.166-9.166c-4.942,0-8.942,3.92-9.131,8.817l-105.567,25.05l25.071-105.658
		c4.638-0.454,8.274-4.32,8.274-9.076c0-5.063-4.103-9.166-9.166-9.166s-9.168,4.105-9.168,9.166c0,0.584,0.068,1.153,0.173,1.707
		c-11.687,4.894-30.147,10.793-51.284,10.793c-21.454,0-40.163-6.079-51.816-11.014c0.079-0.487,0.15-0.976,0.15-1.486
		c0-5.063-4.105-9.166-9.166-9.166c-5.062,0-9.166,4.105-9.166,9.166c0,4.952,3.933,8.959,8.843,9.134l25.058,105.6L18.247,98.82
		c-0.441-4.649-4.313-8.301-9.081-8.301C4.105,90.519,0,94.622,0,99.685c0,5.063,4.105,9.166,9.166,9.166
		c0.592,0,1.167-0.068,1.727-0.175c4.897,11.683,10.809,30.161,10.809,51.32c0,21.436-6.069,40.131-11.001,51.785
		c-0.501-0.086-1.009-0.155-1.534-0.155c-5.062,0-9.166,4.105-9.166,9.168s4.105,9.166,9.166,9.166c4.937,0,8.933-3.911,9.129-8.798
		l105.64-25.067l-25.069,105.65c-4.672,0.422-8.345,4.303-8.345,9.084c0,5.063,4.105,9.166,9.166,9.166
		c5.063,0,9.166-4.103,9.166-9.166c0-0.574-0.068-1.133-0.168-1.68c11.682-4.898,30.173-10.82,51.351-10.82
		c21.414,0,40.092,6.056,51.75,10.987c-0.084,0.496-0.154,0.996-0.154,1.515c0,5.063,4.105,9.166,9.168,9.166
		s9.166-4.103,9.166-9.166c0-4.927-3.896-8.916-8.773-9.127l-25.058-105.606l105.617,25.061c0.435,4.659,4.31,8.319,9.081,8.319
		c5.063,0,9.166-4.103,9.166-9.166S315.895,211.143,310.832,211.143z M115.589,159.998v30.554l-97.777,23.334
		c0,0,10.555-22.778,10.555-53.889s-10.555-53.889-10.555-53.889l97.777,23.333V159.998z M213.923,302.221
		c0,0-22.778-10.555-53.889-10.555c-31.112,0-53.889,10.555-53.889,10.555l23.333-97.777h30.556h30.554L213.923,302.221z
		 M190.589,115.554h-30.554h-30.556l-23.333-97.777c0,0,22.777,10.555,53.889,10.555c31.11,0,53.889-10.555,53.889-10.555
		L190.589,115.554z M204.479,190.554V160v-30.557l97.777-23.333c0,0-10.555,22.778-10.555,53.889s10.555,53.889,10.555,53.889
		L204.479,190.554z"/>
	<path fill="#FFFFFF" d="M160.035,34.443c-23.889,0.556-47.222-8.334-47.222-8.334l20.555,83.888h2.092
		c-2.229-9.224-17.759-73.485-19.176-79.027c3.612,1.806,9.722,2.916,9.722,2.916l14.126,76.111h10.882
		c-1.046-8.78-7.986-67.063-8.757-73.61c6.667,1.667,17.778,1.389,17.778,1.389v72.221h10.624
		c0.655-7.912,5.781-69.822,6.041-73.332c8.195-0.834,15.416-2.501,15.416-2.501l-13.688,75.833h8.271l20.555-83.888
		C207.256,26.109,183.924,34.999,160.035,34.443z"/>
	<path fill="#FFFFFF" d="M178.43,209.999l13.688,75.833c0,0-7.221-1.667-15.416-2.501c-0.26-3.51-5.387-65.422-6.041-73.332h-10.624
		v72.223c0,0-11.111-0.278-17.778,1.387c0.771-6.547,7.711-64.832,8.757-73.61h-10.882l-14.126,76.111c0,0-6.111,1.111-9.722,2.916
		c1.418-5.542,16.947-69.803,19.176-79.027h-2.092l-20.555,83.888c0,0,23.334-8.888,47.222-8.332
		c23.889-0.556,47.222,8.332,47.222,8.332l-20.557-83.888L178.43,209.999L178.43,209.999z"/>
	<path fill="#FFFFFF" d="M208.385,236.22l7.878,32.289c22.146-11.499,40.32-29.562,51.947-51.63l-32.169-8.191
		C228.934,219.753,219.486,229.162,208.385,236.22z"/>
	<path fill="#FFFFFF" d="M199.387,199.352l7.255,29.736c8.764-5.923,16.333-13.473,22.288-22.211L199.387,199.352z"/>
	<path fill="#FFFFFF" d="M34.479,159.998c0.556,23.889-8.334,47.222-8.334,47.222l83.888-20.555v-8.271L34.2,192.082
		c0,0,1.667-7.221,2.499-15.416c3.51-0.26,65.422-5.387,73.333-6.041V160H37.813c0,0,0.278-11.111-1.389-17.778
		c6.547,0.771,64.832,7.711,73.611,8.757v-10.883l-76.111-14.124c0,0-1.112-6.111-2.916-9.722
		c5.542,1.418,69.803,16.947,79.027,19.176v-2.092l-83.89-20.557C26.146,112.776,35.034,136.109,34.479,159.998z"/>
</g>
</svg>
