<?xml version="1.0" encoding="utf-8"?>
<!-- Generator: Adobe Illustrator 17.0.0, SVG Export Plug-In . SVG Version: 6.00 Build 0)  -->
<!DOCTYPE svg PUBLIC "-//W3C//DTD SVG 1.1//EN" "http://www.w3.org/Graphics/SVG/1.1/DTD/svg11.dtd">
<svg version="1.1" id="Lager_1" xmlns="http://www.w3.org/2000/svg" xmlns:xlink="http://www.w3.org/1999/xlink" x="0px" y="0px"
	 width="268.377px" height="320px" viewBox="0 0 268.377 320" enable-background="new 0 0 268.377 320" xml:space="preserve">
<g>
	<path fill="#FFFFFF" d="M104.777,176.254l-63.402-39.758c-7.981,14.67-11.697,31.409-11.075,49.274
		c-0.621,17.864,3.095,34.604,11.075,49.274l63.409-39.762c-0.984-3.018-1.653-6.179-1.653-9.525
		C103.131,182.419,103.798,179.266,104.777,176.254z"/>
	<circle fill="#FFFFFF" cx="134.189" cy="185.868" r="20.647"/>
	<path fill="#FFFFFF" d="M134.189,216.73c-3.751,0-7.299-0.767-10.627-1.981L84.83,278.656
		c14.362,8.084,30.751,11.848,48.241,11.218c17.49,0.63,33.878-3.134,48.241-11.218l-38.378-63.324
		C140.142,216.153,137.247,216.73,134.189,216.73z"/>
	<path fill="#FFFFFF" d="M169.687,53.106l17.059-25.92C189.355,24.165,192.337,0,177.8,0c-23.737,0-72.112,0-89.459,0
		c-14.537,0-11.555,24.165-8.946,27.186L96.78,53.603C40.894,70.022,0,122.165,0,184.071C0,259.142,60.078,320,134.189,320
		c74.11,0,134.188-60.857,134.188-135.929C268.377,121.468,226.542,68.891,169.687,53.106z M92.814,22.655
		c-4.1-6.041-0.373-9.439,4.473-9.062h71.567c4.846-0.378,8.573,3.021,4.473,9.062c-2.224,3.276-9.919,16.309-16.505,27.566
		c-7.373-1.272-14.903-2.08-22.633-2.08c-8.444,0-16.673,0.886-24.684,2.397C102.878,39.21,95.058,25.962,92.814,22.655z
		 M150.962,104.212v22.655l-8.946,18.124h-17.892l-8.946-18.124v-22.655l8.946-4.53V90.62l0.064-15.781h17.742l0.086,15.781v9.061
		L150.962,104.212z M228.68,254.301l-71.244-48.198c-1.373,1.559-2.879,2.973-4.538,4.231l47.267,72.286
		c-17.032,14.871-42.228,21.517-67.095,20.95c-24.867,0.567-50.063-6.079-67.094-20.95l48.047-73.485
		c-1.126-0.967-2.173-1.997-3.15-3.114L37.46,254.3c-14.68-17.396-21.241-43.132-20.681-68.531
		c-0.56-25.399,6.001-51.135,20.681-68.531l72.804,48.988c0.901-1.095,1.826-2.153,2.867-3.116L65.975,88.919
		c11.162-9.745,25.852-15.894,41.637-18.859l7.566,11.497h4.473v0.819c-12.442,1.201-24.223,4.544-34.822,10.509l38.718,63.885
		c3.333-1.218,6.886-1.986,10.642-1.986c3.063,0,5.963,0.579,8.758,1.403l38.365-63.301c-10.598-5.965-22.38-9.308-34.822-10.509
		v-0.819h4.473l7.566-11.497c15.784,2.965,30.474,9.113,41.636,18.859l-47.088,72.407c1.594,1.227,3.049,2.594,4.375,4.102
		l71.228-48.19c14.681,17.396,21.242,43.132,20.682,68.531C249.921,211.169,243.36,236.905,228.68,254.301z"/>
	<path fill="#FFFFFF" d="M224.766,136.495l-61.531,38.585c1.236,3.341,2.011,6.907,2.011,10.675c0,3.778-0.777,7.352-2.018,10.699
		l61.538,38.589c7.98-14.67,11.697-31.409,11.075-49.274C236.462,167.904,232.746,151.165,224.766,136.495z"/>
</g>
</svg>
