<?xml version="1.0" encoding="utf-8"?>
<!-- Generator: Adobe Illustrator 17.0.0, SVG Export Plug-In . SVG Version: 6.00 Build 0)  -->
<!DOCTYPE svg PUBLIC "-//W3C//DTD SVG 1.1//EN" "http://www.w3.org/Graphics/SVG/1.1/DTD/svg11.dtd">
<svg version="1.1" id="Layer_1" xmlns="http://www.w3.org/2000/svg" xmlns:xlink="http://www.w3.org/1999/xlink" x="0px" y="0px"
	 width="142.415px" height="320px" viewBox="0 0 142.415 320" enable-background="new 0 0 142.415 320" xml:space="preserve">
<g>
	<path fill="#FFFFFF" d="M93.664,22.35C93.679,9.993,83.728-0.015,71.44,0S49.177,10.044,49.163,22.401l-0.029,26.264h44.501
		L93.664,22.35z"/>
	<path fill="#FFFFFF" d="M142.402,208.02l0.013-11.189l-48.95,0.056l0.157-136.275H49.12l-0.157,136.327l-48.95,0.056L0,208.183
		l48.937,11.132l-0.042,38.039l-17.813,11.209l17.766,31.307l-0.016,14.542l6.67,5.588l28.927-0.034l9.009-5.604l0.016-14.725
		l17.734-31.167l-17.685-11.106l0.044-38.103L142.402,208.02z M75.546,299.841l-11.125,0.013l0.049-42.516l11.124-0.013
		L75.546,299.841z M75.639,219.286l-11.125,0.011l0.026-22.375l11.125-0.013L75.639,219.286z"/>
</g>
</svg>
