<?xml version="1.0" encoding="utf-8"?>
<!-- Generator: Adobe Illustrator 17.0.0, SVG Export Plug-In . SVG Version: 6.00 Build 0)  -->
<!DOCTYPE svg PUBLIC "-//W3C//DTD SVG 1.1//EN" "http://www.w3.org/Graphics/SVG/1.1/DTD/svg11.dtd">
<svg version="1.1" id="Lager_1" xmlns="http://www.w3.org/2000/svg" xmlns:xlink="http://www.w3.org/1999/xlink" x="0px" y="0px"
	 width="320px" height="264.069px" viewBox="0 0 320 264.069" enable-background="new 0 0 320 264.069" xml:space="preserve">
<path fill="#FFFFFF" d="M319.235,195.423c2.62-5.492-2.327-11.641-2.327-11.641l-32.986-40.994l-10.935,0.426l-25.033,1.549
	l-4.27,3.442l-44.531-55.342l8.539-6.884c2.358-1.901,2.793-5.277,0.971-7.541l-8.247-10.248c-1.822-2.264-5.21-2.559-7.568-0.657
	l-8.539,6.884L134.83,12.925c1.179-0.951,1.396-2.639,0.485-3.771l-6.597-8.199c-0.911-1.132-2.605-1.279-3.784-0.329L99.316,21.278
	c-1.179,0.95-1.396,2.638-0.486,3.771l6.597,8.199c0.911,1.132,2.605,1.279,3.784,0.329l14.844,18.447l0,0l-10.674,8.605
	c-1.179,0.951-1.396,2.639-0.486,3.771l3.299,4.099c0.238,0.296,0.532,0.521,0.854,0.68c-2.109,4.833-5.648,15.231-4.931,16.124
	l2.642,3.284l-4.846,6.692c-4.413-0.514-8.363,0.712-10.541,3.719c-2.827,3.903-1.868,9.706,1.901,14.715l-6.779,9.361l-3.089-2.236
	c-1.706-1.235-3.78-1.282-4.633-0.105l-15.43,21.307c-0.852,1.177-0.16,3.132,1.546,4.367l3.089,2.236L0.365,253.058
	c-0.852,1.177-0.16,3.132,1.546,4.367l6.179,4.473c1.706,1.235,3.78,1.282,4.632,0.106l75.613-104.415l3.089,2.236
	c1.706,1.235,3.78,1.282,4.632,0.105l15.431-21.309c0.852-1.177,0.16-3.132-1.546-4.367l-3.089-2.236l7.031-9.709
	c5.477,1.478,10.672,0.436,13.294-3.186c2.623-3.622,1.991-8.88-1.123-13.622l1.097-1.515l1.459,1.813
	c0.82,1.018,10.528,3.242,16.565,4.887l1.142,1.419c-0.482,0.919-0.426,2.048,0.243,2.879l4.948,6.149
	c0.669,0.831,1.759,1.126,2.759,0.851l27.154,33.746c0.546,0.679,1.374,0.995,2.204,0.942l12.901,16.033
	c0.911,1.132,2.605,1.279,3.784,0.329l12.809-10.326l4.948,6.149l0,0c-1.179,0.951-1.396,2.639-0.486,3.771l4.948,6.149
	c0.911,1.132,2.605,1.279,3.784,0.329l0,0l56.076,69.69c1.822,2.264,5.21,2.558,7.568,0.657l2.135-1.721l5.035,6.257
	c-0.278,2.357,0.33,4.784,1.901,6.737c3.188,3.962,9.118,4.477,13.245,1.151c4.127-3.327,4.887-9.235,1.699-13.197
	c-1.572-1.953-3.811-3.065-6.171-3.295l-5.035-6.257l4.27-3.442c2.358-1.901,2.793-5.277,0.971-7.541l-1.649-2.05l0,0
	C306.358,226.093,316.614,200.914,319.235,195.423z M156.072,100.56c0-0.001-0.001-0.001-0.001-0.002L144.526,86.21l4.27-3.442
	l13.194,16.397l-4.27,3.442L156.072,100.56z M140.549,72.521l-4.27,3.442l-9.896-12.298l4.27-3.442L140.549,72.521z
	 M187.407,139.503l-21.441-26.646l4.27-3.442l21.441,26.646L187.407,139.503z M251.931,158.453l4.27-3.442l25.779,2.859
	l28.038,34.845l-10.257,25.179L251.931,158.453z"/>
</svg>
