<?xml version="1.0" encoding="utf-8"?>
<!-- Generator: Adobe Illustrator 17.0.0, SVG Export Plug-In . SVG Version: 6.00 Build 0)  -->
<!DOCTYPE svg PUBLIC "-//W3C//DTD SVG 1.1//EN" "http://www.w3.org/Graphics/SVG/1.1/DTD/svg11.dtd">
<svg version="1.1" id="Lager_1" xmlns="http://www.w3.org/2000/svg" xmlns:xlink="http://www.w3.org/1999/xlink" x="0px" y="0px"
	 width="320px" height="310.132px" viewBox="0 0 320 310.132" enable-background="new 0 0 320 310.132" xml:space="preserve">
<g>
	<path fill="#FFFFFF" d="M51.089,232.216l11.468-12.083c-27.819-26.142-45.219-63.244-45.219-104.431
		c0-40.41,16.751-76.888,43.656-102.941L48.869,0C18.755,29.094,0,69.87,0,115.05C0,161.333,19.675,203.002,51.089,232.216z"/>
	<path fill="#FFFFFF" d="M303.966,115.702c0,41.571-17.717,78.989-45.992,105.168l10.857,11.422
		C300.293,203.074,320,161.372,320,115.05c0-45.145-18.726-85.893-48.799-114.983l-11.486,12.128
		C286.967,38.284,303.966,74.997,303.966,115.702z"/>
	<path fill="#FFFFFF" d="M87.265,194.1l9.538-10.05c-18.671-17.107-30.384-41.686-30.384-69.005c0-26.227,10.804-49.92,28.187-66.91
		l-9.547-10.047C65.02,57.604,52.557,84.861,52.557,115.042C52.557,146.32,65.933,174.466,87.265,194.1z"/>
	<path fill="#FFFFFF" d="M223.073,184.155l9.544,10.04c21.391-19.638,34.807-47.825,34.807-79.152
		c0-30.11-12.403-57.312-32.359-76.818l-9.528,10.061c17.293,16.978,28.03,40.61,28.03,66.759
		C253.567,142.419,241.809,167.044,223.073,184.155z"/>
	<rect x="127.089" y="117.264" fill="#FFFFFF" width="70.149" height="83.26"/>
	<path fill="#FFFFFF" d="M135.881,108.544h52.525V96.706c0-5.042,0.443-10.226-4.419-10.226h-4.345v-4.267h-34.997v4.267h-4.344
		c-4.863,0-4.42,5.184-4.42,10.226V108.544z"/>
	<polygon fill="#FFFFFF" points="179.7,209.293 144.626,209.293 144.626,209.293 144.626,227.594 13.097,299.083 28.788,310.132 
		144.626,271.749 144.626,296.979 179.7,296.979 179.7,271.75 295.538,310.133 311.229,299.084 179.7,227.594 	"/>
</g>
</svg>
