<?xml version="1.0" encoding="utf-8"?>
<!-- Generator: Adobe Illustrator 17.0.0, SVG Export Plug-In . SVG Version: 6.00 Build 0)  -->
<!DOCTYPE svg PUBLIC "-//W3C//DTD SVG 1.1//EN" "http://www.w3.org/Graphics/SVG/1.1/DTD/svg11.dtd">
<svg version="1.1" id="Layer_1" xmlns="http://www.w3.org/2000/svg" xmlns:xlink="http://www.w3.org/1999/xlink" x="0px" y="0px"
	 width="227.652px" height="320px" viewBox="0 0 227.652 320" enable-background="new 0 0 227.652 320" xml:space="preserve">
<path fill="#FFFFFF" d="M70.857,142.174c11.576-8.835,26.203-13.256,43.88-13.256h41.152c21.626,0,39,6.554,52.108,19.655
	c13.095,13.108,19.655,30.481,19.655,52.121v47.544c0,21.627-6.561,39.013-19.655,52.107C194.89,313.452,177.516,320,155.889,320
	H71.31c-21.335,0-38.554-6.548-51.655-19.655C6.547,287.25,0,269.864,0,248.237V71.775c0-21.639,6.547-39.006,19.655-52.114
	C32.756,6.56,49.975,0,71.31,0h84.579c21.626,0,39,6.56,52.108,19.661c13.095,13.108,19.655,30.475,19.655,52.114v28.8h-70.858
	V75.434c0-9.146-4.576-13.715-13.703-13.715H84.566c-9.139,0-13.709,4.57-13.709,13.715V142.174z M143.092,258.281
	c9.127,0,13.703-4.563,13.703-13.715v-40.228c0-9.14-4.576-13.716-13.703-13.716H84.566c-9.139,0-13.709,4.576-13.709,13.716v40.228
	c0,9.152,4.57,13.715,13.709,13.715H143.092z"/>
</svg>
