<?xml version="1.0" encoding="utf-8"?>
<!-- Generator: Adobe Illustrator 17.0.0, SVG Export Plug-In . SVG Version: 6.00 Build 0)  -->
<!DOCTYPE svg PUBLIC "-//W3C//DTD SVG 1.1//EN" "http://www.w3.org/Graphics/SVG/1.1/DTD/svg11.dtd">
<svg version="1.1" id="Layer_1" xmlns="http://www.w3.org/2000/svg" xmlns:xlink="http://www.w3.org/1999/xlink" x="0px" y="0px"
	 width="227.658px" height="320px" viewBox="0 0 227.658 320" enable-background="new 0 0 227.658 320" xml:space="preserve">
<path fill="#FFFFFF" d="M93.712,258.281h133.946V320H0v-61.719l152.684-135.762c2.741-2.437,4.117-6.095,4.117-10.975v-36.11
	c0-9.146-4.576-13.715-13.715-13.715h-58.52c-9.139,0-13.709,4.57-13.709,13.715v47.997H0V71.775
	c0-21.639,6.547-39.006,19.655-52.114C32.756,6.56,50.124,0,71.769,0h84.573c21.329,0,38.554,6.56,51.648,19.661
	c13.108,13.108,19.668,30.475,19.668,52.114v34.282c0,12.804-2.455,23.927-7.316,33.37c-4.886,9.456-11.284,17.684-19.196,24.69
	L93.712,258.281z"/>
</svg>
