<?xml version="1.0" encoding="utf-8"?>
<!-- Generator: Adobe Illustrator 17.0.0, SVG Export Plug-In . SVG Version: 6.00 Build 0)  -->
<!DOCTYPE svg PUBLIC "-//W3C//DTD SVG 1.1//EN" "http://www.w3.org/Graphics/SVG/1.1/DTD/svg11.dtd">
<svg version="1.1" id="Layer_1" xmlns="http://www.w3.org/2000/svg" xmlns:xlink="http://www.w3.org/1999/xlink" x="0px" y="0px"
	 width="236.798px" height="320px" viewBox="0 0 236.798 320" enable-background="new 0 0 236.798 320" xml:space="preserve">
<path fill="#FFFFFF" d="M236.798,248.237c0,21.627-6.561,39.013-19.655,52.108C204.035,313.453,186.662,320,165.022,320H71.311
	c-21.336,0-38.554-6.547-51.656-19.654C6.547,287.25,0,269.864,0,248.237V71.775c0-21.64,6.547-39.006,19.655-52.114
	C32.757,6.56,49.975,0,71.311,0h93.712c21.64,0,39.013,6.56,52.12,19.662c13.095,13.107,19.655,30.474,19.655,52.114
	L236.798,248.237L236.798,248.237z M165.939,75.434c0-9.146-4.575-13.715-13.715-13.715H84.566c-9.139,0-13.709,4.57-13.709,13.715
	v169.134c0,9.151,4.57,13.715,13.709,13.715h67.658c9.14,0,13.715-4.563,13.715-13.715V75.434z"/>
</svg>
