<?xml version="1.0" encoding="utf-8"?>
<!-- Generator: Adobe Illustrator 17.0.0, SVG Export Plug-In . SVG Version: 6.00 Build 0)  -->
<!DOCTYPE svg PUBLIC "-//W3C//DTD SVG 1.1//EN" "http://www.w3.org/Graphics/SVG/1.1/DTD/svg11.dtd">
<svg version="1.1" id="Layer_1" xmlns="http://www.w3.org/2000/svg" xmlns:xlink="http://www.w3.org/1999/xlink" x="0px" y="0px"
	 width="236.823px" height="320px" viewBox="0 0 236.823 320" enable-background="new 0 0 236.823 320" xml:space="preserve">
<path fill="#FFFFFF" d="M71.771,320c-21.667,0-39.011-6.563-52.136-19.636C6.563,287.239,0,269.844,0,248.229V221.25
	c0-13.698,2.813-25.833,8.438-36.354c5.677-10.469,13.49-18.802,23.542-24.896c-10.052-6.094-17.864-14.375-23.542-24.896
	C2.813,124.583,0,112.292,0,98.281v-26.51C0,50.156,6.563,32.76,19.635,19.635C32.76,6.563,50.104,0,71.771,0H165
	c21.667,0,39.011,6.563,52.136,19.635c13.125,13.125,19.688,30.521,19.688,52.136v26.51c0,14.01-2.865,26.302-8.49,36.823
	S214.845,153.906,204.793,160c10.052,6.094,17.916,14.427,23.541,24.896c5.625,10.521,8.49,22.656,8.49,36.354v26.979
	c0,21.614-6.563,39.01-19.688,52.135C204.011,313.438,186.667,320,165,320H71.771z M84.583,61.719
	c-9.167,0-13.75,4.583-13.75,13.698v39.792c0,9.114,4.583,13.698,13.75,13.698h67.656c9.115,0,13.698-4.583,13.698-13.698V75.417
	c0-9.114-4.583-13.698-13.698-13.698H84.583z M84.583,190.625c-9.167,0-13.75,4.583-13.75,13.698v40.26
	c0,9.115,4.583,13.698,13.75,13.698h67.656c9.115,0,13.698-4.583,13.698-13.698v-40.26c0-9.115-4.583-13.698-13.698-13.698
	L84.583,190.625L84.583,190.625z"/>
</svg>
