<?xml version="1.0" encoding="utf-8"?>
<!-- Generator: Adobe Illustrator 17.0.0, SVG Export Plug-In . SVG Version: 6.00 Build 0)  -->
<!DOCTYPE svg PUBLIC "-//W3C//DTD SVG 1.1//EN" "http://www.w3.org/Graphics/SVG/1.1/DTD/svg11.dtd">
<svg version="1.1" id="Layer_1" xmlns="http://www.w3.org/2000/svg" xmlns:xlink="http://www.w3.org/1999/xlink" x="0px" y="0px"
	 width="227.652px" height="320px" viewBox="0 0 227.652 320" enable-background="new 0 0 227.652 320" xml:space="preserve">
<path fill="#FFFFFF" d="M0,0h218.513v61.718H70.857v62.171c11.576-8.835,26.203-13.256,43.88-13.256h41.152
	c21.626,0,39,6.554,52.108,19.655c13.095,13.107,19.655,30.475,19.655,52.114v65.835c0,21.627-6.561,39.013-19.655,52.107
	C194.89,313.452,177.516,320,155.889,320h-84.12c-21.646,0-39.013-6.548-52.114-19.655C6.547,287.25,0,269.864,0,248.237v-24.231
	h70.857v20.561c0,9.152,4.57,13.715,13.709,13.715h58.525c9.127,0,13.703-4.563,13.703-13.715v-58.506
	c0-9.152-4.576-13.716-13.703-13.716H84.566c-8.532,0-13.107,3.969-13.709,11.88v13.269H0V0z"/>
</svg>
