<?xml version="1.0" encoding="utf-8"?>
<!-- Generator: Adobe Illustrator 17.0.0, SVG Export Plug-In . SVG Version: 6.00 Build 0)  -->
<!DOCTYPE svg PUBLIC "-//W3C//DTD SVG 1.1//EN" "http://www.w3.org/Graphics/SVG/1.1/DTD/svg11.dtd">
<svg version="1.1" id="Layer_1" xmlns="http://www.w3.org/2000/svg" xmlns:xlink="http://www.w3.org/1999/xlink" x="0px" y="0px"
	 width="227.658px" height="320px" viewBox="0 0 227.658 320" enable-background="new 0 0 227.658 320" xml:space="preserve">
<path fill="#FFFFFF" d="M98.282,128.917h44.804c9.139,0,13.715-4.576,13.715-13.715V75.434c0-9.146-4.576-13.715-13.715-13.715
	h-58.52c-9.139,0-13.709,4.57-13.709,13.715v38.851H0v-42.51c0-21.639,6.547-39.006,19.655-52.114C32.756,6.56,50.124,0,71.769,0
	h84.114c21.627,0,39.013,6.56,52.107,19.661c13.108,13.108,19.668,30.475,19.668,52.114v26.513c0,14.019-2.827,26.283-8.457,36.799
	c-5.655,10.516-13.492,18.824-23.549,24.913c10.057,6.102,17.894,14.403,23.549,24.919c5.63,10.516,8.457,22.619,8.457,36.334
	v26.984c0,21.627-6.56,39.013-19.668,52.107C194.896,313.452,177.51,320,155.883,320H71.769c-21.646,0-39.013-6.548-52.114-19.655
	C6.547,287.25,0,269.864,0,248.237v-42.522h70.857v38.852c0,9.152,4.57,13.715,13.709,13.715h58.519
	c9.139,0,13.715-4.563,13.715-13.715v-40.228c0-9.14-4.576-13.716-13.715-13.716H98.282V128.917z"/>
</svg>
