<?xml version="1.0" encoding="utf-8"?>
<!-- Generator: Adobe Illustrator 17.0.0, SVG Export Plug-In . SVG Version: 6.00 Build 0)  -->
<!DOCTYPE svg PUBLIC "-//W3C//DTD SVG 1.1//EN" "http://www.w3.org/Graphics/SVG/1.1/DTD/svg11.dtd">
<svg version="1.1" id="Layer_1" xmlns="http://www.w3.org/2000/svg" xmlns:xlink="http://www.w3.org/1999/xlink" x="0px" y="0px"
	 width="227.646px" height="320px" viewBox="0 0 227.646 320" enable-background="new 0 0 227.646 320" xml:space="preserve">
<path fill="#FFFFFF" d="M143.085,258.281c9.139,0,13.703-4.563,13.703-13.715v-57.143c-12.177,8.544-26.81,12.798-43.88,12.798
	H71.769c-21.646,0-39.013-6.548-52.114-19.643C6.547,167.472,0,150.104,0,128.459V71.775c0-21.639,6.547-39.006,19.655-52.114
	C32.756,6.56,50.124,0,71.769,0h84.573c21.329,0,38.541,6.56,51.661,19.661c13.096,13.108,19.643,30.475,19.643,52.114v176.462
	c0,21.627-6.547,39.013-19.643,52.107C194.883,313.452,177.671,320,156.342,320H71.769c-21.646,0-39.013-6.548-52.114-19.655
	C6.547,287.25,0,269.864,0,248.237v-19.668h70.857v15.997c0,9.152,4.57,13.715,13.709,13.715H143.085z M84.566,61.718
	c-9.139,0-13.709,4.57-13.709,13.715V124.8c0,9.146,4.57,13.715,13.709,13.715h58.519c8.222,0,12.797-3.807,13.703-11.427V75.434
	c0-9.146-4.563-13.715-13.703-13.715L84.566,61.718L84.566,61.718z"/>
</svg>
