<?xml version="1.0" encoding="utf-8"?>
<!-- Generator: Adobe Illustrator 16.0.0, SVG Export Plug-In . SVG Version: 6.00 Build 0)  -->
<!DOCTYPE svg PUBLIC "-//W3C//DTD SVG 1.1//EN" "http://www.w3.org/Graphics/SVG/1.1/DTD/svg11.dtd">
<svg version="1.1" id="Layer_1" xmlns="http://www.w3.org/2000/svg" xmlns:xlink="http://www.w3.org/1999/xlink" x="0px" y="0px"
	 width="380px" height="190px" viewBox="0 0 380 190" enable-background="new 0 0 380 190" xml:space="preserve">
<path fill="#FFFFFF" d="M285,190c-108.117,0-81.883,0-190,0c-52.467,0-95-42.533-95-95S42.533,0,95,0c108.117,0,81.883,0,190,0
	c52.467,0,95,42.533,95,95S337.467,190,285,190z M268.8,31c-89.68,0-67.92,0-157.6,0C62,31,32.4,51.654,32.4,95
	c0,45.348,29.6,64,78.8,64c89.68,0,67.92,0,157.6,0c49.2,0,78.8-12.652,78.8-64C347.6,48.654,318,31,268.8,31z"/>
</svg>
