<?xml version="1.0" encoding="utf-8"?>
<!-- Generator: Adobe Illustrator 17.0.0, SVG Export Plug-In . SVG Version: 6.00 Build 0)  -->
<!DOCTYPE svg PUBLIC "-//W3C//DTD SVG 1.1//EN" "http://www.w3.org/Graphics/SVG/1.1/DTD/svg11.dtd">
<svg version="1.1" id="Layer_1" xmlns="http://www.w3.org/2000/svg" xmlns:xlink="http://www.w3.org/1999/xlink" x="0px" y="0px"
	 width="320px" height="308.545px" viewBox="0 0 320 308.545" enable-background="new 0 0 320 308.545" xml:space="preserve">
<path fill="#FFFFFF" d="M122.982,119.891c0,10.294-3.163,18.593-9.482,24.906c-6.319,6.325-14.617,9.476-24.9,9.476H34.382
	c-10.289,0-18.587-3.15-24.9-9.476C3.157,138.484,0,130.186,0,119.891V34.382c0-10.283,3.157-18.581,9.482-24.9
	C15.795,3.163,24.093,0,34.382,0H88.6c10.283,0,18.581,3.163,24.9,9.482s9.482,14.617,9.482,24.9V119.891z M238.023,0h55.982
	L81.988,308.545H26.006L238.023,0z M79.782,44.963c0-4.412-2.2-6.612-6.612-6.612H49.812c-4.412,0-6.612,2.2-6.612,6.612v64.352
	c0,4.406,2.2,6.612,6.612,6.612H73.17c4.412,0,6.612-2.206,6.612-6.612V44.963z M320,274.169c0,10.283-3.156,18.582-9.47,24.895
	c-6.325,6.325-14.623,9.481-24.906,9.481h-54.212c-10.295,0-18.593-3.156-24.905-9.481c-6.326-6.313-9.47-14.611-9.47-24.895
	v-85.515c0-10.283,3.144-18.58,9.47-24.906c6.313-6.313,14.61-9.476,24.905-9.476h54.212c10.283,0,18.581,3.163,24.906,9.476
	c6.313,6.326,9.47,14.623,9.47,24.906V274.169z M276.813,199.224c0-4.399-2.201-6.6-6.613-6.6h-23.363c-4.412,0-6.611,2.2-6.611,6.6
	v64.364c0,4.412,2.199,6.611,6.611,6.611H270.2c4.412,0,6.613-2.199,6.613-6.611V199.224z"/>
</svg>
