<?xml version="1.0" encoding="utf-8"?>
<!-- Generator: Adobe Illustrator 17.0.0, SVG Export Plug-In . SVG Version: 6.00 Build 0)  -->
<!DOCTYPE svg PUBLIC "-//W3C//DTD SVG 1.1//EN" "http://www.w3.org/Graphics/SVG/1.1/DTD/svg11.dtd">
<svg version="1.1" id="Layer_1" xmlns="http://www.w3.org/2000/svg" xmlns:xlink="http://www.w3.org/1999/xlink" x="0px" y="0px"
	 width="236.804px" height="320px" viewBox="0 0 236.804 320" enable-background="new 0 0 236.804 320" xml:space="preserve">
<path fill="#FFFFFF" d="M80.915,202.975c0-21.64,6.547-39.007,19.655-52.114c13.101-13.102,30.319-19.662,51.661-19.662h4.563
	c9.152,0,13.715-4.569,13.715-13.715V70.857c0-9.139-4.563-13.715-13.715-13.715H79.997c-9.14,0-13.715,4.576-13.715,13.715v29.718
	H0v-28.8c0-21.639,6.547-39.006,19.655-52.114C32.756,6.56,49.975,0,71.31,0h93.718c21.627,0,39.013,6.56,52.107,19.661
	c13.096,13.108,19.668,30.475,19.668,52.114v44.797c0,21.646-6.572,39.013-19.668,52.114c-13.095,13.107-30.48,19.655-52.107,19.655
	h-4.117c-9.152,0-13.715,4.576-13.715,13.715v17.374H80.915V202.975z M147.196,320H80.915v-66.281h66.282L147.196,320L147.196,320z"
	/>
</svg>
