<?xml version="1.0" encoding="utf-8"?>
<!-- Generator: Adobe Illustrator 17.0.0, SVG Export Plug-In . SVG Version: 6.00 Build 0)  -->
<!DOCTYPE svg PUBLIC "-//W3C//DTD SVG 1.1//EN" "http://www.w3.org/Graphics/SVG/1.1/DTD/svg11.dtd">
<svg version="1.1" id="Layer_1" xmlns="http://www.w3.org/2000/svg" xmlns:xlink="http://www.w3.org/1999/xlink" x="0px" y="0px"
	 width="320px" height="260.057px" viewBox="0 0 320 260.057" enable-background="new 0 0 320 260.057" xml:space="preserve">
<path fill="#FFFFFF" d="M177.238,70.499c0-9.807-7.951-17.753-17.756-17.753s-17.756,7.946-17.756,17.753
	c0,6.188,3.171,11.634,7.972,14.812L87.022,260.057h14.393l3.15-9.018l55.025-30.17l54.575,30.17l3.146,9.018h14.397L169.07,85.43
	C173.979,82.271,177.238,76.771,177.238,70.499z M139.377,151.274l10.251,9.118l-19.291,16.784L139.377,151.274z M159.328,169.017
	l14.954,13.3h-29.839L159.328,169.017z M111.529,231.076l9.835-28.187l2.184-1.947l22.244,12.299L111.529,231.076z M139.207,195.272
	h41.105l-20.672,10.763L139.207,195.272z M197.359,202.89l9.832,28.187l-33.775-17.788l22.048-12.09L197.359,202.89z
	 M188.389,177.177l-19.086-17.071l10.008-8.939L188.389,177.177z M159.764,151.575l-14.453-12.929h29.309L159.764,151.575z
	 M170.336,125.446h-21.944l10.132-29.03l0.629-8.176c0.111,0.003,0.219,0.018,0.331,0.018c0.031,0,0.062-0.004,0.093-0.005
	l0.627,8.163L170.336,125.446z M82.54,127.929l-0.96-12.479l-32.631,20.477l-0.642-12.798L0,178.154l48.307-22.393l1.921,15.358
	l31.352-28.473l1.283,14.075l49.267-50.229L82.54,127.929z M45.36,40.604l40.064,13.729l-11.711,7.911l67.766,18.928L98.778,48.075
	l10.468-6.856L75.571,22.508l10.902-6.735L14.968,0l42.918,31.514L45.36,40.604z M271.693,123.128l-0.642,12.798l-32.631-20.477
	l-0.961,12.479l-49.59-21.437l49.269,50.229l1.282-14.075l31.351,28.473l1.922-15.358L320,178.154L271.693,123.128z M246.287,62.244
	l-11.712-7.911l40.065-13.729l-12.526-9.09L305.032,0l-71.505,15.772l10.902,6.735l-33.676,18.711l10.469,6.856l-42.701,33.097
	L246.287,62.244z"/>
</svg>
