<?xml version="1.0" encoding="utf-8"?>
<!-- Generator: Adobe Illustrator 17.0.0, SVG Export Plug-In . SVG Version: 6.00 Build 0)  -->
<!DOCTYPE svg PUBLIC "-//W3C//DTD SVG 1.1//EN" "http://www.w3.org/Graphics/SVG/1.1/DTD/svg11.dtd">
<svg version="1.1" id="Lager_1" xmlns="http://www.w3.org/2000/svg" xmlns:xlink="http://www.w3.org/1999/xlink" x="0px" y="0px"
	 width="250.602px" height="320px" viewBox="0 0 250.602 320" enable-background="new 0 0 250.602 320" xml:space="preserve">
<g>
	<path fill="#FFFFFF" d="M204.337,177.349c16.707-62.329,42.41-127.229,42.41-127.229L104.096,0c0,0-37.269,87.39-46.265,146.506
		C53.976,146.506,0,134.94,0,134.94l92.53,161.928l158.072-104.096L204.337,177.349z M118.966,45.292
		c6.802-3.167,14.876,0.744,18.033,8.736s0.203,17.038-6.599,20.206c-6.802,3.167-14.876-0.744-18.033-8.736
		C109.209,57.506,112.164,48.46,118.966,45.292z M190.764,116.97L177.71,87.89l-19.084-2.104l10.949,20.206
		c3.824,6.259,12.153,14.29,3.361,26.351c-6.813,9.346-16.01,35.49-16.01,35.49l8.381,31.426l-18.764,15.844L141,211.461
		l9.525-13.543l-11.597-30.979c0,0,3.006-20.785,7.487-28.876c3.627-6.549-0.977-3.598-0.977-3.598l-18.806,11.776l2.165,27.536
		l-20.937,13.43l-10.106-3.689l17.155-15.621l-6.359-30.688l30.917-21.944l-11.841-15.669l-17.004,17.297L85.23,127.886
		l-3.041-8.404l23.48-14.122l11.31-22.617l29.914-15.015l39.819,8.052l13.813,37.461L190.764,116.97z"/>
	<polygon fill="#FFFFFF" points="7.711,296.867 7.711,320 196.627,320 196.627,296.867 92.53,296.867 	"/>
</g>
</svg>
