<?xml version="1.0" encoding="utf-8"?>
<!-- Generator: Adobe Illustrator 17.0.0, SVG Export Plug-In . SVG Version: 6.00 Build 0)  -->
<!DOCTYPE svg PUBLIC "-//W3C//DTD SVG 1.1//EN" "http://www.w3.org/Graphics/SVG/1.1/DTD/svg11.dtd">
<svg version="1.1" id="Layer_1" xmlns="http://www.w3.org/2000/svg" xmlns:xlink="http://www.w3.org/1999/xlink" x="0px" y="0px"
	 width="320px" height="311.64px" viewBox="0 0 320 311.64" enable-background="new 0 0 320 311.64" xml:space="preserve">
<g>
	<path fill="#FFFFFF" d="M160,123.577c-17.761,0-32.159,14.397-32.159,32.157s14.398,32.157,32.159,32.157
		s32.157-14.397,32.157-32.157S177.761,123.577,160,123.577z M160,173.582c-9.858,0-17.847-7.991-17.847-17.847
		c0-9.858,7.99-17.847,17.847-17.847c9.856,0,17.847,7.991,17.847,17.847S169.856,173.582,160,173.582z"/>
	<path fill="#FFFFFF" d="M313.356,110.08c-15.19,1.645-30.63-5.559-38.76-19.643c-8.182-14.172-6.642-31.279,2.534-43.631
		C255.879,23.983,228.051,7.362,196.646,0C190.599,14.267,176.469,24.275,160,24.275S129.399,14.267,123.354,0
		C91.949,7.362,64.121,23.983,42.87,46.806c9.176,12.352,10.716,29.459,2.534,43.631c-8.13,14.083-23.571,21.288-38.762,19.643
		C2.339,124.547,0,139.864,0,155.734c0,16.486,2.501,32.386,7.133,47.348c15.031-1.439,30.229,5.748,38.27,19.679
		c7.967,13.802,6.687,30.371-1.856,42.634c21.334,22.628,49.183,39.049,80.557,46.244c6.391-13.421,20.041-22.718,35.895-22.718
		s29.504,9.297,35.895,22.718c31.376-7.196,59.222-23.616,80.555-46.244c-8.543-12.266-9.823-28.835-1.854-42.634
		c8.042-13.931,23.239-21.118,38.269-19.679c4.634-14.962,7.135-30.862,7.135-47.348C320,139.864,317.66,124.547,313.356,110.08z
		 M191.526,32.439c20.793-10.747,46.36-2.605,57.107,18.188c10.747,20.791,2.605,46.358-18.19,57.105
		c-20.791,10.747-46.358,2.603-57.105-18.188S170.733,43.186,191.526,32.439z M107.243,27.734c23.405,0,42.378,18.973,42.378,42.378
		s-18.973,42.378-42.378,42.378S64.865,93.518,64.865,70.113C64.865,46.706,83.838,27.734,107.243,27.734z M33.771,191.13
		C13.819,178.894,7.564,152.801,19.8,132.85c12.234-19.952,38.327-26.207,58.28-13.973c19.951,12.236,26.205,38.329,13.971,58.282
		C79.818,197.11,53.724,203.366,33.771,191.13z M126.744,278.163c-20.793,10.747-46.36,2.605-57.107-18.188
		s-2.605-46.36,18.188-57.107s46.358-2.603,57.107,18.188C155.679,241.849,147.537,267.416,126.744,278.163z M109.838,155.734
		c0-27.705,22.457-50.162,50.162-50.162c27.703,0,50.162,22.457,50.162,50.162c0,27.703-22.459,50.162-50.162,50.162
		C132.295,205.897,109.838,183.436,109.838,155.734z M211.027,282.87c-23.405,0-42.378-18.973-42.378-42.378
		s18.973-42.378,42.378-42.378s42.378,18.973,42.378,42.378S234.432,282.87,211.027,282.87z M297.605,177.754
		c-12.234,19.952-38.327,26.207-58.28,13.973c-19.952-12.236-26.207-38.329-13.971-58.282
		c12.234-19.952,38.327-26.207,58.278-13.971C303.585,131.709,309.84,157.802,297.605,177.754z"/>
</g>
</svg>
