<?xml version="1.0" encoding="utf-8"?>
<!-- Generator: Adobe Illustrator 16.0.3, SVG Export Plug-In . SVG Version: 6.00 Build 0)  -->
<!DOCTYPE svg PUBLIC "-//W3C//DTD SVG 1.1//EN" "http://www.w3.org/Graphics/SVG/1.1/DTD/svg11.dtd">
<svg version="1.1" id="Layer_1" xmlns="http://www.w3.org/2000/svg" xmlns:xlink="http://www.w3.org/1999/xlink" x="0px" y="0px"
	 width="499.92px" height="241.191px" viewBox="0 0 499.92 241.191" enable-background="new 0 0 499.92 241.191"
	 xml:space="preserve">
<path fill-rule="evenodd" clip-rule="evenodd" d="M324.922,122.97l174.998-2.371l-175.077-2.372l172.938-13.376l-174.142,8.67
	L491.4,89.38l-170.307,19.562l159.796-34.5l-163.557,30.12l149.095-44.267l-154.009,40.162l135.843-53.278L306.436,96.696
	l120.268-61.376L299.486,93.344L402.12,24.918l-110.43,65.54l83.243-74.303L283.18,88.088l62.429-78.909l-71.508,77.095
	l40.547-82.166l-50.039,80.939l17.971-84.016l-27.713,83.398L249.953,0l-4.914,84.43L217.326,1.032l17.971,84.017L185.258,4.11
	l40.547,82.166L154.297,9.181l62.43,78.91l-91.753-71.932l83.244,74.303L97.788,24.923l102.634,68.426L73.206,35.324l120.268,61.377
	L51.649,47.185l135.844,53.278L33.484,60.301l149.096,44.268L19.024,74.449l159.797,34.5L8.515,89.387l167.763,24.142l-174.141-8.67
	l172.859,13.371L0,120.599l174.918,2.37L2.138,136.333l174.141-8.67L8.515,151.805l170.306-19.563l-159.797,34.5l163.557-30.119
	L33.484,180.891l154.009-40.162L51.649,194.007l141.825-49.517L73.206,205.867l127.216-58.024L97.788,216.269l110.429-65.539
	l-83.244,74.303l91.753-71.932l-62.43,78.909l71.508-77.095l-40.547,82.166l50.039-80.938l-17.971,84.017l27.713-83.397l4.914,84.43
	l4.914-84.429l27.713,83.397l-17.971-84.017l50.039,80.939l-40.547-82.166l71.508,77.096l-62.429-78.909l91.754,71.933
	l-83.243-74.303l110.43,65.539l-102.634-68.425l127.217,58.024l-120.268-61.376l141.826,49.517l-135.843-53.278l154.009,40.162
	l-149.095-44.268l163.557,30.12l-159.796-34.5L491.4,151.812L323.639,127.67l174.142,8.67L324.922,122.97z M249.963,120.598
	L249.963,120.598l-0.002,0h-0.001h0h-0.001l0,0h0h0l0,0h0l0,0l0,0h0v0v0v0v0h0l0,0l0,0h0l0.001,0h0l0,0h0.001h0h0.001h0.001l0.001,0
	l0.008,0.002L249.963,120.598z" fill="#FFFFFF"/>
</svg>
