<?xml version="1.0" encoding="utf-8"?>
<!-- Generator: Adobe Illustrator 16.0.0, SVG Export Plug-In . SVG Version: 6.00 Build 0)  -->
<!DOCTYPE svg PUBLIC "-//W3C//DTD SVG 1.1//EN" "http://www.w3.org/Graphics/SVG/1.1/DTD/svg11.dtd">
<svg version="1.1" id="Layer_1" xmlns="http://www.w3.org/2000/svg" xmlns:xlink="http://www.w3.org/1999/xlink" x="0px" y="0px"
	 width="242.775px" height="378.536px" viewBox="0 0 242.775 378.536" enable-background="new 0 0 242.775 378.536"
	 xml:space="preserve">
<path fill="#FFFFFF" d="M230.26,191.417c-1.455,0.211-3.368,0.053-3.368,0.053s-2.253,2.578-3.866,0.342
	c-1.602-2.221-7.854-10.165-10.094-10.914c-2.235-0.748-3.491-2.441-2.466-4.015c-4.987,3.809-14.716,6.486-17.509,6.26
	c-1.017-0.226-1.283-1.069-1.283-1.069s-11.414,22.712-17.73,30.39c-0.938,0.765-1.69,1.002-2.198,1.063
	c-0.372-0.072-0.71-0.033-0.71-0.033s0.259,0.086,0.71,0.033c0.881,0.172,1.951,0.971-0.828,4.404
	c-4.005,4.947-9.152,7.273-10.608,8.117c-1.459,0.846-2.046-0.358-2.807-4.297c-0.681-3.528-3.729-6.678-2.619-8.16
	c1.108-1.477,2.038-0.524,2.934-1.034c0.895-0.509,0.387-1.065,1.402-2.698c1.013-1.625,1.785-4.154,3.765-3.396
	c-0.52-3.244,0.91-4.879,2.517-7.021c1.599-2.13,15.648-22.658,17.646-25.323c1.981-2.646,2.397-2.683,4.241-1.768
	c0.708-3.287,6.81-6.926,11.979-8.443c5.155-1.513,16.155,0.074,17.014,2.126c0.864,2.066,0.187,3.434,0.187,3.434
	s1.603-1.297,2.356,1.646c0.763,2.97,6.682,9.637,8.342,10.132c1.664,0.497,1.943,2.005,1.943,2.005
	c3.131-1.811,10.347-1.884,13.568,5.151C237.161,182.542,231.715,191.208,230.26,191.417z M224.201,148.548
	c-1.146,0.098-2.638-0.133-2.638-0.133s-1.832,2.011-3.037,0.08c-1.204-1.93-6.003-8.976-7.781-9.741
	c-1.777-0.765-2.769-2.295-1.929-3.603c-4.031,3.017-11.814,4.779-14.053,4.433c-0.817-0.249-1.042-0.987-1.042-0.987
	s-8.648,18.365-13.275,24.104c-1.32,1.05-2.21,0.668-2.21,0.668s3.045,2.491,0.178,6.085c-2.866,3.595-6.671,5.117-7.734,5.686
	c-1.063,0.57-1.563-0.365-2.327-3.39c-0.692-2.741-3.195-8.233-2.417-9.336c0.777-1.103,1.544-0.312,2.209-0.667
	s0.246-0.819,0.953-2.056c0.707-1.237,1.188-3.212,2.764-2.509c-0.55-2.625,0.494-3.87,1.661-5.525
	c1.168-1.655,11.313-18.081,12.87-20.287c1.556-2.207,1.894-2.216,3.404-1.309c0.524-2.856,5.817-5.854,10.042-6.914
	c4.225-1.059,13.199,1.003,13.861,2.881c0.663,1.877,0.089,3.043,0.089,3.043s1.32-1.05,1.87,1.574
	c0.549,2.625,5.071,8.506,6.369,9.014c1.298,0.507,1.471,1.788,1.471,1.788c2.527-1.354,8.253-0.875,10.456,5.157
	C229.819,141.435,225.347,148.45,224.201,148.548z M201.119,65.922c-0.161,2.904,1.938,8.875-0.484,9.681
	c-2.42,0.807-6.614-0.323-8.713-2.904c-2.098-2.581-4.033-3.873-6.293-3.389c2.098-3.227,6.131-10.972,6.293-16.458
	c0.161-5.486,0.969-19.848,14.038-26.141c4.073-1.961,11.94-6.293,9.197,4.357S201.28,63.018,201.119,65.922z M207.412,22.355
	c-5.002,1.452-6.454,5.325-8.713,6.777c-2.26,1.453-5.971,1.13-8.229-3.388c-2.261-4.519-3.713-5.486-7.746-7.261
	s-7.745-6.293-7.745-9.682c0-3.388,1.13-7.906,3.873-7.745c2.743,0.162,4.034-0.323,9.682,2.42
	c5.648,2.743,22.269,11.618,23.235,14.039C212.737,19.935,212.414,20.903,207.412,22.355z M173.526,19.45
	c-6.132,3.873-12.747,7.584-15.006,6.777c-2.261-0.807-5.811-4.357-8.229-6.777c-2.421-2.42-5.325-4.034-7.262-4.841
	c-1.938-0.807-5.325-4.195,2.421-7.261c7.745-3.066,22.429-8.068,26.14-7.261c3.713,0.807,0.646,6.293,1.452,10.166
	C173.85,14.125,179.658,15.578,173.526,19.45z M153.195,28.164c-1.452,3.873-7.584,14.039-9.198,18.879
	c-1.613,4.841-6.293-0.323-8.229-2.904c-1.938-2.582-1.775-1.775-4.842-3.389c-3.065-1.614-8.229,0.484-9.682-0.484
	c-1.452-0.968,0.807-6.938,5.325-12.586c4.519-5.647,10.166-14.522,17.427-10.166C151.259,21.871,154.647,24.291,153.195,28.164z
	 M128.022,42.202c6.776,1.775,11.618,9.682,12.587,15.491c0.968,5.809,2.42,10.166,1.452,13.07c-0.97,2.905-6.616-3.55-20.332-4.84
	c-5.58-0.525-8.553,3.55-10.166,2.904s-3.63-8.229,0.483-15.491C116.161,46.074,121.246,40.427,128.022,42.202z M188.533,70.763
	c3.227,2.905,8.067,6.616,8.714,6.777c0.646,0.162-0.483,2.743-6.776,2.905c-6.295,0.161-5.486,2.904-7.263,1.452
	c-1.773-1.452-2.743-6.293-1.937-7.746C182.077,72.698,185.306,67.858,188.533,70.763z M166.266,68.342
	c1.936-13.554,13.554-15.49,7.261-25.172c-2.42-2.098-8.068-3.711-10.649-2.42c4.034-2.42,12.426-4.841,17.911,4.841
	c5.485,9.682,5.324,18.556,3.388,22.751c-4.194,2.582-6.292,7.584-4.84,13.07C180.203,84.692,163.845,77.217,166.266,68.342z
	 M154.161,102.354c13.218,16.373,11.444,27.045,3.868,29.384c6.932,6.432,12.412,26.752,3.868,29.823
	c1.611,2.777,6.287,20.759-0.483,22.367c3.225,3.07,4.191,10.233,0,10.965c2.096,2.777,3.063,9.21-4.836,11.402
	c0.968,2.192-1.771,8.332-6.77,9.209c2.739,3.656,4.353,10.672,2.418,14.474c-1.936,3.801-5.319,4.972-9.672,0.877
	c-4.354-4.093-10.56-11.694-24.905-11.841c-4.353,0.146-7.012-0.293-12.331,4.386s-6.933,9.502-8.705,10.524
	c-1.773,1.023-3.546,1.463-5.803-2.631c-2.258-4.094-3.869-6.433-1.451-10.525c2.418-4.094,2.418-5.264,2.418-5.264
	s-0.977-0.379-2.159-1.041c-0.165,1.691-1.997,4.361-2.348,7.175c-0.496,3.974-1.002,5.213-2.514,4.467
	c-1.508-0.744-6.798-2.72-11.121-7.386c-3-3.236-1.985-4.104-1.118-4.332c0.454,0.021,0.706-0.082,0.706-0.082
	s-0.341-0.016-0.706,0.082c-0.511-0.026-1.276-0.215-2.264-0.912c-6.812-7.23-19.705-29.109-19.705-29.109s-0.209,0.858-1.208,1.15
	c-2.771,0.412-12.65-1.61-17.88-5.075c1.128,1.501-0.012,3.272-2.19,4.166c-2.187,0.896-7.896,9.228-9.345,11.548
	c-1.46,2.338-3.879-0.082-3.879-0.082s-1.896,0.283-3.362,0.172c-1.467-0.113-7.474-8.387-12.686-2.177
	c2.748-7.226,9.948-7.633,13.191-6.036c0,0,0.179-1.522,1.806-2.127c1.624-0.604,7.084-7.642,7.646-10.652
	c0.558-2.983,2.241-1.797,2.241-1.797s-0.768-1.318-0.043-3.435c0.721-2.102,11.588-4.414,16.829-3.249
	c5.259,1.168,11.585,4.39,12.51,7.618c1.777-1.034,2.194-1.024,4.349,1.48c2.169,2.523,17.547,22.048,19.282,24.064
	c1.746,2.027,3.278,3.563,2.976,6.829c1.924-0.886,2.863,1.583,3.98,3.136c1.122,1.559,0.652,2.148,1.577,2.596
	c0.225,0.108,0.444,0.131,0.666,0.125c-0.987-0.933-1.688-2.041-1.521-3.254c-1.934-1.607-6.609-9.209-2.418-12.719
	c-4.191-3.361-7.576-12.426-1.934-14.911c-3.708-2.485,0.16-16.374,4.352-21.052c-5.48,0-8.705-19.735,3.385-29.823
	c-4.19-4.532-3.224-22.367,8.705-30.261c-5.803-1.608,8.382-32.454,25.146-32.016C139.492,69.023,163.188,94.46,154.161,102.354z
	 M74.233,175.139c-1.064-0.569-4.869-2.091-7.736-5.686c-2.866-3.595,0.178-6.085,0.178-6.085s-0.889,0.382-2.209-0.668
	c-4.627-5.739-13.274-24.104-13.274-24.104s-0.225,0.738-1.042,0.987c-2.239,0.347-10.021-1.416-14.053-4.433
	c0.84,1.308-0.15,2.838-1.93,3.603c-1.777,0.765-6.577,7.811-7.78,9.741c-1.205,1.931-3.037-0.08-3.037-0.08
	s-1.493,0.231-2.639,0.133c-1.145-0.098-5.618-7.113-9.753-1.945c2.203-6.032,7.93-6.51,10.456-5.157c0,0,0.172-1.281,1.471-1.788
	c1.299-0.507,5.82-6.389,6.37-9.014s1.869-1.574,1.869-1.574s-0.574-1.166,0.089-3.043s9.639-3.94,13.862-2.881
	c4.224,1.06,9.517,4.058,10.042,6.914c1.512-0.907,1.85-0.898,3.406,1.309c1.556,2.207,11.702,18.632,12.869,20.287
	c1.167,1.655,2.211,2.9,1.662,5.525c1.573-0.703,2.057,1.272,2.764,2.509s0.288,1.7,0.953,2.056s1.431-0.436,2.209,0.667
	c0.777,1.103-1.726,6.596-2.417,9.336C75.797,174.774,75.297,175.709,74.233,175.139z M23.588,231.127c0,0-0.167-1.463,1.121-2.391
	s4.357-8.808,4.23-11.863c-0.127-3.055,1.62-2.268,1.62-2.268s-0.957-1.126-0.751-3.389c0.206-2.262,9.514-7.076,14.461-7.1
	c4.946-0.023,9.479,2.344,10.854,5.352c1.412-1.43,1.786-1.516,4.116,0.484c2.329,1.998,20.215,16.737,21.962,18.237
	c1.747,1.499,3.244,2.58,3.371,5.638c1.538-1.223,2.62,0.824,3.743,1.991c1.124,1.167,0.792,1.798,1.623,2.003
	s1.454-0.887,2.619,0.113c1.165,0.999-0.87,4.566-0.867,7.791c0.003,3.559-0.288,8.121-1.618,7.792
	c-1.331-0.329-5.945-0.937-10.104-4.099c-4.158-3.164-1.501-6.776-1.501-6.776s-0.872,0.674-2.618-0.112
	c-6.696-5.035-21.343-22.889-21.343-22.889s-0.041,0.879-0.872,1.385c-2.368,1.016-11.43,1.268-16.711-0.929
	c1.29,1.209,0.626,3.18-1.118,4.526c-1.745,1.349-5.064,10.49-5.853,12.965c-0.788,2.474-3.366,0.769-3.366,0.769
	s-1.579,0.677-2.868,0.894c-1.288,0.215-7.359-6.455-10.473,0.426C13.985,232.392,20.428,230.348,23.588,231.127z M26.85,269.478
	c0,0-0.484-1.291,0.483-2.42c0.968-1.13,1.775-7.907,0.968-10.649c-0.807-2.744,0.969-2.421,0.969-2.421s-1.13-0.807-1.452-2.903
	c-0.323-2.099,9.52-8.553,14.038-9.683c4.518-1.13,9.198-1.937,11.134,0.483c0.968-1.613,1.291-1.774,3.873-0.483
	c2.582,1.29,22.268,12.586,24.204,13.554c1.937,0.969,3.55,0.646,4.356,3.389c1.13-1.451,2.582,0.162,3.873,0.97
	s1.129,1.452,1.938,1.452c0.807,0,1.129-1.131,2.42-0.484s0.237,5.305,0.968,8.229c0.808,3.228,0.808,4.357-0.483,4.357
	s-5.647,0.483-10.166-1.453c-4.52-1.936-2.905-5.809-2.905-5.809s-0.646,0.807-2.42,0.482c-7.261-3.064-24.688-13.553-24.688-13.553
	s0.161,0.807-0.483,1.451c-1.937,1.452-10.166,2.26-15.49,1.452c1.452,0.808,1.291,2.743,0,4.356s-2.259,9.682-2.42,12.103
	c-0.162,2.42-2.905,1.452-2.905,1.452s-1.291,0.968-2.42,1.451c-1.13,0.484-7.423-1.129-8.714,5.81
	C20.557,273.834,23.784,269.478,26.85,269.478z M31.207,304.333c-3.388-3.711-1.774-16.297,4.357-26.625
	c6.132-10.326,20.17-16.941,27.107-14.037c-0.322-0.969-0.968-2.422,2.42-1.938c7.907,1.131,24.043,15.652,28.562,20.331
	c-0.323-1.612,0.161-3.228,1.452-3.872c1.291-0.646,0.323,0.646,1.452,2.904s10.649,5.971,13.554,7.744
	c2.904,1.775,0.162,4.842-1.937,7.746c-2.098,2.903-4.033,3.065-6.776,2.42c-2.743-0.645-3.066,1.453-6.777,1.938
	c-3.711,0.482-4.518-2.26-6.293-3.873c-1.774-1.613,2.743-1.938,4.357-3.873c-2.42,0.162-12.586-6.293-16.943-9.197
	c-4.357-2.903-10.65-0.321-14.521,0.97c-3.873,1.29-3.39-4.357-3.39-4.357s-0.807,1.13-1.452,2.904
	c-2.259,6.616,5.486,9.198,8.713,12.103c3.228,2.905,3.228,7.584-0.968,8.229c10.327,1.774,19.121,27.351,14.039,36.79
	c1.775,3.873,13.231,15.813,23.236,18.879c-6.455,1.13-22.59-3.872-27.108-10.165c1.613,8.392,10.004,15.167,28.077,19.847
	c-24.124,4.6-39.049-11.779-40.179-13.554c-31.949-12.909-32.756-30.981-34.37-38.243S29.916,305.946,31.207,304.333z
	 M107.208,285.454c-4.356-2.42-2.903-5.81-2.903-5.81s5.809,0.161,9.196-0.97c3.39-1.129,6.777-6.775,6.777-6.775
	s0.807,3.389,6.293,5.809c5.486,2.422,8.229,0.484,8.229,0.484s0.97,1.129-0.482,3.872c-1.453,2.743-13.071,11.134-13.071,11.134
	s1.614-6.131,1.937-8.229c0.322-2.1-1.937-6.777-1.937-6.777h-3.63c0,0-2.663,3.711-2.663,6.777c0,3.064,0.968,6.293,0.968,6.293
	S111.564,287.874,107.208,285.454z M120.277,269.478c-3.146,4.841-8.229,12.103-18.879,7.745c-2.964-1.213-5.81-11.779-6.293-19.363
	c-0.484-7.584-1.775-16.781,1.936-22.268s14.281-15.813,17.427-15.49c3.146,0.322,3.146,2.904,3.146,2.904s1.694-2.743,4.115-2.904
	s22.105,6.938,23.235,18.395c1.129,11.457,0,30.014-3.873,35.338C138.35,277.545,123.424,276.901,120.277,269.478z M156.843,359.967
	c-5.442,5.736-22.396,8.511-28.729,6.447c10.505-1.686,23.736-12.16,26.075-15.834c-3.771-10.293,9.698-34.834,20.345-35.164
	c-4.131-1.25-3.464-5.994,0.198-8.479c3.661-2.485,13.846-9.06,12.05-15.97c-0.521-1.856-1.254-3.067-1.254-3.067
	s0.069,5.793-3.756,4.19c-3.826-1.604-10.007-4.699-14.635-2.062c-4.629,2.638-15.604,4.483-18.045,4.14
	c1.49,2.095,6.042,2.756,4.124,4.271s-2.938,4.251-6.66,3.483c-3.724-0.77-3.894-2.932-6.72-2.477
	c-2.825,0.455-4.774,0.146-6.683-2.968c-1.908-3.116-4.458-6.444-1.385-8.039c3.072-1.595,12.989-4.674,14.303-6.894
	c1.312-2.221,0.427-3.606,1.687-2.854c1.26,0.754,1.63,2.435,1.184,4.056c4.923-4.437,22.547-14.063,30.638-14.631
	c3.467-0.242,2.705,1.189,2.308,2.152c7.241-2.448,20.966,5.334,26.406,16.314s3.238,30.729-0.701,34.01
	c1.069,1.82,4.206,6.603,1.549,13.734c-2.659,7.131-7.021,25.201-41.015,33.74c-1.39,1.639-18.744,16.119-42.366,8.021
	C144.613,373.92,154.023,368.245,156.843,359.967z M208.864,273.351c0,0-2.743,0.968-2.904-1.452
	c-0.161-2.421-1.13-10.488-2.421-12.104c-1.29-1.612-1.452-3.549,0-4.355c-5.324,0.807-13.554,0-15.49-1.451
	c-0.646-0.646-0.483-1.453-0.483-1.453s-17.427,10.488-24.688,13.555c-1.774,0.322-2.421-0.483-2.421-0.483s1.614,3.872-2.904,5.81
	c-4.518,1.937-8.875,1.451-10.166,1.451c-1.289,0-1.289-1.129-0.482-4.355c0.729-2.926-0.323-7.584,0.968-8.229
	c1.291-0.646,1.613,0.483,2.421,0.483s0.646-0.646,1.937-1.452c1.291-0.809,2.743-2.421,3.873-0.969
	c0.807-2.743,2.421-2.42,4.355-3.389c1.938-0.969,21.623-12.265,24.204-13.555c2.582-1.291,2.904-1.13,3.873,0.483
	c1.938-2.421,6.615-1.613,11.134-0.483c4.519,1.129,14.361,7.584,14.038,9.682c-0.322,2.099-1.452,2.904-1.452,2.904
	s1.775-0.322,0.97,2.42c-0.809,2.744,0,9.521,0.968,10.65s0.483,2.42,0.483,2.42c3.065,0,6.293,4.355,5.324,11.135
	c-1.291-6.939-7.584-5.324-8.713-5.81C210.155,274.319,208.864,273.351,208.864,273.351z M217.808,239.252
	c-1.288-0.215-2.867-0.893-2.867-0.893s-2.578,1.705-3.366-0.77s-4.106-11.615-5.852-12.963c-1.746-1.349-2.409-3.318-1.119-4.527
	c-5.281,2.195-14.344,1.943-16.712,0.929c-0.831-0.506-0.872-1.385-0.872-1.385s-14.646,17.853-21.342,22.888
	c-1.746,0.787-2.618,0.113-2.618,0.113s2.656,3.613-1.502,6.775c-4.159,3.164-8.774,3.771-10.104,4.1s-1.62-4.232-1.618-7.792
	c0.003-3.226-2.03-6.792-0.867-7.791c1.165-1,1.788,0.093,2.619-0.114c0.832-0.205,0.499-0.834,1.623-2.002
	c1.123-1.166,2.205-3.214,3.742-1.992c0.127-3.057,1.624-4.138,3.371-5.637c1.747-1.5,19.633-16.238,21.963-18.238
	c2.329-1.998,2.703-1.914,4.115-0.482c1.374-3.01,5.907-5.374,10.854-5.352c4.947,0.021,14.256,4.836,14.461,7.1
	c0.206,2.262-0.751,3.388-0.751,3.388s1.746-0.788,1.62,2.269c-0.128,3.056,2.942,10.936,4.23,11.863
	c1.287,0.926,1.12,2.391,1.12,2.391c3.16-0.78,9.603,1.264,10.345,8.552C225.168,232.799,219.097,239.467,217.808,239.252z"/>
</svg>
