<?xml version="1.0" encoding="utf-8"?>
<!-- Generator: Adobe Illustrator 17.0.0, SVG Export Plug-In . SVG Version: 6.00 Build 0)  -->
<!DOCTYPE svg PUBLIC "-//W3C//DTD SVG 1.1//EN" "http://www.w3.org/Graphics/SVG/1.1/DTD/svg11.dtd">
<svg version="1.1" id="Layer_1" xmlns="http://www.w3.org/2000/svg" xmlns:xlink="http://www.w3.org/1999/xlink" x="0px" y="0px"
	 width="255.554px" height="320px" viewBox="0 0 255.554 320" enable-background="new 0 0 255.554 320" xml:space="preserve">
<g>
	<path fill="#FFFFFF" d="M246.107,21.392C197.926,1.587,127.777,0,127.777,0S57.629,1.587,9.446,21.392
		C3.779,23.278,0,25.164,0,25.164s0,140.979,0,201.333C28.341,285.907,97.545,320,127.777,320
		c30.229,0,99.436-34.093,127.777-93.503c0-60.354,0-201.333,0-201.333S251.777,23.278,246.107,21.392z M249.282,223.093
		c-26.937,56.779-92.771,88.486-121.505,88.486S33.211,279.872,6.274,223.093c0-57.68,0-192.419,0-192.419s3.592-1.802,8.979-3.606
		C61.046,8.141,127.777,8.421,127.777,8.421s66.731-0.28,112.524,18.644c5.389,1.802,8.981,3.606,8.981,3.606
		S249.282,165.411,249.282,223.093z"/>
	<path fill="#FFFFFF" d="M127.777,16.842c0,0-61.731,0.133-104.032,17.72c-4.977,1.676-8.295,3.352-8.295,3.352s0,126.158,0,179.76
		c24.884,52.766,85.785,83.379,112.326,83.379s87.442-30.613,112.324-83.379c0-53.602,0-179.76,0-179.76s-3.318-1.676-8.295-3.352
		C189.509,16.975,127.777,16.842,127.777,16.842z"/>
</g>
</svg>
