<?xml version="1.0" encoding="utf-8"?>
<!-- Generator: Adobe Illustrator 17.0.0, SVG Export Plug-In . SVG Version: 6.00 Build 0)  -->
<!DOCTYPE svg PUBLIC "-//W3C//DTD SVG 1.1//EN" "http://www.w3.org/Graphics/SVG/1.1/DTD/svg11.dtd">
<svg version="1.1" id="Layer_1" xmlns="http://www.w3.org/2000/svg" xmlns:xlink="http://www.w3.org/1999/xlink" x="0px" y="0px"
	 width="279.182px" height="320px" viewBox="0 0 279.182 320" enable-background="new 0 0 279.182 320" xml:space="preserve">
<g>
	<path fill="#FFFFFF" d="M140.293,320l-1.998-0.128c-68.289-13.66-108.799-69.817-110.493-72.205C1.349,213.318,0,165.193,0,155.899
		C0,140.017,7.878,34.757,8.215,30.286l0.269-3.535l3.19-1.541C13.808,24.18,64.75,0,139.593,0
		c74.847,0,125.786,24.18,127.915,25.209l3.195,1.541l0.264,3.535c0.337,4.472,8.215,109.731,8.215,125.613
		c0,9.295-1.345,57.418-27.942,91.959c-1.555,2.195-42.06,58.354-110.349,72.014L140.293,320z M17.919,77.277
		c-1.421,19.164-5.621,64.822-5.621,78.622c0,8.599,1.225,53.082,25.393,84.458c0.524,0.729,39.173,54.148,101.901,67.231
		c62.885-13.114,101.373-66.504,101.757-67.04c24.317-31.57,25.533-76.052,25.533-84.651c0-13.8-4.308-59.458-5.731-78.622
		c-12.139-5.141-60.034-21.182-121.614-21.182S30.053,72.136,17.919,77.277z"/>
</g>
</svg>
