<?xml version="1.0" encoding="utf-8"?>
<!-- Generator: Adobe Illustrator 17.0.0, SVG Export Plug-In . SVG Version: 6.00 Build 0)  -->
<!DOCTYPE svg PUBLIC "-//W3C//DTD SVG 1.1//EN" "http://www.w3.org/Graphics/SVG/1.1/DTD/svg11.dtd">
<svg version="1.1" id="Layer_1" xmlns="http://www.w3.org/2000/svg" xmlns:xlink="http://www.w3.org/1999/xlink" x="0px" y="0px"
	 width="320px" height="320px" viewBox="0 0 320 320" enable-background="new 0 0 320 320" xml:space="preserve">
<path fill="#FFFFFF" d="M308.434,160c9.814,25.06,7.36,48,7.36,48s0,64-75.794,75.899C164.206,295.798,160,320,160,320
	s-4.206-24.202-80-36.101C4.206,272,4.206,208,4.206,208s-2.454-22.94,7.36-48C21.38,134.939,27.689,91.128,0,72.902l44.863-64.84
	c0,0,56.079,44.512,115.137-8.062c59.058,52.574,115.137,8.062,115.137,8.062L320,72.902C292.311,91.128,298.62,134.939,308.434,160
	z"/>
</svg>
