<?xml version="1.0" encoding="utf-8"?>
<!-- Generator: Adobe Illustrator 17.0.0, SVG Export Plug-In . SVG Version: 6.00 Build 0)  -->
<!DOCTYPE svg PUBLIC "-//W3C//DTD SVG 1.1//EN" "http://www.w3.org/Graphics/SVG/1.1/DTD/svg11.dtd">
<svg version="1.1" id="Layer_1" xmlns="http://www.w3.org/2000/svg" xmlns:xlink="http://www.w3.org/1999/xlink" x="0px" y="0px"
	 width="257.719px" height="320px" viewBox="0 0 257.719 320" enable-background="new 0 0 257.719 320" xml:space="preserve">
<path fill="#FFFFFF" d="M252.662,20.886c-2.186-0.799-53.053-19.205-119.434-20.78L124.491,0v0.102
	C58.204,1.65,7.238,20.087,5.057,20.886L0,22.744v84.599c0,105.925,122.196,204.572,127.396,208.716l4.947,3.941l4.838-4.077
	c4.921-4.145,120.538-102.783,120.538-208.581V22.744L252.662,20.886z M242.285,33.682v73.66c0,8.26-0.807,16.504-2.269,24.688
	c-26.798,0-107.809,0-107.809,0V15.55C184.499,16.688,227.914,29.085,242.285,33.682z M18.252,133.959h113.956v165.747
	c-0.045,0.045-0.098,0.09-0.144,0.135C111.57,282.237,33.942,211.241,18.252,133.959z"/>
</svg>
