<?xml version="1.0" encoding="utf-8"?>
<!-- Generator: Adobe Illustrator 17.0.0, SVG Export Plug-In . SVG Version: 6.00 Build 0)  -->
<!DOCTYPE svg PUBLIC "-//W3C//DTD SVG 1.1//EN" "http://www.w3.org/Graphics/SVG/1.1/DTD/svg11.dtd">
<svg version="1.1" id="Lager_1" xmlns="http://www.w3.org/2000/svg" xmlns:xlink="http://www.w3.org/1999/xlink" x="0px" y="0px"
	 width="320px" height="248.548px" viewBox="0 0 320 248.548" enable-background="new 0 0 320 248.548" xml:space="preserve">
<g>
	<path fill="#FFFFFF" d="M227.177,131.79c0-5.509-2.717-10.667-7.796-15.122c4.293-10.752,6.771-22.79,6.771-35.569
		c0-44.791-18.168-81.093-66.151-81.099c-47.984-0.004-66.153,36.308-66.153,81.099c0,12.779,2.48,24.817,6.772,35.569
		c-5.08,4.455-7.797,9.613-7.797,15.122c0,12.696,14.179,21.443,39.413,24.957c-6.547,7.905-10.623,17.612-10.623,25.73
		c0,0,17.187,10.132,38.388,10.132c21.198,0,38.386-10.132,38.386-10.132c0-8.119-4.076-17.825-10.622-25.73
		C212.998,153.232,227.177,144.486,227.177,131.79z M194.535,94.304c11.617,2.529,17.774,7.024,17.142,15.394
		c-1.205,15.953-9.377,17.919-20.987,15.375c-11.617-2.529-19.785-11.613-21.092-24.562C168.917,93.76,182.915,91.77,194.535,94.304
		z M182.455,146.412l-22.521-10.301l-20.661,10.913l20.661-32.737L182.455,146.412z M129.312,125.074
		c-11.611,2.544-19.783,0.578-20.988-15.375c-0.632-8.37,5.525-12.865,17.143-15.394c11.62-2.535,25.617-0.544,24.938,6.208
		C149.096,113.461,140.929,122.544,129.312,125.074z"/>
	<path fill="#FFFFFF" d="M259.252,102.591c13.779,0.929,34.218-4.644,48.736-12.778c21.722-12.174,8.469-17.772,2.751-30.628
		c-5.724-12.859-1.755-28.118-23.473-15.942c-14.517,8.133-30.766,23.129-38.376,36.06l-11.117,6.231
		c-0.388,9.751-2.056,19.273-4.986,28.434c0.623,0.838,1.185,1.675,1.694,2.506L259.252,102.591z"/>
	<path fill="#FFFFFF" d="M60.755,184.751c-13.781-0.941-34.225,4.634-48.743,12.767c-21.724,12.174-8.469,17.778-2.745,30.64
		c5.723,12.86,1.744,28.104,23.468,15.93c14.518-8.133,30.766-23.125,38.381-36.055l38.784-21.736v-3.821
		c0-2.283,0.226-4.642,0.661-7.039l2.467-8.773c0.229-0.605,0.469-1.208,0.721-1.811c-3.984-1.154-7.48-2.463-10.572-3.879
		L60.755,184.751z"/>
	<path fill="#FFFFFF" d="M307.988,197.518c-14.518-8.133-34.962-13.708-48.743-12.767l-42.422-23.777
		c-2.339,1.071-7.776,3.384-10.618,4.311l2.252,5.901c1.074,3.853,1.642,7.668,1.642,11.29v3.82l38.783,21.737
		c7.617,12.93,23.866,27.922,38.382,36.055c21.725,12.174,17.744-3.07,23.468-15.93
		C316.458,215.297,329.711,209.693,307.988,197.518z"/>
	<path fill="#FFFFFF" d="M12.012,89.813c14.518,8.133,34.958,13.707,48.736,12.778l24.771,13.883
		c0.509-0.831,1.071-1.667,1.694-2.506c-2.929-9.161-4.597-18.684-4.986-28.434L71.11,79.303
		c-7.61-12.931-23.858-27.927-38.376-36.06C11.017,31.067,14.986,46.326,9.262,59.185C3.543,72.041-9.711,77.639,12.012,89.813z"/>
</g>
</svg>
