<?xml version="1.0" encoding="utf-8"?>
<!-- Generator: Adobe Illustrator 17.0.0, SVG Export Plug-In . SVG Version: 6.00 Build 0)  -->
<!DOCTYPE svg PUBLIC "-//W3C//DTD SVG 1.1//EN" "http://www.w3.org/Graphics/SVG/1.1/DTD/svg11.dtd">
<svg version="1.1" id="Layer_1" xmlns="http://www.w3.org/2000/svg" xmlns:xlink="http://www.w3.org/1999/xlink" x="0px" y="0px"
	 width="320px" height="184.754px" viewBox="0 0 320 184.754" enable-background="new 0 0 320 184.754" xml:space="preserve">
<path fill="#FFFFFF" d="M159.291,125.109c-25.395,0-49.655,9.662-68.313,27.203l-3.354,3.16l28.394,28.896l3.21-2.949
	c11.02-10.135,25.25-15.715,40.064-15.715c15.015,0,29.378,5.7,40.442,16.062l3.188,2.991l28.655-28.666l-3.326-3.188
	C209.52,134.982,185.029,125.109,159.291,125.109z M159.291,61.416c-42.229,0-82.36,16.144-112.99,45.458l-3.304,3.16l28.416,28.928
	l3.215-3.053c23.003-21.857,53.071-33.902,84.663-33.902c32.004,0,62.344,12.312,85.447,34.652l3.188,3.082l28.684-28.677
	l-3.275-3.188C242.568,77.915,202.064,61.416,159.291,61.416z M316.751,64.478C274.372,22.9,218.453,0,159.291,0
	C100.896,0,45.489,22.411,3.276,63.098L0,66.255l28.427,28.94l3.215-3.089C66.216,58.887,111.549,40.59,159.291,40.59
	c48.371,0,94.126,18.697,128.833,52.648l3.188,3.117L320,67.666L316.751,64.478z"/>
</svg>
