<?xml version="1.0" encoding="utf-8"?>
<!-- Generator: Adobe Illustrator 17.0.0, SVG Export Plug-In . SVG Version: 6.00 Build 0)  -->
<!DOCTYPE svg PUBLIC "-//W3C//DTD SVG 1.1//EN" "http://www.w3.org/Graphics/SVG/1.1/DTD/svg11.dtd">
<svg version="1.1" id="Layer_1" xmlns="http://www.w3.org/2000/svg" xmlns:xlink="http://www.w3.org/1999/xlink" x="0px" y="0px"
	 width="292.069px" height="320px" viewBox="0 0 292.069 320" enable-background="new 0 0 292.069 320" xml:space="preserve">
<g>
	<path fill="#FFFFFF" d="M54.652,192.905c-5.893-12.794-9.204-27.019-9.204-42.027c0-35.912,18.835-67.409,47.15-85.203
		l10.292-34.514l-6.877,1.875L80.752,19.943l-16.531,9.641l3.881,19.729L43.795,73.836l-19.764-3.708l-9.497,16.615l13.225,15.145
		l-8.792,33.389L0,141.948l0.084,19.137l19.028,6.504l9.083,33.311l-13.094,15.26l9.642,16.533l19.168-3.77L54.652,192.905z"/>
	<rect x="136.891" fill="#FFFFFF" width="18.289" height="141.735"/>
	<polygon fill="#FFFFFF" points="118.602,45.722 36.382,320 134.802,110.05 	"/>
	<polygon fill="#FFFFFF" points="157.266,110.05 255.689,320 173.467,45.722 	"/>
	<path fill="#FFFFFF" d="M273.099,166.48l18.97-6.668l-0.084-19.137l-19.026-6.504l-9.083-33.311L276.97,85.6l-9.642-16.531
		l-19.729,3.881l-24.521-24.308l3.708-19.764l-16.615-9.497l-15.147,13.225l-5.878-1.547l10.327,34.627
		c28.316,17.789,47.147,49.282,47.147,85.194c0,15.008-3.311,29.233-9.204,42.027l10.539,35.337l0.32-0.322l19.762,3.708
		l9.499-16.613l-13.225-15.147L273.099,166.48z"/>
	<path fill="#FFFFFF" d="M146.035,251.465c-18.292,0-35.429-4.908-50.208-13.441l-19.223,41.329l5.294,3.027l15.147-13.225
		l33.391,8.792l6.668,18.97l19.137-0.084l6.506-19.028l33.311-9.083l15.262,13.094l4.165-2.43l-19.238-41.362
		C181.465,246.558,164.327,251.465,146.035,251.465z"/>
</g>
</svg>
