<?xml version="1.0" encoding="utf-8"?>
<!-- Generator: Adobe Illustrator 16.0.0, SVG Export Plug-In . SVG Version: 6.00 Build 0)  -->
<!DOCTYPE svg PUBLIC "-//W3C//DTD SVG 1.1//EN" "http://www.w3.org/Graphics/SVG/1.1/DTD/svg11.dtd">
<svg version="1.1" id="Layer_1" xmlns="http://www.w3.org/2000/svg" xmlns:xlink="http://www.w3.org/1999/xlink" x="0px" y="0px"
	 width="345.236px" height="388.047px" viewBox="0 0 345.236 388.047" enable-background="new 0 0 345.236 388.047"
	 xml:space="preserve">
<path fill="#FFFFFF" d="M329.7,181.897l-60.416,32.916l-60.416,5.196l58.689,8.662l63.868,32.914l12.083,50.238
	c0,0-14.385,25.985-18.987,27.718c3.452-10.973,5.179-27.718,5.179-27.718l-17.263-36.38l-53.512-25.984l-50.059-12.127
	l41.428,34.646l18.988,50.238l-10.357,45.041c0,0-14.96,17.324-27.618,20.788c10.933-9.239,12.084-25.985,12.084-25.985
	l6.903-41.576l-15.534-39.844l-34.523-29.449h-5.18c5.754,9.238,9.781,26.563-12.082,34.646
	c4.026-10.394,4.026-30.604-10.357-29.448c-14.385-1.156-14.385,19.056-10.357,29.448c-21.865-8.084-17.837-25.407-12.083-34.646
	H145l-34.524,29.449L94.94,320.484l6.905,41.576c0,0,1.151,16.746,12.083,25.985c-12.659-3.464-27.619-20.788-27.619-20.788
	l-10.357-45.041l18.988-50.238l41.429-34.646l-50.06,12.127l-53.511,25.985l-17.262,36.379c0,0,1.727,16.746,5.179,27.718
	c-4.603-1.732-18.988-27.718-18.988-27.718l12.083-50.238l63.869-32.914l58.69-8.661l-60.417-5.197l-60.417-32.916L0,100.477
	c0,0,11.508-17.901,18.988-22.521c-4.028,2.31-5.179,19.056-5.179,19.056l17.262,62.365l46.606,32.915l56.964,10.396l-46.607-27.719
	l-32.797-55.435l29.345-84.886L162.261,0l-60.417,43.309l-22.44,72.759l20.714,45.041c0,0,17.262,10.972,32.797,24.253
	c-47.182-58.9,22.44-99.899,27.619-102.209c-1.727-2.31,0.575-7.507,3.452-8.662c2.877-1.155,8.631,0,3.452,3.465
	c-5.178,3.465,5.179,6.93,5.179,6.93s10.356-3.465,5.179-6.93s0.575-4.62,3.452-3.465c2.877,1.155,5.179,6.352,3.452,8.662
	c5.179,2.31,74.802,43.309,27.619,102.209c15.535-13.282,32.797-24.253,32.797-24.253l20.715-45.041l-22.439-72.759L182.976,0
	l77.678,34.647l29.345,84.886l-32.797,55.435l-46.606,27.718l56.963-10.395l46.607-32.915l17.262-62.365
	c0,0-1.15-16.747-5.179-19.056c7.48,4.62,18.988,22.521,18.988,22.521L329.7,181.897z"/>
</svg>
