<?xml version="1.0" encoding="utf-8"?>
<!-- Generator: Adobe Illustrator 17.0.0, SVG Export Plug-In . SVG Version: 6.00 Build 0)  -->
<!DOCTYPE svg PUBLIC "-//W3C//DTD SVG 1.1//EN" "http://www.w3.org/Graphics/SVG/1.1/DTD/svg11.dtd">
<svg version="1.1" id="Layer_1" xmlns="http://www.w3.org/2000/svg" xmlns:xlink="http://www.w3.org/1999/xlink" x="0px" y="0px"
	 width="320px" height="304.348px" viewBox="0 0 320 304.348" enable-background="new 0 0 320 304.348" xml:space="preserve">
<g>
	<path fill="#FFFFFF" d="M159.998,38l27.022,81.172l2.713,8.148l8.587,0.061l85.542,0.612l-68.851,50.779l-6.911,5.098l2.596,8.187
		l25.855,81.549l-69.572-49.793l-6.985-4.999l-6.984,4.999L83.452,273.6l25.861-81.542l2.597-8.188l-6.913-5.099l-68.854-50.777
		l85.545-0.608l8.589-0.061l2.712-8.15L159.998,38 M159.995,0l-38.393,115.387L0,116.251l97.875,72.178L61.112,304.348
		l98.883-70.777l98.893,70.777L222.135,188.43L320,116.251l-121.594-0.87L159.995,0L159.995,0z"/>
</g>
</svg>
