<?xml version="1.0" encoding="utf-8"?>
<!-- Generator: Adobe Illustrator 17.0.0, SVG Export Plug-In . SVG Version: 6.00 Build 0)  -->
<!DOCTYPE svg PUBLIC "-//W3C//DTD SVG 1.1//EN" "http://www.w3.org/Graphics/SVG/1.1/DTD/svg11.dtd">
<svg version="1.1" id="Lager_1" xmlns="http://www.w3.org/2000/svg" xmlns:xlink="http://www.w3.org/1999/xlink" x="0px" y="0px"
	 width="320px" height="216.552px" viewBox="0 0 320 216.552" enable-background="new 0 0 320 216.552" xml:space="preserve">
<g>
	<path fill="#FFFFFF" d="M22.424,112.673c0.526,1.964,2.743,3.076,4.95,2.485c2.208-0.592,3.571-2.663,3.045-4.627l-0.465-1.734
		l74.197-19.881l-3.618-13.505l-5.329,1.428l-4.709-17.574L21.626,77.717l-0.735-2.744c-0.526-1.964-2.743-3.076-4.95-2.485
		c-2.208,0.592-3.57,2.663-3.044,4.627L22.424,112.673z"/>
	<path fill="#FFFFFF" d="M311.673,0l-78.878,21.135l-23.937,0.203l1.496,5.81l-26.592,7.125l4.709,17.575l-16.722,4.481
		c1.08,5.355,0.117,10.686-2.384,15.113l49.317-13.214l1.609,5.779l20.832-11.792L320,31.079L311.673,0z"/>
	<path fill="#FFFFFF" d="M101.19,67.205l5.416-1.451l7.92,29.9l45.302-12.138l-0.775-2.893c-0.842,0.349-1.713,0.652-2.617,0.894
		c-11.406,3.056-23.175-3.881-26.286-15.494c-0.558-2.083-0.776-4.568-0.731-6.632c0.375-9.207,6.525-17.458,15.749-19.929
		c9.309-2.494,18.858,1.67,23.747,9.598l9.557-2.561l-5.676-21.182l-17.459,4.678l-4.384-16.361l-53.296,14.28l4.384,16.362
		l-6.524,1.748L101.19,67.205z"/>
	<polygon fill="#FFFFFF" points="180.031,136.269 179.973,130.801 160.559,130.766 160.701,100.44 130.354,108.716 130.473,130.764 
		116.596,130.771 116.465,136.244 6.273,207.784 0,207.784 0,216.552 28.615,216.552 28.615,207.784 25.364,207.784 
		128.173,141.794 130.532,141.794 130.629,159.754 133.155,161.108 160.713,161.108 160.713,141.794 170.393,141.88 
		221.719,207.784 210.021,207.784 210.021,216.552 238.637,216.552 238.637,207.784 235.642,207.784 	"/>
	<circle fill="#FFFFFF" cx="150.908" cy="60.21" r="13.917"/>
</g>
</svg>
