<?xml version="1.0" encoding="utf-8"?>
<!-- Generator: Adobe Illustrator 17.0.0, SVG Export Plug-In . SVG Version: 6.00 Build 0)  -->
<!DOCTYPE svg PUBLIC "-//W3C//DTD SVG 1.1//EN" "http://www.w3.org/Graphics/SVG/1.1/DTD/svg11.dtd">
<svg version="1.1" id="Lager_1" xmlns="http://www.w3.org/2000/svg" xmlns:xlink="http://www.w3.org/1999/xlink" x="0px" y="0px"
	 width="176.95px" height="320px" viewBox="0 0 176.95 320" enable-background="new 0 0 176.95 320" xml:space="preserve">
<g>
	<path fill="#FFFFFF" d="M139.999,284.59c-14.164,11.167-32.03,17.849-51.466,17.849c-19.437,0-37.302-6.682-51.466-17.849
		c-2.055,2.013-4.53,3.556-6.366,3.556H15.015C33.402,307.749,59.535,320,88.533,320c28.997,0,55.13-12.251,73.517-31.854h-15.685
		C144.529,288.146,142.053,286.603,139.999,284.59z"/>
	<path fill="#FFFFFF" d="M139.11,153.148c2.188-2.447,5.145-4.479,7.254-4.479h14.131c-9.785-9.981-21.63-17.933-34.845-23.174
		l6.543,22.9C134.578,149.87,136.893,151.447,139.11,153.148z"/>
	<path fill="#FFFFFF" d="M37.954,153.147c2.218-1.7,4.532-3.278,6.917-4.752l6.543-22.9c-13.214,5.241-25.059,13.193-34.845,23.173
		H30.7C32.809,148.668,35.766,150.7,37.954,153.147z"/>
	<rect x="149.683" y="165.711" fill="#FFFFFF" width="27.266" height="105.411"/>
	<path fill="#FFFFFF" d="M27.267,260.93H10.289c-3.757,0.001-6.803-3.046-6.803-6.803v-71.44c0-3.758,3.046-6.804,6.803-6.804
		h16.978v-10.172H0v105.411h27.267V260.93z"/>
	<path fill="#FFFFFF" d="M139.561,236.713c-7.691,20.07-27.633,34.375-51.029,34.375c-18.227,0-34.348-8.69-44.224-22.016v5.056
		c0,3.757-3.046,6.804-6.804,6.804v10.206h102.057V236.713z"/>
	<path fill="#FFFFFF" d="M37.504,175.884c3.757,0,6.804,3.046,6.804,6.804v4.981c9.396-12.679,24.458-21.12,41.596-21.912
		l2.629,0.007l3.12-0.009c22.034,1.208,40.562,15.102,47.908,34.274v-34.351h-20.412l-12.169-47.502H96.439V44.802h3.163V0H77.464
		v44.802h3.163v73.374H70.085l-12.169,47.502H37.504V175.884z"/>
	<path fill="#FFFFFF" d="M13.691,189.491v57.832h20.411v-20.411h14.533c4.053,17.522,20.371,30.631,39.897,30.631
		c22.573,0,40.873-17.515,40.873-39.121s-18.299-39.121-40.872-39.121c-19.515,0-35.826,13.094-39.89,30.601h-14.54v-20.411H13.691z
		"/>
</g>
</svg>
