<?xml version="1.0" encoding="utf-8"?>
<!-- Generator: Adobe Illustrator 17.0.0, SVG Export Plug-In . SVG Version: 6.00 Build 0)  -->
<!DOCTYPE svg PUBLIC "-//W3C//DTD SVG 1.1//EN" "http://www.w3.org/Graphics/SVG/1.1/DTD/svg11.dtd">
<svg version="1.1" id="Lager_1" xmlns="http://www.w3.org/2000/svg" xmlns:xlink="http://www.w3.org/1999/xlink" x="0px" y="0px"
	 width="272.155px" height="320px" viewBox="0 0 272.155 320" enable-background="new 0 0 272.155 320" xml:space="preserve">
<g>
	<path fill="#FFFFFF" d="M163.041,309.895h-3.065v-70.737h-46.979l0.024,70.737h-3.065c-2.665,0-4.826,2.262-4.826,5.052
		c0,2.791,2.161,5.053,4.826,5.053h53.085c2.665,0,4.826-2.262,4.826-5.053C167.867,312.157,165.706,309.895,163.041,309.895z"/>
	<polygon fill="#FFFFFF" points="96.077,148.316 48.919,148.316 48.919,239.158 96.077,239.158 96.077,222.25 176.92,222.25 
		176.92,178.592 96.077,178.592 	"/>
	<path fill="#FFFFFF" d="M25.115,262.988c-5.128-4.076-12.494-4.587-18.232-0.753c-7.11,4.75-9.022,14.365-4.272,21.475
		s14.365,9.022,21.475,4.272c5.738-3.834,8.085-10.836,6.282-17.133l19.224-10.532l11.503-7.686h-23.09L25.115,262.988z"/>
	<path fill="#FFFFFF" d="M265.272,262.235c-5.738-3.834-13.105-3.323-18.232,0.753l-17.087-13.73l-39.559-26.432v15.996
		l32.17,21.495l19.224,10.532c-1.803,6.297,0.544,13.299,6.281,17.133c7.11,4.75,16.725,2.838,21.475-4.272
		C274.294,276.601,272.382,266.986,265.272,262.235z"/>
	<polygon fill="#FFFFFF" points="112.952,107.789 112.972,165.053 159.976,165.053 159.976,107.789 165.544,107.789 159.976,70.737 
		159.976,0 112.915,0 112.94,71.277 107.452,107.789 	"/>
</g>
</svg>
