<?xml version="1.0" encoding="utf-8"?>
<!-- Generator: Adobe Illustrator 17.0.0, SVG Export Plug-In . SVG Version: 6.00 Build 0)  -->
<!DOCTYPE svg PUBLIC "-//W3C//DTD SVG 1.1//EN" "http://www.w3.org/Graphics/SVG/1.1/DTD/svg11.dtd">
<svg version="1.1" id="Lager_1" xmlns="http://www.w3.org/2000/svg" xmlns:xlink="http://www.w3.org/1999/xlink" x="0px" y="0px"
	 width="320px" height="203.117px" viewBox="0 0 320 203.117" enable-background="new 0 0 320 203.117" xml:space="preserve">
<g>
	<polygon fill="#FFFFFF" points="191.848,117.564 191.787,111.737 168.321,111.695 168.309,91.142 144.79,97.022 144.833,111.695 
		124.249,111.705 124.11,117.537 6.685,193.773 0,193.773 0,203.117 30.493,203.117 30.493,193.773 27.029,193.773 136.586,123.451 
		141.843,123.451 141.896,144.033 171.263,144.033 171.263,123.451 181.578,123.543 236.272,193.773 223.807,193.773 
		223.807,203.117 254.301,203.117 254.301,193.773 251.109,193.773 	"/>
	<polygon fill="#FFFFFF" points="316.215,0 282.095,9.161 282.847,11.966 189.37,37.003 180.27,36.347 168.568,39.597 
		165.509,28.15 159.831,29.696 158.317,24.043 115.691,35.456 117.213,41.136 37.698,62.416 39.226,68.119 25.023,71.925 
		29.589,88.963 43.792,85.157 45.296,90.769 124.821,69.533 128.659,83.723 176.926,70.789 172.372,53.793 184.062,50.664 
		191.82,45.543 285.104,20.571 285.981,23.238 320,14.123 	"/>
</g>
</svg>
