<?xml version="1.0" encoding="utf-8"?>
<!-- Generator: Adobe Illustrator 17.0.0, SVG Export Plug-In . SVG Version: 6.00 Build 0)  -->
<!DOCTYPE svg PUBLIC "-//W3C//DTD SVG 1.1//EN" "http://www.w3.org/Graphics/SVG/1.1/DTD/svg11.dtd">
<svg version="1.1" id="Lager_1" xmlns="http://www.w3.org/2000/svg" xmlns:xlink="http://www.w3.org/1999/xlink" x="0px" y="0px"
	 width="305.571px" height="320px" viewBox="0 0 305.571 320" enable-background="new 0 0 305.571 320" xml:space="preserve">
<g>
	<path fill="#FFFFFF" d="M77.326,46.508l-0.023,0.006l20.825,78.844l71.901-18.991l-20.825-78.844l-0.023,0.006
		c-5.218-19.756-25.534-31.523-45.376-26.282C83.962,6.487,72.107,26.752,77.326,46.508L77.326,46.508z"/>
	<polygon fill="#FFFFFF" points="85.024,220.131 209.953,220.131 207.243,203.107 179.082,203.107 162.805,134.742 132.04,134.742 
		115.763,203.107 84.185,203.107 	"/>
	<polygon fill="#FFFFFF" points="289.281,264.636 241.425,264.636 241.425,233.872 60.257,233.872 60.257,264.636 15.819,264.636 
		0,320 305.571,320 	"/>
	<polygon fill="#FFFFFF" points="108.972,186.708 124.107,128.691 91.645,137.266 103.555,179.179 106.604,178.389 	"/>
	<polygon fill="#FFFFFF" points="169.642,124.487 184.876,182.888 201.343,178.539 194.792,155.525 195.848,155.251 
		194.299,149.308 231.479,128.177 230.631,124.966 270.229,113.114 271.506,116.625 305.005,105.003 301.124,91.739 
		265.997,101.481 266.862,103.86 228.018,115.075 227.508,113.144 185.978,117.379 184.752,112.673 140.026,124.487 	"/>
</g>
</svg>
