<?xml version="1.0" encoding="utf-8"?>
<!-- Generator: Adobe Illustrator 17.0.0, SVG Export Plug-In . SVG Version: 6.00 Build 0)  -->
<!DOCTYPE svg PUBLIC "-//W3C//DTD SVG 1.1//EN" "http://www.w3.org/Graphics/SVG/1.1/DTD/svg11.dtd">
<svg version="1.1" id="Lager_1" xmlns="http://www.w3.org/2000/svg" xmlns:xlink="http://www.w3.org/1999/xlink" x="0px" y="0px"
	 width="305.814px" height="320px" viewBox="0 0 305.814 320" enable-background="new 0 0 305.814 320" xml:space="preserve">
<g>
	<polygon fill="#FFFFFF" points="0,310.057 15.162,320 108.892,236.825 114.913,237.137 114.913,214.074 102.049,214.074 	"/>
	<polygon fill="#FFFFFF" points="203.86,214.074 190.692,214.074 190.692,237.137 197.863,236.825 292.404,319.3 305.814,308.491 	
		"/>
	<polygon fill="#FFFFFF" points="174.267,125.141 161.125,125.153 161.114,39.375 164.369,39.375 164.389,0 141.208,0 
		141.208,39.32 144.623,39.495 144.654,125.151 121.438,125.151 121.436,112 39.112,111.841 39.087,121.737 19.356,121.787 
		19.356,161.378 39.087,161.451 39.214,168.036 121.472,168.021 121.532,200.895 131.386,200.895 131.386,214.074 131.386,236.825 
		131.415,236.825 131.509,306.326 141.271,306.326 141.271,319.505 164.334,319.505 164.334,306.326 174.471,306.326 
		174.471,251.414 174.218,251.414 174.218,200.895 180.787,200.895 180.787,141.623 174.172,141.615 	"/>
</g>
</svg>
