<?xml version="1.0" encoding="utf-8"?>
<!-- Generator: Adobe Illustrator 17.0.0, SVG Export Plug-In . SVG Version: 6.00 Build 0)  -->
<!DOCTYPE svg PUBLIC "-//W3C//DTD SVG 1.1//EN" "http://www.w3.org/Graphics/SVG/1.1/DTD/svg11.dtd">
<svg version="1.1" id="Lager_1" xmlns="http://www.w3.org/2000/svg" xmlns:xlink="http://www.w3.org/1999/xlink" x="0px" y="0px"
	 width="320px" height="305.778px" viewBox="0 0 320 305.778" enable-background="new 0 0 320 305.778" xml:space="preserve">
<path fill="#FFFFFF" d="M320,163.555h-32V0H32v163.555H0l53.333,85.333H0v56.889h160h156.444v-56.889h-49.778L320,163.555z
	 M25.889,177.778h20.334V14.222h24.889H96v163.555h18.778h1.555h18.778V14.222H160h24.889v163.555h18.778h1.556H224V14.222h24.889
	h24.889v163.555h20.333l-45.222,71.111L204.445,179L160,248.889L115.556,179l-44.445,69.888L25.889,177.778z M302.222,263.111
	v28.445l-288,0.011v-28.516L302.222,263.111z"/>
</svg>
