<?xml version="1.0" encoding="utf-8"?>
<!-- Generator: Adobe Illustrator 17.0.0, SVG Export Plug-In . SVG Version: 6.00 Build 0)  -->
<!DOCTYPE svg PUBLIC "-//W3C//DTD SVG 1.1//EN" "http://www.w3.org/Graphics/SVG/1.1/DTD/svg11.dtd">
<svg version="1.1" id="Lager_1" xmlns="http://www.w3.org/2000/svg" xmlns:xlink="http://www.w3.org/1999/xlink" x="0px" y="0px"
	 width="284.937px" height="320px" viewBox="0 0 284.937 320" enable-background="new 0 0 284.937 320" xml:space="preserve">
<path fill="#FFFFFF" d="M284.937,119.489C284.937,43.357,225.734,0,147.063,0C68.394,0,0,43.357,0,119.489l118.034,158.615V320
	h53.084v-41.734L284.937,119.489z M252.767,119.489h22.978L170.143,278.045h-9.267l68.91-158.555h22.981V119.489z M197.619,119.489
	h22.978l-61.183,158.555h-7.142l22.366-158.555L197.619,119.489L197.619,119.489z M142.467,119.489h22.981l-15.224,158.555H134.57
	l-15.082-158.555L142.467,119.489L142.467,119.489z M87.319,119.489h22.978l22.751,158.555h-7.24L64.341,119.489
	C64.341,119.489,78.128,119.489,87.319,119.489z M32.17,119.489h22.978l69.079,158.555h-4.881L9.191,119.489H32.17z"/>
</svg>
