<?xml version="1.0" encoding="utf-8"?>
<!-- Generator: Adobe Illustrator 17.0.0, SVG Export Plug-In . SVG Version: 6.00 Build 0)  -->
<!DOCTYPE svg PUBLIC "-//W3C//DTD SVG 1.1//EN" "http://www.w3.org/Graphics/SVG/1.1/DTD/svg11.dtd">
<svg version="1.1" id="Lager_1" xmlns="http://www.w3.org/2000/svg" xmlns:xlink="http://www.w3.org/1999/xlink" x="0px" y="0px"
	 width="149.146px" height="320px" viewBox="0 0 149.146 320" enable-background="new 0 0 149.146 320" xml:space="preserve">
<g>
	<path fill="#FFFFFF" d="M62.122,61.09c0.077,83.64,0.153,128.938,0.201,151.353h27.2c0.025-22.028,0.041-66.427-0.034-149.146
		C89.466,39.843,75.39,0,75.39,0S62.101,37.635,62.122,61.09z"/>
	<path fill="#FFFFFF" d="M128.915,231.424l-39.427,0.001v-0.001H62.37l0,0H45.921h-25.69C18.355,228.185,14.86,226,10.846,226
		C4.857,226.001,0,230.857,0,236.848c0.001,5.991,4.857,10.847,10.847,10.847c4.012,0,7.507-2.184,9.384-5.423l44.851,0.001
		c0,0-1.742,16.972-1.732,26.684c0.012,14.016,1.932,30.98,1.932,30.98s-7.401,1.04-7.395,8.739
		c0.005,4.738,2.126,11.435,17.774,11.323c15.65-0.112,17.759-6.839,17.755-11.576c-0.007-7.7-7.409-8.634-7.409-8.634
		s1.888-16.992,1.875-31.008c-0.009-9.71-3.818-26.51-3.818-26.51h44.852c1.876,3.239,5.372,5.424,9.384,5.424
		c5.99,0,10.847-4.857,10.847-10.847s-4.857-10.847-10.847-10.847C134.286,226.001,130.791,228.185,128.915,231.424z"/>
</g>
</svg>
