<?xml version="1.0" encoding="utf-8"?>
<!-- Generator: Adobe Illustrator 17.0.0, SVG Export Plug-In . SVG Version: 6.00 Build 0)  -->
<!DOCTYPE svg PUBLIC "-//W3C//DTD SVG 1.1//EN" "http://www.w3.org/Graphics/SVG/1.1/DTD/svg11.dtd">
<svg version="1.1" id="Layer_1" xmlns="http://www.w3.org/2000/svg" xmlns:xlink="http://www.w3.org/1999/xlink" x="0px" y="0px"
	 width="214.475px" height="320px" viewBox="0 0 214.475 320" enable-background="new 0 0 214.475 320" xml:space="preserve">
<path fill="#FFFFFF" d="M45.023,234.189l35.15,81.574L102.684,320l0.604-319.202L83,0.716L45.023,234.189z M57.687,0L0,122.374
	l28.13,59.069l15.479,7.025L75.956,0H57.687z M49.24,0H30.254L2.828,20.4L2.111,69.627l10.554,4.934L49.24,0z M111.2,1.056
	L111.803,320l22.499-4.236l35.163-81.574L131.486,0.716L111.2,1.056z M156.801,0h-18.282l32.359,188.469l15.479-7.025l28.118-59.069
	L156.801,0z M212.376,69.627L211.659,20.4L184.233,0h-18.985l36.577,74.561L212.376,69.627z"/>
</svg>
