<?xml version="1.0" encoding="utf-8"?>
<!-- Generator: Adobe Illustrator 17.0.0, SVG Export Plug-In . SVG Version: 6.00 Build 0)  -->
<!DOCTYPE svg PUBLIC "-//W3C//DTD SVG 1.1//EN" "http://www.w3.org/Graphics/SVG/1.1/DTD/svg11.dtd">
<svg version="1.1" id="Lager_1" xmlns="http://www.w3.org/2000/svg" xmlns:xlink="http://www.w3.org/1999/xlink" x="0px" y="0px"
	 width="320px" height="312.516px" viewBox="0 0 320 312.516" enable-background="new 0 0 320 312.516" xml:space="preserve">
<g>
	<path fill="#FFFFFF" d="M105.752,130.19v-0.658h5.818c-4.647-10.831-7.327-24.117-7.327-39.787c0-0.758,0.027-1.495,0.047-2.237
		c-13.918,0-37.313,0-37.313,0s-37.601,0-45.826,0S0,96.848,0,112.024s0,94.556,0,94.556c0,11.673,21.151,11.673,21.151,0
		c0-11.675,0-77.047,0-77.047h7.048v108.565h38.778c0-30.28,0-62.754,0-73.295c0-21.426,17.953-34.612,29.376-34.612
		C98.373,130.19,101.692,130.19,105.752,130.19z"/>
	<path fill="#FFFFFF" d="M67.008,77.045c17.523,0,31.727-21.534,31.727-43.777C98.736,11.025,84.532,0,67.008,0
		c-17.52,0-31.725,11.025-31.725,33.268S49.488,77.045,67.008,77.045z"/>
	<path fill="#FFFFFF" d="M298.849,87.508c-8.225,0-45.826,0-45.826,0s-23.267,0-37.199,0c0.02,0.742,0.047,1.48,0.047,2.237
		c0,15.831-2.574,29.063-7.047,39.787h5.424v0.658c4.061,0,7.379,0,9.4,0c11.423,0,29.376,13.186,29.376,34.612
		c0,10.541,0,43.014,0,73.295H291.8V129.532h7.05c0,0,0,65.372,0,77.047c0,11.673,21.151,11.673,21.151,0c0,0,0-79.38,0-94.556
		S307.074,87.508,298.849,87.508z"/>
	<path fill="#FFFFFF" d="M253.055,77.045c17.523,0,31.727-21.534,31.727-43.777C284.782,11.025,270.578,0,253.055,0
		c-17.521,0-31.725,11.025-31.725,33.268C221.33,55.511,235.534,77.045,253.055,77.045z"/>
	<path fill="#FFFFFF" d="M208.372,152.516c-8.682,0-48.372,0-48.372,0s-39.69,0-48.372,0s-22.326,9.923-22.326,26.047
		s0,100.465,0,100.465c0,12.403,22.326,12.403,22.326,0s0-81.86,0-81.86h7.442v115.349H160h40.93v-115.35h7.442
		c0,0,0,69.457,0,81.86s22.326,12.403,22.326,0c0,0,0-84.341,0-100.465S217.054,152.516,208.372,152.516z"/>
	<path fill="#FFFFFF" d="M160.034,141.398c18.497,0,33.488-22.88,33.488-46.512c0-23.634-14.992-35.349-33.488-35.349
		c-18.495,0-33.488,11.715-33.488,35.349C126.546,118.517,141.539,141.398,160.034,141.398z"/>
</g>
</svg>
