<?xml version="1.0" encoding="utf-8"?>
<!-- Generator: Adobe Illustrator 17.0.0, SVG Export Plug-In . SVG Version: 6.00 Build 0)  -->
<!DOCTYPE svg PUBLIC "-//W3C//DTD SVG 1.1//EN" "http://www.w3.org/Graphics/SVG/1.1/DTD/svg11.dtd">
<svg version="1.1" id="Lager_1" xmlns="http://www.w3.org/2000/svg" xmlns:xlink="http://www.w3.org/1999/xlink" x="0px" y="0px"
	 width="281.4px" height="320px" viewBox="0 0 281.4 320" enable-background="new 0 0 281.4 320" xml:space="preserve">
<g>
	<path fill="#FFFFFF" d="M248.04,88.381l14.76-14.759l-20.747-20.747l-15.214,15.214c-20.576-15.961-45.684-26.341-73.083-28.864
		V22.821h16.301V0h-58.682v22.821h16.301v16.402C56.078,45.799,0,105.988,0,179.3C0,257.007,62.993,320,140.7,320
		c77.706,0,140.699-62.993,140.699-140.7C281.4,144.628,268.834,112.906,248.04,88.381z M140.693,299.932
		c-66.623,0-120.631-54.009-120.631-120.631c0-66.623,54.009-120.631,120.631-120.631c66.623,0,120.632,54.009,120.632,120.631
		C261.324,245.923,207.315,299.932,140.693,299.932z"/>
	<path fill="#FFFFFF" d="M140.715,179.307l78.282-79.431c-20.224-19.346-47.822-31.312-78.282-31.404V179.307z"/>
</g>
</svg>
