<?xml version="1.0" encoding="utf-8"?>
<!-- Generator: Adobe Illustrator 17.0.0, SVG Export Plug-In . SVG Version: 6.00 Build 0)  -->
<!DOCTYPE svg PUBLIC "-//W3C//DTD SVG 1.1//EN" "http://www.w3.org/Graphics/SVG/1.1/DTD/svg11.dtd">
<svg version="1.1" id="Lager_1" xmlns="http://www.w3.org/2000/svg" xmlns:xlink="http://www.w3.org/1999/xlink" x="0px" y="0px"
	 width="320px" height="320px" viewBox="0 0 320 320" enable-background="new 0 0 320 320" xml:space="preserve">
<g>
	<path fill="#FFFFFF" d="M160.002,0C71.636,0,0,71.635,0,160s71.636,160,160.002,160C248.366,320,320,248.365,320,160
		S248.366,0,160.002,0z M160.002,280C93.726,280,40,226.274,40,160S93.726,40,160.002,40C226.276,40,280,93.726,280,160
		S226.276,280,160.002,280z"/>
	<polygon fill="#FFFFFF" points="171.186,62.283 146.271,62.281 146.271,174.398 146.721,174.398 218.311,236.302 233.438,220.029 
		171.186,161.551 	"/>
</g>
</svg>
