<?xml version="1.0" encoding="utf-8"?>
<!-- Generator: Adobe Illustrator 17.0.0, SVG Export Plug-In . SVG Version: 6.00 Build 0)  -->
<!DOCTYPE svg PUBLIC "-//W3C//DTD SVG 1.1//EN" "http://www.w3.org/Graphics/SVG/1.1/DTD/svg11.dtd">
<svg version="1.1" id="Lager_1" xmlns="http://www.w3.org/2000/svg" xmlns:xlink="http://www.w3.org/1999/xlink" x="0px" y="0px"
	 width="130.388px" height="320px" viewBox="0 0 130.388 320" enable-background="new 0 0 130.388 320" xml:space="preserve">
<path fill="#FFFFFF" d="M130.091,154.157c0-0.779-42.131-14.569-42.131-15.086c0-28.589,0-88.648,0-88.648
	C87.96,19.892,62.369,0,62.369,0S37.834,18.515,37.834,50.423c0,0,0,60.312,0,88.648c0,0.196-37.669,15.752-37.669,16.482
	c0,3.199-0.497,12.768,0.234,12.768c2.047,0,37.436,0,37.436,0c0,8.256,0,48.072,0,55.962c0,11.674,7.288,8.544,7.288,18.517
	c0,4.618,7.676,12.921,7.676,12.921l-26.866,23.947V320l26.252-22.235v-34.034l2.247-2.244v34.407V320l11.858-10.303v-18.339
	L98.806,320v-40.173l-26.862-24.105c0,0,8.729-9.154,8.729-12.921c0-14.016,7.287-8.545,7.287-18.517c0-7.062,0-49.267,0-56.072
	c0,0.11,38.46,0.11,41.96,0.11C130.861,168.321,130.091,157.348,130.091,154.157z"/>
</svg>
