<?xml version="1.0" encoding="utf-8"?>
<!-- Generator: Adobe Illustrator 17.0.0, SVG Export Plug-In . SVG Version: 6.00 Build 0)  -->
<!DOCTYPE svg PUBLIC "-//W3C//DTD SVG 1.1//EN" "http://www.w3.org/Graphics/SVG/1.1/DTD/svg11.dtd">
<svg version="1.1" id="Lager_1" xmlns="http://www.w3.org/2000/svg" xmlns:xlink="http://www.w3.org/1999/xlink" x="0px" y="0px"
	 width="145.455px" height="320px" viewBox="0 0 145.455 320" enable-background="new 0 0 145.455 320" xml:space="preserve">
<g>
	<path fill="#FFFFFF" d="M100.818,23.273H43.636L21.091,58.182l-6.546,52.364L32,165.818v125.091l5.818,5.818h68.818l5.818-5.818
		V165.818l17.455-55.273l-6.546-52.364L100.818,23.273z M36.364,122.909c-8.837,0-16-7.164-16-16c0-8.837,7.163-16,16-16
		c8.836,0,16,7.163,16,16C52.364,115.745,45.2,122.909,36.364,122.909z M42.182,85.091c-8.837,0-16-7.163-16-16s7.163-16,16-16
		s16,7.163,16,16S51.019,85.091,42.182,85.091z M117.045,135.256c-2.088,6.356-8.889,7.289-8.889,7.289H92.364H76.572
		c0,0-5.714-0.581-8.897-7.312c-3.896-8.238-9.492-24.688-9.492-24.688s4.403-20.325,7.703-31.89
		c2.241-7.851,7.777-8.838,7.777-8.838h3.429V51.636c0-5.759,3.514-7.273,8-7.273h14.545c4.304,0,8,1.696,8,7.273v18.182h3.429
		c0,0,5.743,1.087,7.829,9.051c3.055,11.665,7.652,31.677,7.652,31.677S119.889,126.601,117.045,135.256z"/>
	<path fill="#FFFFFF" d="M106.636,8.727V5.818c0-3.213-2.605-5.818-5.818-5.818H43.637c-3.213,0-5.818,2.605-5.818,5.818v2.909
		L0,52.364v101.818l2.909,2.909v145.455l20.363,8.727v2.909l0,0l0,0c0,3.213,2.605,5.818,5.818,5.818h86.272
		c3.213,0,5.818-2.605,5.818-5.818l0,0l0,0v-2.909l20.363-8.727V157.091l2.909-2.909V52.364L106.636,8.727z M124.091,165.818
		v125.091c0,0-0.4,5.382-2.909,8.728c-1.509,2.013-3.601,4.281-5.266,6c-1.551,1.601-5.643,2.727-5.643,2.727H34.182
		c0,0-4.091-1.126-5.643-2.727c-1.666-1.72-3.757-3.988-5.266-6c-2.509-3.346-2.909-8.728-2.909-8.728V165.818L5.818,110.545
		l2.909-52.364c0,0,21.119-30.559,29.091-40.727c4.339-5.535,8.727-5.818,8.727-5.818h51.363c0,0,4.388,0.284,8.727,5.818
		c7.972,10.168,29.091,40.727,29.091,40.727l2.909,52.364L124.091,165.818z"/>
	<path fill="#FFFFFF" d="M101.091,81.455V52.342h-5.848v29.112h-2.879h-2.909V52.342h-5.848v29.112h-7.08l-6.68,29.091l7.407,20.364
		h15.11h15.11l7.407-20.364l-6.68-29.091h-7.11V81.455z M93.091,125.222c-6.485,0-11.743-5.269-11.743-11.768
		s5.257-11.768,11.743-11.768c6.485,0,11.743,5.268,11.743,11.768C104.834,119.953,99.577,125.222,93.091,125.222z"/>
</g>
</svg>
