<?xml version="1.0" encoding="utf-8"?>
<!-- Generator: Adobe Illustrator 17.0.0, SVG Export Plug-In . SVG Version: 6.00 Build 0)  -->
<!DOCTYPE svg PUBLIC "-//W3C//DTD SVG 1.1//EN" "http://www.w3.org/Graphics/SVG/1.1/DTD/svg11.dtd">
<svg version="1.1" id="Lager_1" xmlns="http://www.w3.org/2000/svg" xmlns:xlink="http://www.w3.org/1999/xlink" x="0px" y="0px"
	 width="134.631px" height="320px" viewBox="0 0 134.631 320" enable-background="new 0 0 134.631 320" xml:space="preserve">
<g>
	<path fill="#FFFFFF" d="M39.797,75.685c1.084-0.623,2.161-1.229,3.243-1.848c-0.122-0.241-0.245-0.486-0.367-0.726
		c4.295-6.155,8.583-12.298,12.857-18.405c2.94-0.086,7.848-0.144,11.785-0.174c3.937,0.03,8.845,0.088,11.785,0.174
		c4.274,6.106,8.562,12.25,12.856,18.405c-0.122,0.241-0.245,0.485-0.367,0.726c1.082,0.619,2.159,1.225,3.243,1.848
		c-0.006-0.015,1.368,0.049,3.248,0.134c-2.887-23.541-6.041-47.102-9.277-70.449C81.709,3.372,74.009,1.575,67.315,0
		c-6.693,1.575-14.393,3.372-21.488,5.369c-3.235,23.347-6.389,46.908-9.276,70.449C38.43,75.734,39.804,75.669,39.797,75.685z"/>
	<path fill="#FFFFFF" d="M84.836,130.68c-5.965-0.083-12.085-0.131-17.521-0.146c-5.435,0.015-11.556,0.064-17.521,0.146
		c0.167,9.544-0.372,34.56-0.171,42.109c-3.971,41.199-7.459,67.445-6.595,80.003c0.238,3.575,1.054,5.318,2.537,8.008
		c2.789,5.052,10.203,9.259,21.749,10.252c11.547-0.994,18.961-5.201,21.749-10.252c1.483-2.69,2.299-4.433,2.537-8.008
		c0.864-12.558-2.624-38.804-6.595-80.003C85.208,165.241,84.669,140.224,84.836,130.68z"/>
	<path fill="#FFFFFF" d="M126.566,32.978c-2.803-8.919-11.537-15.888-23.277-22.053c3.244,21.727,5.55,45.462,8.068,67.945
		c5.241,4.979,13.657,11.974,13.673,11.975c0.004,0.002,5.428,4.393-0.251,11.813c-2.409,3.15-7.947-0.187-7.945-0.186
		c-1.783-1.593-3.216-2.7-4.53-3.644c-2.001,6.97-4.049,14.415-6.082,21.329c-1.561,7.21-5.488,10.404-7.074,17.685
		c0.018,0.332-0.201,25.368,0,35.371c4.574,43.502,7.579,68.72,7.074,81.352c-0.505,12.632-4.791,28.069-38.908,30.794
		c-34.117-2.724-38.402-18.161-38.908-30.794c-0.505-12.633,2.499-37.85,7.074-81.352c0.201-10.002-0.018-35.038,0-35.371
		c-1.586-7.282-5.513-10.475-7.074-17.685c-2.033-6.914-4.081-14.359-6.081-21.329c-1.314,0.943-2.747,2.05-4.53,3.643
		c0.002,0-5.948,3.613-7.945,0.186c-4.5-7.714-0.256-11.811-0.251-11.813c0.015,0,8.432-6.995,13.673-11.975
		c2.518-22.483,4.824-46.218,8.068-67.945C19.602,17.09,10.868,24.059,8.065,32.978C4.823,43.295,0,53.091,0,105.557
		s18.657,191.1,21.015,201.711C23.373,317.88,28.408,320,28.408,320s7.664,0,10.612,0c2.947,0,7.074-15.917,7.074-15.917h21.222
		h21.223c0,0,4.126,15.917,7.074,15.917s10.611,0,10.611,0s5.035-2.12,7.394-12.732c2.358-10.611,21.015-149.245,21.015-201.711
		C134.631,53.091,129.808,43.295,126.566,32.978z"/>
	<path fill="#FFFFFF" d="M43.944,116.764c7.689-0.163,16.132-0.256,23.372-0.28c7.24,0.024,15.683,0.117,23.372,0.28
		c1.065-1.736,1.976-3.501,2.405-5.357c2.008-6.147,4.014-12.255,6.007-18.326c-2.871,0.302-6.337,0.406-8.19-0.531
		c-1.306-0.675-4.228-2.129-6.996-3.497c-0.662,1.32-1.324,2.632-1.986,3.956c-3.84-0.079-9.858-0.128-14.613-0.147
		c-4.755,0.02-10.772,0.069-14.613,0.147c-0.662-1.324-1.324-2.636-1.986-3.956c-2.768,1.368-5.691,2.822-6.997,3.497
		c-1.853,0.937-5.318,0.833-8.189,0.531c1.994,6.071,3.999,12.179,6.007,18.326C41.967,113.264,42.879,115.028,43.944,116.764z"/>
</g>
</svg>
