<?xml version="1.0" encoding="utf-8"?>
<!-- Generator: Adobe Illustrator 17.0.0, SVG Export Plug-In . SVG Version: 6.00 Build 0)  -->
<!DOCTYPE svg PUBLIC "-//W3C//DTD SVG 1.1//EN" "http://www.w3.org/Graphics/SVG/1.1/DTD/svg11.dtd">
<svg version="1.1" id="Lager_1" xmlns="http://www.w3.org/2000/svg" xmlns:xlink="http://www.w3.org/1999/xlink" x="0px" y="0px"
	 width="103.921px" height="320px" viewBox="0 0 103.921 320" enable-background="new 0 0 103.921 320" xml:space="preserve">
<path fill="#FFFFFF" d="M62.907,252.203c0-4.079-2.226-7.63-5.523-9.52v-15.112h-2.712v-43.192H49.22v43.192h-2.684v15.112
	c-3.296,1.89-5.523,5.442-5.523,9.52c0,4.079,2.226,7.63,5.523,9.52v9.463h10.847v-9.463
	C60.681,259.834,62.907,256.282,62.907,252.203z"/>
<path fill="#FFFFFF" d="M103.486,116.61C100.774,80.678,72.13,14.915,60.096,0H51.96h-8.136
	C31.791,14.915,3.147,80.678,0.435,116.61S8.571,320,8.571,320h43.39h43.39C95.35,320,106.198,152.542,103.486,116.61z
	 M41.113,132.881h21.695c2.995,0,5.424,2.428,5.424,5.424c0,2.995-2.428,5.424-5.424,5.424H41.113c-2.996,0-5.424-2.428-5.424-5.424
	C35.689,135.31,38.118,132.881,41.113,132.881z M19.418,180.92c0,1.926-1.613,3.487-3.755,3.487c-2.332,0-4.38-1.821-4.38-4.068
	v-29.831c0-2.246,2.048-2.702,4.38-1.147c2.142,1.428,3.755,4.064,3.755,5.99V180.92z M24.991,148.187
	c-2.391,0.342-4.763-0.39-8.239-2.666c-2.506-1.641-2.653-4.482-0.296-5.756l10.698-4.293c2.676-1.031,4.641,0.96,5.578,4.12
	c0.862,2.904-0.195,5.435-2.474,6.536L24.991,148.187z M68.232,266.557v7.341c0,4.013-3.699,8.136-8.135,8.136H43.825
	c-4.69,0-8.136-4.208-8.136-8.136v-7.341c-3.362-3.827-5.405-8.845-5.405-14.344c0-5.639,2.145-10.775,5.661-14.636
	c-0.165-0.519-0.255-1.071-0.255-1.644v-10.847c0-2.006,1.092-3.754,2.712-4.692v-35.986c0-6.385,2.428-10.847,8.136-10.847h10.847
	c5.453,0,8.136,4.378,8.136,10.847v35.986c1.62,0.938,2.712,2.686,2.712,4.692v10.847c0,0.573-0.09,1.125-0.255,1.644
	c3.516,3.861,5.661,8.998,5.661,14.636C73.637,257.712,71.594,262.73,68.232,266.557z M78.93,148.187l-5.267-2.059
	c-2.279-1.101-3.336-3.631-2.474-6.536c0.938-3.16,2.903-5.151,5.579-4.12l10.697,4.293c2.357,1.274,2.21,4.114-0.296,5.756
	C83.693,147.798,81.321,148.529,78.93,148.187z M92.639,180.339c0,2.247-2.049,4.068-4.381,4.068c-2.142,0-3.755-1.561-3.755-3.487
	v-25.569c0-1.926,1.613-4.562,3.755-5.99c2.333-1.555,4.381-1.099,4.381,1.147V180.339z"/>
</svg>
