<?xml version="1.0" encoding="utf-8"?>
<!-- Generator: Adobe Illustrator 17.0.0, SVG Export Plug-In . SVG Version: 6.00 Build 0)  -->
<!DOCTYPE svg PUBLIC "-//W3C//DTD SVG 1.1//EN" "http://www.w3.org/Graphics/SVG/1.1/DTD/svg11.dtd">
<svg version="1.1" id="Lager_1" xmlns="http://www.w3.org/2000/svg" xmlns:xlink="http://www.w3.org/1999/xlink" x="0px" y="0px"
	 width="151.671px" height="320px" viewBox="0 0 151.671 320" enable-background="new 0 0 151.671 320" xml:space="preserve">
<g>
	<path fill="#FFFFFF" d="M52.743,287.01c-10.475,1.427-13.196,4.075-13.196,13.196c0,7.795,0,16.495,0,16.495S43.517,320,52.743,320
		c9.227,0,13.196-3.299,13.196-3.299s0-8.701,0-16.495C65.939,291.159,62.733,288.535,52.743,287.01z"/>
	<path fill="#FFFFFF" d="M99.472,0.02C88.808,0.02,75.836,0,75.836,0S62.864,0.02,52.199,0.02C5.065,40.828,0,104.103,0,141.242
		v128.934l9.856,13.535h6.598l9.897-13.196h13.196v3.299c0,0,2.411,6.598,6.598,6.598c10.642,0,29.691,0,29.691,0s18.955,0,29.69,0
		c4.516,0,6.598-6.598,6.598-6.598v-3.299h13.196l9.897,13.196h6.598l9.856-13.535V141.242
		C151.671,104.103,146.606,40.828,99.472,0.02z M122.021,247.422c0,0-2.896,9.897-9.897,9.897c-13.04,0-36.288,0-36.288,0
		s-23.423,0-36.289,0c-6.556,0-9.897-9.897-9.897-9.897L29.638,141.94c0-39.761,21.108-114.714,36.301-118.847h9.897h9.897
		c15.192,4.133,36.3,79.086,36.3,118.847L122.021,247.422z"/>
	<path fill="#FFFFFF" d="M75.836,36.289l-5.705-0.221c-7.913,14.97-27.286,51.629-27.286,112.386v95.67h32.99h32.99v-95.67
		c0-60.757-18.414-98.292-26.391-112.165C82.434,36.289,75.836,36.289,75.836,36.289z"/>
	<path fill="#FFFFFF" d="M98.929,287.01c-9.99,1.525-13.196,4.149-13.196,13.196c0,7.794,0,16.495,0,16.495S89.702,320,98.929,320
		c9.226,0,13.196-3.299,13.196-3.299s0-8.7,0-16.495C112.125,291.085,109.404,288.437,98.929,287.01z"/>
</g>
</svg>
