<?xml version="1.0" encoding="utf-8"?>
<!-- Generator: Adobe Illustrator 17.0.0, SVG Export Plug-In . SVG Version: 6.00 Build 0)  -->
<!DOCTYPE svg PUBLIC "-//W3C//DTD SVG 1.1//EN" "http://www.w3.org/Graphics/SVG/1.1/DTD/svg11.dtd">
<svg version="1.1" id="Lager_1" xmlns="http://www.w3.org/2000/svg" xmlns:xlink="http://www.w3.org/1999/xlink" x="0px" y="0px"
	 width="320px" height="80.365px" viewBox="0 0 320 80.365" enable-background="new 0 0 320 80.365" xml:space="preserve">
<g>
	<path fill="#FFFFFF" d="M77.571,13.925h0.004v23.579c0.091,1.552,1.366,2.787,2.944,2.787h38.615V11.115H80.519
		C78.934,11.115,77.65,12.362,77.571,13.925z"/>
	<path fill="#FFFFFF" d="M44.329,5.713c0-1.634-1.211-2.959-2.847-2.959S38.75,4.079,38.75,5.713v12.388H20.267
		c-0.527-0.819-1.442-1.364-2.489-1.364H2.963C1.327,16.737,0,18.062,0,19.696v5.109c0,1.634,1.327,2.958,2.963,2.958h14.815
		c1.047,0,1.962-0.545,2.489-1.364h18.482v2.749h-8.1c-1.636,0-2.963,1.209-2.963,2.843v2.497c0,1.634,1.327,2.959,2.963,2.959
		H73.42v-8.298H44.329V26.4H73.42v-8.298H44.329V5.713z"/>
	<path fill="#FFFFFF" d="M317.037,15.316h-22.222h-13.333c-0.526,0-1.024,0-1.481,0c-5,0-12.5,8.698-24.375,5.545
		S231.112,6.96,231.112,6.96V3.308c0-1.083-2.162-3.254-5-3.254h-2.569c-3.463,0.883-11.209,2.576-13.171,3.254
		c0,0-1.819,1.561-1.847,3.651h-82.434c-1.123,0-2.791,1.543-2.791,2.932v1.223h-0.008v13.892h23.55V18.08h-2.77v-6.926h31.861
		v6.926h-2.77v6.926h56.797c0.765,0,1.385,1.24,1.385,2.771c0,1.53-0.62,2.771-1.385,2.771h-56.797v6.961h5.57
		c0,4.314,0,8.829,0,13.136c0,2.591,1.847,6.263,4.877,6.263s13.73-0.08,16.296,0c2.259,0.071,1.868,0.399,2.562,1.452
		c2.226,4.773,2.226,4.773,5.876,12.85c0.704,1.351,2.138,4.389,2.138,4.389s1.75,1.66,2.851,1.347
		c3.536-1.007,8.749-3.374,12.295-4.384c1.108-0.315,3.115-1.729,3.115-1.729s-4.676-7.251-8.115-11.512
		c-2.358-2.921-2.879-3.752-5-6.936c-1.056-1.585-1.875-1.991-1.875-3.783c0-2.67,2.007-5.402,5.509-5.614
		c0.389-0.024,10.37,0,10.37,0s4.445-0.068,4.445-2.959c0-0.326,0-0.708,0-1.133c3.979,0,11.143,0,16.296,0
		c7.054,0,17.099,4.124,28.148,7.762v4.506c0,1.045,1.927,2.959,2.963,2.959h35.556c1.035,0,2.963-1.914,2.963-2.959V17.881
		C320,16.837,318.072,15.316,317.037,15.316z M194.501,54.063c-4.054-0.126-7.363,0.141-11.417,0.015
		c-2.969-2.382-1.507-8.742,1.216-9.961c1.839-0.549,6.019-0.403,7.299,0.377c2.148,4.63,1.459,4.365,0.936,8.852
		c0.25-0.251,0.499-0.502,0.749-0.753c2.18-1.335,2.06-4.508,2.084-6.779c0.008-0.766-0.547-1.429-0.213-1.885
		c0.686,0.251,1.372,0.502,2.059,0.753C198.418,48.521,198.215,52.193,194.501,54.063z"/>
	<path fill="#FFFFFF" d="M146.839,30.549h-23.55v9.742h15.873c1.574,0,2.849-1.23,2.945-2.778h4.732V30.549z"/>
	<path fill="#FFFFFF" d="M172.977,41.77h-25.955c-1.636,0-2.963,1.325-2.963,2.959v28.568c0,1.634,1.327,2.959,2.963,2.959h25.955
		c1.636,0,2.963-1.325,2.963-2.959V44.728C175.94,43.094,174.613,41.77,172.977,41.77z"/>
	<path fill="#FFFFFF" d="M88.658,44.402h-2.771c-1.53,0-2.77,1.24-2.77,2.771v2.771c0,1.038,0.577,1.932,1.422,2.406
		c-0.016,0.12-0.037,0.24-0.037,0.364v24.935c0,1.53,1.24,2.771,2.771,2.771c1.53,0,2.771-1.24,2.771-2.771V52.713
		c0-0.125-0.021-0.244-0.037-0.364c0.845-0.475,1.422-1.368,1.422-2.406v-2.771C91.428,45.642,90.188,44.402,88.658,44.402z"/>
	<path fill="#FFFFFF" d="M158.614,39.579c3.463,0,12.468,0,12.468,0v-2.078v-2.078c0,0-9.004,0-12.468,0
		c-3.463,0-9.697,2.078-9.697,2.078S155.151,39.579,158.614,39.579z"/>
	<path fill="#FFFFFF" d="M158.614,34.038c3.463,0,12.468,0,12.468,0V31.96v-2.078c0,0-9.004,0-12.468,0
		c-3.463,0-9.697,2.078-9.697,2.078S155.151,34.038,158.614,34.038z"/>
	<path fill="#FFFFFF" d="M158.614,28.497c3.463,0,12.468,0,12.468,0v-2.078v-2.078c0,0-9.004,0-12.468,0
		c-3.463,0-9.697,2.078-9.697,2.078S155.151,28.497,158.614,28.497z"/>
	<path fill="#FFFFFF" d="M158.614,22.956c3.463,0,12.468,0,12.468,0v-2.078V18.8c0,0-9.004,0-12.468,0
		c-3.463,0-9.697,2.078-9.697,2.078S155.151,22.956,158.614,22.956z"/>
	<path fill="#FFFFFF" d="M171.082,17.415v-2.078v-2.078c0,0-9.004,0-12.468,0c-3.463,0-9.697,2.078-9.697,2.078
		s6.234,2.078,9.697,2.078S171.082,17.415,171.082,17.415z"/>
</g>
</svg>
