<?xml version="1.0" encoding="utf-8"?>
<!-- Generator: Adobe Illustrator 17.0.0, SVG Export Plug-In . SVG Version: 6.00 Build 0)  -->
<!DOCTYPE svg PUBLIC "-//W3C//DTD SVG 1.1//EN" "http://www.w3.org/Graphics/SVG/1.1/DTD/svg11.dtd">
<svg version="1.1" id="Lager_1" xmlns="http://www.w3.org/2000/svg" xmlns:xlink="http://www.w3.org/1999/xlink" x="0px" y="0px"
	 width="320px" height="66.381px" viewBox="0 0 320 66.381" enable-background="new 0 0 320 66.381" xml:space="preserve">
<path fill="#FFFFFF" d="M93.617,16.575h68.085c1.599,0,5.106,1.805,5.106,3.404c0,0,0.219,1.702,0,11.915
	c0,3.326-2.102,3.401-3.404,3.404H93.617c-1.599,0-3.404-1.805-3.404-3.404V19.979C90.213,18.38,92.018,16.575,93.617,16.575z"/>
<g>
	<path fill="#FFFFFF" d="M45.957,20.426v-3.404h39.149V8.511H45.941V2.092C45.941,0.937,43.654,0,40.834,0
		c-2.821,0-5.107,0.937-5.107,2.092v6.419H3.404C1.805,8.511,0,9.728,0,11.327v2.895c0,1.599,1.805,2.799,3.404,2.799h32.109v3.404
		h-8.28c-1.599,0-2.619,0.883-2.619,2.483v2.895c0,1.599,1.019,3.133,2.619,3.133h57.872v-8.511H45.957V20.426z"/>
	<path fill="#FFFFFF" d="M316.513,17.117c0,0-37.754-4.345-55.315-6.469c-3.943-0.477-7.581,2.969-7.581,2.969h-20.426l-6.526-1.707
		c-1.656-1.862-3.679-3.479-3.679-3.479h-0.505c-0.547-0.79-1.461-1.396-2.391-1.566V4.089c0-1.599-1.297-2.895-2.896-2.895h-7.24
		c-1.599,0-2.896,1.296-2.896,2.895v2.72H93.617c-1.117,0-2.388,0.724-3.062,1.702h-0.343v5.106c0-1.599,1.805-1.702,3.404-1.702
		h71.49c1.599,0,6.808,3.508,6.808,5.107c0,0,0.194,3.026,0.034,11.915h13.584v1.702c0,0,0,6.339,0,8.511
		c0,3.593,3.404,5.106,3.404,5.106c4.232-0.021,15.941-0.086,18.723,0c2.449,0.076,2.99,0.683,3.743,1.815
		c2.413,5.134,8.138,16.63,6.371,14.099c0.763,1.453,2.317,4.72,2.317,4.72s1.898,1.786,3.091,1.448
		c3.834-1.082,10.917-2.044,14.762-3.129c1.201-0.339,1.945-3.445,1.945-3.445s-5.187-9.073-8.915-13.656
		c-2.556-3.142-3.947-5.78-6.246-9.204c-1.145-1.705-1.741-4.832-1.741-6.759c0-0.621-0.041-1.231-0.069-1.812
		c0.9-0.491,1.517-1.434,1.517-2.531v1.521l5.792-0.073l22.102,4.746c0,0,7.142,1.752,16.987,5.662
		c9.845,3.91,39.187,15.209,39.187,15.209l3.282,1.777c0,0,3.872,0.794,3.872-2.784c0-4.822,4.344-22.935,4.344-30.401
		C320,17.789,316.513,17.117,316.513,17.117z M201.267,41.727c-4.396-0.135-6.28-0.434-10.676-0.569
		c-3.219-2.562-3.336-8.817-0.383-10.128c1.994-0.59,6.526-0.434,7.913,0.405c2.148,2.989,0.798,4.154-0.674,7.713
		c0.271-0.27,1.432,0.27,1.702,0c2.364-1.436,3.031-3.851,3.058-6.294c0.009-0.824-0.593-1.537-0.231-2.027
		c0.744,0.27,1.488,0.54,2.232,0.81C205.513,35.768,205.293,39.717,201.267,41.727z"/>
</g>
</svg>
