<?xml version="1.0" encoding="utf-8"?>
<!-- Generator: Adobe Illustrator 17.0.0, SVG Export Plug-In . SVG Version: 6.00 Build 0)  -->
<!DOCTYPE svg PUBLIC "-//W3C//DTD SVG 1.1//EN" "http://www.w3.org/Graphics/SVG/1.1/DTD/svg11.dtd">
<svg version="1.1" id="Lager_1" xmlns="http://www.w3.org/2000/svg" xmlns:xlink="http://www.w3.org/1999/xlink" x="0px" y="0px"
	 width="320px" height="99.307px" viewBox="0 0 320 99.307" enable-background="new 0 0 320 99.307" xml:space="preserve">
<g>
	<path fill="#FFFFFF" d="M155.229,10.482h-56.31l-3.085-6.364C94.804,1.703,93.145,0,91.675,0H90.51
		c-1.47,0-2.662,1.844-2.662,4.118v25.83c0,1.654,1.341,2.995,2.995,2.995h64.387V10.482H155.229z"/>
	<path fill="#FFFFFF" d="M316.945,14.974h-64.387h-14.974h-5.99c0-0.391,0-0.878,0-1.497c0-2.714-2.995-2.995-2.995-2.995h-1.497
		V5.99c0-1.654-1.341-4.492-2.995-4.492h-1.497c-1.654,0-3.275,1.575-4.492,2.995l-3.594,5.989h-15.872h-34.44h-4.492v8.984h59.895
		c1.654,0,5.989,1.341,5.989,2.995v2.995c0,1.654-4.336,2.995-5.989,2.995H159.72v19.466c0,2.246,2.976,3.151,2.976,3.151
		l25.34,1.334c4.377-0.022,18.22-0.082,21.097,0.007c2.532,0.079,3.714,1.824,4.492,2.995c2.496,5.31,2.496,5.31,6.588,14.583
		c0.789,1.503,2.396,4.882,2.396,4.882s1.962,1.847,3.196,1.498c3.965-1.12,11.29-2.114,15.266-3.237
		c1.242-0.351,2.011-3.563,2.011-3.563s-5.364-9.385-9.219-14.125c-2.644-3.25-4.082-5.978-6.459-9.52
		c-1.184-1.763-1.8-4.998-1.8-6.991c0-2.97-0.374-4.221,3.553-4.457c0.677-0.041,2.437-0.69,2.437-3.03c0-1.735,0-1.948,0-2.995
		h5.99l19.466,1.497c0,0,10.482,2.695,19.466,5.989s34.439,16.471,34.439,16.471l2.995,1.497c0,0,3.3,0.694,3.674-2.301
		s2.315-30.336,2.489-33.424C320.288,15.092,316.945,14.974,316.945,14.974z M203.145,50.911c-4.546-0.14-8.255-0.449-12.8-0.588
		c-3.329-2.65-1.689-9.12,1.364-10.476c2.062-0.61,6.749-0.448,8.183,0.419c2.408,5.151,1.635,4.856,1.049,9.847
		c0.28-0.279,0.56-0.559,0.839-0.838c2.444-1.485,2.309-5.015,2.337-7.541c0.009-0.852-0.614-1.59-0.239-2.096
		c0.769,0.279,1.539,0.559,2.308,0.838C207.536,44.746,207.309,48.831,203.145,50.911z"/>
	<path fill="#FFFFFF" d="M78.863,16.471v1.497H26.04c-0.519-0.891-1.474-1.497-2.579-1.497H3.995C2.341,16.471,1,17.812,1,19.466
		v4.492c0,1.654,1.341,2.995,2.995,2.995h19.466c1.106,0,2.06-0.606,2.579-1.497h52.824v1.497c0,1.654,1.341,2.995,2.995,2.995
		h1.497V13.477h-1.497C80.204,13.477,78.863,14.817,78.863,16.471z"/>
	<path fill="#FFFFFF" d="M153.732,89.842c0,0-0.645,3.26,0.731,3.689c4.309,1.343,13.752,4.284,18.203,5.671
		c1.483,0.462,3.527-0.653,3.908-2.244c5.654-12.932,8.527-31.729,9.596-40.163l-24.095-1.268
		C160.98,62.698,158.404,77.029,153.732,89.842z"/>
</g>
</svg>
