<?xml version="1.0" encoding="utf-8"?>
<!-- Generator: Adobe Illustrator 17.0.0, SVG Export Plug-In . SVG Version: 6.00 Build 0)  -->
<!DOCTYPE svg PUBLIC "-//W3C//DTD SVG 1.1//EN" "http://www.w3.org/Graphics/SVG/1.1/DTD/svg11.dtd">
<svg version="1.1" id="Lager_1" xmlns="http://www.w3.org/2000/svg" xmlns:xlink="http://www.w3.org/1999/xlink" x="0px" y="0px"
	 width="320px" height="93.075px" viewBox="0 0 320 93.075" enable-background="new 0 0 320 93.075" xml:space="preserve">
<g>
	<path fill="#FFFFFF" d="M58.172,31.994v1.454H2.908C1.302,33.449,0,34.751,0,36.357v1.454c0,1.606,1.302,2.909,2.908,2.909h55.263
		v1.454c0,1.606,1.302,2.909,2.908,2.909h2.909V29.086H61.08C59.474,29.086,58.172,30.388,58.172,31.994z"/>
	<path fill="#FFFFFF" d="M318.489,30.54h-66.897h-5.817c0-0.381,0-0.849,0-1.454c0-2.636-2.908-2.909-2.908-2.909h-11.634h-4.363
		v-8.726h5.817l1.454,1.454l17.451-1.454V4.363l-17.451-1.454l-1.454,1.454h-2.909V2.909c0-1.606-1.302-2.909-2.909-2.909h-2.909
		c-1.606,0-2.909,1.302-2.909,2.909c0,0,0,3.415,0,4.363c-2.963-1.658-11.319-4.666-16.381-5.495L203.436,0h-17.287
		c0,0,2.84,6.75,7.409,13.618s-1.729,8.882-6.791,8.882h-0.617v3.677h-4.363h-1.454h-15.997v10.18h65.443
		c1.606,0,5.817,1.302,5.817,2.909v2.909c0,1.606-4.211,2.909-5.817,2.909h-65.443V61.08c0,2.181,2.89,3.061,2.89,3.061l36.245,2.75
		c4.25-0.021,17.696-0.08,20.49,0.007c2.459,0.076,3.607,1.771,4.363,2.909c2.424,5.157,8.174,16.706,6.398,14.164
		c0.767,1.46,2.327,4.742,2.327,4.742s1.906,1.794,3.105,1.455c3.851-1.088,10.965-2.053,14.826-3.144
		c1.206-0.341,1.954-3.46,1.954-3.46s-5.209-9.115-8.954-13.718c-2.568-3.156-3.964-5.806-6.273-9.246
		c-1.15-1.712-1.748-4.854-1.748-6.79c0-2.885-0.363-4.1,3.451-4.329c0.657-0.04,2.367-0.67,2.367-2.943c0-1.685,0-1.892,0-2.909
		h5.817l7.272,1.454l52.354,21.814l2.909,1.454c0,0,3.205,0.674,3.568-2.235c0.364-2.909,2.249-29.464,2.418-32.463
		C320.281,30.655,318.489,30.54,318.489,30.54z M218.143,65.443c-4.415-0.136-8.017-0.436-12.432-0.571
		c-3.233-2.573-1.641-8.857,1.324-10.174c2.002-0.593,6.555-0.435,7.947,0.407c2.339,5.003,1.588,4.716,1.019,9.564
		c0.272-0.271,0.544-0.543,0.815-0.814c2.374-1.442,2.243-4.87,2.27-7.324c0.009-0.828-0.596-1.544-0.232-2.036
		c0.747,0.271,1.495,0.543,2.242,0.814C222.408,59.456,222.187,63.423,218.143,65.443z"/>
	<path fill="#FFFFFF" d="M68.352,29.084v16.001c0.001,1.606,1.303,2.907,2.908,2.907h88.712V26.177H71.26
		C69.654,26.177,68.353,27.478,68.352,29.084z"/>
	<path fill="#FFFFFF" d="M168.698,87.257c0,1.606,1.302,2.909,2.908,2.909l21.814,2.909c1.606,0,2.909-1.302,2.909-2.909V71.26
		l-27.631-2.043V87.257z"/>
	<path fill="#FFFFFF" d="M78.532,52.354h-2.909c-1.606,0-2.909,1.302-2.909,2.909v2.909c0,1.089,0.606,2.028,1.493,2.526
		c-0.017,0.126-0.039,0.251-0.039,0.383v26.177c0,1.606,1.302,2.909,2.908,2.909c1.606,0,2.909-1.302,2.909-2.909V61.08
		c0-0.131-0.022-0.256-0.039-0.383c0.887-0.498,1.493-1.437,1.493-2.526v-2.909C81.44,53.657,80.138,52.354,78.532,52.354z"/>
</g>
</svg>
