<?xml version="1.0" encoding="utf-8"?>
<!-- Generator: Adobe Illustrator 17.0.0, SVG Export Plug-In . SVG Version: 6.00 Build 0)  -->
<!DOCTYPE svg PUBLIC "-//W3C//DTD SVG 1.1//EN" "http://www.w3.org/Graphics/SVG/1.1/DTD/svg11.dtd">
<svg version="1.1" id="Lager_1" xmlns="http://www.w3.org/2000/svg" xmlns:xlink="http://www.w3.org/1999/xlink" x="0px" y="0px"
	 width="320px" height="86.357px" viewBox="0 0 320 86.357" enable-background="new 0 0 320 86.357" xml:space="preserve">
<g>
	<path fill="#FFFFFF" d="M178.025,25.988H77.485C40.813,35.452,8.281,41.367,0,41.367c17.153,11.238,33.123,23.145,72.753,23.145
		c22.974,0,79.124-0.028,79.124-0.028l0.594-0.22c-4.521-7.826-30.771-6.889-86.816-6.889c-17.153,0-39.001-7.523-50.83-17.578
		c11.83,7.098,40.776,9.974,50.83,9.974c10.056,0,94.638-0.085,94.638-0.085v11.853l17.739-0.042L178.025,25.988z M64.472,44.953
		H59.74c-2.94,0-5.323-2.383-5.323-5.323s2.383-5.323,5.323-5.323h4.732c2.94,0,5.323,2.383,5.323,5.323
		S67.412,44.953,64.472,44.953z"/>
	<path fill="#FFFFFF" d="M249.607,31.713v23.831c4.448,0.066,8.834,0.217,13.012,0.419V31.331
		C258.441,31.518,254.056,31.657,249.607,31.713z"/>
	<path fill="#FFFFFF" d="M214.118,30.549v26.229c3.985-0.302,8.388-0.588,13.013-0.812V31.298
		C222.504,31.089,218.104,30.826,214.118,30.549z"/>
	<path fill="#FFFFFF" d="M231.862,31.487v24.276c4.256-0.159,8.638-0.256,13.013-0.256V31.738
		C240.5,31.73,236.118,31.637,231.862,31.487z"/>
	<path fill="#FFFFFF" d="M195.782,28.974V3.549c0-1.96-1.981-3.549-4.425-3.549c-2.443,0-4.425,1.589-4.425,3.549v79.259
		c0,1.96,1.981,3.549,4.425,3.549s4.425-1.589,4.425-3.549V58.503c2.14-0.247,7.057-0.789,13.604-1.345V30.201
		C202.84,29.693,197.922,29.2,195.782,28.974z"/>
	<path fill="#FFFFFF" d="M267.351,31.094v25.122c4.808,0.283,9.229,0.617,13.013,0.941v-26.95
		C276.58,30.513,272.16,30.829,267.351,31.094z"/>
	<path fill="#FFFFFF" d="M314.67,28.97h-21.293c0,0-3.138,0.366-8.281,0.831v27.784c5.142,0.49,8.281,0.873,8.281,0.873h21.293
		c3.267,0,5.33-2.648,5.33-5.915V34.208C320,30.941,317.937,28.97,314.67,28.97z"/>
	<path fill="#FFFFFF" d="M153.195,67.429c0-0.003,0-0.006,0-0.009C153.161,67.426,153.154,67.429,153.195,67.429z"/>
</g>
</svg>
