<?xml version="1.0" encoding="utf-8"?>
<!-- Generator: Adobe Illustrator 17.0.0, SVG Export Plug-In . SVG Version: 6.00 Build 0)  -->
<!DOCTYPE svg PUBLIC "-//W3C//DTD SVG 1.1//EN" "http://www.w3.org/Graphics/SVG/1.1/DTD/svg11.dtd">
<svg version="1.1" id="Lager_1" xmlns="http://www.w3.org/2000/svg" xmlns:xlink="http://www.w3.org/1999/xlink" x="0px" y="0px"
	 width="320px" height="76.91px" viewBox="0 0 320 76.91" enable-background="new 0 0 320 76.91" xml:space="preserve">
<path fill="#FFFFFF" d="M224.645,40.88c0,0-1.03,3.948-1.373,4.12c-0.343,0.172-1.373,1.373-1.373,1.373h2.747
	c0,0,2.404-1.202,2.747-5.494S224.302,37.275,224.645,40.88z"/>
<g>
	<path fill="#FFFFFF" d="M113.992,26.094h103.004l15.107,2.747v-1.373v-1.373c0-1.517-1.23-2.747-2.747-2.747h-4.12
		c0-1.517-1.23-2.747-2.747-2.747h-5.494v-5.494h7.248c0.476,0.818,1.352,1.373,2.366,1.373h12.36c1.517,0,2.747-1.23,2.747-2.747
		V8.24c0-1.517-1.23-2.747-2.747-2.747h-12.36c-1.014,0-1.89,0.556-2.366,1.373h-22.355v-4.12c0-1.517-1.23-2.747-2.747-2.747
		h-2.747c-1.517,0-2.747,1.23-2.747,2.747v4.12h-17.854c0-1.517-1.058-1.03-2.747-1.373l-16.481-2.747h-9.614
		c-1.517,0-2.747,1.23-2.747,2.747V16.48c0,1.517,1.23,2.747,2.747,2.747h9.843l16.252-2.747c1.517-0.343,2.747,0.144,2.747-1.373
		h5.494v5.494h-6.867c-1.517,0-2.747,1.23-2.747,2.747H2.747C1.23,23.348,0,24.577,0,26.094v2.747c0,1.517,1.23,2.747,2.747,2.747
		h104.378c0-0.475,0-0.951,0-1.373C107.125,28.567,108.498,26.094,113.992,26.094z M186.781,15.107h24.721v5.494h-24.721V15.107z"/>
	<path fill="#FFFFFF" d="M315.88,32.961c0,0-50.586,0-53.562,0s-2.06,3.433-2.747,5.494c-2.976,3.433-11.559,1.373-13.734-1.373
		c-1.144-4.12-3.662-4.12-5.494-4.12h-8.24c0,0-14.558-2.747-17.854-2.747c0,0-98.06,0-100.257,0c-2.197,0-4.12-0.275-4.12,1.373
		v2.747l0,0c0,1.517,1.23,2.747,2.747,2.747l100.284,4.719c0.264,2.569,1.72,6.268,1.72,6.268c0.794,1.553,3.603,2.747,5.12,2.747
		h9.614c1.517,0,2.747-1.23,2.747-2.747v-6.867c1.488,0,3.205,0,4.12,0c1.831,0,2.747,2.747,2.747,2.747s1.144,2.518,1.373,5.494
		c0.229,2.976,1.145,5.722,2.747,5.494c10.071,0.687,15.107,1.373,15.107,1.373s18.884,2.403,28.841,4.12s25.866,4.12,28.841,4.12
		c2.976,0,4.12-2.289,4.12-4.12c0,0,0-19.227,0-23.348S317.94,33.19,315.88,32.961z M229.356,45.322c0,1.517-1.23,2.747-2.747,2.747
		h-5.494c-1.517,0-3.747-1.23-3.747-2.747c0,0-0.374-1.548-0.374-2.747c0-0.756,0-0.756,0-0.756s12.361-0.447,12.361-0.617
		L229.356,45.322L229.356,45.322z"/>
	<path fill="#FFFFFF" d="M123.605,41.202h-2.747c-1.517,0-2.747,1.23-2.747,2.747v2.747c0,1.029,0.572,1.915,1.41,2.386
		c-0.016,0.119-0.036,0.237-0.036,0.361v24.721c0,1.517,1.23,2.747,2.747,2.747s2.747-1.23,2.747-2.747V49.442
		c0-0.124-0.021-0.242-0.036-0.361c0.837-0.471,1.41-1.357,1.41-2.386v-2.747C126.352,42.431,125.122,41.202,123.605,41.202z"/>
	<path fill="#FFFFFF" d="M174.421,57.682c0,1.517,1.23,2.747,2.747,2.747l21.974,2.747c1.517,0,2.747-1.23,2.747-2.747V46.537
		l-27.468-1.056L174.421,57.682L174.421,57.682z"/>
</g>
</svg>
