<?xml version="1.0" encoding="utf-8"?>
<!-- Generator: Adobe Illustrator 17.0.0, SVG Export Plug-In . SVG Version: 6.00 Build 0)  -->
<!DOCTYPE svg PUBLIC "-//W3C//DTD SVG 1.1//EN" "http://www.w3.org/Graphics/SVG/1.1/DTD/svg11.dtd">
<svg version="1.1" id="Lager_1" xmlns="http://www.w3.org/2000/svg" xmlns:xlink="http://www.w3.org/1999/xlink" x="0px" y="0px"
	 width="320px" height="165.756px" viewBox="0 0 320 165.756" enable-background="new 0 0 320 165.756" xml:space="preserve">
<g>
	<path fill="#FFFFFF" d="M246.379,13.875c-0.032,0-0.07,0-0.103,0V7.709c0-2.129-1.73-3.855-3.865-3.855l-13.527-1.927
		c-2.135,0-3.289,1.726-3.289,3.855v8.093c-12.308,0-24.627,0-24.627,0h-73.43H107.9L104.993,5.3c-1.329-3.108-3.47-5.3-5.368-5.3
		h-1.503c-1.897,0-3.699,2.373-3.699,5.3v12.046v3.159v4.742h-0.035v9.285h145.036c1.271,0,2.302,2.061,2.302,4.604
		c0,2.543-1.031,4.604-2.302,4.604H94.388v4.635h0.035c0,2.129,1.994,3.663,4.128,3.663h3.865l3.865,5.782h3.251
		c1.776,7.939,3.998,25.556,4.471,28.688c1.957,12.972,3.938,24.691,3.938,24.691l1.227,1.664l22.593-4.727
		c0,0,1.426-5.324,0.221-13.309c-0.936-6.207-5.459-19.411-5.753-31.236c0.322,0.003,0.646,0.007,0.97,0.012
		c1.913,3.762,6.104,6.777,9.662,7.709c3.678,0.964,17.726,1.147,23.189,0c2.206-0.633,4.944,0,4.944,0v36.91h27.619v-51.13
		c11.612-1.143,33.686-3.337,43.084-4.419c3.383-0.389,5.239-2.026,5.239-2.026v-32.23
		C250.936,18.417,249.345,13.875,246.379,13.875z M152.658,69.386c-9.028,0.139-12.69-6.293-12.355-10.286
		c0.334-3.993,5.016-6.654,5.016-6.654s4.347,0,8.36,0s3.344,9.316,1.672,11.646c-1.672,2.329-0.334,2.329,1.672,1.664
		c4.013-1.331,6.688-7.653,6.688-13.309c0,0,1.672,0,3.344,0c3.679,0,3.298,9.982,3.344,13.309
		C170.445,69.055,161.927,69.243,152.658,69.386z"/>
	<path fill="#FFFFFF" d="M62.158,29.928v2.253H47.899c-0.631-1.33-1.933-2.311-3.454-2.311H3.865C1.73,29.87,0,31.788,0,33.917
		v5.782c0,2.129,1.73,4.047,3.865,4.047h40.58c1.521,0,2.824-0.981,3.454-2.311h14.259v2.307c0,2.129,1.408,4.635,3.543,4.635
		h21.781V25.248H65.701C63.567,25.248,62.158,27.799,62.158,29.928z"/>
	<path fill="#FFFFFF" d="M177.266,161.151c0,2.129,2.47,4.604,4.605,4.604h13.813c2.135,0,4.604-2.476,4.604-4.604v-46.043h-23.022
		V161.151z"/>
	<path fill="#FFFFFF" d="M316.135,29.948l-55.991-0.02v11.511l39.788,0.022l6.542,42.167c0,2.129,1.73,3.855,3.865,3.855h5.797
		c2.135,0,3.865-1.726,3.865-3.855V33.803C320,31.674,318.27,29.948,316.135,29.948z"/>
</g>
</svg>
