<?xml version="1.0" encoding="utf-8"?>
<!-- Generator: Adobe Illustrator 17.0.0, SVG Export Plug-In . SVG Version: 6.00 Build 0)  -->
<!DOCTYPE svg PUBLIC "-//W3C//DTD SVG 1.1//EN" "http://www.w3.org/Graphics/SVG/1.1/DTD/svg11.dtd">
<svg version="1.1" id="Lager_1" xmlns="http://www.w3.org/2000/svg" xmlns:xlink="http://www.w3.org/1999/xlink" x="0px" y="0px"
	 width="320px" height="116.488px" viewBox="0 0 320 116.488" enable-background="new 0 0 320 116.488" xml:space="preserve">
<g>
	<path fill="#FFFFFF" d="M319.997,19.617c0.111-3.455-3.555-3.567-3.555-3.567h-65.777h-3.556c-1.313,0-2.446,0.722-3.062,1.783
		h-12.938v-0.892c0-1.477-1.194-2.675-2.667-2.675s-2.667,1.198-2.667,2.675v14.267c0,1.477,1.194,2.675,2.667,2.675
		s2.667-1.198,2.667-2.675v-0.892h12.444c0,1.97,1.592,3.567,3.555,3.567h1.778c0.67,0,1.255,0,1.778,0c2.707,0,3.556,0,3.556,0
		s5.155,0.36,8.708,1.932c4.233,3.155,46.188,23.28,46.188,23.28s3.577,1.942,3.553,3.582c0.132,1.751,2.509,1.501,3.772,1.522
		c2.526-0.334,3.555-3.567,3.555-3.567S319.886,23.072,319.997,19.617z"/>
	<path fill="#FFFFFF" d="M44.444,19.617V21.4H29.729c-0.616-1.062-1.75-1.783-3.062-1.783H3.556C1.592,19.617,0,21.213,0,23.183
		v5.35c0,1.97,1.592,3.567,3.556,3.567h23.111c1.313,0,2.446-0.722,3.062-1.783h14.715V32.1c0,1.97,1.592,3.567,3.556,3.567h1.778
		V16.05H48C46.036,16.05,44.444,17.647,44.444,19.617z"/>
	<path fill="#FFFFFF" d="M127.999,28.533v-3.567V10.7H67.394l-2.801-5.796C63.37,2.028,61.399,0,59.654,0h-1.383
		c-1.745,0-3.16,2.196-3.16,4.904v34.329c0,1.97,1.592,3.567,3.555,3.567h69.333V28.533z"/>
	<path fill="#FFFFFF" d="M213.691,52.909c-1.406-2.1-2.137-5.952-2.137-8.326c0-3.537-0.444-5.027,4.218-5.308
		c0.803-0.048,2.893-0.822,2.893-3.608v-21.4c0-3.232-3.556-3.567-3.556-3.567V7.133c0-1.97-1.592-5.35-3.555-5.35h-1.778
		c-1.964,0-3.889,1.875-5.333,3.567l-3.2,5.35h-21.689h-32h-14.222v10.7h69.333c1.964,0,7.111,1.597,7.111,3.567v3.567
		c0,1.97-5.147,3.567-7.111,3.567h-69.333v23.183c0,2.675,3.533,3.753,3.533,3.753l30.085,1.588
		c5.196-0.026,21.632-0.098,25.048,0.008c3.006,0.094,4.409,2.172,5.333,3.567c2.963,6.324,9.992,20.486,7.821,17.369
		c0.937,1.79,2.845,5.815,2.845,5.815s2.33,2.2,3.795,1.784c4.707-1.334,13.403-2.518,18.124-3.855
		c1.475-0.418,2.388-4.243,2.388-4.243s-6.368-11.177-10.945-16.822C218.221,60.377,216.514,57.127,213.691,52.909z M184.888,58.85
		c-5.397-0.166-9.8-0.534-15.197-0.701c-3.952-3.156-2.005-10.862,1.619-12.477c2.447-0.727,8.012-0.534,9.715,0.499
		c2.859,6.135,1.941,5.783,1.245,11.728c0.332-0.333,0.664-0.665,0.996-0.998c2.902-1.768,2.742-5.973,2.775-8.981
		c0.011-1.015-0.729-1.893-0.283-2.497c0.913,0.333,1.827,0.665,2.74,0.998C190.1,51.508,189.831,56.373,184.888,58.85z"/>
	<path fill="#FFFFFF" d="M126.221,105.216c0,0-0.766,3.883,0.867,4.393c5.116,1.599,16.328,5.102,21.611,6.753
		c1.76,0.55,4.188-0.777,4.64-2.672c6.712-15.402,10.124-37.789,11.393-47.833l-28.607-1.51
		C134.826,72.888,131.768,89.955,126.221,105.216z"/>
</g>
</svg>
