<?xml version="1.0" encoding="utf-8"?>
<!-- Generator: Adobe Illustrator 17.0.0, SVG Export Plug-In . SVG Version: 6.00 Build 0)  -->
<!DOCTYPE svg PUBLIC "-//W3C//DTD SVG 1.1//EN" "http://www.w3.org/Graphics/SVG/1.1/DTD/svg11.dtd">
<svg version="1.1" id="Layer_1" xmlns="http://www.w3.org/2000/svg" xmlns:xlink="http://www.w3.org/1999/xlink" x="0px" y="0px"
	 width="320px" height="196.854px" viewBox="0 0 320 196.854" enable-background="new 0 0 320 196.854" xml:space="preserve">
<g>
	<path fill="#FFFFFF" d="M70.851,22.946c0,0,106.279,0,112.719,0s12.882-2.148,12.882-6.442H47.556
		C54.697,24.198,65.113,22.946,70.851,22.946z"/>
	<path fill="#FFFFFF" d="M246.265,190.412c0,0,3.981,6.442,9.233,6.442c15.923,0,37.738,0,55.285,0l4.831-9.66H245.32
		C245.797,188.765,246.131,189.893,246.265,190.412z"/>
	<path fill="#FFFFFF" d="M294.571,93.797c0,0-7.16-24.46-1.503-25.763c0.692,0.033,1.341,0.029,1.961,0h4.479h6.443
		c3.556,0,6.44-2.884,6.44-6.442V55.15c0-3.557-2.884-6.442-6.44-6.442V16.504c0-3.557-2.884-6.442-6.443-6.442h-14.895V6.44
		c0-3.557-2.884-6.44-6.442-6.44h-9.662c-3.557,0-6.442,2.883-6.442,6.44v3.623H202.89v6.442c0,3.95,0,7.984,0,9.662
		c0,3.757-4.292,6.442-9.66,6.442c0,0-119.16,0-128.822,0c-8.534,0-15.384-7.957-18.349-16.103h-0.974v-6.442h-5.233V6.44
		C39.854,2.883,36.972,0,33.413,0h-9.66c-3.559,0-6.442,2.883-6.442,6.44v3.976c-2.565,0.85-4.428,3.238-4.428,6.088h-6.44H6.442
		C2.884,16.506,0,19.389,0,22.946v16.103c0,3.557,2.884,6.442,6.442,6.442h0.002h6.44v16.103c0,3.557,2.883,6.442,6.442,6.442
		h112.717c6.442,0,11.809,9.662,9.662,9.662c1.609,41.329,28.962,41.865,35.426,41.866c13.386,0.003,19.191,0,28.985,0
		c15.566,0,17.75-2.744,24.26,19.323c2.938,9.959,8.264,26.855,11.95,38.646H320L294.571,93.797z M180.351,113.121
		c-22.543,0-28.986-12.882-28.986-22.543c0-12.882,9.662-18.786,16.105-19.323h16.102c9.662,12.883,5.903,27.911-3.22,32.205
		c-4.179,1.966,0,4.295,3.22,3.222c21.469-4.294,19.86-28.985,19.323-35.426c4.295-0.537,16.103-1.622,16.103,19.323
		C218.996,111.108,215.373,113.121,180.351,113.121z M283.639,32.375l-9.892,9.892l-3.222-3.22l5.405-9.008
		c-1.344-1.439-2.184-3.357-2.184-5.484c0-4.446,3.605-8.051,8.051-8.051c4.448,0,8.051,3.605,8.051,8.051
		C289.848,28.366,287.193,31.54,283.639,32.375z"/>
</g>
</svg>
