<?xml version="1.0" encoding="utf-8"?>
<!-- Generator: Adobe Illustrator 17.0.0, SVG Export Plug-In . SVG Version: 6.00 Build 0)  -->
<!DOCTYPE svg PUBLIC "-//W3C//DTD SVG 1.1//EN" "http://www.w3.org/Graphics/SVG/1.1/DTD/svg11.dtd">
<svg version="1.1" id="Layer_1" xmlns="http://www.w3.org/2000/svg" xmlns:xlink="http://www.w3.org/1999/xlink" x="0px" y="0px"
	 width="319.995px" height="320px" viewBox="0 0 319.995 320" enable-background="new 0 0 319.995 320" xml:space="preserve">
<g>
	<path fill="#FFFFFF" d="M305.927,177.767c0.582-4.777,9.246-7.496,13.878-9.916c0.257-5.234,0.257-10.467,0-15.701
		c-4.32-2.11-13.299-5.11-13.879-9.891c-0.58-4.78-3.02-17.046-4.312-21.683c-1.29-4.637,4.859-9.857,9.031-14.479
		c-1.765-4.934-3.767-9.769-6.007-14.506c-5.992,0.263-14.246,0.373-16.613-3.82c-2.365-4.192-9.312-14.591-12.281-18.381
		c-2.967-3.789,0.702-11.706,2.809-16.84c-3.519-3.884-7.221-7.584-11.102-11.104c-5.759,3.044-13.023,5.804-16.815,2.835
		c-3.789-2.969-14.188-9.917-18.378-12.283c-4.194-2.365-3.485-10.022-3.849-16.638c-4.737-2.24-9.572-4.244-14.506-6.009
		c-4.62,4.485-9.817,10.351-14.453,9.061c-4.639-1.292-16.903-3.732-21.682-4.314s-8.122-8.649-9.917-13.906
		c-5.234-0.257-10.467-0.257-15.701,0c-2.734,6.507-5.112,13.326-9.891,13.906c-4.779,0.582-17.043,3.022-21.68,4.312
		c-4.637,1.292-10.484-5.199-14.481-9.059c-4.934,1.765-9.769,3.769-14.506,6.009c0.263,6.304,0.373,14.273-3.82,16.64
		c-4.192,2.367-14.589,9.312-18.38,12.281c-3.79,2.969-12.021-0.728-16.841-2.834c-3.884,3.519-7.584,7.221-11.102,11.104
		c2.107,5.445,5.802,13.051,2.835,16.841c-2.969,3.79-9.916,14.188-12.281,18.38s-11.586,3.77-16.64,3.82
		c-2.24,4.737-4.244,9.572-6.009,14.506c3.86,4.309,10.349,9.842,9.059,14.481c-1.292,4.637-3.73,16.901-4.312,21.68
		c-0.582,4.78-9.587,8.407-13.906,9.892c-0.257,5.234-0.257,10.467,0,15.701c4.945,1.483,13.324,5.139,13.906,9.917
		c0.582,4.779,3.022,17.043,4.314,21.682c1.292,4.635-5.2,11.081-9.061,14.453c1.765,4.934,3.769,9.769,6.009,14.506
		c5.365,0.673,14.273-0.345,16.638,3.849c2.365,4.192,9.314,14.589,12.283,18.378c2.969,3.79-0.417,11.681-2.835,16.815
		c3.519,3.882,7.221,7.584,11.102,11.102c5.759-2.107,13.049-5.775,16.84-2.809c3.79,2.969,14.189,9.916,18.381,12.281
		c4.194,2.367,2.832,11.561,3.82,16.613c4.737,2.242,9.572,4.244,14.506,6.009c3.372-3.234,9.842-10.324,14.479-9.032
		c4.639,1.292,16.905,3.73,21.683,4.312s7.156,8.622,9.889,13.879c5.234,0.257,10.469,0.257,15.701,0
		c2.734-4.32,5.139-13.298,9.917-13.878c4.779-0.583,17.045-3.022,21.682-4.314c4.637-1.292,9.831,4.859,14.453,9.032
		c4.934-1.767,9.769-3.769,14.506-6.009c0.673-5.677-0.347-14.246,3.847-16.611c4.194-2.367,14.591-9.314,18.381-12.283
		s11.366,0.702,16.813,2.809c3.882-3.519,7.584-7.221,11.102-11.102c-1.482-4.82-5.777-13.023-2.809-16.813
		s9.916-14.189,12.283-18.381s10.619-3.484,16.611-3.847c2.242-4.737,4.244-9.572,6.007-14.506
		c-3.859-4.934-10.322-9.814-9.031-14.453C302.904,194.813,305.344,182.549,305.927,177.767z M159.393,255.027
		c-52.817,0-95.632-42.816-95.632-95.632s42.815-95.632,95.632-95.632s95.632,42.816,95.632,95.632S212.209,255.027,159.393,255.027
		z"/>
	<path fill="#FFFFFF" d="M159.393,80.026c-43.835,0-79.369,35.534-79.369,79.369s35.534,79.367,79.369,79.367
		s79.367-35.533,79.367-79.367S203.228,80.026,159.393,80.026z M159.393,95.016c8.091,0,14.646,6.57,14.646,14.679
		c0,8.106-6.557,14.678-14.646,14.678c-8.089,0-14.648-6.572-14.648-14.678C144.746,101.586,151.303,95.016,159.393,95.016z
		 M123.227,196.645c-7.006,4.055-15.963,1.648-20.008-5.372s-1.643-15.998,5.362-20.05c7.006-4.055,15.963-1.648,20.006,5.372
		C132.633,183.614,130.233,192.591,123.227,196.645z M128.588,142.197c-4.044,7.021-13.003,9.426-20.006,5.372
		c-7.006-4.054-9.407-13.031-5.362-20.051c4.045-7.021,13.003-9.426,20.008-5.374C130.233,126.198,132.633,135.177,128.588,142.197z
		 M159.393,223.775c-8.091,0-14.648-6.572-14.648-14.679s6.557-14.679,14.648-14.679c8.091,0,14.646,6.572,14.646,14.679
		C174.039,217.203,167.482,223.775,159.393,223.775z M159.957,187.597c-15.584,0-28.219-12.653-28.219-28.262
		s12.634-28.264,28.219-28.264s28.217,12.654,28.217,28.264S175.541,187.597,159.957,187.597z M215.566,191.273
		c-4.044,7.021-13.003,9.426-20.006,5.372c-7.006-4.054-9.407-13.029-5.362-20.05s13.003-9.426,20.008-5.372
		C217.211,175.275,219.613,184.252,215.566,191.273z M210.205,147.569c-7.006,4.054-15.963,1.648-20.008-5.372
		s-1.643-15.998,5.362-20.051c7.004-4.054,15.963-1.647,20.006,5.374C219.613,134.538,217.211,143.516,210.205,147.569z"/>
</g>
</svg>
