<?xml version="1.0" encoding="utf-8"?>
<!-- Generator: Adobe Illustrator 17.0.0, SVG Export Plug-In . SVG Version: 6.00 Build 0)  -->
<!DOCTYPE svg PUBLIC "-//W3C//DTD SVG 1.1//EN" "http://www.w3.org/Graphics/SVG/1.1/DTD/svg11.dtd">
<svg version="1.1" id="Layer_1" xmlns="http://www.w3.org/2000/svg" xmlns:xlink="http://www.w3.org/1999/xlink" x="0px" y="0px"
	 width="320px" height="320px" viewBox="0 0 320 320" enable-background="new 0 0 320 320" xml:space="preserve">
<path fill="#FFFFFF" d="M160.005,22.917C84.412,22.917,22.917,84.412,22.917,160s61.495,137.083,137.088,137.083
	c75.589,0,137.083-61.495,137.083-137.083S235.594,22.917,160.005,22.917z M269.631,154.132l-75.191-2.987
	c-0.844-3.281-2.15-6.375-3.838-9.22l51.065-55.292C257.927,104.72,268.268,128.236,269.631,154.132z M233.369,78.333L178.076,129.4
	c-2.846-1.687-5.941-2.994-9.225-3.838l-2.984-75.195C191.766,51.73,215.281,62.072,233.369,78.333z M183.078,169.303
	c-0.059,0.145-0.113,0.291-0.176,0.434l-0.379-0.41L183.078,169.303z M182.523,150.671l0.379-0.411
	c0.062,0.143,0.115,0.289,0.175,0.433L182.523,150.671z M169.741,137.098l-0.415,0.383l-0.021-0.56
	C169.449,136.98,169.598,137.036,169.741,137.098z M154.138,50.366l-2.989,75.195c-3.281,0.844-6.376,2.151-9.222,3.839
	L86.633,78.332C104.722,62.07,128.239,51.729,154.138,50.366z M150.697,136.922l-0.022,0.558l-0.414-0.382
	C150.405,137.037,150.552,136.981,150.697,136.922z M136.927,150.695c0.058-0.143,0.112-0.288,0.173-0.43l0.377,0.408
	L136.927,150.695z M137.477,169.325l-0.377,0.407c-0.061-0.142-0.115-0.287-0.173-0.43L137.477,169.325z M78.335,86.63
	l51.066,55.298c-1.686,2.844-2.992,5.938-3.836,9.218l-75.196,2.986C51.733,128.235,62.074,104.719,78.335,86.63z M50.37,165.867
	l75.195,2.984c0.843,3.279,2.15,6.375,3.835,9.219l-51.068,55.296C62.073,215.277,51.733,191.762,50.37,165.867z M86.633,241.668
	l55.292-51.068c2.846,1.688,5.942,2.996,9.224,3.842l2.985,75.195C128.236,268.271,104.721,257.93,86.633,241.668z M150.26,182.9
	l0.415-0.383l0.022,0.56C150.551,183.02,150.404,182.963,150.26,182.9z M160,178.001c-9.94,0-18.001-8.062-18.001-18.001
	c0-9.94,8.061-18.001,18.001-18.001c9.939,0,18.001,8.061,18.001,18.001C178.001,169.939,169.939,178.001,160,178.001z
	 M169.742,182.9c-0.145,0.062-0.292,0.117-0.438,0.178l0.021-0.561L169.742,182.9z M165.867,269.637l2.984-75.195
	c3.282-0.844,6.379-2.152,9.227-3.84l55.29,51.065C215.279,257.93,191.766,268.271,165.867,269.637z M241.67,233.363l-51.066-55.291
	c1.688-2.844,2.994-5.939,3.838-9.221l75.189-2.984C268.268,191.762,257.93,215.275,241.67,233.363z M160,0C71.635,0,0,71.635,0,160
	s71.635,160,160,160s160-71.635,160-160S248.365,0,160,0z M160.005,305.082c-80.002,0-145.087-65.085-145.087-145.082
	c0-80,65.084-145.082,145.087-145.082C240.003,14.918,305.087,80,305.087,160C305.087,239.997,240.003,305.082,160.005,305.082z
	 M160,149.333c-5.889,0-10.667,4.775-10.667,10.667c0,5.895,4.778,10.667,10.667,10.667c5.891,0,10.667-4.772,10.667-10.667
	C170.667,154.108,165.891,149.333,160,149.333z"/>
</svg>
