<?xml version="1.0" encoding="utf-8"?>
<!-- Generator: Adobe Illustrator 17.0.0, SVG Export Plug-In . SVG Version: 6.00 Build 0)  -->
<!DOCTYPE svg PUBLIC "-//W3C//DTD SVG 1.1//EN" "http://www.w3.org/Graphics/SVG/1.1/DTD/svg11.dtd">
<svg version="1.1" id="Layer_1" xmlns="http://www.w3.org/2000/svg" xmlns:xlink="http://www.w3.org/1999/xlink" x="0px" y="0px"
	 width="320px" height="320.002px" viewBox="0 0 320 320.002" enable-background="new 0 0 320 320.002" xml:space="preserve">
<g>
	<g>
		<path fill="#FFFFFF" d="M151.489,160.001c0,4.701,3.81,8.51,8.512,8.51c4.701,0,8.512-3.81,8.512-8.51s-3.812-8.51-8.512-8.51
			S151.489,155.3,151.489,160.001z M167.943,133.951v-71.76c-2.622-0.208-5.265-0.349-7.942-0.349c-2.678,0-5.321,0.139-7.944,0.349
			v71.758c2.514-0.764,5.18-1.185,7.944-1.185C162.764,132.765,165.43,133.185,167.943,133.951z M160.001,27.234
			c-73.325,0-132.765,59.442-132.765,132.765s59.442,132.765,132.765,132.765s132.765-59.442,132.765-132.765
			S233.324,27.234,160.001,27.234z M241.04,72.541c1.773-1.773,4.645-1.773,6.418,0c1.773,1.771,1.773,4.645,0,6.418
			s-4.645,1.773-6.418,0C239.267,77.187,239.267,74.312,241.04,72.541z M160.001,36.311c2.506,0,4.539,2.033,4.539,4.541
			c0,2.506-2.033,4.539-4.539,4.539s-4.539-2.033-4.539-4.539C155.46,38.345,157.493,36.311,160.001,36.311z M72.539,72.541
			c1.773-1.773,4.647-1.773,6.42,0c1.771,1.771,1.771,4.645,0,6.418c-1.773,1.773-4.647,1.773-6.42,0S70.766,74.312,72.539,72.541z
			 M40.851,164.538c-2.506,0-4.539-2.031-4.539-4.539s2.031-4.539,4.539-4.539c2.508,0,4.539,2.031,4.539,4.539
			S43.358,164.538,40.851,164.538z M78.96,247.459c-1.773,1.773-4.647,1.773-6.42,0c-1.773-1.771-1.773-4.645,0-6.418
			s4.647-1.773,6.42,0C80.731,242.813,80.731,245.69,78.96,247.459z M160.001,283.687c-2.506,0-4.539-2.031-4.539-4.539
			c0-2.506,2.033-4.539,4.539-4.539s4.539,2.033,4.539,4.539C164.538,281.655,162.505,283.687,160.001,283.687z M247.459,247.459
			c-1.773,1.773-4.645,1.773-6.418,0c-1.773-1.771-1.773-4.645,0-6.418s4.645-1.773,6.418,0
			C249.232,242.813,249.232,245.69,247.459,247.459z M160.001,262.695c-56.716,0-102.694-45.978-102.694-102.694
			S103.285,57.307,160.001,57.307s102.694,45.978,102.694,102.694S216.717,262.695,160.001,262.695z M279.149,164.538
			c-2.51,0-4.541-2.031-4.541-4.539s2.031-4.539,4.541-4.539c2.506,0,4.537,2.031,4.537,4.539S281.655,164.538,279.149,164.538z
			 M187.235,160.001c0,2.975-0.494,5.83-1.376,8.51h71.905c0.241-2.807,0.39-5.641,0.39-8.51c0-2.485-0.122-4.939-0.305-7.375
			h-71.654C186.855,154.974,187.235,157.439,187.235,160.001z M136.737,160.001c0,12.846,10.414,23.262,23.262,23.262
			s23.264-10.414,23.264-23.262s-10.414-23.262-23.264-23.262C147.153,136.739,136.737,147.153,136.737,160.001z M179.293,160.001
			c0,10.653-8.639,19.29-19.292,19.29c-10.653,0-19.292-8.637-19.292-19.29c0-10.653,8.637-19.29,19.292-19.29
			S179.293,149.346,179.293,160.001z M223.851,85.484l-50.682,50.682c4.725,2.616,8.575,6.602,11.05,11.417l50.824-50.826
			C231.624,92.703,227.876,88.937,223.851,85.484z M172.417,184.218l50.824,50.826c4.055-3.42,7.823-7.169,11.274-11.195
			l-50.684-50.682C181.218,177.894,177.231,181.745,172.417,184.218z M132.767,160.001c0-2.56,0.378-5.026,1.038-7.375H62.149
			c-0.181,2.438-0.305,4.891-0.305,7.375c0,2.869,0.15,5.703,0.392,8.51h71.907C133.259,165.831,132.767,162.976,132.767,160.001z
			 M160.001,0C71.635,0,0,71.635,0,160.001s71.635,160.001,160.001,160.001S320,248.367,320,160.001S248.365,0,160.001,0z
			 M160.001,305.249c-80.218,0-145.248-65.031-145.248-145.248S79.782,14.752,160.001,14.752S305.248,79.783,305.248,160
			S240.218,305.249,160.001,305.249z M146.832,136.166L96.149,85.484c-4.026,3.453-7.773,7.219-11.193,11.274l50.826,50.824
			C138.255,142.768,142.106,138.782,146.832,136.166z M152.057,186.049v71.758c2.624,0.208,5.267,0.347,7.944,0.347
			c2.678,0,5.321-0.137,7.942-0.347v-71.758c-2.514,0.764-5.18,1.185-7.942,1.185C157.235,187.235,154.57,186.815,152.057,186.049z
			 M136.166,173.168L85.484,223.85c3.453,4.026,7.219,7.773,11.274,11.195l50.824-50.826
			C142.768,181.745,138.782,177.894,136.166,173.168z"/>
	</g>
</g>
</svg>
