<?xml version="1.0" encoding="utf-8"?>
<!-- Generator: Adobe Illustrator 17.0.0, SVG Export Plug-In . SVG Version: 6.00 Build 0)  -->
<!DOCTYPE svg PUBLIC "-//W3C//DTD SVG 1.1//EN" "http://www.w3.org/Graphics/SVG/1.1/DTD/svg11.dtd">
<svg version="1.1" id="Layer_1" xmlns="http://www.w3.org/2000/svg" xmlns:xlink="http://www.w3.org/1999/xlink" x="0px" y="0px"
	 width="204.465px" height="320px" viewBox="0 0 204.465 320" enable-background="new 0 0 204.465 320" xml:space="preserve">
<path fill="#FFFFFF" d="M127.182,238.423C104.272,241.625,26.807,250.228,0,224.681c42.449,17.016,99.882,10.35,120.807,7.076
	l-0.178-0.185c0,0-48.776,5.383-79.332-4.141C6.398,216.548,7.943,181.655,7.943,181.655l99.941,22.071l-0.018-0.054
	c-29.735-6.737-81.53-22.041-95.978-49.002c28.362,23.836,68.548,35.683,93.15,41.065l-0.148-0.416c0,0-30.698-8.87-59.013-29.165
	c-28.303-20.277-11.497-58.983-11.497-58.983l68.187,59.429l0.22-0.736c-21.756-20.996-59.102-61.734-57.361-92.717
	c12.149,36.146,41.552,67.907,59.667,84.981l0.25-0.808c0,0-39.609-46.875-40.768-75.25c-1.046-25.523,19.469-39.175,19.469-39.175
	l30.9,95.688l0.445-0.529c-4.188-11.288-31.102-87.34-9.137-121.193c-8.561,43.281,5.638,89.568,12.453,108.176
	c-3.006-15.607-9.417-53.648-6.244-80.009C116.909,7.961,149.591,0,149.591,0s-11.258,116.874-2.358,154.873
	c8.899,38.011,56.814,72.986,56.814,72.986s2.24,14.359-3.647,26.99c-5.876,12.631-16.646,18.667-16.646,18.667
	s-10.843-1.146-15.964,4.147c-5.109,5.305-25.779,28.327-43.745,38.641c-17.972,10.313-46.097-4.236-46.097-4.236l72.434-43.619
	c-28.927,13.444-82.831,34.762-111.034,21.869c39.265,1.907,83.318-16.344,106.786-27.805l-0.297-0.214
	c0,0-62.827,20.021-89.271,19.742c-26.438-0.279-49.442-27.145-49.442-27.145l120.254-16.267L127.182,238.423z"/>
</svg>
