<?xml version="1.0" encoding="utf-8"?>
<!-- Generator: Adobe Illustrator 17.0.0, SVG Export Plug-In . SVG Version: 6.00 Build 0)  -->
<!DOCTYPE svg PUBLIC "-//W3C//DTD SVG 1.1//EN" "http://www.w3.org/Graphics/SVG/1.1/DTD/svg11.dtd">
<svg version="1.1" id="Layer_1" xmlns="http://www.w3.org/2000/svg" xmlns:xlink="http://www.w3.org/1999/xlink" x="0px" y="0px"
	 width="141.398px" height="320px" viewBox="0 0 141.398 320" enable-background="new 0 0 141.398 320" xml:space="preserve">
<path fill="#FFFFFF" d="M1.64,190.318c-5.054-14.031,3.184-31.176,3.184-31.176s7.664,19.08,30.888,37.813
	c11.612,9.368,23.168,14.426,33.759,19.197c-8.364-5.314-16.923-11.639-27.23-20.689c-15.927-14.383-27.813-27.743-31.084-44.697
	c-2.827-14.644,7.963-30.314,7.963-30.314s4.627,20.037,24.66,42.135c9.49,10.465,20.02,16.954,29.936,23.504
	c-7.05-6.246-11.687-10.656-19.141-18.88c-14.188-16.114-27.6-36.33-28.914-53.54C24.513,98.801,37.03,84.462,37.03,84.462
	s1.696,23.055,19.084,47.298c4.915,6.85,15.64,17.554,22.612,23.503c-4.071-5.367-12.147-15.327-16.001-21.146
	c-10.529-16.388-20.02-39.134-18.763-54.574C45.045,66.2,58.38,55.379,58.38,55.379s-1.735,20.676,10.525,44.736
	c4.097,8.029,13.122,18.467,19.45,25.478c-2.318-4.11-6.728-10.212-8.781-14.292c-8.768-18.015-15.679-42.31-12.457-57.732
	c2.775-13.33,17.823-22.424,17.823-22.424s-4.362,20.654,5.228,46.658c2.292,6.22,7.654,17.654,11.677,23.895
	c-0.409-1.349-2.414-7.403-2.788-8.725c-5.224-19.485-7.259-51.53-1.026-66.561C106.565,5.828,120.122,0,120.122,0
	s-6.337,33.802-1.792,61.48c2.449,14.957,10.333,33.229,14.283,41.766c2.54-2.157,4.167-3.34,4.167-3.34l4.619,2.057
	c0,0-49.829,46.75-52.408,124.34c-1.492,45.323,44.701,69.361,49.838,79.634c-3.597,7.189-10.273,7.707-10.273,7.707
	s-1.548-1.179-3.984-3.21c-5.245,1.536-13.326,4.063-21.089,7.138c-14.318,3.288-20.302,3.758-32.011-1.884
	c-10.121-4.862-18.149-14.474-18.149-14.474s7.063,1,26.421-1.966c4.793-0.727,9.081-2.331,12.795-4.146
	c-6.063,0.096-13.048,0.427-21.016,1.066c-17.471-1.027-24.464-2.479-35.964-12.84c-9.946-8.946-15.931-22.615-15.931-22.615
	s10.273,6.685,33.394,9.768c4.497,0.601,9.112,0.771,13.518,0.688c-4.719-1.287-9.864-2.87-15.057-4.793
	c-15.944-6.889-32.484-15.404-41.1-28.261c-7.451-11.108-6.681-29.288-6.681-29.288s17.114,19.085,39.565,29.288
	c7.637,3.466,15.771,5.467,22.429,6.632c-8.068-4.274-18.193-9.854-26.426-15.078C21.308,217.932,7.503,206.554,1.64,190.318z"/>
</svg>
