<?xml version="1.0" encoding="utf-8"?>
<!-- Generator: Adobe Illustrator 17.0.0, SVG Export Plug-In . SVG Version: 6.00 Build 0)  -->
<!DOCTYPE svg PUBLIC "-//W3C//DTD SVG 1.1//EN" "http://www.w3.org/Graphics/SVG/1.1/DTD/svg11.dtd">
<svg version="1.1" id="Layer_1" xmlns="http://www.w3.org/2000/svg" xmlns:xlink="http://www.w3.org/1999/xlink" x="0px" y="0px"
	 width="179.059px" height="320px" viewBox="0 0 179.059 320" enable-background="new 0 0 179.059 320" xml:space="preserve">
<path fill="#FFFFFF" d="M95.156,103.597C83.118,85.462,67.385,67.654,64.459,39.135C63.02,25.079,63.761,12.602,68.297,0h-1.531
	c-8.118,12.629-11.529,30.497-9.977,49.109C58.936,74.89,78.339,93.88,95.156,103.597z M69.062,128.921
	c-26.461-26.486-47.97-57.928-55.25-103.598c-6.99,32.973,7.468,63.352,20.719,83.644C47.451,114.21,52.229,127.591,69.062,128.921z
	 M70.597,151.94c-17.479-10.38-28.929-25.408-40.67-40.67C19.933,98.279,5.362,87.861,0.765,70.597
	c0.021,4.368-0.014,10.178,0.77,13.046C9.874,114.24,39.34,150.053,70.597,151.94z M95.924,135.06
	c-8.941-3.962-16.762-10.671-23.789-17.654c-7.13-7.082-15.247-13.122-21.488-19.947c-3.141-3.439-4.669-10.189-9.211-11.512
	c5.435,16.813,16.29,34.743,31.465,42.974C78.906,132.175,88.811,135.696,95.924,135.06z M62.924,171.895
	c12.072,1.847,22.549-1.135,31.466-3.838c-12.633-7.828-28.694-10.924-43.743-17.65C31.476,141.84,12.007,128.282,0,109.736v3.835
	C10.394,137.042,32.525,167.242,62.924,171.895z M36.066,114.34c12.332,24.247,32.491,40.663,69.067,40.67
	c-5.715-4.785-12.674-5.226-19.185-8.439c-5.836-2.885-11.317-7.16-16.886-10.742c-5.82-3.753-12.048-6.289-17.649-9.977
	C45.694,122.078,41.801,117.256,36.066,114.34z M55.251,189.541c8.374,1.843,20.596,4.174,28.396,3.072
	c3.446-0.484,5.948-3.594,9.975-4.604c6.179-1.555,13.829,0.991,18.419-3.838c-5.972-1.322-11.472-1.189-17.65-2.301
	c-5.749-1.035-10.223-4.077-15.347-5.373c-12.414-3.141-24.492-2.639-35.3-6.139c-15.714-5.09-30.393-11.957-39.14-23.021
	c-0.469,0.041-0.91,0.113-0.766,0.766C11.272,166.945,32.31,184.503,55.251,189.541z M114.34,205.661
	c-26.885,8.671-56.296,14.813-61.389,45.276c14.591-13.035,36.868-25.033,59.089-33C112.891,214.775,117.737,208.02,114.34,205.661z
	 M114.34,218.703c-24.189,9.32-50.179,16.84-54.481,46.046c13.531-12.817,34.057-25.286,54.481-33.769
	C113.841,226.865,117.768,220.859,114.34,218.703z M115.875,233.287c-22.668,8.791-44.558,18.363-49.109,45.277
	c14.681-13.463,30.458-25.819,50.645-33.77C118.09,241.396,119.344,234.634,115.875,233.287z M106.67,283.165
	c8.446-7.41,35.488-17.783,16.878-27.624c1.61-3.438-1.388-8.124-3.835-9.977c-19.855,9.816-40.14,19.205-43.743,45.273
	c10.921-8.779,23.201-22.838,39.139-29.158c-13.196,10.334-26.778,20.285-28.396,42.205
	C93.204,300.285,96.837,291.788,106.67,283.165z M143.501,275.488c-1.562-4.061-5.372-5.875-8.442-8.439
	c-18.521,9.871-34.74,22.045-36.835,48.344C109.335,301.18,126.046,285.916,143.501,275.488z M150.406,277.796
	c-20.714,7.42-37.376,18.894-42.205,42.205c12.451-12.62,25.115-25.022,46.809-28.394
	C155.024,285.279,154.559,281.23,150.406,277.796z M48.347,86.713c5.544,7.718,10.155,17.657,19.95,19.185
	c0.81-3.654-4.139-5.533-2.3-7.673c10.212,12.553,23.201,22.332,46.042,22.254c-6.456-13.242-25.203-14.192-36.069-23.02
	c-6.867-7.971-12.684-16.991-17.65-26.862c-1.432,8.347,2.56,15.34,2.304,19.954c-9.488-25.583-25.002-49.146-20.72-85.949
	c-9.993,15.711-7.245,57.98,1.532,74.438C42.738,81.477,46.419,84.03,48.347,86.713z M45.278,237.122
	c14.488-12.622,33.666-20.396,53.717-27.624c5.926-2.139,15.128-3.171,17.649-9.979c-6.319-3.545-14.475-0.619-22.254-2.302
	c-3.654-0.788-6.477-3.325-9.977-3.835c-7.813-1.148-16.574,0.417-24.555,0c-19.431-1.019-36.846-3.701-49.115-13.05
	c9.013,19.383,30.184,26.604,58.319,26.858C65.648,207.13,48.066,226.865,45.278,237.122z M178.033,289.305
	c0.772,2.56-1.066,2.516-3.066,2.303c-11.508-1.284-6.75-18.828-10.746-27.627c-22.691-6.457-36.301-20.351-38.369-42.974
	c-3.808-41.665,31.677-50.325,31.465-85.947c-14.231-13.33-32.688-21.943-46.814-36.069C89.605,78.093,75.755,38.799,89.786,1.535
	c0.424,0,0.872-0.622,0-0.769C79.535,10.847,76.975,32.077,78.274,49.882c2.577,35.402,27.036,61.252,45.274,77.501
	c-8.193-3.384-17.11-2.037-25.323-3.835c-12.775-2.796-21.212-11.047-29.162-15.347c9.048,21.397,32.385,28.496,59.093,32.228
	c-19.599,2.15-39.884-0.126-53.72-6.138c10.011,14.608,35.491,20.545,59.858,19.185c2.73-0.154,7.742-2.533,9.208,0
	c-15.128,2.061-46.225,7.003-65.229,0.769c9.091,13.683,40.841,14.905,58.32,10.746c-0.899,5.327-8.541,5.161-14.581,6.135
	c-11.976,1.942-27.032,1.463-38.366,3.839c9.987,5.76,30.081,7.362,42.971,5.369c-5.886,9.973-25.207,6.512-35.301,12.281
	c7.681,3.951,21.123,2.386,29.165,2.3c-6.504,30.912,1.515,58.505,19.951,72.901c4.238,3.311,12.632,5.007,16.115,10.748
	c3.746,6.168,1.613,14.352,8.442,17.646C171.737,297.062,182.418,294.57,178.033,289.305z M137.363,137.36
	c2.694-0.137,2.523,2.594,4.604,3.069C139.885,139.954,140.056,137.223,137.363,137.36z"/>
</svg>
