<?xml version="1.0" encoding="utf-8"?>
<!-- Generator: Adobe Illustrator 17.0.0, SVG Export Plug-In . SVG Version: 6.00 Build 0)  -->
<!DOCTYPE svg PUBLIC "-//W3C//DTD SVG 1.1//EN" "http://www.w3.org/Graphics/SVG/1.1/DTD/svg11.dtd">
<svg version="1.1" id="Layer_1" xmlns="http://www.w3.org/2000/svg" xmlns:xlink="http://www.w3.org/1999/xlink" x="0px" y="0px"
	 width="158.558px" height="320px" viewBox="0 0 158.558 320" enable-background="new 0 0 158.558 320" xml:space="preserve">
<g>
	<path fill="#FFFFFF" d="M140.299,0c0.642,0,1.283,0,1.923,0c0,0.321,0,0.64,0,0.961c3.867,5.103,7.386,10.548,11.53,15.374
		c-3.903,8.268-16.872,7.474-21.142,15.377c8.14,0.331,18.399-7.068,24.987-1.922C90.287,37.275,53.6,79.962,43.243,141.262
		c0.345,62.39,35.877,108.265,96.096,123.003c9.194,2.251,10.769,2.635,19.22,2.881c0,1.923,0,3.845,0,5.767
		c-6.344-2.463-8.541,5.708-12.492,8.647c2.931,6.028,3.637,16.144,2.883,23.065c-11.828,1.947-13.529,14.019-25.945,15.375
		c-2.398-7.731-0.017-17.317-0.964-22.101c-10.39-1.151-15.002,8.695-24.984,13.453c-8.053-6.336-0.628-17.278-0.961-24.986
		c-6.204-0.401-18.371,5.338-26.906,4.805c-5.087-8.624,3.497-10.02,2.882-19.22c-10.442-3.267-16.145,1.004-25.946,2.884
		c-3.668-11.233,6.198-17.284,9.611-28.829c11.32-7.285,21.889,7.018,31.709,0.961c-9.268-4.404-14.025-20.083-25.944-13.452
		c-3.299,9.219-13.335,21.657-23.064,10.569c-7.989-1.062-13.076,2.41-16.335-0.961c1.198-8.731,10.762-9.096,12.492-17.298
		c-5.854-6.997-15.169-4.254-21.141-7.687c-3.106-9.337,8.865-11.533,11.532-18.259c-6.75,0.286-10.833-9.393-19.22-10.569
		c-4.33-10.018,8.457-8.854,11.531-14.414c-2.134-10.407-13.35-9.121-17.296-19.22c4.843-2.203,10.32-3.772,15.375-5.767
		c-1.718-9.095-8.989-10.328-13.455-18.259c3.068-9.177,11.263-2.151,17.299-6.725c0.758-10.69-8.139-11.725-9.611-20.182
		c4.821-6.893,12.555-2.511,19.22-5.767c-4.516-1.244-2.203-5.952,0-7.687c-3.434-3.164-8.097-9.581-4.806-16.336
		c6.398-2.018,8.509,2.03,15.376,1.922c3.287-7.423,0.999-13.858-1.922-21.141c7.857-5.024,16.203,0.304,24.024,2.883
		c3.734,7.089-6.382,17.738-1.923,26.905c3.119-9.694,13.303-12.322,13.454-24.984c-4.699-2.669-12.05-2.683-14.414-7.688
		c6.623-7.162,1.874-13.289,4.804-21.141c5.673-1.694,8.498,2.32,15.375,5.767c5.851-4.624,6.546-11.2,5.767-18.259
		c8.331-4.984,11.189,3.302,17.298,5.765c3.365-4.004,7.972-14.214,14.415-18.259c3.544,2.862,5.657,7.155,9.608,9.608
		C133.196,13.396,134.303,4.252,140.299,0z M111.471,39.399c7.863-3.669,18.399-4.666,21.14-13.453
		c-2.511-0.69-2.942-3.46-5.764-3.844C124.607,30.753,112.709,29.745,111.471,39.399z M91.29,46.126
		c-1.309-2.533-5.722-1.966-7.687-3.845c0.423,10.042-11.35,12.985-7.688,23.064c4.203-6.689,12.101-9.68,15.374-17.298
		c1.585,0.014,0.538,2.665,1.922,2.884c4.59-6.945,16.404-6.662,17.298-17.298c-1.689-1.834-3.402-3.646-4.806-5.767
		C103.782,36.837,98.346,42.292,91.29,46.126z M49.969,104.744c1.456-8.835,9.829-14.078,4.806-24.022
		c-2.061-0.835-5.12,0.297-8.65-0.961C52.133,88.587,40.488,100.294,49.969,104.744z M43.243,126.848
		c1.663-10.054,9.434-28.083-7.688-26.906C42.06,108.376,35.163,120.896,43.243,126.848z M27.868,126.848
		c9.582,4.052,1.958,19.38,13.455,21.14c-0.823-3.063,0.836-3.646,1.92-4.803c-4.756-3.943,1.063-14.336-4.806-19.22
		C34.244,124.256,30.468,124.965,27.868,126.848z M27.868,148.951c5.994,4.895,4.478,17.304,13.455,19.217
		C42.854,158.473,40.002,143.504,27.868,148.951z M25.946,173.936c11.636,0.215,7.957,15.742,20.179,15.375
		C46.373,175.796,35.507,160.998,25.946,173.936z M32.673,196.997c11.853,0.319,11.102,13.242,23.063,13.453
		C53.371,200.769,41.714,182.465,32.673,196.997z M43.243,221.02c12.246-2.063,14.741,12.814,24.985,6.728
		c-3.87-3.818-7.248-8.129-9.61-13.452C50.236,210.475,45.878,214.482,43.243,221.02z M78.798,264.265
		c5.845-8.941,23.521,5.056,25.948-5.767C97.242,249.957,75.589,247.301,78.798,264.265z M98.979,275.796
		c8.048-7.765,23.292,1.275,26.906-8.65C114.399,260.768,98.023,259.95,98.979,275.796z M130.691,269.068
		c-6.481,3.917-10.534,11.59-5.767,17.298c4.444-9.724,20.318-3.318,23.064-13.454C142.336,271.515,136.001,270.809,130.691,269.068
		z"/>
</g>
</svg>
