<?xml version="1.0" encoding="utf-8"?>
<!-- Generator: Adobe Illustrator 17.0.0, SVG Export Plug-In . SVG Version: 6.00 Build 0)  -->
<!DOCTYPE svg PUBLIC "-//W3C//DTD SVG 1.1//EN" "http://www.w3.org/Graphics/SVG/1.1/DTD/svg11.dtd">
<svg version="1.1" id="Layer_1" xmlns="http://www.w3.org/2000/svg" xmlns:xlink="http://www.w3.org/1999/xlink" x="0px" y="0px"
	 width="163.941px" height="320px" viewBox="0 0 163.941 320" enable-background="new 0 0 163.941 320" xml:space="preserve">
<g>
	<path fill="#FFFFFF" d="M92.566,283.25c-1.575-1.79-12.703-7.797-12.703-7.797c-13.476-5.703-15.844-6.539-17.736-6.982
		c-1.891-0.441-2.54,1.113-4.458,3.225c-1.918,2.11-5.314,4.447-5.215,6.459c0.098,2.013,0.755,5.294,5.86,9.041
		c1.61,4.073,0.088,5.708,2.205,7.622c2.116,1.915,8.246,2.491,12.993,0.472c4.745-2.02,9.527-1.758,13.047-4.632
		C90.08,287.786,94.142,285.037,92.566,283.25z"/>
	<path fill="#FFFFFF" d="M26.788,191.606c-0.108-2.316-4.258-14.024-4.258-14.024c-5.833-13.075-6.943-15.257-7.945-16.838
		c-1.002-1.582-2.218-0.928-4.544-0.738c-2.326,0.19-5.725-0.456-6.693,1.022c-0.965,1.479-2.218,4.224-0.822,10.29
		c-1.038,3.941-2.863,4.064-2.469,6.833s4.079,7.302,8.196,9.078c4.116,1.777,7.086,5.179,10.844,5.533
		S26.896,193.922,26.788,191.606z"/>
	<path fill="#FFFFFF" d="M6.698,144.316c3.283,2.771,5.088,6.808,8.602,8.238c3.593,1.459,7.428,3.475,7.992,1.186
		c0.564-2.286-0.189-14.775-0.189-14.775c-1.851-13.899-2.269-16.207-2.754-17.913c-0.478-1.699-1.807-1.334-4.017-1.632
		c-2.181-0.295-5.053-1.568-6.347-0.401c-1.29,1.159-3.199,3.409-3.756,9.247c-2.075,3.365-3.709,3.06-4.18,5.666
		C1.577,136.541,3.501,141.6,6.698,144.316z"/>
	<path fill="#FFFFFF" d="M63.649,43.864c1.26,2.931,2.331,6.294,4.068,5.376c1.763-0.933,9.535-8.74,9.535-8.74
		c8.971-10.293,10.493-12.188,11.526-13.724c1.044-1.55-0.138-2.136-1.371-3.773c-1.216-1.615-2.104-4.41-3.884-4.351
		c-1.755,0.057-4.725,0.529-9.388,4.394c-3.685,1.073-4.492-0.131-6.572,1.368c-2.04,1.47-4.164,5.907-3.962,9.501
		C63.835,37.542,62.425,40.984,63.649,43.864z"/>
	<path fill="#FFFFFF" d="M21.521,113.434c3.2,2.206,6.567,5.029,7.672,2.948c1.103-2.084,3.264-14.337,3.264-14.337
		c1.437-13.793,1.573-16.097,1.504-17.83c-0.062-1.721-1.432-1.61-3.48-2.292c-2.008-0.667-4.406-2.385-5.904-1.504
		c-1.491,0.876-3.823,2.668-5.791,8.083c-2.769,2.786-4.204,2.193-5.294,4.551c-1.093,2.36-0.576,7.494,1.753,10.702
		C17.691,107.065,18.444,111.294,21.521,113.434z"/>
	<path fill="#FFFFFF" d="M129.35,300.381c-1.984-1.415-14.455-4.809-14.455-4.809c-14.739-2.547-17.291-2.83-19.274-2.83
		s-2.267,1.698-3.685,4.245s-4.251,5.658-3.685,7.638c0.566,1.981,1.984,5.092,7.937,7.638c2.552,3.679,1.417,5.659,3.967,7.072
		c2.552,1.417,8.787,0.566,13.038-2.547s9.07-3.962,11.903-7.638C127.928,305.474,131.334,301.796,129.35,300.381z"/>
	<path fill="#FFFFFF" d="M37.741,76.601c2.013,2.602,3.963,5.696,5.381,4.266c1.442-1.454,6.786-11.597,6.786-11.597
		c5.821-13.006,6.769-15.363,7.34-17.215c0.583-1.868-0.716-2.122-2.351-3.421c-1.61-1.285-3.229-3.855-4.925-3.281
		c-1.673,0.564-4.399,1.9-7.83,7.158c-3.254,2.148-4.359,1.162-5.951,3.279c-1.56,2.077-2.392,7.179-1.216,10.756
		C36.193,70.15,35.777,74.041,37.741,76.601z"/>
	<path fill="#FFFFFF" d="M52.821,185.799c1.417-4.527-3.967,3.113-5.668-9.902c-1.418-3.963-6.235-1.134-9.353-0.566
		c-3.118,0.566-3.118-1.699-4.819-1.699s-0.851,3.68-2.552,10.187c-1.701,6.507,5.102,16.126,6.518,18.955
		c1.418,2.83,4.536,2.83,7.937-0.566C48.287,198.812,47.153,194.852,52.821,185.799z"/>
	<path fill="#FFFFFF" d="M48.287,229.934c3.685,3.396,6.235,5.941,6.803,7.638c0.566,1.698,3.118,1.698,3.685-0.566
		c0.566-2.264,3.685-9.619,6.235-17.259c2.552-7.638-3.685-6.507-6.52-9.902c-2.835-3.396-3.401-3.396-6.52-1.415
		c-3.118,1.981-4.534,1.415-6.518,1.415s-3.118,1.698-2.267,6.507C44.035,221.163,44.601,226.537,48.287,229.934z"/>
	<path fill="#FFFFFF" d="M70.11,257.66c2.835,0.566,7.652,4.527,9.353,6.224s2.552,0.283,3.118-3.396
		c0.566-3.679,0.849-10.468-2.267-14.145c-3.118-3.679-7.937-9.902-9.638-11.6c-1.701-1.698-4.251,3.679-7.086,3.962
		s-2.835,1.981-1.984,6.507C62.457,249.737,67.277,257.094,70.11,257.66z"/>
	<path fill="#FFFFFF" d="M161.096,7.556c-18.531,1.27-35.492,5.681-50.7,12.545c12.482-8.321,14.775-9.953,16.431-11.327
		c1.693-1.396,0.524-2.158-0.359-3.967c-0.866-1.763-0.994-4.63-2.995-4.772c-1.942-0.138-5.272-0.007-11.219,3.123
		c-3.962,0.554-4.415-0.652-6.827,0.478c-2.323,1.088-5.457,4.807-6.224,8.056c-0.746,3.293-2.909,6.134-2.584,8.934
		c0.298,2.53,0.377,5.353,1.615,5.691C32.51,64.039,5.399,150.259,35.701,218.407c-1.088-1.777-1.913-3.082-1.913-3.082
		c-8.684-11.458-10.278-13.34-11.64-14.66s-2.516-0.411-4.93,0.291c-2.414,0.704-6.119,0.83-6.848,2.489
		c-0.729,1.657-1.516,4.615,1.134,10.224c-0.325,4.078-2.223,4.602-1.272,7.216c0.953,2.614,5.717,6.215,10.396,7.034
		c4.679,0.817,8.469,3.475,12.494,2.983c3.436-0.419,7.145-0.569,7.812-1.993c4.679,8.507,10.306,16.666,16.961,24.316
		c-2.281-2.147-4.325-3.98-4.325-3.98c-11.543-8.61-13.604-9.975-15.299-10.855c-1.694-0.881-2.634,0.365-4.893,1.795
		c-2.257,1.43-5.957,2.688-6.288,4.541c-0.33,1.854-0.399,5.002,3.638,9.707c0.667,4.108-1.117,5.208,0.482,7.485
		c1.598,2.279,7.273,4.364,12.183,3.736c4.91-0.628,9.375,0.827,13.308-0.888c3.727-1.627,7.883-3.027,7.359-4.893
		c21.716,21.982,52.564,39.117,93.636,47.582c3.967,0,3.402-5.375-1.135-5.658c-90.953-19.314-129.635-81.824-129.49-143.983
		c0.406,4.394,1.378,9.018,1.378,11.01c0,0,1.699,3.68,5.102,1.981c3.401-1.698,6.52-5.658,11.62-10.185
		c5.102-4.527,1.134-6.224-0.283-6.507s-0.851-5.658-1.417-9.619c-0.568-3.962-5.669-2.83-7.937-2.264
		c-2.269,0.566-2.835-1.981-5.102-1.132s-0.851,4.244-2.835,8.77c-0.147,0.332-0.259,0.711-0.355,1.107
		c0.433-9.026,1.694-18.007,3.707-26.819c0.035,2.117,0.222,3.968,0.332,5.058c0.283,2.831,2.552,5.093,5.102,3.963
		c2.55-1.132,11.337-6.507,13.889-10.187c2.55-3.679-2.835-3.679,0.849-11.034c0.851-5.658-4.251-5.092-7.652-5.375
		c-3.402-0.283-2.552-3.679-5.102-3.962c-0.352-0.039-0.654,0.074-0.923,0.29c1.819-4.721,3.871-9.351,6.141-13.87
		c-1.487,3.178-2.555,6.281-2.385,7.64c0.283,2.264,0.568,1.981,2.269,2.83c1.699,0.849,11.62-3.113,16.156-5.092
		s0-5.658,2.267-8.487c2.267-2.83-1.417-8.489-3.685-8.489c-2.267,0-0.851-3.962-2.835-3.962s-5.669,5.376-8.502,9.621
		c-0.413,0.616-0.829,1.302-1.241,2.016c4.354-8.075,9.447-15.747,15.214-22.895c-0.138,2.39,2.968,4.184,4.735,4.184
		c1.984,0,2.267-1.415,3.685-4.244c1.418-2.83,11.054-4.809,15.305-6.507c4.25-1.698,1.134-6.789-1.701-7.355
		s0.283-4.244-2.552-3.396c-2.075,0.622-10.367,7.755-15.445,12.536c7.763-8.817,16.653-16.681,26.528-23.358
		c-3.042,2.353-4.847,4.879-4.847,4.879c2.835,2.83,6.803,3.113,13.037,3.679c6.237,0.566,7.086-0.566,8.504-3.113
		s3.967-2.547,7.654-7.921c3.685-5.375-6.803-1.698-5.385-3.113c1.417-1.417,3.118-3.396-0.285-3.396
		c-3.402,0-7.086,3.677-13.32,5.941c-0.948,0.342-1.821,0.778-2.656,1.246c19.178-12.304,41.987-20.107,67.844-21.335
		C165.352,10.427,163.954,7.135,161.096,7.556z"/>
	<path fill="#FFFFFF" d="M107.526,273.22c-3.685-2.83-10.771-6.507-13.323-8.204c-2.55-1.698-4.25-1.698-6.801-1.698
		c-2.552,0-0.285,3.396,2.269,8.77c2.55,5.376,8.502,7.074,12.471,7.357c3.967,0.283,5.1,2.547,9.919,5.375
		c0,0,0.852-3.679,1.135-5.092C113.194,279.728,111.209,276.051,107.526,273.22z"/>
	<path fill="#FFFFFF" d="M123.399,284.538c-3.968-3.396-7.086-3.962-6.803-1.415s6.235,7.638,13.037,10.468
		c0,0,4.819-0.566,2.836-1.698C130.483,290.762,127.365,287.932,123.399,284.538z"/>
</g>
</svg>
