<?xml version="1.0" encoding="utf-8"?>
<!-- Generator: Adobe Illustrator 17.0.0, SVG Export Plug-In . SVG Version: 6.00 Build 0)  -->
<!DOCTYPE svg PUBLIC "-//W3C//DTD SVG 1.1//EN" "http://www.w3.org/Graphics/SVG/1.1/DTD/svg11.dtd">
<svg version="1.1" id="Layer_1" xmlns="http://www.w3.org/2000/svg" xmlns:xlink="http://www.w3.org/1999/xlink" x="0px" y="0px"
	 width="189.529px" height="320px" viewBox="1.307 0 189.529 320" enable-background="new 1.307 0 189.529 320"
	 xml:space="preserve">
<g>
	<path fill="#FFFFFF" d="M36.888,58.979c0,0,8.371,0,11.913-14.812c3.541-14.811,10.303-42.822,5.473-44.111
		c-4.829-1.288-17.065,19.962-20.929,38.638C29.482,57.369,36.888,58.979,36.888,58.979z"/>
	<path fill="#FFFFFF" d="M42.684,59.624c-5.474,10.303-8.693,18.352-4.186,22.216c0,0,4.187,5.151,14.168-7.084
		C62.647,62.522,74.56,46.1,71.34,42.559C68.12,39.017,48.157,49.32,42.684,59.624z"/>
	<path fill="#FFFFFF" d="M34.633,165.232c0,0,12.88-0.644,17.709-27.368c0,0,4.507-20.284,0.644-22.538
		c-3.864-2.254-12.88,7.084-17.387,15.777C31.092,139.796,21.433,165.232,34.633,165.232z"/>
	<path fill="#FFFFFF" d="M47.191,206.769c0,0,9.659,0.321,11.591-14.49c1.932-14.812,2.576-39.604-2.576-41.213
		c-5.152-1.61-16.742,12.557-18.352,35.096C37.853,186.162,35.6,205.48,47.191,206.769z"/>
	<path fill="#FFFFFF" d="M66.832,186.481c0,0-8.371,0-10.303,34.132c0,0-0.644,27.69,16.742,21.251c0,0,7.727-1.29,6.117-17.389
		C77.778,208.377,73.593,187.126,66.832,186.481z"/>
	<path fill="#FFFFFF" d="M147.326,286.296c0,0,10.303-9.981-2.253-24.793c-12.557-14.81-26.08-23.183-29.3-20.929
		c-3.221,2.254-2.576,19.641,12.556,38.637C128.329,279.211,138.632,291.447,147.326,286.296z"/>
	<path fill="#FFFFFF" d="M105.468,266.012c0,0,11.592-4.831,2.576-23.506c-9.016-18.674-20.284-26.079-22.216-26.079
		c-1.932,0-8.371,4.506,1.288,33.164C87.116,249.59,95.165,269.231,105.468,266.012z"/>
	<path fill="#FFFFFF" d="M44.292,114.359c8.695-13.201,17.387-34.773,14.49-37.027c-2.897-2.254-21.25,7.082-27.69,26.08
		c0,0-6.439,16.742-0.644,18.997C30.447,122.41,35.599,127.56,44.292,114.359z"/>
	<path fill="#FFFFFF" d="M105.791,299.499c0,0,25.437,0.965,20.929-9.339c0,0-2.253-9.337-18.03-12.234
		c-15.777-2.899-47.976-7.085-49.586-1.289C57.494,282.433,78.744,300.465,105.791,299.499z"/>
	<path fill="#FFFFFF" d="M157.308,293.702c-14.167,0.643-56.025,8.048-55.702,13.524c0.322,5.474,23.504,17.709,56.668,10.625
		c0,0,25.115-6.118,17.709-17.066C175.982,300.785,171.475,293.057,157.308,293.702z"/>
	<path fill="#FFFFFF" d="M87.761,264.08c0,0,3.542-9.66-26.08-20.286c-29.622-10.623-34.452-11.269-36.063-9.338
		c-1.61,1.933,12.235,28.657,35.096,33.486C83.576,272.773,86.794,270.841,87.761,264.08z"/>
	<path fill="#FFFFFF" d="M178.559,264.08c-10.948-6.438-25.115-12.556-28.335-10.624c-3.22,1.931-1.288,24.147,16.099,34.45
		c0,0,15.687,10.14,24.512-2.336v-8.914C189.673,274.065,186.484,268.742,178.559,264.08z"/>
	<path fill="#FFFFFF" d="M21.433,147.845c7.084-1.288,4.507-18.031,4.508-18.031c-7.084-38.637-15.777-42.5-15.777-42.5
		c-5.474-0.322-3.22,38.315-1.932,46.365C9.52,141.728,14.349,149.133,21.433,147.845z"/>
	<path fill="#FFFFFF" d="M24.975,103.091c6.439,0,6.761-20.929,6.761-20.929c2.897-38.316-4.829-40.57-4.829-40.57
		c-4.508-0.643-9.981,30.589-10.625,41.214C15.637,93.432,18.535,103.091,24.975,103.091z"/>
	<path fill="#FFFFFF" d="M31.414,190.346c0,0,8.049-5.795-3.542-25.114S4.688,137.219,3.723,137.541s-8.049,12.88,7.728,40.247
		C11.451,177.789,22.72,197.752,31.414,190.346z"/>
	<path fill="#FFFFFF" d="M50.733,231.239c0,0,5.796-14.17-12.235-26.726c-18.03-12.556-27.368-19.962-30.587-16.419
		c-3.22,3.541,6.761,27.69,19.641,37.67C40.429,235.745,47.191,234.458,50.733,231.239z"/>
</g>
</svg>
